<svg
  xmlns="http://www.w3.org/2000/svg"
  fill="none"
  data-colorful="true"
  data-type="icon"
  viewBox="0 0 40 40"
>
  <path fill="#fafafa" d="M0 0h40v40H0z" />
  <path
    fill="#cc3434"
    d="m15.678 8.538.253.266.222.21a6 6 0 0 0 1.205-.18c.858-.197 1.693-.218 2.571-.214h.446c.91.01 1.733.07 2.609.327.353.078.556.061.9-.052.256-.175.256-.175.498-.394.709-.57 1.423-.98 2.356-.9.36.053.448.077.713.343-.044.312-.044.312-.119.594l-.226-.016c-1.088-.046-1.682.29-2.509.968l.34.188c2.652 1.505 4.534 3.768 5.421 6.706l.066.241.284-.012c.964-.025 1.555.013 2.31.652.506.606.559 1.176.543 1.945-.1.868-.412 1.67-1.078 2.254-.424.32-.692.41-1.226.409h-.32c-.275-.015-.275-.015-.513-.134l-.04.233c-.58 2.77-2.41 5.548-4.771 7.118-1.516.974-1.516.974-2.086.974v2.379h-2.379v-2.26l-.357.119q-.383.016-.765.015h-.409c-.372-.015-.372-.015-.847-.134v2.26h-2.38v-2.379l-.595-.119c-2.776-1.233-4.721-3.797-5.857-6.543a9.6 9.6 0 0 1-.446-1.663l-.238.12c-.589.064-1.055.066-1.59-.202-.749-.659-1.182-1.423-1.31-2.42-.027-.761.04-1.404.522-2.017.644-.524 1.12-.611 1.932-.602l.389.003.295.004.123-.357c.58-1.647 1.327-3.083 2.494-4.4l.208-.242c.808-.876 1.921-1.64 3.003-2.136-.71-.558-1.225-.936-2.141-.952l-.357-.007-.238.007c-.074-.282-.074-.282-.119-.594.929-.929 2.365.003 3.212.594"
  />
  <path
    fill="#0a0a12"
    d="M23.884 13.177c.486.215.792.498 1.07.951.075.598.004.946-.356 1.427-.328.382-.598.46-1.1.528-.587-.068-.898-.323-1.279-.765-.147-.441-.173-.726-.119-1.19.486-.756.873-1.013 1.784-.951"
  />
  <path
    fill="#090a12"
    d="M17.326 13.46c.344.364.482.597.56 1.1-.095.573-.333.98-.78 1.352-.441.147-.726.173-1.19.119-.421-.226-.752-.494-.919-.952-.08-.493-.045-.878.206-1.308.212-.254.382-.432.684-.572.54-.045.995-.07 1.439.261"
  />
  <path
    fill="#fe4c4c"
    d="m26.693 7.624.28.029c.24.053.24.053.478.29-.044.313-.044.313-.119.596l-.226-.017c-1.306-.055-1.956.488-2.912 1.334-.317.233-.518.306-.905.348-.097-.26-.097-.26-.12-.595.239-.29.239-.29.596-.595l.187-.175c.769-.702 1.664-1.335 2.741-1.215"
  />
  <path
    fill="#fe4d4d"
    d="M15.678 8.538c.413.298.828.615 1.07 1.07-.037.328-.037.328-.119.595-.55-.058-.817-.27-1.226-.631-.951-.799-1.561-1.126-2.817-1.034-.075-.282-.075-.282-.12-.594.938-.938 2.353.018 3.212.594"
  />
  <path
    fill="#00dac2"
    d="M24.241 13.89c.158.644.158.644-.007.945-.339.185-.58.096-.944.007-.157-.644-.157-.644.007-.944.34-.186.58-.096.944-.007m-7.135 0c.157.644.157.644-.008.945-.338.185-.58.096-.944.007-.157-.644-.157-.644.008-.944.338-.186.579-.096.944-.007"
  />
</svg>
