<svg
  xmlns="http://www.w3.org/2000/svg"
  fill="none"
  data-colorful="true"
  data-type="icon"
  viewBox="0 0 40 40"
>
  <path fill="url(#paint0_linear_5360_13256)" d="M0 0h40v40H0z" />
  <g clip-path="url(#clip0_5360_13256)">
    <path
      fill="#fff"
      d="M33.748 18.283a12 12 0 0 0-.293-1.73c-.16-.639-.426-1.331-.772-2.077-.373-.719-.825-1.491-1.438-2.21-.24-.292-.506-.558-.772-.85.427-1.678-.506-3.142-.506-3.142-1.624-.106-2.636.506-3.008.772-.053-.026-.132-.053-.186-.08a33 33 0 0 0-.852-.32c-.292-.079-.586-.186-.878-.24-.293-.079-.612-.131-.931-.186-.053 0-.106-.026-.16-.026C23.259 5.958 21.237 5 21.237 5c-2.317 1.492-2.769 3.488-2.769 3.488s0 .053-.026.105c-.132.027-.24.08-.372.106-.16.054-.346.106-.506.187-.16.08-.346.132-.507.213-.346.16-.664.32-1.011.506-.367.206-.671.4-.964.608l.033-.022a.3.3 0 0 1-.08-.054c-3.115-1.197-5.883.24-5.883.24-.24 3.328 1.252 5.404 1.544 5.776-.08.213-.132.399-.213.613a12.6 12.6 0 0 0-.498 2.249l-.008.067c-.026.106-.026.24-.053.346-2.875 1.411-3.727 4.339-3.727 4.339 2.397 2.768 5.218 2.929 5.218 2.929.382.687.787 1.28 1.24 1.83l-.016-.02c.186.24.398.453.612.693-.878 2.502.132 4.605.132 4.605 2.689.106 4.445-1.171 4.818-1.464l.799.24c.825.213 1.677.346 2.502.373h1.091c1.252 1.81 3.488 2.05 3.488 2.05 1.57-1.677 1.677-3.301 1.677-3.674v-.16c.32-.24.638-.48.959-.746.638-.559 1.17-1.225 1.65-1.916.053-.054.08-.132.132-.187 1.784.106 3.035-1.117 3.035-1.117-.293-1.864-1.358-2.769-1.57-2.929l-.08-.079c0-.106.027-.212.027-.346.026-.212.026-.398.026-.612v-.772c0-.054 0-.106-.026-.16l-.053-.32c-.027-.213-.08-.399-.106-.613a7.9 7.9 0 0 0-.925-2.271l.02.036a8.4 8.4 0 0 0-1.51-1.803l-.007-.007a7.4 7.4 0 0 0-1.87-1.206l-.046-.02a6.5 6.5 0 0 0-2.072-.582l-.031-.003c-.346-.053-.719-.053-1.065-.053h-.532c-.187.026-.373.053-.533.08a6 6 0 0 0-1.97.745 6 6 0 0 0-1.517 1.304 5.4 5.4 0 0 0-.947 1.587l-.012.036a5.8 5.8 0 0 0-.373 1.73v.638c0 .08 0 .133.027.213.089.86.405 1.633.886 2.275l-.008-.012c.32.427.665.746 1.065 1.012.398.266.799.453 1.225.586q.64.2 1.198.16h.557c.054 0 .106-.026.133-.026.053 0 .08-.026.132-.026.08-.027.186-.054.266-.08.16-.053.32-.132.479-.187q.24-.12.398-.24c.027-.026.08-.053.106-.08a.3.3 0 0 0 .054-.426v.001a.37.37 0 0 0-.401-.08h.002c-.026.026-.053.026-.106.053a1.7 1.7 0 0 1-.333.13l-.013.002c-.132.026-.266.08-.398.106-.08 0-.132.026-.213.026h-.558c-.028 0-.08 0-.107-.026a4 4 0 0 1-.904-.266 2.9 2.9 0 0 1-.825-.559 3.4 3.4 0 0 1-.665-.825 2.9 2.9 0 0 1-.346-1.012c-.026-.186-.053-.372-.026-.558v-.295c0-.106.026-.186.053-.292a3.9 3.9 0 0 1 1.144-2.155l.001-.001c.16-.16.32-.293.506-.399q.28-.199.56-.32c.186-.08.397-.16.611-.212.213-.054.427-.106.639-.106.106 0 .212-.026.32-.026h.318a5.1 5.1 0 0 1 2.05.625l-.026-.013c.852.479 1.57 1.197 1.996 2.076a4.9 4.9 0 0 1 .453 1.411c.026.132.026.24.053.372v.693c0 .132-.026.266-.026.399-.026.132-.026.266-.053.398l-.08.398c-.026.133-.16.507-.24.773s-.453.985-.772 1.41a6.5 6.5 0 0 1-2.463 2.034l-.04.017c-.506.213-1.011.399-1.544.48-.24.05-.515.079-.799.079h-.424c-.132 0-.293 0-.427-.026a9 9 0 0 1-1.703-.32 8.3 8.3 0 0 1-1.598-.638 8.8 8.8 0 0 1-2.622-2.167l-.012-.016c-.346-.453-.665-.93-.931-1.437-.266-.506-.453-1.039-.612-1.57a6.7 6.7 0 0 1-.266-1.637v-.838a5 5 0 0 1 .08-.852c.026-.292.079-.558.132-.85.052-.293.132-.56.212-.852.08-.293.346-1.091.586-1.598.48-1.011 1.091-1.916 1.81-2.635.187-.187.373-.346.586-.506.08-.08.267-.24.48-.372.212-.133.426-.267.664-.373.106-.053.213-.106.346-.16.054-.026.106-.053.187-.08.053-.026.106-.053.186-.08.24-.105.48-.186.72-.265.053-.027.131-.027.186-.054s.132-.026.186-.053c.055-.028.24-.054.373-.106.053-.027.132-.027.186-.054.054 0 .132-.026.187-.026s.132-.026.186-.026l.213-.054c.054 0 .132-.026.187-.026.08 0 .132-.026.213-.026.053 0 .16-.026.212-.026.053 0 .08 0 .133-.027h.186c.08 0 .132 0 .213-.026h1.091c.48.026.96.08 1.411.16a9 9 0 0 1 2.605.875l-.05-.023a9.7 9.7 0 0 1 2.089 1.367l-.013-.01c.027.026.08.054.106.106.026.026.08.053.106.106.08.053.132.132.213.187s.132.132.213.186c.053.08.132.132.186.213a9.9 9.9 0 0 1 1.732 2.419l.026.056c.026.026.026.053.054.106.026.026.026.053.053.106.027.052.053.132.106.186.026.054.053.133.08.187.026.054.053.132.08.186.105.24.186.48.266.72.132.372.212.692.292.959a.26.26 0 0 0 .24.186c.132 0 .213-.106.213-.24-.026-.32-.026-.665-.053-1.065z"
    />
  </g>
  <defs>
    <linearGradient
      id="paint0_linear_5360_13256"
      x1="40.704"
      x2="1.065"
      y1=".296"
      y2="41.054"
      gradientUnits="userSpaceOnUse"
    >
      <stop stop-color="#ffc892" />
      <stop offset="1" stop-color="#ff3d07" />
    </linearGradient>
    <clipPath id="clip0_5360_13256">
      <path fill="#fff" d="M5 5h30v30H5z" />
    </clipPath>
  </defs>
</svg>
