<svg
  xmlns="http://www.w3.org/2000/svg"
  fill="none"
  data-colorful="true"
  data-type="icon"
  viewBox="0 0 30 30"
>
  <path fill="#fff" d="M0 0h30v30H0z" />
  <mask id="a" fill="#fff">
    <path
      d="M15.44 3.34q.29.16.5.4l.06.07.33.35q.11.13.24.25l.29.3.3.33c.22.21.22.21.31.32q.16.18.33.34.2.18.37.39l.3.32q.15.12.26.27.16.2.36.37a7 7 0 0 1 .63.66q.15.13.27.28.18.2.37.38l.3.34.18.17c.12.12.19.22.2.39a1 1 0 0 1-.25.55l-.1.11-.05.06-.2.27-.09.1-.04.05-.24.3-1.1 1.4-1.55 1.95-.41.52-.36.46-.12.15-.78.99-.51.66q-.37.45-.71.92l-.04.06-.08.11a1 1 0 0 1-.2.2c-.07.07-.08.1-.1.2v.07l-.02.09v.06c-.09.73-.06 1.46.4 2.07l.1.12.05.06c.4.42.97.64 1.5.82q.54.18 1.03.44l.1.05q1 .51 1.38 1.58c.13.54.04 1.1-.22 1.58a4 4 0 0 1-.85.97c-.13.11-.23.19-.41.2a.4.4 0 0 1-.2-.1c-.07-.1-.07-.12-.08-.22v-.06q.04-.18.2-.27l.08-.06c.44-.3.77-.73.88-1.27q.05-.44-.12-.85l-.04-.08c-.35-.71-1.1-1-1.8-1.25a6 6 0 0 1-1.75-.93 2.7 2.7 0 0 1-.93-2.18v-.1q0-.32.05-.64c.04-.29-.03-.43-.17-.69l-.06-.1-.43-.8-.9-1.69-1.37-2.56-.6-1.13-.21-.38-.73-1.36-.05-.08-.1-.18-.24-.45-.05-.08-.1-.17q0-.04-.03-.08l-.04-.07-.07-.27v-.06c.04-.21.21-.33.38-.45l.2-.14.34-.23.13-.1.07-.05.33-.23.13-.1.26-.19.07-.05.13-.1 1.68-1.2.4-.29L13.9 4.1l.07-.05.81-.59a.8.8 0 0 1 .65-.11"
    />
  </mask>
  <path
    fill="#1756be"
    stroke="#005bff"
    stroke-width="2.66"
    d="M15.44 3.34q.29.16.5.4l.06.07.33.35q.11.13.24.25l.29.3.3.33c.22.21.22.21.31.32q.16.18.33.34.2.18.37.39l.3.32q.15.12.26.27.16.2.36.37a7 7 0 0 1 .63.66q.15.13.27.28.18.2.37.38l.3.34.18.17c.12.12.19.22.2.39a1 1 0 0 1-.25.55l-.1.11-.05.06-.2.27-.09.1-.04.05-.24.3-1.1 1.4-1.55 1.95-.41.52-.36.46-.12.15-.78.99-.51.66q-.37.45-.71.92l-.04.06-.08.11a1 1 0 0 1-.2.2c-.07.07-.08.1-.1.2v.07l-.02.09v.06c-.09.73-.06 1.46.4 2.07l.1.12.05.06c.4.42.97.64 1.5.82q.54.18 1.03.44l.1.05q1 .51 1.38 1.58c.13.54.04 1.1-.22 1.58a4 4 0 0 1-.85.97c-.13.11-.23.19-.41.2a.4.4 0 0 1-.2-.1c-.07-.1-.07-.12-.08-.22v-.06q.04-.18.2-.27l.08-.06c.44-.3.77-.73.88-1.27q.05-.44-.12-.85l-.04-.08c-.35-.71-1.1-1-1.8-1.25a6 6 0 0 1-1.75-.93 2.7 2.7 0 0 1-.93-2.18v-.1q0-.32.05-.64c.04-.29-.03-.43-.17-.69l-.06-.1-.43-.8-.9-1.69-1.37-2.56-.6-1.13-.21-.38-.73-1.36-.05-.08-.1-.18-.24-.45-.05-.08-.1-.17q0-.04-.03-.08l-.04-.07-.07-.27v-.06c.04-.21.21-.33.38-.45l.2-.14.34-.23.13-.1.07-.05.33-.23.13-.1.26-.19.07-.05.13-.1 1.68-1.2.4-.29L13.9 4.1l.07-.05.81-.59a.8.8 0 0 1 .65-.11Z"
    mask="url(#a)"
  />
  <path
    fill="#fcfdfe"
    d="M15.03 5.33q.14.08.2.24v.12l-.01.07-.05.23a2 2 0 0 0-.02.55c0 .06 0 .06.05.14l.12.04.08.03.07.02c.68.2 1.39.57 1.8 1.18l.04.05c.3.02.53-.19.76-.35q.13-.1.29-.14c.13.03.18.07.27.17q.06.12.03.26c-.1.16-.22.22-.4.29-.33.14-.33.14-.56.4q0 .15.06.28c.24.67.22 1.4.01 2.07a.4.4 0 0 0 .01.24c.13.13.28.18.45.24a.6.6 0 0 1 .31.26c.03.12.01.16-.05.27-.08.1-.1.1-.24.13-.16 0-.26-.1-.39-.2a1 1 0 0 0-.35-.17c-.16.04-.2.13-.28.26-.35.5-.86.86-1.4 1.14l-.1.06c-.02.23.08.42.19.62.06.13.06.21.02.35a.4.4 0 0 1-.27.16.4.4 0 0 1-.26-.16l-.08-.3c-.05-.27-.05-.27-.21-.5h-.35l-.22.01q-.37.01-.74-.05l-.27-.01a1 1 0 0 0-.14.25l-.03.07-.05.15c-.08.24-.08.24-.2.32h-.26a.4.4 0 0 1-.18-.24c0-.19.12-.33.22-.5.08-.12.1-.2.08-.34l-.18-.14-.12-.08-.06-.04a3.4 3.4 0 0 1-1.07-1.35c-.03-.07-.03-.07-.1-.1q-.28.01-.53.17c-.15.08-.24.08-.4.04q-.13-.08-.16-.23-.03-.14.07-.25c.11-.1.22-.12.36-.15l.22-.05q.13-.04.24-.14.02-.12.01-.25v-.23a3 3 0 0 1 .43-1.95c0-.15-.06-.24-.16-.35q-.15-.13-.34-.23c-.14-.08-.27-.17-.31-.34 0-.15.02-.23.14-.34q.14-.06.29-.03a1 1 0 0 1 .27.23c.14.16.3.32.5.37.12 0 .16-.02.24-.1l.06-.05a3.2 3.2 0 0 1 1.83-.77c.14 0 .14 0 .26-.08.11-.25.1-.5.09-.77v-.18q.01-.17.14-.28.15-.08.33-.04"
  />
  <path
    fill="#d4d9df"
    d="M18.61 16.8h.1a3 3 0 0 1 2.16.96c.35.36.78.97.78 1.49l.06-.02a2 2 0 0 1 1.45.33c.4.29.7.72.78 1.21l.01.31q.02.17-.08.3c-.09.07-.1.1-.22.1a.4.4 0 0 1-.24-.1q-.09-.13-.09-.3c-.04-.4-.17-.68-.47-.95a1.5 1.5 0 0 0-.97-.27l-.3.08a.6.6 0 0 1-.37.01.4.4 0 0 1-.18-.27l-.02-.15a2.4 2.4 0 0 0-.95-1.57 2.45 2.45 0 0 0-3 .11l-.07.06q-.4.36-.61.85c-.1.23-.1.23-.2.3a1 1 0 0 1-.52-.1 1 1 0 0 0-.33-.05h-.23a1 1 0 0 1-.3-.08c-.1-.1-.1-.17-.1-.3q.04-.14.15-.23.1-.05.21-.04h.29q.25 0 .5.04l.04-.08a3 3 0 0 1 .52-.73 3 3 0 0 1 2.2-.9"
  />
  <path
    fill="#d5dadf"
    d="M6.12 20.8H9.1l3.72-.02h.08q.16-.02.31.1c.08.08.1.1.11.22a.4.4 0 0 1-.13.29.4.4 0 0 1-.24.06H10l-3.7.01h-.08c-.12 0-.2 0-.3-.09-.1-.1-.12-.16-.12-.3.02-.11.08-.16.16-.24q.08-.04.17-.03"
  />
  <path
    fill="#6677e3"
    d="M21.21 13.57q.28.23.34.58a1 1 0 0 1-.26.72 1 1 0 0 1-.64.23 1 1 0 0 1-.58-.28 1 1 0 0 1-.2-.73 1 1 0 0 1 .48-.6c.28-.15.6-.07.86.08"
  />
  <path
    fill="#01936a"
    d="M10.31 17.52c.2.11.28.3.35.5q.06.34-.11.64a.8.8 0 0 1-.5.32c-.24.03-.45.03-.65-.11l-.09-.07a1 1 0 0 1-.26-.55q0-.38.27-.65c.3-.26.65-.24 1-.08"
  />
  <path
    fill="#1c58bf"
    d="m17.08 9.05.06.2.03.1q.17.75-.09 1.46-.16-.03-.3-.1l-.1-.04-.1-.05-.1-.05-.56-.28-.06-.03c-.15-.07-.15-.07-.18-.17q-.06-.18.02-.33.28-.22.61-.37l.27-.14.08-.05.15-.09.07-.03.06-.04c.05-.02.05-.02.14.01"
  />
  <path
    fill="#1856bd"
    d="M15.12 7.47a2.1 2.1 0 0 1 1.55.9l-.5.3-.1.06-.6.35c-.12.04-.19.02-.3-.02L15 8.94c-.01-.06-.01-.06 0-.14v-.08l.05-.8.02-.13v-.07q0-.12.05-.25"
  />
  <path
    fill="#1553bc"
    d="M14.38 7.41a11 11 0 0 1-.02 1c-.01.39-.01.39-.13.5-.12.08-.2.12-.35.1a.4.4 0 0 1-.2-.1l-.05-.05-.27-.22-.36-.29-.26-.2c.1-.25.44-.42.68-.52q.22-.1.46-.16l.07-.02q.21-.04.43-.04m-2.13 1.26q.16.09.3.2l.11.1q.03 0 .06.04l.27.21.46.36-.02.19-.02.1c-.03.1-.05.12-.14.18l-.13.05-.07.02-.08.03-.09.02-.44.15-.17.05-.08.03-.08.02-.06.02-.12.02c-.1-.54 0-1.09.2-1.58l.04-.07z"
  />
  <path
    fill="#1452bb"
    d="m13.6 10.75.1.1.04.04q.06.17-.02.33l-.08.21-.04.08-.1.23-.26.62q-.24-.1-.44-.29l-.06-.05a3 3 0 0 1-.55-.8v-.09l.06-.02.17-.05.2-.07.46-.15.07-.02.13-.05q.16-.07.31-.02"
  />
  <path
    fill="#1a56be"
    d="M15.52 10.9q.31.12.63.28l.2.09.1.06.3.13a1 1 0 0 1-.2.31l-.04.05a3 3 0 0 1-.68.55q-.14.1-.3.11l-.31-1.04-.03-.09-.04-.22c.05-.09.05-.09.11-.14l.07-.08c.08-.04.08-.04.19-.01"
  />
  <path
    fill="#1755bd"
    d="M14.77 9.56q.23.13.32.37.04.24-.08.45a1 1 0 0 1-.33.23.6.6 0 0 1-.5-.12.6.6 0 0 1-.18-.5q.05-.26.28-.4t.5-.03"
  />
  <path
    fill="#1753bc"
    d="M14.46 11.28h.07l.22.73.08.26.02.09.03.08.02.07.01.18c-.35.08-.74.03-1.08-.06q.08-.27.19-.52 0-.04.03-.07l.06-.15.15-.36.03-.06c.08-.19.08-.19.17-.2"
  />
  <path
    fill="#1347b8"
    d="m17.67 25.28.05.03-.16.19-.05.05c-.17.18-.17.18-.25.23l-.1-.03.2-.17.04-.04z"
  />
  <path
    fill="#1342b6"
    d="M14.24 9.6c0 .11-.03.16-.09.24h-.06q0 .2-.03.41-.1-.14-.06-.32a1 1 0 0 1 .24-.32"
  />
  <path
    fill="#0a3cb2"
    d="M10.72 12.9q.12.1.18.26.04.08.12.14l-.06.09-.12-.22-.03-.06c-.09-.15-.09-.15-.09-.22"
  />
  <path
    fill="#5769df"
    d="M20.68 13.41h.08c.07 0 .07 0 .16.07l-.17.01-.1.02c-.08 0-.08 0-.17-.06q.1-.05.2-.04"
  />
  <path fill="#2d66c4" d="M17.96 9.96h.03v.38l-.06.03q-.04-.12-.03-.23h.03z" />
  <path
    fill="#0c3fb6"
    d="m17.1 25.78.07.03-.09.15h-.12l-.03.06c.01-.1.03-.12.1-.19z"
  />
  <path fill="#0a3bb2" d="m17.4 25.55.06.03-.17.2-.12-.03z" />
  <path fill="#1f5ec0" d="M17.43 11.78h.09q-.06.14-.2.2z" />
  <path fill="#0d3db5" d="m17 9.02.08.03.03.2c-.06-.08-.06-.08-.06-.14h-.15z" />
  <path
    fill="#0d46b6"
    d="m9.17 7.5.03.09h-.06l-.06.12-.06-.03a.3.3 0 0 1 .15-.18"
  />
  <path fill="#0d46b8" d="m13.97 4.04.03.12-.11.06-.06-.06z" />
</svg>
