<svg
  xmlns="http://www.w3.org/2000/svg"
  fill="none"
  data-colorful="true"
  data-type="icon"
  viewBox="0 0 40 40"
>
  <path fill="#fafafa" d="M0 0h40v40H0z" />
  <path
    fill="url(#paint0_linear_5356_12618)"
    d="M11.497 19.106c1.709 2.499 5.251 2.268 5.251 2.268-.878-.856-1.456-1.642-1.526-3.863-.069-2.221-1.317-2.823-1.317-2.823 2.276-1.426 1.456-2.984 1.387-4.713-.043-1.068.596-1.872 1.09-2.328-5.462.806-9.653 5.512-9.653 11.198 0 .402.042.777.083 1.168.21-.56 3.105-3.217 4.686-.907z"
  />
  <path
    fill="url(#paint1_linear_5356_12618)"
    d="M30.846 12.32a5.35 5.35 0 0 0-3.502-1.28c-2.858 0-5.268 2.329-5.406 5.183-.007.128-.007.22-.007.33 0 .193.017.403.032.568.026.287.124.746.194 1.146a7.8 7.8 0 0 1-.37 4.243 7.87 7.87 0 0 1-2.666 3.488 7.66 7.66 0 0 1-4.567 1.488 7.6 7.6 0 0 1-3.461-.814c-2.15-1.082-3.693-3.077-4.17-5.568.942 6.372 6.508 11.248 13.142 11.248 7.293 0 13.207-5.913 13.207-13.207 0-1.042-.116-1.977-.277-2.77a10 10 0 0 0-.598-1.918c-.365-.848-.832-1.531-1.55-2.137"
  />
  <mask
    id="mask0_5356_12618"
    width="28"
    height="22"
    x="6"
    y="11"
    maskUnits="userSpaceOnUse"
    style="mask-type: luminance"
  >
    <path
      fill="#fff"
      d="M30.846 12.32a5.35 5.35 0 0 0-3.502-1.28c-2.858 0-5.268 2.329-5.406 5.183-.007.128-.007.22-.007.33 0 .193.017.403.032.568.026.287.124.746.194 1.146a7.8 7.8 0 0 1-.37 4.243 7.87 7.87 0 0 1-2.666 3.488 7.66 7.66 0 0 1-4.567 1.488 7.6 7.6 0 0 1-3.461-.814c-2.15-1.082-3.693-3.077-4.17-5.568.942 6.372 6.508 11.248 13.142 11.248 7.293 0 13.207-5.913 13.207-13.207 0-1.042-.116-1.977-.277-2.77a10 10 0 0 0-.598-1.918c-.365-.848-.832-1.531-1.55-2.137"
    />
  </mask>
  <g mask="url(#mask0_5356_12618)">
    <path
      fill="url(#paint2_linear_5356_12618)"
      d="M18.634 29.857c6.428 0 11.639-5.21 11.639-11.639 0-6.427-5.21-11.638-11.639-11.638-6.427 0-11.638 5.21-11.638 11.638s5.21 11.639 11.638 11.639"
    />
  </g>
  <defs>
    <linearGradient
      id="paint0_linear_5356_12618"
      x1="14.786"
      x2="3.666"
      y1="6.096"
      y2="23.619"
      gradientUnits="userSpaceOnUse"
    >
      <stop stop-color="#0aa3f9" />
      <stop offset="1" stop-color="#b5b4ff" />
    </linearGradient>
    <linearGradient
      id="paint1_linear_5356_12618"
      x1="37.192"
      x2="19.517"
      y1="32.948"
      y2="10.209"
      gradientUnits="userSpaceOnUse"
    >
      <stop stop-color="#0aa3f9" />
      <stop offset="1" stop-color="#b5b4ff" />
    </linearGradient>
    <linearGradient
      id="paint2_linear_5356_12618"
      x1="26.707"
      x2="6.431"
      y1="6.586"
      y2="25.832"
      gradientUnits="userSpaceOnUse"
    >
      <stop stop-color="#7abbfd" />
      <stop offset="1" stop-color="#7abbfd" stop-opacity="0" />
    </linearGradient>
  </defs>
</svg>
