<svg
  xmlns="http://www.w3.org/2000/svg"
  fill="none"
  data-colorful="true"
  data-type="icon"
  viewBox="0 0 40 40"
>
  <path fill="url(#paint0_linear_5360_13528)" d="M0 0h40v40H0z" />
  <path
    fill="#fafafa"
    d="M13.043 24.626a4.2 4.2 0 0 1-2.293-.677 4.5 4.5 0 0 1-1.611-1.846 4.78 4.78 0 0 1 .408-4.801 4.4 4.4 0 0 1 1.897-1.516 4.15 4.15 0 0 1 2.371-.239 4.27 4.27 0 0 1 2.136 1.11 4.6 4.6 0 0 1 1.26 2.127l1.636-1.858a6.7 6.7 0 0 0-3.099-3.127 6.23 6.23 0 0 0-4.275-.426 6.5 6.5 0 0 0-3.602 2.459 7.1 7.1 0 0 0-1.37 4.28 7.1 7.1 0 0 0 1.454 4.25 6.5 6.5 0 0 0 3.65 2.381 6.24 6.24 0 0 0 4.265-.519 6.7 6.7 0 0 0 3.037-3.194L17.2 21.378a4.6 4.6 0 0 1-1.57 2.344c-.747.584-1.654.9-2.586.903z"
  />
  <path
    fill="#fff"
    d="M26.995 13.182c-3.603 0-5.984 4.006-8.704 6.867 2.177 2.29 5.104 6.866 8.704 6.866a6.25 6.25 0 0 0 2.529-.493 6.5 6.5 0 0 0 2.152-1.481 6.9 6.9 0 0 0 1.44-2.24 7.18 7.18 0 0 0 0-5.304 6.9 6.9 0 0 0-1.44-2.24 6.5 6.5 0 0 0-2.152-1.482 6.25 6.25 0 0 0-2.529-.493m-.387 11.28c-2.321 0-4.196-2.941-5.585-4.413 1.748-1.84 3.264-4.413 5.595-4.413 1.113 0 2.18.465 2.967 1.293a4.53 4.53 0 0 1 1.23 3.12 4.53 4.53 0 0 1-1.23 3.12 4.1 4.1 0 0 1-2.967 1.293z"
  />
  <defs>
    <linearGradient
      id="paint0_linear_5360_13528"
      x1="40.062"
      x2="1.644"
      y1="1.469"
      y2="41.497"
      gradientUnits="userSpaceOnUse"
    >
      <stop stop-color="#70a9cc" />
      <stop offset="1" stop-color="#1e7fbb" />
    </linearGradient>
  </defs>
</svg>
