<svg
  xmlns="http://www.w3.org/2000/svg"
  fill="none"
  data-colorful="true"
  data-type="icon"
  viewBox="0 0 40 40"
>
  <path fill="url(#paint0_linear_5360_13377)" d="M0 0h40v40H0z" />
  <path
    fill="url(#paint1_linear_5360_13377)"
    fill-rule="evenodd"
    d="m15.54 24.46-.054-.055a9.24 9.24 0 0 0-3.876-2.323l-.002-.001a10 10 0 0 0-.988-.26l-.265-.062c-.706-.165-1.415-.368-1.897-.855-.807-.813-.384-2.102.027-3.056l.227-.51.19-.395c.402-.807.962-1.67 1.806-1.909.544-.153 1.101-.13 1.66-.107l.362.014c.243.006.486.006.726-.017 3.105-4.45 7.098-6.21 10.44-6.736a15 15 0 0 1 4.378-.051l.493.074c.766.124 1.624.332 2.15.863l.004.005.005.005c.532.525.739 1.383.864 2.149l.073.493a15 15 0 0 1-.051 4.378c-.527 3.342-2.286 7.335-6.736 10.44-.023.24-.023.483-.017.726l.014.363c.023.558.046 1.115-.107 1.659-.239.844-1.102 1.404-1.909 1.807l-.395.19-.51.226c-.954.411-2.243.834-3.056.027-.487-.482-.69-1.192-.855-1.897l-.062-.265a10 10 0 0 0-.26-.988v-.002a9.24 9.24 0 0 0-2.324-3.876zm9.028-9.083.027.028.015.014.013.013a2.556 2.556 0 1 1-3.685 3.544 2.556 2.556 0 0 1 3.63-3.599M9.71 31.734c1.794-.727 4.116-1.743 4.726-2.352a2.637 2.637 0 0 0-3.73-3.73c-.61.61-1.625 2.932-2.352 4.726a1.034 1.034 0 0 0 1.356 1.356"
    clip-rule="evenodd"
  />
  <path
    fill="url(#paint2_linear_5360_13377)"
    d="M20.278 17.915a2.558 2.558 0 1 0 4.94-1.324 2.558 2.558 0 0 0-4.94 1.324"
  />
  <defs>
    <linearGradient
      id="paint0_linear_5360_13377"
      x1="39.993"
      x2=".68"
      y1=".595"
      y2="40.205"
      gradientUnits="userSpaceOnUse"
    >
      <stop stop-color="#a5b2f2" />
      <stop offset="1" stop-color="#546deb" />
    </linearGradient>
    <linearGradient
      id="paint1_linear_5360_13377"
      x1="30.921"
      x2="13.777"
      y1="9.079"
      y2="26.223"
      gradientUnits="userSpaceOnUse"
    >
      <stop stop-color="#fff" />
      <stop offset="1" stop-color="#fff" stop-opacity=".8" />
    </linearGradient>
    <linearGradient
      id="paint2_linear_5360_13377"
      x1="22.086"
      x2="23.41"
      y1="14.782"
      y2="19.723"
      gradientUnits="userSpaceOnUse"
    >
      <stop stop-color="#2d3351" />
      <stop offset="1" stop-color="#808bc5" />
    </linearGradient>
  </defs>
</svg>
