<svg
  xmlns="http://www.w3.org/2000/svg"
  fill="none"
  data-colorful="true"
  data-type="icon"
  viewBox="0 0 40 40"
>
  <path fill="url(#paint0_linear_5360_13422)" d="M0 0h40v40H0z" />
  <path
    fill="url(#paint1_linear_5360_13422)"
    d="M15.553 19.63c1.421-.8 2.132-1.199 2.951-1.349a6.3 6.3 0 0 1 2.218 0c.82.15 1.53.55 2.952 1.349l2.175 1.223c2.606 1.465 3.908 2.197 4.397 3.042.429.743.429 1.544 0 2.287-.489.844-1.791 1.577-4.397 3.042l-2.768 1.556c-1.184.666-1.776 1-2.46 1.124-.6.11-1.247.11-1.848 0-.683-.125-1.275-.458-2.46-1.124l-4.881-2.745c-1.895-1.065-2.843-1.598-3.198-2.212a1.59 1.59 0 0 1 0-1.663c.355-.615 1.303-1.147 3.198-2.213z"
  />
  <path
    fill="#ebecf7"
    d="M17.377 9.447c1.42-.799 2.132-1.199 2.951-1.348a6.3 6.3 0 0 1 2.218 0c.82.15 1.53.549 2.951 1.348l3.27 1.838c.984.554 1.627.915 2.018 1.239q.421.282.709.753c.507.834.507 2.299.507 5.229v2.697c0 1.599 0 2.398-.277 3.164a5.9 5.9 0 0 1-1.109 1.87c-.542.617-1.253 1.016-2.674 1.816l-3.131 1.76C22.204 31.278 20.9 32.01 19.906 32c-.875-.01-1.587-.41-2.033-1.143-.507-.834-.507-2.3-.507-5.23v-3.522c0-.809-.583-1.792-1.302-2.196l-2.628-1.478-.604-.34c-1.895-1.066-2.842-1.599-3.197-2.213a1.59 1.59 0 0 1 0-1.663c.355-.614 1.302-1.147 3.197-2.213z"
  />
  <path
    fill="url(#paint2_linear_5360_13422)"
    d="M25.82 17.083c.066-.375.363-.754.663-.847.299-.094.488.134.42.509L25.05 27.139c-.067.374-.363.753-.663.846-.3.094-.488-.134-.421-.508z"
  />
  <path
    fill="url(#paint3_linear_5360_13422)"
    d="M27.612 18.09c.217-.367.569-.565.786-.443l2.095 1.179c.168.094.206.35.115.631a1.3 1.3 0 0 1-.115.252l-2.095 3.535c-.217.366-.569.564-.786.442s-.217-.518 0-.884l1.703-2.872-1.703-.957c-.217-.122-.217-.518 0-.884"
  />
  <path
    fill="url(#paint4_linear_5360_13422)"
    d="M22.635 20.887c.217-.366.569-.564.786-.442s.217.518 0 .884L21.718 24.2l1.703.957c.217.122.217.518 0 .884s-.57.564-.786.442l-2.095-1.178c-.217-.122-.217-.518 0-.884z"
  />
  <defs>
    <linearGradient
      id="paint0_linear_5360_13422"
      x1="40.704"
      x2="1.065"
      y1=".296"
      y2="41.054"
      gradientUnits="userSpaceOnUse"
    >
      <stop stop-color="#636363" />
      <stop offset="1" />
    </linearGradient>
    <linearGradient
      id="paint1_linear_5360_13422"
      x1="24.58"
      x2="10.702"
      y1="29.902"
      y2="30.07"
      gradientUnits="userSpaceOnUse"
    >
      <stop stop-color="#7a9bff" />
      <stop offset="1" stop-color="#7a9bff" stop-opacity=".2" />
    </linearGradient>
    <linearGradient
      id="paint2_linear_5360_13422"
      x1="19.928"
      x2="23.885"
      y1="20.77"
      y2="28.095"
      gradientUnits="userSpaceOnUse"
    >
      <stop />
      <stop offset="1" stop-color="#666" />
    </linearGradient>
    <linearGradient
      id="paint3_linear_5360_13422"
      x1="19.928"
      x2="23.885"
      y1="20.771"
      y2="28.096"
      gradientUnits="userSpaceOnUse"
    >
      <stop />
      <stop offset="1" stop-color="#666" />
    </linearGradient>
    <linearGradient
      id="paint4_linear_5360_13422"
      x1="19.931"
      x2="23.887"
      y1="20.77"
      y2="28.094"
      gradientUnits="userSpaceOnUse"
    >
      <stop />
      <stop offset="1" stop-color="#666" />
    </linearGradient>
  </defs>
</svg>
