<svg xmlns="http://www.w3.org/2000/svg" fill="none" viewBox="0 0 131 150">
  <path
    stroke="#605d5d"
    stroke-dasharray="1 1"
    stroke-width=".5"
    d="M64.24.57V73.1m0 0L.15 111.04m64.1-37.94 64.92 37.94"
  />
  <g fill="#fff" filter="url(#a)">
    <path
      d="m22.49 79.92 7.5-4.33v40.88l-7.5 4.33zM33.75 69.08l7.51-4.33v45.22l-7.5 4.33zM45.02 82.4l7.5-4.34v25.4l-7.5 4.34zM56.29 43.68l7.5-4.33v57.6l-7.5 4.34zM67.55 53.9l7.51-4.33v40.88l-7.5 4.33zM78.82 17.05l7.5-4.34v71.24l-7.5 4.34z"
    />
  </g>
  <path
    stroke="#605d5d"
    stroke-dasharray="1 1"
    stroke-width=".5"
    d="M.22.13h71.67v73.43H.22z"
    transform="matrix(.87 -.5 0 1 50.87 65.53)"
  />
  <g clip-path="url(#b)">
    <path
      fill="#005bff"
      d="M63.4 116.87c.66-.38 1.28-.44 1.74-.18.47.27.73.84.73 1.6 0 .75-.26 1.62-.73 2.42a5 5 0 0 1-1.73 1.84c-.66.37-1.28.43-1.74.17-.46-.27-.72-.84-.72-1.6 0-.75.26-1.62.72-2.42a5 5 0 0 1 1.74-1.83m0-4.26c3.66-2.12 6.85-1.6 8.5.9.16.24.24.36.3.67a3.5 3.5 0 0 1-.3 1.92c-1.65 4.41-4.84 8.6-8.5 10.7-3.65 2.12-6.83 1.6-8.48-.9-.16-.24-.24-.36-.3-.67a4 4 0 0 1 0-.9c.06-.38.14-.6.3-1.02 1.65-4.41 4.83-8.6 8.49-10.7m-6.42 9.29c-.22.46-.33.7-.43 1.18-.06.3-.06.93 0 1.16.1.38.21.48.43.69q.9.84 2.17 1.03a6.8 6.8 0 0 0 4.26-1.05c1.5-.87 2.98-2.2 4.26-3.87a20 20 0 0 0 2.16-3.53c.22-.46.33-.69.43-1.18.06-.3.06-.93 0-1.16-.1-.38-.21-.48-.43-.69a4 4 0 0 0-2.16-1.03 6.8 6.8 0 0 0-4.26 1.05c-1.51.87-2.99 2.2-4.26 3.87a20 20 0 0 0-2.17 3.53"
    />
  </g>
  <path
    stroke="#605d5d"
    stroke-width=".5"
    d="M2.07 109.8V40.6M128.04 109.8V40.6"
  />
  <path
    stroke="#dbdbdb"
    stroke-width=".5"
    d="M64.92 74.32v73.59L1.91 111.53V38.76zm63.52 37.2-63.01 36.39V74.3l63.01-35.55zm-.26-73.2-63 35.56L2.15 38.33 65.17 1.95z"
  />
  <path
    fill="#fafafa"
    stroke="#605d5d"
    stroke-width=".3"
    d="M66.7 73.22v1.9l-1.65.95-1.64-.95v-1.9l1.64-.95zM66.7 146.98v1.9l-1.65.95-1.64-.95v-1.9l1.64-.95zM3.72 110.51v1.9l-1.65.95-1.64-.95v-1.9l1.64-.95zM129.68 110.51v1.9l-1.64.95-1.64-.95v-1.9l1.64-.95zM3.72 37.59v1.9l-1.65.94-1.64-.95v-1.9l1.64-.94zM129.68 37.59v1.9l-1.64.94-1.64-.95v-1.9l1.64-.94zM66.7 1.12v1.9l-1.65.95-1.64-.95v-1.9l1.64-.95z"
  />
  <defs>
    <clipPath id="b">
      <path fill="#fff" d="m52.93 113.66 20.96-12.1v24.2l-20.96 12.1z" />
    </clipPath>
    <filter
      id="a"
      width="65.84"
      height="108.09"
      x="20.48"
      y="12.71"
      color-interpolation-filters="sRGB"
      filterUnits="userSpaceOnUse"
    >
      <feFlood flood-opacity="0" result="BackgroundImageFix" />
      <feColorMatrix
        in="SourceAlpha"
        result="hardAlpha"
        values="0 0 0 0 0 0 0 0 0 0 0 0 0 0 0 0 0 0 127 0"
      />
      <feOffset dx="-2.01" />
      <feComposite in2="hardAlpha" operator="out" />
      <feColorMatrix
        values="0 0 0 0 0.509615 0 0 0 0 0.509615 0 0 0 0 0.509615 0 0 0 0.25 0"
      />
      <feBlend in2="BackgroundImageFix" result="effect1_dropShadow_3341_2813" />
      <feBlend
        in="SourceGraphic"
        in2="effect1_dropShadow_3341_2813"
        result="shape"
      />
    </filter>
  </defs>
</svg>
