<svg xmlns="http://www.w3.org/2000/svg" fill="none" viewBox="0 0 131 150">
  <path
    stroke="#605d5d"
    stroke-dasharray="1 1"
    stroke-width=".5"
    d="M64.64 3.32v71.27m0 0L1.66 111.88m62.98-37.3 63.81 37.3"
  />
  <path
    fill="#fafafa"
    stroke="#605d5d"
    stroke-dasharray="1 1"
    stroke-width=".5"
    d="M.22.13h71.87V72H.22z"
    transform="matrix(.87 -.5 0 1 20.75 48.73)"
  />
  <g filter="url(#a)">
    <path
      fill="#fff"
      stroke="#005bff"
      d="M.43.25H71.8v71.37H.43z"
      transform="matrix(.87 -.5 0 1 43.98 62.92)"
    />
  </g>
  <path
    stroke="#dbdbdb"
    stroke-width=".5"
    d="M64.92 74.32v73.59L1.91 111.53V38.76zm63.52 37.2-63.02 36.39V74.3l63.02-35.55zm-.26-73.2-63 35.56L2.15 38.33 65.17 1.95z"
  />
  <path
    fill="#fafafa"
    stroke="#605d5d"
    stroke-width=".3"
    d="M3.72 37.59v1.9l-1.65.94-1.64-.95v-1.9l1.64-.94zM129.68 37.59v1.9l-1.64.94-1.64-.95v-1.9l1.64-.94zM66.7 73.22v1.9l-1.65.95-1.64-.95v-1.9l1.64-.95zM66.7 1.12v1.9l-1.65.95-1.64-.95v-1.9l1.64-.95zM3.72 110.51v1.9l-1.65.95-1.64-.95v-1.9l1.64-.95zM129.68 110.51v1.9l-1.64.95-1.64-.95v-1.9l1.64-.95zM66.7 146.98v1.9l-1.65.95-1.64-.95v-1.9l1.64-.95z"
  />
  <path
    stroke="#605d5d"
    stroke-width=".5"
    d="M2.07 109.8V40.6M128.04 109.8V40.6"
  />
  <defs>
    <filter
      id="a"
      width="64.68"
      height="108.56"
      x="41.92"
      y="26.52"
      color-interpolation-filters="sRGB"
      filterUnits="userSpaceOnUse"
    >
      <feFlood flood-opacity="0" result="BackgroundImageFix" />
      <feColorMatrix
        in="SourceAlpha"
        result="hardAlpha"
        values="0 0 0 0 0 0 0 0 0 0 0 0 0 0 0 0 0 0 127 0"
      />
      <feOffset dx="-2.01" />
      <feComposite in2="hardAlpha" operator="out" />
      <feColorMatrix
        values="0 0 0 0 0.857372 0 0 0 0 0.857372 0 0 0 0 0.857372 0 0 0 1 0"
      />
      <feBlend in2="BackgroundImageFix" result="effect1_dropShadow_3341_2835" />
      <feBlend
        in="SourceGraphic"
        in2="effect1_dropShadow_3341_2835"
        result="shape"
      />
    </filter>
  </defs>
</svg>
