<svg xmlns="http://www.w3.org/2000/svg" fill="none" viewBox="0 0 131 150">
  <g filter="url(#a)">
    <mask id="b" fill="#fff">
      <path
        d="m95.4 70.46-62.97 36.37L1.93 89.2 64.9 52.85zM24.03 92.3l3.28 1.9 3.4-1.97-3.27-1.9z"
      />
    </mask>
    <path
      fill="#fff"
      d="m95.4 70.46-62.97 36.37L1.93 89.2 64.9 52.85zM24.03 92.3l3.28 1.9 3.4-1.97-3.27-1.9z"
    />
    <path
      fill="#605d5d"
      d="m95.4 70.46.26.43.73-.43-.73-.42zm-62.97 36.37-.25.42.25.14.24-.14zM1.93 89.2l-.25-.42-.74.42.74.43zM64.9 52.85l.24-.43-.24-.14-.25.14zM24.02 92.29l-.24-.42-.74.42.74.43zm3.28 1.9-.25.42.25.15.25-.15zm3.4-1.97.26.42.73-.42-.73-.43zm-3.27-1.9.25-.42-.25-.14-.24.14zm67.98-19.86-.25-.42-62.98 36.36.25.42.24.43L95.66 70.9zm-62.98 36.37.24-.43-30.5-17.61-.25.42-.24.43 30.5 17.61zM1.93 89.2l.24.43 62.98-36.36-.24-.43-.25-.43L1.68 88.8zM64.9 52.85l-.25.43 30.5 17.6.25-.42.25-.42-30.5-17.62zM24.02 92.29l-.24.43 3.27 1.9.25-.43.25-.43-3.28-1.9zm3.28 1.9.25.42 3.4-1.97-.24-.42-.25-.43-3.4 1.97zm3.4-1.97.26-.43-3.28-1.9-.25.44-.24.42 3.27 1.9zm-3.27-1.9-.24-.42-3.41 1.97.24.42.25.43 3.4-1.97z"
      mask="url(#b)"
    />
  </g>
  <g filter="url(#c)">
    <mask id="d" fill="#fff">
      <path
        d="M128.08 89.68 65.1 126.04l-30.5-17.6 62.98-36.37zM56.7 111.51l3.28 1.9 3.41-1.97-3.28-1.9z"
      />
    </mask>
    <path
      fill="#fff"
      d="M128.08 89.68 65.1 126.04l-30.5-17.6 62.98-36.37zM56.7 111.51l3.28 1.9 3.41-1.97-3.28-1.9z"
    />
    <path
      fill="#605d5d"
      d="m128.08 89.68.25.43.74-.43-.74-.43zM65.1 126.04l-.25.43.25.14.24-.14zm-30.5-17.6-.25-.44-.74.43.74.43zm62.98-36.37.24-.43-.24-.14-.25.14zM56.69 111.5l-.24-.42-.74.42.74.43zm3.28 1.9-.25.42.25.14.25-.14zm3.41-1.97.25.42.74-.42-.74-.43zm-3.28-1.9.25-.42-.25-.15-.24.15zm67.98-19.86-.25-.43-62.98 36.37.25.42.24.43 62.99-36.36zM65.1 126.04l.24-.42L34.84 108l-.25.43-.24.43 30.5 17.61zm-30.5-17.6.24.42L97.82 72.5l-.24-.43-.25-.43L34.35 108zm62.98-36.37-.25.43 30.5 17.6.25-.42.25-.43-30.5-17.6zM56.69 111.5l-.24.43 3.27 1.9.25-.44.25-.42-3.28-1.9zm3.28 1.9.25.42 3.4-1.97-.24-.42-.25-.43-3.4 1.97zm3.41-1.97.25-.43-3.28-1.9-.25.44-.24.42 3.27 1.9zm-3.28-1.9-.24-.42-3.41 1.97.24.42.25.43 3.41-1.97z"
      mask="url(#d)"
    />
  </g>
  <path
    stroke="#dbdbdb"
    stroke-width=".49"
    d="M64.93 74.31v73.6L1.9 111.54V38.75zm63.51 37.22-63.02 36.38v-73.6l63.02-35.56zm-.25-73.2L65.17 73.89 2.15 38.33 65.17 1.94z"
  />
  <path
    stroke="#605d5d"
    stroke-dasharray="0.99 0.99"
    stroke-width=".49"
    d="M.43 0h73.13v73.13H.43z"
    transform="matrix(.87 -.5 .87 .5 1.71 66.93)"
  />
  <path
    stroke="#005bff"
    stroke-width=".99"
    d="m63.59 59.48-.37.71h16.3L56.8 82.55 67.1 65.02l.43-.75H51.17l19.85-19.54z"
  />
  <path
    fill="#fafafa"
    stroke="#605d5d"
    stroke-width=".3"
    d="M3.72 37.59v1.9l-1.65.95-1.64-.95v-1.9l1.64-.96zM129.69 37.59v1.9l-1.65.95-1.65-.95v-1.9l1.65-.96zM66.7 73.22v1.9l-1.65.95-1.64-.95v-1.9l1.64-.95zM66.7 1.12v1.9l-1.65.95-1.64-.95v-1.9l1.64-.95zM3.72 110.51v1.9l-1.65.95-1.64-.95v-1.9l1.64-.95zM129.69 110.51v1.9l-1.65.95-1.65-.95v-1.9l1.65-.95zM66.7 146.98v1.9l-1.65.95-1.64-.95v-1.9l1.64-.95z"
  />
  <path
    stroke="#605d5d"
    stroke-width=".49"
    d="M2.07 109.8V40.6M128.04 109.8V40.6"
  />
  <defs>
    <filter
      id="a"
      width="93.49"
      height="57.92"
      x="1.92"
      y="52.85"
      color-interpolation-filters="sRGB"
      filterUnits="userSpaceOnUse"
    >
      <feFlood flood-opacity="0" result="BackgroundImageFix" />
      <feColorMatrix
        in="SourceAlpha"
        result="hardAlpha"
        values="0 0 0 0 0 0 0 0 0 0 0 0 0 0 0 0 0 0 127 0"
      />
      <feOffset dy="3.94" />
      <feComposite in2="hardAlpha" operator="out" />
      <feColorMatrix
        values="0 0 0 0 0.85098 0 0 0 0 0.85098 0 0 0 0 0.85098 0 0 0 1 0"
      />
      <feBlend in2="BackgroundImageFix" result="effect1_dropShadow_3341_2790" />
      <feBlend
        in="SourceGraphic"
        in2="effect1_dropShadow_3341_2790"
        result="shape"
      />
    </filter>
    <filter
      id="c"
      width="93.49"
      height="57.92"
      x="34.59"
      y="72.07"
      color-interpolation-filters="sRGB"
      filterUnits="userSpaceOnUse"
    >
      <feFlood flood-opacity="0" result="BackgroundImageFix" />
      <feColorMatrix
        in="SourceAlpha"
        result="hardAlpha"
        values="0 0 0 0 0 0 0 0 0 0 0 0 0 0 0 0 0 0 127 0"
      />
      <feOffset dy="3.94" />
      <feComposite in2="hardAlpha" operator="out" />
      <feColorMatrix
        values="0 0 0 0 0.85098 0 0 0 0 0.85098 0 0 0 0 0.85098 0 0 0 1 0"
      />
      <feBlend in2="BackgroundImageFix" result="effect1_dropShadow_3341_2790" />
      <feBlend
        in="SourceGraphic"
        in2="effect1_dropShadow_3341_2790"
        result="shape"
      />
    </filter>
  </defs>
</svg>
