<svg width="1273" height="357" viewBox="0 0 1273 357" fill="none" xmlns="http://www.w3.org/2000/svg">
<path d="M122.37 106.514L183.409 141.603L183.66 141.746V141.985L244.052 176.735L244.303 176.88V176.887L244.478 176.987L305.517 211.864L305.769 212.009V283.695L305.517 283.839L244.807 318.527V320.86L244.558 321.005L183.945 356.094L183.694 356.238L183.444 356.094L122.831 321.005L122.582 320.86V319.623L61.7881 354.57L61.5391 354.714L61.29 354.57L0.250977 319.482L0 319.338V247.223L0.250977 247.079L60.582 212.396V141.746L60.833 141.603L121.872 106.514L122.121 106.37L122.37 106.514ZM1030.31 0.145508L1090.92 35.2334L1091.17 35.3779V104.956L1150.18 71.002L1150.43 70.8584L1150.68 71.002L1211.29 105.879L1211.54 106.023V177.132L1271.9 211.865L1272.15 212.01V283.693L1271.9 283.838L1211.54 318.57V319.42L1211.29 319.564L1150.68 354.441L1150.43 354.585L1150.18 354.441L1089.82 319.708L1029.88 354.44L1029.63 354.586L1029.38 354.44L969.193 319.563L968.944 319.419V249.141L909.51 283.584L909.259 283.729L909.008 283.584L850.427 249.636V320.062L850.176 320.207L789.137 355.295L788.888 355.438L788.639 355.295L727.6 320.207L727.42 320.104L727.247 320.205L667.062 355.294L666.81 355.44L666.558 355.294L606.372 320.205L606.124 320.061V318.989L547.83 285.004L547.582 284.859V212.748L547.83 212.604L608.016 177.516L608.268 177.368L608.52 177.516L666.736 211.455V142.006L666.988 141.861L728.027 106.984L728.275 106.843L728.523 106.984L789.562 141.861L789.814 142.006V143.347L848.573 177.157V176.881L848.822 176.736L909.008 141.859L909.186 141.756V71.0225L909.435 70.8779L968.944 36.3926V35.3779L969.193 35.2334L1029.81 0.145508L1030.06 0L1030.31 0.145508ZM184.194 354.793L243.807 320.284V318.615L184.194 284.554V354.793ZM123.582 320.283L183.194 354.792V284.411L123.582 249.902V320.283ZM728.349 318.571V319.483L788.388 353.998V284.539L788.212 284.438L788.12 284.386L728.349 318.571ZM849.322 249.562L789.388 284.048V353.998L849.427 319.483V249.501L849.322 249.562ZM608.52 320.093L608.341 320.195L666.31 353.991V286.4L608.52 320.093ZM667.31 285.817V353.991L726.495 319.486V318.083L668.681 285.018L667.31 285.817ZM1 318.759L61.0391 353.273V282.89L1 248.375V318.759ZM62.0391 282.89V353.273L122.078 318.759V249.212L121.872 249.094L121.35 248.793L62.0391 282.89ZM1090.49 318.586L1090.32 318.688V318.842L1149.93 353.144V284.144L1090.49 318.586ZM1150.93 353.144L1210.54 318.842V318.57L1150.93 284.269V353.144ZM969.944 318.842L1029.13 353.14V283.439L969.944 249.141V318.842ZM1030.13 353.14L1089.32 318.842V318.193L1030.13 283.896V353.14ZM607.124 318.414L607.768 318.79V249.481L607.124 249.106V318.414ZM608.768 318.79L666.31 285.243V283.611L608.768 250.064V318.79ZM548.582 284.285L606.124 317.831V247.949L606.372 247.805L606.55 247.7L548.582 213.905V284.285ZM185.072 283.903L243.729 317.42V249.946L185.072 283.903ZM728.349 317.419L787.116 283.808L728.349 249.992V317.419ZM1150.99 283.153L1210.54 317.417V248.89L1150.99 283.153ZM1211.54 247.465V317.417L1271.15 283.115V213.163L1211.54 247.465ZM244.729 247.465V248.702L244.807 248.747V317.375L304.769 283.114V213.159L244.729 247.465ZM1090.74 317.285L1149.75 283.089L1090.74 249.135V317.285ZM1030.73 283.089L1089.32 317.037V249.142L1030.73 283.089ZM668.953 282.651V284.02L726.495 316.931V249.106L668.953 282.651ZM667.31 284.66L667.679 284.444L667.31 284.233V284.66ZM667.769 283.343L667.953 283.448V283.234L667.769 283.343ZM183.974 283.275L184.067 283.329L214.521 265.699L183.974 283.275ZM788.961 214.179V282.705L848.573 248.438V248.034L789.321 213.974L788.961 214.179ZM608.768 248.41V248.906L666.736 282.702V214.614L608.768 248.41ZM124.489 248.797L182.69 282.287V215.105L124.489 248.797ZM183.69 214.526V282.287L242.396 248.507L183.694 214.524L183.69 214.526ZM849.573 247.457L850.176 247.804L850.427 247.947V248.479L908.759 282.283V212.334L849.573 178.036V247.457ZM909.759 282.283L968.769 248.086L909.759 213.683V282.283ZM729.103 248.381L787.961 282.215V214.751L729.103 248.381ZM667.736 282.204L667.953 282.077V214.393L667.736 214.267V282.204ZM1139.18 220.198L1091.13 248.207L1149.93 282.037V214.012L1139.18 220.198ZM1150.93 282.037L1210.04 248.025L1150.93 214.012V282.037ZM970.759 248.209L1029.13 282.034V214.179L970.759 248.209ZM1.50195 247.512L61.5391 282.023L120.347 248.217L60.833 214.006L60.582 213.861V213.55L1.50195 247.512ZM1030.56 281.787L1088.82 248.025L1030.56 214.262V281.787ZM668.953 281.494L726.001 248.236L668.953 214.976V281.494ZM183.69 213.371L183.694 213.369L183.945 213.515L243.303 247.876V247.221L183.69 213.159V213.371ZM61.582 213.282L121.35 247.641L121.575 247.512L61.582 213.024V213.282ZM123.078 247.533L182.66 213.282V212.317L123.078 178.033V247.533ZM549.075 213.035L607.543 247.121L666.558 212.717L666.733 212.612L608.268 178.525L549.075 213.035ZM910.186 212.086V212.774L968.944 247.03V178.036L910.186 212.086ZM970.371 246.91L1029.13 212.859V212.334L970.371 178.283V246.91ZM789.814 212.696V213.104L848.573 246.882V178.887L789.814 212.696ZM668.768 212.64L668.953 212.748V213.346L727.349 246.744V179.136L668.768 212.64ZM1151.43 212.299L1211.04 246.599L1270.65 212.299L1211.04 177.998L1151.43 212.299ZM244.303 246.557L304.261 212.298L244.303 178.039V246.557ZM728.775 246.5L787.453 212.94L728.775 179.379V246.5ZM61.582 211.871L61.7881 211.99L121.621 246.385V177.413L61.582 142.898V211.871ZM1090.74 246.18L1149.32 212.234L1090.74 178.527V246.18ZM184.197 212.298L243.303 246.068V178.527L184.197 212.298ZM1031.05 212.171L1089.32 245.932V178.407L1031.05 212.171ZM728.851 178.022L788.461 212.322L788.814 212.118V143.925L788.461 143.722L728.851 178.022ZM667.736 212.038L667.77 212.059L727.349 177.985V177.733L727.6 177.589L727.775 177.487V177.462L667.736 143.156V212.038ZM789.814 211.543L848.07 178.022L789.814 144.5V211.543ZM1150.93 141.479V211.431L1210.54 177.129V107.177L1150.93 141.479ZM850.07 177.169L909.186 211.425V142.911L850.07 177.169ZM970.762 177.354L1029.56 211.425V143.283L970.762 177.354ZM1090.74 176.899V177.005L1149.93 211.303V142.395L1090.74 176.899ZM183.66 211.198L242.8 177.169L183.66 143.138V211.198ZM123.58 177.169L182.66 211.163V143.173L123.58 177.169ZM910.186 210.931L968.446 177.169L910.186 143.405V210.931ZM1030.56 210.931L1088.82 177.169L1030.56 143.405V210.931ZM668.243 142.295L728.275 176.596L788.307 142.295L728.275 107.995L668.243 142.295ZM62.084 142.035L122.121 176.547L182.157 142.035L122.121 107.523L62.084 142.035ZM1090.92 107.636L1090.32 107.985V175.99L1149.43 141.524L1106.02 116.213L1091.02 107.579L1090.92 107.636ZM910.679 141.524L969.371 175.741V107.738L969.193 107.636L968.998 107.522L910.679 141.524ZM970.371 175.741L1028.4 141.91L970.371 108.317V175.741ZM1031.71 141.91L1089.32 175.492V108.564L1031.71 141.91ZM910.186 140.654L968.944 106.396V106.228L910.186 72.1777V140.654ZM970.651 106.312L1029.56 140.654V72.1777L970.651 106.312ZM1030.56 71.043V140.654L1089.32 106.397V106.023L1089.57 105.879L1090.17 105.531V36.5332L1030.56 71.043ZM1091.17 106.109V106.397L1106.59 115.387L1150.43 140.612L1210.04 106.312L1150.43 72.0117L1091.17 106.109ZM969.944 105.566L1029.06 71.3105L969.944 37.0527V105.566ZM910.683 71.3105L968.944 105.072V37.5469L910.683 71.3105ZM970.442 35.666L1030.06 70.1768L1089.67 35.666L1030.06 1.15527L970.442 35.666Z" fill="url(#paint0_linear_2233_970)"/>
<defs>
<linearGradient id="paint0_linear_2233_970" x1="944.296" y1="29.6617" x2="937.46" y2="428.527" gradientUnits="userSpaceOnUse">
<stop stop-color="#DBDBDB"/>
<stop offset="1" stop-color="#FAFAFA"/>
</linearGradient>
</defs>
</svg>
