<svg xmlns="http://www.w3.org/2000/svg" fill="none" viewBox="0 0 414 234">
  <g clip-path="url(#a)">
    <path fill="#f4f4f5" d="M0 0h413.33v234H0z" />
    <g filter="url(#b)" shape-rendering="crispEdges">
      <rect
        width="349.1"
        height="199.42"
        x="32.11"
        y="30.06"
        fill="url(#c)"
        rx="12"
      />
      <rect
        width="348.6"
        height="198.92"
        x="32.36"
        y="30.31"
        stroke="#e4e4e7"
        stroke-width=".5"
        rx="11.75"
      />
    </g>
    <circle cx="46.04" cy="48.91" r="3.76" fill="#ff8686" />
    <circle cx="59.56" cy="48.91" r="3.76" fill="#ffd643" />
    <circle cx="73.09" cy="48.91" r="3.76" fill="#7de0ae" />
    <g opacity=".5">
      <g clip-path="url(#d)">
        <path
          stroke="#005bff"
          stroke-linecap="round"
          stroke-linejoin="round"
          stroke-width="1.17"
          d="M170 48.91a5.83 5.83 0 0 1-5.83 5.84M170 48.9a5.83 5.83 0 0 0-5.83-5.83m5.83 5.83h-11.67m5.84 5.84a5.83 5.83 0 0 1-5.84-5.84m5.84 5.84a8.46 8.46 0 0 1 0-11.67m0 11.67a8.46 8.46 0 0 0 0-11.67m-5.84 5.83a5.83 5.83 0 0 1 5.84-5.83"
        />
      </g>
      <path
        fill="#000"
        d="M178.61 53.06q-.89 0-1.55-.41a2.7 2.7 0 0 1-1-1.15q-.37-.76-.37-1.77 0-1 .37-1.75a2.7 2.7 0 0 1 2.55-1.57q.73 0 1.3.26t.93.75q.36.5.47 1.2l-1.06.07a1.5 1.5 0 0 0-.55-.97q-.45-.35-1.09-.35-.87 0-1.37.64-.5.62-.49 1.72 0 1.11.5 1.74.48.63 1.36.63.65 0 1.1-.36.44-.36.54-1.08l1.06.07q-.1.7-.47 1.24-.36.5-.93.8t-1.3.29m6.43 0q-.88 0-1.53-.41a2.7 2.7 0 0 1-1.02-1.15q-.36-.76-.36-1.77t.36-1.76a2.7 2.7 0 0 1 2.55-1.56q.89 0 1.53.4.66.41 1.02 1.16.36.74.36 1.76 0 1.01-.36 1.77a2.7 2.7 0 0 1-2.55 1.56m0-.96q.88 0 1.36-.63.5-.63.5-1.74t-.5-1.72a1.6 1.6 0 0 0-1.36-.64q-.87 0-1.36.64-.5.62-.5 1.72 0 1.11.5 1.74.48.63 1.36.63m6.54.96q-.83 0-1.44-.41-.6-.41-.93-1.15a4 4 0 0 1-.32-1.77q0-1.01.32-1.76.33-.75.93-1.15t1.44-.41q.63 0 1.16.28.53.26.8.75V44.4h1v8.52h-.91l-.04-.96q-.26.52-.8.82t-1.21.29m.2-.96q.57 0 .95-.3.39-.27.6-.8.2-.55.2-1.27 0-.75-.2-1.27a1.7 1.7 0 0 0-.6-.8q-.38-.3-.95-.3-.84 0-1.34.65-.5.62-.5 1.72 0 1.09.5 1.73t1.34.64m4.44.81v-6.36h1.01v6.36zm-.02-7.35v-1.18h1.06v1.18zm3.07 7.35v-6.36h.92l.04 1.62-.12-.1q.12-.57.42-.93t.72-.55q.44-.18.93-.18.72 0 1.2.32.47.33.7.88.24.54.24 1.21v4.1h-1V49.1q0-.6-.15-.98a1 1 0 0 0-.43-.62 1.3 1.3 0 0 0-.78-.21q-.74 0-1.21.47-.47.45-.47 1.34v3.8zm9.24 1.95q-.68 0-1.23-.23a2.5 2.5 0 0 1-.93-.65q-.36-.42-.5-.97l1.06-.07q.14.45.5.7.38.26 1.1.26.87 0 1.33-.35t.46-1.04v-1.04q-.23.5-.73.8t-1.13.3a2.7 2.7 0 0 1-2.42-1.48q-.35-.7-.35-1.6t.35-1.6.96-1.08a2.6 2.6 0 0 1 2.62-.09q.53.3.75.84v-1h.96v5.92q0 .75-.34 1.27a2 2 0 0 1-.96.82q-.62.3-1.5.29m-.02-3.24q.81 0 1.3-.57.5-.57.51-1.56.02-.66-.21-1.12a1.6 1.6 0 0 0-.64-.74q-.41-.26-.96-.26-.84 0-1.3.58-.46.56-.46 1.54 0 .99.47 1.56t1.3.57m7.1 1.44q-.88 0-1.54-.41a2.7 2.7 0 0 1-1.01-1.15q-.36-.76-.36-1.77 0-1 .36-1.75a2.7 2.7 0 0 1 2.56-1.57q.72 0 1.3.26.57.26.93.75.37.5.46 1.2l-1.05.07a1.5 1.5 0 0 0-.55-.97q-.44-.35-1.1-.35-.87 0-1.36.64-.5.62-.5 1.72 0 1.11.5 1.74.49.63 1.37.63.65 0 1.09-.36t.55-1.08l1.05.07q-.1.7-.46 1.24-.37.5-.94.8-.55.3-1.3.29m5.84 0a2.5 2.5 0 0 1-1.58-.46q-.57-.45-.57-1.27 0-.81.48-1.28a3 3 0 0 1 1.52-.66l2.26-.42q0-.81-.39-1.2-.37-.4-1.12-.4-.67 0-1.05.3t-.53.84l-1.06-.08q.18-.9.86-1.46a2.7 2.7 0 0 1 1.78-.56q1.22 0 1.87.7.64.67.64 1.9v2.62q0 .22.08.31t.26.09h.25v.88l-.15.02a2 2 0 0 1-.94-.12 1 1 0 0 1-.38-.44q-.12-.3-.12-.78l.12.03q-.1.4-.41.74-.33.33-.8.52-.48.18-1.02.18m.1-.9q.63 0 1.07-.23a1.8 1.8 0 0 0 .94-1.63v-.46l-2.07.39q-.64.12-.9.37a.9.9 0 0 0-.24.63q0 .45.31.7.33.24.88.24m6.75.75q-.86 0-1.28-.4-.4-.39-.4-1.23v-6.21h1v6.19q0 .44.2.6.18.16.58.17h.91v.88zm-2.62-5.47v-.89h3.63v.9zm4.87 5.47v-1.35h1.35v1.35zm5.33.15q-.9 0-1.55-.41a2.7 2.7 0 0 1-1-1.15q-.37-.76-.37-1.77 0-1 .36-1.75a2.7 2.7 0 0 1 2.56-1.57q.72 0 1.3.26.57.26.93.75.36.5.47 1.2l-1.06.07a1.5 1.5 0 0 0-.55-.97q-.44-.35-1.1-.35-.87 0-1.36.64-.5.62-.5 1.72 0 1.11.5 1.74.49.63 1.37.63.65 0 1.09-.36t.55-1.08l1.06.07q-.1.7-.47 1.24-.36.5-.94.8-.55.3-1.3.29m6.43 0q-.88 0-1.54-.41a2.7 2.7 0 0 1-1.02-1.15q-.36-.76-.36-1.77t.36-1.76a2.7 2.7 0 0 1 2.56-1.56q.88 0 1.52.4.66.41 1.02 1.16.36.74.36 1.76 0 1.01-.36 1.77a2.7 2.7 0 0 1-2.54 1.56m0-.96q.88 0 1.36-.63t.49-1.74q0-1.1-.5-1.72a1.6 1.6 0 0 0-1.35-.64q-.87 0-1.37.64-.5.62-.49 1.72 0 1.11.5 1.74.48.63 1.36.63m4.28.81v-6.36h.92l.04 1.61-.15-.05q.12-.52.38-.9a1.9 1.9 0 0 1 1.54-.8q.83 0 1.35.46.52.45.66 1.27l-.2-.01q.1-.55.35-.93.26-.38.68-.59.4-.2.93-.2.69 0 1.15.29.48.27.71.81.24.54.24 1.31v4.1h-1v-3.88q0-.87-.34-1.3-.34-.45-1-.44-.44 0-.78.21-.32.23-.5.63t-.18.97v3.8h-1.01v-3.8q0-.85-.3-1.33t-1-.48q-.45 0-.79.21-.32.23-.51.63-.18.41-.18.97v3.8z"
      />
    </g>
    <g filter="url(#e)">
      <rect
        width="371.18"
        height="212.02"
        x="21.08"
        y="58.91"
        fill="url(#f)"
        rx="12"
      />
      <rect
        width="370.68"
        height="211.52"
        x="21.33"
        y="59.16"
        stroke="#e4e4e7"
        stroke-width=".5"
        rx="11.75"
      />
    </g>
    <rect
      width="91.5"
      height="51.51"
      x="52.04"
      y="176.19"
      fill="url(#g)"
      rx="3.13"
    />
    <path stroke="#e4e4e7" stroke-width=".5" d="M21.08 96.14h371.17" />
    <g clip-path="url(#h)">
      <path
        stroke="#005bff"
        stroke-linecap="round"
        stroke-linejoin="round"
        stroke-width="1.17"
        d="M176.5 78.09a5.83 5.83 0 0 1-5.83 5.83m5.83-5.83a5.83 5.83 0 0 0-5.83-5.83m5.83 5.83h-11.67m5.84 5.83a5.83 5.83 0 0 1-5.84-5.83m5.84 5.83a8.46 8.46 0 0 1 0-11.66m0 11.66a8.46 8.46 0 0 0 0-11.66m-5.84 5.83a5.83 5.83 0 0 1 5.84-5.83"
      />
    </g>
    <path
      fill="#000"
      d="M184.96 82.09q-.86 0-1.29-.4-.4-.39-.4-1.23v-6.22h1v6.2q0 .42.2.6.19.15.58.16h.91v.89zm-2.63-5.47v-.9h3.63v.9zm7.3 5.61a3 3 0 0 1-1.57-.4 2.7 2.7 0 0 1-1-1.16q-.35-.75-.35-1.76t.34-1.75q.37-.75 1-1.15.65-.42 1.52-.42.83 0 1.47.4.63.37.98 1.12.36.75.36 1.81v.3h-4.62q.06 1.03.54 1.54.5.51 1.32.51.63 0 1.02-.28.4-.3.57-.78l1.08.08a2.7 2.7 0 0 1-2.66 1.94m-1.87-3.9h3.52q-.08-.91-.54-1.35t-1.17-.43q-.73 0-1.2.45-.48.45-.6 1.33m8.47 3.9q-.88 0-1.55-.4a2.7 2.7 0 0 1-1-1.16q-.36-.75-.36-1.76t.36-1.75a2.7 2.7 0 0 1 2.55-1.57q.73 0 1.3.26t.93.74q.36.5.47 1.2l-1.05.08a1.5 1.5 0 0 0-.56-.98q-.45-.34-1.09-.34-.87 0-1.37.63-.49.63-.49 1.73 0 1.11.5 1.74.48.63 1.36.62.65 0 1.1-.36.43-.36.55-1.08l1.05.08q-.1.7-.47 1.23-.36.52-.93.8-.57.3-1.3.3m3.95-.14v-8.52h1v3.56l-.11-.02q.13-.53.4-.86.3-.35.72-.5a2.5 2.5 0 0 1 2.07.15q.48.3.72.85.25.54.25 1.25v4.09h-1v-3.8q0-.93-.34-1.37-.33-.45-1-.45-.76 0-1.23.47t-.47 1.36v3.79zm8.05 0q-.56 0-.9-.29-.36-.3-.35-.91v-7.32h1v7.24q0 .18.1.3.1.1.3.1h.55v.88zm4.36.14q-.88 0-1.53-.4a2.7 2.7 0 0 1-1.03-1.16q-.35-.75-.35-1.76 0-1.02.35-1.76a2.7 2.7 0 0 1 2.56-1.56q.88 0 1.53.4.66.41 1.01 1.16.37.74.37 1.76 0 1-.37 1.76a2.7 2.7 0 0 1-2.54 1.56m0-.96q.88 0 1.36-.62.5-.63.49-1.74 0-1.1-.5-1.73a1.6 1.6 0 0 0-1.35-.63q-.87 0-1.37.63-.48.63-.49 1.73 0 1.11.5 1.74.48.63 1.36.62m6.7 2.76q-.7 0-1.25-.22a2.5 2.5 0 0 1-.92-.65q-.37-.42-.5-.97l1.05-.08q.15.45.5.7.38.27 1.11.26.87 0 1.32-.34.47-.35.47-1.05v-1.03q-.23.5-.73.8-.51.3-1.13.3a2.7 2.7 0 0 1-2.43-1.48q-.34-.7-.34-1.6t.34-1.6q.36-.69.97-1.09a2.6 2.6 0 0 1 2.61-.08q.54.3.76.84v-1.01h.96v5.93q0 .75-.34 1.27a2 2 0 0 1-.96.82q-.61.28-1.5.28m-.03-3.24q.81 0 1.3-.56.5-.57.5-1.56.02-.66-.2-1.13a1.6 1.6 0 0 0-.64-.73q-.42-.27-.96-.26-.84 0-1.31.57-.46.57-.46 1.55t.47 1.56q.48.56 1.3.56m4.3 1.3v-1.36h1.36v1.36zm5.76.14q-.66 0-1.17-.28-.52-.3-.8-.82l-.03.96h-.91v-8.52h1v3.05q.25-.4.75-.71a2.56 2.56 0 0 1 2.62.08q.6.41.94 1.16.34.74.34 1.76t-.34 1.76-.94 1.16q-.62.4-1.46.4m-.06-.96q.8 0 1.28-.63.46-.64.46-1.73 0-1.1-.46-1.73a1.5 1.5 0 0 0-1.25-.63 1.7 1.7 0 0 0-1.66 1.09q-.21.52-.21 1.27 0 .72.21 1.26.23.52.64.82.42.28 1 .28m5.47.82q-.54 0-.9-.29-.34-.3-.34-.91v-7.32h1v7.24q0 .18.1.3.1.1.3.1h.55v.88zm4.37.14q-.88 0-1.54-.4a2.7 2.7 0 0 1-1.02-1.16q-.36-.75-.36-1.76 0-1.02.36-1.76a2.7 2.7 0 0 1 2.56-1.56q.88 0 1.52.4.66.41 1.02 1.16.36.74.36 1.76 0 1-.36 1.76a2.7 2.7 0 0 1-2.54 1.56m0-.96q.87 0 1.36-.62.48-.63.49-1.74 0-1.1-.5-1.73a1.6 1.6 0 0 0-1.35-.63q-.88 0-1.37.63t-.5 1.73q0 1.11.5 1.74.49.63 1.37.62m6.69 2.76q-.69 0-1.24-.22a2.5 2.5 0 0 1-.92-.65q-.38-.42-.5-.97l1.05-.08q.14.45.5.7.38.27 1.1.26.88 0 1.33-.34.47-.35.47-1.05v-1.03q-.24.5-.74.8t-1.12.3a2.7 2.7 0 0 1-2.43-1.48q-.34-.7-.34-1.6t.34-1.6q.36-.69.96-1.09a2.6 2.6 0 0 1 2.62-.08q.54.3.75.84v-1.01h.97v5.93q0 .75-.34 1.27a2 2 0 0 1-.96.82q-.63.28-1.5.28m-.03-3.24q.83 0 1.31-.56.5-.57.5-1.56.02-.66-.2-1.13a1.6 1.6 0 0 0-.65-.73q-.4-.27-.96-.26-.84 0-1.3.57-.45.57-.46 1.55 0 .99.47 1.56.48.56 1.3.56"
    />
    <circle cx="38.52" cy="77.88" r="3.76" fill="#ff8686" />
    <circle cx="52.04" cy="77.88" r="3.76" fill="#ffd643" />
    <circle cx="65.56" cy="77.88" r="3.76" fill="#7de0ae" />
    <rect
      width="160.05"
      height="7.36"
      x="170.81"
      y="126.11"
      fill="url(#i)"
      rx="3.13"
    />
    <circle cx="127.67" cy="136.29" r="22.95" fill="url(#j)" />
    <rect
      width="160.05"
      height="7.36"
      x="170.81"
      y="142"
      fill="url(#k)"
      rx="3.13"
    />
    <rect
      width="91.5"
      height="51.51"
      x="156.25"
      y="176.19"
      fill="url(#l)"
      rx="3.13"
    />
    <rect
      width="91.5"
      height="51.51"
      x="260.47"
      y="176.19"
      fill="url(#m)"
      rx="3.13"
    />
  </g>
  <defs>
    <linearGradient
      id="c"
      x1="206.67"
      x2="206.67"
      y1="30.06"
      y2="229.48"
      gradientUnits="userSpaceOnUse"
    >
      <stop stop-color="#fff" />
      <stop offset="1" stop-color="#fff" stop-opacity="0" />
    </linearGradient>
    <linearGradient
      id="f"
      x1="206.67"
      x2="206.67"
      y1="58.91"
      y2="270.94"
      gradientUnits="userSpaceOnUse"
    >
      <stop stop-color="#fff" />
      <stop offset="1" stop-color="#f8f8f8" />
    </linearGradient>
    <linearGradient
      id="g"
      x1="97.79"
      x2="97.79"
      y1="176.19"
      y2="227.69"
      gradientUnits="userSpaceOnUse"
    >
      <stop stop-color="#ededed" stop-opacity=".6" />
      <stop offset="1" stop-color="#ededed" stop-opacity=".2" />
    </linearGradient>
    <linearGradient
      id="i"
      x1="170.81"
      x2="330.86"
      y1="129.78"
      y2="129.78"
      gradientUnits="userSpaceOnUse"
    >
      <stop stop-color="#ededed" />
      <stop offset="1" stop-color="#fff" stop-opacity="0" />
    </linearGradient>
    <linearGradient
      id="j"
      x1="127.67"
      x2="127.67"
      y1="113.34"
      y2="159.24"
      gradientUnits="userSpaceOnUse"
    >
      <stop stop-color="#eee" />
      <stop offset="1" stop-color="#eee" stop-opacity=".5" />
    </linearGradient>
    <linearGradient
      id="k"
      x1="170.81"
      x2="330.86"
      y1="145.68"
      y2="145.68"
      gradientUnits="userSpaceOnUse"
    >
      <stop stop-color="#ededed" />
      <stop offset="1" stop-color="#fff" stop-opacity="0" />
    </linearGradient>
    <linearGradient
      id="l"
      x1="202.01"
      x2="202.01"
      y1="176.19"
      y2="227.69"
      gradientUnits="userSpaceOnUse"
    >
      <stop stop-color="#ededed" stop-opacity=".6" />
      <stop offset="1" stop-color="#ededed" stop-opacity=".2" />
    </linearGradient>
    <linearGradient
      id="m"
      x1="306.22"
      x2="306.22"
      y1="176.19"
      y2="227.69"
      gradientUnits="userSpaceOnUse"
    >
      <stop stop-color="#ededed" stop-opacity=".6" />
      <stop offset="1" stop-color="#ededed" stop-opacity=".2" />
    </linearGradient>
    <clipPath id="a"><path fill="#fff" d="M0 0h413.33v234H0z" /></clipPath>
    <clipPath id="d">
      <path fill="#fff" d="M157.17 41.91h14v14h-14z" />
    </clipPath>
    <clipPath id="h">
      <path fill="#fff" d="M163.67 71.09h14v14h-14z" />
    </clipPath>
    <filter
      id="b"
      width="373.1"
      height="223.42"
      x="20.11"
      y="28.06"
      color-interpolation-filters="sRGB"
      filterUnits="userSpaceOnUse"
    >
      <feFlood flood-opacity="0" result="BackgroundImageFix" />
      <feColorMatrix
        in="SourceAlpha"
        result="hardAlpha"
        values="0 0 0 0 0 0 0 0 0 0 0 0 0 0 0 0 0 0 127 0"
      />
      <feMorphology
        in="SourceAlpha"
        radius="2"
        result="effect1_dropShadow_2238_215"
      />
      <feOffset dy="4" />
      <feGaussianBlur stdDeviation="3" />
      <feComposite in2="hardAlpha" operator="out" />
      <feColorMatrix values="0 0 0 0 0 0 0 0 0 0 0 0 0 0 0 0 0 0 0.05 0" />
      <feBlend in2="BackgroundImageFix" result="effect1_dropShadow_2238_215" />
      <feColorMatrix
        in="SourceAlpha"
        result="hardAlpha"
        values="0 0 0 0 0 0 0 0 0 0 0 0 0 0 0 0 0 0 127 0"
      />
      <feMorphology
        in="SourceAlpha"
        radius="3"
        result="effect2_dropShadow_2238_215"
      />
      <feOffset dy="10" />
      <feGaussianBlur stdDeviation="7.5" />
      <feComposite in2="hardAlpha" operator="out" />
      <feColorMatrix values="0 0 0 0 0 0 0 0 0 0 0 0 0 0 0 0 0 0 0.1 0" />
      <feBlend
        in2="effect1_dropShadow_2238_215"
        result="effect2_dropShadow_2238_215"
      />
      <feBlend
        in="SourceGraphic"
        in2="effect2_dropShadow_2238_215"
        result="shape"
      />
    </filter>
    <filter
      id="e"
      width="395.18"
      height="236.02"
      x="9.08"
      y="56.91"
      color-interpolation-filters="sRGB"
      filterUnits="userSpaceOnUse"
    >
      <feFlood flood-opacity="0" result="BackgroundImageFix" />
      <feColorMatrix
        in="SourceAlpha"
        result="hardAlpha"
        values="0 0 0 0 0 0 0 0 0 0 0 0 0 0 0 0 0 0 127 0"
      />
      <feMorphology
        in="SourceAlpha"
        radius="2"
        result="effect1_dropShadow_2238_215"
      />
      <feOffset dy="4" />
      <feGaussianBlur stdDeviation="3" />
      <feComposite in2="hardAlpha" operator="out" />
      <feColorMatrix values="0 0 0 0 0 0 0 0 0 0 0 0 0 0 0 0 0 0 0.05 0" />
      <feBlend in2="BackgroundImageFix" result="effect1_dropShadow_2238_215" />
      <feColorMatrix
        in="SourceAlpha"
        result="hardAlpha"
        values="0 0 0 0 0 0 0 0 0 0 0 0 0 0 0 0 0 0 127 0"
      />
      <feMorphology
        in="SourceAlpha"
        radius="3"
        result="effect2_dropShadow_2238_215"
      />
      <feOffset dy="10" />
      <feGaussianBlur stdDeviation="7.5" />
      <feComposite in2="hardAlpha" operator="out" />
      <feColorMatrix values="0 0 0 0 0 0 0 0 0 0 0 0 0 0 0 0 0 0 0.1 0" />
      <feBlend
        in2="effect1_dropShadow_2238_215"
        result="effect2_dropShadow_2238_215"
      />
      <feBlend
        in="SourceGraphic"
        in2="effect2_dropShadow_2238_215"
        result="shape"
      />
    </filter>
  </defs>
</svg>
