<svg xmlns="http://www.w3.org/2000/svg" fill="none" viewBox="0 0 1440 400">
  <g clip-path="url(#a)">
    <g mask="url(#mask0_2870_21197)">
      <path
        stroke="#005bff"
        stroke-dasharray="3 3"
        d="m1129.78-46.443 2.42 1.72-.29.408 2.42 1.72.29-.407 2.42 1.72-.29.41 2.42 1.72.29-.407 2.42 1.72-.29.407 2.42 1.721.29-.407 2.42 1.72-.29.409 2.42 1.72.29-.408 2.42 1.722-.29.407 2.42 1.721.29-.407 2.42 1.72-.29.409 2.42 1.72.29-.408 2.42 1.722-.29.407 2.42 1.72.29-.406 2.42 1.72-.29.409.84.597-.52.914.43.248-1.5 2.616-.44-.249-1.5 2.617.44.248-1.5 2.616-.44-.25-1.5 2.617.44.248-1.5 2.616-.44-.249-1.5 2.616.44.249-1.5 2.614-.44-.247-1.5 2.615.44.249-1.51 2.614-.43-.248-1.5 2.616.43.25-1.5 2.614-.43-.248-1.5 2.616.43.248-1.5 2.615-.43-.248-1.5 2.615.43.25-1.5 2.615-.43-.248-1.5 2.615.43.249-1.5 2.615-.43-.249-1.5 2.616.43.25-1.5 2.614-.43-.248-1.5 2.616.43.247-1.5 2.617-.43-.25-1.5 2.616.43.248-1.5 2.616-.43-.248-1.5 2.616.43.248-1.5 2.616-.44-.248-1.5 2.615.44.248-1.5 2.616-.44-.249-1.5 2.617.44.248-1.5 2.616-.44-.25-1.5 2.616.44.249-1.51 2.616-.43-.249-1.5 2.615.43.25-1.5 2.614-.43-.247-1.5 2.615.43.248-1.5 2.615-.43-.248-1.5 2.616.43.248-1.5 2.616-.43-.249-1.5 2.617.43.248-1.5 2.615-.43-.248-1.5 2.615.43.25-1.5 2.614-.43-.248-1.5 2.616.43.249-1.5 2.614-.43-.248-1.5 2.616.43.248-1.5 2.615-.43-.248-1.51 2.617.44.247-1.5 2.616-.44-.248-1.5 2.615.44.248-1.5 2.616-.44-.248-1.5 2.615.44.249-1.5 2.616-.44-.249-1.5 2.616.44.248-1.5 2.616-.44-.249-1.5 2.616.43.247-1.5 2.618-.43-.249-.66 1.142-1.24.417.16.474-2.84.954-.16-.474-2.84.954.15.473-2.84.954-.16-.473-2.84.954.16.473-2.85.954-.15-.473-2.85.954.16.473-2.84.955-.16-.474-2.84.954.15.474-2.84.953-.16-.473-2.84.953.16.474-2.85.954-.16-.474-2.84.954.16.474-2.84.954-.16-.473-2.85.954.16.473-2.84.954-.16-.473-2.84.954.15.472-2.84.955-.16-.474-2.84.954.16.474-2.85.954-.15-.474-2.85.954.16.474-2.84.954-.16-.474-2.84.954.15.474-2.84.953-.16-.472-2.84.953.16.473-2.85.954-.16-.473-2.84.954.16.474-2.84.954-.16-.474-2.85.954.16.473-2.842.954-.158-.473-2.844.953.159.474-2.844.954-.158-.474-2.843.955.157.473-2.842.954-.159-.473-2.844.954.159.472-2.844.954-.158-.472-2.844.954.158.473-2.844.954-.158-.474-2.843.954.159.474-2.844.954-.158-.474-2.844.954.159.474-2.844.954-.159-.474-2.844.955.159.472-2.844.954-.157-.472-2.844.953.158.473-2.844.955-.158-.474-2.844.954.16.474-2.844.954-.159-.474-2.843.954.158.474-2.844.953-.158-.473-2.844.953.159.474-2.844.954-.158-.473-2.844.954.158.473-2.843.954-.158-.473-2.844.954.159.472-2.844.955-.158-.473-2.844.954.158.473-2.844.954-.158-.474-1.238.415-1.182-.522-.203.457-2.719-1.203.203-.456-2.719-1.204-.202.457-2.72-1.204.203-.456-2.72-1.202-.202.456-2.72-1.203.203-.456-2.719-1.203-.203.457-2.718-1.203.202-.457-2.72-1.202-.202.456-2.72-1.202.204-.457-2.72-1.204-.202.457-2.719-1.203.202-.456-2.72-1.203-.203.457-2.718-1.203.203-.457-2.72-1.202-.202.456-2.72-1.202.203-.457-2.72-1.203-.202.457-2.719-1.203.203-.457-2.72-1.203-.202.456-2.719-1.202.202-.457-2.72-1.202-.202.456-2.719-1.202.203-.457-2.72-1.203-.202.457h-.001l-2.718-1.203.202-.456-2.72-1.203-.202.456-2.719-1.203.203-.457-2.72-1.203-.202.457-2.72-1.202.203-.457-2.719-1.203-.204.457-2.717-1.203.202-.457-2.719-1.202-.203.456-2.72-1.202.203-.457-2.718-1.203-.204.457-2.718-1.204.202-.456-2.719-1.203-.203.457-2.719-1.203.202-.457-2.718-1.202-.204.457-2.719-1.203.203-.457-2.719-1.203-.202.457-2.72-1.203.202-.456-2.718-1.204-.204.457-2.718-1.203.202-.457-2.719-1.202-.203.457-2.72-1.203.203-.457-2.718-1.203-.203.457-2.719-1.203.202-.456-1.012-.448.159-1.089-.495-.073.428-2.93.001.001.494.072.429-2.929-.495-.073.427-2.93.496.074.428-2.93-.495-.072.428-2.931.001.001.494.072.429-2.929-.495-.073.427-2.929.495.073.429-2.93-.495-.072.428-2.93.495.072.429-2.93-.495-.072.427-2.93h.001l.494.073.429-2.929-.495-.072.428-2.93.495.073.429-2.93-.496-.072.428-2.931.001.001.495.072.428-2.928-.495-.074.428-2.93.496.074.427-2.93-.495-.072.428-2.93h.001l.495.073.428-2.93-.495-.073.427-2.93.497.074.427-2.93-.495-.072.428-2.93.496.073.428-2.93-.495-.072.427-2.93h.001l.495.072.428-2.928-.495-.074.428-2.93.001.002.495.072.428-2.93-.495-.073.427-2.93.001.001.495.073.428-2.93-.494-.072-.001-.001.428-2.93.001.002.495.072.428-2.93-.496-.073.428-2.93.001.002.495.072.428-2.93-.494-.072-.001-.001.428-2.93.001.001.495.073.427-2.93-.495-.072.428-2.93h.001l.495.073.428-2.93-.494-.072h-.001l.427-2.93h.001l.496.073.427-2.93-.495-.072.428-2.93.001.001.495.072.428-2.93-.495-.073.427-2.93.001.002.495.072.428-2.93-.494-.072-.001-.001.428-2.929.001.001.495.072.428-2.93-.495-.072.427-2.93h.001l.495.073.428-2.93-.494-.072h-.001l.428-2.93h.001l.495.073.173-1.187 1.143-.537-.213-.453 2.721-1.28.213.453 2.721-1.28-.213-.453 2.721-1.279.213.453 2.721-1.28-.213-.452 2.721-1.28.213.453 2.72-1.28-.212-.453 2.72-1.28.214.453 2.721-1.28-.213-.452 2.721-1.28.212.452 2.721-1.279-.213-.453 2.722-1.28.213.453 2.721-1.28-.214-.453 2.721-1.279.213.453 2.721-1.28-.213-.452 2.722-1.28.212.453 2.721-1.28-.213-.453 2.721-1.279.213.452 2.721-1.28-.213-.452 2.722-1.28.211.453 2.722-1.28-.214-.453 2.722-1.28.213.453 2.721-1.28-.213-.451 2.72-1.28.213.453 2.722-1.28-.213-.453 2.72-1.28.214.453 2.72-1.28-.213-.453 2.721-1.279.213.452 2.722-1.279-.213-.453 2.721-1.28.212.453 2.721-1.28-.213-.452h-.001l2.722-1.28.213.453 2.721-1.28-.213-.453 2.721-1.28.213.454 2.721-1.28-.213-.453 2.72-1.28h.001l.213.453 2.72-1.28-.212-.452 2.72-1.28.214.453 2.721-1.28-.213-.453 2.721-1.28.212.453 2.721-1.28-.213-.452 2.722-1.28.213.453 2.721-1.28-.213-.452 2.719-1.28h.001l.213.453 2.721-1.28-.213-.453 2.721-1.28.214.453 2.72-1.28-.213-.452 2.721-1.28.213.453 2.721-1.28-.213-.452h-.001l2.722-1.28.213.452 2.721-1.28-.214-.452 2.722-1.28.213.453 2.72-1.28-.212-.452 2.72-1.28.213.453 2.722-1.28-.213-.453 2.72-1.28.001.001.213.452 2.72-1.279-.213-.453 2.721-1.28.213.453 2.722-1.28-.214-.453 2.721-1.279.213.453 2.721-1.28-.213-.452-.001-.001 2.722-1.28.213.454 2.721-1.28-.212-.453h-.001l2.72-1.28.214.453 2.721-1.279-.213-.453 2.721-1.28.213.452 2.721-1.279-.213-.453 2.72-1.28.001.001.213.452 2.725-1.279-.22-.453v-.001l2.72-1.279.22.453 2.72-1.28-.22-.453 2.72-1.279.22.453 2.72-1.281-.21-.452 2.72-1.28v.001l.21.452 2.72-1.279-.21-.453 2.72-1.281.21.454 2.72-1.28-.21-.453 2.72-1.279.21.452 1.1-.516.97.692.29-.407 2.42 1.72-.29.408 2.42 1.721.29-.407v-.001l2.42 1.722-.29.407 2.42 1.721.29-.408 2.42 1.721-.29.408 2.42 1.721.29-.407 2.42 1.72-.29.408 2.42 1.72.29-.407 2.42 1.721-.29.408 2.42 1.721.29-.408 2.42 1.721-.29.407 2.42 1.721.29-.407 2.42 1.72-.29.409 2.42 1.72.29-.408 2.42 1.722-.29.407 2.42 1.72.29-.406 2.42 1.72-.29.409 2.42 1.72.29-.408 2.42 1.722-.29.407 2.42 1.72.29-.407 2.42 1.721-.29.408 2.43 1.721.28-.408 2.42 1.72-.28.409 2.42 1.72.28-.407 2.42 1.721-.28.408 2.42 1.72.29-.407 2.42 1.72-.29.409 2.42 1.72.29-.407 2.41 1.72-.28.409 2.42 1.72.28-.407 2.42 1.721h.01l-.29.407 2.42 1.721.28-.407 2.43 1.72-.29.409 2.42 1.72.29-.407 2.42 1.72-.29.408 2.42 1.72.29-.406 2.42 1.72-.29.408 2.42 1.721.29-.407 2.42 1.72-.29.408 2.42 1.72.29-.407 2.42 1.721-.29.408 2.42 1.721zM814.683-19.768v.002l-.012-.001v-.001zM451.278 190.098l1.102 2.794-.464.183.374.949-.91.4.2.457-2.701 1.185-.2-.457-2.702 1.186.2.457-2.7 1.186-.201-.458-2.703 1.185.202.458-2.702 1.186-.201-.458-2.702 1.185.2.457-2.702 1.186-.199-.457-2.702 1.185.2.457-2.702 1.186-.199-.457-2.702 1.185.2.457-2.701 1.186-.201-.457-2.702 1.184.2.457-2.701 1.187-.2-.458-2.702 1.186.2.457-2.702 1.185-.199-.457-2.702 1.186.2.457-2.702 1.185-.2-.457-2.702 1.186.201.457-2.702 1.185-.2-.458-2.702 1.186.2.457-2.702 1.185-.199-.457-2.702 1.186.2.457-2.702 1.186-.201-.458-2.701 1.186.2.457-2.702 1.186-.2-.457-1.182.518-1.259-.376-.144.479-2.871-.856.144-.478-2.87-.857-.144.479-2.87-.857.142-.478-2.87-.856-.143.479-2.87-.857.143-.478-2.871-.857-.142.479-2.872-.856.144-.478-2.871-.856-.143.478-2.87-.856.143-.479-2.871-.855-.143.477-2.87-.855.143-.479-2.871-.856-.143.478-2.871-.855.143-.479-2.87-.856-.143.478-2.87-.856.142-.479-2.87-.855-.144.478-2.87-.856.144-.479-2.871-.856-.143.479-2.871-.857.144-.477-2.871-.857-.143.479h-.001l-2.869-.857.142-.478-2.87-.857-.143.479-2.871-.856.143-.478-2.87-.857-.143.479-2.871-.856.143-.479-2.87-.856-.144.479-2.87-.857.144-.478-2.871-.857-.144.48-2.871-.856h.001l.144-.479-2.871-.856-.143.478-2.871-.855h.001l.142-.48-2.871-.855-.142.478h-.001l-2.869-.856.142-.479-2.87-.856-.143.478-2.872-.855.144-.479-1.265-.378-.721-1.062-.414.28-1.644-2.422.414-.28-1.643-2.422-.415.28-1.643-2.422.414-.28-1.644-2.421-.415.281-1.642-2.422.414-.281-1.644-2.421-.414.28-1.644-2.421.415-.28-1.644-2.422-.415.28-1.643-2.421.415-.281-1.644-2.421-.415.28-1.643-2.422.414-.28-1.644-2.422-.414.282-1.644-2.422.414-.282-1.643-2.42-.414.28-1.644-2.421.414-.281-1.643-2.422-.414.28-1.644-2.422.414-.279-1.643-2.422-.414.28-1.644-2.422.414-.28-1.643-2.421-.414.28-1.645-2.421.415-.281-1.644-2.422-.414.281-1.644-2.421.415-.281-1.644-2.421-.415.28-1.642-2.422.413-.28-1.644-2.422-.414.281-1.643-2.422.414-.28-1.644-2.422-.414.281-1.643-2.421.414-.282-.515-.759.875-.51-.253-.433 2.641-1.543.253.432 2.639-1.543-.253-.432 2.64-1.544.253.433 2.64-1.544-.252-.432-.001-.001 2.639-1.543.253.433 2.641-1.544-.253-.432 2.64-1.543.252.432 2.64-1.543-.253-.433 2.64-1.543h.001l.252.432 2.639-1.543-.253-.432 2.641-1.543.253.431 2.64-1.543-.253-.431 2.639-1.544.253.432 2.64-1.544-.252-.431 2.639-1.544.253.432 2.64-1.543-.253-.431-.001-.001 2.641-1.543.253.431 2.64-1.542-.253-.432 2.64-1.544.252.431 2.64-1.542-.253-.433 2.64-1.543.001.001.251.432 2.641-1.544-.253-.432 2.64-1.543.253.432 2.639-1.544-.252-.432 2.639-1.544.253.433 2.64-1.543-.252-.432h-.001l2.64-1.544.253.432 1.118-.654 1.212.436.169-.472 2.864 1.03-.168.47 2.864 1.03.169-.471v-.001l2.864 1.03-.169.47 2.863 1.03.169-.471 2.865 1.028-.169.472 2.864 1.028.168-.47 2.865 1.028-.169.471 2.864 1.029.169-.47v-.001l2.864 1.03-.168.47 2.863 1.03.169-.472 2.863 1.029-.168.47 2.865 1.03.168-.472 2.865 1.03-.169.47 2.864 1.03.168-.471 2.865 1.028v.001l-.17.47 2.865 1.029.168-.47 2.865 1.028-.169.471 2.864 1.029.169-.471 2.863 1.03-.168.47 2.865 1.03.169-.472 2.863 1.029-.169.471 2.864 1.029.169-.472 2.863 1.029-.168.471 2.865 1.029.168-.47 2.865 1.028v.001l-.169.471 2.864 1.028.168-.471 2.864 1.029-.169.471 2.865 1.029.168-.471 2.864 1.029h.001l-.169.471 2.864 1.029.169-.47v-.001l2.863 1.029-.167.471 2.863 1.029.169-.471 2.863 1.029-.168.47 2.864 1.03.168-.471 2.866 1.028-.169.471 2.864 1.029.168-.471 2.864 1.03h.001l-.169.47 2.863 1.029.168-.471 2.865 1.029h.001l-.169.471 2.864 1.028.169-.47 2.863 1.029-.168.471 1.219.437.468 1.187.465-.183 1.102 2.794-.465.184 1.103 2.794.464-.184 1.102 2.794h.001l-.465.183 1.103 2.794.464-.183 1.102 2.795-.465.182 1.103 2.795.465-.184 1.101 2.795h.001l-.465.183 1.103 2.794.464-.183 1.102 2.794-.464.183 1.102 2.794.464-.184 1.103 2.795-.464.184 1.102 2.794.464-.184 1.103 2.794-.465.184 1.102 2.794.465-.184v-.001l1.102 2.795h.001l-.465.184 1.102 2.795.464-.184 1.103 2.794h.001l-.465.184 1.101 2.794.465-.184 1.102 2.794h.001l-.465.184 1.103 2.793.463-.183 1.103 2.795h.001l-.465.182 1.102 2.795.464-.183 1.103 2.793-.465.184 1.103 2.794zM1372.2 3.402l2.33 1.958-.32.384 2.33 1.958.32-.383 2.34 1.958-.32.383 2.33 1.96.32-.384 2.33 1.957v.001l-.32.383.78.652-.66.752.38.33-1.99 2.273-.37-.33-1.99 2.274.38.33-1.99 2.273-.38-.33-1.98 2.275.38.328-1.99 2.275-.38-.33-1.98 2.274.37.33-1.98 2.273-.38-.33-1.98 2.274.37.329-1.98 2.273-.38-.329-1.98 2.275.37.328-1.98 2.274-.38-.329-1.98 2.274.37.329-1.98 2.273-.38-.329-1.98 2.274.37.329-1.98 2.273-.38-.328-1.99 2.273.38.328-1.98 2.274-.38-.328-1.99 2.273.38.328-1.98 2.275-.38-.33-1.99 2.274.38.33-1.99 2.273-.37-.328-1.99 2.273.38.328-1.99 2.275-.37-.33-1.99 2.274.38.329-1.99 2.273-.37-.329-1.99 2.274.38.329-1.99 2.273-.37-.328-1.99 2.273.38.329-1.99 2.274-.38-.329-.9 1.031-1.33.425.16.477-2.93.932-.15-.475-2.93.933.16.476-2.93.933-.15-.475-2.92.933.15.476-2.93.934-.15-.476-2.92.934.15.475-2.93.934-.15-.477-2.92.934.15.476-2.93.934-.15-.477-2.92.934.15.477-2.92.933-.16-.476-2.92.933.15.477-2.92.933-.16-.476-2.92.933.15.476-2.92.933-.15-.475-2.93.933.15.477-2.92.934-.15-.477-2.93.934.15.475-2.92.934-.15-.476-2.93.934.15.475-2.92.934-.15-.476-2.93.933.16.477-2.93.933-.15-.476-2.93.933.16.477-2.93.933-.15-.476-2.92.933.15.477-2.93.934-.15-.477-2.92.934.15.476-2.93.934-.15-.477-2.92.934.15.476-2.93.933-.15-.476-1.24.396-1.11-.705-.27.423-2.63-1.66h.01l.26-.422-2.62-1.66-.27.422-2.62-1.66.26-.422-2.62-1.66-.27.423-2.62-1.659.27-.423-2.63-1.66-.26.423h-.01l-2.62-1.66.27-.422-2.63-1.66-.26.422-2.63-1.659.27-.423-2.62-1.659-.27.422-2.63-1.66.27-.422-2.62-1.66-.27.423-2.62-1.66.26-.422-2.62-1.66-.27.423-2.62-1.66.26-.422-2.62-1.66-.27.423-2.62-1.66.27-.422-.88-.555.54-.79-.42-.28 1.66-2.436.41.28 1.65-2.436-.41-.28 1.65-2.437.42.282 1.65-2.437-.42-.28 1.66-2.437.41.282 1.65-2.437-.41-.28v-.001l1.65-2.436.42.281 1.65-2.436-.41-.28v-.001l1.65-2.436.41.281 1.66-2.436-.42-.28v-.001l1.66-2.436.41.281 1.65-2.436-.41-.28v-.001l1.65-2.436.42.281 1.65-2.436-.42-.28v-.002l1.66-2.436v.001l.41.281 1.65-2.436-.41-.28 1.65-2.437.42.281 1.65-2.435-.41-.282 1.65-2.436.41.281 1.66-2.435-.42-.282 1.65-2.436.42.281 1.65-2.436-.41-.28 1.65-2.437.41.281 1.66-2.436-.42-.28v-.002l1.65-2.435h.01l.41.28 1.65-2.435-.41-.28v-.002l1.65-2.435.42.28.73-1.083 1.26-.46-.17-.47 2.83-1.031.17.47 2.83-1.03-.17-.47v-.001l2.82-1.03.18.47 2.82-1.031-.17-.47 2.83-1.031.17.47 2.83-1.03-.17-.47 2.82-1.032v.001l.17.47 2.83-1.031-.17-.47 2.83-1.031.17.47 2.83-1.03-.17-.47 2.82-1.03.17.469 2.83-1.031-.17-.47 2.83-1.031.17.47 2.83-1.03-.18-.47 2.83-1.03.17.469 2.83-1.03-.17-.471 2.83-1.03.17.47 2.83-1.03-.18-.47v-.002l2.83-1.03.17.47 2.83-1.03-.17-.47v-.001l2.83-1.03.17.47 2.82-1.03-.17-.47v-.002l2.83-1.03.17.47 2.83-1.03-.17-.47 2.83-1.031.17.47 2.82-1.031-.17-.47 2.83-1.03.17.469 2.83-1.03-.17-.47 2.82-1.031.18.47 2.82-1.031-.17-.47 2.83-1.031v.001l.17.47 2.83-1.031-.17-.47 2.82-1.032v.002l.18.47 2.82-1.032-.17-.47 2.83-1.031.17.47 2.83-1.03-.17-.47 2.82-1.032v.001l.17.47 1.15-.417.94.794.32-.383 2.34 1.957v.001l-.32.383 2.33 1.96.32-.385 2.33 1.96-.32.382 2.33 1.958.33-.383 2.33 1.958v.001l-.32.383 2.33 1.958.32-.383 2.34 1.958-.33.384 2.34 1.958.32-.383 2.33 1.957v.001l-.32.383 2.33 1.96.33-.384 2.33 1.957v.001l-.32.383 2.33 1.958.32-.383 2.33 1.96h.01l-.33.382 2.34 1.958z"
      />
      <path
        stroke="#dcdcdc"
        d="m1477.58 70.974-83.03 77.734-117.68 33.088-55.26-32.777 62.33-77.631 140.46-46.386z"
      />
      <path
        stroke="#005bff"
        stroke-dasharray="3 3"
        d="m821.452 104.889 2.682 1.246v.001l-.211.453 2.681 1.246.209-.453 2.681 1.246-.21.454 2.68 1.247.21-.454 2.681 1.246v.001l-.21.454.981.456-.223 1.085.49.099-.604 2.944-.489-.101-.605 2.943.49.1-.604 2.943-.489-.1-.605 2.943.49.1-.604 2.943-.489-.101-.605 2.944.49.099-.604 2.944-.489-.101-.605 2.944.49.099-.604 2.944-.489-.101-.605 2.943.49.1-.604 2.943-.489-.1-.605 2.943.49.099-.604 2.944-.489-.101-.605 2.943.49.099-.604 2.945-.49-.101-.604 2.943.49.1-.604 2.944-.49-.101-.246 1.196-1.089.397.171.469-2.706.982-.17-.47-2.705.982.17.47-2.706.982-.17-.47-2.705.981.17.47-2.705.982-.171-.47-2.705.981.17.471-2.705.981-.17-.469-2.706.981.171.47-2.705.981-.171-.469-2.705.981.171.471-2.706.981-.17-.469-2.705.981.17.47-2.706.981-.17-.47-2.705.982.171.471-2.705.981-.171-.47-2.705.982.17.469-2.706.983-.169-.471-2.707.982.171.47-2.705.982-.171-.47-2.705.981.171.47-2.706.982-.17-.47-2.705.982.17.47-2.705.982-.17-.47-1.176.425-1.183-.465-.184.465h-.001l-2.72-1.071h.001l.183-.466-2.72-1.07-.184.465-2.721-1.071h.001l.184-.465-2.721-1.071-.183.465h-.001l-2.72-1.071h.001l.183-.465-2.721-1.071-.183.465-2.721-1.07h.001l.183-.466-2.72-1.071-.184.465h-.001l-2.719-1.071.183-.465-2.72-1.07-.183.465h-.001l-2.721-1.072h.001l.184-.465-2.721-1.071-.182.466h-.001l-2.721-1.071.183-.465-2.719-1.071-.184.464h-.001l-2.72-1.07h.001l.183-.466-2.72-1.07-.183.465h-.001l-2.721-1.071h.001l.184-.465-2.721-1.072-.183.466h-.001l-2.72-1.071h.001l.183-.465-2.721-1.071-.183.465-2.721-1.071h.001l.183-.465-1.04-.41.012-1.127-.501-.005.031-2.944.001.001.5.006.03-2.943-.5-.005.03-2.944.5.006.031-2.943-.5-.005.03-2.944.001.001.5.006.03-2.944-.5-.005-.001-.001.031-2.941.5.005.031-2.944-.5-.004.03-2.943.5.005.031-2.943-.5-.005-.001-.001.031-2.942.5.005.031-2.942-.5-.006.03-2.942.5.005.03-2.943-.5-.006.031-2.943.5.006.031-2.943-.5-.005.03-2.943.5.005.012-1.143 1.059-.448-.195-.461 2.721-1.151.001.001.195.46 2.722-1.151-.195-.46 2.721-1.152.195.461 2.722-1.15-.195-.461 2.722-1.151.195.461 2.722-1.151-.195-.46-.001-.001 2.722-1.15.001.001.195.46 2.722-1.151-.195-.461-.001-.001 2.722-1.15.195.461 2.722-1.151-.194-.46 2.721-1.15.195.46 2.722-1.151-.195-.46-.001-.001 2.723-1.15.195.46 2.722-1.15-.195-.461-.001-.001 2.722-1.15.195.46 2.722-1.15-.194-.46 2.721-1.151.196.46 2.721-1.15-.195-.46-.001-.001 2.723-1.15.195.46 2.722-1.15-.195-.462 2.721-1.15.196.46 2.721-1.15-.194-.461 2.721-1.151h.001l.195.46 2.722-1.15-.196-.46h-.001l2.723-1.152h.001l.194.462 1.156-.49 1.14.53.209-.453 2.682 1.246-.211.454 2.68 1.247.21-.454 2.681 1.247h.001l-.211.453 2.681 1.247.21-.454 2.68 1.246v.001l-.211.453 2.681 1.247.211-.454 2.68 1.247-.21.453 2.68 1.247.211-.453 2.679 1.246h.001l-.211.454 2.681 1.246.211-.454 2.679 1.247-.21.455 2.681 1.246.21-.453 2.68 1.246-.21.454 2.681 1.246.21-.454 2.68 1.247-.21.454 2.681 1.246.21-.453 2.68 1.246-.21.454 2.68 1.246z"
      />
      <path
        stroke="#005bff"
        d="m86.857-5.362 82.063 109.668-69.928 44.19-151.1-44.503L-169.05-5.813l65.132-68.612z"
      />
      <path
        fill="#dcdcdc"
        d="m556.819-6.89 4.983 29.503L593.3 36.578l27.826-13.965-2.742-29.503-32.833-15.607zm60.492.555 2.694 28.416-26.824 13.48-30.377-13.48-4.769-28.416 27.683-15.006z"
      />
      <path
        stroke="#005bff"
        stroke-dasharray="3 3"
        d="m628.935 111.741.282 2.996v.001l-.498.047.282 2.997.497-.047v-.001l.281 2.998v.001l-.497.046.28 2.997.498-.046v-.001l.282 2.997v.001l-.498.047.281 2.997.498-.047v-.001l.28 2.998h.001l-.498.047.106 1.134-1.059.454.196.459-2.789 1.192-.196-.46-2.79 1.192.196.459-2.79 1.192-.196-.459-2.789 1.191.196.46-2.79 1.192-.196-.46-2.79 1.192.197.459-2.791 1.191-.195-.459-2.791 1.192.197.46-2.789 1.191-.198-.46-2.789 1.193.197.459-2.791 1.191-.196-.459-2.79 1.191.197.459-2.789 1.193-.197-.46-2.79 1.191.197.46-2.791 1.192-.196-.459-2.789 1.191.195.459-2.789 1.192-.196-.46-2.79 1.192.197.46-2.791 1.191-.195-.459-2.79 1.192.195.459-2.789 1.191-.196-.459-2.789 1.191.196.46-2.79 1.192-.196-.459-2.79 1.191.196.459-2.789 1.193-.196-.46-1.215.517-1.241-.448-.171.47-2.855-1.034.171-.469-2.855-1.033-.171.47-2.854-1.033.17-.47-2.855-1.032-.17.469-2.855-1.032.17-.47-2.854-1.032-.171.468-2.855-1.032.17-.47-2.854-1.032-.171.47-2.856-1.033h.001l.17-.47-2.854-1.033-.17.47-2.857-1.033.172-.469-2.855-1.034-.17.47-2.856-1.032h.001l.17-.47-2.855-1.033-.17.47-2.856-1.033h.001l.17-.469-2.854-1.034-.171.47-2.855-1.032h.001l.169-.47-2.854-1.033-.17.47-2.856-1.032.17-.47-2.854-1.033-.17.469h-.001l-2.854-1.033.17-.47-2.855-1.032-.17.47h-.001l-2.854-1.032h.001l.17-.471-2.856-1.032-.17.47h-.001l-2.854-1.033.171-.47-2.855-1.033-.171.47h-.001l-2.853-1.033.17-.47-2.855-1.032-.17.47h-.001l-2.854-1.034.17-.469-1.2-.435-.378-1.151-.475.156h-.001l-.912-2.767.476-.156-.912-2.766-.474.156h-.001l-.912-2.767.476-.156-.912-2.767-.476.158-.911-2.767h.001l.475-.157-.912-2.767-.476.157-.911-2.766h.001l.475-.157-.911-2.767-.477.157-.911-2.766.475-.157-.911-2.766-.475.155-.912-2.766.475-.156-.911-2.767-.476.156-.912-2.766.476-.156-.911-2.767-.475.157h-.001l-.912-2.767.476-.156-.911-2.767-.475.156h-.001l-.911-2.767.475-.156-.912-2.766-.475.156-.911-2.767.475-.156-.912-2.766-.476.156-.911-2.768.476-.155-.912-2.766-.476.156-.911-2.767h.001l.475-.156-.912-2.767-.476.157-.911-2.767.475-.156-.325-.985.942-.503-.237-.44 2.622-1.403.237.441 2.622-1.403-.237-.44 2.622-1.404.001.001.236.44 2.622-1.402-.236-.441 2.622-1.403.236.44 2.622-1.402-.236-.44-.001-.001 2.623-1.402.236.441 2.621-1.403-.235-.44-.001-.002 2.623-1.402.235.441 2.622-1.402-.235-.441 2.621-1.404.001.001.235.44 2.623-1.402-.236-.441 2.621-1.403h.001l.236.441 2.622-1.402-.236-.44-.001-.002 2.623-1.402.236.441 2.622-1.403-.236-.44-.001-.001 2.622-1.403.001.001.236.44 2.622-1.402-.236-.441 2.621-1.403h.001l.236.441 2.622-1.402-.236-.442 2.622-1.402.236.441 2.622-1.403-.236-.44-.001-.001 2.623-1.403.236.442 2.622-1.404-.236-.44-.001-.001 2.622-1.402h.001l.235.441 2.623-1.402-.236-.442 2.621-1.403h.001l.236.441 2.622-1.402-.236-.44-.001-.001 2.622-1.404.001.001.236.442 1.096-.588 1.119.488.199-.459 2.68 1.169-.199.459 2.68 1.169.198-.459 2.68 1.169-.198.459 2.679 1.169.2-.46 2.679 1.17-.199.459 2.68 1.169.199-.46 2.68 1.17-.2.459 2.68 1.169.199-.46 2.68 1.17-.199.458 2.679 1.169.2-.459 2.679 1.17h.001l-.2.457 2.68 1.17.199-.459 2.68 1.17h.001l-.2.457 2.68 1.17.198-.459 2.681 1.168v.001l-.199.458 2.68 1.17.199-.459 2.679 1.17-.199.457 2.68 1.17.199-.459 2.68 1.169h.001l-.2.458 2.679 1.169.2-.458 2.68 1.168-.2.459 2.68 1.169.2-.458v-.001l2.68 1.169-.201.459 2.68 1.169.2-.458v-.001l2.68 1.169-.199.459 2.679 1.169.2-.458v-.001l2.679 1.169-.199.459 2.68 1.169.2-.458v-.001l2.68 1.169-.201.459 2.68 1.169.2-.459 2.68 1.168v.001l-.2.458 2.68 1.17.199-.46 2.679 1.17-.199.458 2.68 1.17.199-.46 2.68 1.17-.199.458 1.069.466.113 1.205.497-.047.282 2.997h.001l-.499.047.282 2.997.497-.047.281 2.998h.001l-.498.046.281 2.997.497-.046.282 2.998h.001l-.499.045.282 2.998.497-.046v-.001l.281 2.997-.497.047.281 2.998.497-.047v-.001l.282 2.997-.499.048.282 2.997.498-.047v-.001l.281 2.997v.001l-.498.047.281 2.997.497-.047.282 2.997h.001l-.499.047.282 2.997.497-.047.281 2.997h.001l-.498.047.281 2.997z"
      />
      <path
        stroke="#005bff"
        d="m726.407 15.102-2.763 66.159-66.949 29.132-70.12-29.15-9.873-66.167 72.779-37.96z"
      />
      <path
        stroke="#dcdcdc"
        d="m747.998 79.986-2.932 38.904-44.231 18.003-43.868-17.999L654.833 80l46.812-21.324z"
      />
      <path
        fill="#dcdcdc"
        d="m952.911 148.509-12.852 32.578 33.572 15.098 47.449-15.098 17.07-32.578-34.55-17.596zm83.359.624-16.38 31.376-45.758 14.589-32.356-14.589 12.446-31.376 48.788-16.902z"
      />
      <path
        stroke="#605d5d"
        stroke-opacity=".5"
        d="m485.651 163.928 15.207 46.929-50.931 21.004-69.254-21.134-24.8-46.979 53.364-26.444z"
      />
      <path
        fill="#dcdcdc"
        d="m1159.47 83.676-20.6 31.954 25.75 14.936 46.59-14.936 23.96-31.954-25.92-17.11zm73.84.602-23.03 30.774-44.95 14.428-24.82-14.428 19.91-30.775 47.9-16.439 24.97 16.44zM1007.46 172.855l-9.175 18.544 19.195 8.878 28.68-8.878 10.64-18.544-19.48-9.687zm48.24.347-10.23 17.85-27.66 8.555-18.5-8.555 8.87-17.85 28.73-9.318 18.77 9.318z"
      />
      <path
        stroke="#005bff"
        d="m1114.75 13.07-20.63 38.804-48.91 18.096-31.27-17.906 16.44-38.777 52.42-21.095z"
      />
      <path
        stroke="#dcdcdc"
        d="m106.068-30.754 46.475 66.147-41.278 29.07-87.971-29.38-57.722-66.213L5.928-68.464zM476.407 35.744l13.605 48.226-43.43 21.889-59.274-22.022-20.554-48.242 45.205-26.667z"
      />
      <mask id="b" fill="#fff">
        <path
          d="m251.572 193.087 14.664 20.277 33.596 9.642 20.529-9.642-12.804-20.277-35.217-10.682zm55.198.393 12.375 19.537-19.79 9.318-32.404-9.318-14.091-19.537 20.004-10.266z"
        />
      </mask>
      <path
        fill="#605d5d"
        fill-opacity=".3"
        d="m251.572 193.087 14.664 20.277 33.596 9.642 20.529-9.642-12.804-20.277-35.217-10.682zm55.198.393 12.375 19.537-19.79 9.318-32.404-9.318-14.091-19.537 20.004-10.266z"
      />
      <path
        fill="#605d5d"
        fill-opacity=".5"
        d="m251.572 193.087-.457-.89-1.035.533.682.943zm14.664 20.277-.81.586.202.28.332.095zm33.596 9.642-.276.961.361.104.34-.16zm20.529-9.642.425.905 1.025-.481-.604-.958zm-12.804-20.277.846-.534-.199-.315-.357-.108zm-35.217-10.682.29-.957-.387-.118-.36.185zm34.43 11.075.845-.535-.199-.315-.356-.107zm12.375 19.537.426.905 1.025-.483-.606-.957zm-19.79 9.318-.277.961.362.104.341-.16zm-32.404-9.318-.811.585.202.281.333.095zM252.86 193.48l-.457-.89-1.035.531.681.944zm20.004-10.266.29-.957-.387-.117-.359.184zm-21.292 9.873-.81.586 14.664 20.277.81-.586.81-.586-14.664-20.277zm14.664 20.277-.276.961 33.596 9.642.276-.961.276-.961-33.596-9.642zm33.596 9.642.425.905 20.529-9.642-.425-.905-.425-.905-20.529 9.642zm20.529-9.642.846-.534-12.804-20.277-.846.534-.846.534 12.805 20.277zm-12.804-20.277.29-.957-35.217-10.682-.29.957-.29.957 35.217 10.682zm-35.217-10.682-.457-.89-20.768 10.682.457.89.457.889 20.768-10.682zm34.43 11.075-.845.535 12.375 19.537.845-.535.845-.535-12.375-19.537zm12.375 19.537-.426-.904-19.79 9.318.426.904.426.905 19.79-9.318zm-19.79 9.318.276-.961-32.403-9.318-.277.961-.276.961 32.403 9.318zm-32.404-9.318.811-.585-14.091-19.537-.811.585-.811.585 14.091 19.537zM252.86 193.48l.456.889 20.005-10.265-.457-.89-.456-.89-20.005 10.266zm20.004-10.266-.289.957 33.905 10.266.29-.957.29-.957-33.906-10.266z"
        mask="url(#b)"
      />
      <path
        stroke="#dcdcdc"
        d="m1370.82-87.688-91.2 120.214-140.12 48.75-79.7-48.522 56.79-120.129 173.75-75.481z"
      />
      <path
        fill="#dcdcdc"
        d="m800.025-84.694-9.061 76.116 62.995 33.364 76.682-33.364 22.126-76.116-67.429-43.653zm149.524 1.526L928.471-9.85l-74.011 32.3-60.778-32.3 8.966-73.318 82.022-41.826z"
      />
      <path
        stroke="#005bff"
        stroke-dasharray="3 3"
        d="m1320.05 126.847 2.66 1.79v.001l-.28.414 2.66 1.791.28-.415v-.001l2.66 1.79v.001l-.28.415 2.66 1.79.27-.415 2.66 1.79-.28.415.84.563-.67.698.36.344-2.16 2.252-.36-.344-2.15 2.252.36.345-2.16 2.251-.36-.344-2.16 2.252.36.345-2.16 2.252-.36-.345-2.15 2.251.36.346-2.16 2.252-.36-.346-2.16 2.252.36.346-2.16 2.252-.36-.345-2.16 2.252.36.345-2.15 2.253-.36-.346-2.16 2.252.36.345-2.16 2.253-.36-.346-2.16 2.252.36.346-2.16 2.251-.36-.345-2.15 2.252.36.346-2.16 2.251-.36-.345-2.16 2.252.36.346-2.16 2.252-.36-.346-.98 1.026-1.27.356.14.481-2.8.781-.14-.481-2.79.782.13.481-2.79.782-.14-.482-2.8.782.14.481-2.8.782-.13-.481-2.8.781.13.482-2.79.782-.14-.482-2.79.782.13.481-2.8.781-.13-.48-2.8.781.14.482-2.8.781-.14-.481-2.79.782.13.481-2.8.781-.13-.481-2.8.782.14.481-2.8.782-.13-.482-2.8.783.13.481-2.79.781-.14-.481-2.8.782.14.48-2.8.783-.13-.482-2.8.781.13.482-2.79.782-.14-.481-2.79.781.13.481-2.8.783-.13-.482-2.8.781.14.482-2.8.781-.13-.48-1.21.336-1.15-.629-.24.438-2.67-1.452.24-.438-2.67-1.452-.24.439-2.67-1.451.24-.44-2.67-1.451-.24.439-2.67-1.452.24-.439-2.67-1.451-.24.438-2.66-1.452.23-.438-2.66-1.452-.24.439-2.67-1.451.24-.44-2.67-1.451-.24.439-2.67-1.452.24-.439-2.67-1.451-.24.438-2.67-1.451.24-.439-.81-.445.51-.66-.39-.307v-.001l1.76-2.252.39.308 1.76-2.252-.39-.308 1.76-2.252.4.308 1.76-2.252-.4-.308 1.76-2.252.4.308 1.76-2.253-.4-.307 1.76-2.252.4.307 1.76-2.251-.39-.308v-.001l1.76-2.252v.001l.39.308 1.76-2.252-.39-.308v-.001l1.76-2.252v.001l.39.308 1.76-2.252-.39-.308v-.001l1.76-2.252v.001l.39.308 1.77-2.252-.4-.308v-.001l1.76-2.252.4.309 1.76-2.252-.4-.309 1.76-2.253v.001l.4.309 1.76-2.252-.4-.309v-.001l1.76-2.252.01.001.39.309.78-1.004 1.3-.4-.15-.478v-.001l2.88-.894.15.477 2.89-.894-.15-.478v-.001l2.89-.895v.001l.14.477 2.89-.895-.15-.478 2.89-.895v.001l.15.477 2.88-.895-.15-.478 2.89-.895v.001l.15.477 2.88-.895-.14-.478v-.001l2.88-.894.15.477 2.89-.894-.15-.478v-.001l2.88-.894.15.477 2.89-.895-.15-.478 2.89-.895.14.478 2.89-.895-.15-.478 2.89-.896v.001l.15.478 2.88-.896-.15-.477v-.001l2.89-.895.15.478 2.88-.895-.14-.477v-.001l2.88-.895.15.478 2.89-.895-.15-.477v-.001l2.88-.896v.001l.15.478 2.89-.896-.15-.477 2.88-.896.01.001.14.478 2.89-.896-.15-.477 2.89-.896v.001l.15.478 2.88-.896-.15-.477v-.001l2.89-.895.15.478 1.21-.377 1.13.762.28-.414v-.001l2.66 1.791-.28.415 2.66 1.79.28-.415 2.66 1.79-.28.415 2.66 1.79.28-.415 2.65 1.79v.001l-.28.414 2.66 1.791.28-.415 2.66 1.79-.28.415 2.66 1.79z"
      />
      <path
        fill="#dcdcdc"
        d="m1155.94 176.786-14.23 19.283 17.88 9.226 32.21-9.179 15.81-19.284-17.98-10.127-33.71 10.081zm50.45.416-15.21 18.59-31.07 8.855-17.24-8.901 13.74-18.59 32.45-9.688 17.31 9.757zM464.353 160.74l8.489 24.023 33.905 11.399 26.991-11.306-6.127-24.024-35.504-12.763zm62.232.532 5.961 23.144-26.013 10.913-32.69-10.982-8.131-23.145 26.729-12.185 34.168 12.278zM688.007-5.48l.191 37.642 37.149 17.595 38.674-17.48 3.505-37.641-38.865-20.301-40.654 20.162zm78.017.832-3.314 36.255-37.316 16.878-35.837-16.994-.119-36.277 39.127-19.376L766-4.671z"
      />
      <path
        fill="#dcdcdc"
        d="m742.347 21.04-2.623 41.064 40.463 19.029 45.064-18.89 7.344-41.04-42.418-22.36-47.83 22.22zm88.436.925-6.986 39.538-43.443 18.266-39.009-18.382 2.6-39.56L789.963.486l40.82 21.456z"
      />
      <path
        stroke="#dcdcdc"
        d="m253.339 93.778 30.266 48.948-40.504 21.913-72.182-22.158L132.2 93.479l40.949-27.216z"
      />
      <path
        stroke="#005bff"
        stroke-dasharray="3 3"
        d="m243.567 191.39 1.712 2.333-.402.297.509.693-.807.416.228.443-2.657 1.368-.227-.445-2.656 1.367.228.444-2.656 1.367-.228-.444-2.656 1.367.229.444-2.657 1.366-.228-.444-2.655 1.367.228.445-2.657 1.366-.228-.444-2.656 1.367.23.444-2.658 1.366-.227-.443-2.656 1.366.228.444-2.656 1.367-.229-.444-2.655 1.366.229.445-2.657 1.367-.228-.444-2.656 1.366.228.444-2.655 1.367-.229-.444-2.656 1.366.228.445-2.655 1.367-.229-.445-1.154.594-1.303-.358-.134.482-2.983-.82h.001l.133-.482-2.981-.82-.133.482-2.982-.821.132-.481-2.982-.82-.133.482-2.982-.82h.001l.133-.482-2.983-.82-.133.481-2.982-.819.134-.482-2.983-.82-.133.482h-.001L170 211.7l.132-.481-2.982-.82-.132.481-2.984-.819.134-.483-2.982-.819-.133.481-2.982-.82.133-.481-2.982-.821-.133.482-2.983-.82.134-.481-2.982-.82-.133.481-2.981-.82.131-.482-2.981-.82-.133.481-2.983-.819h.001l.133-.481-2.983-.821-.132.482-2.982-.82.133-.482-2.983-.819-.133.48-2.982-.819.134-.482-2.983-.82-.132.482-2.982-.821.132-.481-2.981-.82-.134.482-2.982-.82.133-.482-2.982-.82-.132.481-2.983-.82.133-.48-1.358-.375-.937-.977-.361.346-2.064-2.155.361-.344-2.065-2.155-.361.346-2.064-2.153.361-.346-2.064-2.154-.362.345-2.063-2.154.361-.345-2.064-2.154-.362.346-2.064-2.154.361-.345-2.064-2.155-.362.345-2.063-2.153.36-.346-2.064-2.153-.362.346-2.063-2.155.361-.345-2.064-2.154-.361.345-2.065-2.153.361-.346-2.064-2.153-.361.344-2.065-2.154.361-.345-2.064-2.153-.361.346-2.065-2.155.362-.345-2.064-2.154-.361.345-2.065-2.153.362-.346-2.065-2.153-.361.345-2.065-2.155.362-.345-2.065-2.154-.36.346-2.065-2.153.36-.346-2.064-2.154-.36.345-2.065-2.154.362-.345-.621-.647.7-.47-.277-.415-.001-.001 2.392-1.602.279.416 2.391-1.602-.278-.416 2.39-1.603.001.001.279.415 2.391-1.602-.278-.415v-.001l2.39-1.603.002.001.278.415 2.392-1.601-.279-.416 2.39-1.603.28.416 2.392-1.602-.28-.416 2.392-1.603.001.001.278.415 2.392-1.601-.278-.416-.001-.001 2.391-1.602.28.416 2.39-1.602-.278-.416h-.001l2.392-1.603v.001l.279.415 2.391-1.602-.278-.416 2.392-1.602.278.416 2.392-1.603-.279-.415v-.001l2.39-1.602.002.001.278.415 2.392-1.602-.278-.416-.001-.001 2.392-1.601.278.416.996-.669 1.189.374.149-.478 2.834.891-.149.477 2.834.89.149-.477 2.834.89-.149.478 2.834.889.149-.476 2.834.889-.148.478 2.834.89.148-.477 2.835.89-.149.477 2.834.891.148-.478 2.835.89-.149.477 2.834.891.149-.477 2.835.889v.001l-.15.477 2.834.89.149-.477 2.835.89-.15.477 2.835.891.148-.478 2.835.89-.149.477 2.834.891.148-.478 2.835.89-.149.478 2.834.89.148-.477 2.835.889-.149.478 2.834.89.15-.476v-.001l2.833.891-.149.477 2.834.89.15-.477v-.001l2.833.891-.149.477 2.835.89.149-.478 2.833.891h.001l-.149.478 2.833.889.15-.477 2.834.889v.001l-.15.478 2.834.89.15-.478 2.834.891-.15.477 2.834.89.151-.477v-.001l2.833.891-.15.477 2.834.89.151-.476v-.001l2.834.89v.001l-.15.477 2.834.89.15-.477v-.001l2.834.89-.15.478 1.26.396.76 1.035.402-.296 1.712 2.333-.402.296 1.712 2.334.402-.297 1.712 2.333v.001l-.403.296 1.712 2.333.402-.296 1.713 2.333v.001l-.404.296 1.712 2.333.403-.296 1.712 2.333-.403.296 1.712 2.334.403-.296 1.711 2.332v.001l-.402.296 1.711 2.333.403-.296v-.001l1.712 2.334-.403.297 1.712 2.333.403-.296v-.001l1.711 2.334-.402.296 1.712 2.334.403-.296v-.001l1.711 2.334-.402.296 1.712 2.333.402-.296v-.001l1.712 2.334-.404.297 1.712 2.333.404-.296v-.001l1.712 2.333v.001l-.404.296 1.712 2.334.404-.296v-.001l1.711 2.333v.001l-.403.296 1.712 2.333z"
      />
      <path
        stroke="#005bff"
        d="m368.892-62.843 46.199 123.584-89.841 49.35-142.769-49.54-85.05-123.7 93.707-78.534z"
      />
      <path
        fill="#f4f4f5"
        d="M252.955 105.78c-1.884-2.982-.143-5.433 3.91-5.433 4.054 0 8.823 2.451 10.635 5.433 1.812 2.96.024 5.341-3.958 5.341s-8.727-2.381-10.587-5.341M273.651 93.896c-1.836-3.098 0-5.619 4.125-5.619s8.894 2.52 10.658 5.619c1.741 3.075-.119 5.526-4.172 5.526-4.054 0-8.799-2.474-10.611-5.526M248.425 156.925c-1.765-2.567-.167-4.671 3.576-4.671 3.744 0 8.179 2.104 9.895 4.671 1.693 2.543.072 4.601-3.624 4.601s-8.107-2.058-9.847-4.601M793.158 96.509c.429-3.075 4.101-5.573 8.202-5.573s7.01 2.498 6.533 5.573c-.5 3.052-4.148 5.503-8.178 5.503s-6.962-2.451-6.533-5.503zM618.717 97.18c-.333-3.076 2.719-5.573 6.82-5.573s7.63 2.497 7.892 5.572c.262 3.029-2.79 5.48-6.843 5.48-4.054 0-7.559-2.451-7.893-5.48zM454.911 97.55c-1.025-3.053 1.431-5.573 5.532-5.573s8.202 2.497 9.18 5.572c.953 3.029-1.526 5.48-5.556 5.48-4.029 0-8.131-2.451-9.156-5.48M471.435 47.815c-1.025-3.514 1.669-6.381 6.056-6.381s8.727 2.867 9.681 6.381c.953 3.468-1.789 6.266-6.104 6.266s-8.632-2.798-9.657-6.266zM574.201 45.41c-.548-3.537 2.552-6.404 6.963-6.404s8.369 2.89 8.846 6.404c.476 3.492-2.647 6.313-6.963 6.313-4.315 0-8.274-2.821-8.822-6.313zM340.581 95.607c-1.526-3.075.548-5.596 4.649-5.596s8.632 2.52 10.11 5.596c1.454 3.052-.644 5.503-4.697 5.503-4.054 0-8.536-2.451-10.062-5.503M376.847 76.023c-1.407-3.26.858-5.896 5.079-5.896 4.22 0 8.75 2.66 10.085 5.896 1.336 3.214-.953 5.804-5.102 5.804s-8.655-2.59-10.038-5.804zM389.389 17.642c-1.479-3.792 1.025-6.89 5.579-6.89s9.395 3.098 10.778 6.89c1.382 3.745-1.145 6.774-5.628 6.774-4.482 0-9.275-3.029-10.729-6.774M425.178 145.618c-1.073-2.659 1.121-4.832 4.936-4.832s7.749 2.173 8.774 4.832c1.026 2.636-1.216 4.763-4.959 4.763-3.744 0-7.678-2.127-8.751-4.763M393.514 216.324c-1.073-2.127.786-3.838 4.196-3.838s7.01 1.734 8.035 3.838-.858 3.792-4.22 3.792-6.938-1.688-8.011-3.792M210.06 156.486c-1.907-2.567-.453-4.671 3.314-4.671s8.322 2.104 10.182 4.671c1.859 2.543.333 4.601-3.362 4.601s-8.226-2.058-10.134-4.601M134.547 119.931c-2.337-2.867-1.049-5.226 2.909-5.226s9.037 2.335 11.326 5.226c2.265 2.844.93 5.133-2.981 5.133s-8.941-2.289-11.254-5.133M120.36 51.792c-2.647-3.468-1.264-6.312 3.1-6.312s9.99 2.844 12.565 6.312c2.552 3.445 1.121 6.196-3.171 6.196s-9.871-2.774-12.494-6.196M143.179 81.757c-2.433-3.19-1.026-5.803 3.147-5.803s9.514 2.613 11.874 5.803c2.337 3.168.906 5.711-3.219 5.711s-9.394-2.543-11.826-5.71zM822.295 140.37c.524-2.705 4.053-4.902 7.916-4.902s6.485 2.197 5.913 4.902c-.572 2.682-4.101 4.832-7.892 4.832s-6.438-2.15-5.937-4.832M1108.18 64.971c1.88-3.352 6.87-6.08 11.16-6.08s6.17 2.728 4.22 6.08c-1.93 3.33-6.89 5.989-11.11 5.989s-6.13-2.66-4.27-5.989M1194.42 58.659c2.29-3.399 7.66-6.197 11.97-6.197 4.32 0 5.89 2.775 3.56 6.197-2.34 3.376-7.66 6.08-11.9 6.08-4.25 0-5.87-2.704-3.63-6.08M1344.93 49.434c3-3.492 9.01-6.359 13.37-6.359s5.41 2.844 2.31 6.358c-3.05 3.469-8.98 6.243-13.3 6.243s-5.39-2.774-2.41-6.242zM1252.34 102.451c2.41-3.029 7.65-5.48 11.71-5.48 4.05 0 5.34 2.474 2.88 5.48-2.43 2.983-7.65 5.41-11.66 5.41-4 0-5.34-2.404-2.95-5.41zM1229.71 130.96c2.22-2.775 7.18-5.041 11.07-5.041 3.88 0 5.19 2.266 2.95 5.041-2.24 2.751-7.17 4.971-11.01 4.971s-5.2-2.22-3.01-4.971M1020.75 143.792c1.31-2.682 5.5-4.856 9.32-4.856 3.81 0 5.79 2.174 4.43 4.856-1.36 2.659-5.5 4.786-9.3 4.786-3.79 0-5.77-2.127-4.45-4.786M937.937 171.514c.954-2.451 4.673-4.462 8.345-4.462s5.818 2.011 4.817 4.462c-.978 2.428-4.721 4.393-8.322 4.393s-5.794-1.965-4.84-4.393M575.56 29.988c-.286-1.942 1.383-3.514 3.744-3.514 2.36 0 4.506 1.572 4.792 3.514.263 1.943-1.406 3.492-3.743 3.492s-4.483-1.55-4.769-3.492zM719.242 68.925c.072-1.757 1.932-3.168 4.173-3.168s4.006 1.434 3.934 3.168c-.071 1.734-1.955 3.144-4.172 3.144-2.218 0-3.982-1.41-3.935-3.144M653.052 109.688c-.095-1.572 1.55-2.844 3.672-2.844s3.911 1.272 3.982 2.844c.072 1.549-1.574 2.821-3.672 2.821s-3.886-1.249-3.982-2.821M698.117 136.347c0-1.434 1.669-2.613 3.72-2.613 2.05 0 3.671 1.179 3.648 2.613-.024 1.433-1.693 2.589-3.72 2.589s-3.648-1.156-3.648-2.589M742.776 93.503c.119-1.642 1.955-2.96 4.125-2.96s3.815 1.341 3.696 2.96-1.979 2.936-4.125 2.936-3.815-1.318-3.696-2.936M737.745 41.503c.12-1.873 2.075-3.422 4.411-3.422 2.337 0 4.125 1.526 3.982 3.422-.119 1.873-2.098 3.399-4.411 3.399s-4.101-1.503-3.982-3.4M719.767 48.393c.072-1.85 1.979-3.353 4.292-3.353s4.125 1.503 4.03 3.353c-.072 1.85-2.003 3.33-4.292 3.33s-4.101-1.48-4.03-3.33M1089.39 51.792c.96-1.827 3.6-3.33 5.92-3.33 2.31 0 3.36 1.503 2.38 3.33-.98 1.826-3.62 3.306-5.89 3.306-2.26 0-3.36-1.48-2.41-3.306M1188.13 72.832c1.17-1.734 3.93-3.144 6.17-3.144 2.25 0 3.08 1.41 1.89 3.144s-3.94 3.122-6.15 3.122c-2.22 0-3.08-1.387-1.91-3.122M1215.95 103.098c1.2-1.595 3.89-2.89 6.04-2.89 2.14 0 2.91 1.295 1.69 2.89-1.19 1.596-3.89 2.867-6.01 2.867s-2.88-1.271-1.72-2.867M1189.06 168.786c1.02-1.318 3.41-2.381 5.36-2.381 1.96 0 2.67 1.063 1.65 2.381-1.03 1.295-3.41 2.358-5.34 2.358s-2.67-1.04-1.67-2.358M1024.49 166.266c.69-1.318 2.81-2.382 4.77-2.382 1.95 0 2.95 1.064 2.26 2.382s-2.81 2.381-4.74 2.381-2.96-1.063-2.27-2.381zM997.451 186.96c.596-1.226 2.619-2.243 4.509-2.243 1.88 0 2.91.994 2.29 2.243-.62 1.225-2.63 2.219-4.51 2.219-1.884 0-2.909-.994-2.289-2.219M1193.42 189.318c1-1.226 3.32-2.22 5.2-2.22s2.58.994 1.57 2.22c-1 1.225-3.31 2.196-5.19 2.196-1.89 0-2.58-.994-1.6-2.196zM798.07 70.45c.381-2.75 3.576-4.993 7.129-4.993s6.056 2.242 5.627 4.994c-.429 2.728-3.624 4.925-7.129 4.925s-6.033-2.197-5.627-4.925M466.261 158.775c-.477-1.341.739-2.451 2.718-2.451s3.934 1.086 4.411 2.451c.453 1.341-.763 2.427-2.718 2.427s-3.934-1.086-4.387-2.427zM490.533 191.491c-.405-1.225.787-2.196 2.647-2.196s3.696.994 4.101 2.196c.382 1.203-.81 2.197-2.67 2.197s-3.696-.971-4.101-2.197zM310.347 203.537c-.739-1.179.143-2.127 1.979-2.127s3.91.948 4.649 2.127c.739 1.156-.167 2.104-1.979 2.104s-3.91-.948-4.649-2.104M270.265 183.168c-.858-1.249.001-2.266 1.884-2.266s4.125 1.017 4.96 2.266c.834 1.248 0 2.242-1.908 2.242s-4.101-.994-4.936-2.242M213.756 208.948c-.93-1.156-.191-2.081 1.621-2.081s4.03.925 4.936 2.081c.906 1.133.167 2.058-1.621 2.058s-4.006-.925-4.936-2.058M153.455 124.786c-1.192-1.503-.477-2.705 1.598-2.705 2.074 0 4.721 1.225 5.889 2.705s.429 2.682-1.621 2.682c-2.051 0-4.674-1.202-5.866-2.682M145.492 114.543c-1.217-1.549-.501-2.797 1.597-2.797s4.793 1.248 6.009 2.797c1.192 1.526.477 2.775-1.622 2.775-2.098 0-4.768-1.249-5.984-2.775M158.486 208.948c-1.025-1.156-.405-2.081 1.431-2.081s4.125.925 5.15 2.081c1.025 1.133.382 2.058-1.431 2.058-1.812 0-4.101-.925-5.126-2.058z"
      />
    </g>
    <path fill="url(#c)" d="M-3 48h1450v247H-3z" />
  </g>
  <defs>
    <linearGradient
      id="c"
      x1="688.75"
      x2="688.75"
      y1="172"
      y2="48"
      gradientUnits="userSpaceOnUse"
    >
      <stop stop-color="#fafafa" stop-opacity=".8" />
      <stop offset="1" stop-color="#fafafa" stop-opacity="0" />
    </linearGradient>
    <clipPath id="a"><path fill="#fff" d="M0 0h1440v400H0z" /></clipPath>
  </defs>
</svg>
