<svg xmlns="http://www.w3.org/2000/svg" fill="none" viewBox="0 0 187 218">
  <path
    stroke="#605d5d"
    stroke-dasharray="1.01 1.01"
    stroke-width=".51"
    d="M.44 0h49.1v49.1H.44z"
    transform="matrix(.86 -.5 .86 .5 3.52 147.07)"
  />
  <path
    stroke="#605d5d"
    stroke-dasharray="1.01 1.01"
    stroke-width=".51"
    d="M.44 0h49.1v49.1H.44z"
    transform="matrix(.86 -.5 .86 .5 50.9 174.79)"
  />
  <path
    stroke="#605d5d"
    stroke-dasharray="1.01 1.01"
    stroke-width=".51"
    d="M.44 0h49.1v49.1H.44z"
    transform="matrix(.86 -.5 .86 .5 50.9 119.35)"
  />
  <path
    stroke="#605d5d"
    stroke-dasharray="1.01 1.01"
    stroke-width=".51"
    d="M.44 0h49.1v49.1H.44z"
    transform="matrix(.86 -.5 .86 .5 98.27 147.07)"
  />
  <g fill="#fff" filter="url(#a)">
    <path
      d="m2.99 82.62 21.19-12.4 21.18 12.4-21.18 12.4zm23.44 13.71 21.19-12.4 21.19 12.4-21.2 12.4zm0-27.43 21.19-12.4L68.8 68.9 47.6 81.3zm23.44 13.72 21.2-12.4 21.18 12.4-21.19 12.4zm-.33-27.24 21.19-12.4 21.18 12.4-21.18 12.4zM72.98 69.1l21.19-12.4 21.19 12.4-21.2 12.4zm0-27.43 21.19-12.4 21.19 12.4-21.2 12.4zm23.44 13.71 21.2-12.4 21.18 12.4-21.19 12.4zm-46.88 54.47 21.19-12.4 21.18 12.4-21.18 12.4zm23.44 13.72 21.19-12.4 21.19 12.4-21.2 12.4zm0-27.43 21.19-12.4 21.19 12.4-21.2 12.4zm23.44 13.71 21.2-12.4 21.18 12.4-21.19 12.4zm-.33-27.23 21.19-12.4 21.18 12.4-21.18 12.4zm23.44 13.71 21.19-12.4 21.19 12.4-21.2 12.4zm0-27.43 21.19-12.4 21.19 12.4-21.2 12.4zm23.44 13.72 21.2-12.4 21.18 12.4-21.19 12.4z"
    />
  </g>
  <path
    stroke="#dbdbdb"
    stroke-width=".51"
    d="M184.3 55.85v106.3L93.48 215.3 2.63 162.15V55.85L93.47 2.7z"
  />
  <path
    fill="#fafafa"
    stroke="#605d5d"
    stroke-width=".3"
    d="M5.4 54.59v2.83l-2.43 1.42-2.42-1.42V54.6l2.42-1.42zm180.64 0v2.83l-2.42 1.42-2.42-1.42V54.6l2.42-1.42zm-90.32 51.79v2.83l-2.42 1.42-2.42-1.42v-2.83l2.42-1.42zm0-104.79v2.84L93.3 5.85l-2.42-1.42V1.59L93.3.17zM5.39 160.58v2.83l-2.42 1.42-2.42-1.42v-2.83l2.42-1.42zm180.65 0v2.83l-2.42 1.42-2.42-1.42v-2.83l2.42-1.42zm-90.32 52.99v2.84l-2.42 1.41-2.42-1.41v-2.84l2.42-1.42z"
  />
  <path
    stroke="#605d5d"
    stroke-width=".51"
    d="M2.97 159.59V59.02m180.65 100.57V59.02"
  />
  <path
    fill="#005bff"
    d="M47.93 115.84c-.17-.34-.17-.71 0-.83l2.75-1.86c.16-.12.44.07.6.41l2.75 5.6c.17.35.17.72 0 .83-.17.12-.44-.07-.61-.41l-2-4.1v58.45l-.87-.59V114.9l-2 1.37c-.18.11-.45-.07-.62-.42m87.64 4.15c-.17-.11-.17-.48 0-.83l2.75-5.6c.17-.34.44-.53.6-.41l2.75 1.86c.17.12.17.49 0 .83-.17.35-.44.53-.6.42l-2.02-1.37v58.45l-.86.59v-58.45l-2 4.1c-.18.34-.45.53-.62.41"
  />
  <defs>
    <filter
      id="a"
      width="182.36"
      height="110.74"
      x="2.99"
      y="29.27"
      color-interpolation-filters="sRGB"
      filterUnits="userSpaceOnUse"
    >
      <feFlood flood-opacity="0" result="BackgroundImageFix" />
      <feColorMatrix
        in="SourceAlpha"
        result="hardAlpha"
        values="0 0 0 0 0 0 0 0 0 0 0 0 0 0 0 0 0 0 127 0"
      />
      <feOffset dy="4.05" />
      <feComposite in2="hardAlpha" operator="out" />
      <feColorMatrix
        values="0 0 0 0 0.8125 0 0 0 0 0.8125 0 0 0 0 0.8125 0 0 0 0.25 0"
      />
      <feBlend
        in2="BackgroundImageFix"
        result="effect1_dropShadow_2673_11144"
      />
      <feBlend
        in="SourceGraphic"
        in2="effect1_dropShadow_2673_11144"
        result="shape"
      />
    </filter>
  </defs>
</svg>
