<svg xmlns="http://www.w3.org/2000/svg" fill="none" viewBox="0 0 329 346">
  <path
    fill="#fff"
    fill-opacity=".37"
    stroke="url(#a)"
    d="M16.7 87.38 166.53.87V173.4L16.7 264.02z"
  />
  <path
    fill="#eef0f7"
    stroke="url(#c)"
    stroke-opacity=".3"
    stroke-width=".5"
    d="M163.67 175.67 16.7 264.32l146.97 80.8 149.13-87.4z"
  />
  <path
    stroke="url(#d)"
    stroke-opacity=".3"
    d="M277.12 107.89 162.97 171.4v125.55"
  />
  <path
    fill="#f4f4f5"
    fill-opacity=".37"
    stroke="#ccdaff"
    stroke-width=".5"
    d="M312.8 85.37 166.56.5l-1.09 173.75 147.33 83.47z"
  />
  <path
    fill="#a3c4ff"
    stroke="#005bff"
    stroke-width=".5"
    d="m142.27 207.48-45.46-26.7v-25.3l45.46 26.32V75.78l-68.49 39.66v104.9l91.5 52.98 90.44-52.37v-105.5l-45.22-26.2-45.22 26.2v78.7z"
  />
  <path
    stroke="#005bff"
    stroke-width=".5"
    d="m164.9 115.72 45.4 26.22m0 0 45.42-26.22m-45.41 26.22v78.62m-45.42 26.38 45.42-26.21v-.17m-45.42 26.38-91.1-52.59 22.86-13.2m68.24 65.79v26.8m0-79.39 45.42 26.21"
  />
  <path
    fill="#c9d3ee"
    fill-opacity=".37"
    stroke="url(#e)"
    d="M162.97 171.81 312.8 86.48v170.17l-149.83 86.69z"
  />
  <path
    fill="#e4eafb"
    fill-opacity=".37"
    stroke="url(#g)"
    d="M166.56.87 17.43 87.37l146.24 84.73 149.13-86z"
  />
  <defs>
    <linearGradient
      id="a"
      x1="166.53"
      x2="16.74"
      y1="169.76"
      y2="92.32"
      gradientUnits="userSpaceOnUse"
    >
      <stop offset=".5" stop-color="#a3afff" />
      <stop offset="1" stop-color="#005bff" />
    </linearGradient>
    <linearGradient
      id="c"
      x1="164.75"
      x2="51.56"
      y1="179.24"
      y2="264.69"
      gradientUnits="userSpaceOnUse"
    >
      <stop stop-color="#83afff" />
      <stop offset=".98" stop-color="#0042ba" />
    </linearGradient>
    <linearGradient
      id="d"
      x1="162.97"
      x2="277.12"
      y1="202.43"
      y2="202.43"
      gradientUnits="userSpaceOnUse"
    >
      <stop offset=".13" stop-color="#005bff" />
      <stop offset=".9" stop-color="#fff" stop-opacity="0" />
    </linearGradient>
    <linearGradient
      id="e"
      x1="312.8"
      x2="163.88"
      y1="253.06"
      y2="175.01"
      gradientUnits="userSpaceOnUse"
    >
      <stop offset=".5" stop-color="#a3afff" />
      <stop offset="1" stop-color="#005bff" />
    </linearGradient>
    <linearGradient
      id="g"
      x1="164.75"
      x2="164.75"
      y1=".87"
      y2="172.1"
      gradientUnits="userSpaceOnUse"
    >
      <stop offset=".42" stop-color="#a3c4ff" />
      <stop offset="1" stop-color="#005bff" />
    </linearGradient>
  </defs>
</svg>
