<svg xmlns="http://www.w3.org/2000/svg" fill="none" viewBox="0 0 190 218">
  <path
    fill="#f4f4f5"
    stroke="#605d5d"
    stroke-width=".6"
    d="M135.8 136.99v43.15l-36.74-21.33v-42.67zm37.33 21.82-36.73 21.33v-43.15l36.73-20.85zm-.3-43.19-36.73 20.85-36.73-20.85L136.1 94.3zM53.9 136.99v43.15l-36.74-21.33v-42.67zm37.34 21.82L54.5 180.14v-43.15l36.74-20.85zm-.31-43.19L54.2 136.47l-36.73-20.85L54.2 94.3z"
  />
  <path
    fill="#f4f4f5"
    stroke="#605d5d"
    stroke-width=".6"
    d="M94.85 161.08v43.15L58.1 182.9v-42.67zm37.34 21.82-36.74 21.33v-43.15l36.74-20.85zm-.3-43.19-36.74 20.85-36.73-20.85 36.73-21.33z"
  />
  <path
    fill="#fff"
    stroke="#605d5d"
    stroke-width=".6"
    d="M94.85 63.52v43.15L58.1 85.34V42.67zm37.34 21.82-36.74 21.33V63.52l36.74-20.85zm-.3-43.19L95.14 63 58.42 42.15l36.73-21.33z"
  />
  <path
    fill="#fff"
    stroke="#605d5d"
    stroke-width=".6"
    d="M135.8 87.6v43.16l-36.74-21.33V66.76zm37.33 21.83-36.73 21.33V87.6l36.73-20.85zm-.3-43.19L136.1 87.09 99.37 66.24l36.73-21.33zM53.9 87.6v43.16l-36.74-21.33V66.76zm37.34 21.83L54.5 130.76V87.6l36.74-20.85zm-.31-43.19L54.2 87.09 17.47 66.24 54.2 44.91z"
  />
  <path
    fill="#fff"
    stroke="#005bff"
    stroke-width="1.2"
    d="M94.55 111.87v42.45L58.4 133.34V91.36zm37.33 21.47-36.13 20.98v-42.45l36.13-20.5zm-.6-43.02-36.13 20.5-36.13-20.5 36.13-20.97z"
  />
  <path
    stroke="#dbdbdb"
    stroke-width=".6"
    d="M94.42 107.97v107.1L2.7 162.12V56.22zm92.3 54.15-91.7 52.95v-107.1l91.7-51.75zm-.3-106.42-91.7 51.75L3.02 55.7l91.7-52.94z"
  />
  <path
    fill="#fafafa"
    stroke="#605d5d"
    stroke-width=".36"
    d="M5.44 54.6v2.8L3 58.8.58 57.4v-2.8l2.43-1.4zM188.51 54.6v2.8l-2.43 1.4-2.42-1.4v-2.8l2.42-1.4zM96.97 106.4v2.8l-2.42 1.4-2.43-1.4v-2.8l2.43-1.4zM96.97 1.6v2.81l-2.42 1.4-2.43-1.4v-2.8L94.55.2zM5.44 160.6v2.8L3 164.8l-2.43-1.4v-2.8l2.43-1.4zM188.51 160.6v2.8l-2.43 1.4-2.42-1.4v-2.8l2.42-1.4zM96.97 213.59v2.8l-2.42 1.4-2.43-1.4v-2.8l2.43-1.4z"
  />
  <path
    stroke="#605d5d"
    stroke-width=".6"
    d="M3.01 159.59V59.02M186.08 159.59V59.02"
  />
</svg>
