<svg xmlns="http://www.w3.org/2000/svg" fill="none" viewBox="0 0 190 218">
  <g filter="url(#a)">
    <path
      fill="#fff"
      stroke="#605d5d"
      stroke-width=".6"
      d="M.52 0h105.09v105.09H.52z"
      transform="matrix(.87 -.5 .87 .5 3.68 128.99)"
    />
    <path
      stroke="#605d5d"
      stroke-dasharray="1.2 1.2"
      stroke-width=".6"
      d="m19.96 137.54 90.45-52.22"
    />
    <circle
      cx="3.77"
      cy="3.77"
      r="3.77"
      fill="#d9d9d9"
      transform="matrix(.87 -.5 .87 .5 13.42 128.1)"
    />
    <circle
      cx="3.77"
      cy="3.77"
      r="3.77"
      fill="#d9d9d9"
      transform="matrix(.87 -.5 .87 .5 21.05 123.7)"
    />
    <circle
      cx="3.77"
      cy="3.77"
      r="3.77"
      fill="#d9d9d9"
      transform="matrix(.87 -.5 .87 .5 28.68 119.29)"
    />
    <path
      fill="#005bff"
      d="m82.2 147.88-14.85-4.57 1.84-1.06 11.17 3.61.12-.07-6.29-6.43 1.87-1.08 11.08 3.63.12-.07-6.22-6.43 1.84-1.06 7.9 8.57-1.71 1-11.23-3.62-.18.1 6.25 6.49zm16.95-9.78-14.85-4.57 1.84-1.06 11.17 3.6.12-.06-6.29-6.44 1.87-1.07 11.08 3.62.12-.06-6.22-6.44 1.84-1.06 7.9 8.57-1.71 1-11.23-3.61-.18.1 6.25 6.48zm16.94-9.8-14.84-4.56 1.84-1.06 11.17 3.61.12-.07-6.29-6.43 1.87-1.08 11.08 3.63.12-.07-6.22-6.43 1.84-1.06 7.9 8.57-1.71.99-11.23-3.61-.18.1 6.25 6.49z"
    />
  </g>
  <path
    stroke="#dbdbdb"
    stroke-width=".6"
    d="M94.42 107.97v107.1L2.7 162.12V56.22zm92.3 54.15-91.7 52.95v-107.1l91.7-51.75zm-.3-106.42-91.7 51.75L3.02 55.7l91.7-52.94z"
  />
  <path
    stroke="#605d5d"
    stroke-dasharray="1.2 1.2"
    stroke-width=".6"
    d="M.52 0h106.39v106.39H.52z"
    transform="matrix(.87 -.5 .87 .5 2.48 97.22)"
  />
  <path
    stroke="#605d5d"
    stroke-dasharray="1.2 1.2"
    stroke-width=".6"
    d="m81.9 142.12 91.79-53M83.7 51.19l89.53 52.78"
  />
  <g filter="url(#b)">
    <path
      fill="#005bff"
      d="m152.51 91.84 18.53 2.86-7.28 2.43 6.24 3.6-2.1 1.2-6.22-3.6-4.2 4.2z"
    />
  </g>
  <path
    fill="#fafafa"
    stroke="#605d5d"
    stroke-width=".36"
    d="M5.44 54.6v2.8L3 58.8.58 57.4v-2.8l2.43-1.4zM188.51 54.6v2.8l-2.43 1.4-2.42-1.4v-2.8l2.42-1.4zM96.97 106.4v2.8l-2.42 1.4-2.43-1.4v-2.8l2.43-1.4zM96.97 1.6v2.81l-2.42 1.4-2.43-1.4v-2.8L94.55.2zM5.44 160.6v2.8L3 164.8l-2.43-1.4v-2.8l2.43-1.4zM188.51 160.6v2.8l-2.43 1.4-2.42-1.4v-2.8l2.42-1.4zM96.97 213.59v2.8l-2.42 1.4-2.43-1.4v-2.8l2.43-1.4z"
  />
  <path
    stroke="#605d5d"
    stroke-width=".6"
    d="M3.01 159.59V59.02M186.08 159.59V59.02"
  />
  <defs>
    <filter
      id="a"
      width="183.07"
      height="110.51"
      x="3.61"
      y="75.88"
      color-interpolation-filters="sRGB"
      filterUnits="userSpaceOnUse"
    >
      <feFlood flood-opacity="0" result="BackgroundImageFix" />
      <feColorMatrix
        in="SourceAlpha"
        result="hardAlpha"
        values="0 0 0 0 0 0 0 0 0 0 0 0 0 0 0 0 0 0 127 0"
      />
      <feOffset dy="4.82" />
      <feComposite in2="hardAlpha" operator="out" />
      <feColorMatrix
        values="0 0 0 0 0.85098 0 0 0 0 0.85098 0 0 0 0 0.85098 0 0 0 1 0"
      />
      <feBlend in2="BackgroundImageFix" result="effect1_dropShadow_3299_4772" />
      <feBlend
        in="SourceGraphic"
        in2="effect1_dropShadow_3299_4772"
        result="shape"
      />
    </filter>
    <filter
      id="b"
      width="18.52"
      height="13.1"
      x="152.51"
      y="91.84"
      color-interpolation-filters="sRGB"
      filterUnits="userSpaceOnUse"
    >
      <feFlood flood-opacity="0" result="BackgroundImageFix" />
      <feColorMatrix
        in="SourceAlpha"
        result="hardAlpha"
        values="0 0 0 0 0 0 0 0 0 0 0 0 0 0 0 0 0 0 127 0"
      />
      <feOffset dy="2.41" />
      <feComposite in2="hardAlpha" operator="out" />
      <feColorMatrix
        values="0 0 0 0 0.857372 0 0 0 0 0.857372 0 0 0 0 0.857372 0 0 0 1 0"
      />
      <feBlend in2="BackgroundImageFix" result="effect1_dropShadow_3299_4772" />
      <feBlend
        in="SourceGraphic"
        in2="effect1_dropShadow_3299_4772"
        result="shape"
      />
    </filter>
  </defs>
</svg>
