<svg xmlns="http://www.w3.org/2000/svg" fill="none" viewBox="0 0 190 218">
  <path
    stroke="#605d5d"
    stroke-dasharray="1.2 1.2"
    stroke-width=".6"
    d="M94.55 3.61V107.2m0 0L3 161.4m91.54-54.2 92.74 54.2"
  />
  <g filter="url(#a)">
    <path
      fill="#fff"
      d="M52.22 60c-5.33-22.13-16.96 68.82-22.1 117.06l90.92-51.34-2.97-10.1C101.43 70.2 99.05 85.33 81.94 136.5S58.88 87.67 52.22 60"
    />
    <path
      stroke="#605d5d"
      stroke-width=".6"
      d="M52.22 60c-5.33-22.13-16.96 68.82-22.1 117.06l90.92-51.34-2.97-10.1C101.43 70.2 99.05 85.33 81.94 136.5S58.88 87.67 52.22 60Z"
    />
  </g>
  <g filter="url(#b)">
    <path
      fill="#fafafa"
      d="M85.72 180.62c-14.13 17.42-20.48-25.75-21.89-49.5v66.77l91.54-52.85V105.3c-1.66 10.86-7.26 33.14-16.42 35.34-11.44 2.74-9.45-74.45-17.4-80.66-16.88-13.17-18.17 98.88-35.83 120.65"
    />
    <path
      stroke="#005bff"
      stroke-width="1.2"
      d="M85.72 180.62c-14.13 17.42-20.48-25.75-21.89-49.5v66.77l91.54-52.85V105.3c-1.66 10.86-7.26 33.14-16.42 35.34-11.44 2.74-9.45-74.45-17.4-80.66-16.88-13.17-18.17 98.88-35.83 120.65Z"
    />
  </g>
  <path
    stroke="#dbdbdb"
    stroke-width=".6"
    d="M94.42 107.97v107.1L2.7 162.12V56.22zm92.3 54.15-91.7 52.95v-107.1l91.7-51.75zm-.3-106.42-91.7 51.75L3.02 55.7l91.7-52.94z"
  />
  <path
    fill="#fafafa"
    stroke="#605d5d"
    stroke-width=".36"
    d="M5.44 54.6v2.8L3 58.8.58 57.4v-2.8l2.43-1.4zM188.51 54.6v2.8l-2.43 1.4-2.42-1.4v-2.8l2.42-1.4zM96.97 106.4v2.8l-2.42 1.4-2.43-1.4v-2.8l2.43-1.4zM96.97 1.6v2.81l-2.42 1.4-2.43-1.4v-2.8L94.55.2zM5.44 160.6v2.8L3 164.8l-2.43-1.4v-2.8l2.43-1.4zM188.51 160.6v2.8l-2.43 1.4-2.42-1.4v-2.8l2.42-1.4zM96.97 213.59v2.8l-2.42 1.4-2.43-1.4v-2.8l2.43-1.4z"
  />
  <path
    stroke="#605d5d"
    stroke-width=".6"
    d="M3.01 159.59V59.02M186.08 159.59V59.02"
  />
  <defs>
    <filter
      id="a"
      width="93.99"
      height="121.27"
      x="27.4"
      y="56.26"
      color-interpolation-filters="sRGB"
      filterUnits="userSpaceOnUse"
    >
      <feFlood flood-opacity="0" result="BackgroundImageFix" />
      <feColorMatrix
        in="SourceAlpha"
        result="hardAlpha"
        values="0 0 0 0 0 0 0 0 0 0 0 0 0 0 0 0 0 0 127 0"
      />
      <feOffset dx="-2.41" />
      <feComposite in2="hardAlpha" operator="out" />
      <feColorMatrix
        values="0 0 0 0 0.857372 0 0 0 0 0.857372 0 0 0 0 0.857372 0 0 0 1 0"
      />
      <feBlend in2="BackgroundImageFix" result="effect1_dropShadow_3299_4757" />
      <feBlend
        in="SourceGraphic"
        in2="effect1_dropShadow_3299_4757"
        result="shape"
      />
    </filter>
    <filter
      id="b"
      width="94.99"
      height="140.58"
      x="60.9"
      y="58.22"
      color-interpolation-filters="sRGB"
      filterUnits="userSpaceOnUse"
    >
      <feFlood flood-opacity="0" result="BackgroundImageFix" />
      <feColorMatrix
        in="SourceAlpha"
        result="hardAlpha"
        values="0 0 0 0 0 0 0 0 0 0 0 0 0 0 0 0 0 0 127 0"
      />
      <feOffset dx="-2.41" />
      <feComposite in2="hardAlpha" operator="out" />
      <feColorMatrix
        values="0 0 0 0 0.857372 0 0 0 0 0.857372 0 0 0 0 0.857372 0 0 0 1 0"
      />
      <feBlend in2="BackgroundImageFix" result="effect1_dropShadow_3299_4757" />
      <feBlend
        in="SourceGraphic"
        in2="effect1_dropShadow_3299_4757"
        result="shape"
      />
    </filter>
  </defs>
</svg>
