<svg xmlns="http://www.w3.org/2000/svg" fill="none" viewBox="0 0 190 218">
  <g filter="url(#a)">
    <path
      fill="#fff"
      d="M2.4 128.04 94.46 74.9l92.03 53.14-66.53 14.72-25.5 38.42z"
    />
    <path
      stroke="#605d5d"
      stroke-width=".6"
      d="m94.45 75.2 91.37 52.76-66 14.6-.15.04-.06.09-25.3 38.1-91.38-52.75z"
    />
  </g>
  <path
    stroke="#605d5d"
    stroke-dasharray="1.2 1.2"
    stroke-width=".6"
    d="M.52 0h106.39v106.39H.52z"
    transform="matrix(.87 -.5 .87 .5 2.48 97.12)"
  />
  <path
    stroke="#605d5d"
    stroke-dasharray="1.2 1.2"
    stroke-width=".6"
    d="m48.18 121.87 91.79-53M53 69.15l89.51 52.79"
  />
  <g filter="url(#b)">
    <path
      fill="#f4f4f5"
      d="m76.5 110.13-7.3-4.21 18.77-10.84-19.81-11.45 8.34-4.81 19.82 11.44 19.3-11.14 7.3 4.21-19.3 11.14L125 106.82l-8.34 4.82-21.38-12.35z"
    />
    <path
      stroke="#005bff"
      stroke-width="1.2"
      d="m76.5 110.13-7.3-4.21 18.77-10.84-19.81-11.45 8.34-4.81 19.82 11.44 19.3-11.14 7.3 4.21-19.3 11.14L125 106.82l-8.34 4.82-21.38-12.35z"
    />
  </g>
  <path
    stroke="#dbdbdb"
    stroke-width=".6"
    d="M94.42 107.97v107.1L2.7 162.12V56.22zm92.3 54.15-91.7 52.95v-107.1l91.7-51.75zm-.3-106.42-91.7 51.75L3.02 55.7l91.7-52.94z"
  />
  <path
    fill="#fafafa"
    stroke="#605d5d"
    stroke-width=".36"
    d="M5.44 54.6v2.8L3 58.8.58 57.4v-2.8l2.43-1.4zM188.51 54.6v2.8l-2.43 1.4-2.42-1.4v-2.8l2.42-1.4zM96.97 106.4v2.8l-2.42 1.4-2.43-1.4v-2.8l2.43-1.4zM96.97 1.6v2.81l-2.42 1.4-2.43-1.4v-2.8L94.55.2zM5.44 160.6v2.8L3 164.8l-2.43-1.4v-2.8l2.43-1.4zM188.51 160.6v2.8l-2.43 1.4-2.42-1.4v-2.8l2.42-1.4zM96.97 213.59v2.8l-2.42 1.4-2.43-1.4v-2.8l2.43-1.4z"
  />
  <path
    stroke="#605d5d"
    stroke-width=".6"
    d="M3.01 159.59V59.02M186.08 159.59V59.02"
  />
  <defs>
    <filter
      id="a"
      width="184.07"
      height="111.09"
      x="2.41"
      y="74.9"
      color-interpolation-filters="sRGB"
      filterUnits="userSpaceOnUse"
    >
      <feFlood flood-opacity="0" result="BackgroundImageFix" />
      <feColorMatrix
        in="SourceAlpha"
        result="hardAlpha"
        values="0 0 0 0 0 0 0 0 0 0 0 0 0 0 0 0 0 0 127 0"
      />
      <feOffset dy="4.82" />
      <feComposite in2="hardAlpha" operator="out" />
      <feColorMatrix
        values="0 0 0 0 0.85098 0 0 0 0 0.85098 0 0 0 0 0.85098 0 0 0 1 0"
      />
      <feBlend in2="BackgroundImageFix" result="effect1_dropShadow_3299_4810" />
      <feBlend
        in="SourceGraphic"
        in2="effect1_dropShadow_3299_4810"
        result="shape"
      />
    </filter>
    <filter
      id="b"
      width="58.93"
      height="36.43"
      x="67.11"
      y="78.21"
      color-interpolation-filters="sRGB"
      filterUnits="userSpaceOnUse"
    >
      <feFlood flood-opacity="0" result="BackgroundImageFix" />
      <feColorMatrix
        in="SourceAlpha"
        result="hardAlpha"
        values="0 0 0 0 0 0 0 0 0 0 0 0 0 0 0 0 0 0 127 0"
      />
      <feOffset dy="2.41" />
      <feComposite in2="hardAlpha" operator="out" />
      <feColorMatrix
        values="0 0 0 0 0.857372 0 0 0 0 0.857372 0 0 0 0 0.857372 0 0 0 1 0"
      />
      <feBlend in2="BackgroundImageFix" result="effect1_dropShadow_3299_4810" />
      <feBlend
        in="SourceGraphic"
        in2="effect1_dropShadow_3299_4810"
        result="shape"
      />
    </filter>
  </defs>
</svg>
