<svg xmlns="http://www.w3.org/2000/svg" fill="none" viewBox="0 0 81 46">
  <path
    stroke="#8d8d8d"
    stroke-width=".5"
    d="m57.19 19.08-4.65 5.24-5.02 3.01v.01h-.02l-5.12 3.75-7.03 2.85-7.26-4.88 12.6-6.26.05-.02.03-.04 8.26-9.14z"
  />
  <path
    stroke="#8d8d8d"
    stroke-width=".5"
    d="M30.26 15.75a35 35 0 0 1 9-4.44c2.69-.8 4.86-.87 6.2-.1l.13.07.05.04.4.27-.01.02.24.14.13.08c.94.63 1 1.83-.18 3.56-1.18 1.7-3.52 3.84-7.13 6.25-3.6 2.4-6.83 3.97-9.4 4.76q-1.94.6-3.3.6a3.6 3.6 0 0 1-2.18-.55l-.2-.16-.02.01-.47-.3c-1.27-.9-1.2-2.4.06-4.25 1.25-1.84 3.6-3.95 6.68-6Z"
  />
  <path
    fill="#fafafa"
    stroke="#8d8d8d"
    stroke-width=".5"
    d="M25.17 27.1c1.32.12 3-.17 4.92-.8a39 39 0 0 0 8.98-4.63c3.34-2.23 5.65-4.28 6.94-6 .97-1.27 1.4-2.4 1.22-3.28l3.55 2.38.04.03q.72.47.7 1.37t-.89 2.2c-1.17 1.72-3.52 3.87-7.13 6.28-3.6 2.4-6.82 3.96-9.4 4.74q-1.93.59-3.3.6a3.6 3.6 0 0 1-2.04-.48z"
  />
  <path
    fill="#fafaff"
    stroke="#8d8d8d"
    stroke-width=".5"
    d="m57.28 19.13.06.06c1.03.79 1.14 2.12.05 3.9s-3.34 3.92-6.87 6.27a34 34 0 0 1-9.4 4.57c-2.66.73-4.65.65-5.83-.04l-.08-.05-2.98-2c1.22.17 2.76 0 4.5-.48 2.72-.77 6.04-2.34 9.68-4.76 3.63-2.43 6-4.64 7.14-6.46.74-1.16 1-2.19.74-3.01z"
  />
  <path
    fill="#fafafa"
    stroke="#8d8d8d"
    stroke-width=".5"
    d="m57.28 19.13.06.06c1.03.79 1.14 2.12.05 3.9s-3.34 3.92-6.87 6.27a34 34 0 0 1-9.4 4.57c-2.66.73-4.65.65-5.83-.04l-.08-.05-2.98-2c1.22.17 2.76 0 4.5-.48 2.72-.77 6.04-2.34 9.68-4.76 3.63-2.43 6-4.64 7.14-6.46.74-1.16 1-2.19.74-3.01z"
  />
  <path
    stroke="#8d8d8d"
    stroke-width=".5"
    d="M30 27.97c.03-.1.15-.23.42-.3q.42-.14.96-.07c.34.04.66.14.87.28q.29.22.23.39-.03.16-.42.3c-.27.1-.62.11-.96.07a2 2 0 0 1-.87-.28q-.29-.22-.23-.39ZM36.93 32.63q.03-.17.42-.31c.27-.08.62-.1.96-.06q.54.06.87.28.3.22.24.39-.03.16-.42.3c-.27.09-.62.11-.96.07a2 2 0 0 1-.87-.28c-.21-.14-.26-.28-.24-.39Z"
  />
</svg>
