<svg xmlns="http://www.w3.org/2000/svg" fill="none" viewBox="0 0 81 46">
  <g clip-path="url(#a)">
    <path fill="url(#b)" d="M40.5 46 0 23 40.5 0 81 23z" />
    <path
      fill="url(#c)"
      d="M36.06 26.22c.67-1.57 1-2.35 1.7-3.03.6-.6 1.38-1.14 2.24-1.55.97-.46 2.08-.67 4.28-1.09l3.38-.64c4.05-.76 6.07-1.14 7.38-.87q1.74.36 2.2 1.64c.3.95-.3 2.39-1.54 5.26L54.39 29c-.56 1.3-.84 1.96-1.41 2.53-.5.5-1.16.95-1.88 1.29-.8.39-1.73.56-3.57.9l-7.58 1.44c-2.94.55-4.41.83-5.36.63q-1.28-.27-1.6-1.2c-.23-.68.22-1.73 1.12-3.82z"
    />
    <path
      fill="#ebecf7"
      d="M28.13 17.62c.67-1.57 1-2.36 1.7-3.04.6-.6 1.39-1.14 2.24-1.54.98-.47 2.08-.68 4.29-1.1l5.07-.95c1.53-.29 2.53-.48 3.24-.52a5 5 0 0 1 1.44.05c1.31.25 2.72 1.3 5.53 3.41l2.6 1.94c1.52 1.15 2.3 1.73 2.75 2.47.4.66.63 1.4.67 2.13.04.82-.3 1.6-.97 3.17l-1.48 3.45c-1.23 2.87-1.85 4.31-2.87 5-.9.6-2 .81-3.15.6-1.32-.25-2.73-1.3-5.54-3.42l-3.38-2.53a5 5 0 0 0-3.43-.68l-4.08.77-.94.18c-2.94.55-4.41.83-5.36.64-.84-.17-1.4-.6-1.6-1.2-.23-.69.22-1.73 1.12-3.82z"
    />
    <path
      fill="url(#d)"
      d="M44.01 17.22c-.29-.32-.35-.8-.14-1.07.22-.28.63-.25.92.07l8.1 8.78c.29.31.35.8.14 1.07-.21.28-.62.25-.92-.07z"
    />
    <path
      fill="url(#e)"
      d="M46.8 16.7c-.14-.42.03-.8.37-.87l3.25-.62c.26-.05.55.11.72.38q.09.11.13.26l1.27 4c.13.42-.03.81-.37.87-.34.07-.72-.22-.85-.63l-1.03-3.26-2.65.5c-.33.06-.71-.22-.84-.64"
    />
    <path
      fill="url(#f)"
      d="M44.44 22.19c-.13-.42.03-.8.37-.87s.72.22.85.63l1.03 3.26 2.64-.5c.34-.06.72.22.85.64.13.41-.03.8-.37.86l-3.25.62c-.34.06-.72-.22-.85-.64z"
    />
  </g>
  <defs>
    <linearGradient
      id="b"
      x1="40.5"
      x2="40.5"
      y1="0"
      y2="46"
      gradientUnits="userSpaceOnUse"
    >
      <stop offset=".58" stop-color="#363636" />
      <stop offset="1" stop-color="#565656" />
    </linearGradient>
    <linearGradient
      id="c"
      x1="55.06"
      x2="45.54"
      y1="27.31"
      y2="40.32"
      gradientUnits="userSpaceOnUse"
    >
      <stop stop-color="#7a9bff" />
      <stop offset="1" stop-color="#7a9bff" stop-opacity=".2" />
    </linearGradient>
    <linearGradient
      id="d"
      x1="41.59"
      x2="51.68"
      y1="23.99"
      y2="28.58"
      gradientUnits="userSpaceOnUse"
    >
      <stop />
      <stop offset="1" stop-color="#666" />
    </linearGradient>
    <linearGradient
      id="e"
      x1="41.59"
      x2="51.68"
      y1="23.99"
      y2="28.58"
      gradientUnits="userSpaceOnUse"
    >
      <stop />
      <stop offset="1" stop-color="#666" />
    </linearGradient>
    <linearGradient
      id="f"
      x1="41.59"
      x2="51.68"
      y1="23.99"
      y2="28.58"
      gradientUnits="userSpaceOnUse"
    >
      <stop />
      <stop offset="1" stop-color="#666" />
    </linearGradient>
    <clipPath id="a"><path fill="#fff" d="M0 0h81v46H0z" /></clipPath>
  </defs>
</svg>
