<svg xmlns="http://www.w3.org/2000/svg" fill="none" viewBox="0 0 81 46">
  <path
    stroke="#8d8d8d"
    stroke-width=".5"
    d="M37.73 23a9 9 0 0 1 2.26-1.5c.96-.45 2.07-.67 4.4-1.12l3.53-.68c2.13-.41 3.7-.72 4.92-.89a9 9 0 0 1 2.66-.1c1.11.2 1.85.69 2.13 1.43.16.41.1.96-.16 1.78-.26.81-.73 1.87-1.35 3.29l-1.31 3c-.57 1.3-.84 1.91-1.4 2.45-.5.47-1.15.91-1.87 1.24-.8.37-1.7.55-3.65.93l-7.94 1.53c-1.55.3-2.69.52-3.57.65a6 6 0 0 1-1.9.07q-1.19-.2-1.49-1c-.11-.29-.07-.68.12-1.27s.52-1.35.98-2.39l1.96-4.48c.68-1.55 1-2.3 1.68-2.94Z"
  />
  <path
    fill="#fafafa"
    stroke="#8d8d8d"
    stroke-width=".5"
    d="M29.23 14.73a9 9 0 0 1 2.26-1.5c.96-.46 2.06-.67 4.4-1.12l5.31-1.03c1.61-.31 2.63-.5 3.34-.56h.03q.66-.1 1.39.02c.62.1 1.3.38 2.2.9.92.53 2.04 1.28 3.54 2.29l2.76 1.85c1.65 1.1 2.42 1.63 2.89 2.31q.55.81.69 1.73l.03.26c.05.76-.26 1.5-.95 3.06l-1.49 3.4c-.62 1.42-1.08 2.48-1.52 3.26a4 4 0 0 1-1.32 1.6c-.86.56-1.92.76-3.03.58a7 7 0 0 1-2.22-.9c-.9-.52-2.02-1.27-3.53-2.28l-3.6-2.42a6.13 6.13 0 0 0-3.9-.65l-4.11.8-.17.03-.98.19c-1.55.3-2.7.52-3.58.64a6 6 0 0 1-1.9.08c-.77-.14-1.29-.48-1.48-1-.11-.3-.08-.68.11-1.27.2-.6.53-1.36.98-2.4l2.17-4.93c.68-1.56 1-2.3 1.68-2.94Z"
  />
  <path
    fill="#8d8d8d"
    d="M44.59 16.04a.3.3 0 0 1 .42.02l7.63 8.26a.3.3 0 0 1-.44.4l-7.63-8.26a.3.3 0 0 1 .02-.42m.68 5a.3.3 0 0 1 .59-.08l.03.12.08.32.9 3.32 2.7-.72a.3.3 0 0 1 .15.58l-2.8.75a.5.5 0 0 1-.6-.35zm2.04-4.56a.3.3 0 0 1 .24-.36l2.8-.53h.1q.28 0 .43.24l.04.08 1.37 3.79a.3.3 0 1 1-.56.2l-1.35-3.7-2.72.51a.3.3 0 0 1-.35-.23"
  />
</svg>
