<svg xmlns="http://www.w3.org/2000/svg" fill="none" viewBox="0 0 81 46">
  <g clip-path="url(#a)">
    <path fill="url(#b)" d="M40.5 46 0 23 40.5 0 81 23z" />
    <path
      fill="url(#c)"
      fill-rule="evenodd"
      d="M40.33 28.28a17 17 0 0 0-5.89.95q-.6.21-1.16.45l-.3.13c-.82.33-1.67.65-2.58.64-1.5 0-2.32-1.08-2.83-1.93l-.26-.46-.2-.37c-.37-.76-.66-1.64-.1-2.32.37-.43.91-.77 1.45-1.1l.36-.22q.35-.21.66-.46c-1.26-4.72.82-8.3 3.44-10.71a18 18 0 0 1 4.04-2.76l.53-.26c.83-.4 1.82-.8 2.8-.8h.02c1 0 1.99.41 2.82.82l.53.26c1.24.63 2.7 1.55 4.04 2.78 2.63 2.42 4.72 6.02 3.47 10.74q.3.25.66.46l.36.22c.54.34 1.08.67 1.45 1.11.56.68.28 1.57-.1 2.32l-.19.37-.26.46c-.5.85-1.32 1.91-2.83 1.91-.9 0-1.75-.32-2.57-.66l-.3-.12q-.57-.25-1.17-.46a17 17 0 0 0-5.89-.99m-.06-11.31h.1c.9 0 1.75.24 2.39.66.63.42 1 1 1 1.6s-.35 1.17-.98 1.6a4.3 4.3 0 0 1-2.54.65c-.9 0-1.75-.25-2.38-.67s-.98-1-.98-1.6.36-1.18 1-1.6c.63-.41 1.49-.65 2.39-.64m1.42 19.5c1-1.57 2.2-3.65 2.2-4.41 0-1.3-1.55-2.34-3.48-2.34-1.92-.01-3.48 1.03-3.47 2.31 0 .77 1.22 2.85 2.22 4.43.48.77 2.05.77 2.53.01"
      clip-rule="evenodd"
    />
    <path
      fill="url(#d)"
      d="M38.63 21.23c1.62.63 3.68.26 4.61-.81.94-1.08.38-2.47-1.24-3.1-1.61-.62-3.68-.26-4.6.82-.94 1.08-.38 2.46 1.23 3.09"
    />
  </g>
  <defs>
    <linearGradient
      id="b"
      x1="40.48"
      x2="40.48"
      y1="0"
      y2="46"
      gradientUnits="userSpaceOnUse"
    >
      <stop stop-color="#c2beff" />
      <stop offset="1" stop-color="#515aff" />
    </linearGradient>
    <linearGradient
      id="c"
      x1="40.31"
      x2="40.24"
      y1="9.07"
      y2="30.48"
      gradientUnits="userSpaceOnUse"
    >
      <stop stop-color="#fff" />
      <stop offset="1" stop-color="#fff" stop-opacity=".8" />
    </linearGradient>
    <linearGradient
      id="d"
      x1="37.39"
      x2="41.87"
      y1="18.14"
      y2="22.01"
      gradientUnits="userSpaceOnUse"
    >
      <stop stop-color="#2d3351" />
      <stop offset="1" stop-color="#808bc5" />
    </linearGradient>
    <clipPath id="a"><path fill="#fff" d="M0 0h81v46H0z" /></clipPath>
  </defs>
</svg>
