<svg xmlns="http://www.w3.org/2000/svg" fill="none" viewBox="0 0 81 46">
  <path
    fill="#fafafa"
    stroke="#8d8d8d"
    stroke-width=".56"
    d="M40.9 13.34a12.4 12.4 0 0 1 7.14-1.66c5.35.27 9.54 3.4 9.36 6.98-.1 1.88-1.38 3.51-3.36 4.6l-14.36 8.59c-.42.25-1.07.21-1.46-.08l-1.5-1.12c-.39-.29-.37-.72.05-.97l8.33-4.98.42-.25-.55-.13a12 12 0 0 1-3.19-1.18l-.22-.12-9.89 5.91c-.41.25-1.06.22-1.45-.07l-1.16-.87c-.4-.29-.37-.72.05-.97L39.16 21l-.1-.15a5 5 0 0 1-.97-2.13L38 18.3l-.47.28-6.24 3.73c-.41.25-1.06.21-1.45-.07l-1-.74c-.38-.3-.36-.73.06-.98z"
  />
  <path
    fill="url(#a)"
    stroke="#8d8d8d"
    stroke-width=".56"
    d="m30.06 33.7 2.45-1.47a1.4 1.4 0 0 1 1.45.07l1.5 1.12c.4.3.37.73-.05.98l-2.44 1.46c-.42.25-1.07.21-1.46-.07l-1.5-1.13-.07-.05c-.3-.27-.27-.63.05-.87z"
  />
  <defs>
    <linearGradient
      id="a"
      x1="56.31"
      x2="43.2"
      y1="13.62"
      y2="38.7"
      gradientUnits="userSpaceOnUse"
    >
      <stop stop-color="#fff" />
      <stop offset=".44" stop-color="#fff" />
      <stop offset="1" stop-color="#fff" stop-opacity=".2" />
    </linearGradient>
  </defs>
</svg>
