<svg xmlns="http://www.w3.org/2000/svg" fill="none" viewBox="0 0 81 46">
  <g clip-path="url(#a)">
    <path fill="url(#b)" d="M40.5 46 0 23 40.5 0 81 23z" />
    <path
      fill="url(#c)"
      d="m22.02 26 4.27 2.47 14.07-6.1 9.34-8.83-3.05-1.76 12.26 7.08-5.28 5.1-5.53 2.88-5.66 3.57-7.92 2.81z"
    />
    <path
      fill="url(#d)"
      d="m47 11.98-.67-.39-.06-.03c-3.14-1.73-10.4.42-17.15 4.32-6.76 3.9-10.5 8.07-7.49 9.9l.73.42.15.09c2.33 1.35 8.14-.36 16.08-4.94s10.9-7.94 8.56-9.28z"
    />
    <path
      fill="#fafaff"
      d="M22.5 26.29 27.22 29l.03.02.02.01c2.33 1.34 8.6-.1 16.53-4.68s10.44-8.2 8.1-9.54l-.04-.03-4.7-2.72c1.47 1.6-1.27 5.07-8.56 9.29-7.3 4.2-13.32 5.79-16.08 4.94"
    />
    <path
      fill="#fafaff"
      d="m29.56 30.36 4.73 2.73c2.81 1.4 9.27.1 17.04-4.38 7.77-4.49 10.04-8.22 7.59-9.84l-4.72-2.73c2.53 1.46.2 5.17-7.74 9.75-7.93 4.59-14.37 5.93-16.9 4.47"
    />
    <path
      fill="#fafaff"
      d="M22.5 26.29 27.22 29l.03.02.02.01c2.33 1.34 8.6-.1 16.53-4.68s10.44-8.2 8.1-9.54l-.04-.03-4.7-2.72c1.47 1.6-1.27 5.07-8.56 9.29-7.3 4.2-13.32 5.79-16.08 4.94"
    />
    <path
      fill="#fafaff"
      d="m29.56 30.36 4.73 2.73c2.81 1.4 9.27.1 17.04-4.38 7.77-4.49 10.04-8.22 7.59-9.84l-4.72-2.73c2.53 1.46.2 5.17-7.74 9.75-7.93 4.59-14.37 5.93-16.9 4.47"
    />
    <path
      fill="url(#e)"
      d="M45.55 31.58q2.72-1.12 5.78-2.87c7.77-4.49 10.04-8.22 7.6-9.84l-4.73-2.73c2.53 1.46.2 5.17-7.73 9.75a52 52 0 0 1-5.76 2.9z"
    />
    <path
      fill="url(#f)"
      d="M38.07 27.26q2.67-1.16 5.72-2.9c7.94-4.59 10.44-8.2 8.1-9.55l-.04-.03-4.7-2.72c1.47 1.6-1.27 5.07-8.56 9.29a55 55 0 0 1-5.73 2.9z"
    />
    <path
      fill="url(#g)"
      d="M28.88 27.94c-.56-.32-.43-.75.3-.95.74-.2 1.79-.1 2.35.23.56.32.42.75-.3.95-.74.2-1.79.1-2.35-.23"
    />
    <path
      fill="url(#h)"
      d="M36.33 32.24c-.56-.32-.42-.75.3-.95.74-.2 1.79-.1 2.35.23.56.32.43.75-.3.95-.74.2-1.79.1-2.35-.23"
    />
  </g>
  <defs>
    <linearGradient
      id="b"
      x1="81"
      x2="41.49"
      y1="0"
      y2="69.56"
      gradientUnits="userSpaceOnUse"
    >
      <stop stop-color="#70ccbb" />
      <stop offset="1" stop-color="#1ebb9e" />
    </linearGradient>
    <linearGradient
      id="c"
      x1="34.34"
      x2="41.35"
      y1="18.89"
      y2="31.04"
      gradientUnits="userSpaceOnUse"
    >
      <stop stop-color="#82deab" />
      <stop offset="1" stop-color="#82deab" stop-opacity=".5" />
    </linearGradient>
    <linearGradient
      id="d"
      x1="29.12"
      x2="33.85"
      y1="15.88"
      y2="24.08"
      gradientUnits="userSpaceOnUse"
    >
      <stop stop-color="#b7e0cd" />
      <stop offset="1" stop-color="#7fe2ab" />
    </linearGradient>
    <linearGradient
      id="e"
      x1="54.55"
      x2="46.55"
      y1="16.34"
      y2="31.67"
      gradientUnits="userSpaceOnUse"
    >
      <stop stop-color="#d6eaf0" />
      <stop offset="1" stop-color="#d6eaf0" stop-opacity="0" />
    </linearGradient>
    <linearGradient
      id="f"
      x1="54.55"
      x2="46.55"
      y1="16.34"
      y2="31.67"
      gradientUnits="userSpaceOnUse"
    >
      <stop stop-color="#d6eaf0" />
      <stop offset="1" stop-color="#d6eaf0" stop-opacity="0" />
    </linearGradient>
    <linearGradient
      id="g"
      x1="29.19"
      x2="29.63"
      y1="26.99"
      y2="28.6"
      gradientUnits="userSpaceOnUse"
    >
      <stop stop-color="#40714c" />
      <stop offset="1" stop-color="#65c1b0" />
    </linearGradient>
    <linearGradient
      id="h"
      x1="36.64"
      x2="37.08"
      y1="31.29"
      y2="32.91"
      gradientUnits="userSpaceOnUse"
    >
      <stop stop-color="#40714c" />
      <stop offset="1" stop-color="#65c1b0" />
    </linearGradient>
    <clipPath id="a"><path fill="#fff" d="M0 0h81v46H0z" /></clipPath>
  </defs>
</svg>
