<svg xmlns="http://www.w3.org/2000/svg" fill="none" viewBox="0 0 81 46">
  <path
    fill="#fafafa"
    stroke="#8d8d8d"
    stroke-width=".5"
    d="M33.18 13c1.3-1.21 2.75-2.11 3.97-2.72l.53-.26a6 6 0 0 1 2.63-.76h.02c.88 0 1.8.37 2.64.77l.53.27c1.22.61 2.67 1.52 3.98 2.74 2.6 2.38 4.65 5.93 3.42 10.58l-.02.1.08.06q.33.27.69.49l.35.22a6 6 0 0 1 1.4 1.06q.35.45.27 1.02a3 3 0 0 1-.26.86l-.13.28-.19.36-.26.46a5 5 0 0 1-.99 1.22c-.42.34-.92.57-1.56.57-.7 0-1.4-.22-2.1-.5l-.31-.13-.3-.13q-.45-.2-.89-.36l-.3-.1c-1.66-.6-3.54-.96-5.53-1.01h-.6a18 18 0 0 0-7.11 1.43l-.3.12c-.82.34-1.6.62-2.42.62a2.4 2.4 0 0 1-1.56-.58c-.43-.35-.74-.8-1-1.23l-.26-.46-.19-.36a4 4 0 0 1-.39-1.14q-.07-.58.27-1.02c.34-.4.84-.72 1.4-1.05l.34-.22q.37-.22.7-.48l.08-.07-.03-.1c-1.24-4.65.81-8.19 3.4-10.56Zm4.07 19.03c0-1.17 1.42-2.12 3.18-2.12s3.2.97 3.2 2.14q0 .26-.2.74-.2.49-.52 1.1c-.43.8-.98 1.72-1.47 2.5-.38.6-1.61.6-2 0a40 40 0 0 1-1.47-2.51q-.33-.61-.53-1.1-.19-.5-.2-.75Zm.44-14.56c-.7.46-1.08 1.08-1.09 1.73 0 .66.38 1.28 1.07 1.75.68.46 1.61.72 2.59.73h.16c.97 0 1.9-.26 2.59-.72s1.07-1.08 1.06-1.73c0-.66-.4-1.28-1.09-1.74a4.7 4.7 0 0 0-2.41-.72h-.28c-.98 0-1.91.25-2.6.7Z"
  />
</svg>
