<svg xmlns="http://www.w3.org/2000/svg" fill="none" viewBox="0 0 81 46">
  <path
    fill="#fafafa"
    stroke="#8d8d8d"
    stroke-width=".5"
    d="m33.74 29.43 19.42-11.89c.97-.6 2.5-.53 3.41.14l3.73 2.72c.92.67.87 1.69-.1 2.28L40.79 34.57c-.96.6-2.5.53-3.4-.14l-3.74-2.72c-.91-.66-.87-1.69.1-2.28Z"
  />
  <path
    fill="#fafafa"
    stroke="#8d8d8d"
    stroke-width=".5"
    d="m43.3 27.15 5.62-3.44c.5-.31 1.3-.28 1.77.07.48.35.46.88-.05 1.18l-5.62 3.44c-.5.31-1.3.28-1.77-.07-.47-.34-.45-.87.05-1.18ZM25.68 18.79l12.89-7.89a4 4 0 0 1 1.34-.5q.76-.14 1.59-.05l3.07.36-.19.1-19.42 11.9-.1.06-.25-2.08q-.08-.55.21-1.05.24-.43.72-.76z"
  />
  <path
    fill="#fafafa"
    stroke="#8d8d8d"
    stroke-width=".5"
    d="m24.67 22.82 19.42-11.9c.97-.58 2.5-.52 3.42.15l3.72 2.71c.92.67.88 1.7-.09 2.29L31.72 27.96c-.97.59-2.5.53-3.42-.14l-3.72-2.72c-.92-.67-.88-1.7.09-2.28Z"
  />
  <path
    fill="#fafafa"
    stroke="#8d8d8d"
    stroke-width=".5"
    d="m34.23 20.53 5.62-3.44c.5-.3 1.3-.27 1.77.08.48.34.46.87-.04 1.18l-5.62 3.44c-.5.3-1.3.28-1.77-.07-.48-.35-.46-.88.04-1.19Z"
  />
</svg>
