<svg xmlns="http://www.w3.org/2000/svg" fill="none" viewBox="0 0 81 46">
  <g clip-path="url(#a)">
    <path fill="url(#b)" d="M40.5 46 0 23 40.5 0 81 23z" />
    <path
      fill="url(#c)"
      d="M33.39 31.3c-1.06-.62-1.06-1.62 0-2.23l18.97-10.95a4.3 4.3 0 0 1 3.85 0l3.84 2.22c1.06.6 1.06 1.6 0 2.21L41.07 33.51a4.3 4.3 0 0 1-3.84 0z"
    />
    <path
      fill="url(#d)"
      d="m48.37 23.6-5.5 3.16c-.6.35-.6.92 0 1.27.61.35 1.6.35 2.2 0l5.5-3.17c.6-.35.6-.92 0-1.27a2.4 2.4 0 0 0-2.2 0"
    />
    <path
      fill="url(#e)"
      d="M36.72 12.79q.62-.36 1.44-.52.83-.16 1.71-.1l3.94.25q-.47.1-.85.33L23.98 23.7q-.31.2-.5.4l-.44-2.22q-.1-.52.2-1 .27-.47.89-.82z"
      opacity=".7"
    />
    <path
      fill="url(#f)"
      d="M24.04 25.9c-1.06-.62-1.06-1.61 0-2.23L43 12.72a4.3 4.3 0 0 1 3.84 0l3.85 2.22c1.06.6 1.06 1.6 0 2.21L31.72 28.11a4.3 4.3 0 0 1-3.84 0z"
    />
    <path
      fill="url(#g)"
      d="m39.02 18.2-5.5 3.17c-.6.35-.6.91 0 1.26.61.35 1.6.35 2.2 0l5.5-3.17c.6-.35.6-.92 0-1.27a2.4 2.4 0 0 0-2.2 0"
    />
  </g>
  <defs>
    <linearGradient
      id="b"
      x1="81"
      x2="41.49"
      y1="0"
      y2="69.56"
      gradientUnits="userSpaceOnUse"
    >
      <stop stop-color="#f6a1ff" />
      <stop offset="1" stop-color="#9e53ff" />
    </linearGradient>
    <linearGradient
      id="c"
      x1="42.88"
      x2="46.72"
      y1="23.59"
      y2="30.25"
      gradientUnits="userSpaceOnUse"
    >
      <stop stop-color="#fff" stop-opacity=".9" />
      <stop offset="1" stop-color="#fff" stop-opacity=".7" />
    </linearGradient>
    <linearGradient
      id="d"
      x1="45.62"
      x2="46.79"
      y1="25.18"
      y2="27.21"
      gradientUnits="userSpaceOnUse"
    >
      <stop stop-color="#bd6fff" />
      <stop offset="1" stop-color="#f2b9ff" />
    </linearGradient>
    <linearGradient
      id="e"
      x1="28.25"
      x2="31.2"
      y1="15.32"
      y2="20.43"
      gradientUnits="userSpaceOnUse"
    >
      <stop stop-color="#fff" stop-opacity="0" />
      <stop offset="1" stop-color="#fff" stop-opacity=".8" />
    </linearGradient>
    <linearGradient
      id="f"
      x1="33.52"
      x2="37.37"
      y1="18.19"
      y2="24.85"
      gradientUnits="userSpaceOnUse"
    >
      <stop stop-color="#fff" stop-opacity=".9" />
      <stop offset="1" stop-color="#fff" stop-opacity=".7" />
    </linearGradient>
    <linearGradient
      id="g"
      x1="36.27"
      x2="37.44"
      y1="19.78"
      y2="21.81"
      gradientUnits="userSpaceOnUse"
    >
      <stop stop-color="#bd6fff" />
      <stop offset="1" stop-color="#f2b9ff" />
    </linearGradient>
    <clipPath id="a"><path fill="#fff" d="M0 0h81v46H0z" /></clipPath>
  </defs>
</svg>
