<svg
  xmlns="http://www.w3.org/2000/svg"
  class="icon"
  data-colorful="true"
  data-type="icon"
  viewBox="0 0 2048 1024"
>
  <path
    fill="#f60"
    d="M1183.29 848.053c277.372-17.842 532.637-114.695 768-215.99-161.363 107.977-980.153 518.776-985.662 239.342 1.066-34.476 15.46-72.365 44.179-113.558 25.413-40.057 61.879-80.148 98.346-123.581 56.37-65.683 195.59-218.195 243.11-312.809 8.85-17.807 14.359-34.511 16.562-48.977 5.545-84.591-101.651-118-260.774-162.536l-30.922 18.909 59.676 48.977c-268.559 47.876-429.85 97.99-625.44 167.014l27.616 70.125-98.345 96.853c16.562 3.341 187.841 61.24 364.665-63.443l1.066-1.137 2.24-2.204c-5.546-8.885-16.6-18.944-32.06-31.17 53.065 3.34 85.088 50.114 79.58 97.954h-23.21c1.066-16.705-3.305-32.272-7.748-44.534-137.016 102.433-297.241 115.797-433.155 67.886v120.275C323.59 678.8 208.68 752.302 208.68 822.427c4.407 34.512 20.97 46.774 37.569 55.66 150.273 85.728 556.949-31.171 555.811-31.171-145.83 75.705-290.594 135.843-504.986 144.729-283.984-5.58-324.857-195.946-193.35-394.094 127.064-200.388 327.06-378.527 646.409-492.085C842.97 72.056 978.883 35.341 1110.391 32c188.943 0 372.377 56.761 360.222 240.48-8.85 141.387-205.542 335.093-311.636 477.583-46.383 61.24-54.13 103.535 24.311 97.955zm179.062-642.428c43.468 16.705 55.872 35.649 43.468 55.659 12.44-22.25 0-41.158-43.468-55.66"
  />
</svg>
