<svg
  xmlns="http://www.w3.org/2000/svg"
  class="icon"
  data-colorful="true"
  data-type="icon"
  viewBox="0 0 1024 1024"
>
  <path
    fill="#231f20"
    d="m380.63 385.43-95.98 241.343h80.577l57.45-160.853 57.344 160.853h82.56L466.688 385.43zm557.866 240.81h78.997V384.896h-78.997zM222.72 518.4c-8.683-10.176-18.624-18.539-36.97-22.741 12.074-3.947 17.706-8.086 23.935-14.87 9.387-10.197 14.166-22.464 14.166-36.736 0-16.96-6.656-31.232-19.819-42.752C190.933 389.803 171.989 384 147.413 384H0v52.885h128.213s19.926.96 19.627 19.798c-.256 20.416-20.181 20.202-20.181 20.202H0v53.078h119.339c8.597 0 22.293-1.792 29.376 3.562 5.589 4.246 7.85 7.616 7.85 14.72 0 7.723-2.773 13.867-8.298 18.432-5.59 4.544-10.774 5.654-28.758 5.888H0v52.779h135.893c5.782 0 17.579-1.173 35.35-3.35 13.354-1.62 23.317-4.223 29.93-7.893a65.5 65.5 0 0 0 25.259-23.68 63.15 63.15 0 0 0 9.216-33.749c0-15.36-4.33-28.117-12.907-38.272zm526.848-53.867 57.323 160.811h82.56L793.6 384h-86.059l-95.957 241.344h80.555l57.472-160.81z"
  />
</svg>
