<svg
  xmlns="http://www.w3.org/2000/svg"
  fill="none"
  data-colorful="true"
  data-type="icon"
  viewBox="0 0 20 20"
>
  <g clip-path="url(#a)">
    <path
      fill="#e06639"
      d="M8.514 9.864V1.433c0-.424 0-.426.431-.426h3.944c.354 0 .368.009.368.358l-.003 11.224c0 1.887.01 3.774.014 5.661 0 .43 0 .432-.453.433H8.871c-.347 0-.354-.006-.354-.339V9.862zM0 18.776c.18-.355.316-.636.461-.914.46-.893.93-1.783 1.378-2.682.076-.153.09-.343.091-.515q.009-4.621 0-9.24a2.2 2.2 0 0 1 .22-.979 223 223 0 0 0 1.493-3.192c.082-.18.192-.258.398-.254.7.009 1.402.003 2.103.005.36 0 .368.007.368.355v9.824c0 1.176.01 2.352-.005 3.528-.004.226-.055.45-.15.656-.474 1.028-.973 2.045-1.454 3.07-.111.236-.258.332-.542.329-1.288-.011-2.577.004-3.864.01zm15.242-6.35V6.514c0-.392 0-.397.41-.398q1.971-.003 3.944 0c.384 0 .396.017.396.39l.008 11.8c0 .084-.006.169-.009.254-.005.143-.075.21-.231.21q-2.142 0-4.282.006c-.154 0-.23-.058-.225-.209v-6.141zM17.6 4.624c-.691 0-1.383-.008-2.074.005-.223.003-.287-.073-.285-.278.006-.997 0-1.995 0-2.993 0-.332.018-.349.352-.35 1.375-.003 2.75 0 4.124-.007.206 0 .275.066.274.264-.004.999.005 1.996.007 2.994 0 .337-.02.351-.377.352H17.6z"
    />
  </g>
  <defs>
    <clipPath id="a">
      <path fill="#fff" d="M0 0h20v20H0z" />
    </clipPath>
  </defs>
</svg>
