<svg
  xmlns="http://www.w3.org/2000/svg"
  fill="none"
  data-colorful="true"
  data-type="icon"
  viewBox="0 0 20 20"
>
  <path
    fill="#066af3"
    d="M1.879 12.428q-.005-3.322-.006-6.645c0-.29.15-.518.4-.665.89-.52 1.778-1.041 2.673-1.553q2.085-1.198 4.174-2.39.217-.12.42-.26c.38-.262.762-.313 1.174-.069.535.32 1.073.63 1.61.94q2.582 1.494 5.164 2.981c.193.112.389.219.579.334.276.167.42.411.42.736 0 2.886.005 5.771-.003 8.657a.8.8 0 0 1-.426.722c-.679.394-1.378.759-2.043 1.17-.955.59-1.953 1.096-2.905 1.692-.567.354-1.162.664-1.74.995q-.384.22-.763.449a.76.76 0 0 1-.82.014L6.48 17.63l-3.622-2.086c-.218-.126-.434-.25-.644-.388a.73.73 0 0 1-.334-.638c-.003-.68.003-1.358.006-2.037.031-.012.031-.032-.006-.052m6.965-4.404c.043-.035.086-.072.132-.101l4.042-2.322c.054-.031.126-.031.13-.12.002-.095-.081-.092-.133-.121-.794-.46-1.594-.915-2.385-1.384-.328-.196-.641-.167-.946.012-.898.517-1.787 1.047-2.681 1.57-.625.366-1.255.725-1.882 1.088-.36.207-.538.495-.532.932.017 1.749.011 3.498.003 5.247-.003.394.181.656.495.843q.92.55 1.858 1.073c.213.118.411.273.7.36V9.873c.126.383.362.665.715.872a1.39 1.39 0 0 0 1.686-.204c.527-.52.561-1.229.25-1.76-.319-.556-.851-.734-1.452-.757m1.61 8.391c.28-.075.507-.273.76-.417.8-.454 1.588-.932 2.394-1.378.526-.293 1.032-.618 1.576-.883.328-.158.578-.44.578-.849q.006-2.72.003-5.443c0-.218-.1-.273-.27-.138-.518.406-1.12.674-1.683 1.001-1.065.622-2.132 1.237-3.2 1.856-.166.095-.23.204-.226.4.005 1.878.003 3.76.003 5.638-.006.07-.03.15.066.213"
  />
  <path fill="#4372e0" d="M1.879 12.428q.055.03 0 .06z" />
  <path
    fill="#002a9a"
    d="M7.644 9.87c-.106-.865.27-1.446 1.2-1.846.604.023 1.133.201 1.452.753.308.535.277 1.24-.25 1.761a1.39 1.39 0 0 1-1.686.204 1.52 1.52 0 0 1-.716-.871"
  />
</svg>
