<svg
  xmlns="http://www.w3.org/2000/svg"
  fill="none"
  data-colorful="true"
  data-type="icon"
  viewBox="0 0 20 20"
>
  <path
    fill="#3762ff"
    fill-rule="evenodd"
    d="M2.492 11.98c0-1.196.704-2.396 2.084-3.342 1.375-.943 3.33-1.56 5.543-1.56s4.169.617 5.543 1.56c.696.477 1.22 1.019 1.569 1.591.424-.784.607-1.618.508-2.449a.4.4 0 0 1 .015-.16 8 8 0 0 0-.909-.719C15.08 5.69 12.7 4.974 10.121 4.974S5.16 5.689 3.396 6.9.397 9.888.397 11.98c0 2.09 1.236 3.868 2.996 5.076 1.766 1.213 4.147 1.928 6.725 1.928s4.96-.715 6.724-1.928c1.76-1.208 2.997-2.984 2.997-5.077 0-1.33-.5-2.532-1.316-3.542-.043.931-.37 1.825-.913 2.64q.135.45.134.902c0 1.196-.705 2.396-2.085 3.343-1.374.942-3.33 1.56-5.542 1.56-2.213 0-4.169-.618-5.543-1.56-1.379-.947-2.085-2.147-2.085-3.342z"
    clip-rule="evenodd"
  />
  <path
    fill="#1041f3"
    fill-rule="evenodd"
    d="M2.476 9.537c-.558 1.59-.426 3.026.3 4.055.727 1.03 2.033 1.63 3.713 1.63 1.677 0 3.633-.61 5.43-1.887s3.02-2.924 3.577-4.512c.559-1.59.427-3.025-.3-4.054s-2.032-1.63-3.712-1.63c-1.677 0-3.633.61-5.43 1.887S3.034 7.95 2.476 9.537m-2.008-.71c.72-2.051 2.242-4.045 4.355-5.546C6.935 1.78 9.315 1 11.483 1c2.165 0 4.218.786 5.452 2.533 1.232 1.747 1.29 3.951.57 6.002s-2.242 4.045-4.356 5.546c-2.113 1.5-4.491 2.28-6.66 2.28-2.165 0-4.219-.785-5.452-2.532-1.234-1.748-1.29-3.953-.57-6.002"
    clip-rule="evenodd"
  />
</svg>
