<svg
  xmlns="http://www.w3.org/2000/svg"
  data-colorful="true"
  data-type="icon"
  viewBox="0 0 166 58.204"
>
  <defs>
    <clipPath id="a">
      <path fill="#fff" d="M0 0h166v58.204H0z" data-name="Rectangle 1" />
    </clipPath>
  </defs>
  <g clip-path="url(#a)" data-name="CH_Logo_RGB 1">
    <path
      fill="#ec1562"
      d="M82.499 25.592a11.78 11.78 0 0 0-3.968-8.023 11.92 11.92 0 0 0-8.369-3.19 11.75 11.75 0 0 0-8.983 3.917V1.651A1.458 1.458 0 0 0 59.527 0c-1.1 0-1.591.545-1.591 1.651v35.742a1.44 1.44 0 0 0 1.591 1.651 1.487 1.487 0 0 0 1.651-1.651v-11.8a9.12 9.12 0 0 1 15.4-5.4 8.32 8.32 0 0 1 2.689 6.3v10.9a1.44 1.44 0 0 0 1.651 1.591 1.5 1.5 0 0 0 .64-.069 1.5 1.5 0 0 0 .545-.337 1.4 1.4 0 0 0 .337-.545 1.5 1.5 0 0 0 .069-.64v-11.8Z"
      data-name="Path 1"
    />
    <path
      fill="#039ec3"
      d="M30.511 26.759a8.8 8.8 0 0 1 .648-3.484 8.6 8.6 0 0 1 1.98-2.94 8.9 8.9 0 0 1 6.476-2.7 9.18 9.18 0 0 1 9.1 9.121 8.983 8.983 0 0 1-9.113 9.121 8.96 8.96 0 0 1-8.447-5.611 9.2 9.2 0 0 1-.644-3.507m-3.234 0a12.34 12.34 0 0 0 3.605 8.776 12.3 12.3 0 0 0 8.758 3.605 11.7 11.7 0 0 0 4.738-.865 12 12 0 0 0 4-2.689 12.1 12.1 0 0 0 2.715-4.038 11.9 11.9 0 0 0 .891-4.781 12.34 12.34 0 0 0-3.605-8.776 12.2 12.2 0 0 0-4.02-2.68 12.34 12.34 0 0 0-13.47 2.68 12.46 12.46 0 0 0-3.614 8.767Z"
      data-name="Path 2"
    />
    <path
      fill="#039ec3"
      d="M0 26.758a12.117 12.117 0 0 0 12.364 12.39 11.74 11.74 0 0 0 9.286-4.288 2.07 2.07 0 0 0 .476-1.1 1.92 1.92 0 0 0-1.712-1.651 1.72 1.72 0 0 0-1.228.657 8.8 8.8 0 0 1-3.069 2.343 8.6 8.6 0 0 1-3.778.787 8.977 8.977 0 0 1-9.1-9.113 8.7 8.7 0 0 1 .657-3.493 8.8 8.8 0 0 1 1.989-2.94 8.87 8.87 0 0 1 6.467-2.7 8.66 8.66 0 0 1 6.657 2.94 1.5 1.5 0 0 0 .51.441 1.54 1.54 0 0 0 .648.173 2.1 2.1 0 0 0 1.133-.579 2.04 2.04 0 0 0 .579-1.133 1.77 1.77 0 0 0-.476-1.1 11.8 11.8 0 0 0-9.035-3.986 11.9 11.9 0 0 0-4.738.908 11.3 11.3 0 0 0-3.994 2.68 11.95 11.95 0 0 0-3.607 8.764"
      data-name="Path 3"
    />
    <path
      fill="#ec1562"
      d="M95.752 18.797a9.17 9.17 0 0 1 6.908-.553 8.4 8.4 0 0 1 6.225 7.107H90.997a8.73 8.73 0 0 1 4.755-6.554m-6.424 1.738a12.4 12.4 0 0 0-1.772 6.432 12.1 12.1 0 0 0 .9 4.747 12.335 12.335 0 0 0 17.975 5.706 1.6 1.6 0 0 0 .6-.536 1.6 1.6 0 0 0 .259-.752c0-.8-.8-1.833-1.53-1.833a1.95 1.95 0 0 0-1.037.363 9.2 9.2 0 0 1-4.833 1.427 8.42 8.42 0 0 1-8.084-4.963 10.2 10.2 0 0 1-.856-2.507h19.678a1.444 1.444 0 0 0 1.591-1.651 12.33 12.33 0 0 0-2.326-7.332 12.2 12.2 0 0 0-6.234-4.487 12.6 12.6 0 0 0-3.8-.553 11.58 11.58 0 0 0-10.574 5.94"
      data-name="Path 4"
    />
    <path
      fill="#ec1562"
      d="M144.567 18.796a9.17 9.17 0 0 1 6.908-.553 8.43 8.43 0 0 1 6.234 7.107h-17.905a8.73 8.73 0 0 1 4.755-6.554Zm-6.407 1.738a12.4 12.4 0 0 0-1.772 6.432 12 12 0 0 0 .9 4.738 11.8 11.8 0 0 0 2.689 3.994 12.13 12.13 0 0 0 8.75 3.614 12 12 0 0 0 6.536-1.9 1.6 1.6 0 0 0 .6-.536 1.6 1.6 0 0 0 .259-.752c0-.8-.8-1.833-1.53-1.833a1.95 1.95 0 0 0-1.037.363 9.17 9.17 0 0 1-4.824 1.427 8.42 8.42 0 0 1-8.084-4.963 10 10 0 0 1-.856-2.507h19.687a1.444 1.444 0 0 0 1.591-1.651 12.33 12.33 0 0 0-2.326-7.332 12.2 12.2 0 0 0-6.234-4.487 12.6 12.6 0 0 0-3.8-.553 11.58 11.58 0 0 0-10.574 5.94"
      data-name="Path 5"
    />
    <path
      fill="#ec1562"
      d="m136.811 15.415-8.084-3.908-.225-.112.259 3a12.13 12.13 0 0 0-7.582 4.124 12.26 12.26 0 0 0-2.957 8.118v10.9a1.5 1.5 0 0 0 .069.64 1.5 1.5 0 0 0 .337.545 1.4 1.4 0 0 0 .545.337 1.786 1.786 0 0 0 2.282-1.522v-10.9a9.08 9.08 0 0 1 7.582-9.009l.294 3.381Z"
      data-name="Path 6"
    />
    <path
      fill="#6d6f72"
      d="M161.071 58.222v-9.165h-2.049v3.726h-3.208v-3.726h-2.049v9.165h2.049v-3.467h3.225v3.467Zm-18.934-7.28v-1.9h-7.971v1.9h2.957v7.28h2.066v-7.28Zm-18.217 7.28v-1.945h-4.755v-7.211h-2.032v9.165h6.787Zm-21.909-3.571h-2.239l1.124-2.862Zm3.363 3.571-3.623-9.191h-1.563l-3.8 9.191h2l.709-1.712h3.631l.631 1.712Zm-20.577 0v-1.9h-4.513v-1.738h3.692v-1.833h-3.7v-1.829h4.366v-1.9h-6.389v9.165Zm-18.736 0v-9.165h-2.049v3.726h-3.208v-3.726h-2.056v9.165h2.049v-3.467h3.216v3.467Z"
      data-name="Path 7"
    />
    <path
      fill="#6d6f72"
      d="M161.989 11.482a2.338 2.338 0 1 1-.692 1.66 2.27 2.27 0 0 1 .692-1.66m1.66 3.8a2.02 2.02 0 0 0 1.5-.622 2.1 2.1 0 0 0 .623-1.522 2.06 2.06 0 0 0-.623-1.513 2.09 2.09 0 0 0-2.991 0 2.06 2.06 0 0 0-.622 1.513 2.08 2.08 0 0 0 .622 1.513 2.02 2.02 0 0 0 1.491.639Zm.986-2.559a.78.78 0 0 1-.38.718l.493.9h-.648l-.38-.761h-.294v.761h-.6v-2.4h.891a1 1 0 0 1 .666.225.74.74 0 0 1 .251.561Zm-1.21-.233v.571h.259a.4.4 0 0 0 .259-.078.24.24 0 0 0 .1-.207c0-.19-.121-.285-.354-.285Z"
      data-name="Path 8"
    />
  </g>
</svg>
