<svg
  xmlns="http://www.w3.org/2000/svg"
  fill="none"
  data-colorful="true"
  data-type="icon"
  viewBox="0 0 20 20"
>
  <g clip-path="url(#a)">
    <path
      fill="#4d6bfe"
      d="M19.79 4.237c-.212-.104-.302.093-.427.194-.042.033-.078.075-.114.113-.31.333-.67.55-1.143.523-.692-.038-1.281.18-1.803.71-.111-.654-.48-1.043-1.04-1.293-.293-.13-.59-.26-.794-.544-.144-.2-.183-.424-.256-.644-.045-.134-.09-.27-.244-.293-.166-.026-.23.114-.296.23-.261.478-.362 1.004-.353 1.537.024 1.197.529 2.15 1.533 2.83.114.078.143.156.107.27-.068.233-.15.46-.222.694-.045.15-.114.182-.273.118a4.6 4.6 0 0 1-1.447-.985c-.715-.69-1.36-1.453-2.165-2.05-.19-.14-.378-.27-.573-.394-.822-.8.108-1.456.322-1.532.225-.081.079-.36-.648-.357s-1.392.246-2.24.57a2.3 2.3 0 0 1-.387.113 8 8 0 0 0-2.402-.084c-1.571.177-2.826.92-3.75 2.19C.069 7.677-.192 9.412.128 11.22c.336 1.903 1.307 3.482 2.8 4.716 1.547 1.278 3.331 1.905 5.365 1.785 1.234-.071 2.61-.237 4.161-1.55.392.193.802.27 1.484.33.525.049 1.03-.027 1.42-.108.614-.13.57-.697.35-.802-1.796-.837-1.403-.497-1.76-.772.912-1.082 2.288-2.205 2.826-5.844.042-.289.006-.47 0-.705-.004-.141.028-.197.19-.213a3.4 3.4 0 0 0 1.29-.396c1.163-.638 1.631-1.682 1.742-2.935.017-.191-.003-.39-.204-.49M9.65 15.514c-1.74-1.37-2.584-1.821-2.932-1.8-.326.017-.268.39-.196.634.075.24.172.406.31.616.095.14.16.35-.095.504-.56.349-1.535-.117-1.581-.14-1.135-.667-2.083-1.55-2.751-2.758a8.45 8.45 0 0 1-1.082-3.74c-.017-.323.079-.436.398-.494.42-.08.85-.091 1.275-.033 1.776.26 3.288 1.056 4.555 2.314.725.719 1.272 1.576 1.836 2.413.599.89 1.245 1.737 2.067 2.431.289.244.521.43.742.566-.668.074-1.783.09-2.545-.513m.835-5.373a.257.257 0 1 1 .018.098.3.3 0 0 1-.018-.099m2.59 1.332a1.5 1.5 0 0 1-.491.133 1.05 1.05 0 0 1-.665-.212c-.228-.191-.39-.298-.46-.633a1.5 1.5 0 0 1 .013-.49c.06-.274-.006-.448-.198-.607-.157-.13-.355-.165-.574-.165a.5.5 0 0 1-.212-.065c-.091-.047-.166-.16-.094-.3a1 1 0 0 1 .16-.175c.296-.169.638-.113.955.014.293.12.514.34.833.65.327.377.385.482.571.764.147.222.28.45.372.709.055.162-.017.295-.21.377"
    />
  </g>
  <defs>
    <clipPath id="a">
      <path fill="#fff" d="M0 0h20v20H0z" />
    </clipPath>
  </defs>
</svg>
