<svg
  xmlns="http://www.w3.org/2000/svg"
  fill="none"
  data-colorful="true"
  data-type="icon"
  viewBox="0 0 152 46"
>
  <g clip-path="url(#a)">
    <path
      fill="#2b59ff"
      d="M24.284 38H2.834V7h21.93c2.269 0 4.316.844 5.915 2.443 1.75 1.752 2.716 4.14 2.716 6.728v12.861c0 6.18-5.906 8.561-9.027 8.96l-.084.012zM5.41 35.486h18.698c.77-.117 6.71-1.196 6.71-6.458V16.171c0-1.9-.72-3.714-1.983-4.972-1.117-1.118-2.488-1.685-4.07-1.685H5.405v25.972z"
    />
    <path
      fill="#182547"
      d="M20.841 30.045q-1.094-.001-2.171-.607c-1.182-.672-1.891-1.524-2.52-2.275l-.044-.054a86 86 0 0 1-1.911-2.405c-.437-.562-.874-1.125-1.323-1.684a9.8 9.8 0 0 0-1.482-1.494 2.8 2.8 0 0 0-.733-.418c-.469-.195-.75-.188-1.202.027-.773.368-1.23.864-1.755 1.443a21 21 0 0 0-1.699 2.115c-.1.164-.396.664-1.17.73l-.32.028-.28-.156c-.441-.247-.57-.602-.61-.794-.104-.512.185-.868.28-.985.818-1.153 1.756-2.38 3.046-3.49.517-.447 1.298-1.115 2.728-1.224 1.683-.125 2.689.508 3.378 1.075 1.302 1.075 2.191 2.247 3.053 3.385l.432.57q.216.282.425.564c.753.996 1.462 1.939 2.492 2.764 1.086.867 1.683.875 2.777.023 1.001-.778 1.682-1.681 2.403-2.635l.421-.555c.192-.25.377-.5.565-.75.894-1.197 1.815-2.436 3.277-3.538.605-.458 1.483-.97 2.885-.915.75.031 1.322.176 1.847.469 1.534.848 2.412 1.95 3.185 2.924l.2.25c.373.465.726.93 1.078 1.4.757 1.008 1.474 1.958 2.372 2.865.313.317.713.68 1.294.95.473.219.833.219 1.286 0 .765-.371 1.262-.852 1.82-1.501.36-.422.696-.848 1.037-1.278q.318-.401.64-.802c.273-.457.686-.692 1.227-.703l.34-.008.277.191c.28.196.464.473.513.79.076.493-.205.84-.297.954l-.272.363c-.862 1.157-1.755 2.35-3.177 3.405-.718.532-1.567 1.02-2.913.966-1.294-.055-2.072-.567-2.705-1.044-1.093-.825-1.822-1.747-2.532-2.639l-.124-.156a52 52 0 0 1-1.001-1.313c-.69-.927-1.343-1.799-2.16-2.631-.433-.442-.83-.79-1.37-1.071-.533-.278-.821-.286-1.338-.032-1.074.524-1.647 1.236-2.312 2.053l-.264.324c-.437.528-.854 1.087-1.259 1.622-.797 1.064-1.622 2.166-2.696 3.206-.348.34-.837.774-1.518 1.134q-1.067.563-2.12.563z"
    />
    <path
      fill="#eff3f9"
      d="M49.837 19.81h-4.419c-.628 0-1.138.498-1.138 1.111v4.312c0 .613.51 1.11 1.138 1.11h4.42c.628 0 1.137-.497 1.137-1.11v-4.312c0-.613-.51-1.11-1.138-1.11"
    />
    <path
      fill="#2b59ff"
      d="M49.508 27.347h-3.766c-1.374 0-2.492-1.09-2.492-2.431V21.24c0-1.34 1.118-2.431 2.492-2.431h3.766C50.883 18.81 52 19.9 52 21.24v3.675c0 1.34-1.117 2.431-2.492 2.431m-3.766-6.532a.43.43 0 0 0-.432.422v3.675c0 .234.196.422.432.422h3.766c.24 0 .433-.192.433-.422v-3.675a.43.43 0 0 0-.433-.422z"
    />
    <path
      fill="#eff3f9"
      d="M6.585 19.81h-4.42c-.628 0-1.137.498-1.137 1.111v4.312c0 .613.509 1.11 1.137 1.11h4.42c.628 0 1.137-.497 1.137-1.11v-4.312c0-.613-.509-1.11-1.137-1.11"
    />
    <path
      fill="#2b59ff"
      d="M6.258 27.347H2.492C1.118 27.347 0 26.257 0 24.916V21.24c0-1.34 1.118-2.431 2.492-2.431h3.766c1.374 0 2.492 1.09 2.492 2.431v3.675c0 1.34-1.118 2.431-2.492 2.431m-3.766-6.532a.43.43 0 0 0-.433.422v3.675c0 .234.197.422.433.422h3.766c.24 0 .433-.192.433-.422v-3.675a.43.43 0 0 0-.433-.422z"
    />
  </g>
  <path
    fill="#182547"
    d="M61.382 34V12.618h7.003q3.243 0 5.654 1.32a9.2 9.2 0 0 1 3.73 3.732q1.32 2.382 1.321 5.625 0 3.215-1.32 5.625a9.4 9.4 0 0 1-3.731 3.76Q71.629 34 68.385 34zm2.813-2.583h4.219q2.382 0 4.104-1.005a6.83 6.83 0 0 0 2.698-2.812q.946-1.837.947-4.305 0-2.497-.976-4.305a6.64 6.64 0 0 0-2.698-2.784q-1.722-1.005-4.075-1.005h-4.22zm24.975 2.927q-2.239 0-3.99-1.062a7.6 7.6 0 0 1-2.755-2.898q-1.004-1.866-1.004-4.162 0-2.325.976-4.132 1.005-1.809 2.697-2.842 1.722-1.062 3.846-1.062 1.722 0 3.042.632 1.35.602 2.268 1.664a7 7 0 0 1 1.435 2.382q.516 1.32.516 2.756 0 .316-.057.717-.03.373-.086.718H83.372v-2.296h11.136l-1.263 1.033q.258-1.493-.287-2.67a4.36 4.36 0 0 0-1.607-1.865q-1.062-.689-2.41-.689-1.35 0-2.469.69-1.12.688-1.75 1.98-.603 1.262-.489 3.013-.114 1.694.517 2.985a4.96 4.96 0 0 0 1.837 1.98q1.205.69 2.611.689 1.55 0 2.612-.718a5.65 5.65 0 0 0 1.722-1.836l2.239 1.148q-.46 1.061-1.435 1.951-.948.86-2.267 1.378-1.292.516-2.9.516M101.03 34V21.085h-2.956v-2.554h2.956v-1.09q0-1.665.718-2.813a4.9 4.9 0 0 1 1.951-1.751q1.234-.603 2.727-.603.315 0 .689.058.402.028.66.086V14.8a2.3 2.3 0 0 0-.546-.058 6 6 0 0 0-.487-.028q-1.321 0-2.182.631-.832.631-.832 2.095v1.09h3.674v2.555h-3.674V34zm16.103.344q-2.238 0-4.047-1.033a7.9 7.9 0 0 1-2.87-2.898q-1.062-1.837-1.062-4.162 0-2.324 1.034-4.133a7.93 7.93 0 0 1 2.87-2.87q1.807-1.062 4.075-1.062 2.238 0 4.047 1.062a7.5 7.5 0 0 1 2.841 2.842q1.062 1.807 1.062 4.161t-1.091 4.19a8.2 8.2 0 0 1-2.898 2.87q-1.78 1.033-3.961 1.033m0-2.583q1.435 0 2.583-.717a4.96 4.96 0 0 0 1.837-1.98q.689-1.263.689-2.813 0-1.578-.689-2.784a5 5 0 0 0-1.837-1.951q-1.148-.747-2.583-.747-1.464 0-2.64.747a5.3 5.3 0 0 0-1.837 1.951q-.689 1.206-.689 2.784 0 1.549.689 2.813.688 1.262 1.837 1.98 1.176.717 2.64.717m18.52 8.553q-1.637 0-3.042-.517a7.3 7.3 0 0 1-2.382-1.435 6 6 0 0 1-1.493-2.095l2.497-1.148q.402 1.091 1.521 1.837 1.148.775 2.87.775 1.32 0 2.382-.517a3.84 3.84 0 0 0 1.722-1.492q.632-.976.632-2.382v-3.473l.488.517a5.55 5.55 0 0 1-2.325 2.41q-1.492.834-3.301.833-2.181 0-3.903-1.005a7.4 7.4 0 0 1-2.698-2.783q-.975-1.78-.975-3.932 0-2.181.975-3.932a7.25 7.25 0 0 1 2.67-2.756q1.722-1.032 3.903-1.033 1.808 0 3.272.833a6.23 6.23 0 0 1 2.382 2.238l-.402.718V18.53h2.612v14.81q0 2.01-.948 3.587-.947 1.58-2.64 2.469-1.665.918-3.817.918m-.201-9.27q1.377 0 2.468-.689a5.1 5.1 0 0 0 1.78-1.837q.66-1.177.66-2.611a5.2 5.2 0 0 0-.66-2.583 5.05 5.05 0 0 0-1.78-1.866q-1.09-.69-2.468-.689-1.406 0-2.554.69a4.97 4.97 0 0 0-1.808 1.865q-.632 1.148-.632 2.583t.632 2.611a5.1 5.1 0 0 0 1.779 1.837q1.147.69 2.583.689"
  />
  <defs>
    <clipPath id="a">
      <path fill="#fff" d="M0 7h52v31H0z" />
    </clipPath>
  </defs>
</svg>
