<svg
  xmlns="http://www.w3.org/2000/svg"
  fill="none"
  data-colorful="true"
  data-type="icon"
  viewBox="0 0 20 20"
>
  <g clip-path="url(#a)">
    <path
      fill="#003425"
      d="M10 20c5.523 0 10-4.477 10-10S15.523 0 10 0 0 4.477 0 10s4.477 10 10 10"
    />
    <path
      fill="#fff"
      d="M15.07 12.04a.706.706 0 0 0-1.412 0v3.643a.706.706 0 0 0 1.412 0zm-1.003-7.595a.707.707 0 0 0-.996.08L9.123 9.169a.7.7 0 0 0-.166.409 1 1 0 0 0-.009.11v5.933a.707.707 0 0 0 1.413 0V9.893l3.786-4.452a.704.704 0 0 0-.08-.996M5.34 4.126a.707.707 0 0 0-1.093.895l2.797 3.412a.706.706 0 1 0 1.093-.895z"
    />
    <path
      fill="#00ff25"
      d="M15.338 10.173a.863.863 0 1 0 0-1.726.863.863 0 0 0 0 1.726"
    />
  </g>
  <defs>
    <clipPath id="a">
      <path fill="#fff" d="M0 0h20v20H0z" />
    </clipPath>
  </defs>
</svg>
