<svg
  xmlns="http://www.w3.org/2000/svg"
  data-colorful="true"
  data-type="icon"
  viewBox="0 0 32 32"
>
  <path
    fill="#40bde8"
    d="M22 0c4.885 2.268 7.732 5.115 10 10 .754 5.6.773 10.335-1.625 15.5-4.574 4.814-7.684 6.752-14.375 7-6.691-.248-9.801-2.186-14.375-7C-.773 20.335-.754 15.6 0 10 4.478.355 12.147-1.326 22 0M8 10c-1.939 2.529-2.006 3.73-1.937 6.938C7.263 20.858 8.776 22.493 12 25c2.897 1.247 2.897 1.247 6 1 3.122-1.621 5.293-3.077 7.438-5.875.823-3.112.504-5.046-.438-8.125-2.446-3.145-4.184-4.705-7.937-6.062C12.939 6.022 11.122 7.374 8 10"
  />
  <path
    fill="#e292df"
    d="M11 0c9.687-.62 9.687-.62 14.438 1.625 3.462 3.209 6.307 5.867 6.804 10.762.007 2.22-.065 4.4-.242 6.613l-1.375-1.445c-1.545-1.656-1.545-1.656-3.625-2.43C25 14 25 14 23.625 11.563c-1.46-2.79-1.46-2.79-4.5-4C15.21 5.605 13.617 3.463 11 0"
  />
  <path
    fill="#327be7"
    d="M10 0a125 125 0 0 1 6 4v2a99 99 0 0 1-4.937 2.688c-3.672 1.968-3.672 1.968-5.95 5.261C4.798 16.07 4.798 16.07 5 19H3c-1.987-3.974-1.678-8.69-1-13 2.077-2.946 4.794-4.397 8-6"
  />
  <path
    fill="#3b8deb"
    d="M26 15c1.875.313 1.875.313 4 1 2 3 2 3 1.938 5.313C30.658 24.98 29.29 27.873 26 30c-4.318.66-9.018.99-13-1v-2l1.863-.297c4.968-.841 4.968-.841 9.137-3.453 1.215-2.733 1.663-5.287 2-8.25"
  />
  <path
    fill="#a489e2"
    d="M11 0c2.719-.293 2.719-.293 6 0 2.344 2.012 2.344 2.012 4.5 4.688C24.785 8.606 27.955 11.888 32 15l-1 4-2-3-1.937-.875C25 14 25 14 23.625 11.563c-1.46-2.79-1.46-2.79-4.5-4C15.21 5.605 13.617 3.463 11 0"
  />
  <path
    fill="#72f2d0"
    d="M0 19c4.21 2.105 6.641 4.731 9.473 8.379C11.166 29.176 12.748 30.027 15 31v1c-6.169-.37-8.758-1.758-13-6-1.757-2.715-2-3.714-2-7"
  />
  <path
    fill="#1789eb"
    d="M26 18c.977 3.041 1.163 4.996 0 8-1.356 2.154-2.431 2.868-4.906 3.441-5.607.803-5.607.803-8.094-.441v-2l1.863-.297c5.042-.829 5.042-.829 9.137-3.64 1.11-2.175 1.11-2.175 2-5.063"
  />
  <path
    fill="#2898ee"
    d="m7 3-2 7 2-1-2 10H3c-1.29-2.58-1.204-4.557-1.25-7.437l-.078-2.934C2 6 2 6 3.39 4.152 5 3 5 3 7 3"
  />
  <path
    fill="#3274e5"
    d="m26 15 4 1c.37 5.538.37 5.538-1.5 7.875L27 25c-1.158-3.473-1.069-6.36-1-10"
  />
  <path
    fill="#127ce8"
    d="M13 3c-1.729 4.557-4.817 5.908-9 8 1.466-5.621 1.466-5.621 3.938-7.375C10 3 10 3 13 3"
  />
  <path
    fill="#3ab1f2"
    d="M7 10c1 2 1 2 .5 4.938C6.752 18.03 6.752 18.03 8 21l-5-1 2-1-.125-3.375C5 12 5 12 7 10"
  />
  <path fill="#1da7f0" d="m21 27-1 3-7-1v-2c5.75-1.125 5.75-1.125 8 0" />
  <path
    fill="#7882e4"
    d="M11 0c2.25.125 2.25.125 5 1 2.313 3.063 2.313 3.063 4 6-2.38-.176-3.702-.697-5.379-2.402C13.38 3.094 12.186 1.548 11 0"
  />
  <path
    fill="#35abf2"
    d="M25 29c-1.187 1.5-1.187 1.5-3 3-2.687.188-2.687.188-5 0l-1-2c3.073-.91 5.801-1.089 9-1"
  />
  <path
    fill="#1da8f1"
    d="M2 10c1.5 1.125 1.5 1.125 3 3 .188 3.188.188 3.188 0 6H3c-1.478-2.957-1.06-5.742-1-9"
  />
  <path
    fill="#9785e2"
    d="m25 13 6 1 1 5-1.25-1.375C28.936 15.94 27.247 15.007 25 14z"
  />
  <path
    fill="#3a8cea"
    d="m15 4 1 2c-6.75 4-6.75 4-9 4l1-3c3.563-1.687 3.563-1.687 7-3"
  />
</svg>
