<svg
  xmlns="http://www.w3.org/2000/svg"
  fill="none"
  data-colorful="true"
  data-type="icon"
  viewBox="0 0 20 20"
>
  <path
    fill="#d4367a"
    d="M8.336 9.41v5.407c-.382 1.83-2.93 1.358-2.94.03-.013-1.668 0-3.324 0-4.98v-1.92c0-.24-.055-.43-.276-.58-.43-.306-.944.054-.955.495-.024.592-.012 1.172-.024 1.757 0 .461 0 .91.012 1.37C3.835 13.017 1.258 12.68 1.2 11V9.596c0-.46.944-.569.898.12-.03.34-.012.693-.024 1.03-.01.603.956 1.01 1.184.023.012-.813.012-1.626.012-2.447 0-1.028.306-1.864 1.448-1.942.496-.042.824.154 1.141.496.12.12.407.502.419.92 0 .384.01.766.01 1.154 0 .766-.01 1.536-.01 2.302 0 .496.01.987.01 1.471 0 .615 0 1.239-.01 1.854-.012.8 1.01.79 1.172-.012 0-.944.012-1.877.012-2.821 0-2.326-.012-4.652-.012-6.978 0-.24-.035-.91.1-1.153.712-1.656 2.876-.933 2.896.437.042 2.81 0 5.65.01 8.468 0 .976-.831.766-.878.384 0-2.93 0-5.872.012-8.798-.042-.735-1.184-.634-1.25-.108-.023.604-.011 1.22-.023 1.822v3.588h.012z"
  />
  <path
    fill="#ed6d48"
    d="M11.68 9.367v3.97-9.369c.372-1.842 2.918-1.362 2.93-.034.012 1.656 0 3.324.012 4.98 0 .635 0 1.273-.012 1.908 0 .252.065.43.286.592.418.298.933-.054.956-.503.023-.58.011-1.161.011-1.757V7.792c.318-2.028 2.888-1.691 2.942-.012v5.089c0 .46-.933.57-.89-.12.023-.352 0-4.376.011-4.729.024-.592-.956-1.01-1.184-.012v2.434c0 1.042-.306 1.866-1.459 1.955-1.088.024-1.525-.693-1.56-1.416V6.06c0-.627 0-1.238.012-1.853.011-.8-1.01-.8-1.184.012v11.014c0 .24.035.91-.09 1.153-.711 1.656-2.886.933-2.906-.437v-1.304c.055-.879.832-.67.867-.299v1.548c.043.736 1.184.647 1.239.109.023-.604.023-1.208.023-1.823V9.368z"
  />
</svg>
