<svg
  xmlns="http://www.w3.org/2000/svg"
  fill="none"
  data-colorful="true"
  data-type="icon"
  viewBox="0 0 20 20"
>
  <g clip-path="url(#a)">
    <path
      fill="#1a1d22"
      d="M.003 4a4 4 0 0 1 4-4h11.764a4 4 0 0 1 4 4v11.765a4 4 0 0 1-4 4H4.003a4 4 0 0 1-4-4z"
    />
    <path
      fill="#ededee"
      d="M10.826 5.647A37 37 0 0 0 5.18 3.765Q10.333-.065 15.532 4a5.2 5.2 0 0 1 1.883 2.588l-1.177.47a21 21 0 0 0-5.412-1.411"
    />
    <path
      fill="#efeff0"
      d="M5.18 4.235q2.54 1.548 5.646 1.412.417.46.942.941-.806.654 0 1.177l6.588 1.647v1.882a57 57 0 0 0-8-1.882Q6.77 7.888 2.826 7.059q-.54-2.54 2.353-2.824"
    />
    <path
      fill="#626568"
      d="M5.18 3.765a37 37 0 0 1 5.646 1.882Q7.72 5.782 5.18 4.235z"
    />
    <path
      fill="#eeeeef"
      d="M2.826 7.53a51 51 0 0 0 6.118 1.882q.856.175.941.94.085.768.941.942 3.563.949 7.06 2.118-.514.986-1.648 1.176a39.5 39.5 0 0 1-5.882-1.411 62 62 0 0 0-8.941-2.354v-1.41Q1.124 7.667 2.826 7.53"
    />
    <path
      fill="#5c5e62"
      d="M2.826 7.059a40.5 40.5 0 0 1 7.53 2.353q.12.7-.47.941-.086-.767-.942-.941a51 51 0 0 1-6.118-1.883z"
    />
    <path
      fill="#4f5155"
      d="M1.415 9.412v1.411a62 62 0 0 1 8.94 2.353q-.47 0-.47.471a120 120 0 0 1-7.765-2.353 2.32 2.32 0 0 0-.235 1.412q-1.436-1.521-.47-3.294"
    />
    <path
      fill="#f2f2f3"
      d="M9.885 13.647v1.412q2.781.282 5.177 1.647-1.293 1.948-3.295.706a83 83 0 0 0-8.47-2.353q-1.235-.819-1.412-2.353c-.072-.484.01-.978.235-1.412q3.843 1.309 7.765 2.353"
    />
    <path
      fill="#5d5f62"
      d="M3.297 15.059a83 83 0 0 1 8.47 2.353v.47a41 41 0 0 1-7.764-2.353q-.282.162-.235.471-.593-.24-.471-.941"
    />
    <path
      fill="#e7e7e8"
      d="M11.767 17.882q.31-.046.471.236-4.96 1.757-8.47-2.118-.047-.31.235-.47a41 41 0 0 0 7.764 2.352"
    />
  </g>
  <defs>
    <clipPath id="a">
      <path fill="#fff" d="M0 0h20v20H0z" />
    </clipPath>
  </defs>
</svg>
