<svg
  xmlns="http://www.w3.org/2000/svg"
  class="icon"
  data-colorful="true"
  data-type="icon"
  viewBox="0 0 1024 1024"
>
  <path
    fill="#f30b40"
    d="M341.796 699.658c-29.973 9.877-19.968 29.625-19.968 29.625 19.968 79.022 259.635-108.642 269.634-138.297 9.969-29.619-19.962-19.748-19.962-19.748-139.756 118.487-229.607 128.42-229.704 128.42M512 1019.971C231.444 1019.97 4.035 792.56 4.035 512 4.035 231.444 231.445 4.035 512 4.035c280.56 0 507.97 227.41 507.97 507.965 0 280.56-227.41 507.97-507.97 507.97m-21.683-545.275c40.735-2.192 81.183-2.222 81.183-2.222 89.876 9.876 89.876-59.275 89.876-59.275v-49.372c0-39.49-29.972-88.893-119.818-88.893-89.877 0-109.845 9.871-109.845 9.871-39.94 9.877-29.972 29.624-29.972 29.624 10 19.748 39.936 9.872 39.936 9.872 59.909-19.743 119.818-9.872 119.818-9.872 59.904 0 59.904 49.398 59.904 49.398V413.2c0 29.625-29.967 29.625-29.967 29.625H421.678c-29.972 0-29.972-29.625-29.972-29.625v-69.145c0-19.748-19.968-19.748-19.968-19.748-19.968 0-19.968 19.748-19.968 19.748v88.893c9.999 49.398 69.908 49.398 69.908 49.398 6.758-1.685 15.585-3.082 25.523-4.224-12.636 14.797-52.638 53.591-125.373 53.591 0 0-29.973 0-29.973 19.743 0 0 0 19.748 29.973 19.748 29.655.071 127.785-19.39 168.489-96.507M353.802 695.69l-4.157 1.372a140 140 0 0 0 4.157-1.372m187.725-213.31s-19.968 0-19.968 19.744c0 0 .067 4.602 2.284 9.37a26 26 0 0 0-2.284.506C391.747 630.513 321.833 620.646 321.833 620.646c-19.968 0-19.968 19.743-19.968 19.743 10 79.022 229.663-79.022 239.667-108.641a30 30 0 0 0 1.813-9.846c10.731.287 71.685 3.523 108.042 39.465 39.936 39.496-10 128.39-79.877 138.291 0 0-29.973 0-39.946-19.742 0 0-19.968-9.877-19.968 9.876 0 0 0 59.274 49.935 59.274 49.94 0 139.822-39.5 149.79-148.167-.035-.006-.035-118.518-169.794-118.518m9.969-88.893s29.972 0 29.972-19.747c0 0 0-19.748-29.972-19.748h-99.85s-29.973 0-29.973 19.748c0 0 0 19.747 29.972 19.747z"
  />
</svg>
