<svg
  xmlns="http://www.w3.org/2000/svg"
  data-colorful="true"
  data-type="icon"
  viewBox="0 0 16 16"
>
  <path fill="#5fbfe0" d="M0 0h16v16H0z" />
  <path
    fill="#030306"
    d="M5 0c3.03.59 6.002 1.25 9 2v11c-4.192-1.048-5.216-1.918-8-5a56.5 56.5 0 0 0 4 7l-8-2V2c3.488 1.744 6.034 3.528 9 6V5l-1.875-.812C7 3 7 3 5 0"
  />
  <path
    fill="#3479cf"
    d="M9 0h7v16H8v-3c-1.438-1.688-1.438-1.688-3-3l1-3 2.313 2.438c2.481 2.73 2.481 2.73 5.687 3.562V2L9 1z"
  />
  <path
    fill="#0d1d2c"
    d="M5 0c3.03.59 6.002 1.25 9 2v11l-2-4-2-1 1-3-1.875-.812C7 3 7 3 5 0"
  />
  <path fill="#080f17" d="m2 2 2 1 1 4c1.55 2.762 3.243 5.364 5 8l-8-2z" />
  <path
    fill="#327ddb"
    d="M5 7q1.724 1.432 3.438 2.875l1.933 1.617C12 13 12 13 13 15c-3.785-.54-5.592-2.076-8-5z"
  />
</svg>
