<svg
  xmlns="http://www.w3.org/2000/svg"
  fill="none"
  data-colorful="true"
  data-type="icon"
  viewBox="0 0 20 20"
>
  <path
    fill="#000"
    d="M19.348 9.947a4.8 4.8 0 0 1 .312 2.977c-.106.498-.29.975-.545 1.415a4.8 4.8 0 0 1-3.19 2.314 4.8 4.8 0 0 1-.687 1.352 4.8 4.8 0 0 1-1.07 1.07 4.82 4.82 0 0 1-2.848.923 5 5 0 0 1-1.008-.102 4.8 4.8 0 0 1-1.84-.823c-.27-.2-.522-.429-.746-.683a4.83 4.83 0 0 1-4.251-1.138 4.9 4.9 0 0 1-1.368-2.105 4.8 4.8 0 0 1 .006-2.991 4.9 4.9 0 0 1-.827-1.27 4.85 4.85 0 0 1 .233-4.391 4.8 4.8 0 0 1 1.344-1.502q.413-.301.88-.505.466-.207.966-.308A4.82 4.82 0 0 1 9.314.835a4.8 4.8 0 0 1 1.973.414q.466.21.876.509.412.303.75.683a4.85 4.85 0 0 1 2.977.312 4.85 4.85 0 0 1 2.222 2.004 4.8 4.8 0 0 1 .627 1.915 4.8 4.8 0 0 1-.218 2.005c.342.378.62.805.827 1.27m-6.654 8.525a3.58 3.58 0 0 0 1.943-1.945c.18-.435.274-.902.274-1.374V10.7l-.004-.014-.006-.012-.01-.01-.012-.008-1.611-.93v5.38a.63.63 0 0 1-.314.543L9.138 17.85c-.032.02-.086.048-.114.064q.238.2.51.356.27.155.564.263.295.105.601.16.31.054.621.054c.472 0 .94-.094 1.374-.276M3.606 15.45a3.59 3.59 0 0 0 4.904 1.314l3.859-2.227.01-.01.006-.012.006-.012v-1.877L7.734 15.32a.7.7 0 0 1-.15.064.65.65 0 0 1-.477-.064L3.29 13.114l-.112-.067a3.6 3.6 0 0 0 .002 1.242q.056.306.162.6.108.295.263.564zM2.604 7.122a3.6 3.6 0 0 0-.358 2.726 3.6 3.6 0 0 0 1.672 2.178l3.856 2.229.014.004h.014q.008 0 .014-.004l.012-.006 1.617-.935-4.657-2.688a.64.64 0 0 1-.292-.381.5.5 0 0 1-.019-.162V5.548q-.294.108-.565.264-.27.158-.51.36a3.7 3.7 0 0 0-.794.95zm13.246 3.083a.64.64 0 0 1 .231.23q.04.073.062.151.02.08.018.164v4.535a3.6 3.6 0 0 0 1.614-1.192 3.6 3.6 0 0 0 .33-3.838 3.6 3.6 0 0 0-1.389-1.448L12.86 6.58l-.014-.004h-.014l-.014.004-.012.006-1.61.93 4.658 2.69zm1.607-2.416h-.002v.002zm-.002-.002a3.593 3.593 0 0 0-3.383-4.196 3.6 3.6 0 0 0-1.949.477L8.267 6.295l-.01.01-.008.012-.006.028v1.861l4.657-2.69a.7.7 0 0 1 .152-.064.64.64 0 0 1 .475.064l3.816 2.205c.034.02.084.048.112.066M7.365 5.726a.64.64 0 0 1 .183-.443.6.6 0 0 1 .13-.098l3.816-2.203c.036-.022.086-.05.114-.064a3.57 3.57 0 0 0-1.84-.803A3.59 3.59 0 0 0 5.72 5.678v4.453l.005.014.006.012.01.012.012.008 1.612.93zm.874 5.885 2.075 1.198 2.075-1.198V9.217l-2.073-1.199-2.075 1.199z"
  />
</svg>
