<svg
  xmlns="http://www.w3.org/2000/svg"
  data-colorful="true"
  data-type="icon"
  viewBox="0 0 988 1002"
>
  <path d="M0 0h988v1002H0z" />
  <path
    fill="#fefefe"
    d="m416.78 299.733 2.065-.014c2.281-.013 4.562-.011 6.844-.01q2.454-.008 4.908-.02c4.445-.018 8.889-.022 13.333-.024 3.71-.001 7.42-.009 11.13-.016q13.132-.023 26.262-.02c9.03.002 18.06-.02 27.089-.051q11.63-.038 23.259-.036c4.63 0 9.26-.005 13.89-.026q6.532-.029 13.065-.005 2.397.003 4.792-.015c2.183-.015 4.365-.006 6.548.01l3.7-.004c6.718 1.003 10.437 5.375 14.335 10.498 1.434 2.867 1.125 5.321 1.126 8.526l.006 2.03q.006 2.188.006 4.375c.004 3.106.025 6.212.045 9.318.038 5.783.07 11.567.067 17.35q.002 6.034.062 12.067.015 2.293.005 4.586c-.123 11.81-.123 11.81 5.683 21.748 4.234 3.86 7.955 4.126 13.548 4.142l2.001.01q2.151.012 4.302.017 3.412.012 6.825.041c6.468.052 12.937.1 19.405.116 3.96.01 7.918.04 11.876.081q2.256.02 4.51.015c16.877-.018 16.877-.018 23.373 6.394l1.098 1.747 1.152 1.753c1.67 3.09 2.037 5.651 2.047 9.091l.015 2.748.002 3.023.013 3.208q.019 5.348.026 10.695l.025 7.647q.034 11.493.052 22.986l.011 6.493a42352 42352 0 0 1 .071 52.009c.013 12.533.046 25.066.088 37.599q.063 19.302.071 38.606c.004 7.225.015 14.45.048 21.674q.045 10.196.025 20.39 0 3.743.025 7.484c.023 3.407.015 6.812-.001 10.219l.042 2.988c-.09 7.852-2.772 12.178-7.525 18.199-4.689 3.586-10.347 3.874-16.067 3.88l-1.983.011q-2.113.01-4.225.008-3.349.001-6.698.03-9.515.067-19.031.077c-3.892.005-7.784.03-11.676.065q-2.215.015-4.431.007a427 427 0 0 0-6.202.033l-3.556.008c-4.643.721-7.565 2.885-10.915 6.096-4.689 6.687-4.015 14.255-3.943 22.074q-.008 2.281-.024 4.564c-.023 3.986-.019 7.971-.006 11.957q.026 9.579-.026 19.157c-.006 2.221.007 4.442.022 6.663l-.011 4.107.012 3.6c-.593 5.34-2.718 9.226-6.865 12.6l-1.781 1.489c-3.63 2.533-7.044 2.333-11.328 2.353l-2.045.013c-2.266.014-4.532.02-6.798.026l-4.869.025c-5.334.026-10.669.041-16.003.055l-5.511.017q-11.464.033-22.928.051-16.423.023-32.846.107-11.55.056-23.1.063c-4.599.004-9.196.016-13.794.048q-6.493.044-12.984.025-2.377 0-4.755.025c-15.747.166-15.747.166-21.758-5.609-4.626-5.693-5.12-10.45-5.142-17.607l-.021-3.995-.006-2.12q-.012-3.306-.041-6.611c-.052-6.263-.1-12.525-.116-18.788-.01-3.838-.04-7.676-.081-11.513a439 439 0 0 1-.015-4.37c.244-10.768.244-10.768-4.578-19.996-5.92-5.096-12.62-4.56-20.089-4.516-2.225.012-4.45 0-6.675-.016-3.924-.027-7.848-.033-11.773-.031-6.276.002-12.552-.012-18.828-.056-2.18-.01-4.36-.001-6.54.009-15.424-.022-15.424-.022-20.6-4.771-3.623-4.118-5.743-7.703-5.75-13.186l-.017-2.779.011-3.041-.011-3.24c-.01-3.594-.007-7.188-.003-10.783l-.015-7.716q-.018-9.403-.012-18.806.002-7.642-.005-15.286l-.001-2.196-.004-4.418q-.014-20.72-.003-41.441c.006-12.638-.006-25.276-.025-37.914q-.03-19.463-.024-38.925c.002-7.285 0-14.57-.014-21.855q-.019-10.275.002-20.55.004-3.775-.009-7.55c-.01-3.43-.002-6.86.01-10.292l-.022-3.028c.042-5.292.39-9.06 3.397-13.613 5.647-5.402 9.925-7.247 17.683-7.255l1.973-.011q2.11-.01 4.221-.008 3.35-.001 6.7-.03 9.52-.067 19.041-.077c3.89-.005 7.78-.03 11.67-.065q2.212-.015 4.426-.007c11.378.311 11.378.311 21.286-4.547 5.159-5.842 4.56-12.65 4.516-20.089-.012-2.225 0-4.45.016-6.675.027-3.924.033-7.848.031-11.773-.002-6.276.012-12.552.056-18.828.01-2.18.001-4.36-.009-6.54.022-15.424.022-15.424 4.771-20.6 5.07-4.462 8.714-5.744 15.4-5.762"
  />
  <path
    d="m417.578 394.853 2.034-.011q3.383-.015 6.764-.019l4.844-.02c5.307-.021 10.614-.031 15.92-.041l5.482-.013q12.876-.029 25.752-.041a9613 9613 0 0 0 29.723-.077q11.488-.044 22.976-.048c4.574-.002 9.147-.011 13.721-.036q6.457-.035 12.913-.018 2.366 0 4.732-.02c15.525-.127 15.525-.127 22.303 6.089 3.118 4.032 4.381 6.793 4.39 11.846l.011 2.773-.003 3.05.01 3.237q.01 5.396.011 10.792l.015 7.716q.02 10.5.024 21l.012 13.11a49841 49841 0 0 1 .026 38.642v2.352l.002 4.72v2.364q.009 18.966.046 37.933.035 19.468.037 38.938-.001 10.933.025 21.865.024 10.282.01 20.563-.002 3.777.013 7.554a1474 1474 0 0 1-.004 10.3l.025 3.03c-.038 5.296-.386 9.058-3.392 13.617-5.76 5.632-10.832 7.247-18.78 7.26-.657.005-1.314.008-1.99.012-2.188.01-4.376.007-6.563.003l-4.723.015c-4.266.014-8.533.014-12.8.012q-5.348 0-10.697.008-12.623.016-25.247.006c-8.671-.006-17.343.006-26.015.027q-11.181.026-22.362.02c-4.448-.001-8.896.001-13.344.015q-6.277.018-12.553-.002-2.298-.004-4.596.009c-16.87.084-16.87.084-24.142-5.573-5.203-6.688-5.626-13.311-5.576-21.47l-.016-3.182a1724 1724 0 0 1 0-10.517l-.02-7.556q-.023-9.185-.014-18.37.006-7.469-.002-14.936l-.003-2.15-.004-4.326c-.014-13.508-.009-27.016.003-40.525.01-12.347-.003-24.695-.027-37.043a15561 15561 0 0 1-.027-38.074q.006-10.68-.017-21.36-.022-10.043.008-20.086.005-3.684-.01-7.366c-.013-3.356-.002-6.71.016-10.066l-.03-2.934c.068-6.26 1.112-11.51 4.531-16.851 5.071-4.84 9.725-6.123 16.578-6.147"
  />
</svg>
