<svg
  xmlns="http://www.w3.org/2000/svg"
  data-colorful="true"
  data-type="icon"
  viewBox="0 0 301 301"
>
  <path fill="#d7dade" d="M0 0h301v301H0z" />
  <path
    fill="#eff3fe"
    d="M159 103h38c.2 18.976.2 18.976.244 27.078.03 5.524.065 11.048.133 16.571.055 4.455.084 8.909.097 13.364q.015 2.546.055 5.093c.036 2.382.04 4.762.039 7.144l.054 2.117c-.059 5.624-1.953 7.709-5.622 11.633-1.494 4.482-1.869 8.723-.176 13.16 1.285 2.555 2.64 5.038 4.229 7.417 1.416 3.621 1.208 7.216 1.174 11.047v2.675c0 2.853-.016 5.707-.032 8.56l-.006 5.29c-.01 6.534-.038 13.067-.064 19.601L197 298h-92v-86l27-1c10.632-2.304 21.017-6.2 27.5-15.437A111 111 0 0 0 162 191l1.875-3.5c2.552-7.58 2.885-18.98-.625-26.25L161 158l-1.625-2.625c-9.164-9.164-22.5-12.674-34.687-15.875-7.307-1.924-13.197-4.009-18.688-9.5-.629-3.078-.613-5.92 0-9 3.974-4.344 8.144-6.679 13.988-7.336C134.175 113.497 145.89 116.6 158 124zM4 199h73v2l2.172.844c3.649 1.492 7.173 3.217 10.719 4.937C93.887 208.44 93.887 208.44 102 210v88l-39.375.313-12.38.137c-5.033.023-5.033.023-7.398.027q-2.45.012-4.899.05c-18.513.276-18.513.276-25.948-5.527-6.02-6.424-8.313-12.181-8.227-21.003V269.6c0-2.603.016-5.205.032-7.808l.008-5.427c.008-4.752.028-9.505.05-14.258.024-5.707.033-11.414.045-17.12.019-8.663.057-17.325.092-25.988m223.892-.119 3.923.006h2.158c2.364 0 4.729.009 7.093.016l4.906.005q6.469.006 12.937.024 6.596.014 13.19.02 12.951.016 25.901.049.176 15.582.26 31.165c.025 4.825.06 9.65.117 14.474.055 4.662.084 9.323.097 13.985q.015 2.659.055 5.318c.273 18.593.273 18.593-5.529 26.058-6.708 6.468-13.685 8.322-22.955 8.227H267.7a1290 1290 0 0 1-7.446-.032l-4.625-.006c-5.689-.01-11.378-.038-17.066-.064L200 298v-88h11c5.284-2.642 9.038-5.678 13-10 1-1 1-1 3.892-1.12M200 4l39-.187 12.277-.083c4.979-.014 4.979-.014 7.316-.016q2.427-.007 4.856-.03c2.464-.023 4.927-.026 7.39-.025l2.156-.032c6.877.042 13.515 2.003 18.633 6.78 7.562 8.78 7.036 18.717 6.86 29.632q-.01 2.308-.015 4.616c-.026 5.657-.096 11.313-.16 16.97L298 100h-98zM40.477 3.512q2.668.014 5.338.021c4.652.02 9.304.068 13.957.124 4.76.051 9.519.074 14.279.099 9.317.053 18.633.138 27.949.244.278 11.483.491 22.964.622 34.45a1153 1153 0 0 0 .283 15.997c.13 5.148.202 10.295.234 15.445q.033 2.943.13 5.885c.472 14.864.472 14.864-3.318 19.999-8.716 6.095-19.776 5.113-29.935 4.908q-2.867-.02-5.733-.03c-4.992-.027-9.982-.096-14.973-.173-5.109-.072-10.217-.104-15.326-.14A4098 4098 0 0 1 4 100q-.106-14.852-.155-29.704-.022-6.897-.071-13.795c-.033-4.441-.05-8.882-.059-13.324q-.008-2.535-.032-5.071a727 727 0 0 1-.024-7.13l-.032-2.094c.042-6.817 2.048-13.445 6.781-18.51 8.974-7.737 18.922-7.033 30.069-6.86M200 103h98v93h-73l-3-11c-2.078-4.3-2.078-4.3-6-6l-2.625-1.125c-4.407-1.293-4.407-1.293-13.375-.875z"
  />
  <path
    fill="#eff3fe"
    d="M4 103h81a116 116 0 0 1-5.098 11.035c-2.92 6.358-2.903 14.07-1.183 20.762 4.002 10.65 10.753 15.57 20.844 20.205 5.557 2.276 11.354 3.893 17.14 5.476 17.056 4.744 17.056 4.744 21.297 11.522.493 3.778.112 7.541-2.238 10.625-7.76 6.738-16.749 6.019-26.41 5.57C98.606 187.303 87.196 181.985 79 175v-2h-2v23H4zM105 4h92v96c-38 0-38 0-48-5-14.072-5.506-29.244-5.108-44-3z"
  />
  <path
    fill="#926bfe"
    d="M159 99v26l-6.687-3.312c-11.344-5.377-25.431-9.863-37.903-5.856-2.86 1.381-5.163 2.921-7.41 5.168-.561 3.06-.505 5.934 0 9 4.563 5.821 13.938 7.424 20.777 9.375 18.108 5.18 18.108 5.18 26.223 10.625l1.813 1.207c4.94 3.693 8.257 9.002 10.187 14.793.942 12.366-.283 21.648-7.125 32.313-13.776 12.877-28.522 14.555-46.602 14.066C99.06 211.752 88.506 207.168 77 201v-28h2v2l1.516.75a514 514 0 0 1 6.093 3.125L90.75 181l2.055 1.078c7.84 3.994 14.93 5.283 23.695 5.297l2.434.074c5.809.028 10.225-1.163 15.066-4.449 2.32-2.754 2.91-4.464 3.5-8-.52-3.12-1.2-4.704-3.598-6.79-5.882-3.744-12.884-5.619-19.52-7.612-27.71-8.327-27.71-8.327-34.62-20.84-3.861-8.306-3.991-16.67-1.325-25.383 3.46-8.428 9.868-15.394 18.098-19.348L99 94l2.684-1.184C120.383 85.79 142.039 89.308 159 99"
  />
  <path
    fill="#e80404"
    d="M213.625 177.188c4.653 2.499 7.465 5.447 10.375 9.812.686 5.526.748 10.448-1.687 15.5-4.28 4.627-8.2 8.14-14.563 8.875-5.834-.583-10.032-2.612-14.125-6.812-3.24-5.108-4.368-9.485-3.625-15.563 1.85-5.439 5.376-8.774 10-12 4.881-1.627 8.744-1.411 13.625.188"
  />
  <path
    d="M0 0h25v1l-3.562.75C14.116 3.613 9.416 6.745 5 13c-1.945 3.96-3.339 7.635-4 12H0zm276 0h25v20c-1.074-1.61-2.136-3.232-3.113-4.902C293.81 8.178 289.64 4.815 282 2c-1.988-.398-3.987-.755-6-1zM0 277h1l.688 3.5C3.418 287.372 6.98 293.13 13 297c2.306 1.112 4.612 2.064 7 3v1H0zm300 5h1v19h-19c1.67-1.114 3.355-2.209 5.086-3.227 6.62-4.044 10.45-8.38 12.914-15.773"
  />
  <path fill="#d8d9df" d="M159 196h31l1 3h-33z" />
  <path fill="#d6d9de" d="m102 157 4 1-1 29-3-1z" />
</svg>
