<svg
  xmlns="http://www.w3.org/2000/svg"
  fill="none"
  data-colorful="true"
  data-type="icon"
  viewBox="0 0 56 56"
>
  <path fill="#fff" d="M0 0h56v56H0z" />
  <path
    fill="#000"
    d="M41.619 38.998h5.475V9.638l-10.863 6.698-10.857-6.592.041 12.616h5.476l-.041-3.563 5.477 3.262 5.291-3.262z"
  />
  <path
    fill="#000"
    d="M13.814 25.245c4.46-3.32 11.122-3.839 15.926 1.454l.015.018.015.019 14.676 19.626h-6.153L25.974 29.98c-2.608-2.785-6.233-2.708-8.834-1.023-2.601 1.684-4.106 4.927-2.48 8.466 2.393 5.204 9.856 5.252 12.376.173l.05-.102 3.236 4.215c-4.773 6.362-14.944 6.294-19.488-.885-3.836-6.062-1.482-12.258 2.98-15.58"
  />
</svg>
