<svg
  xmlns="http://www.w3.org/2000/svg"
  fill="none"
  data-colorful="true"
  data-type="icon"
  viewBox="0 0 20 20"
>
  <g clip-path="url(#a)">
    <path
      fill="#b3ddf2"
      d="m8.691 19.77-.255-9.66c-.513-.188 1.562-2.63 2.415-2.414 2.498-.628 5.214-4.605.255-7.554-15.003 0-13.359 18.447-2.415 19.629"
    />
    <path
      fill="#0055e9"
      d="M8.644 19.766C4.174 18.74-.202 12.483 5.15 6.87c1.229-1.084-1.226-4.283-3.237-2.52-5.344 7.39 1.684 15.435 6.73 15.415"
    />
    <path
      fill="#00bcff"
      d="M7.923 10.47c-.123.09 0-.05 0 0m0 0v.771c0 .103-.144.786-.205 1.08l.77 1.644s.514.154.566.205c.05.052.303.088.41.103l1.08.668 1.798-.257 2.312-.72 2.159-1.85.668-1.13.565-2.877-.103-1.336V5.589L16.76 3.431l-.616-.77-1.08-.977-.925-.565-.256-.155-.309-.102-.565-.206-1.798-.462c3.905 1.284 4.213 5.24 3.083 7.142-1.13 1.901-3.58 2.999-5.96 2.775z"
    />
    <path
      fill="#0055df"
      d="M8.95 19.772c3.494.924 11.147-2.412 11.048-9.558C20.255 7.028 17.28.69 12.444.451c5.392 1.098 7.452 11.003.464 13.463-3.495.873-4.78-1.799-4.522-3.7-3.596.182-5.503 7.892.564 9.558"
    />
  </g>
  <defs>
    <clipPath id="a">
      <path fill="#fff" d="M0 0h20v20H0z" />
    </clipPath>
  </defs>
</svg>
