<svg
  xmlns="http://www.w3.org/2000/svg"
  fill="none"
  data-colorful="true"
  data-type="icon"
  viewBox="0 0 20 20"
>
  <path
    fill="#0884dd"
    fill-rule="evenodd"
    d="m11.25 1.191 2.459 1.42-.003.005a1 1 0 0 1 .083.041c.603.348.369 1.413-.3 1.604a9.4 9.4 0 0 0-2.13.9 11.08 11.08 0 0 1 3.444 6.36 9.5 9.5 0 0 0 1.899-1.482c.487-.492 1.551-.167 1.551.526v2.757a2.5 2.5 0 0 1-1.25 2.165l-3.033 1.751-.01-.019c-.573.149-1.251-.57-1.07-1.172a9.4 9.4 0 0 0 .37-2.033A11.1 11.1 0 0 1 10 14.5c-1.165 0-2.287-.179-3.341-.511.047.693.17 1.365.358 2.009.18.615-.521 1.34-1.1 1.158l-.007.013-2.914-1.682a2.5 2.5 0 0 1-1.25-2.165v-2.756c0-.693 1.064-1.018 1.552-.526a9.5 9.5 0 0 0 1.827 1.439 11.08 11.08 0 0 1 3.436-6.317 9.4 9.4 0 0 0-2.08-.888c-.67-.194-.9-1.254-.296-1.602l.041-.022L8.75 1.19a2.5 2.5 0 0 1 2.5 0M8.506 3.257q.761.352 1.455.81.714-.47 1.498-.83l-1.042-.602a.83.83 0 0 0-.834 0zm-5.093 9.08v.985c0 .298.159.573.417.722l1.23.71a11 11 0 0 1-.09-1.417v-.039a11 11 0 0 1-1.557-.962m11.442 2.466 1.315-.76a.83.83 0 0 0 .417-.721v-.987q-.771.57-1.636 1.002 0 .746-.096 1.466m-1.63-2.535a9.4 9.4 0 0 1-3.226.566c-1.16 0-2.272-.21-3.3-.593a9.42 9.42 0 0 1 3.262-6.092 9.42 9.42 0 0 1 3.263 6.119"
    clip-rule="evenodd"
  />
  <path
    fill="#0884dd"
    d="M14.65 4.115a.833.833 0 0 0 .304 1.14l1.216.702a.83.83 0 0 1 .417.721v1.687a.833.833 0 1 0 1.666 0V6.678a2.5 2.5 0 0 0-1.25-2.165l-1.215-.702a.833.833 0 0 0-1.138.304M12.524 17.11a.833.833 0 0 1-.305 1.14l-.97.559a2.5 2.5 0 0 1-2.5 0l-.977-.565a.833.833 0 0 1 .833-1.443l.978.564a.83.83 0 0 0 .834 0l.969-.56a.833.833 0 0 1 1.138.306M2.58 9.208a.833.833 0 0 1-.834-.833V6.678a2.5 2.5 0 0 1 1.25-2.165l1.197-.69a.833.833 0 1 1 .833 1.443l-1.196.69a.83.83 0 0 0-.417.722v1.697c0 .46-.373.833-.833.833"
  />
</svg>
