<svg
  xmlns="http://www.w3.org/2000/svg"
  fill="none"
  data-colorful="true"
  data-type="icon"
  viewBox="0 0 20 20"
>
  <mask
    id="a"
    width="12"
    height="9"
    x="7"
    y="9"
    maskUnits="userSpaceOnUse"
    style="mask-type: luminance"
  >
    <path
      fill="#fff"
      d="M14.574 9.368c1.437.228 4.295 1.568 3.726 4.419l-.047.206a8.4 8.4 0 0 1-1.366 2.716c-.914 1.136-4.036 1.144-5.898.64-2.023-.547-3.484-1.825-3.589-1.919a4.7 4.7 0 0 0 2.895.995c2.626 0 4.754-2.15 4.754-4.802a4.8 4.8 0 0 0-.522-2.19.045.045 0 0 1 .047-.065"
    />
  </mask>
  <g mask="url(#a)">
    <path fill="#1652d8" d="M7.4 9.367h10.974v8.302H7.4z" />
  </g>
  <mask
    id="b"
    width="9"
    height="11"
    x="10"
    y="0"
    maskUnits="userSpaceOnUse"
    style="mask-type: luminance"
  >
    <path
      fill="#fff"
      d="m10.373.013 5.5 5.409.408.402a8.4 8.4 0 0 1 2.254 4.826.045.045 0 0 1-.086.024c-.698-1.506-1.925-1.951-3.399-2.283-1.12-.252-1.853-.618-2.177-.804l-.105-.066-.106-.064c-2.204-1.344-2.355-3.607-2.365-3.848V.045c0-.018.01-.035.027-.042a.05.05 0 0 1 .05.01"
    />
  </mask>
  <g mask="url(#b)">
    <path fill="#ea0100" d="M10.297 0h8.238v10.7h-8.238z" />
  </g>
  <mask
    id="c"
    width="15"
    height="19"
    x="2"
    y="1"
    maskUnits="userSpaceOnUse"
    style="mask-type: luminance"
  >
    <path
      fill="#fff"
      d="M8.37 1.875c.018.01.027.03.023.05-.06.254-.154.808-.093 1.565.073.897.363 2.081 1.187 3.4.518.829 1.246 1.712 2.264 2.61l.186.162.192.162c.465.483.724 1.128.722 1.799 0 1.426-1.145 2.583-2.557 2.583a2.53 2.53 0 0 1-1.59-.56.045.045 0 0 1 .042-.078q.136.044.276.044a.91.91 0 0 0 .607-1.579l-.09-.073a13.4 13.4 0 0 1-1.556-1.443A9.3 9.3 0 0 1 6.608 8.59a4.833 4.833 0 0 0 .784 6.838c.111.1 1.573 1.377 3.595 1.923 1.864.502 4.986.495 5.896-.637A8.25 8.25 0 0 1 10.296 20C5.714 20 2 16.25 2 11.623a8.4 8.4 0 0 1 2.304-5.794l.418-.412 3.595-3.534a.045.045 0 0 1 .054-.008"
    />
  </mask>
  <g mask="url(#c)">
    <path fill="#3cc8f9" d="M2 1.87h14.883V20H2z" />
  </g>
</svg>
