<svg width="710" height="664" viewBox="0 0 710 664" fill="none" xmlns="http://www.w3.org/2000/svg"> <path d="M688.343 188.024C686.304 181.522 683.801 175.177 680.854 169.036V168.641C667.098 140.554 644.29 117.954 616.129 104.509C587.968 91.0633 556.107 87.56 525.714 94.5672C495.32 101.574 468.177 118.681 448.687 143.112C429.197 167.544 418.503 197.867 418.34 229.163C418.342 239.006 419.4 248.819 421.493 258.435C421.503 258.567 421.503 258.699 421.493 258.831C422.282 262.786 423.464 266.742 424.647 270.698C431.682 298.564 433.051 327.566 428.672 355.974C424.293 384.383 414.256 411.615 399.159 436.045C384.063 460.475 364.217 481.602 340.806 498.165C317.395 514.729 290.899 526.389 262.898 532.451C234.898 538.512 205.968 538.85 177.835 533.444C149.702 528.039 122.942 517 99.1535 500.988C75.3647 484.976 55.0341 464.318 39.3753 440.247C23.7165 416.176 13.0505 389.186 8.01383 360.888C15.1362 409.941 32.4439 456.947 58.8164 498.861C85.1888 540.776 120.038 576.665 161.108 604.206C202.179 631.747 248.554 650.325 297.233 658.738C345.911 667.151 395.808 665.212 443.692 653.045C491.576 640.878 536.38 618.755 575.205 588.108C614.029 557.462 646.008 518.975 669.07 475.138C692.133 431.302 705.766 383.094 709.086 333.635C712.406 284.176 705.339 234.568 688.343 188.024Z" fill="url(#paint0_linear_204_3)"/> <path d="M128.239 307.088C173.963 373.939 268.562 368.006 268.562 368.006C244.912 345.063 229.54 324.098 227.963 264.366C226.387 204.635 192.488 188.812 192.488 188.812C253.19 150.442 231.511 108.907 229.54 62.6253C228.357 33.7486 245.306 12.3878 258.708 0.125122C181.573 11.7207 111.874 52.7473 64.1416 114.652C16.4094 176.557 -5.67205 254.561 2.50065 332.405C8.01896 316.977 86.0637 245.379 128.239 307.088Z" fill="url(#paint1_linear_204_3)"/> <path d="M688.343 188.024C686.304 181.522 683.801 175.177 680.854 169.036V168.641C667.098 140.554 644.29 117.954 616.129 104.509C587.968 91.0633 556.107 87.56 525.714 94.5672C495.32 101.574 468.177 118.681 448.687 143.112C429.197 167.544 418.503 197.867 418.34 229.163C418.342 239.006 419.4 248.819 421.493 258.435C421.503 258.567 421.503 258.699 421.493 258.831C422.282 262.786 423.464 266.742 424.647 270.698C431.682 298.564 433.051 327.566 428.672 355.974C424.293 384.383 414.256 411.615 399.159 436.045C384.063 460.475 364.217 481.602 340.806 498.165C317.395 514.729 290.899 526.389 262.898 532.451C234.898 538.512 205.968 538.85 177.835 533.444C149.702 528.039 122.942 517 99.1535 500.988C75.3647 484.976 55.0341 464.318 39.3753 440.247C23.7165 416.176 13.0505 389.186 8.01383 360.888C15.1362 409.941 32.4439 456.947 58.8164 498.861C85.1888 540.776 120.038 576.665 161.108 604.206C202.179 631.747 248.554 650.325 297.233 658.738C345.911 667.151 395.808 665.212 443.692 653.045C491.576 640.878 536.38 618.755 575.205 588.108C614.029 557.462 646.008 518.975 669.07 475.138C692.133 431.302 705.766 383.094 709.086 333.635C712.406 284.176 705.339 234.568 688.343 188.024Z" fill="url(#paint2_linear_204_3)"/> <path fill-rule="evenodd" clip-rule="evenodd" d="M629.615 283.355C629.615 455.726 490.377 595.46 318.619 595.46C227.446 595.46 145.437 556.087 88.5527 493.361C92.0073 496.007 95.5462 498.551 99.1652 500.987C122.954 516.999 149.714 528.037 177.847 533.443C205.98 538.849 234.91 538.511 262.91 532.449C290.91 526.388 317.407 514.728 340.818 498.164C364.229 481.6 384.075 460.473 399.171 436.043C414.267 411.613 424.304 384.381 428.683 355.973C433.062 327.565 431.694 298.562 424.658 270.696C423.476 266.741 422.293 262.785 421.505 258.829C421.514 258.698 421.514 258.565 421.505 258.434C419.411 248.818 418.354 239.004 418.352 229.162C418.515 197.865 429.208 167.543 448.698 143.111C468.188 118.68 495.332 101.573 525.725 94.5659C538.261 91.6759 551.045 90.5737 563.718 91.2195C605.006 144.191 629.615 210.889 629.615 283.355Z" fill="url(#paint3_linear_204_3)"/> <defs> <linearGradient id="paint0_linear_204_3" x1="655.036" y1="131.932" x2="150.086" y2="604.902" gradientUnits="userSpaceOnUse"> <stop stop-color="#6378FF"/> <stop offset="1" stop-color="#6312FF"/> </linearGradient> <linearGradient id="paint1_linear_204_3" x1="216.131" y1="-41.461" x2="-82.2573" y2="427.355" gradientUnits="userSpaceOnUse"> <stop stop-color="#0AA3F9"/> <stop offset="1" stop-color="#B5B4FF"/> </linearGradient> <linearGradient id="paint2_linear_204_3" x1="814.31" y1="679.892" x2="338.223" y2="72.8327" gradientUnits="userSpaceOnUse"> <stop stop-color="#0AA3F9"/> <stop offset="1" stop-color="#B5B4FF"/> </linearGradient> <linearGradient id="paint3_linear_204_3" x1="546.741" y1="91.1669" x2="106.813" y2="539.077" gradientUnits="userSpaceOnUse"> <stop stop-color="#7ABBFD"/> <stop offset="1" stop-color="#7ABBFD" stop-opacity="0"/> </linearGradient> </defs> </svg>