<svg xmlns="http://www.w3.org/2000/svg" fill="none" viewBox="0 0 1928 548">
  <path
    fill="url(#a)"
    d="M111.487 258.028c29.315 42.861 89.965 39.057 89.965 39.057-15.162-14.71-25.018-28.151-26.029-66.447-1.011-38.295-22.744-48.44-22.744-48.44 38.918-24.6 25.019-51.23 23.755-80.902-.758-18.514 10.108-32.209 18.701-40.07-49.454 7.433-94.14 33.737-124.743 73.426-30.602 39.689-44.76 89.7-39.52 139.607 3.538-9.89 53.575-55.794 80.615-16.231Z"
  />
  <path
    fill="url(#b)"
    d="M470.585 181.693a91.284 91.284 0 0 0-4.801-12.174v-.253a88.852 88.852 0 0 0-41.498-41.117 88.42 88.42 0 0 0-57.968-6.374 88.664 88.664 0 0 0-49.384 31.124 89.213 89.213 0 0 0-19.456 55.17 88.238 88.238 0 0 0 2.022 18.767 1.78 1.78 0 0 1 0 .253c.505 2.537 1.263 5.073 2.021 7.609a137.678 137.678 0 0 1 2.581 54.673 137.53 137.53 0 0 1-18.921 51.336 137.018 137.018 0 0 1-37.412 39.827 136.49 136.49 0 0 1-49.949 21.982 136.258 136.258 0 0 1-54.537.637 136.457 136.457 0 0 1-50.445-20.809 136.976 136.976 0 0 1-38.326-38.943 137.487 137.487 0 0 1-20.107-50.88 227.483 227.483 0 0 0 32.571 88.459 226.611 226.611 0 0 0 65.583 67.54 225.721 225.721 0 0 0 87.273 34.962 225.387 225.387 0 0 0 93.9-3.65 225.844 225.844 0 0 0 84.317-41.633 226.79 226.79 0 0 0 60.18-72.428 227.61 227.61 0 0 0 25.655-90.722 227.728 227.728 0 0 0-13.299-93.356Z"
  />
  <path
    fill="url(#c)"
    fill-rule="evenodd"
    d="M432.935 242.812c0 110.512-89.27 200.1-199.39 200.1-58.453 0-111.032-25.243-147.502-65.459a136.436 136.436 0 0 0 57.25 25.698 136.24 136.24 0 0 0 54.536-.637 136.48 136.48 0 0 0 49.949-21.981 137.009 137.009 0 0 0 37.412-39.828 137.485 137.485 0 0 0 18.921-51.335 137.677 137.677 0 0 0-2.58-54.673c-.758-2.537-1.516-5.073-2.022-7.609a1.78 1.78 0 0 0 0-.253 88.37 88.37 0 0 1-2.022-18.768 89.215 89.215 0 0 1 19.457-55.169 88.656 88.656 0 0 1 49.384-31.124 88.38 88.38 0 0 1 24.358-2.146c26.471 33.962 42.249 76.724 42.249 123.184Z"
    clip-rule="evenodd"
  />
  <path
    fill="#111824"
    d="M843.61 209.56c-1.297-12.14-6.765-21.593-16.404-28.359-9.546-6.765-21.964-10.148-37.256-10.148-10.751 0-19.972 1.622-27.665 4.865-7.692 3.244-13.577 7.646-17.655 13.207-4.078 5.561-6.163 11.909-6.255 19.045 0 5.932 1.343 11.075 4.031 15.431 2.78 4.356 6.534 8.063 11.26 11.121 4.727 2.966 9.963 5.468 15.709 7.507a168.95 168.95 0 0 0 17.377 5.144l26.691 6.673c10.751 2.502 21.085 5.885 31.001 10.148 10.009 4.263 18.953 9.638 26.83 16.126 7.971 6.487 14.273 14.319 18.907 23.494 4.634 9.175 6.95 19.925 6.95 32.251 0 16.682-4.263 31.372-12.789 44.069-8.526 12.604-20.853 22.474-36.978 29.61-16.034 7.044-35.45 10.566-58.248 10.566-22.15 0-41.381-3.43-57.692-10.288-16.219-6.858-28.916-16.867-38.091-30.027-9.082-13.161-13.994-29.194-14.736-48.1h50.741c.742 9.917 3.8 18.165 9.176 24.745 5.375 6.58 12.372 11.492 20.991 14.736 8.712 3.243 18.443 4.865 29.194 4.865 11.214 0 21.037-1.668 29.471-5.004 8.526-3.429 15.199-8.156 20.018-14.18 4.82-6.117 7.276-13.253 7.368-21.409-.092-7.414-2.27-13.53-6.533-18.35-4.264-4.912-10.241-8.989-17.934-12.233-7.599-3.337-16.496-6.302-26.691-8.897l-32.391-8.341c-23.447-6.024-41.983-15.153-55.606-27.386-13.531-12.327-20.297-28.684-20.297-49.073 0-16.775 4.542-31.464 13.624-44.069 9.175-12.604 21.64-22.381 37.395-29.332 15.756-7.044 33.596-10.565 53.522-10.565 20.204 0 37.905 3.521 53.104 10.565 15.292 6.951 27.294 16.636 36.005 29.054 8.712 12.327 13.207 26.506 13.485 42.539H843.61Zm191.81 210.61c-21.41 0-39.9-4.448-55.469-13.345-15.478-8.99-27.387-21.687-35.728-38.091-8.341-16.496-12.511-35.912-12.511-58.248 0-21.964 4.17-41.241 12.511-57.83 8.434-16.682 20.204-29.657 35.311-38.925 15.106-9.361 32.856-14.041 53.246-14.041 13.16 0 25.58 2.132 37.25 6.395 11.77 4.171 22.15 10.658 31.14 19.462 9.09 8.805 16.22 20.019 21.41 33.642 5.19 13.531 7.79 29.657 7.79 48.378v15.431H955.345v-33.92h126.785c-.09-9.639-2.18-18.211-6.26-25.718-4.08-7.6-9.78-13.577-17.1-17.933-7.23-4.356-15.66-6.534-25.3-6.534-10.29 0-19.32 2.502-27.11 7.507-7.781 4.912-13.852 11.399-18.207 19.462-4.264 7.97-6.442 16.728-6.534 26.274v29.611c0 12.419 2.27 23.077 6.812 31.974 4.541 8.804 10.889 15.569 19.049 20.296 8.15 4.634 17.7 6.951 28.63 6.951 7.32 0 13.95-1.02 19.88-3.059 5.93-2.131 11.08-5.236 15.43-9.314 4.36-4.077 7.65-9.128 9.87-15.152l46.99 5.282c-2.96 12.419-8.62 23.262-16.96 32.53-8.25 9.175-18.81 16.311-31.69 21.409-12.89 5.004-27.62 7.506-44.21 7.506Zm198.97.14c-13.54 0-25.72-2.41-36.57-7.229-10.75-4.912-19.27-12.141-25.57-21.687-6.21-9.546-9.32-21.316-9.32-35.31 0-12.048 2.23-22.011 6.67-29.889 4.45-7.877 10.52-14.179 18.22-18.906 7.69-4.726 16.35-8.295 25.99-10.704 9.73-2.503 19.79-4.31 30.17-5.422 12.51-1.297 22.66-2.456 30.44-3.475 7.79-1.112 13.44-2.781 16.96-5.005 3.62-2.317 5.42-5.885 5.42-10.704v-.834c0-10.473-3.1-18.582-9.31-24.328-6.21-5.746-15.15-8.619-26.83-8.619-12.33 0-22.1 2.688-29.33 8.063-7.14 5.375-11.96 11.724-14.46 19.045l-46.99-6.673c3.71-12.975 9.83-23.818 18.35-32.53 8.53-8.804 18.95-15.384 31.28-19.74 12.33-4.448 25.95-6.673 40.87-6.673 10.29 0 20.53 1.205 30.72 3.615 10.2 2.409 19.51 6.394 27.95 11.955 8.43 5.468 15.2 12.929 20.29 22.382 5.19 9.453 7.79 21.269 7.79 35.449V416h-48.38v-29.332h-1.67c-3.06 5.931-7.37 11.492-12.93 16.681-5.46 5.098-12.37 9.222-20.71 12.373-8.25 3.058-17.93 4.588-29.05 4.588Zm13.06-36.979c10.1 0 18.86-1.992 26.28-5.978 7.41-4.077 13.11-9.453 17.1-16.126 4.07-6.672 6.11-13.948 6.11-21.825V314.24c-1.57 1.297-4.26 2.502-8.06 3.614-3.71 1.112-7.88 2.086-12.51 2.92-4.64.834-9.22 1.575-13.76 2.224-4.55.649-8.48 1.205-11.82 1.668-7.51 1.02-14.23 2.688-20.16 5.005-5.93 2.317-10.61 5.56-14.04 9.731-3.43 4.078-5.14 9.36-5.14 15.848 0 9.268 3.38 16.265 10.15 20.991 6.76 4.727 15.38 7.09 25.85 7.09Zm200.6-252.037V416h-50.32V131.294h50.32Zm144.89 288.876c-20.85 0-38.92-4.587-54.21-13.762s-27.16-22.011-35.59-38.508c-8.34-16.496-12.51-35.773-12.51-57.831 0-22.057 4.17-41.38 12.51-57.969 8.43-16.59 20.3-29.472 35.59-38.647 15.29-9.175 33.36-13.763 54.21-13.763 20.86 0 38.93 4.588 54.22 13.763s27.11 22.057 35.45 38.647c8.43 16.589 12.65 35.912 12.65 57.969 0 22.058-4.22 41.335-12.65 57.831-8.34 16.497-20.16 29.333-35.45 38.508-15.29 9.175-33.36 13.762-54.22 13.762Zm.28-40.314c11.31 0 20.76-3.105 28.36-9.314 7.6-6.302 13.25-14.736 16.96-25.301 3.8-10.566 5.7-22.336 5.7-35.311 0-13.067-1.9-24.884-5.7-35.449-3.71-10.658-9.36-19.138-16.96-25.44-7.6-6.302-17.05-9.453-28.36-9.453-11.58 0-21.22 3.151-28.91 9.453-7.6 6.302-13.3 14.782-17.1 25.44-3.71 10.565-5.56 22.382-5.56 35.449 0 12.975 1.85 24.745 5.56 35.311 3.8 10.565 9.5 18.999 17.1 25.301 7.69 6.209 17.33 9.314 28.91 9.314Zm313.52-120.945-45.88 5.005c-1.29-4.634-3.56-8.99-6.81-13.068-3.15-4.077-7.41-7.368-12.79-9.87-5.37-2.502-11.95-3.753-19.74-3.753-10.47 0-19.28 2.27-26.41 6.812-7.04 4.541-10.52 10.426-10.43 17.655-.09 6.209 2.18 11.26 6.81 15.152 4.73 3.893 12.52 7.09 23.36 9.593l36.42 7.785c20.21 4.355 35.22 11.26 45.04 20.713 9.92 9.453 14.92 21.826 15.02 37.117-.1 13.439-4.03 25.301-11.82 35.589-7.69 10.194-18.4 18.164-32.11 23.91-13.72 5.746-29.47 8.619-47.27 8.619-26.13 0-47.17-5.467-63.11-16.403-15.94-11.029-25.44-26.367-28.5-46.015l49.07-4.726c2.23 9.638 6.95 16.913 14.18 21.825 7.23 4.912 16.64 7.368 28.22 7.368 11.96 0 21.55-2.456 28.78-7.368 7.32-4.912 10.98-10.982 10.98-18.211 0-6.117-2.36-11.168-7.09-15.153-4.63-3.985-11.86-7.043-21.69-9.175l-36.42-7.646c-20.48-4.263-35.63-11.446-45.46-21.547-9.82-10.195-14.69-23.077-14.59-38.647-.1-13.16 3.47-24.56 10.7-34.198 7.32-9.731 17.47-17.238 30.45-22.521 13.06-5.375 28.12-8.063 45.18-8.063 25.02 0 44.71 5.329 59.08 15.987 14.46 10.658 23.4 25.069 26.83 43.234Z"
  />
  <defs>
    <linearGradient
      id="a"
      x1="167.837"
      x2="-23.469"
      y1="34.563"
      y2="335.135"
      gradientUnits="userSpaceOnUse"
    >
      <stop stop-color="#0AA3F9" />
      <stop offset="1" stop-color="#B5B4FF" />
    </linearGradient>
    <linearGradient
      id="b"
      x1="551.346"
      x2="246.112"
      y1="497.045"
      y2="107.841"
      gradientUnits="userSpaceOnUse"
    >
      <stop stop-color="#0AA3F9" />
      <stop offset="1" stop-color="#B5B4FF" />
    </linearGradient>
    <linearGradient
      id="c"
      x1="379.802"
      x2="97.75"
      y1="119.595"
      y2="406.764"
      gradientUnits="userSpaceOnUse"
    >
      <stop stop-color="#7ABBFD" />
      <stop offset="1" stop-color="#7ABBFD" stop-opacity="0" />
    </linearGradient>
  </defs>
</svg>
