<svg xmlns="http://www.w3.org/2000/svg" fill="none" viewBox="0 0 190 218">
  <path
    fill="#fff"
    stroke="#605d5d"
    stroke-width=".6"
    d="M94.85 181.55v28.1l-84.31-48.8v-27.61zm83.64-19.96-83.04 48.06v-28.1l83.04-47.58zm-.3-28.14-83.04 47.58-84.31-48.31 83.04-48.06z"
  />
  <path
    fill="#f4f4f5"
    stroke="#605d5d"
    stroke-width=".6"
    d="M94.85 146.62v28.1l-84.31-48.8v-27.6zm83.64-19.96-83.04 48.06v-28.1l83.04-47.57zm-.3-28.13L95.14 146.1 10.84 97.8l83.04-48.06z"
  />
  <path
    fill="#fff"
    stroke="#005bff"
    stroke-width="1.2"
    d="M94.55 111.87v27.4L10.84 90.82V63.9zm83.64-20.31-82.44 47.71v-27.4l82.44-47.23zm-.61-27.96-82.43 47.23-83.7-47.97 82.43-47.71z"
  />
  <path
    stroke="#dbdbdb"
    stroke-width=".6"
    d="M94.42 107.97v107.1L2.7 162.12V56.22zm92.3 54.15-91.7 52.95v-107.1l91.7-51.75zm-.3-106.42-91.7 51.75L3.02 55.7l91.7-52.94z"
  />
  <path
    fill="#fafafa"
    stroke="#605d5d"
    stroke-width=".36"
    d="M5.44 54.6v2.8L3 58.8.58 57.4v-2.8l2.43-1.4zM188.51 54.6v2.8l-2.43 1.4-2.42-1.4v-2.8l2.42-1.4zM96.97 106.4v2.8l-2.42 1.4-2.43-1.4v-2.8l2.43-1.4zM96.97 1.6v2.81l-2.42 1.4-2.43-1.4v-2.8L94.55.2zM5.44 160.6v2.8L3 164.8l-2.43-1.4v-2.8l2.43-1.4zM188.51 160.6v2.8l-2.43 1.4-2.42-1.4v-2.8l2.42-1.4zM96.97 213.59v2.8l-2.42 1.4-2.43-1.4v-2.8l2.43-1.4z"
  />
  <path
    stroke="#605d5d"
    stroke-width=".6"
    d="M3.01 159.59V59.02M186.08 159.59V59.02"
  />
</svg>
