<svg xmlns="http://www.w3.org/2000/svg" fill="none" viewBox="0 0 190 218">
  <path
    stroke="#605d5d"
    stroke-dasharray="1.2 1.2"
    stroke-width=".6"
    d="M93.94 4.82V108.4m0 0L2.41 162.6m91.53-54.2 92.75 54.2"
  />
  <path
    fill="#fafafa"
    stroke="#605d5d"
    stroke-dasharray="1.2 1.2"
    stroke-width=".6"
    d="M.26.15h104.58v104.58H.26z"
    transform="matrix(.87 -.5 0 1 30.15 70.79)"
  />
  <g stroke="#005bff" stroke-width="1.2" filter="url(#a)">
    <path
      fill="#fff"
      d="M.52.3H104.5v103.98H.52z"
      transform="matrix(.87 -.5 0 1 63.9 91.4)"
    />
    <path
      fill="#f4f4f5"
      d="M.52.3h72.36v8.42H.52z"
      transform="matrix(.87 -.5 0 1 75.6 104.46)"
    />
    <path
      fill="#f4f4f5"
      d="M.52.3h47.61v8.42H.52z"
      transform="matrix(.87 -.5 0 1 75.6 120.95)"
    />
  </g>
  <path
    stroke="#dbdbdb"
    stroke-width=".6"
    d="M94.42 107.97v107.1L2.7 162.12V56.22zm92.3 54.15-91.7 52.95v-107.1l91.7-51.75zm-.3-106.42-91.7 51.75L3.02 55.7l91.7-52.94z"
  />
  <path
    fill="#fafafa"
    stroke="#605d5d"
    stroke-width=".36"
    d="M5.44 54.6v2.8L3 58.8.58 57.4v-2.8l2.43-1.4zM188.51 54.6v2.8l-2.43 1.4-2.42-1.4v-2.8l2.42-1.4zM96.97 106.4v2.8l-2.42 1.4-2.43-1.4v-2.8l2.43-1.4zM96.97 1.6v2.81l-2.42 1.4-2.43-1.4v-2.8L94.55.2zM5.44 160.6v2.8L3 164.8l-2.43-1.4v-2.8l2.43-1.4zM188.51 160.6v2.8l-2.43 1.4-2.42-1.4v-2.8l2.42-1.4zM96.97 213.59v2.8l-2.42 1.4-2.43-1.4v-2.8l2.43-1.4z"
  />
  <path
    stroke="#605d5d"
    stroke-width=".6"
    d="M3.01 159.59V59.02M186.08 159.59V59.02"
  />
  <defs>
    <filter
      id="a"
      width="93.5"
      height="157.78"
      x="61.43"
      y="38.54"
      color-interpolation-filters="sRGB"
      filterUnits="userSpaceOnUse"
    >
      <feFlood flood-opacity="0" result="BackgroundImageFix" />
      <feColorMatrix
        in="SourceAlpha"
        result="hardAlpha"
        values="0 0 0 0 0 0 0 0 0 0 0 0 0 0 0 0 0 0 127 0"
      />
      <feOffset dx="-2.41" />
      <feComposite in2="hardAlpha" operator="out" />
      <feColorMatrix
        values="0 0 0 0 0.857372 0 0 0 0 0.857372 0 0 0 0 0.857372 0 0 0 1 0"
      />
      <feBlend in2="BackgroundImageFix" result="effect1_dropShadow_3299_4827" />
      <feBlend
        in="SourceGraphic"
        in2="effect1_dropShadow_3299_4827"
        result="shape"
      />
    </filter>
  </defs>
</svg>
