<svg xmlns="http://www.w3.org/2000/svg" fill="none" viewBox="0 0 1440 350">
  <g clip-path="url(#a)">
    <g mask="url(#mask0_2870_20957)">
      <path
        stroke="#005bff"
        stroke-dasharray="3 3"
        d="m309.223 445.888-2.42-1.721.289-.407-2.42-1.721-.289.407-2.42-1.72.288-.409-2.42-1.72-.289.407-2.42-1.721.289-.407-2.42-1.721-.289.407-2.42-1.72.29-.408-2.421-1.721-.289.408-2.42-1.722.289-.407-2.42-1.721-.289.408-2.42-1.721.289-.408-2.421-1.721-.289.408-2.42-1.721.289-.408-2.42-1.72-.289.407-2.42-1.721.289-.408-.84-.598.524-.914-.433-.248 1.5-2.616.434.249 1.5-2.616-.433-.248 1.5-2.616.434.249 1.5-2.617-.434-.248 1.501-2.616.434.249 1.5-2.615-.434-.249 1.501-2.614.434.247 1.5-2.616-.434-.249 1.501-2.614.433.248 1.501-2.616-.434-.249 1.501-2.614.433.248 1.501-2.616-.434-.248 1.501-2.616.433.248 1.501-2.615-.434-.249 1.5-2.615.434.248 1.501-2.615-.434-.249 1.5-2.616.434.249 1.501-2.616-.434-.249 1.5-2.615.434.249 1.501-2.616-.434-.247 1.5-2.617.434.249 1.5-2.616-.433-.248 1.501-2.616.433.248 1.5-2.615-.433-.248 1.5-2.616.434.248 1.5-2.616-.433-.248 1.5-2.616.434.249 1.5-2.616-.434-.248 1.501-2.616.433.249 1.5-2.616-.433-.249 1.501-2.616.433.249 1.5-2.615-.433-.249 1.501-2.614.433.247 1.5-2.615-.432-.248 1.5-2.616.432.248 1.501-2.616-.432-.248 1.5-2.615.432.248 1.501-2.616-.433-.248 1.501-2.616.432.248 1.501-2.615-.433-.249 1.5-2.615.433.248 1.501-2.615-.433-.249 1.501-2.614.432.248 1.501-2.617-.433-.248 1.501-2.615.432.248 1.501-2.616-.433-.247 1.501-2.616.432.248 1.5-2.616-.432-.248 1.5-2.616.433.248 1.5-2.615-.432-.248 1.5-2.616.433.249 1.5-2.616-.432-.248 1.5-2.617.433.249 1.5-2.616-.432-.247 1.5-2.617.433.249.656-1.143 1.242-.417-.16-.473 2.843-.954.159.473 2.844-.954-.158-.473 2.844-.954.158.473 2.844-.953-.159-.474 2.844-.954.158.474 2.843-.954-.158-.474 2.843-.954.159.474 2.844-.955-.159-.473 2.844-.953.158.472 2.844-.953-.158-.473 2.844-.954.157.473 2.844-.954-.158-.474 2.842-.954.159.474 2.844-.954-.159-.474 2.844-.954.159.474 2.844-.954-.158-.473 2.842-.954.159.474 2.843-.955-.158-.473 2.844-.954.158.473 2.844-.954-.159-.473 2.843-.955.16.474 2.842-.954-.158-.474 2.844-.953.158.473 2.844-.953-.158-.474 2.843-.954.159.474 2.843-.954-.159-.474 2.844-.954.158.473 2.844-.954-.158-.472 2.843-.954.159.472 2.843-.953-.158-.473 2.844-.955.158.474 2.843-.954-.157-.474 2.841-.954.16.474 2.843-.954-.158-.473 2.844-.954.158.473 2.844-.954-.158-.473 2.843-.954.159.473 2.842-.954-.158-.473 2.844-.954.158.473 2.844-.954-.159-.474 2.843-.954.16.474 2.843-.954-.158-.473 2.844-.954.157.473 2.844-.953-.158-.474 2.843-.954.159.474 2.843-.955-.159-.473 2.844-.954.159.473 2.843-.954-.158-.473 2.843-.953.159.472 2.843-.953-.158-.474 2.844-.954.158.474 2.844-.954-.158-.474 2.842-.954.159.474 2.843-.954-.158-.473 2.844-.954.158.473 2.844-.955-.158-.472 2.843-.954.159.473 1.238-.415 1.182.523.203-.457 2.718 1.203-.203.456 2.72 1.203.202-.456 2.72 1.203-.203.456 2.72 1.202.202-.456 2.719 1.203-.203.456 2.72 1.204.203-.457 2.718 1.203-.202.457 2.72 1.202.202-.456 2.719 1.202-.203.457 2.72 1.203.202-.457 2.719 1.203-.202.456 2.719 1.203.204-.457 2.717 1.203-.202.457 2.72 1.203.202-.456 2.72 1.202-.203.457 2.719 1.203.203-.457 2.718 1.203-.202.456 2.72 1.203.202-.456 2.719 1.202-.202.457 2.719 1.202.203-.456 2.719 1.203-.203.457 2.72 1.203.202-.457h.001l2.718 1.203-.202.456 2.719 1.203.202-.456 2.72 1.202-.203.457 2.72 1.203.202-.457 2.72 1.202-.203.457 2.718 1.203.204-.457 2.718 1.204-.202.457 2.719 1.202.203-.456 2.72 1.202-.203.457 2.718 1.203.203-.457 2.719 1.203-.202.456 2.719 1.203.203-.457 2.719 1.203-.203.457 2.719 1.203.203-.457 2.72 1.203-.203.457 2.719 1.203.202-.457 2.72 1.203-.203.456 2.719 1.203.203-.457 2.719 1.203-.202.457 2.719 1.202.203-.457 2.719 1.203-.203.457 2.719 1.204.203-.457 2.719 1.203-.202.456 1.012.448-.16 1.089.495.072-.427 2.931-.001-.001-.494-.072-.429 2.928.495.073-.428 2.93-.495-.073-.429 2.93.496.072-.428 2.931-.001-.001-.494-.073-.429 2.93.495.072-.428 2.93-.495-.073-.428 2.929.495.073-.428 2.93-.495-.073-.429 2.93.495.072-.427 2.931-.001-.001-.495-.073-.428 2.929.495.072-.428 2.931-.495-.073-.429 2.93.495.072-.427 2.93-.001-.001-.495-.072-.428 2.929.495.073-.428 2.93-.496-.073-.428 2.929.495.073-.427 2.93-.001-.001-.495-.072-.428 2.93.495.072-.428 2.93-.496-.074-.428 2.93.496.072-.428 2.931-.496-.073-.428 2.929.495.073-.428 2.93-.001-.001-.495-.072-.427 2.929.495.073-.428 2.93-.001-.001-.495-.072-.428 2.929.495.073-.427 2.93-.001-.001-.496-.072-.427 2.93.494.072.001.001-.428 2.929-.001-.001-.495-.073-.428 2.93.495.073-.427 2.93-.001-.001-.495-.072-.428 2.929.494.073.001.001-.428 2.929-.001-.001-.495-.073-.428 2.93.495.073-.427 2.93-.001-.001-.495-.073-.428 2.93.494.072.001.001-.428 2.93-.001-.001-.495-.072-.428 2.929.496.073-.428 2.929h-.001l-.495-.073-.428 2.93.495.073-.428 2.93-.001-.001-.495-.072-.427 2.929.494.073.001.001-.428 2.928-.001-.001-.495-.072-.428 2.93.495.073-.427 2.93-.001-.001-.496-.073-.427 2.93.494.072.001.001-.428 2.93-.001-.001-.495-.072-.173 1.186-1.143.537.212.454-2.72 1.279-.213-.452-2.721 1.279.213.453-2.722 1.279-.213-.453-2.72 1.281.213.452-2.721 1.28-.213-.453-2.721 1.28.213.452-2.72 1.281-.214-.454-2.721 1.28.213.453-2.721 1.279-.213-.452-2.72 1.279.212.453-2.721 1.28-.213-.452-2.721 1.279.214.453-2.722 1.279-.213-.453-2.72 1.28.213.453-2.722 1.28-.212-.453-2.722 1.28.213.452-2.72 1.279-.213-.452-2.721 1.28.213.453-2.722 1.279-.212-.452-2.721 1.279.213.453-2.721 1.28-.213-.453-2.721 1.28.213.452-2.721 1.28-.212-.453-2.722 1.28.213.452-2.72 1.281-.214-.453-2.721 1.279.213.453-2.72 1.279-.213-.452-2.722 1.279.213.454-2.721 1.279-.213-.452-2.72 1.279.213.452v.001l-2.721 1.279-.213-.453-2.721 1.281.213.453-2.722 1.279-.212-.453-2.721 1.28.213.452-2.72 1.281-.001-.001-.213-.453-2.721 1.28.212.453-2.719 1.28-.214-.453-2.721 1.279.213.453-2.721 1.28-.213-.452-2.72 1.279.213.452-2.722 1.28-.213-.453-2.721 1.28.213.453-2.72 1.28-.001-.001-.212-.452-2.721 1.28.213.452-2.721 1.28-.214-.453-2.721 1.28.213.453-2.72 1.279-.213-.452-2.721 1.279.213.452.001.001-2.723 1.28-.213-.453-2.72 1.28.214.453-2.722 1.279-.213-.453-2.721 1.28.213.452-2.721 1.281-.212-.453-2.722 1.279.213.453-2.72 1.28-.001-.001-.213-.452-2.721 1.279.213.454-2.72 1.279-.213-.452-2.722 1.279.214.453-2.722 1.279-.213-.453-2.72 1.281.213.452.001.001-2.722 1.279-.213-.453-2.722 1.28.213.452.001.001-2.721 1.28-.213-.454-2.721 1.28.213.453-2.721 1.279-.213-.452-2.721 1.279.212.453-2.719 1.281-.001-.001-.213-.452-2.721 1.279.213.452.001.001-2.722 1.279-.213-.453-2.72 1.281.213.453-2.721 1.279-.214-.453-2.721 1.28.213.452-2.72 1.28-.213-.453-2.721 1.28.212.453-2.72 1.28-.214-.453-2.72 1.279.213.453-2.721 1.28-.213-.452-1.096.515-.973-.691-.288.407-2.421-1.721.29-.408-2.42-1.721-.29.408v.001l-2.419-1.722h-.001l.29-.407-2.421-1.721-.288.407-2.421-1.721.289-.408-2.42-1.72-.289.407-2.42-1.721h-.001l.29-.407-2.42-1.721-.289.407-2.42-1.72.288-.409-2.42-1.72-.289.407-2.42-1.721h-.001l.29-.407-2.42-1.721-.289.408-2.42-1.721.289-.408-2.42-1.721-.289.408-2.42-1.722.289-.407-2.42-1.72-.289.407-2.42-1.721.289-.408-2.421-1.721-.289.408-2.42-1.721.289-.408-2.42-1.72-.289.407-2.42-1.721.289-.408-2.421-1.721-.289.409-2.42-1.721.289-.408-2.42-1.721-.289.407-2.42-1.72.29-.409-2.42-1.72-.29.408-2.42-1.721.289-.408-2.42-1.721-.289.407-2.42-1.72.289-.408-2.42-1.721-.289.407-2.42-1.721h-.001l.29-.407-2.421-1.721-.288.408-2.421-1.721.289-.408-2.42-1.721-.289.407-2.42-1.72h-.001l.29-.408-2.421-1.72-.288.407-2.421-1.721.29-.408-2.42-1.721-.289.407-2.42-1.72h-.001l.29-.407-2.42-1.721-.289.407-2.42-1.721.288-.408-2.42-1.721zm315.094-26.675v-.002l.011.001v.001zM987.722 209.347l-1.102-2.794.464-.184-.375-.949.911-.399-.201-.457 2.702-1.186.2.457 2.702-1.185-.2-.457 2.7-1.186.201.457 2.702-1.184-.201-.458 2.705-1.186.2.458 2.7-1.186-.2-.457 2.7-1.185.2.457 2.7-1.186-.2-.457 2.7-1.185.2.457 2.71-1.186-.2-.457 2.7-1.185.2.457 2.7-1.185-.2-.457 2.7-1.186.2.458 2.7-1.186-.2-.457 2.7-1.186.2.457 2.71-1.185-.2-.457 2.7-1.186.2.457 2.7-1.185-.2-.457 2.7-1.186.2.458 2.7-1.185-.2-.457 2.7-1.186.2.457 2.71-1.185-.2-.457 2.7-1.186.2.457 2.7-1.185-.2-.457 2.7-1.186.2.457 1.18-.519 1.26.376.15-.478 2.87.855-.15.479 2.87.856.15-.478 2.87.856-.14.479 2.87.855.14-.478 2.87.856-.14.479 2.87.856.14-.478 2.87.856-.14.478 2.87.856.14-.478 2.87.856-.14.479 2.87.855.14-.478 2.87.856-.14.478 2.87.857.14-.479 2.87.856-.14.478 2.87.857.14-.479 2.87.857-.14.478 2.87.856.15-.479 2.87.857-.15.478 2.87.857.15-.479 2.87.857-.15.477 2.87.856.15-.478 2.87.856-.15.479 2.87.856.15-.478 2.87.855-.14.479 2.87.856.14-.478 2.87.855-.14.48 2.87.855.14-.478 2.87.856-.14.479 2.87.856.14-.479 2.87.856-.14.479 2.87.856.14-.478 2.87.855-.14.479 2.87.856.14-.479 2.87.857-.14.478 2.87.857.14-.479 2.88.856-.15.478 1.27.378.72 1.063.41-.281 1.65 2.422-.42.281 1.65 2.421.41-.28 1.64 2.422-.41.28 1.64 2.421.42-.28 1.64 2.422-.41.28 1.64 2.422.41-.28 1.65 2.421-.42.28 1.65 2.422.41-.28 1.65 2.42-.42.282 1.64 2.421.42-.281 1.64 2.422-.41.28 1.64 2.422.42-.281 1.64 2.422-.41.281 1.64 2.421.41-.28 1.65 2.421-.42.281 1.65 2.422.41-.28 1.64 2.421-.41.28 1.64 2.422.42-.281 1.64 2.422-.41.28 1.64 2.421.41-.279 1.65 2.421-.42.28 1.65 2.422.41-.28 1.65 2.421-.42.281 1.64 2.421.42-.28 1.64 2.421-.41.281 1.64 2.422.42-.282 1.64 2.422-.41.281 1.64 2.421.41-.281 1.65 2.422-.42.281.52.759-.88.511.26.432-2.64 1.543-.26-.431-2.64 1.543.26.431-2.64 1.544-.26-.432-2.64 1.544.26.431v.001l-2.64 1.543-.26-.432-2.64 1.544.26.431-2.64 1.543-.26-.431-2.64 1.543.26.432-2.64 1.544v-.001l-.26-.432-2.64 1.543.26.433-2.64 1.543-.26-.432-2.64 1.543.26.432-2.64 1.544-.26-.433-2.64 1.544.26.432-2.64 1.544-.25-.433-2.65 1.543.26.432v.001l-2.64 1.543-.26-.432-2.63 1.543.25.432-2.64 1.544-.25-.432-2.64 1.543.25.433-2.64 1.543v-.001l-.25-.432-2.64 1.544.25.432-2.64 1.543-.25-.432-2.64 1.544.25.431-2.64 1.544-.25-.432-2.64 1.543.25.431v.001l-2.64 1.543-.25-.431-1.12.654-1.21-.437-.17.472-2.87-1.029.17-.471-2.86-1.029-.17.471v.001l-2.87-1.03v-.001l.17-.469-2.86-1.03-.17.471-2.86-1.028.17-.472-2.87-1.028-.17.47-2.86-1.028.17-.472-2.87-1.028-.17.47v.001l-2.86-1.03.17-.47-2.86-1.03-.17.472-2.87-1.029.17-.471-2.86-1.029-.17.471-2.87-1.029v-.001l.17-.47-2.86-1.029-.17.471-2.86-1.028v-.001l.17-.471-2.87-1.028-.17.47-2.86-1.028.17-.472-2.87-1.028-.17.471-2.86-1.03.17-.47-2.87-1.03-.16.471v.001l-2.87-1.029.17-.471-2.86-1.029-.17.471-2.87-1.029.17-.471-2.86-1.029-.17.471-2.87-1.028v-.001l.17-.471-2.86-1.028-.17.47-2.86-1.028.17-.472-2.87-1.028-.17.471-2.86-1.03.17-.47-2.87-1.03-.17.471v.001l-2.86-1.029.17-.471-2.86-1.029-.17.47-2.87-1.028.17-.471-2.86-1.029-.17.471-2.87-1.029.17-.47-2.86-1.03-.17.471-2.86-1.029.16-.471-2.86-1.028-.17.471-2.86-1.03.17-.47-2.87-1.029-.17.471-2.86-1.029.17-.471-1.22-.438-.47-1.186-.46.183-1.11-2.794.47-.184-1.1-2.794-.47.184-1.1-2.794.46-.184-1.1-2.794-.46.184-1.1-2.795.46-.183-1.1-2.795-.47.185-1.1-2.795.47-.184-1.11-2.794-.46.184-1.1-2.794.46-.184-1.1-2.794-.47.184-1.1-2.795.47-.183-1.11-2.794-.46.183-1.103-2.794.463-.183-1.101-2.794-.464.183v.001l-1.102-2.795h-.001l.465-.183-1.103-2.795-.463.183-1.103-2.793h-.001l.465-.184-1.102-2.794-.465.184-1.101-2.794h-.001l.465-.184-1.103-2.794-.464.184-1.102-2.795h-.001l.465-.183-1.102-2.795-.465.184-1.102-2.793.465-.185-1.103-2.794zM66.803 396.042l-2.334-1.958.32-.384-2.332-1.958-.322.383v.001l-2.331-1.959h-.002l.322-.383-2.333-1.959-.322.383v.001l-2.333-1.958v-.001l.322-.383-.776-.651.657-.753-.376-.329 1.985-2.273.376.329 1.986-2.274-.377-.329 1.986-2.273.377.329 1.985-2.275-.377-.328 1.985-2.274.377.329 1.986-2.273-.377-.33 1.985-2.273.377.329 1.985-2.273-.376-.329 1.985-2.274.377.329 1.985-2.274-.377-.328 1.986-2.275.376.329 1.986-2.273-.377-.329 1.985-2.274.377.329 1.986-2.273-.377-.329 1.985-2.273.377.328 1.985-2.274-.377-.328 1.987-2.273.376.328 1.985-2.274-.376-.328 1.984-2.274.377.329 1.986-2.274-.377-.329 1.985-2.273.377.328 1.985-2.273-.376-.329 1.986-2.274.376.329 1.985-2.273-.376-.329 1.985-2.274.376.329 1.986-2.273-.376-.329 1.985-2.274.376.328 1.985-2.273-.376-.328 1.986-2.275.376.33.902-1.032 1.328-.424-.151-.477 2.925-.933.151.476 2.925-.934-.151-.475 2.923-.934.153.476 2.924-.934-.152-.475 2.924-.934.152.476 2.925-.934-.152-.476 2.925-.933.152.476 2.924-.933-.152-.477 2.925-.933.152.476 2.924-.933-.152-.477 2.925-.934.152.477 2.925-.934-.152-.476 2.924-.934.152.477 2.925-.934-.152-.475 2.925-.934.151.476 2.925-.934-.152-.477 2.925-.933.151.476 2.925-.933-.152-.476 2.924-.933.153.475 2.924-.933-.152-.476 2.925-.934.151.477 2.925-.934-.151-.476 2.924-.934.152.477 2.925-.934-.153-.476 2.925-.934.153.477 2.923-.934-.151-.477 2.924-.933.152.476 2.925-.933-.152-.477 2.924-.933.153.476 2.924-.933-.152-.477 2.925-.933.151.476 1.242-.395 1.114.705.266-.423h.001l2.625 1.66h-.001l-.267.422 2.624 1.66.268-.423 2.624 1.66-.268.422 2.624 1.66.268-.423h.001l2.624 1.66-.269.422 2.624 1.661.268-.423h.001l2.624 1.659h-.001l-.267.423 2.624 1.659.267-.422h.001l2.624 1.659h-.001l-.267.423 2.624 1.659.268-.422h.001l2.624 1.66-.269.422 2.624 1.66.268-.422 2.625 1.659h-.001l-.268.423 2.624 1.659.269-.423 2.624 1.66h-.001l-.267.422 2.624 1.66.267-.423h.001l2.624 1.661h-.001l-.267.422.876.554-.537.79.414.281-1.653 2.436-.414-.281-1.653 2.436.414.281-1.653 2.436-.414-.281-1.652 2.436.414.281-1.654 2.436-.414-.281-1.652 2.436.413.281.001.001-1.653 2.435-.414-.281-1.653 2.437.413.28.001.001-1.653 2.435-.414-.281-1.652 2.437.413.28.001.001-1.654 2.435-.414-.281-1.653 2.437.414.28.001.001-1.653 2.435-.414-.281-1.654 2.437.415.28v.001l-1.653 2.437-.001-.001-.413-.282-1.653 2.437.414.28-1.653 2.437v-.001l-.414-.281-1.653 2.436.414.281-1.652 2.437-.001-.001-.413-.281-1.654 2.436.415.281-1.653 2.437-.001-.001-.414-.281-1.652 2.436.414.281-1.652 2.437-.001-.001-.415-.28-1.652 2.435.413.281.001.001-1.652 2.436-.001-.001-.414-.28-1.653 2.435.414.281.001.001-1.653 2.436-.001-.001-.414-.28-.734 1.084-1.263.46.171.469-2.827 1.032-.172-.47-2.827 1.03.171.47.001.001-2.827 1.03-.001-.001-.171-.47-2.828 1.032.171.469-2.826 1.032-.001-.001-.172-.47-2.827 1.031.172.47-2.827 1.031-.001-.001-.171-.47-2.827 1.032.171.469-2.826 1.032-.001-.001-.171-.47-2.828 1.031.172.47-2.828 1.03-.171-.469-2.828 1.031.171.47-2.826 1.031-.001-.001-.171-.47-2.827 1.031.171.47-2.827 1.03-.172-.469-2.827 1.03.171.471-2.827 1.03-.171-.47-2.828 1.03.171.47.001.001-2.828 1.03-.172-.469-2.827 1.03.172.47.001.001-2.829 1.03-.171-.47-2.827 1.03.171.47.001.001-2.828 1.03-.171-.469-2.828 1.03.172.47-2.828 1.031-.172-.47-2.827 1.03.171.47.001.001-2.828 1.03-.171-.469-2.827 1.03.171.47-2.827 1.031-.172-.47-2.827 1.031.171.469.001.001-2.828 1.03-.171-.47-2.828 1.031.171.47-2.826 1.031-.001-.001-.172-.47-2.827 1.032.172.469-2.827 1.032-.001-.001-.171-.47-2.827 1.031.171.47-2.826 1.031-.001-.001-.171-.47-1.143.417-.945-.794-.321.383v.001l-2.333-1.958v-.001l.32-.383-2.332-1.959-.321.384v.001l-2.333-1.96h-.001l.322-.383-2.333-1.958-.322.383-2.333-1.958v-.001l.32-.383-2.332-1.958-.321.383v.001l-2.332-1.959h-.002l.322-.384-2.333-1.958-.322.383v.001l-2.332-1.958v-.001l.32-.383-2.332-1.959-.322.383v.001l-2.332-1.958v-.001l.32-.383-2.332-1.958-.322.383v.001L69.136 398l.322-.383-2.333-1.958z"
      />
      <path
        stroke="#dcdcdc"
        d="m-38.583 328.471 83.031-77.734 117.678-33.088 55.259 32.776-62.327 77.632-140.46 46.386z"
      />
      <path
        stroke="#005bff"
        stroke-dasharray="3 3"
        d="m617.548 294.555-2.682-1.246v-.001l.211-.453-2.681-1.246-.21.453-2.68-1.246.21-.454-2.68-1.247-.21.454-2.682-1.246v-.001l.211-.453-.981-.456.222-1.085-.489-.1.604-2.943.489.1.604-2.943-.489-.099.604-2.944.489.101.604-2.944-.489-.099.604-2.944.489.101.604-2.943-.489-.1.604-2.943.489.1.604-2.943-.489-.1.604-2.943.489.101.604-2.944-.489-.099.604-2.944.489.101.604-2.944-.489-.098.604-2.945.489.101.604-2.942-.489-.1.604-2.944.49.1.604-2.942-.49-.101.604-2.943.49.101.246-1.197 1.089-.396-.171-.47 2.706-.981.17.469 2.705-.981-.17-.471 2.705-.981.171.469 2.705-.981-.171-.47 2.705-.981.171.47 2.705-.982-.17-.471 2.706-.981.169.47 2.707-.982-.171-.469 2.705-.982.171.47 2.705-.982-.171-.47 2.706-.982.17.47 2.705-.981-.17-.47 2.706-.982.17.47 2.705-.981-.171-.471 2.705-.982.171.47 2.705-.981-.17-.47 2.705-.982.17.47 2.706-.981-.171-.471 2.705-.981.171.469 2.705-.981-.17-.47 2.706-.981.17.47 2.705-.983-.17-.47 2.705-.981.17.47 1.175-.425 1.184.465.184-.465h.001l2.719 1.07h-.001l-.182.466 2.719 1.07.185-.465 2.721 1.072h-.001l-.184.465 2.721 1.071.182-.466h.001l2.721 1.071h-.001l-.183.465 2.72 1.072.184-.465 2.721 1.07h-.001l-.183.466 2.72 1.07.183-.465h.001l2.72 1.072-.184.464 2.721 1.071.183-.465h.001l2.72 1.071h-.001l-.183.465 2.721 1.071.182-.466h.001l2.721 1.072-.184.465 2.72 1.071.184-.465h.001l2.719 1.07h-.001l-.182.466 2.719 1.07.184-.464h.001l2.721 1.071h-.001l-.184.465 2.721 1.071.182-.466h.001l2.721 1.072h-.001l-.183.464 2.72 1.072.184-.465 2.721 1.07h-.001l-.183.466 1.04.409-.013 1.127.501.006-.03 2.943-.001-.001-.5-.006-.03 2.944.5.005-.031 2.943-.5-.006-.03 2.944.5.004-.03 2.945-.001-.001-.5-.006-.03 2.943.5.005.001.001-.032 2.942-.5-.005-.03 2.943.5.005-.03 2.942-.5-.005-.031 2.944.5.005.001.001-.032 2.941-.5-.005-.03 2.943.5.005-.03 2.943-.5-.005-.03 2.942.5.006-.031 2.944-.501-.006-.03 2.942.5.006-.03 2.942-.5-.005-.012 1.144-1.06.447.196.461-2.721 1.152-.001-.001-.195-.46-2.722 1.15.194.461-2.72 1.151-.196-.461-2.721 1.151.195.461-2.723 1.15-.194-.461-2.723 1.152.196.459.001.001-2.722 1.151-.001-.001-.195-.46-2.722 1.15.194.461.001.001-2.721 1.151-.196-.461-2.721 1.15.194.461-2.722 1.15-.194-.461-2.723 1.152.196.46.001.001-2.723 1.15-.195-.461-2.722 1.151.194.461h.001l-2.721 1.151-.196-.461-2.721 1.15.194.461-2.722 1.151-.195-.461-2.722 1.151.196.46.001.001-2.723 1.15-.195-.461-2.722 1.151.195.462-2.721 1.15-.196-.461-2.721 1.151.194.461-2.721 1.151-.001-.001-.195-.46-2.722 1.15.196.46.001.001-2.723 1.152-.001-.001-.194-.461-1.157.489-1.139-.53-.209.454-2.682-1.246.211-.454-2.681-1.247-.21.454-2.68-1.247h-.001l.211-.453-2.681-1.248-.21.455-2.681-1.247v-.001l.211-.453-2.68-1.247-.211.454-2.68-1.247.21-.453-2.681-1.247-.211.453v.001l-2.678-1.247h-.001l.211-.453-2.681-1.247-.211.454-2.68-1.247.21-.454-2.68-1.246-.21.453-2.68-1.246.21-.454-2.681-1.246-.211.454-2.679-1.247.21-.454-2.681-1.247-.21.454-2.681-1.247.211-.454-2.68-1.246z"
      />
      <path
        stroke="#005bff"
        d="m1352.14 404.807-82.06-109.668 69.93-44.191 151.1 44.503 116.94 109.807-65.13 68.611z"
      />
      <path
        stroke="#005bff"
        stroke-dasharray="3 3"
        d="m810.064 287.703-.281-2.996v-.001l.497-.047-.281-2.997-.497.047v.001l-.281-2.997v-.001l.497-.047-.28-2.997-.499.047v.001l-.281-2.997v-.001l.498-.047-.281-2.997-.498.047v.001l-.28-2.998h-.001l.498-.047-.107-1.135 1.06-.453-.196-.459 2.789-1.192.196.46 2.79-1.193-.196-.459 2.79-1.191.196.459 2.789-1.192-.196-.459 2.79-1.192.196.46 2.79-1.192-.197-.459 2.791-1.192.195.459 2.79-1.191-.196-.46 2.789-1.191.197.459 2.789-1.192-.196-.459 2.791-1.191.195.459 2.79-1.192-.196-.459 2.789-1.192.197.46 2.79-1.192-.197-.459 2.79-1.192.197.459 2.789-1.191-.196-.459 2.789-1.193.197.46 2.79-1.191-.198-.46 2.791-1.191.196.459 2.79-1.192-.195-.459 2.789-1.191.196.459 2.789-1.192-.196-.46 2.79-1.191.196.459 2.79-1.192-.196-.458 2.789-1.193.196.46 1.215-.517 1.241.448.171-.47 2.855 1.033-.171.47 2.855 1.032.171-.47 2.854 1.034-.17.469 2.855 1.033.17-.469 2.854 1.032-.169.47 2.854 1.032.171-.469 2.854 1.033-.169.469 2.854 1.032.171-.469 2.855 1.033h-.001l-.17.47 2.855 1.033.17-.47 2.856 1.032-.172.47 2.856 1.033.17-.469 2.855 1.032h-.001l-.17.47 2.856 1.033.17-.47 2.855 1.032h-.001l-.17.47 2.855 1.033.171-.47 2.855 1.033h-.001l-.17.469 2.855 1.034.17-.47 2.856 1.032-.171.47 2.855 1.033.17-.47h.001l2.854 1.034-.171.469 2.856 1.032.17-.469h.001l2.854 1.032h-.001l-.17.471 2.856 1.032.17-.47h.001l2.854 1.032-.171.471 2.855 1.032.171-.469h.001l2.853 1.033-.17.47 2.855 1.032.17-.47h.001l2.854 1.033-.17.47 1.199.435.379 1.151.475-.156h.001l.912 2.766-.477.156.912 2.767.475-.156h.001l.912 2.766-.476.157.912 2.766.475-.157.911 2.767h-.001l-.474.157.912 2.767.476-.158.911 2.767h-.001l-.475.157.911 2.767.477-.158.911 2.767-.476.156.911 2.767.476-.155.912 2.765-.475.157.911 2.766.475-.155.912 2.765-.475.157.911 2.766.475-.156h.001l.912 2.767-.476.156.911 2.767.475-.157h.001l.911 2.768-.476.155.912 2.767.476-.157.911 2.768-.475.155.912 2.767.475-.156.911 2.767-.475.156.912 2.766.476-.156.911 2.767h-.001l-.475.156.912 2.766.476-.156.911 2.767-.476.156.325.984-.941.503.236.441-2.622 1.403-.236-.441-2.622 1.403.236.44-2.621 1.404-.001-.001-.236-.441-2.622 1.403.236.441-2.622 1.402-.236-.44-2.622 1.402.236.441.001.001-2.623 1.402-.236-.441-2.621 1.403.235.44.001.001-2.623 1.403-.236-.442-2.622 1.403.236.441-2.621 1.403-.001-.001-.236-.44-2.622 1.402.236.442-2.622 1.403v-.001l-.236-.44-2.622 1.402.235.44.001.001-2.623 1.403-.235-.442-2.622 1.404.235.44.001.001-2.621 1.402-.001-.001-.236-.44-2.622 1.402.236.442-2.621 1.403-.001-.001-.236-.44-2.622 1.402.236.441-2.622 1.403-.236-.442-2.622 1.404.236.44.001.001-2.623 1.402-.237-.441-2.622 1.403.237.441.001.001-2.622 1.402-.001-.001-.236-.44-2.622 1.402.236.441-2.622 1.404-.001-.001-.235-.441-2.622 1.403.235.44.001.001-2.622 1.403-.001-.001-.235-.441-1.097.588-1.118-.488-.199.459-2.68-1.169.198-.459-2.679-1.169-.198.459-2.68-1.169.198-.459-2.68-1.169-.199.459-2.679-1.169.199-.459-2.68-1.169-.199.459-2.68-1.169.199-.459-2.679-1.169-.2.459-2.679-1.169.199-.458-2.68-1.169-.199.458-2.68-1.169h-.001l.201-.458-2.68-1.169-.199.458-2.68-1.169h-.001l.199-.458-2.679-1.169-.199.458-2.68-1.168v-.001l.199-.458-2.68-1.169-.199.458-2.68-1.168.2-.458-2.68-1.169-.199.458-2.68-1.169h-.001l.2-.458-2.68-1.169-.199.458-2.68-1.168v-.001l.2-.458-2.68-1.169-.2.458v.001l-2.68-1.169v-.001l.2-.458-2.679-1.169-.2.458v.001l-2.68-1.169v-.001l.199-.458-2.68-1.169-.199.458v.001l-2.68-1.169v-.001l.2-.458-2.68-1.169-.2.458v.001l-2.68-1.169v-.001l.2-.458-2.679-1.169-.201.458v.001l-2.679-1.169v-.001l.2-.458-2.68-1.169-.199.459-2.68-1.169.2-.459-2.68-1.169-.199.459-2.68-1.169.199-.459-1.069-.465-.113-1.205-.498.046-.281-2.997h-.001l.498-.046-.281-2.998-.497.047-.281-2.998h-.001l.498-.046-.281-2.997-.498.046-.281-2.997h-.001l.498-.046-.281-2.997-.497.046v.001l-.281-2.997v-.001l.497-.046-.281-2.998-.498.047v.001l-.281-2.997v-.001l.498-.047-.281-2.997-.498.047v.001l-.281-2.997v-.001l.498-.047-.281-2.997-.498.047-.281-2.997h-.001l.498-.047-.281-2.997-.497.046-.281-2.997h-.001l.498-.046-.281-2.998z"
      />
      <path
        stroke="#005bff"
        d="m712.593 384.343 2.763-66.159 66.948-29.132 70.121 29.15 9.873 66.166-72.78 37.961z"
      />
      <path
        stroke="#dcdcdc"
        d="m691.002 319.459 2.932-38.904 44.23-18.003 43.868 17.999 2.134 38.893-46.811 21.325z"
      />
      <path
        fill="#dcdcdc"
        d="m486.089 250.936 12.852-32.578-33.572-15.098-47.449 15.098-17.072 32.578 34.55 17.595zm-83.357-.624 16.38-31.376 45.756-14.59 32.356 14.59-12.446 31.376-48.784 16.901z"
      />
      <path
        stroke="#605d5d"
        stroke-opacity=".5"
        d="m953.348 235.517-15.207-46.93 50.932-21.004 69.257 21.135 24.8 46.978-53.37 26.445z"
      />
      <path
        fill="#dcdcdc"
        d="m279.531 315.768 20.601-31.954-25.751-14.936-46.591 14.936-23.963 31.954 25.919 17.11zm-73.844-.601 23.033-30.775 44.946-14.427 24.821 14.427-19.91 30.775-47.902 16.439-24.964-16.439zM431.535 226.589l9.18-18.543-19.194-8.879-28.684 8.879-10.635 18.543 19.481 9.688zm-48.236-.347 10.229-17.85 27.659-8.554 18.503 8.554-8.87 17.85-28.732 9.318-18.765-9.318z"
      />
      <path
        stroke="#005bff"
        d="m324.251 386.374 20.631-38.804 48.911-18.095 31.267 17.906-16.437 38.776-52.426 21.096z"
      />
      <path
        stroke="#dcdcdc"
        d="m1332.93 430.199-46.47-66.147 41.27-29.071 87.98 29.38 57.72 66.214-40.36 37.334zM962.593 363.701l-13.605-48.226 43.43-21.89 59.272 22.023 20.56 48.242-45.21 26.667z"
      />
      <mask id="b" fill="#fff">
        <path
          d="m1187.43 206.358-14.67-20.278-33.59-9.641-20.53 9.641 12.8 20.278 35.22 10.682zm-55.2-.393-12.38-19.538 19.79-9.318 32.41 9.318 14.09 19.538-20 10.266z"
        />
      </mask>
      <path
        fill="#605d5d"
        fill-opacity=".3"
        d="m1187.43 206.358-14.67-20.278-33.59-9.641-20.53 9.641 12.8 20.278 35.22 10.682zm-55.2-.393-12.38-19.538 19.79-9.318 32.41 9.318 14.09 19.538-20 10.266z"
      />
      <path
        fill="#605d5d"
        fill-opacity=".5"
        d="m1187.43 206.358.46.889 1.03-.532-.68-.943zm-14.67-20.278.81-.586-.2-.28-.33-.095zm-33.59-9.641.27-.962-.36-.103-.34.159zm-20.53 9.641-.43-.905-1.02.482.6.957zm12.8 20.278-.84.534.2.315.35.108zm35.22 10.682-.29.957.39.117.36-.185zm-34.43-11.075-.85.535.2.314.36.108zm-12.38-19.538-.42-.905-1.03.483.61.957zm19.79-9.318.28-.961-.36-.104-.34.16zm32.41 9.318.81-.585-.2-.28-.34-.096zm14.09 19.538.46.889 1.03-.531-.68-.943zm-20 10.266-.29.957.38.117.36-.185zm21.29-9.873.81-.586-14.67-20.278-.81.586-.81.586 14.67 20.278zm-14.67-20.278.28-.961-33.6-9.642-.27.962-.28.961 33.6 9.641zm-33.59-9.641-.43-.906-20.53 9.642.43.905.42.905 20.53-9.641zm-20.53 9.641-.85.534 12.81 20.278.84-.534.85-.534-12.81-20.278zm12.8 20.278-.29.957 35.22 10.682.29-.957.29-.957-35.22-10.682zm35.22 10.682.46.889 20.77-10.682-.46-.889-.46-.89-20.77 10.683zm-34.43-11.075.84-.535-12.37-19.538-.85.535-.84.535 12.37 19.538zm-12.38-19.538.43.905 19.79-9.318-.43-.905-.42-.905-19.79 9.318zm19.79-9.318-.27.961 32.4 9.318.28-.961.27-.961-32.4-9.318zm32.41 9.318-.81.585 14.09 19.538.81-.585.81-.585-14.09-19.538zm14.09 19.538-.46-.89-20 10.266.46.89.45.889 20.01-10.266zm-20 10.266.29-.958-33.91-10.265-.29.957-.29.957 33.91 10.266z"
        mask="url(#b)"
      />
      <path
        stroke="#dcdcdc"
        d="m68.184 487.133 91.197-120.214 140.121-48.751 79.696 48.522-56.791 120.129-173.748 75.482z"
      />
      <path
        stroke="#005bff"
        stroke-dasharray="3 3"
        d="m118.951 272.598-2.66-1.79v-.001l.279-.414-2.658-1.791-.279.415v.001l-2.659-1.79v-.001l.28-.415-2.66-1.791-.278.416-2.658-1.791.278-.415-.836-.563.667-.697-.36-.345 2.158-2.252.361.345 2.157-2.252-.361-.346 2.159-2.251.36.345 2.158-2.252-.361-.346 2.159-2.252.359.346 2.159-2.252-.361-.346 2.158-2.252.361.346 2.157-2.252-.359-.346 2.157-2.252.36.345 2.158-2.252-.36-.345 2.157-2.252.361.345 2.158-2.252-.36-.344 2.157-2.253.361.345 2.157-2.252-.36-.345 2.158-2.251.361.344 2.158-2.252-.362-.345 2.159-2.251.36.345 2.158-2.252-.361-.346 2.159-2.252.359.346.986-1.027 1.265-.355-.133-.482 2.796-.781.135.482 2.797-.783-.134-.48 2.796-.782.135.481 2.797-.781-.134-.482 2.797-.782.134.482 2.798-.782-.135-.481 2.797-.782.134.481 2.797-.781-.134-.482 2.797-.781.134.481 2.797-.782-.135-.481 2.799-.781.133.48 2.798-.781-.135-.482 2.798-.781.134.482 2.797-.783-.135-.481 2.797-.781.134.481 2.797-.782-.134-.482 2.797-.781.135.482 2.797-.783-.134-.48 2.796-.782.135.481 2.797-.781-.134-.481 2.796-.783.135.482 2.796-.782-.133-.481 2.797-.782.134.481 2.797-.781-.135-.481 2.798-.782.134.481 1.203-.336 1.156.629.24-.439 2.669 1.452-.24.439 2.669 1.451.239-.438 2.67 1.451-.24.439 2.668 1.451.24-.438 2.669 1.451-.24.44 2.669 1.451.239-.439 2.669 1.452-.239.439 2.669 1.451.238-.438h.001l2.669 1.451h-.001l-.238.439 2.668 1.451.239-.438h.001l2.669 1.451-.24.44 2.669 1.451.239-.439h.001l2.669 1.451-.24.44.816.444-.517.66.393.308.001.001-1.762 2.252-.393-.309-1.761 2.252.394.309-1.761 2.252-.394-.309-1.76 2.252.393.309-1.761 2.252-.394-.309-1.761 2.253.395.308-1.761 2.252-.395-.308-1.76 2.252.393.308.001.001-1.76 2.251-.001-.001-.394-.307-1.761 2.252.394.307.001.001-1.761 2.252-.001-.001-.394-.307-1.76 2.252.393.307.001.001-1.76 2.252-.001-.001-.394-.307-1.762 2.252.395.307.001.001-1.762 2.252-.394-.308-1.761 2.252.394.308-1.76 2.253-.001-.001-.394-.308-1.761 2.251.394.309.001.001-1.761 2.252-.001-.001-.393-.309-.785 1.004-1.294.401.149.477.001.001-2.887.895-.148-.478-2.886.895.148.477.001.001-2.886.896-.001-.001-.148-.478-2.886.896.148.477-2.885.896-.001-.001-.148-.478-2.886.896.148.477-2.884.896-.001-.001-.149-.478-2.885.896.147.477.001.001-2.887.895-.148-.478-2.886.895.149.477v.001l-2.886.895-.149-.478-2.885.896.148.477-2.886.896-.001-.001-.147-.478-2.887.896.149.477-2.885.896-.001-.001-.149-.478-2.885.896.148.478h.001l-2.887.895-.148-.478-2.886.895.148.478.001.001-2.887.894-.149-.477-2.885.894.148.478.001.001-2.886.895-.001-.001-.148-.477-2.886.895.149.478-2.886.895-.001-.001-.148-.477-2.886.895.148.478-2.885.895-.001-.001-.148-.477-2.886.895.149.478.001.001-2.887.894-.148-.477-1.214.377-1.131-.762-.279.414v.001l-2.659-1.791h-.001l.28-.415-2.659-1.79-.278.415-2.658-1.79h-.001l.279-.415-2.659-1.79-.278.415-2.659-1.79v-.001l.279-.414-2.659-1.791-.279.415-2.658-1.79h-.001l.279-.415-2.658-1.79z"
      />
      <path
        fill="#dcdcdc"
        d="m283.06 222.658 14.235-19.283-17.883-9.225-32.213 9.179-15.808 19.283 17.978 10.127 33.715-10.081zm-50.453-.416 15.212-18.589 31.068-8.856 17.239 8.902-13.734 18.589-32.451 9.688-17.31-9.757zM974.646 238.705l-8.488-24.023-33.906-11.399-26.991 11.306 6.128 24.023 35.503 12.763zm-62.232-.532-5.96-23.145 26.013-10.913 32.69 10.983 8.13 23.144-26.728 12.185-34.168-12.277zM750.993 404.924l-.191-37.641-37.149-17.596-38.674 17.48-3.505 37.642 38.865 20.3 40.654-20.161zm-78.017-.832 3.314-36.254 37.316-16.879 35.837 16.994.119 36.278-39.127 19.375L673 404.115z"
      />
      <path
        fill="#dcdcdc"
        d="m696.653 378.404 2.623-41.064-40.463-19.028-45.065 18.89-7.344 41.04 42.418 22.359 47.831-22.22zm-88.436-.925 6.986-39.537 43.443-18.266 39.008 18.381-2.599 39.561-46.018 21.341-40.82-21.457z"
      />
      <path
        stroke="#dcdcdc"
        d="m1185.66 305.666-30.27-48.947 40.51-21.913 72.18 22.157 38.72 49.003-40.95 27.216z"
      />
      <path
        stroke="#005bff"
        stroke-dasharray="3 3"
        d="m1195.43 208.055-1.71-2.333.4-.297-.51-.694.81-.416-.23-.443 2.66-1.367.23.444 2.65-1.367-.23-.443 2.66-1.368.23.445 2.65-1.367-.22-.445 2.65-1.366.23.444 2.66-1.367-.23-.444 2.65-1.366.23.443 2.66-1.366-.23-.445 2.66-1.366.22.444 2.66-1.367-.23-.444 2.66-1.366.23.443 2.65-1.366-.23-.444 2.66-1.367.23.444 2.65-1.366-.22-.445 2.65-1.367.23.444 2.66-1.366-.23-.444 2.65-1.367.23.444 1.16-.594 1.3.359.13-.483 2.99.821h-.01l-.13.481 2.98.82.14-.481 2.98.82-.13.482 2.98.819.13-.481 2.98.82-.13.481 2.98.821.13-.482 2.99.82-.14.482 2.99.819.13-.481 2.98.82-.13.482 2.98.82.13-.482 2.99.82-.14.482 2.98.82.14-.482 2.98.82-.13.482 2.98.82.13-.481 2.98.819-.13.482 2.98.82.13-.482 2.99.821-.14.481 2.99.82.13-.481 2.98.819-.13.482 2.98.82.13-.481 2.98.82-.13.481 2.98.82.14-.481 2.98.82-.13.481 2.98.82.13-.481 2.98.82-.13.482 2.98.819.14-.481 2.98.82-.14.481 2.99.821.13-.482 2.98.821-.13.48 1.36.374.93.978.36-.346 2.07 2.154-.36.345 2.06 2.154.36-.346 2.07 2.154-.36.345 2.06 2.155.36-.346 2.07 2.154-.37.345 2.07 2.154.36-.345 2.06 2.154-.36.345 2.07 2.154.36-.345 2.06 2.154-.36.345 2.07 2.154.36-.346 2.06 2.154-.36.346 2.06 2.153.37-.344 2.06 2.153-.36.346 2.06 2.153.37-.345 2.06 2.154-.36.345 2.06 2.153.36-.345 2.07 2.154-.36.346 2.06 2.153.36-.345 2.07 2.154-.36.345 2.06 2.154.36-.345 2.07 2.154-.37.345 2.07 2.154.36-.345 2.06 2.153-.36.346 2.07 2.154.36-.346 2.06 2.155-.36.344.62.648-.7.469.28.415v.001l-2.39 1.602-.28-.416-2.39 1.603.28.416-2.39 1.602-.01-.001-.27-.415-2.4 1.603.28.415v.001l-2.39 1.602v-.001l-.28-.415-2.39 1.602.28.416-2.39 1.602-.28-.416-2.39 1.603.28.416-2.39 1.602-.01-.001-.27-.415-2.4 1.602.28.416v.001l-2.39 1.601-.28-.416-2.39 1.603.28.415v.001l-2.39 1.603v-.001l-.28-.415-2.39 1.601.28.416-2.39 1.603-.28-.416-2.39 1.602.27.415.01.001-2.4 1.603v-.001l-.28-.415-2.39 1.601.28.416v.001l-2.39 1.602-.28-.416-.99.669-1.19-.374-.15.477-2.84-.89.15-.478-2.83-.89-.15.477-2.83-.89.14-.477-2.83-.89-.15.477-2.83-.89.15-.477-2.84-.89-.15.476-2.83-.889.15-.478-2.84-.89-.14.477-2.84-.889.15-.478-2.83-.891-.15.478-2.84-.89v-.001l.15-.476-2.83-.891-.15.478-2.84-.89v-.001l.15-.477-2.83-.89-.15.477-2.83-.889.15-.478-2.84-.89-.15.477-2.83-.89.15-.477-2.84-.891-.15.478-2.83-.89.15-.477-2.83-.891-.16.477v.001l-2.83-.891.15-.478-2.83-.889-.15.476v.001l-2.84-.89.15-.478-2.83-.89-.15.478-2.83-.891h-.01l.15-.477-2.83-.89-.15.478-2.83-.89v-.001l.15-.477-2.84-.89-.15.477-2.83-.89.15-.478-2.84-.889-.15.476v.001l-2.83-.89.15-.478-2.83-.89-.15.477v.001l-2.84-.891v-.001l.15-.476-2.83-.891-.15.478v.001l-2.84-.891.15-.478-1.26-.395-.76-1.035-.4.296-1.71-2.333.4-.296-1.71-2.334-.4.297-1.71-2.333v-.001l.4-.296-1.71-2.333-.41.296-1.71-2.333v-.001l.41-.296-1.72-2.333-.4.296-1.71-2.333.4-.296-1.71-2.334-.4.296-1.71-2.332v-.001l.4-.296-1.71-2.333-.41.296v.001l-1.71-2.334.4-.297-1.71-2.333-.4.296v.001l-1.71-2.334.4-.296-1.71-2.334-.4.296v.001l-1.72-2.334.41-.296-1.71-2.333-.41.296v.001l-1.71-2.334.4-.297-1.71-2.333-.4.296v.001l-1.71-2.333v-.001l.4-.296-1.71-2.334-.4.296v.001l-1.72-2.333v-.001l.41-.296-1.72-2.333z"
      />
      <path
        stroke="#005bff"
        d="m1070.11 462.288-46.2-123.584 89.84-49.35 142.77 49.539 85.05 123.7-93.71 78.534z"
      />
      <path
        fill="#f4f4f5"
        d="M1186.04 293.664c1.89 2.983.15 5.434-3.91 5.434-4.05 0-8.82-2.451-10.63-5.434-1.81-2.959-.02-5.341 3.96-5.341s8.73 2.382 10.58 5.341M1165.35 305.549c1.83 3.098 0 5.618-4.13 5.618-4.12 0-8.89-2.52-10.65-5.618-1.75-3.075.11-5.526 4.17-5.526 4.05 0 8.8 2.474 10.61 5.526M1190.58 242.52c1.76 2.566.16 4.67-3.58 4.67s-8.18-2.104-9.9-4.67c-1.69-2.544-.07-4.601 3.63-4.601 3.69 0 8.1 2.057 9.85 4.601M645.842 302.936c-.429 3.075-4.101 5.572-8.202 5.572s-7.01-2.497-6.533-5.572c.5-3.052 4.148-5.503 8.178-5.503s6.962 2.451 6.533 5.503zM820.282 302.265c.334 3.076-2.718 5.573-6.819 5.573s-7.63-2.497-7.892-5.573c-.262-3.029 2.79-5.479 6.843-5.479s7.558 2.45 7.892 5.479zM984.089 301.896c1.025 3.052-1.431 5.572-5.532 5.572s-8.202-2.497-9.18-5.572c-.954-3.029 1.526-5.48 5.556-5.48 4.029 0 8.13 2.451 9.156 5.48M967.565 351.63c1.025 3.514-1.669 6.381-6.056 6.381s-8.727-2.867-9.681-6.382c-.954-3.468 1.788-6.265 6.104-6.265s8.631 2.797 9.657 6.266zM864.798 354.034c.549 3.538-2.551 6.405-6.962 6.405s-8.369-2.89-8.846-6.405c-.477-3.491 2.647-6.312 6.962-6.312 4.316 0 8.274 2.821 8.823 6.312zM1098.42 303.838c1.53 3.075-.55 5.595-4.65 5.595s-8.63-2.52-10.11-5.595c-1.45-3.052.64-5.503 4.7-5.503 4.05 0 8.53 2.451 10.06 5.503M1062.15 323.421c1.41 3.261-.86 5.896-5.08 5.896s-8.75-2.659-10.08-5.896c-1.34-3.213.95-5.803 5.1-5.803s8.66 2.59 10.04 5.803zM1013.82 253.826c1.07 2.659-1.12 4.832-4.93 4.832-3.82 0-7.75-2.173-8.78-4.832-1.024-2.636 1.22-4.763 4.96-4.763s7.68 2.127 8.75 4.763M1045.49 183.121c1.07 2.127-.79 3.838-4.2 3.838s-7.01-1.734-8.04-3.838c-1.02-2.104.86-3.792 4.22-3.792 3.37 0 6.94 1.688 8.02 3.792M1228.94 242.959c1.91 2.567.45 4.671-3.31 4.671-3.77 0-8.33-2.104-10.19-4.671-1.86-2.543-.33-4.601 3.37-4.601 3.69 0 8.22 2.058 10.13 4.601M1304.45 279.514c2.34 2.867 1.05 5.226-2.91 5.226-3.95 0-9.03-2.336-11.32-5.226-2.27-2.844-.93-5.133 2.98-5.133s8.94 2.289 11.25 5.133M1318.64 347.653c2.65 3.468 1.26 6.312-3.1 6.312s-9.99-2.844-12.57-6.312c-2.55-3.445-1.12-6.197 3.18-6.197 4.29 0 9.87 2.775 12.49 6.197M1295.82 317.687c2.43 3.191 1.03 5.804-3.15 5.804-4.17 0-9.51-2.613-11.87-5.804-2.34-3.167-.91-5.711 3.22-5.711 4.12 0 9.39 2.544 11.83 5.711zM616.705 259.075c-.525 2.705-4.054 4.901-7.916 4.901s-6.486-2.196-5.913-4.901c.572-2.683 4.101-4.833 7.892-4.833s6.438 2.15 5.937 4.833M330.819 334.473c-1.884 3.353-6.867 6.081-11.159 6.081s-6.175-2.728-4.22-6.081c1.931-3.329 6.891-5.988 11.111-5.988s6.128 2.659 4.268 5.988M244.576 340.785c-2.289 3.399-7.653 6.197-11.969 6.197s-5.889-2.775-3.553-6.197c2.337-3.375 7.654-6.081 11.898-6.081s5.866 2.706 3.624 6.081M94.075 350.011c-3.005 3.491-9.013 6.358-13.377 6.358-4.363 0-5.412-2.844-2.312-6.358 3.052-3.468 8.989-6.243 13.304-6.243 4.316 0 5.39 2.775 2.409 6.243zM186.66 296.994c-2.408 3.029-7.654 5.479-11.707 5.479s-5.341-2.474-2.885-5.479c2.432-2.983 7.654-5.411 11.659-5.411s5.341 2.405 2.957 5.411zM209.288 268.485c-2.218 2.775-7.177 5.04-11.064 5.04-3.886 0-5.198-2.265-2.956-5.04 2.241-2.751 7.177-4.971 11.015-4.971s5.198 2.22 3.005 4.971M418.254 255.653c-1.312 2.682-5.508 4.855-9.323 4.855s-5.794-2.173-4.435-4.855c1.359-2.659 5.508-4.787 9.299-4.787s5.77 2.128 4.459 4.787M501.063 227.93c-.954 2.451-4.673 4.463-8.345 4.463s-5.818-2.012-4.817-4.463c.978-2.428 4.721-4.393 8.322-4.393s5.794 1.965 4.84 4.393M719.757 330.52c-.071 1.757-1.931 3.167-4.172 3.167-2.242 0-4.006-1.433-3.934-3.167.071-1.734 1.955-3.145 4.172-3.145 2.218 0 3.982 1.411 3.934 3.145M785.947 289.757c.096 1.572-1.549 2.844-3.671 2.844-2.123 0-3.911-1.272-3.982-2.844-.072-1.549 1.573-2.821 3.672-2.821 2.098 0 3.886 1.248 3.981 2.821M740.883 263.098c0 1.433-1.669 2.612-3.72 2.612-2.05 0-3.672-1.179-3.648-2.612s1.693-2.59 3.72-2.59c2.026 0 3.648 1.156 3.648 2.59M696.224 305.942c-.119 1.641-1.955 2.959-4.125 2.959s-3.815-1.341-3.696-2.959 1.979-2.937 4.125-2.937 3.815 1.318 3.696 2.937M719.233 351.051c-.072 1.85-1.979 3.353-4.292 3.353s-4.125-1.503-4.03-3.353c.072-1.849 2.003-3.329 4.292-3.329s4.101 1.48 4.03 3.329M349.608 347.653c-.954 1.826-3.6 3.329-5.913 3.329s-3.362-1.503-2.385-3.329 3.625-3.307 5.89-3.307 3.362 1.48 2.408 3.307M250.871 326.612c-1.168 1.734-3.934 3.145-6.175 3.145-2.242 0-3.076-1.411-1.884-3.145s3.934-3.121 6.152-3.121 3.076 1.387 1.907 3.121M223.045 296.346c-1.192 1.596-3.886 2.89-6.032 2.89s-2.909-1.294-1.693-2.89c1.192-1.595 3.887-2.867 6.009-2.867s2.885 1.272 1.716 2.867M249.941 230.658c-1.025 1.318-3.409 2.382-5.365 2.382-1.955 0-2.67-1.064-1.645-2.382 1.026-1.294 3.41-2.358 5.341-2.358s2.671 1.04 1.669 2.358M414.51 233.179c-.691 1.317-2.813 2.381-4.769 2.381s-2.956-1.064-2.265-2.381c.692-1.318 2.814-2.382 4.745-2.382s2.957 1.064 2.265 2.382zM441.549 212.485c-.596 1.225-2.623 2.243-4.506 2.243s-2.909-.994-2.289-2.243c.62-1.225 2.623-2.22 4.506-2.22s2.909.995 2.289 2.22M245.578 210.127c-1.002 1.225-3.315 2.219-5.198 2.219s-2.575-.994-1.574-2.219c1.001-1.226 3.314-2.197 5.198-2.197s2.575.994 1.597 2.197zM640.93 328.994c-.381 2.751-3.576 4.994-7.129 4.994s-6.056-2.243-5.627-4.994c.429-2.729 3.624-4.925 7.129-4.925s6.033 2.196 5.627 4.925M972.739 240.67c.477 1.341-.739 2.451-2.718 2.451s-3.934-1.087-4.411-2.451c-.453-1.341.763-2.428 2.718-2.428s3.934 1.087 4.387 2.428zM948.466 207.953c.406 1.226-.787 2.197-2.646 2.197-1.86 0-3.696-.995-4.102-2.197-.381-1.202.811-2.196 2.671-2.196s3.696.971 4.101 2.196zM1128.65 195.907c.74 1.179-.14 2.127-1.98 2.127-1.83 0-3.91-.948-4.65-2.127-.73-1.156.17-2.104 1.98-2.104 1.82 0 3.91.948 4.65 2.104M1168.73 216.277c.86 1.248 0 2.266-1.88 2.266s-4.12-1.018-4.96-2.266c-.83-1.249 0-2.243 1.91-2.243s4.1.994 4.93 2.243M1225.24 190.497c.93 1.156.19 2.081-1.62 2.081s-4.03-.925-4.93-2.081c-.91-1.133-.17-2.058 1.62-2.058s4 .925 4.93 2.058M1285.54 274.658c1.2 1.503.48 2.706-1.59 2.706-2.08 0-4.72-1.226-5.89-2.706s-.43-2.682 1.62-2.682 4.67 1.203 5.86 2.682M1293.51 284.901c1.21 1.549.5 2.798-1.6 2.798s-4.79-1.249-6.01-2.798c-1.19-1.526-.47-2.774 1.62-2.774 2.1 0 4.77 1.248 5.99 2.774M1280.51 190.497c1.03 1.156.41 2.081-1.43 2.081-1.83 0-4.12-.925-5.15-2.081-1.02-1.133-.38-2.058 1.43-2.058 1.82 0 4.1.925 5.13 2.058z"
      />
    </g>
    <path
      fill="url(#c)"
      d="M1440 351.278h1440v247H1440z"
      transform="rotate(-180 1440 351.278)"
    />
  </g>
  <defs>
    <linearGradient
      id="c"
      x1="2126.98"
      x2="2126.98"
      y1="475.278"
      y2="351.278"
      gradientUnits="userSpaceOnUse"
    >
      <stop stop-color="#fafafa" stop-opacity=".8" />
      <stop offset="1" stop-color="#fafafa" stop-opacity="0" />
    </linearGradient>
    <clipPath id="a"><path fill="#fff" d="M1440 350H-8V0h1448z" /></clipPath>
  </defs>
</svg>
