<svg
  xmlns="http://www.w3.org/2000/svg"
  fill="none"
  viewBox="0 0 16 16"
  data-type="icon"
  data-colorful="true"
>
  <path
    fill="#ff6b01"
    d="M15.947 5.631a2.62 2.62 0 0 0-2.613-2.613h-4.16l.373 1.493 3.573.8c.32.054.587.374.587.694v3.84c0 .32-.267.64-.587.693l-3.573.8-.427 1.44h4.16a2.62 2.62 0 0 0 2.614-2.613c.053 0 .053-4.534.053-4.534M2.934 10.485a.74.74 0 0 1-.587-.694v-3.84c0-.32.267-.64.587-.693l3.573-.8.373-1.493H2.72A2.62 2.62 0 0 0 .107 5.578v4.533a2.62 2.62 0 0 0 2.613 2.614h4.16l-.373-1.494c0 .054-3.573-.746-3.573-.746m3.36-3.307h3.413v1.387H6.294z"
  />
</svg>
