<svg
  xmlns="http://www.w3.org/2000/svg"
  fill="none"
  viewBox="0 0 16 16"
  data-type="icon"
  data-colorful="true"
>
  <path
    fill="#fff"
    d="M5.82 13.63c-.72-.66-.93-2.05-.63-3.06.52.64 1.24.84 1.99.95 1.15.18 2.28.11 3.36-.42l.37-.22c.1.3.12.59.09.89-.09.73-.45 1.3-1.03 1.72-.23.18-.47.33-.71.5-.74.49-.93 1.07-.66 1.92l.03.09a1.93 1.93 0 0 1-.86-.73 2.07 2.07 0 0 1-.33-1.13c0-.2 0-.4-.03-.59-.06-.47-.28-.69-.7-.7a.83.83 0 0 0-.86.68l-.03.1ZM1.86 10.4s2.13-1.04 4.27-1.04l1.61-5c.06-.25.24-.41.44-.41s.37.16.43.4l1.62 5.01a9 9 0 0 1 4.27 1.05L10.87.48c-.1-.3-.28-.48-.52-.48H6.01c-.24 0-.41.19-.52.48l-3.63 9.93Z"
  />
</svg>
