<svg
  xmlns="http://www.w3.org/2000/svg"
  class="icon"
  data-colorful="true"
  data-type="icon"
  viewBox="0 0 1024 1024"
>
  <path
    fill="#111827"
    d="M295.692 976.018A512.09 512.09 0 0 1 10.32 409.938 511.94 511.94 0 0 1 494.195.323a512.054 512.054 0 0 1 511.238 374.858 512 512 0 0 1-245.151 584.625L512.058 511.997z"
  />
  <path
    fill="#fff"
    d="M759.77 960.089a511.96 511.96 0 0 1-463.566 16.175l215.854-464.267z"
  />
  <path
    fill="#fff"
    d="M224.05 301.035h581.61v245.759c0 63.904-15 111.956-45.037 144.174-29.506 32.787-67.716 49.17-114.706 49.17-30.019 0-56.244-7.376-78.64-22.129-21.844-14.203-38.494-33.848-49.966-58.974-10.373 27.306-26.757 48.867-49.152 64.72-22.395 16.384-48.886 24.576-79.454 24.576-51.352 0-91.78-16.384-121.249-49.152-28.956-32.787-43.425-80.023-43.425-141.728V301.035zm474.318 116.318h-126.16v128.625c0 23.476 5.196 41.51 15.55 54.063 10.941 13.104 26.775 19.665 47.54 19.665 18.564 0 33.583-6.277 45.055-18.85 12.004-12.022 18.015-30.32 18.015-54.897V417.372zm-234.286 0h-132.74V554.17c0 24.576 5.746 42.875 17.2 54.898 11.49 12.553 27.875 18.83 49.17 18.83 20.195 0 36.314-6.277 48.336-18.83 12.004-12.023 18.015-30.322 18.015-54.898V417.353z"
  />
</svg>
