<svg
  xmlns="http://www.w3.org/2000/svg"
  class="icon"
  data-colorful="true"
  data-type="icon"
  viewBox="0 0 1024 1024"
>
  <path
    fill="#434af9"
    d="M425.216 515.2a20.096 20.096 0 0 0-20.032 20.032v40.128a20.096 20.096 0 1 0 40.064 0v-40.128a20.096 20.096 0 0 0-20.032-20.096zm26.368 113.792a19.968 19.968 0 0 1 6.464-32.704 19.97 19.97 0 0 1 21.824 4.352 50.11 50.11 0 0 0 70.848 0 19.968 19.968 0 0 1 32.64 6.464 19.97 19.97 0 0 1-4.352 21.888 89.92 89.92 0 0 1-127.424 0m133.888-73.856a20.096 20.096 0 1 1 40.256 0 20.096 20.096 0 0 1-40.32 0zM216.192 116.48a99.65 99.65 0 0 0-99.712 99.648v591.744a99.65 99.65 0 0 0 99.648 99.648h591.744a99.65 99.65 0 0 0 99.648-99.648V216.128a99.65 99.65 0 0 0-99.648-99.648H216.128zm299.136 124.608h.128a207.23 207.23 0 0 1 207.04 207.168v86.848h49.728c56.96 0 69.888 80 15.68 97.92l-65.408 21.76v37.568a49.856 49.856 0 0 1-72.128 44.544l-36.288-18.048c-1.728-.832-3.84 0-4.352 1.792-29.44 91.776-159.36 91.776-188.8 0a3.2 3.2 0 0 0-1.664-1.92 3.14 3.14 0 0 0-2.56.128l-36.352 18.112a49.92 49.92 0 0 1-72.192-44.608v-37.568l-65.344-21.76c-54.272-17.856-41.344-97.92 15.68-97.92h49.664V448.32a207.17 207.17 0 0 1 207.168-207.168z"
  />
</svg>
