<svg
  xmlns="http://www.w3.org/2000/svg"
  class="icon"
  data-colorful="true"
  data-type="icon"
  viewBox="0 0 1024 1024"
>
  <path
    fill="#0938f7"
    d="M784.896 167.35a160.9 160.9 0 0 0-124.343 44.472 164.8 164.8 0 0 0-43.008 121.71v64.365H482.962v108.837h134.583v349.915h133.413V506.734h154.477V397.897H750.958v-60.562a58.5 58.5 0 0 1 12.873-43.886 53.18 53.18 0 0 1 39.79-14.043h109.714V167.058zM402.87 394.094v128H183.443v-128z"
  />
  <path fill="#0938f7" d="M421.157 856.65h-128V394.093h128z" />
  <path
    fill="#0938f7"
    d="M110.3 856.65v-128h803.327v128zm142.628-605.185a84.114 84.114 0 1 0 168.229 0 84.114 84.114 0 1 0-168.229 0"
  />
</svg>
