<svg xmlns="http://www.w3.org/2000/svg" fill="none" viewBox="0 0 16 16">
  <path
    fill="#43A047"
    d="M7.53 1.33H9.7v10.1c-1.12.2-1.94.3-2.84.3-2.66 0-4.04-1.21-4.04-3.52C2.83 6 4.3 4.54 6.58 4.54c.35 0 .62.03.95.12V1.33Zm0 5.08a2.17 2.17 0 0 0-.74-.11c-1.1 0-1.74.68-1.74 1.87 0 1.16.6 1.8 1.73 1.8.24 0 .43-.02.75-.06v-3.5Z"
  />
  <path
    fill="#43A047"
    d="M13.17 4.7v5.05c0 1.75-.12 2.58-.5 3.3-.36.7-.83 1.14-1.79 1.62l-2.02-.97c.96-.45 1.43-.84 1.72-1.45.32-.63.41-1.35.41-3.25V4.7h2.18ZM11 1.35h2.18v2.23H11V1.35Z"
  />
</svg>
