<svg
  xmlns="http://www.w3.org/2000/svg"
  fill="none"
  data-colorful="true"
  data-type="icon"
  viewBox="0 0 32 32"
>
  <path
    fill="#512bd4"
    d="M3.175 20.551a1 1 0 0 1-.318.733h-.001a1.124 1.124 0 0 1-1.536-.001l.001.001a1.004 1.004 0 0 1 .001-1.464h.001c.2-.188.47-.303.767-.303s.567.115.768.304l-.001-.001c.195.184.317.444.318.733Zm10.876.866h-1.947l-5.126-8.088a4 4 0 0 1-.323-.637H6.61a11 11 0 0 1 .06 1.512l.001-.015v7.228H4.95V10.414h2.073l4.955 7.898q.314.49.404.675h.03a11 11 0 0 1-.075-1.233l.003-.237v.012h-.004v-7.115h1.715zm8.382 0h-6.025V10.414h5.786v1.55h-4.005v3.117h3.69v1.542h-3.69v3.254h4.244zm8.563-9.453h-3.084v9.453h-1.781v-9.453h-3.077v-1.55h7.941z"
  />
</svg>
