<svg
  xmlns="http://www.w3.org/2000/svg"
  fill="none"
  viewBox="0 0 24 24"
  data-type="icon"
  data-colorful="true"
>
  <g clip-path="url(#a)">
    <path
      fill="#828282"
      d="M1.31 2.9 4.5 1.06 7.6 2.9 4.37 4.75 1.3 2.9ZM5.15 5.18l3.18-1.9 3.17 1.9-3.23 1.79-3.12-1.79Z"
    />
    <path
      fill="#C6C6C6"
      d="m13.24 5.12 3.18-1.9 3.12 1.9-3.24 1.85-3.06-1.85ZM17.2 2.84l3.18-1.9 3.11 1.9-3.23 1.79-3.06-1.79Z"
    />
    <path
      fill="#00AFD1"
      d="M.83 3.52v4.06l3.18 1.85v-4L.83 3.53ZM4.79 5.8v4.06l3.24 1.79V7.7L4.79 5.8ZM8.69 7.95v4.07l3.17 1.78V9.86L8.7 7.96Z"
    />
    <path
      fill="#4AE1FF"
      d="M23.8 3.58v4.06L20.55 9.5v-4l3.23-1.9ZM19.78 5.86v4.06l-3.18 1.79V7.77l3.18-1.91ZM15.88 8.01v4.07l-3.18 1.78V9.92l3.18-1.9Z"
    />
    <path
      fill="#00AFD1"
      d="M.83 8.38v4.07l3.18 1.78V10.3L.83 8.4ZM4.79 10.6v4.06l3.24 1.85v-3.94L4.79 10.6ZM8.69 12.76v4.06l3.17 1.79v-3.94L8.7 12.76Z"
    />
    <path
      fill="#4AE1FF"
      d="M23.8 8.45v4.06l-3.24 1.79v-3.94l3.23-1.91ZM19.78 10.73v4.06l-3.18 1.79v-3.95l3.18-1.9ZM15.88 12.82v4.06l-3.18 1.79v-3.94l3.18-1.91Z"
    />
    <path
      fill="#00AFD1"
      d="M.83 13.19v4.06l3.18 1.85v-4L.83 13.19ZM4.79 15.47v4.06l3.24 1.79v-3.95l-3.24-1.9ZM8.69 17.62v4.06l3.17 1.79v-3.94L8.7 17.62Z"
    />
    <path
      fill="#4AE1FF"
      d="M23.8 13.25v4.06l-3.24 1.85v-3.94l3.23-1.97ZM19.78 15.53v4.06l-3.18 1.79v-3.94l3.18-1.91ZM15.88 17.68v4.07l-3.18 1.78V19.6l3.18-1.9Z"
    />
    <path fill="#828282" d="M12.34 5.5 9.17 7.4l3.11 1.79.06-3.7Z" />
    <path fill="#C6C6C6" d="m12.34 5.5-.06 3.69 3.18-1.79-3.12-1.9Z" />
  </g>
  <defs>
    <clipPath id="a"><path fill="#fff" d="M.83.93h23.1v22.48H.82z" /></clipPath>
  </defs>
</svg>
