<svg
  xmlns="http://www.w3.org/2000/svg"
  class="icon"
  data-colorful="true"
  data-type="icon"
  viewBox="0 0 1024 1024"
>
  <path
    fill="#007ba3"
    d="M916.224 540.48c0 65.792-43.232 121.648-102.912 140.768l-38.256-8.416-105.968-23.712-40.56-77.28 48.592-42.464 93.728-82.24 50.88-44.384a147.65 147.65 0 0 1 94.496 137.712z"
  />
  <path
    fill="#00beb1"
    d="m639.248 664.8-26.784 139.632-4.96 25.632a218.8 218.8 0 0 1-182.496 97.92c-120.88 0-218.816-97.92-218.816-218.816 0-15.68 1.52-30.992 4.592-45.92l18.736-16.816 161.056-146.144 9.184-8.416 196.64 89.52 42.848 83.392z"
  />
  <path
    fill="#ff419a"
    d="m369.552 207.632-28.704 151.872-133.504-31.36a108 108 0 0 1-6.128-35.2c0-58.528 47.44-105.6 105.968-105.6a102.3 102.3 0 0 1 62.368 20.288"
  />
  <path
    fill="#ffcf00"
    d="M804.512 330.832c0 16.064-1.92 31.744-4.96 47.04l-18 16.08-159.904 140.4L605.2 548.88l-194.72-88v-.368l-38.256-84.544 26.4-136.192 6.112-31.76C444.144 150.256 510.704 112 586.064 112c120.512 0 218.448 97.936 218.448 218.832"
  />
  <path
    fill="#84ca27"
    d="M808.336 749.344c0 58.528-47.424 105.968-105.584 105.968a104.5 104.5 0 0 1-61.968-20.272l29.84-153.792 131.6 31.36a115.5 115.5 0 0 1 6.112 36.736"
  />
  <path
    fill="#00abe3"
    d="m376.032 468.144-52.4 47.44-81.12 73.44-53.168 48.208C134.624 615.424 96 562.24 96 499.888a147.46 147.46 0 0 1 100.992-140l35.968 8.4 107.872 24.864z"
  />
</svg>
