<svg
  xmlns="http://www.w3.org/2000/svg"
  class="icon"
  data-colorful="true"
  data-type="icon"
  viewBox="0 0 1024 1024"
>
  <path
    fill="#00b173"
    d="m561.46 13.517 356.863 206.848c29.952 18.022 47.975 50.995 47.975 86.989v413.798c0 35.994-18.023 68.966-47.975 86.938L561.46 1014.989c-11.98 5.99-29.952 9.011-47.974 9.011-17.971 0-32.973-3.02-47.975-11.98l-359.833-206.9a100.61 100.61 0 0 1-47.975-86.989V307.354c0-35.994 18.023-68.967 47.975-86.938l356.864-206.9a97.43 97.43 0 0 1 98.918 0M513.484 70.45c-5.99 0-8.96 0-15.002 3.021L141.67 280.32a31.49 31.49 0 0 0-15.001 27.034v413.798c0 11.98 6.041 20.992 15.001 26.982l356.864 206.9c8.96 5.99 20.992 5.99 29.952 0l356.864-209.92a31.49 31.49 0 0 0 14.95-26.983V307.354a31.49 31.49 0 0 0-15-26.983L528.485 73.472c-2.97 0-9.01-3.02-15.001-3.02m236.902 581.735c20.992 0 38.963 17.97 35.994 35.993 0 20.992-15.002 35.943-35.994 35.943H354.611a36.454 36.454 0 0 1-35.993-35.943c0-20.992 14.95-35.993 35.942-35.993zM615.424 478.208c18.022 0 33.024 18.022 33.024 35.994s-15.002 32.972-33.024 35.993h-338.79a36.454 36.454 0 0 1-35.994-35.993c0-20.992 15.002-35.994 35.994-35.994zm134.963-176.896c20.992 0 38.963 17.971 35.994 35.994 0 20.992-15.002 35.942-35.994 35.942H354.611a36.454 36.454 0 0 1-35.993-35.942c0-20.992 14.95-35.994 35.942-35.994z"
  />
</svg>
