<svg
  xmlns="http://www.w3.org/2000/svg"
  viewBox="0 0 24 24"
  data-type="icon"
  data-colorful="true"
>
  <path
    d="M10.77 2.88c-.01 1.43.33 4.62.45 5.73l-8.56 3.83c-.56-.96-.98-2.3-1.24-3.38l-.06.03c-.2.09-.4.05-.5-.09v-.02l-.82-1.5c-.06-.1-.05-.26.02-.4a.78.78 0 0 1 .36-.33l9.82-4.2c.15-.07.3-.07.4 0 .11.06.13.13.13.33Zm.68 7c.53 1.97.68 2.41.84 2.82l-7.27 3.7a19.35 19.35 0 0 1-1.8-2.83l8.23-3.7Zm12.44 8.78c.28.4-.05.66-.16.7l-.94.37c.04.13.03.32-.22.42l-.73.28c-.23.1-.4-.06-.42-.2l-.03-.12c-4.43 1.78-7.94 1.68-10.7.65a12.54 12.54 0 0 1-4.84-3.38l6.95-3.54A9.21 9.21 0 0 0 15.3 17a7.93 7.93 0 0 0 5.8 1.57l-.05-.24c-.01-.07 0-.13.09-.16l.73-.29a.3.3 0 0 1 .34.09l.75-.3a.3.3 0 0 1 .34.1l.59.88Z"
    fill="#3BABC3"
  />
</svg>
