<svg
  xmlns="http://www.w3.org/2000/svg"
  viewBox="0 0 16 16"
  fill="none"
  data-type="icon"
  data-colorful="true"
>
  <path fill="#f6d2a2" d="M12.4 8.6q.4.3.6 0c.3-.2 0-.4 0-.5l-.9-.2v.5l.2.1z" />
  <path
    fill="#000"
    fill-rule="evenodd"
    d="M13 8c0 .2.3.4 0 .5q-.2.5-.6.1h-.1l-.1-.2v-.5q.3 0 .7.2m.1.6.1-.2v-.1L13 8l-.9-.2v.7l.1.1h.2l.4.2h.2z"
    clip-rule="evenodd"
  />
  <path
    fill="#f6d2a2"
    d="M3.6 8.7Q3 9 3 8.6c-.3-.1 0-.4 0-.5L4 8v.5q0 .3-.2.2z"
  />
  <path
    fill="#000"
    fill-rule="evenodd"
    d="M3.6 8.7Q3 9 3 8.6c-.3-.1 0-.4 0-.5L4 8v.5q0 .3-.2.2zm-.7 0 .1.1.2.1.4-.2H4v-.8h-.5q-.3 0-.5.2l-.2.2v.2z"
    clip-rule="evenodd"
  />
  <path fill="#c6b198" d="m3 8.6.1-.1Z" />
  <path
    fill="#6ad7e5"
    d="M4 3.6c-1.7-.4-.5-2.7.9-1.5zM10.8 2c1.3-1 2.6 1 1 1.6z"
  />
  <path
    fill="#000"
    fill-rule="evenodd"
    d="m4.9 2-1 1.6C2.3 3.2 3.6 1 5 2.1m-.1.1-.9 1.4q-.5-.1-.6-.5v-.7l.7-.5q.3 0 .8.3m6.2-.2.9 1.5q.5-.1.6-.6v-.7l-.7-.4zm-.1 0c1.3-1 2.6 1 1 1.6z"
    clip-rule="evenodd"
  />
  <path
    fill="#f6d2a2"
    d="M11.2 13.7c.3.2 1 .8.5 1-.5.5-.8-.4-1.2-.5q.3-.5.7-.5m-5.5.6c-.4 0-.7.5-1 .6q-.4.2-.5 0v-.1c-.4-.5.3-.9.6-1q.6-.1.9.5"
  />
  <path
    fill="#000"
    fill-rule="evenodd"
    d="M11.7 14.8c.5-.3-.2-1-.5-1.1l-.6.4.3.4q.4.5.8.3m-1-.7.1.2.2.2.1.1.3.2h.2q.2-.1.2-.3l-.1-.3-.5-.5zm-6 .8.3-.2q.3-.3.6-.4v-.1q-.3-.6-.8-.5c-.4.3-1 .7-.7 1v.1h.1q0 .3.5.1m-.6-.2h.1v.1l.2.1h.2l.4-.3H5l.5-.4-.3-.3-.5-.1-.5.4-.2.3z"
    clip-rule="evenodd"
  />
  <path
    fill="#000"
    d="M4 3q-.4 0-.2-.4.1-.4.5-.1zm7.6-.1q.4-.2.2-.5-.1-.4-.5-.1z"
  />
  <path fill="#c6b198" d="M13 8.5H13Z" />
  <path
    fill="#6ad7e5"
    d="M7.8 1c1.6 0 3.1.2 3.9 1.8s.5 3.5.6 5.3c0 1.6.3 3.4-.5 4.8-.7 1.5-2.6 2-4.2 1.9-1.2 0-2.7-.5-3.4-1.6-.8-1.3-.4-3.3-.4-4.7C4 6.7 3.4 5 4 3.3S6.1 1 8 1"
  />
  <path
    fill="#000"
    fill-rule="evenodd"
    d="M11.8 13zq.5-1 .5-2.3v-2l-.1-.5V5.4a8 8 0 0 0-.6-2.6C11 1.3 9.4 1 7.8 1q-1.2 0-2.3.5T4 3.3A7 7 0 0 0 3.8 6v5q-.1 1.2.5 2.3c-.7-1-.6-2.5-.5-3.8V6.6a8 8 0 0 1 .1-3.3C4.5 1.5 6.1 1 8 1c1.5 0 3 .2 3.8 1.8q.6 1.8.5 3.8v2q.5 2.2-.4 4.3m0 0za3 3 0 0 1-1.8 1.5q-1.1.3-2.4.3c-1.2 0-2.7-.4-3.3-1.5.6 1.1 2 1.5 3.3 1.6 1.6 0 3.5-.4 4.2-1.9"
    clip-rule="evenodd"
  />
  <path fill="#fff" d="M8.5 5.4V5l-.6-.2v.9l.3.2.3-.2z" />
  <path
    fill="#000"
    fill-rule="evenodd"
    d="M8.4 5.1 8 5v.7l.2.2.2-.1V5m0 .7-.1.2h-.1l-.3-.2v-.9l.6.2v.7"
    clip-rule="evenodd"
  />
  <path fill="#fff" d="M4.9 3.4c.3 1.5 2.7 1 2.6-.4-.1-1.7-3-1.4-2.6.4" />
  <path
    fill="#000"
    fill-rule="evenodd"
    d="M7.4 3a1 1 0 0 0-.5-.8Q6.5 1.9 6 2t-.8.4-.3 1q.4 1 1.4.8 1 0 1.1-1.2Zm-2.5.4c.4 1.4 2.7 1 2.6-.4-.1-1.7-3-1.4-2.6.4"
    clip-rule="evenodd"
  />
  <path fill="#fff" d="M8.1 3.1c.3 1.7 3 1.3 2.6-.4-.3-1.5-2.7-1.1-2.6.4" />
  <path
    fill="#000"
    fill-rule="evenodd"
    d="M10.7 2.7q-.2-.6-.6-.7l-.8-.2q-1 .2-1.1 1.3.1.6.5.8t1 .2.8-.4.2-1M8 3.1c.3 1.7 3 1.3 2.6-.4-.3-1.5-2.7-1.1-2.6.4"
    clip-rule="evenodd"
  />
  <path fill="#000" d="m5.1 3.2.1.3h.6l.1-.3-.1-.3-.3-.1h-.3z" />
  <path fill="#fff" d="M5.6 3.3h.1v-.1Z" />
  <path fill="#000" d="m8.4 3 .1.4h.6v-.6l-.3-.2q-.1 0-.3.2z" />
  <path fill="#fff" d="M7.3 5.1c-.1.4.1 1.3.6.6V5z" />
  <path
    fill="#000"
    fill-rule="evenodd"
    d="M7.8 5.7V5l-.4.2v.6h.4m-.5-.6c-.1.4.1 1.2.6.6V5z"
    clip-rule="evenodd"
  />
  <path
    fill="#fff"
    fill-rule="evenodd"
    d="M15.3 5.6v-.3h.1l.1.1v.1z"
    clip-rule="evenodd"
  />
  <path
    fill="#f6d2a2"
    d="M7.4 4.3q-.6.1-.4.7c.2.4.7 0 1 0s.6.4 1 0q.1-.5-.6-.7z"
  />
  <path
    fill="#000"
    fill-rule="evenodd"
    d="m7 5 .2.1h.4l.1-.1h.6l.2.1H9v-.5l-.5-.3h-1l-.3.3zm.4-.7q-.6.1-.4.7.2.4.6.1.2 0 .4 0h.3q.3.2.6 0 .3-.5-.5-.8z"
    clip-rule="evenodd"
  />
  <path fill="#000" d="M7.4 4.3c0-.6 1-.6 1.1-.2.1.5-1.1.6-1.1.2" />
</svg>
