<svg xmlns="http://www.w3.org/2000/svg" fill="none" viewBox="0 0 16 16">
  <path
    fill="#F6D2A2"
    d="M12.41 8.62c.19.13.6.32.62-.1.23-.1.01-.36-.1-.45a1.18 1.18 0 0 0-.78-.2v.38l.02.1c0 .17.03.18.1.2l.14.07Z"
  />
  <path
    fill="#000"
    fill-rule="evenodd"
    d="M12.93 8.07c.11.09.33.35.1.46-.01.41-.43.22-.62.09l-.14-.07c-.07-.02-.1-.03-.1-.2a10.04 10.04 0 0 0-.02-.48c.27-.02.56.04.78.2Zm.17.5a.2.2 0 0 0 .1-.13.27.27 0 0 0-.03-.17.68.68 0 0 0-.2-.25 1.24 1.24 0 0 0-.83-.21h-.06v.06l.01.38v.1c.01.09.02.15.05.19.03.05.07.06.1.07h.01l.12.06c.1.07.26.16.41.17.08.01.16 0 .22-.06a.32.32 0 0 0 .1-.21Z"
    clip-rule="evenodd"
  />
  <path
    fill="#F6D2A2"
    d="M3.59 8.67c-.19.13-.6.32-.62-.1-.23-.1-.01-.36.1-.44.22-.16.64-.22.91-.2l-.01.37v.11c-.02.15-.1.17-.19.19a.49.49 0 0 0-.2.07Z"
  />
  <path
    fill="#000"
    fill-rule="evenodd"
    d="M3.59 8.67c-.19.13-.6.32-.62-.1-.23-.1-.01-.36.1-.44.22-.16.64-.22.91-.2l-.01.37v.11c-.02.15-.1.17-.19.19a.49.49 0 0 0-.2.07Zm-.69-.05c.01.1.05.17.1.22.06.05.15.06.22.06.15-.02.31-.1.4-.17.06-.04.12-.05.17-.07h.01c.04 0 .1-.02.15-.05.05-.04.07-.1.08-.2v-.1l.02-.38v-.06h-.06c-.15-.02-.32 0-.5.02-.17.04-.34.1-.46.18a.67.67 0 0 0-.2.25.27.27 0 0 0-.02.17c0 .05.04.1.1.13Z"
    clip-rule="evenodd"
  />
  <path fill="#C6B198" d="M2.97 8.58c.06-.02.12-.04.16-.1Z" />
  <path
    fill="#6AD7E5"
    d="M3.92 3.63c-1.59-.45-.37-2.7.97-1.54l-.97 1.54ZM10.9 1.9c1.33-1.06 2.57 1.08.95 1.57L10.9 1.9Z"
  />
  <path
    fill="#000"
    fill-rule="evenodd"
    d="m4.9 2.09-.98 1.54c-1.59-.45-.37-2.7.97-1.54Zm-.1.01-.9 1.45c-.36-.1-.54-.31-.62-.53a.88.88 0 0 1 .09-.73c.13-.22.34-.4.6-.44.24-.05.53 0 .84.25Zm6.18-.19.9 1.48c.35-.12.54-.32.62-.54a.85.85 0 0 0-.08-.71.93.93 0 0 0-.6-.45c-.25-.05-.54 0-.84.22Zm-.09-.01c1.33-1.06 2.57 1.08.95 1.57L10.9 1.9Z"
    clip-rule="evenodd"
  />
  <path
    fill="#F6D2A2"
    d="M11.21 13.66c.32.2.95.83.47 1.12-.46.42-.76-.5-1.17-.62.18-.24.4-.45.7-.5Zm-5.53.6c-.37.06-.72.5-1.03.68-.3.17-.4-.06-.44-.1-.04-.03-.04.01-.1-.06-.28-.43.4-.86.7-1.07.4-.08.66.27.87.55Z"
  />
  <path
    fill="#000"
    fill-rule="evenodd"
    d="M11.68 14.78c.48-.3-.15-.92-.47-1.12-.28.05-.49.23-.65.45l-.05.05c.03 0 .05.02.07.03.12.06.24.2.36.33.23.26.46.52.74.26Zm-1.06-.65c.08.05.16.12.23.2l.14.15.14.15c.09.1.17.16.25.18.08.02.16.01.26-.08l.01-.01c.1-.06.14-.14.14-.21a.53.53 0 0 0-.1-.29c-.12-.2-.34-.39-.5-.49a1 1 0 0 0-.57.4Zm-5.97.8c.12-.06.24-.16.36-.27.2-.16.4-.33.6-.39a.6.6 0 0 1 .07-.01l-.02-.03-.02-.03c-.2-.27-.45-.57-.83-.49l-.1.07c-.32.23-.86.61-.6 1 .04.05.05.05.07.04l.03.01c.04.07.16.27.44.1Zm-.5-.2.03.03h.01l.05.01.02.01.01.02c.02.03.05.08.1.11l.09.02c.04 0 .09-.01.15-.05a9.17 9.17 0 0 0 .35-.27h.01l.13-.1c.14-.12.3-.24.47-.3a1.84 1.84 0 0 0-.3-.31.53.53 0 0 0-.43-.13l-.09.06c-.14.1-.32.23-.46.38a.72.72 0 0 0-.17.27.3.3 0 0 0 .03.26Z"
    clip-rule="evenodd"
  />
  <path
    fill="#000"
    d="M3.99 3.07c-.21-.11-.36-.26-.24-.5.12-.23.34-.2.55-.1l-.31.6Zm7.6-.21c.21-.11.36-.26.24-.5-.12-.23-.34-.2-.55-.1l.31.6Z"
  />
  <path fill="#C6B198" d="M13.04 8.53c-.07-.03-.13-.04-.17-.1Z" />
  <path
    fill="#6AD7E5"
    d="M7.84 1c1.6 0 3.09.23 3.86 1.76.7 1.71.45 3.56.56 5.37.1 1.56.3 3.35-.43 4.8-.76 1.51-2.65 1.9-4.22 1.84-1.23-.04-2.7-.45-3.4-1.57-.81-1.31-.43-3.27-.37-4.73.07-1.74-.47-3.48.1-5.18.6-1.76 2.18-2.15 3.9-2.29Z"
  />
  <path
    fill="#000"
    fill-rule="evenodd"
    d="m11.83 12.93-.06-.03c.36-.71.49-1.51.51-2.33.03-.66-.02-1.33-.06-1.98l-.03-.45a25.86 25.86 0 0 1-.03-1.5c0-.4 0-.82-.02-1.23a7.73 7.73 0 0 0-.5-2.63c-.76-1.48-2.2-1.71-3.8-1.71-.85.06-1.67.2-2.34.53-.67.33-1.2.85-1.5 1.72a6.54 6.54 0 0 0-.23 2.54l.06.75a15 15 0 0 1 0 3.03c-.04.41-.07.83-.07 1.25 0 .83.1 1.64.5 2.28l-.05.03c-.65-1.05-.54-2.51-.43-3.8l.06-.93c.02-.62-.03-1.24-.08-1.85a8.07 8.07 0 0 1 .18-3.33c.6-1.76 2.18-2.15 3.9-2.29 1.6 0 3.09.23 3.86 1.76.51 1.24.52 2.56.53 3.89 0 .5 0 .99.03 1.48l.03.46c.1 1.44.2 3.03-.46 4.34Zm0 0-.06-.03A3.06 3.06 0 0 1 10 14.37c-.75.28-1.6.36-2.39.33-1.22-.04-2.67-.44-3.34-1.53l-.06.03c.7 1.12 2.17 1.53 3.4 1.57 1.57.05 3.46-.33 4.22-1.84Z"
    clip-rule="evenodd"
  />
  <path
    fill="#fff"
    d="M8.46 5.36v-.3l-.53-.17-.01.33c-.02.18-.03.35 0 .53.04.12.15.2.28.23a.91.91 0 0 1 .07-.03c.07-.03.15-.05.19-.13.02-.15.01-.31 0-.46Z"
  />
  <path
    fill="#000"
    fill-rule="evenodd"
    d="M8.4 5.12 8 4.98l-.02.25c-.01.17-.02.34 0 .5.04.1.12.16.21.18l.06-.02c.07-.03.12-.05.14-.1.03-.13.02-.28 0-.43V5.12Zm.06.7c-.04.08-.12.1-.19.13a.91.91 0 0 0-.07.03.38.38 0 0 1-.29-.23c-.02-.18 0-.35 0-.53l.02-.26v-.07l.53.18V5.36c.01.15.02.3 0 .46Z"
    clip-rule="evenodd"
  />
  <path
    fill="#fff"
    d="M4.88 3.4c.37 1.45 2.68 1.08 2.6-.37-.1-1.74-2.96-1.4-2.6.38Z"
  />
  <path
    fill="#000"
    fill-rule="evenodd"
    d="M7.4 3.03c-.02-.4-.2-.7-.46-.87-.26-.17-.6-.24-.93-.2-.32.05-.63.2-.84.44-.2.23-.31.57-.23 1 .18.67.8.93 1.4.84.59-.1 1.11-.52 1.07-1.2Zm-2.52.38c.37 1.44 2.68 1.07 2.6-.38-.1-1.74-2.96-1.4-2.6.38Z"
    clip-rule="evenodd"
  />
  <path
    fill="#fff"
    d="M8.12 3.14c.29 1.66 3 1.22 2.61-.46-.35-1.5-2.7-1.08-2.6.46Z"
  />
  <path
    fill="#000"
    fill-rule="evenodd"
    d="M10.67 2.7c-.09-.36-.29-.6-.54-.74a1.32 1.32 0 0 0-.86-.13c-.6.1-1.13.57-1.08 1.3.07.4.28.66.55.81.27.16.61.21.93.16.32-.06.62-.21.8-.45.2-.23.3-.55.2-.95Zm-2.55.44c.29 1.66 3 1.22 2.61-.46-.35-1.5-2.7-1.08-2.6.46Z"
    clip-rule="evenodd"
  />
  <path
    fill="#000"
    d="M5.12 3.17c0 .11.05.22.12.3.07.08.17.12.28.12.1 0 .2-.04.27-.12a.44.44 0 0 0 .12-.3.44.44 0 0 0-.12-.3.38.38 0 0 0-.27-.12c-.1 0-.2.04-.28.12a.44.44 0 0 0-.12.3Z"
  />
  <path
    fill="#fff"
    d="M5.6 3.27v.04l.03.03.03.03a.08.08 0 0 0 .07 0 .1.1 0 0 0 .03-.03l.02-.03v-.09a.11.11 0 0 0-.02-.03.1.1 0 0 0-.03-.03.08.08 0 0 0-.07 0 .1.1 0 0 0-.03.03l-.02.03v.05Z"
  />
  <path
    fill="#000"
    d="M8.4 3.06c0 .12.05.22.12.3.07.08.17.13.27.13s.2-.05.27-.13a.45.45 0 0 0 .12-.3.45.45 0 0 0-.12-.3.37.37 0 0 0-.27-.12c-.1 0-.2.05-.27.12a.45.45 0 0 0-.11.3Z"
  />
  <path
    fill="#fff"
    d="M7.33 5.1c-.17.42.1 1.25.56.64-.03-.26.01-.57.02-.83l-.58.2Z"
  />
  <path
    fill="#000"
    fill-rule="evenodd"
    d="M7.82 5.72a2.41 2.41 0 0 1 0-.4l.01-.16.01-.15-.46.15a.8.8 0 0 0-.03.3c0 .12.04.23.08.31.05.08.1.12.15.12.06 0 .14-.04.24-.17Zm-.49-.61c-.17.41.1 1.24.56.63-.02-.18 0-.38 0-.57l.02-.19v-.07l-.58.2Z"
    clip-rule="evenodd"
  />
  <path
    fill="#fff"
    fill-rule="evenodd"
    d="M15.26 5.55a.22.22 0 0 1-.03-.2c0-.03.02-.05.03-.06a.16.16 0 0 1 .05-.05.13.13 0 0 1 .12 0l.05.05a.21.21 0 0 1 .04.13.2.2 0 0 1-.04.13.14.14 0 0 1-.1.05.14.14 0 0 1-.12-.05Z"
    clip-rule="evenodd"
  />
  <path
    fill="#F6D2A2"
    d="M7.39 4.31c-.32.03-.58.4-.41.7.22.4.7-.03 1.01.01.35 0 .64.37.92.07.31-.34-.14-.67-.49-.82l-1.03.04Z"
  />
  <path
    fill="#000"
    fill-rule="evenodd"
    d="M7.04 4.98c.04.09.1.12.16.13.06.01.14 0 .23-.02l.14-.05h.02l.12-.05A.7.7 0 0 1 8 4.95c.1 0 .2.03.27.06l.12.05.12.05c.07.02.13.04.19.03.05 0 .1-.03.17-.1s.09-.14.09-.2a.33.33 0 0 0-.09-.2c-.1-.12-.28-.23-.45-.3l-1.02.04a.46.46 0 0 0-.33.22.38.38 0 0 0-.02.38Zm.35-.67c-.32.03-.58.4-.41.7.14.26.4.17.63.09.14-.05.27-.1.38-.08.13 0 .25.05.36.1.2.08.38.16.56-.03.31-.34-.14-.67-.49-.82l-1.03.04Z"
    clip-rule="evenodd"
  />
  <path
    fill="#000"
    d="M7.35 4.3c-.02-.56 1.03-.63 1.15-.16.13.46-1.1.56-1.15.15Z"
  />
</svg>
