<svg
  xmlns="http://www.w3.org/2000/svg"
  fill="none"
  viewBox="0 0 16 16"
  data-type="icon"
  data-colorful="true"
>
  <path
    fill="#ea4335"
    d="M10.16 5.084h.488l1.392-1.391.069-.591A6.255 6.255 0 0 0 1.931 6.154a.76.76 0 0 1 .488-.03l2.783-.459s.142-.234.215-.22a3.47 3.47 0 0 1 4.752-.36z"
  />
  <path
    fill="#4285f4"
    d="M14.022 6.153a6.27 6.27 0 0 0-1.89-3.047L10.177 5.06a3.47 3.47 0 0 1 1.274 2.753v.347a1.738 1.738 0 1 1 0 3.477H7.976l-.346.352v2.084l.346.347h3.476a4.522 4.522 0 0 0 2.57-8.267"
  />
  <path
    fill="#34a853"
    d="M4.495 14.402h3.477v-2.784H4.495c-.247 0-.492-.053-.718-.156l-.488.151-1.401 1.392-.122.488a4.5 4.5 0 0 0 2.73.909"
  />
  <path
    fill="#fbbc05"
    d="M4.495 5.372a4.522 4.522 0 0 0-2.73 8.106l2.017-2.017a1.739 1.739 0 1 1 2.3-2.3L8.1 7.145a4.52 4.52 0 0 0-3.604-1.772"
  />
</svg>
