<svg
  xmlns="http://www.w3.org/2000/svg"
  class="icon"
  data-colorful="true"
  data-type="icon"
  viewBox="0 0 1024 1024"
>
  <path
    fill="#f46800"
    d="M981.28 453.376c-1.824-17.28-4.512-37.248-9.984-59.04s-14.56-45.44-26.368-70.88c-12.704-24.544-28.16-50.912-49.056-75.424-8.192-9.984-17.28-19.072-26.368-29.056 14.56-57.248-17.28-107.232-17.28-107.232-55.424-3.616-89.952 17.28-102.656 26.368-1.824-.896-4.512-1.824-6.368-2.72a1126 1126 0 0 0-29.056-10.912c-9.984-2.72-20-6.368-29.984-8.192-9.984-2.72-20.896-4.512-31.776-6.368-1.824 0-3.616-.896-5.472-.896C623.264 32.704 554.24 0 554.24 0c-79.072 50.912-94.496 119.04-94.496 119.04s0 1.824-.896 3.616c-4.512.896-8.192 2.72-12.704 3.616-5.472 1.824-11.808 3.616-17.28 6.368s-11.808 4.512-17.28 7.264c-11.808 5.472-22.688 10.912-34.528 17.28-12.512 7.04-22.912 13.664-32.896 20.768l1.12-.768c-1.824-.896-2.72-1.824-2.72-1.824-106.336-40.864-200.8 8.192-200.8 8.192C133.568 297.12 184.48 368 194.464 380.704c-2.72 7.264-4.512 13.6-7.264 20.896a430 430 0 0 0-17.024 76.768l-.256 2.304c-.896 3.616-.896 8.192-1.824 11.808-98.144 48.16-127.2 148.096-127.2 148.096 81.792 94.496 178.08 99.968 178.08 99.968 13.056 23.456 26.88 43.68 42.368 62.496l-.576-.704c6.368 8.192 13.6 15.456 20.896 23.648-29.984 85.408 4.512 157.184 4.512 157.184 91.776 3.616 151.712-39.968 164.448-49.952l27.264 8.192c28.16 7.264 57.248 11.808 85.408 12.704h37.248c42.72 61.792 119.04 69.984 119.04 69.984 53.6-57.248 57.248-112.672 57.248-125.408v-5.472c10.912-8.192 21.792-16.352 32.736-25.44 21.792-19.072 39.968-41.824 56.32-65.408 1.824-1.824 2.72-4.512 4.512-6.368 60.896 3.616 103.584-38.144 103.584-38.144-9.984-63.616-46.336-94.496-53.6-99.968l-2.688-2.688c0-3.616.896-7.264.896-11.808.896-7.264.896-13.6.896-20.896v-26.368c0-1.824 0-3.616-.896-5.472l-1.824-10.912c-.896-7.264-2.72-13.6-3.616-20.896a269.7 269.7 0 0 0-31.552-77.536l.672 1.216a285.1 285.1 0 0 0-51.52-61.536l-.256-.224a251 251 0 0 0-63.808-41.184l-1.6-.64a222.8 222.8 0 0 0-70.72-19.904l-1.056-.096c-11.808-1.824-24.544-1.824-36.352-1.824h-18.176c-6.368.896-12.704 1.824-18.176 2.72-24.544 4.512-47.232 13.6-67.232 25.44s-37.248 27.264-51.808 44.512a182.5 182.5 0 0 0-32.32 54.176l-.416 1.248a196.4 196.4 0 0 0-12.704 59.04v21.792c0 2.72 0 4.512.896 7.264 3.04 29.376 13.824 55.744 30.272 77.632l-.288-.384c10.912 14.56 22.688 25.44 36.352 34.528 13.6 9.088 27.264 15.456 41.824 20s28.16 6.368 40.864 5.472h19.04c1.824 0 3.616-.896 4.512-.896 1.824 0 2.72-.896 4.512-.896 2.72-.896 6.368-1.824 9.088-2.72 5.472-1.824 10.912-4.512 16.352-6.368 5.472-2.72 9.984-5.472 13.6-8.192.896-.896 2.72-1.824 3.616-2.72a10.176 10.176 0 0 0 1.824-14.56v.032a12.74 12.74 0 0 0-13.696-2.72l.096-.032c-.896.896-1.824.896-3.616 1.824a57.8 57.8 0 0 1-11.392 4.416l-.416.096c-4.512.896-9.088 2.72-13.6 3.616-2.72 0-4.512.896-7.264.896h-15.392s-.896 0 0 0h-3.68c-.928 0-2.72 0-3.616-.896-9.984-1.824-20.896-4.512-30.88-9.088s-20-10.912-28.16-19.072c-9.088-8.192-16.352-17.28-22.688-28.16s-9.984-22.688-11.808-34.528c-.896-6.368-1.824-12.704-.896-19.072v-5.472c0 .896 0 0 0 0v-4.576c0-3.616.896-6.368 1.824-9.984a133.2 133.2 0 0 1 39.04-73.568l.032-.032c5.472-5.472 10.912-9.984 17.28-13.6 6.368-4.512 12.704-8.192 19.072-10.912s13.6-5.472 20.896-7.264c7.264-1.824 14.56-3.616 21.792-3.616 3.616 0 7.264-.896 10.912-.896h7.264c.896 0 0 0 0 0h3.616a172.7 172.7 0 0 1 69.952 21.344l-.864-.448c29.056 16.352 53.6 40.864 68.128 70.88 7.264 14.56 12.704 30.88 15.456 48.16.896 4.512.896 8.192 1.824 12.704v23.648c0 4.512-.896 9.088-.896 13.6-.896 4.512-.896 9.088-1.824 13.6l-2.72 13.6c-.896 4.512-5.472 17.28-8.192 26.368s-15.456 33.632-26.368 48.16a221.6 221.6 0 0 1-84.064 69.408l-1.344.576c-17.28 7.264-34.528 13.6-52.704 16.352-8.192 1.728-17.6 2.72-27.264 2.72h-13.6c.896 0 0 0 0 0h-.896c-4.512 0-9.984 0-14.56-.896-20-1.824-39.072-5.472-58.144-10.912s-37.248-12.704-54.528-21.792A298.9 298.9 0 0 1 371.2 714.72l-.416-.544c-11.808-15.456-22.688-31.776-31.776-49.056s-15.456-35.456-20.896-53.6a228.5 228.5 0 0 1-9.088-55.872V527.04c0-9.088.896-19.072 2.72-29.056.896-9.984 2.72-19.072 4.512-29.056s4.512-19.072 7.264-29.056 11.808-37.248 20-54.528c16.352-34.528 37.248-65.408 61.792-89.952 6.368-6.368 12.704-11.808 20-17.28 2.72-2.72 9.088-8.192 16.352-12.704s14.56-9.088 22.688-12.704c3.616-1.824 7.264-3.616 11.808-5.472 1.824-.896 3.616-1.824 6.368-2.72 1.824-.896 3.616-1.824 6.368-2.72 8.192-3.616 16.352-6.368 24.544-9.088 1.824-.896 4.512-.896 6.368-1.824s4.512-.896 6.368-1.824 8.192-1.824 12.704-3.616c1.824-.896 4.512-.896 6.368-1.824 1.824 0 4.512-.896 6.368-.896s4.512-.896 6.368-.896l7.264-1.824c1.824 0 4.512-.896 6.368-.896 2.72 0 4.512-.896 7.264-.896 1.824 0 5.472-.896 7.264-.896s2.72 0 4.512-.896h6.368c2.72 0 4.512 0 7.264-.896h3.616s.896 0 0 0h33.632c16.352.896 32.736 2.72 48.16 5.472a307.8 307.8 0 0 1 88.928 29.856l-1.728-.8c27.04 13.184 50.336 28.64 71.296 46.688l-.416-.352c.896.896 2.72 1.824 3.616 3.616.896.896 2.72 1.824 3.616 3.616 2.72 1.824 4.512 4.512 7.264 6.368s4.512 4.512 7.264 6.368c1.824 2.72 4.512 4.512 6.368 7.264a336.5 336.5 0 0 1 59.104 82.56l.896 1.92c.896.896.896 1.824 1.824 3.616.896.896.896 1.824 1.824 3.616s1.824 4.512 3.616 6.368c.896 1.824 1.824 4.512 2.72 6.368s1.824 4.512 2.72 6.368c3.616 8.192 6.368 16.352 9.088 24.544 4.512 12.704 7.264 23.648 9.984 32.736a8.74 8.74 0 0 0 8.192 6.368c4.512 0 7.264-3.616 7.264-8.192-.896-10.912-.896-22.688-1.824-36.352z"
  />
</svg>
