<svg
  xmlns="http://www.w3.org/2000/svg"
  class="icon"
  data-colorful="true"
  data-type="icon"
  viewBox="0 0 1047 1024"
>
  <path
    fill="#499933"
    d="m476.714 671.332-162.89-71.782zm-176.858 86.012-6.428 72.684a391.5 391.5 0 0 0 201.327 61.918l-4.133-50.54-190.76-84.062zm15.946-180.167 158.935 70.038-10.955-134.033h20.797v-44.786H469.15v-91.398h15.428v-26.266l-85.717-83.879v-5.904a8.093 8.093 0 0 0-16.18 0v5.904l-85.728 83.879v26.272h15.44v91.392h-15.44v44.786h24.507zM342.87 313.01h101.463v155.387h-25.426V429.36a28.143 28.143 0 1 0-56.281 0v39.037h-25.42l5.659-155.393zm-36.375 369.357 177.516 78.23-2.663-32.576-172.185-75.87zm-1.977 22.384-2.68 30.21 186.807 82.325-2.657-32.566zm9.307-105.2-2.68 30.227 168.232 74.126-2.663-32.57zm556.268-296.873 66.797-21.465c-.312-.608-.574-1.254-.886-1.85a484.6 484.6 0 0 0-51.547-80.119l-62.67 32.432a414.4 414.4 0 0 1 48.306 71.002"
  />
  <path
    fill="#696566"
    d="M850.16 307.361c.267.48.5.986.762 1.47l19.171-6.154a414.4 414.4 0 0 0-48.305-71.002l-18.102 9.368a396.5 396.5 0 0 1 46.473 66.318m68.144 165.508 69.598 4.996a480.4 480.4 0 0 0-8.232-71.114l-70.227 2.395a413.4 413.4 0 0 1 8.861 63.723"
  />
  <path
    fill="#696566"
    d="M889.359 409.831a392 392 0 0 1 9.034 61.612l19.911 1.426a413.4 413.4 0 0 0-8.861-63.723z"
  />
  <path
    fill="#696566"
    d="M505.504 911.79c-3.063 0-6.093-.167-9.145-.233l2.656 32.476-209.78-66.652 2.233-25.214a413.641 413.641 0 1 1 439.89-700.494l48.758-50.718a483.017 483.017 0 1 0 195.01 509.857l-65.873-22.852a413.72 413.72 0 0 1-403.749 323.83"
  />
  <path
    fill="#696566"
    d="M505.504 892.219c-3.604 0-7.168-.173-10.75-.273l1.605 19.61c3.052.067 6.076.234 9.145.234a413.72 413.72 0 0 0 403.75-323.83l-18.631-6.46a394.704 394.704 0 0 1-385.119 310.719m-394.086-394.07a393.802 393.802 0 0 1 606.011-332.006l13.924-14.476a413.641 413.641 0 1 0-439.89 700.5l1.96-22.139a394.01 394.01 0 0 1-182.016-331.884zm177.817 379.238 209.78 66.646-2.656-32.47a411.5 411.5 0 0 1-204.891-59.396l-2.228 25.214z"
  />
  <path
    fill="#499933"
    d="M291.468 852.167a411.5 411.5 0 0 0 204.89 59.39l-1.603-19.606a391.5 391.5 0 0 1-201.327-61.923zm530.32-620.492 62.67-32.432c-2.797-3.537-5.487-7.157-8.377-10.616a487 487 0 0 0-82.665-78.17 499 499 0 0 0-13.3-9.502l-48.763 50.712a415.7 415.7 0 0 1 90.435 80.008"
  />
  <path
    fill="#499933"
    d="m488.645 404.078 315.041-163.035 18.102-9.368a415.7 415.7 0 0 0-90.435-80.008l-13.918 14.481-228.79 237.936zm315.041-163.035 18.102-9.368zm184.216 236.822-69.598-4.996c.507 8.37.841 16.781.841 25.275a414.8 414.8 0 0 1-9.892 89.816l65.873 22.852c.25-1.002.534-1.983.774-2.996a482.5 482.5 0 0 0 12.699-109.667c0-1.28-.078-2.545-.09-3.82-.044-5.525-.373-10.984-.607-16.464"
  />
  <path
    fill="#499933"
    d="m918.304 472.869-19.911-1.426-409.748-29.408L890.623 581.5l18.63 6.461a414.8 414.8 0 0 0 9.892-89.816c0-8.494-.334-16.904-.835-25.275zm-8.861-63.723 70.227-2.395a490 490 0 0 0-4.35-20.785 479.5 479.5 0 0 0-38.43-104.754l-66.797 21.465a410.8 410.8 0 0 1 39.35 106.47"
  />
  <path
    fill="#499933"
    d="m494.85 423.26 394.509-13.429 20.084-.685a410.8 410.8 0 0 0-39.35-106.469l-19.17 6.154z"
  />
</svg>
