<svg
  xmlns="http://www.w3.org/2000/svg"
  class="icon"
  data-colorful="true"
  data-type="icon"
  viewBox="0 0 1024 1024"
>
  <path
    fill="#1eb4d4"
    d="M993.429 344.371c29.392-90.68 11.719-271.661-45.283-338.486a17.256 17.256 0 0 0-27.572 2.161l-70.2 109.15A54.385 54.385 0 0 1 778.2 128.84a485.45 485.45 0 0 0-264.986-78.127 485.45 485.45 0 0 0-264.987 78.127 54.537 54.537 0 0 1-72.173-11.644l-70.2-109.15a17.332 17.332 0 0 0-27.572-2.161C21.242 72.823 3.568 253.805 32.998 344.37c9.747 30.19 12.402 62.047 6.675 92.994-5.764 30.72-11.491 67.85-11.491 93.677 0 265.328 217.162 480.329 484.918 480.329 267.831 0 484.918-215.115 484.918-480.33 0-25.827-5.765-62.956-11.492-93.676a190.96 190.96 0 0 1 6.903-92.994m-480.33 559.784c-207.073 0-375.426-166.873-375.426-371.975 0-6.713.228-13.274.57-19.911 7.47-139.757 93.183-259.147 214.431-316.073a374.5 374.5 0 0 1 160.54-35.726c57.457 0 111.805 12.743 160.54 35.84 121.21 56.888 206.922 176.43 214.393 316.072.38 6.6.569 13.312.569 19.911-.114 204.989-168.542 371.862-375.616 371.862"
  />
  <path
    fill="#1eb4d4"
    d="M675.801 675.387 579.85 510.562l-82.3-137.367a10.77 10.77 0 0 0-9.291-5.234h-78.583a10.77 10.77 0 0 0-9.443 5.462 10.5 10.5 0 0 0 .114 10.695l78.733 130.995-105.623 159.553a10.657 10.657 0 0 0 9.103 16.536h79.15a10.73 10.73 0 0 0 9.103-4.93l57.078-88.291 51.275 87.987a10.89 10.89 0 0 0 9.292 5.31h78.051a10.62 10.62 0 0 0 9.292-5.31 10.28 10.28 0 0 0 0-10.619z"
  />
</svg>
