<svg
  xmlns="http://www.w3.org/2000/svg"
  xml:space="preserve"
  data-colorful="true"
  data-type="icon"
  style="
    fill-rule: evenodd;
    clip-rule: evenodd;
    stroke-linejoin: round;
    stroke-miterlimit: 2;
  "
  viewBox="0 0 1280 640"
>
  <circle
    cx="141.023"
    cy="338.36"
    r="117.472"
    style="fill: #f8b5cb"
    transform="matrix(.99728 0 0 1.00556 10.002 -14.823)"
  />
  <circle
    cx="352.014"
    cy="268.302"
    r="33.095"
    style="fill: #a2a2a2"
    transform="matrix(1.01749 0 0 1 -3.158 0)"
  />
  <circle
    cx="352.014"
    cy="268.302"
    r="33.095"
    style="fill: #a2a2a2"
    transform="matrix(1.01749 0 0 1 -3.158 115.914)"
  />
  <circle
    cx="352.014"
    cy="268.302"
    r="33.095"
    style="fill: #a2a2a2"
    transform="matrix(1.01749 0 0 1 148.43 115.914)"
  />
  <circle
    cx="352.014"
    cy="268.302"
    r="33.095"
    style="fill: #a2a2a2"
    transform="matrix(1.01749 0 0 1 148.851 0)"
  />
  <circle
    cx="805.557"
    cy="336.915"
    r="118.199"
    style="fill: #8d8d8d"
    transform="matrix(.99196 0 0 1 3.37 -10.246)"
  />
  <circle
    cx="805.557"
    cy="336.915"
    r="118.199"
    style="fill: #8d8d8d"
    transform="matrix(.99196 0 0 1 255.633 -10.246)"
  />
  <path
    d="M680.282 124.808h-68.093v390.325h68.081v-28.23H640V153.228h40.282z"
    style="fill: #303030"
  />
  <path
    d="M680.282 124.808h-68.093v390.325h68.081v-28.23H640V153.228h40.282z"
    style="fill: #303030"
    transform="matrix(-1 0 0 1 1857.19 0)"
  />
</svg>
