<svg
  xmlns="http://www.w3.org/2000/svg"
  fill="none"
  viewBox="0 0 16 16"
  data-type="icon"
  data-colorful="true"
>
  <path
    fill="#408FC1"
    d="M6.18 11.85s-.56.31.4.42c1.17.12 1.76.1 3.05-.13 0 0 .34.2.81.38-2.88 1.16-6.53-.07-4.26-.67Zm-.35-1.52s-.63.44.33.54c1.25.12 2.23.13 3.93-.18 0 0 .24.22.61.35-3.49.96-7.37.07-4.87-.7Z"
  />
  <path
    fill="#EF5859"
    d="M8.7 7.85c.72.78-.2 1.48-.2 1.48s1.84-.89 1-2C8.7 6.3 8.1 5.78 11.37 4c0 0-5.12 1.2-2.68 3.85Z"
  />
  <path
    fill="#408FC1"
    d="M12.18 12.99s.38.32-.42.56c-1.54.48-6.38.62-7.73.02-.48-.21.42-.5.71-.57.3-.06.47-.05.47-.05-.54-.39-3.48.75-1.5 1.08 5.42.9 9.87-.4 8.47-1.04Zm-5.67-4.2s-2.47.6-.88.82c.67.1 2.02.07 3.26-.04 1.02-.08 2.05-.27 2.05-.27s-.36.16-.62.34c-2.5.67-7.34.36-5.95-.33 1.18-.58 2.14-.51 2.14-.51Zm4.42 2.52c2.54-1.34 1.37-2.63.55-2.46-.2.04-.3.08-.3.08s.08-.12.22-.17c1.63-.58 2.88 1.71-.52 2.62l.05-.07Z"
  />
  <path
    fill="#EF5859"
    d="M9.32 1s1.48 1.45-1.4 3.69c-2.3 1.79-.53 2.8 0 3.98-1.35-1.2-2.34-2.25-1.67-3.23C7.22 4 9.92 3.31 9.32 1Z"
  />
  <path
    fill="#408FC1"
    d="M6.65 14.96c2.48.16 6.3-.1 6.38-1.3 0 0-.17.46-2.05.82-2.12.4-4.73.36-6.28.1 0 0 .32.27 1.95.38Z"
  />
</svg>
