<svg xmlns="http://www.w3.org/2000/svg" fill="none" viewBox="0 0 49 49">
  <path
    fill="#D9D9D9"
    d="M31.8 26.65a5.54 5.54 0 0 0-4.15 1.87l-2.6-1.83a7.04 7.04 0 0 0 .02-4.8l2.6-1.8a5.51 5.51 0 0 0 4.14 1.86 5.53 5.53 0 0 0 5.53-5.5A5.53 5.53 0 1 0 26.5 18l-2.6 1.8a7.16 7.16 0 0 0-4.42-2.55v-3.11a5.55 5.55 0 0 0 4.4-5.39 5.53 5.53 0 1 0-9.86 3.43 5.54 5.54 0 0 0 3.09 1.93v3.16a7.16 7.16 0 0 0-5.91 7 7.1 7.1 0 0 0 5.96 7v3.33a5.54 5.54 0 0 0-4.35 5.37 5.52 5.52 0 1 0 9.84-3.45 5.54 5.54 0 0 0-3.12-1.92v-3.33a7.16 7.16 0 0 0 4.35-2.52l2.62 1.84a5.53 5.53 0 1 0 10.84 1.55c0-3.03-2.49-5.5-5.54-5.5Zm0-12.88a2.7 2.7 0 0 1 2.69 2.67 2.67 2.67 0 0 1-2.69 2.67 2.7 2.7 0 0 1-2.68-2.67 2.67 2.67 0 0 1 2.68-2.67Zm-16.14-5a2.67 2.67 0 0 1 2.68-2.68 2.7 2.7 0 0 1 2.68 2.67 2.67 2.67 0 0 1-2.68 2.67 2.7 2.7 0 0 1-2.68-2.67Zm5.36 31.21a2.67 2.67 0 0 1-2.68 2.67 2.7 2.7 0 0 1-2.68-2.67 2.67 2.67 0 0 1 2.68-2.67 2.7 2.7 0 0 1 2.68 2.67ZM18.34 28a3.75 3.75 0 0 1-3.74-3.73 3.72 3.72 0 0 1 3.74-3.72 3.76 3.76 0 0 1 3.74 3.72A3.72 3.72 0 0 1 18.34 28Zm13.46 6.82a2.7 2.7 0 0 1-2.68-2.67 2.67 2.67 0 0 1 2.68-2.67 2.7 2.7 0 0 1 2.69 2.67 2.67 2.67 0 0 1-2.69 2.67Z"
  />
</svg>
