<svg
  xmlns="http://www.w3.org/2000/svg"
  data-colorful="false"
  data-type="icon"
  viewBox="72 72 400 400"
>
  <path
    fill="#00d6b9"
    d="m273.46 264.31 1.01-1.01c.65-.65 1.36-1.36 2.06-2.01l1.41-1.36 4.17-4.12 5.73-5.58 4.88-4.83 4.57-4.52 4.78-4.73 4.37-4.32 6.13-6.03q1.75-1.72 3.57-3.37c2.21-2.01 4.52-3.97 6.84-5.88a157 157 0 0 1 6.64-4.98c3.17-2.26 6.43-4.32 9.75-6.33a179 179 0 0 1 10.05-5.43 132 132 0 0 1 15.58-6.38c.96-.3 1.91-.65 2.92-.96a241 241 0 0 0-45.6-91.5 22 22 0 0 0-17.14-8.19H128.97a3.32 3.32 0 0 0-1.96 5.98 514 514 0 0 1 146.04 166z"
  />
  <path
    fill="#133c9a"
    d="M203.43 419.4c90.99 0 170.27-50.22 211.6-124.43q2.2-3.9 4.22-7.89a96 96 0 0 1-6.94 11.41q-1.34 1.88-2.77 3.77a103 103 0 0 1-6.74 7.84 86 86 0 0 1-6.64 6.28 78 78 0 0 1-3.92 3.17 76 76 0 0 1-4.78 3.42q-1.52 1.04-3.12 2.01a91 91 0 0 1-23.63 10.3 87 87 0 0 1-10.81 2.31c-2.61.4-5.33.7-7.99.9-2.82.2-5.68.25-8.55.25a103 103 0 0 1-16.64-1.61q-3.09-.54-6.18-1.31c-1.11-.25-2.16-.55-3.27-.85q-4.52-1.22-9.05-2.51c-1.51-.45-3.02-.85-4.47-1.31q-3.37-1-6.69-2.06-2.71-.84-5.43-1.76c-1.71-.55-3.47-1.11-5.18-1.71l-3.52-1.21-4.27-1.51-3.02-1.11q-3.03-1.07-5.98-2.21c-1.16-.45-2.31-.85-3.47-1.31l-4.63-1.81-4.88-1.96-3.17-1.31-3.92-1.61-3.02-1.26-3.12-1.36-2.71-1.21-2.46-1.11-2.51-1.16-2.56-1.21-3.27-1.51-3.42-1.61-3.62-1.76-3.07-1.51A509 509 0 0 1 65.6 190.35a3.32 3.32 0 0 0-5.74 2.26l.1 155.49v12.62c0 7.34 3.62 14.18 9.7 18.25a239.7 239.7 0 0 0 133.73 40.37"
  />
  <path
    fill="#3370ff"
    d="M470.83 200.21a139.1 139.1 0 0 0-121.41-.45 146 146 0 0 0-10.05 5.38 123 123 0 0 0-9.75 6.33 128 128 0 0 0-13.48 10.86 221 221 0 0 0-3.57 3.37l-6.13 6.03-4.37 4.32-4.78 4.73-4.57 4.52-4.88 4.83-5.68 5.63-4.17 4.12-1.41 1.36c-.65.65-1.36 1.36-2.06 2.01l-1.01 1.01-1.56 1.46-1.76 1.61a243 243 0 0 1-50.17 35.54l3.27 1.51 2.56 1.21 2.51 1.16 2.46 1.11 2.71 1.21 3.12 1.36 3.02 1.26 3.92 1.61 3.17 1.31 4.88 1.96 4.63 1.81c1.16.45 2.31.85 3.47 1.31q3.03 1.1 5.98 2.21l3.02 1.11 4.27 1.51 3.52 1.21c1.71.55 3.42 1.16 5.18 1.71l5.43 1.76c2.21.7 4.47 1.36 6.69 2.06q2.28.69 4.47 1.31 4.53 1.3 9.05 2.51c1.11.3 2.16.55 3.27.85 2.06.5 4.12.9 6.18 1.31q3.55.61 7.09 1.01 4.81.53 9.55.6a97 97 0 0 0 16.54-1.15 102 102 0 0 0 10.81-2.31 89 89 0 0 0 7.04-2.26 91 91 0 0 0 16.59-8.04c1.11-.65 2.11-1.36 3.12-2.01 1.61-1.11 3.22-2.21 4.78-3.42a60 60 0 0 0 3.92-3.17 100 100 0 0 0 13.33-14.12 108 108 0 0 0 9.66-15.08l2.36-4.68 21.01-41.88.25-.5a138 138 0 0 1 28-39.97Z"
  />
</svg>
