<svg xmlns="http://www.w3.org/2000/svg" fill="none" viewBox="0 0 32 32">
  <path
    fill="#8C8C8C"
    fill-rule="evenodd"
    d="M20.03 6.08a2.8 2.8 0 0 0-3.96 0L5.49 16.66a.93.93 0 1 1-1.32-1.32L14.75 4.76a4.67 4.67 0 0 1 7.93 3.97c1.4-.2 2.88.24 3.96 1.32l.06.05a4.67 4.67 0 0 1 0 6.61l-9.57 9.57a.31.31 0 0 0 0 .44l1.97 1.96A.93.93 0 0 1 17.78 30l-1.97-1.96a2.18 2.18 0 0 1 0-3.08l9.57-9.57a2.8 2.8 0 0 0 0-3.96l-.06-.06a2.8 2.8 0 0 0-3.96 0l-7.88 7.88-.11.1a.93.93 0 1 1-1.32-1.31l7.98-7.99a2.8 2.8 0 0 0 0-3.97Zm-1.32 2.65A.93.93 0 0 0 17.4 7.4l-7.82 7.82a4.67 4.67 0 0 0 6.6 6.6L24 14.03a.93.93 0 0 0-1.32-1.33l-7.82 7.82a2.8 2.8 0 0 1-3.97-3.96l7.82-7.82Z"
    clip-rule="evenodd"
  />
</svg>
