<svg xmlns="http://www.w3.org/2000/svg" fill="none" viewBox="0 0 49 49">
  <path
    fill="#43B6EA"
    d="M12.8 13.87a14.84 14.84 0 0 1 21.03 0 14.93 14.93 0 0 1-10.52 25.47 14.85 14.85 0 0 1-10.52-4.38l-9.5-9.53a1.44 1.44 0 0 1 0-2.03l9.5-9.53Zm18.78 2.8a10.9 10.9 0 0 0-15.46 0l-6.97 7a1.06 1.06 0 0 0 0 1.5l6.98 7a10.9 10.9 0 0 0 18.66-7.75c0-2.9-1.16-5.7-3.2-7.75h-.01Zm-7.64.4a7.4 7.4 0 0 1 7.35 7.46 7.4 7.4 0 0 1-7.35 7.46 7.4 7.4 0 0 1-7.35-7.46 7.4 7.4 0 0 1 7.35-7.46Zm22.4 6.44-4.24-4.25a.35.35 0 0 0-.6.33c.73 3.25.73 6.62 0 9.87-.08.36.35.59.6.34l4.23-4.25a1.44 1.44 0 0 0 0-2.04Z"
  />
</svg>
