<svg
  xmlns="http://www.w3.org/2000/svg"
  class="icon"
  data-colorful="true"
  data-type="icon"
  viewBox="0 0 1024 1024"
>
  <path
    fill="#dd113c"
    d="M495.061 25.13c33.28-31.913 90.454-40.83 138.369 17.92l5.291 6.785-10.24 10.325 10.24-10.197 81.11 136.96 39.551 68.053 8.15 14.421a2.645 2.645 0 0 1 0 2.987 2.26 2.26 0 0 1-1.707.768 2.26 2.26 0 0 1-1.707-.81L597.333 91.306l.214-.299-19.072-20.736a29.95 29.95 0 0 0-39.851-4.48l-3.541 2.944a32.94 32.94 0 0 0-4.566 40.96l3.072 4.053 138.24 150.358a194.73 194.73 0 0 1 47.403 163.072c-9.301 55.637-41.856 103.85-88.576 131.84l-8.96 5.034-36.693 19.712V1024l-60.416-81.792V616.96L256 759.04v-.683c38.443-187.392 153.387-347.733 314.368-439.552l14.336-7.936v205.483l18.944-10.24a130.13 130.13 0 0 0 59.563-93.141 133.6 133.6 0 0 0-26.582-99.968l-5.674-6.827L491.22 154.709a94.38 94.38 0 0 1 3.84-129.536zm29.44 396.033a595.9 595.9 0 0 0-161.493 200.874l-8.747 18.56 170.24-91.605V421.12z"
  />
</svg>
