<svg
  xmlns="http://www.w3.org/2000/svg"
  fill="none"
  viewBox="0 0 49 49"
  data-type="icon"
  data-colorful="true"
>
  <path
    fill="#88851F"
    d="m25.25 46.91-1.2-.4s.17-6-2-6.42c-1.43-1.65.2-70.69 5.4-.23a4.28 4.28 0 0 0-2.1 2.4c-.2 1.54-.23 3.1-.1 4.65Z"
  />
  <path
    fill="#2D9F2C"
    d="M25.89 41.11a20.9 20.9 0 0 0 7.9-20.9C31.46 9.97 25.96 6.6 25.37 5.31c-.5-.8-.95-1.64-1.3-2.52l.44 28.55s-.91 8.72 1.38 9.77Z"
  />
  <path
    fill="#5FB765"
    d="M23.46 41.49s-9.68-6.59-9.12-18.24a24.55 24.55 0 0 1 8.72-18.4 2.73 2.73 0 0 0 .96-2.18c.6 1.3.5 19.34.57 21.46.25 8.2-.46 15.8-1.13 17.36Z"
  />
</svg>
