<svg
  xmlns="http://www.w3.org/2000/svg"
  fill="none"
  viewBox="0 0 49 49"
  data-type="icon"
  data-colorful="true"
>
  <path
    fill="#0080B7"
    d="M42.46 36.1c-2.3-.06-4.04.15-5.53.78-.43.18-1.1.18-1.17.71.23.25.27.61.45.91.36.58.96 1.36 1.5 1.76.59.44 1.2.92 1.82 1.3 1.12.68 2.37 1.07 3.44 1.76.64.4 1.27.9 1.89 1.36.3.23.51.58.91.72v-.07c-.2-.27-.26-.63-.45-.9l-.85-.85a13.86 13.86 0 0 0-3-2.86c-.88-.64-2.87-1.5-3.24-2.54l-.07-.07c.63-.07 1.37-.3 1.95-.45.98-.26 1.86-.2 2.86-.46l1.37-.39v-.26c-.51-.52-.87-1.21-1.43-1.69a41.82 41.82 0 0 0-4.68-3.5c-.9-.58-2.03-.95-3-1.44-.32-.16-.88-.25-1.1-.52-.5-.64-.78-1.46-1.17-2.2a83.72 83.72 0 0 1-2.34-4.95c-.5-1.13-.81-2.24-1.43-3.25-2.95-4.85-6.13-7.78-11.05-10.66-1.05-.61-2.3-.86-3.64-1.17l-2.15-.13c-.43-.19-.89-.72-1.3-.98-1.63-1.03-5.81-3.27-7.02-.32-.76 1.86 1.14 3.67 1.82 4.61.48.66 1.1 1.4 1.43 2.15.23.49.27.98.46 1.5.47 1.27.88 2.65 1.5 3.83.3.6.64 1.22 1.03 1.75.24.33.65.48.72.98-.4.56-.43 1.43-.65 2.15-1.02 3.2-.63 7.18.84 9.55.46.73 1.53 2.3 3 1.7 1.28-.53 1-2.15 1.36-3.58.08-.33.03-.57.2-.78v.06L16.9 32c.86 1.4 2.4 2.86 3.7 3.84.68.5 1.2 1.4 2.08 1.69v-.07h-.06c-.17-.26-.44-.37-.65-.58-.51-.5-1.08-1.12-1.5-1.7a39.55 39.55 0 0 1-3.18-5.2c-.46-.87-.86-1.83-1.24-2.72-.15-.35-.15-.87-.45-1.04-.43.65-1.05 1.18-1.37 1.95-.52 1.23-.59 2.73-.78 4.29-.11.04-.06.01-.13.06-.9-.22-1.22-1.15-1.56-1.95a12.3 12.3 0 0 1-.26-7.6c.2-.6 1.07-2.5.71-3.06-.17-.56-.72-.88-1.04-1.3-.38-.52-.77-1.22-1.04-1.82-.7-1.58-1.02-3.35-1.75-4.94-.35-.76-.95-1.54-1.43-2.21-.54-.75-1.14-1.3-1.56-2.21-.15-.33-.35-.84-.13-1.17.07-.23.17-.32.39-.4.37-.28 1.42.1 1.82.27 1.04.43 1.91.84 2.8 1.43.42.28.85.82 1.36.97h.58c.92.21 1.94.07 2.8.33a16.9 16.9 0 0 1 4.1 1.95 25.36 25.36 0 0 1 8.9 9.75c.34.65.49 1.26.78 1.95.6 1.38 1.36 2.8 1.95 4.16.6 1.35 1.18 2.71 2.02 3.84.44.59 2.15.9 2.92 1.23.55.23 1.44.47 1.95.78.99.6 1.94 1.3 2.87 1.95.46.33 1.87 1.04 1.95 1.63ZM13.39 11.33c-.47-.01-.81.05-1.17.13v.06h.07c.23.47.63.77.9 1.17l.66 1.37.06-.07c.4-.28.59-.73.59-1.43-.16-.17-.19-.38-.33-.58-.18-.27-.54-.42-.78-.65Z"
  />
</svg>
