<svg
  xmlns="http://www.w3.org/2000/svg"
  class="icon"
  data-colorful="true"
  data-type="icon"
  viewBox="0 0 1077 1024"
>
  <path
    fill="#2ebbfb"
    d="M288.768 669.912a156.24 156.24 0 1 1 149.612-199.41l58.745-63.435a234.388 234.388 0 1 0 2.156 208.357l-61.332-56.374a156.24 156.24 0 0 1-149.181 110.808z"
  />
  <path
    fill="#2ebbfb"
    d="M789.612 279.283c-129.348 0-214.825 136.73-312.482 234.388 78.147 78.147 183.242 234.334 312.482 234.334a234.388 234.388 0 1 0 0-468.722m-13.905 385.024c-83.321 0-150.636-100.406-200.488-150.636 62.733-62.788 117.167-150.636 200.865-150.636a150.636 150.636 0 1 1 0 301.272z"
  />
</svg>
