<svg xmlns="http://www.w3.org/2000/svg" fill="none" viewBox="0 0 23 24">
  <g clip-path="url(#a)">
    <mask
      id="b"
      width="23"
      height="23"
      x="0"
      y="0"
      maskUnits="userSpaceOnUse"
      style="mask-type: luminance"
    >
      <path fill="#fff" d="M22.17.66H.08v22.1h22.1V.65Z" />
    </mask>
    <g mask="url(#b)">
      <path
        fill="#8C8C8C"
        d="M16.48 21.38c-.08.04-.07.05 0 .01a.21.21 0 0 0 .07-.04l-.07.03Zm.17-.1c-.04.04-.04.04 0 .02l.05-.04-.05.03Zm.1-.06c-.03.03-.03.03.01.01.02 0 .04-.02.05-.03 0-.02-.01-.02-.05.02Zm.12-.06c-.04.03-.04.03 0 0 .03 0 .05-.02.05-.03l-.05.03Zm.14-.1c-.07.05-.1.08-.03.05.05-.03.12-.1.11-.1l-.08.05ZM10.41.67l-.33.03a11.07 11.07 0 0 0 0 22.03c.33.03 1.78.03 2.11 0 1.49-.17 2.74-.53 3.98-1.17.2-.1.23-.12.2-.14L14.57 19l-1.76-2.39-2.22-3.27c-.73-1.1-1.47-2.2-2.22-3.28l-.03 3.23c0 3.11 0 3.24-.04 3.31a.4.4 0 0 1-.2.2c-.06.03-.12.04-.45.04h-.37l-.1-.06a.41.41 0 0 1-.14-.16l-.05-.1V12.2L7 7.87l.07-.08c.04-.05.1-.1.16-.13.09-.04.12-.05.5-.05.43 0 .5.02.62.14a9906.06 9906.06 0 0 0 7.02 10.61l1.75 2.66.1-.06c.83-.56 1.6-1.23 2.26-2a11 11 0 0 0 2.6-8.85A11.1 11.1 0 0 0 12.23.7 27.8 27.8 0 0 0 10.4.67Zm4.52 6.68a.43.43 0 0 1 .22.25c.02.06.02 1.26.02 3.96l-.01 3.89-.68-1.05-.69-1.05v-2.82c0-1.83 0-2.85.02-2.9a.46.46 0 0 1 .21-.28c.09-.04.12-.04.46-.04.32 0 .38 0 .45.04Z"
      />
    </g>
  </g>
  <defs>
    <clipPath id="a"><path fill="#fff" d="M.08.31h22.1v22.78H.07z" /></clipPath>
  </defs>
</svg>
