<svg
  xmlns="http://www.w3.org/2000/svg"
  data-colorful="true"
  data-type="icon"
  viewBox="0 0 2000 2000"
>
  <path
    fill="#3b41d4"
    d="m407.924 221.869 5.795-.007q7.968-.007 15.936-.003 8.666-.001 17.333-.008 16.19-.011 32.38-.01 15.3-.002 30.601-.009l2.081-.001 8.391-.004q49.644-.022 99.289-.028l49.45-.01a905166 905166 0 0 1 204.35-.03q81.799-.005 163.598-.041c39.191-.017 78.382-.033 117.573-.037h2.443a564460 564460 0 0 1 76.846-.005q37.632-.001 75.265-.025a84451 84451 0 0 1 86.33-.009l2.079.001c11.485.003 22.971-.006 34.457-.018q15.012-.014 30.024.001 8.546.01 17.093-.006 7.794-.017 15.587.004 2.784.004 5.569-.008c48.476-.203 91.867 16.762 127.606 49.384l2.48 2.262c6.581 6.301 12.06 13.472 17.52 20.738l1.938 2.559c21.864 30.013 32.25 65.785 32.185 102.635q0 2.487.004 4.974.003 6.841-.005 13.684c-.003 4.96 0 9.92 0 14.88q.004 13.042-.003 26.085-.008 19.395-.005 38.788.001 32.623-.008 65.246-.01 32.306-.011 64.61v2.028l-.004 63.893v2.096a851154 851154 0 0 1-.022 135.94v2.195a1031632 1031632 0 0 0-.018 150.977l-.009 90.561c-.009 88.546-.024 177.09-.042 273.849l-3.726-.833-4.898-1.092-2.448-.548c-40.027-8.918-80.1-9.574-120.303-1.464l-2.809.565q-3.408.684-6.816 1.372l-.001-2.387c-.044-85.75-.091-171.498-.158-257.248l-.003-3.88a1680396 1680396 0 0 0-.104-128.571q-.04-47.522-.064-95.043l-.001-2.063-.016-32.936a281654 281654 0 0 0-.116-156.963l-.004-3.811a86834 86834 0 0 1-.031-60.747q-.007-30.531-.048-61.063-.023-18.142-.018-36.283.003-12.122-.023-24.243c-.01-4.604-.015-9.207-.006-13.81q.01-6.291-.016-12.583-.006-2.253.004-4.505c.061-14.55-2.008-27.652-8.395-40.864l-1.305-2.766c-10.267-20.302-28.38-33.157-49.539-40.226-11.78-3.148-23.681-3.296-35.77-3.26l-5.254-.008c-4.798-.008-9.597-.004-14.395.003-5.226.005-10.452-.001-15.678-.006q-13.731-.01-27.462-.002c-13.613.007-27.226.003-40.838-.003q-34.356-.014-68.711-.005h-2.112l-2.116.001a182488 182488 0 0 1-85.289.002l-48.034-.004h-2.21q-34.843 0-69.686.006h-2.283l-36.697.008a363301 363301 0 0 1-182.222-.008h-2.281q-34.807-.007-69.615-.006h-2.207l-69.421.007q-31.905.003-63.81-.005h-2.113l-2.108-.001q-35.211-.01-70.421.007-20.3.01-40.597-.001-13.556-.007-27.113.007-7.725.008-15.45-.001-7.035-.01-14.068.006-2.523.003-5.046-.004c-25.782-.073-48.714 5.118-67.536 23.614L388 390l-2.02 1.988c-16.988 17.909-20.302 41.895-20.234 65.525l-.01 5.259a4951 4951 0 0 0 0 14.42c.005 5.233-.002 10.467-.008 15.7q-.012 13.754-.007 27.507c.006 13.634 0 27.269-.009 40.904a109315 109315 0 0 0-.014 85.827v2.136q.002 23.449-.004 46.898l-.002 10.712-.003 10.764q-.013 61.152-.009 122.304v2.287l.003 25.247v2.302l.002 9.218q.007 72.894-.021 145.788l-.015 39.02q-.012 34.865-.014 69.73v2.212a440485 440485 0 0 0 .003 69.554q0 34.07-.017 68.139-.019 35.274 0 70.549.01 20.33-.01 40.661-.01 13.584.007 27.168c.006 5.158.008 10.316-.004 15.474q-.014 7.05.007 14.1.004 2.524-.007 5.047c-.117 26.28 6.335 50.331 25.386 69.56 14.863 13.656 34.395 22.111 54.692 22.13l3.991.012 4.359-.003 4.67.008q6.435.011 12.869.01 6.993.005 13.986.016 12.263.017 24.524.024 18.234.012 36.467.034 30.67.035 61.34.06a256841 256841 0 0 1 83.731.08 842050 842050 0 0 0 168.766.161l2.063.002a919134 919134 0 0 1 141.938.139l83.203.083 3.864.004q127.768.126 255.537.24l-1.465 8.076q-.755 4.114-1.535 8.22c-7.595 40.91-5.088 79.314 3.04 119.914l.546 2.72.414 2.07c-89.482.05-178.964.098-274.581.127l-4.106.001a1857447 1857447 0 0 1-136.007.038c-33.507.01-67.015.02-100.522.04l-2.182.001-34.827.02c-33.45.02-66.901.039-100.352.046h-2.086a432871 432871 0 0 1-63.588.012h-2.017q-33.126.006-66.251.035-32.297.027-64.592.02-19.184-.004-38.367.022-12.825.017-25.65.003a3935 3935 0 0 0-14.602.01c-37.783.099-37.783.099-53.27-3.375l-2.518-.564c-32.275-7.35-60.227-23.145-84.482-45.436l-2.55-2.332c-32.07-30.702-50.593-76.118-51.79-120.175-.062-4.263-.055-8.523-.038-12.786l-.013-5.839c-.011-5.3-.004-10.602.006-15.903.007-5.785-.003-11.57-.01-17.355q-.014-15.185-.003-30.37.013-16.28.004-32.56l-.001-2.083-.005-8.404q-.023-39.06-.009-78.118v-2.334l.002-2.338a148794 148794 0 0 0 .002-94.353l-.006-55.613a255709 255709 0 0 1 .01-79.63l.01-40.591q.022-80.49 0-160.977l-.01-40.57-.001-2.524a254404 254404 0 0 1-.008-79.47 513265 513265 0 0 1 .009-76.84q.004-35.288-.007-70.576v-2.334l-.002-2.33a83973 83973 0 0 1 .016-86.275l.001-2.077c.006-11.477 0-22.954-.008-34.431q-.01-15 .01-30 .014-8.54 0-17.08-.014-7.787.009-15.575.005-2.782-.007-5.563c-.124-32.19 7.06-62.294 22.389-90.594l1.026-1.902C252.868 300.444 260.075 291.18 268 282l1.479-1.725c6.246-7.231 12.963-13.43 20.521-19.275l2.844-2.355c33.045-26.786 73.36-36.82 115.08-36.776"
  />
  <path
    fill="#393dce"
    d="M1212.127 565.886h4.26q5.751.001 11.502.013 6.022.007 12.043.008 11.39.005 22.78.021 12.971.015 25.944.022 26.672.016 53.344.05c.054 97.565.081 195.13 0 369l-.002 2.78c-.028 39.88-.07 79.76-.184 119.64l-.028 10.147q-.041 14.873-.057 29.747a11561 11561 0 0 1-.084 33.354c-.022 5.54-.038 11.081-.037 16.622 0 28.652-1.066 55.37-10.608 82.71l-.678 1.971c-8.795 25.033-23.39 46.583-42.322 65.029l-1.55 1.687c-13.73 14.583-31.778 24.587-50.45 31.313l-3.133 1.152c-29.14 9.875-61.365 7.556-88.939-5.843-17.318-8.866-31.577-21.526-44.287-36.153-3.668-4.22-7.48-8.288-11.328-12.344-4.84-5.12-9.668-10.251-14.438-15.437A2362 2362 0 0 0 1061 1247.5q-7.26-7.767-14.46-15.586c-3.83-4.154-7.682-8.287-11.54-12.414q-7.26-7.767-14.46-15.586c-3.83-4.154-7.682-8.287-11.54-12.414q-7.26-7.767-14.46-15.586c-3.83-4.154-7.682-8.287-11.54-12.414q-7.26-7.767-14.46-15.586c-3.83-4.154-7.682-8.287-11.54-12.414q-7.26-7.767-14.46-15.586c-3.83-4.154-7.682-8.287-11.54-12.414a2904 2904 0 0 1-14.459-15.584c-3.85-4.176-7.724-8.33-11.603-12.479a1978 1978 0 0 1-15.098-16.347c-3.83-4.178-7.707-8.313-11.578-12.453A2262 2262 0 0 1 867 1038.5a2631 2631 0 0 0-13-14q-7.288-7.796-14.52-15.645-3.923-4.26-7.87-8.496c-5.03-5.396-10.051-10.785-14.872-16.37-2.21-2.53-4.474-5.008-6.738-7.489-3.447-3.78-6.85-7.59-10.203-11.453-2.916-3.322-5.9-6.582-8.879-9.848C789 953 789 953 787 950l-.002 1.941a91354 91354 0 0 1-.206 127.808l-.005 2.758c-.031 14.712-.048 29.425-.06 44.137q-.02 22.669-.082 45.338-.038 13.972-.036 27.943-.001 9.6-.041 19.2a1697 1697 0 0 0-.014 11.052c.072 32.396-5.829 60.958-29.554 84.823-22.274 20.9-48.408 22.616-77.407 22.406-4.075-.026-8.15-.028-12.224-.033-7.688-.012-15.376-.045-23.065-.085a9217 9217 0 0 0-26.293-.087A20259 20259 0 0 1 564 1337c-.059-93.49.016-186.98.232-331.963l.03-18.785.004-2.093q.053-34.013.082-68.024.032-35.454.097-70.908.043-22.626.054-45.25.01-14.706.047-29.412.023-8.448.019-16.896-.004-7.747.028-15.496a969 969 0 0 0 0-5.555C564.484 690.874 576.567 650.05 604 618l2.113-2.484C625.003 593.908 649.922 578.404 678 572l2.418-.558c7.853-1.627 15.58-1.828 23.582-1.817l2.064.002c11.364.041 22.039 1 32.936 4.373l2.044.617c25.32 7.907 45.918 24.1 62.925 44.067 2.894 3.3 5.903 6.49 8.906 9.691a879 879 0 0 1 13.926 15.176c3.895 4.338 7.847 8.624 11.792 12.917q3.455 3.764 6.907 7.532l2.75 3 16.5 18 4.12 4.496q3.474 3.79 6.95 7.574c4.228 4.603 8.445 9.214 12.618 13.867 4.458 4.968 8.986 9.87 13.519 14.77 4.244 4.589 8.463 9.2 12.684 13.81a14537 14537 0 0 0 8.23 8.979 8351 8351 0 0 0 6.95 7.574c4.227 4.603 8.444 9.214 12.617 13.867 4.458 4.968 8.986 9.87 13.519 14.77 4.244 4.589 8.463 9.2 12.684 13.81q3.428 3.742 6.859 7.483l2.75 3 1.375 1.5 4.125 4.5 1.375 1.5 2.746 2.996q3.472 3.79 6.95 7.574c4.227 4.603 8.444 9.214 12.617 13.867 4.458 4.968 8.986 9.87 13.519 14.77 4.244 4.589 8.463 9.2 12.684 13.81a14537 14537 0 0 0 8.23 8.979 8351 8351 0 0 0 6.95 7.574c4.227 4.603 8.444 9.214 12.617 13.867 4.458 4.968 8.986 9.87 13.519 14.77 4.244 4.589 8.463 9.2 12.684 13.81a14349 14349 0 0 0 8.228 8.977 5672 5672 0 0 0 8.424 9.176l3.906 4.248c2.35 2.57 4.664 5.17 6.976 7.775l2.173 2.447L1119 963l.003-1.981a127294 127294 0 0 1 .26-130.386l.006-2.814q.051-22.515.081-45.03.033-23.126.099-46.251.04-14.254.05-28.51.01-9.79.047-19.583c.014-3.76.023-7.518.019-11.277-.03-35.464-.03-35.464 6.123-51.856l.77-2.102c4.489-11.757 11.15-21.835 19.542-31.21l1.668-1.918c17.018-18.362 40.32-24.261 64.459-24.196"
  />
  <path
    fill="#3332bf"
    d="M714.41 698.555 716 700v2l1.637.648c3.214 1.839 5.61 4.35 8.176 6.977l1.501 1.504c3.452 3.491 6.691 7.136 9.907 10.845 2.87 3.269 5.855 6.426 8.841 9.588l3.942 4.192 2.004 2.13c15.877 16.872 15.877 16.872 21.527 23.471 1.564 1.756 3.213 3.385 4.903 5.02C781 769 781 769 781 771h2c1.463 1.469 1.463 1.469 3.156 3.5 3.654 4.296 7.466 8.406 11.344 12.5 4.352 4.594 8.609 9.243 12.758 14.022 2.9 3.294 5.916 6.476 8.93 9.665l3.976 4.227 1.97 2.095c3.142 3.353 6.254 6.734 9.366 10.116a1409 1409 0 0 0 8.11 8.734l1.866 1.994q1.77 1.888 3.542 3.772a329 329 0 0 1 8.416 9.309c3.662 4.211 7.474 8.268 11.316 12.316a1333 1333 0 0 1 16.395 17.645c4.107 4.486 8.288 8.904 12.467 13.324 3.014 3.2 5.975 6.43 8.857 9.75 3.65 4.2 7.45 8.245 11.281 12.281A1634 1634 0 0 1 936 937c7.293 7.958 14.663 15.84 22.068 23.693 5.54 5.879 11.03 11.8 16.496 17.746 2.969 3.227 5.945 6.446 8.92 9.667q3.902 4.227 7.797 8.46l1.633 1.774q1.54 1.672 3.078 3.347c2.07 2.247 4.146 4.446 6.352 6.56C1004 1010 1004 1010 1004 1012h2c1.454 1.46 1.454 1.46 3.14 3.484 3.736 4.392 7.642 8.585 11.61 12.766A1548 1548 0 0 1 1040 1049a2464 2464 0 0 0 19.733 21.358 3235 3235 0 0 1 15.8 17.05q3.731 4.047 7.467 8.092l3 3.25 1.5 1.625 21.004 22.754q3.715 4.024 7.426 8.05a3308 3308 0 0 0 16.132 17.383 2033 2033 0 0 1 15.231 16.481c4.38 4.79 8.79 9.553 13.195 14.32q2.984 3.231 5.963 6.464 1.488 1.613 2.983 3.22a416 416 0 0 1 7.718 8.531c15.43 17.405 35.97 30.945 59.713 32.625 29.282 1.316 51.633-6.99 73.631-26.406 15.54-14.643 24.495-34.301 29.504-54.797h1c.614 28.112-.637 54.175-10 81l-.678 1.971c-8.795 25.033-23.39 46.583-42.322 65.029l-1.55 1.688c-13.73 14.582-31.778 24.586-50.45 31.312l-3.133 1.152c-29.14 9.875-61.365 7.556-88.939-5.843-17.318-8.866-31.577-21.526-44.287-36.153-3.668-4.22-7.48-8.288-11.329-12.343-4.84-5.122-9.667-10.252-14.437-15.438A2362 2362 0 0 0 1061 1247.5q-7.26-7.767-14.46-15.586c-3.83-4.154-7.682-8.287-11.54-12.414q-7.26-7.767-14.46-15.586c-3.83-4.154-7.682-8.287-11.54-12.414q-7.26-7.767-14.46-15.586c-3.83-4.154-7.682-8.287-11.54-12.414q-7.26-7.767-14.46-15.586c-3.83-4.154-7.682-8.287-11.54-12.414q-7.26-7.767-14.46-15.586c-3.83-4.154-7.682-8.287-11.54-12.414a2904 2904 0 0 1-14.459-15.584c-3.85-4.176-7.724-8.33-11.604-12.478a1978 1978 0 0 1-15.097-16.348c-3.83-4.178-7.707-8.313-11.578-12.453A2262 2262 0 0 1 867 1038.5a2631 2631 0 0 0-13-14q-7.288-7.796-14.52-15.645-3.923-4.26-7.87-8.496c-5.03-5.396-10.051-10.785-14.872-16.37-2.21-2.53-4.474-5.008-6.738-7.489-3.447-3.78-6.85-7.59-10.203-11.453-2.916-3.322-5.9-6.582-8.879-9.848C789 953 789 953 787 950l-.002 1.941a91354 91354 0 0 1-.206 127.808l-.005 2.758c-.031 14.712-.048 29.425-.06 44.137q-.02 22.669-.082 45.338-.038 13.972-.036 27.943-.001 9.6-.041 19.2a1697 1697 0 0 0-.014 11.052c.072 32.396-5.829 60.958-29.554 84.823-22.274 20.9-48.408 22.616-77.407 22.406-4.075-.026-8.15-.028-12.224-.033-7.688-.012-15.376-.045-23.065-.085a9236 9236 0 0 0-26.293-.087A20259 20259 0 0 1 564 1337a207969 207969 0 0 1 .002-142.236 141834 141834 0 0 1 .15-188.761l.006-3.766c.027-20.454.035-40.907.038-61.36q.005-31.935.065-63.868.036-19.497.023-38.995-.008-13.24.035-26.48c.015-5.073.022-10.144.008-15.217q-.02-6.97.024-13.94.01-2.505-.007-5.01c-.094-14.418 3.03-26.96 9.343-39.992l1.023-2.122c12.281-24.626 33.505-42.677 59.477-51.44 28.097-8.17 56.59-2.167 80.223 14.742"
  />
  <path
    fill="#414ee4"
    d="M723.68 880.262c9.349 7.367 17.445 15.846 25.32 24.738.677.763 1.354 1.526 2.05 2.313a637 637 0 0 1 3.278 3.765c2.03 2.333 4.1 4.627 6.172 6.922a815 815 0 0 1 9.68 10.93c2.835 3.224 5.723 6.4 8.61 9.578L781 941l2.599 2.385c3.815 4.645 3.087 10.216 3.03 15.946l.02 3.801a979 979 0 0 1-.01 10.424c-.013 3.751.002 7.502.014 11.253.018 7.348.01 14.697-.008 22.045q-.02 8.97-.015 17.939l.002 2.58.003 5.19c.008 15.307-.008 30.614-.038 45.92q-.044 22.234-.02 44.47a22853 22853 0 0 1-.003 53.649l-.003 2.575q-.006 8.939.005 17.878.012 10.923-.024 21.846a1741 1741 0 0 0-.008 11.125c.09 32.458-5.768 61.058-29.544 84.974-22.274 20.9-48.408 22.616-77.407 22.406-4.075-.026-8.15-.028-12.224-.033-7.688-.012-15.376-.045-23.065-.085a9236 9236 0 0 0-26.293-.087A20259 20259 0 0 1 564 1337q-.049-25.906-.062-51.812l-.002-2.089c-.041-67.627.255-135.253.555-202.879l.027-6.116q.233-52.552.482-105.104h2l.043-2.246c1.361-30.06 17.88-58.617 39.27-79.004 32.865-28.798 81.48-34.437 117.367-7.488"
  />
  <path
    fill="#414ee5"
    d="M1342 566v343h-1l-.12 1.75c-2.485 34.65-12.701 63.654-36.88 89.25l-2.078 2.273c-19.13 20.194-47.377 32.298-75.023 33.132-28.314.329-50.544-10.579-70.72-30.14-4.56-4.475-8.957-9.045-13.105-13.906-3.515-3.998-7.185-7.855-10.837-11.73a306 306 0 0 1-3.367-3.64c-1.816-1.985-1.816-1.985-3.713-3.658-3.935-3.816-5.622-6.672-6.027-12.187a234 234 0 0 1 .008-6.95l-.025-3.883c-.02-3.54.001-7.08.03-10.621.025-3.825.008-7.65-.003-11.475-.016-7.49.006-14.98.04-22.47.038-8.734.04-17.468.04-26.203 0-15.598.034-31.196.087-46.794q.078-22.662.082-45.322v-2.816l.001-2.811v-5.605l.001-2.792c.004-14.43.03-28.858.057-43.287q.015-7.822.02-15.643c.005-8.28.02-16.561.055-24.842q.026-5.67.025-11.338c-.008-35.599-.008-35.599 6.14-51.98l.77-2.102c4.489-11.757 11.15-21.835 19.542-31.21l1.668-1.918C1192.098 542.142 1304.993 566 1342 566"
  />
  <path
    fill="#f01b44"
    d="m1607.813 1437.563 2.33-.02c36.342-.187 72.149 12.252 100.857 34.457l2.777 2.102c12.657 9.924 24.101 21.64 33.223 34.898l1.228 1.782c26.32 38.817 35.081 85.24 26.772 131.218-8.556 41.905-32.803 78.627-67 104l-1.73 1.29c-34.844 25.598-80.69 35.593-123.27 29.523-44.585-7.031-85.71-30.382-112.666-66.934-17.329-24.25-28.96-52.135-32.334-81.879l-.336-2.898c-4.28-43.142 7.886-86.76 34.336-121.102l2.14-2.82c26.386-33.52 65.79-56.26 108.02-62.489 8.53-1.014 17.073-1.096 25.652-1.129"
  />
</svg>
