<svg
  xmlns="http://www.w3.org/2000/svg"
  class="icon"
  data-colorful="true"
  data-type="icon"
  viewBox="0 0 1146 1024"
>
  <path
    fill="#cc3434"
    d="m386.406 77.129 8.643 9.084 7.595 7.153c14.5-.5 27.092-2.764 41.125-6.138 29.301-6.714 57.786-7.436 87.76-7.307l15.223.004c31.055.313 59.138 2.404 89.04 11.172 12.072 2.63 19.005 2.074 30.713-1.79 8.764-5.972 8.764-5.972 17-13.449 24.202-19.465 48.575-33.454 80.425-30.697 12.3 1.802 15.288 2.602 24.356 11.67-1.522 10.656-1.522 10.656-4.059 20.298l-7.737-.569c-37.115-1.567-57.4 9.917-85.63 33.044l11.61 6.422c90.53 51.371 154.745 128.622 185.032 228.91l2.27 8.232 9.657-.427c32.913-.852 53.097.463 78.89 22.246 17.252 20.703 19.039 40.151 18.519 66.391-3.398 29.638-14.074 57.043-36.79 76.954-14.488 10.892-23.626 14.01-41.86 13.956l-10.912.033c-9.386-.54-9.386-.54-17.505-4.6l-1.38 7.945c-19.793 94.564-82.243 189.363-162.867 242.971-51.745 33.242-51.745 33.242-71.198 33.242v81.188h-81.188V815.94L560.96 820c-8.703.385-17.419.527-26.134.507l-13.936.032c-12.702-.54-12.702-.54-28.94-4.6v77.13h-81.187V811.88l-20.297-4.059c-94.78-42.076-161.17-129.629-199.926-223.352-6.99-18.45-11.638-37.375-15.223-56.746l-8.118 4.06c-20.115 2.207-36.011 2.289-54.295-6.853-25.546-22.501-40.338-48.579-44.718-82.597-.918-26.004 1.396-47.953 17.825-68.867 22.002-17.878 38.24-20.854 65.965-20.553l13.258.113 10.083.143 4.186-12.211c19.826-56.21 45.286-105.203 85.121-150.165l7.12-8.281c27.564-29.878 65.56-55.939 102.484-72.907-24.25-19.035-41.796-31.948-73.07-32.475l-12.177-.256-8.12.256c-2.536-9.642-2.536-9.642-4.059-20.297 31.684-31.684 80.71.101 109.604 20.297"
  />
  <path
    fill="#0a0a12"
    d="M666.505 235.445c16.602 7.335 27.043 17.009 36.534 32.475 2.55 20.403.134 32.297-12.178 48.713-11.176 13.039-20.419 15.71-37.55 18.016-20.029-2.339-30.64-11.042-43.638-26.135-5.013-15.044-5.906-24.754-4.06-40.594 16.575-25.805 29.805-34.586 60.892-32.475"
  />
  <path
    fill="#090a12"
    d="M442.637 245.119c11.756 12.425 16.46 20.366 19.12 37.517-3.256 19.582-11.375 33.457-26.638 46.175-15.044 5.014-24.754 5.907-40.594 4.06-14.395-7.71-25.688-16.871-31.38-32.492-2.719-16.822-1.526-29.983 7.024-44.637 7.242-8.691 13.055-14.76 23.341-19.538 18.45-1.534 33.977-2.399 49.127 8.915"
  />
  <path
    fill="#fe4c4c"
    d="m762.408 45.924 9.548.966c8.212 1.823 8.212 1.823 16.33 9.942-1.522 10.655-1.522 10.655-4.059 20.297l-7.737-.569c-44.552-1.88-66.737 16.66-99.374 45.522-10.839 7.985-17.683 10.474-30.908 11.878-3.3-8.882-3.3-8.882-4.06-20.297 8.119-9.897 8.119-9.897 20.297-20.297l6.406-5.98C695.087 63.42 725.634 41.8 762.408 45.92z"
  />
  <path
    fill="#fe4d4d"
    d="M386.406 77.129c14.115 10.156 28.278 20.987 36.535 36.534-1.27 11.163-1.27 11.163-4.06 20.297-18.77-1.997-27.896-9.215-41.864-21.567-32.455-27.251-53.288-38.427-96.155-35.264-2.537-9.642-2.537-9.642-4.06-20.297 32-32 80.279.62 109.604 20.297"
  />
  <path
    fill="#00dac2"
    d="M678.683 259.801c5.37 21.966 5.37 21.966-.256 32.224-11.561 6.34-19.777 3.292-32.22.252-5.37-21.966-5.37-21.966.256-32.224 11.561-6.34 19.778-3.292 32.22-.252m-243.564 0c5.37 21.966 5.37 21.966-.256 32.224-11.557 6.34-19.773 3.292-32.22.252-5.37-21.966-5.37-21.966.256-32.224 11.558-6.34 19.774-3.288 32.22-.252"
  />
</svg>
