<svg
  xmlns="http://www.w3.org/2000/svg"
  class="icon"
  data-colorful="true"
  data-type="icon"
  viewBox="0 0 1024 1024"
>
  <path
    fill="#3e1b5c"
    d="M484.133 0h30.098c13.092 4.718 25.929 12.873 34.194 24.064-3.035 3.547-4.535 7.607-4.462 12.215-.146 28.16 0 56.283-.256 84.443-.365 5.961.805 11.923 4.608 16.713-7.058 12.106-21.028 18.286-32.877 24.796-8.448.183-16.896.366-25.344.914 1.463-51.895.22-103.826.548-155.721-2.267-1.755-6.839-5.34-9.106-7.095z"
  />
  <path
    fill="#6bbcdd"
    d="M514.23 0h25.6c12.728 1.243 25.491 2.56 38.255 3.584.219 43.85.036 87.735.182 131.62-.182 10.79 2.195 22.529-4.278 32.074-19.31-3.182-38.986-4.645-58.551-5.047 11.849-6.51 25.82-12.69 32.877-24.796 13.532-10.313 15.616-27.757 21.907-42.422 1.316-9.875 2.011-20.261-.695-29.989-.33-.622-.951-1.902-1.28-2.523-3.913-14.19-8.704-28.343-19.822-38.437C540.16 12.874 527.323 4.718 514.231 0"
  />
  <path
    fill="#5a297f"
    d="M409.6 11.081c17.298-6.766 36.425-6.948 54.71-9.106-1.17 54.455-.657 108.946-.365 163.364-18.14 2.012-35.657 6.327-52.736 12.471-2.487-55.515.476-111.177-1.609-166.729"
  />
  <path
    fill="#4b226c"
    d="M464.31 1.975c5.743-.622 11.484-1.024 17.226-1.646 2.267 1.756 6.839 5.34 9.106 7.095-.329 51.895.915 103.826-.548 155.721-8.74.549-17.408 1.5-26.149 2.194-.292-54.418-.804-108.91.366-163.364"
  />
  <path
    fill="#59b7db"
    d="M578.085 3.584c17.408 1.06 33.865 6.18 50.614 10.277.074 46.701 0 93.366.512 140.032-.292 8.96.878 18.614-3.693 26.77-17.335-3.95-33.536-12.142-51.53-13.385 6.474-9.545 4.097-21.285 4.28-32.073-.147-43.886.036-87.772-.183-131.621"
  />
  <path
    fill="#67328e"
    d="M383.561 16.457c8.558-2.267 17.372-3.62 26.039-5.376 2.085 55.552-.878 111.214 1.61 166.73-8.668 2.267-17.226 4.973-25.784 7.68-.731-6.986-1.901-13.934-1.901-20.956.329-49.372.146-98.743.036-148.078"
  />
  <path
    fill="#42b1da"
    d="M628.7 13.86c15.506 2.743 31.158 6.071 45.494 12.727-2.011 53.285-1.06 106.716-1.06 160.037a47.3 47.3 0 0 1-3.365 12.361c-15.36-4.974-28.708-14.007-44.251-18.322 4.571-8.156 3.4-17.81 3.693-26.77-.512-46.666-.438-93.33-.512-140.032"
  />
  <path
    fill="#6f3e95"
    d="M336.86 31.342c15.762-4.535 30.463-11.996 46.701-14.885.11 49.335.293 98.706-.036 148.078 0 7.022 1.17 13.97 1.901 20.955-13.97 9.948-32.256 11.74-45.312 23.113-1.463-54.893-.146-109.86-.475-164.754a44.9 44.9 0 0 0-2.78-12.507"
  />
  <path
    fill="#31144a"
    d="M543.963 36.279c-.073-4.608 1.427-8.668 4.462-12.215 11.118 10.094 15.909 24.247 19.822 38.437.329.621.95 1.901 1.28 2.523 2.706 9.728 2.011 20.114.695 29.989-6.29 14.665-8.375 32.11-21.907 42.422-3.803-4.79-4.973-10.752-4.608-16.713.256-28.16.11-56.283.256-84.443"
  />
  <path
    fill="#31a5d3"
    d="M674.194 26.587c11.996 4.17 24.247 7.68 36.06 12.325-1.573 61.44-.659 122.917-1.024 184.393-7.644-8.85-20.078-10.898-28.855-18.395-3.109-2.67-6.985-4.133-10.606-5.925a47.3 47.3 0 0 0 3.365-12.361c0-53.321-.951-106.752 1.06-160.037"
  />
  <path
    fill="#7b519f"
    d="M265.874 63.817c22.711-12.617 46.19-24.247 70.985-32.475a44.9 44.9 0 0 1 2.78 12.507c.329 54.894-.988 109.86.475 164.754-15.396 5.742-26.112 18.25-40.557 25.454-5.413 6.876-13.24 10.898-19.456 16.86-2.78 4.571-6.437 8.374-11.338 10.678-4.498-34.67-.621-69.668-1.426-104.484-.585-31.086 1.097-62.318-1.463-93.294"
  />
  <path
    fill="#269acc"
    d="M710.254 38.912c9.033 5.12 18.541 9.326 28.343 12.8 1.316 64.402.768 128.878.219 193.317-9.253-8.192-19.31-15.031-29.586-21.724.365-61.476-.549-122.953 1.024-184.393"
  />
  <path
    fill="#168bc3"
    d="M738.597 51.712c15.542 10.35 33.39 16.823 48.31 27.977.22 63.634-.036 127.232.037 190.83-.22 6.107.878 14.738-7.278 15.689-11.703-15.653-27.282-27.465-40.85-41.18.549-64.438 1.097-128.914-.22-193.316"
  />
  <path
    fill="#3e637e"
    d="M568.247 62.5c.329.622.95 1.902 1.28 2.524-.33-.622-.951-1.902-1.28-2.523"
    opacity=".71"
  />
  <path
    fill="#8b69ac"
    d="M242.87 78.263c5.743-7.607 15.397-9.399 23.004-14.446 2.56 30.976.878 62.208 1.463 93.294.805 34.816-3.072 69.815 1.426 104.484-14.92 16.896-31.744 32.22-42.752 52.188-10.386 9.984-13.348 24.795-22.966 35.255-1.792-11.447-2.048-23.004-1.646-34.56-.183-62.172.146-124.307-.11-186.478-.073-8.594 1.024-17.189 3.474-25.417 13.568-6.839 23.882-18.761 38.108-24.32"
  />
  <path
    fill="#0377b6"
    d="M786.907 79.69c10.935 5.85 19.786 14.884 30.72 20.735 7.644 2.999 10.496 11.85 18.286 14.702 7.534 3.182 10.057 12.032 17.884 14.921-.878 7.863-2.158 15.726-1.939 23.662.293 82.834-.475 165.632.147 248.43.438 5.631-1.134 11.08-3.402 16.2-4.973-15.03-7.131-31.341-16.164-44.58-5.266-19.639-18.066-35.255-26.588-53.358-10.313-10.24-15.981-23.771-26.185-34.194 8.156-.95 7.059-9.582 7.278-15.69-.073-63.597.183-127.195-.037-190.829"
  />
  <path
    fill="#987cb6"
    d="M188.891 116.041c6.766-2.67 9.436-10.313 15.872-13.458-2.45 8.228-3.547 16.823-3.474 25.417.256 62.171-.073 124.306.11 186.478-.402 11.556-.146 23.113 1.646 34.56-6.071 13.385-10.35 27.575-17.591 40.411-6.144 23.15-15.177 45.641-17.774 69.596-1.902-6.547-3.913-13.203-3.584-20.115.22-87.844 0-175.725.037-263.57-.403-11.483 2.267-23.735-3.292-34.377 4.242-6.29 10.679-10.789 17.189-14.592 3.291-3.84 5.888-8.448 10.861-10.35"
  />
  <path
    fill="#006dac"
    d="M853.797 130.048c13.75 13.13 27.172 26.185 40.118 40.192-1.718 28.526-.438 57.125-.768 85.687.403 91.465-.402 182.894.147 274.322.036 6.656-1.39 13.202-2.524 19.749-13.458-8.229-21.248-22.272-29.074-35.438-1.61-32.256-1.938-65.536-13.093-96.22 2.268-5.12 3.84-10.569 3.402-16.2-.622-82.798.146-165.596-.147-248.43-.22-7.936 1.06-15.8 1.939-23.662"
  />
  <path
    fill="#a58dc0"
    d="M114.469 192.11c13.312-18.761 29.842-35.328 46.372-51.127 5.559 10.642 2.89 22.894 3.292 34.377-.037 87.845.182 175.726-.037 263.57-.33 6.912 1.682 13.568 3.584 20.115-2.523 15.945-2.962 32.073-3.694 48.164-3.145-5.412-5.083-11.52-9.399-16.201-9.508-13.385-22.637-24.869-37.997-30.94.183-78.994.11-158.025.11-237.055.402-10.387-.147-20.736-2.231-30.903"
  />
  <path
    fill="#11609d"
    d="M893.915 170.24c2.67 5.815 7.827 9.362 12.362 13.531 3.4 6.254 6.985 12.435 13.129 16.384a336 336 0 0 0 22.052 32.366c-2.084 10.167-2.596 20.48-2.084 30.793.146 101.632-.366 203.264.146 304.896-17.042-2.78-36.279-5.01-48.75-18.212 1.134-6.547 2.56-13.093 2.524-19.749-.549-91.428.256-182.857-.147-274.322.33-28.562-.95-57.161.768-85.687"
  />
  <path
    fill="#b5a2cc"
    d="M91.465 223.159c7.022-11.045 13.495-22.126 23.004-31.05 2.084 10.168 2.633 20.517 2.23 30.904 0 79.03.074 158.061-.11 237.056-1.316-.512-3.949-1.573-5.266-2.085-13.312-5.01-27.574-7.643-41.764-4.645-3.62 1.134-7.168 2.414-10.642 3.95 1.06-50.03.146-100.096.694-150.162-.402-8.01 1.866-17.518-5.156-23.406 12.8-19.895 21.504-42.386 37.01-60.562"
  />
  <path
    fill="#27538c"
    d="M941.458 232.521c3.767 9.143 11.923 15.433 14.958 24.905 5.595 12.727 14.117 23.772 19.017 36.755-5.156 14.848-2.45 30.646-2.816 45.97-.22 67.072.146 134.144-.146 201.216.073 7.095 1.024 14.116 1.828 21.138-7.533 2.012-15.104 3.84-22.6 5.815-3.073-.037-9.144-.073-12.179-.11-.512-101.632 0-203.264-.146-304.896-.512-10.313 0-20.626 2.084-30.793"
  />
  <path
    fill="#444"
    d="m446.318 278.382 2.633-.476c4.9 17.408 13.495 33.17 17.188 51.09 9.802 19.383 13.312 41.034 21.431 61.038 7.827 14.263 8.339 31.452 16.86 45.349 4.608 14.848 9.289 29.66 13.714 44.58 8.01 14.263 10.386 30.794 16.274 45.934 7.022 9.984 6.583 24.978 13.532 33.865 1.5-6.473 4.754-12.068 9.18-17.005 7.24-20.042 20.223-37.084 26.843-57.454 8.667-9.655 10.898-22.857 17.737-33.61 9.508-12.25 10.898-29.074 21.394-40.667 5.486-11.556 8.997-26.331 19.273-34.194 10.642 26.514 25.783 50.615 37.047 76.946 2.487 9.253 9.838 15.909 12.398 25.235l2.45 1.39c49.957-.513 99.913-.037 149.906-.257 2.012 20.553 1.536 41.253.293 61.806-63.196-.256-126.428.293-189.586-.256-5.486-7.936-9.143-17.079-12.325-26.185-7.278-1.39-6.107 9.874-11.374 13.129-4.169 12.946-12.397 23.808-17.92 36.133-4.461 11.08-9.399 22.016-16.164 31.853-4.133 14.373-14.629 25.6-19.164 39.863-12.8 26.953-27.904 52.553-39.607 80.165-8.96-8.85-8.923-23.699-13.531-35.219-11.3-20.955-13.678-45.568-24.357-66.925-5.412-12.252-6.18-26.478-13.348-37.815-7.168-17.554-9.472-37.266-18.725-53.98-5.376-15.981-9.18-32.548-16.457-47.762-8.082 10.204-7.095 25.6-12.215 37.596-8.996 18.468-10.276 39.57-18.907 58.148-5.632 17.993-9.984 36.352-14.994 54.528-6.474 11.337-8.266 24.869-11.484 37.413-12.946-8.448-14.775-26.332-26.148-36.389-3.328-5.12-4.901-11.227-8.85-15.982-10.826-9.764-12.728-26.038-23.992-35.4-5.485-11.886-13.312-22.675-21.028-32.988-42.825.256-85.687-.293-128.512.256a259 259 0 0 1-4.718-1.975c-1.609-19.785-.987-39.643-.22-59.429 56.028-1.097 112.238-.475 168.302-.329 6.62 11.923 14.739 22.492 21.248 34.597h4.938c5.412-19.493 8.996-39.826 17.261-58.149 4.791-15.47 6.949-31.963 14.483-46.336 5.851-21.906 10.605-44.178 19.346-65.133 4.535-23.077 14.409-44.215 19.895-67"
  />
  <path
    fill="#c2b2d5"
    d="M54.455 283.721c7.022 5.888 4.754 15.397 5.156 23.406-.548 50.066.366 100.132-.694 150.162-7.498 2.012-14.629 5.193-21.797 8.192-1.5-30.83-.293-61.696-.805-92.562-.585-12.654 2.597-26.112-3.145-37.998 4.937-17.956 15.177-33.572 21.285-51.2"
  />
  <path
    fill="#354980"
    d="M975.433 294.18c2.962 7.461 6.546 14.556 10.46 21.541 9.435 29.842 21.979 58.697 26.221 90.002 9.4 28.672 9.29 59.32 11.886 89.162v23.771c0 .95-.037 2.816-.073 3.767-9.911 3.218-12.69 14.519-19.858 20.992-9.582 6.948-17.994 15.908-29.77 19.09-.804-7.022-1.755-14.043-1.828-21.138.292-67.072-.073-134.144.146-201.216.366-15.324-2.34-31.122 2.816-45.97"
  />
  <path
    fill="#cabddb"
    d="M33.17 334.921c5.742 11.886 2.56 25.344 3.145 37.998.512 30.866-.694 61.732.805 92.562-2.853 2.194-5.413 4.754-7.9 7.351-12.836 8.046-20.735 21.65-27.501 34.706 1.463-21.687.512-43.74 4.644-65.207.183-15.03 6.876-28.928 8.412-43.776 3.145-22.162 12.58-42.166 18.395-63.634"
  />
  <path
    fill="#ad2720"
    d="M58.917 457.29c3.474-1.537 7.021-2.817 10.642-3.95-1.39 4.863-3.072 9.69-3.328 14.774 0 75.52.183 151.077-.037 226.597-.183 20.004 1.573 40.192-2.157 60.014-2.122-6.108-5.084-11.74-9.582-16.421-6.656-19.639-18.066-36.79-22.857-57.088.512-6.363 1.536-12.69 1.609-19.054-.11-58.697-.11-117.357.036-176.018-.146-4.79-1.462-9.216-4.022-13.312 2.486-2.597 5.046-5.157 7.899-7.35 7.168-3 14.3-6.181 21.797-8.193"
  />
  <path
    fill="#c33322"
    d="M69.559 453.34c14.19-3 28.452-.366 41.764 4.644-2.962 20.334-.731 40.814-1.755 61.257.475 101.486.731 203.045-.512 304.53-9.582-7.972-12.325-21.613-21.833-29.805-5.084-5.157-5.559-13.24-10.935-18.103-6.327-5.522-7.753-14.336-12.251-21.138 3.73-19.822 1.974-40.01 2.157-60.014.22-75.52.037-151.077.037-226.597.256-5.083 1.938-9.91 3.328-14.775"
  />
  <path
    fill="#d93d23"
    d="M111.323 457.984c1.317.512 3.95 1.573 5.267 2.085 15.36 6.07 28.489 17.554 37.997 30.939a24.12 24.12 0 0 0-5.156 17.189c.622 113.408-.256 226.779.22 340.187-.22 6.693-1.061 13.349-1.5 20.041-2.962-5.412-8.814-8.009-13.093-12.215-3.84-4.79-5.888-11.08-11.264-14.482-6.656-4.462-8.228-13.202-14.738-17.957 1.243-101.485.987-203.044.512-304.53 1.024-20.443-1.207-40.923 1.755-61.257"
  />
  <path
    fill="#9d201f"
    d="M1.719 507.538c6.766-13.056 14.665-26.66 27.502-34.706 2.56 4.096 3.876 8.521 4.022 13.312a40340 40340 0 0 0-.036 176.018c-.073 6.364-1.097 12.69-1.61 19.054-8.191-23.625-16.164-47.214-19.528-72.229-9.326-32.95-9.363-67.474-10.35-101.449"
  />
  <path
    fill="#eb4625"
    d="M149.43 508.197c-.548-6.254 1.28-12.252 5.157-17.189 4.316 4.681 6.254 10.789 9.4 16.201.438 34.597 3.474 69.413 14.738 102.254a48.4 48.4 0 0 0-3.328 12.105c-.22 90.624.585 181.285-.586 271.909-6.838-2.853-10.788-9.143-15.177-14.666-4.06-3.218-9.07-5.485-11.483-10.386.439-6.692 1.28-13.348 1.5-20.041-.476-113.408.402-226.78-.22-340.187"
  />
  <path
    fill="#48c286"
    d="M851.712 595.456c7.205-26.295 8.485-53.797 9.984-80.896 7.826 13.166 15.616 27.21 29.074 35.438 12.471 13.202 31.708 15.433 48.75 18.212 3.035.037 9.106.073 12.178.11-5.595 3.291-12.141 3.218-18.359 3.73 18.286 23.625 35.621 48.019 54.419 71.241 4.535 5.596 6.985 13.605 14.628 15.8-7.68 16.237-11.117 34.157-18.176 50.65-8.448 11.777-9.947 27.21-19.785 38.072-3.584 8.704-8.338 16.822-12.105 25.453-3.73 4.352-8.046 8.265-9.618 13.97-13.715-16.859-25.893-34.925-39.717-51.675-21.943-31.342-47.323-60.306-66.999-93.22 7.68-14.592 9.18-31.744 15.726-46.885"
  />
  <path
    fill="#54c58e"
    d="M1004.069 543.415c7.168-6.473 9.947-17.774 19.858-20.992-.183 46.555-9.692 91.94-21.54 136.667-7.644-2.194-10.094-10.203-14.63-15.799-18.797-23.222-36.132-47.616-54.418-71.24 6.218-.513 12.764-.44 18.36-3.731 7.496-1.975 15.067-3.803 22.6-5.815 11.776-3.182 20.188-12.142 29.77-19.09"
  />
  <path
    fill="#ee5626"
    d="M175.397 621.568a48.4 48.4 0 0 1 3.328-12.105c4.352 20.626 14.994 38.802 22.345 58.331-6.985 15.36-2.377 32.659-3.401 48.896-1.244 64.878 1.682 129.829-1.061 194.67-8.63-4.462-14.373-11.995-21.797-17.883 1.17-90.624.366-181.285.586-271.909"
  />
  <path
    fill="#37bd7b"
    d="M820.297 677.12c6.364-11.045 8.887-24.027 15.69-34.78 19.675 32.915 45.055 61.88 66.998 93.221 13.824 16.75 26.002 34.816 39.717 51.676-1.72 3.62-3.987 6.875-6.73 9.8-9.545 10.131-13.494 24.504-25.014 32.878-3.475 6.364-7.68 12.106-13.715 16.311-4.315 7.497-9.984 14.263-17.408 18.835-3.584 6.582-9.179 11.446-15.506 15.286-9.143-9.472-15.835-20.809-24.54-30.573-11.08-12.435-17.627-28.16-29.11-40.265-15.14-19.493-30.903-38.693-43.374-60.05 11.484-12.106 22.528-24.54 30.83-39.022 10.35-9.034 13.02-23.443 22.162-33.317"
  />
  <path
    fill="#ee6a26"
    d="M197.669 716.69c1.024-16.237-3.584-33.536 3.4-48.896.732 6.18 6.474 9.363 8.96 14.52 6.474 16.017 18.798 28.488 27.246 43.41-6.619 13.165-2.67 28.306-3.657 42.459-.84 56.722 1.829 113.627-1.353 170.276-10.386-11.008-26.185-14.994-35.657-27.099 2.743-64.841-.183-129.792 1.06-194.67"
  />
  <path
    fill="#ef7e27"
    d="M233.618 768.183c.988-14.153-2.962-29.294 3.657-42.46l5.303 4.28c5.376 11.885 17.774 17.627 24.21 28.818-4.498 8.52-3.657 18.322-3.583 27.611.914 48.786-.074 97.573.548 146.322.11 7.79-1.06 15.47-1.792 23.223-10.715-4.718-18.98-12.8-29.696-17.518 3.182-56.649.512-113.554 1.353-170.276"
  />
  <path
    fill="#2cb06f"
    d="M723.273 790.235c14.629-13.568 30.94-25.453 44.032-40.777 12.471 21.358 28.233 40.558 43.374 60.05 11.483 12.106 18.03 27.831 29.11 40.266 8.705 9.764 15.397 21.101 24.54 30.573-5.376 11.191-18.615 14.483-25.088 24.723-7.753 3.4-13.458 9.362-19.236 15.36-13.349-10.057-20.956-25.564-30.903-38.62-19.493-25.6-37.669-52.297-58.478-76.873-3.73-4.169-5.413-9.582-7.35-14.702"
  />
  <path
    fill="#f09426"
    d="M263.205 786.432c-.074-9.29-.915-19.09 3.584-27.611 8.923 4.9 13.275 14.92 22.308 19.712 6.108 2.157 8.448 8.813 14.044 11.776.95 62.061.548 124.196.512 186.258-15.287-4.352-27.283-14.336-41.692-20.59.732-7.753 1.902-15.433 1.792-23.223-.622-48.75.366-97.536-.548-146.322"
  />
  <path
    fill="#f2a924"
    d="M303.14 790.309c12.837 6.4 22.858 17.371 36.353 22.637 4.827 1.865 8.411 5.742 12.544 8.704-1.756 57.783-.037 115.64-.659 173.459-16.64-4.608-32.768-10.24-47.725-18.542.036-62.062.438-124.197-.512-186.258"
  />
  <path
    fill="#26a164"
    d="M705.938 801.317c5.047-4.755 11.118-8.083 17.335-11.082 1.938 5.12 3.62 10.533 7.351 14.702 20.81 24.576 38.985 51.273 58.478 76.873 9.947 13.056 17.554 28.563 30.903 38.62-14.995 7.533-26.844 19.748-42.094 26.697-9.07 1.353-14.958-5.486-19.42-12.288-27.904-38.108-55.88-75.922-83.785-113.993 9.107-8.485 21.98-11.155 31.232-19.53"
  />
  <path
    fill="#f5c321"
    d="M352.037 821.65c21.942 7.534 42.057 19.712 65.024 24.32-6.474 9.253-3.658 20.956-4.023 31.488-.183 44.69.183 89.38-.183 134.071a313 313 0 0 1-61.477-16.42c.622-57.82-1.097-115.676.659-173.459"
  />
  <path
    fill="#20925a"
    d="M613.888 844.507c21.43-4.9 40.265-16.128 60.818-23.661 27.904 38.07 55.881 75.885 83.785 113.993 4.462 6.802 10.35 13.641 19.42 12.288-2.706 3.291-5.961 6.144-10.094 7.424-17.7 7.168-32.512 18.944-50.944 24.356-12.58-6.582-17.737-20.626-26.807-30.83-24.356-35.29-52.809-67.547-76.178-103.57"
  />
  <path
    fill="#1a844f"
    d="M566.016 855.954c16.64-.987 31.817-7.716 47.872-11.447 23.37 36.023 51.822 68.28 76.178 103.57 9.07 10.204 14.227 24.248 26.807 30.83-15.25 9.948-33.719 12.874-50.651 18.871-15.177-9.581-22.126-26.514-32.988-40.045-23.186-30.574-46.555-60.965-69.047-92.087-.036-3.328.586-6.547 1.829-9.692"
  />
  <path
    fill="#f7d31a"
    d="M413.038 877.458c.365-10.532-2.45-22.235 4.023-31.488 18.651 6.437 37.924 10.13 57.6 12.142-.805 8.667-.549 17.445 3.474 25.417-26.478 26.551-27.575 69.888-11.191 102.327-3.986 11.008-3.365 22.784-3.145 34.304-17.298-1.207-34.158-4.608-50.944-8.63.366-44.691 0-89.381.183-134.072"
  />
  <path
    fill="#147545"
    d="M511.451 859.794c18.25-.365 36.462-1.243 54.565-3.84a25.3 25.3 0 0 0-1.829 9.692c22.492 31.122 45.861 61.513 69.047 92.087 10.862 13.531 17.81 30.464 32.988 40.045-24.028 10.899-51.017 11.667-76.032 19.273-9.619-18.285-23.443-33.792-35.913-50.102-21.395-31.635-45.386-61.33-67.804-92.197 8.046-5.851 15.287-11.959 24.978-14.958"
  />
  <path
    fill="#f7db42"
    d="M474.66 858.112c12.215 1.353 24.503 1.134 36.791 1.682-9.691 3-16.932 9.107-24.978 14.958-3.986 1.61-6.144 5.303-8.338 8.777-4.023-7.972-4.279-16.75-3.474-25.417"
  />
  <path
    fill="#0d6439"
    d="M478.135 883.53c2.194-3.475 4.352-7.169 8.338-8.778 22.418 30.866 46.41 60.562 67.804 92.197 12.47 16.31 26.294 31.817 35.913 50.102-27.429 3.438-55.26 6.218-82.871 4.243-9.033-3.95-15.14-12.142-24.284-15.982-5.156-6.656-9.472-14.043-16.091-19.456-16.384-32.439-15.287-75.776 11.19-102.327"
  />
  <path
    fill="#f7da32"
    d="M463.799 1020.16c-.22-11.52-.841-23.296 3.145-34.304 6.62 5.413 10.935 12.8 16.091 19.456 9.143 3.84 15.25 12.032 24.284 15.982l4.644 2.706h-1.718c-14.848-4.864-31.05-1.682-46.446-3.84"
  />
</svg>
