<svg xmlns="http://www.w3.org/2000/svg" fill="none" viewBox="0 0 16 16">
  <path
    fill="#787DB0"
    d="M4.79 6.9h-.56l-.3 1.58h.45c.34 0 .6-.06.77-.19.16-.12.27-.34.33-.64.05-.28.03-.48-.06-.59-.1-.1-.31-.16-.63-.16Zm7.1 0h-.54l-.31 1.58h.45c.34 0 .6-.06.77-.19.16-.12.27-.34.33-.64.05-.28.03-.48-.06-.59-.1-.1-.31-.16-.63-.16Z"
  />
  <path
    fill="#787DB0"
    d="M8 3.83C3.62 3.83.07 5.7.07 8S3.62 12.17 8 12.17 15.93 10.3 15.93 8 12.38 3.83 8 3.83ZM5.99 8.82c-.2.17-.4.3-.64.38a2.9 2.9 0 0 1-.88.11h-.7l-.2 1.04c-.01.04-.05.07-.1.07h-.9a.08.08 0 0 1-.07-.03.09.09 0 0 1-.02-.07l.82-4.18c0-.04.04-.07.08-.07h1.75c.55 0 .96.15 1.22.44.26.3.34.71.24 1.23a1.98 1.98 0 0 1-.6 1.08Zm2.62.46a.09.09 0 0 1-.02-.07l.36-1.85c.04-.18.03-.3-.02-.36-.03-.03-.12-.08-.4-.08H7.9l-.46 2.32c0 .04-.04.07-.08.07h-.9a.08.08 0 0 1-.07-.03.09.09 0 0 1-.02-.07l.82-4.18c0-.04.04-.07.08-.07h.9c.03 0 .05 0 .07.03.02.02.02.05.02.07l-.2 1.01h.7c.54 0 .9.1 1.11.29.21.2.28.51.2.94l-.38 1.94c0 .05-.04.07-.09.07h-.91a.1.1 0 0 1-.07-.03Zm5.09-1.54a1.93 1.93 0 0 1-1.24 1.46 2.9 2.9 0 0 1-.88.1h-.7l-.2 1.05c-.02.04-.05.07-.1.07h-.9a.08.08 0 0 1-.07-.03.09.09 0 0 1-.02-.07l.82-4.18c0-.05.04-.07.08-.07h1.75c.55 0 .96.15 1.22.44.26.3.34.71.24 1.23Z"
  />
</svg>
