<svg
  xmlns="http://www.w3.org/2000/svg"
  viewBox="0 0 49 50"
  fill="none"
  data-type="icon"
  data-colorful="true"
>
  <path
    fill="#2971a4"
    d="M35 35.3c.3-2.5.2-2.8 2-2.4h.5c1.4 0 3.2-.2 4.2-.7 2.3-1 3.7-2.8 1.4-2.4-5.1 1.1-5.5-.6-5.5-.6 5.5-8 7.7-18.3 5.8-20.8C38 1.6 28.8 4.8 28.6 5l-3.4-.3a9 9 0 0 0-5.5 1.6S3.3-.6 4 14.7C4.2 18 8.7 39.4 14 33c2-2.4 4-4.4 4-4.4q1.4 1 3.2.9l.1-.1v1c-1.3 1.5-1 1.7-3.7 2.3s-1.2 1.6 0 1.9 4.2.8 6.3-2l-.1.2c.5.5.5 3.2.6 5q0 3.1.6 4.9c.4 1 .8 3.7 4.5 3 3-.7 5.3-1.6 5.5-10.4"
  />
  <path
    fill="#2971a4"
    d="M28.3 47.5a5 5 0 0 1-3.3-1.3q-1.4-1.5-1.6-2.7l-.1-.3q-.6-1.9-.7-5.3v-2.1l-1.9.6a9 9 0 0 1-3.6-.2 4 4 0 0 1-2.4-1.4 4 4 0 0 1-3.8.9q-2.1-.7-3.9-4a37 37 0 0 1-2.4-6.3 59 59 0 0 1-2.3-10.6Q1.9 7.6 6 4.7c4.4-3.1 11-1.3 13.4-.5a11 11 0 0 1 5.7-1.4q1.8 0 3.3.3c1-.4 3.2-.8 5.6-.8q6.7.1 10.7 5c1.8 2.3.9 7.2.2 9.9a44 44 0 0 1-4.8 11.2q.9 0 2.6-.3c2.3-.5 3 .8 3.1 1.3.8 2.3-2.4 4-3.4 4.4a12 12 0 0 1-5 .9h-.6v.7q-.2 6.5-2.1 9c-1.4 2-3.3 2.5-5 2.9zm-3.4-16.1c1 .8 1.1 2.4 1.2 5.3v1c0 1 .2 3.3.5 4.2l.2.5c.4 1.2.6 1.8 2.3 1.4q2-.2 2.8-1.4 1.2-1.8 1.4-7.2H35l-1.7-.2v-.4c.2-1.4.3-2.5 1.3-3.2q1.2-.7 2.3-.3a3 3 0 0 1-1-1.6l-.2-.7.5-.6a40 40 0 0 0 5.3-12c1.1-4 .8-6.3.5-6.7-4.4-5.5-12-3.3-12.6-3h-.2l-.6.2h-.4q-1.5-.4-3-.4a7 7 0 0 0-4.4 1.3l-.8.6-1-.4c-2-.8-7.8-2.5-10.9-.3q-2.6 1.9-2.3 7.1c0 1.2.8 5.5 2.1 9.7 1.8 5.9 3.4 7.8 4.1 8l.7-.5 4-4.5 1-1 1.2.8q.7.5 1.6.5l3-2.5-.4 4.4v.4l.1.9-.6.6 1.6.8z"
  />
  <path
    fill="#3b8ccd"
    d="M43.1 29.8c-5.1 1-5.5-.6-5.5-.6 5.4-8 7.7-18.3 5.8-20.8C38 1.6 28.8 4.8 28.6 4.9l-3.4-.3a9 9 0 0 0-5.5 1.6S3.3-.6 4 14.7C4.2 18 8.7 39.4 14 33c2-2.4 4-4.4 4-4.4q1.4 1 3.2.9l.1-.1v1c-1.4 1.5-1 1.7-3.7 2.3s-1.2 1.6 0 1.9 4.2.8 6.3-2l-.1.2c.5.5 1 2.9.8 5q-.1 3.2.4 4.9c.4 1.1.8 3.7 4.5 3q4.5-1 4.8-5.2c.2-2 .5-1.7.5-3.5l.3-.8c.3-2.8 0-3.6 2-3.2h.4c1.4 0 3.2-.2 4.2-.7 2.3-1 3.7-2.8 1.4-2.4"
  />
  <path
    fill="#fff"
    d="M28.5 46.4c-3 0-4-2.4-4.4-3.4-.6-1.5-.7-7-.6-11.6a.6.6 0 0 1 .9-.6l.3.6a50 50 0 0 0 .5 11.1c.7 1.7 1.7 3.2 4.5 2.5 2.7-.5 3.7-1.6 4.2-4.2L35 32a.6.6 0 1 1 1.2 0c-.1 1.2-.8 7-1.2 9-.5 3.1-1.9 4.5-5 5.2zM12 34.6l-.7-.1q-3-1-5.6-9.5a57 57 0 0 1-2.3-10.3Q3.1 8 6.8 5.5c4.8-3.4 12.8-.1 13.2 0a.6.6 0 1 1-.5 1.1s-7.8-3.1-12-.1q-3.1 2.3-2.9 8.1c0 1.2.9 5.6 2.2 10 1.5 5 3.3 8.3 4.8 8.8.3 0 1 .3 2-1l3.8-4.2a.6.6 0 0 1 .8.8l-3.7 4.2q-1.4 1.5-2.5 1.4m25.6-5a.6.6 0 0 1-.5-.8c5.5-8.2 7.4-18 5.8-20.1q-3-4-8.7-4.1c-2.8 0-5 .6-5.3.7a.6.6 0 0 1-.6-1h.2c.6-.3 2.8-1 5.5-.9A12 12 0 0 1 43.8 8q1.6 2.3 0 8.8a43 43 0 0 1-5.7 12.6zm.3 3.8q-1.5 0-2.3-.4t-.6-1c-.1-2.4 1.2-2.8 2-3l-.5-.5q-.7-.7-1.4-2.3l-.5-1c-1.3-2.3-4-7.3-2.3-9.8q1.3-1.7 4.9-1.4c-.7-2-4-8.8-12-9q-3.6 0-5.9 2.3c-3.3 3.3-3.2 9.3-3.2 9.4a.6.6 0 0 1-1.1 0c0-.3-.2-6.6 3.5-10.3A9 9 0 0 1 25.2 4c5 0 8.3 2.7 10.2 4.8 2 2.4 3 5 3 5.8q0 1-.4.8h-.2q-3.6-.4-4.5.8c-1.3 2 1.3 6.6 2.4 8.6l.5 1q.6 1.4 1.3 2 .5.6.7 1.2c0 .1.7 1.1 4.8.3q1.5-.3 1.8.5c.4 1.1-1.7 2.4-2.8 3-1 .4-2.7.7-4.1.7M36.2 32q.2.2 2 .3a9 9 0 0 0 3.3-.7 7 7 0 0 0 2-1.3h-.3q-3.9.9-5.4-.2l-.2-.1h-.3c-.6.2-1.2.4-1.1 2m-16.8 3.2-2-.2c-.8-.2-2-.7-2-1.6s1.5-1.3 2-1.4c2-.4 2.2-.6 2.8-1.4l.7-.8q.7-.8 1.5-.8l.8.2q1 .5 1.4 1.6a2 2 0 0 1-.3 1.9 6 6 0 0 1-5 2.5m-2.7-1.8q.4.3 1 .4.8.3 1.7.3 2.5 0 4-2.1.2-.5 0-.8 0-.7-.6-1h-.4l-.6.3-.7.8c-.8 1-1.1 1.3-3.4 1.8zm4.5-2.7-.5-.5v-.3a6 6 0 0 1-4.1-1.8 7 7 0 0 1-1.7-5.5q.4-3.5 0-5.3v-.6c0-.2 0-.7 1.7-1.5a9 9 0 0 1 3-1q3.3-.2 4 2.7c1.2 5.2.1 7.6-.7 9.3l-.3.9-.1.2q-.7 1.6-.7 2.7zm-5-13.8v.4c0 1 .1 3.1-.2 5.5a5 5 0 0 0 1.4 4.5q1.5 1.4 3.3 1.4l.7-1.8v-.2l.5-1c.7-1.7 1.6-3.7.6-8.5q-.3-1.5-1.6-1.7c-1.7-.4-4.2.9-4.8 1.4m3.5-.3c0 .2.4.8.9.8q.9 0 1-.5t-.9-.5q-.9-.1-1 .2m1 1h-.1a1 1 0 0 1-1-.5l-.1-.5q0-.5.9-.5l1 .3q.5.3.4.5-.1.6-1 .8m-.8-1q0 .4.7.7h.1q.6-.1.7-.4 0-.2-.7-.3zm16-.4q0 .5-.9.8-.9-.1-1-.5t1-.6q.9 0 1 .3m-1 1q-.9-.2-1-.7.1-.5 1-.7h.4q.6 0 .8.4l-.3.5q-.2.4-.7.4zm.4-1.2H35q-.9.2-.9.4.1.4.8.5h.1q.5 0 .6-.3l.3-.4zm1.4 12.1a.6.6 0 0 1-.5-.9c1.3-1.9 1-3.8.8-5.6a15 15 0 0 1 .1-4.5l.2-2.3a.6.6 0 0 1 1-.5l.2.4-.2 2.6-.2 2 .1 2.1c.2 2 .5 4.2-1 6.5z"
  />
</svg>
