<svg xmlns="http://www.w3.org/2000/svg" fill="none" viewBox="0 0 49 50">
  <path
    fill="#2971A4"
    d="M35.04 35.25c.29-2.41.2-2.77 2-2.37l.45.03c1.38.07 3.18-.22 4.24-.71 2.29-1.06 3.64-2.83 1.39-2.36-5.13 1.06-5.49-.68-5.49-.68 5.42-8.04 7.7-18.25 5.73-20.75C38.03 1.59 28.8 4.8 28.64 4.9h-.05a18.3 18.3 0 0 0-3.42-.35 8.46 8.46 0 0 0-5.43 1.62S3.27-.6 4.04 14.71c.16 3.26 4.67 24.66 10.05 18.2 1.96-2.37 3.86-4.37 3.86-4.37.95.63 2.08.95 3.26.83l.1-.07c-.04.29-.03.58.03.92-1.39 1.55-.98 1.82-3.75 2.39-2.8.57-1.16 1.6-.08 1.87 1.3.33 4.32.79 6.35-2.06l-.08.32c.55.44.5 3.13.59 5.05.07 1.92.2 3.72.6 4.77.39 1.06.85 3.78 4.49 3 3.04-.65 5.37-1.58 5.58-10.31Z"
  />
  <path
    fill="#2971A4"
    d="M28.27 47.47a4.64 4.64 0 0 1-3.3-1.23c-.96-.9-1.34-2.07-1.57-2.77l-.1-.3c-.45-1.23-.6-3.01-.7-5.3l-.04-1.08-.03-.99c-.58.28-1.2.47-1.83.58a8.8 8.8 0 0 1-3.62-.19 4.23 4.23 0 0 1-2.37-1.4 3.79 3.79 0 0 1-3.83.9C9.46 35.22 8.2 33.9 7 31.62a36.5 36.5 0 0 1-2.45-6.24c-1.35-4.41-2.2-9.06-2.28-10.58C2.03 10.02 3.32 6.6 6.1 4.65c4.37-3.09 11-1.27 13.41-.44a10.5 10.5 0 0 1 5.7-1.42c1.15.01 2.25.12 3.28.3 1.07-.34 3.18-.82 5.6-.79 4.45.05 8.14 1.79 10.67 5.02 1.8 2.3.91 7.15.22 9.83a43.93 43.93 0 0 1-4.78 11.27c.57 0 1.4-.07 2.57-.31 2.31-.48 2.99.76 3.17 1.32.74 2.23-2.46 3.9-3.46 4.37-1.27.6-3.36.96-5.06.88h-.08l-.45-.05-.04.38-.04.36c-.12 4.43-.75 7.23-2.05 9.08-1.36 1.94-3.26 2.48-4.93 2.84-.56.12-1.08.18-1.55.18Zm-3.39-16.1c1.04.83 1.13 2.4 1.21 5.32l.04 1.03c.04.98.13 3.27.49 4.23l.14.42c.4 1.23.6 1.84 2.32 1.47 1.45-.31 2.2-.59 2.78-1.42.85-1.2 1.32-3.63 1.41-7.22l1.76.05-1.75-.21.05-.44c.17-1.44.3-2.48 1.26-3.17.77-.55 1.65-.5 2.35-.37a2.64 2.64 0 0 1-1.04-1.55l-.15-.72.42-.62a40.17 40.17 0 0 0 5.38-11.9c1.08-4.16.75-6.36.42-6.77-4.32-5.53-11.82-3.25-12.6-2.99l-.14.07-.66.13-.34-.08c-.94-.19-1.98-.3-3.1-.32a6.7 6.7 0 0 0-4.32 1.27l-.8.61-.94-.39c-2-.81-7.86-2.45-10.95-.26-1.72 1.22-2.5 3.6-2.32 7.08.05 1.15.84 5.5 2.12 9.72 1.79 5.84 3.4 7.78 4.08 8 .12.04.42-.2.73-.56a99.8 99.8 0 0 1 3.94-4.45l1.02-1.08 1.24.82c.5.34 1.04.52 1.6.56l2.95-2.51-.42 4.35c-.01.1-.02.23.02.48l.13.82-.56.63-.06.07 1.61.74.68-.84Z"
  />
  <path
    fill="#3B8CCD"
    d="M43.12 29.83c-5.13 1.06-5.49-.67-5.49-.67 5.42-8.05 7.7-18.26 5.74-20.76C38.03 1.6 28.8 4.81 28.64 4.9h-.05a18.3 18.3 0 0 0-3.42-.35 8.46 8.46 0 0 0-5.43 1.62S3.27-.62 4.04 14.71c.16 3.25 4.67 24.66 10.05 18.2 1.96-2.37 3.86-4.37 3.86-4.37.95.63 2.07.95 3.26.83l.09-.08c-.03.3-.02.58.04.92-1.39 1.55-.98 1.82-3.75 2.4-2.8.57-1.16 1.6-.08 1.87 1.3.32 4.32.79 6.35-2.06l-.08.32c.54.44.93 2.83.86 5-.06 2.17-.1 3.66.32 4.82.43 1.16.86 3.78 4.5 3 3.04-.65 4.62-2.34 4.84-5.16.15-2 .5-1.7.53-3.5l.28-.84c.32-2.72.05-3.6 1.93-3.19l.45.04c1.38.06 3.19-.22 4.25-.71 2.28-1.06 3.63-2.83 1.38-2.37Z"
  />
  <path
    fill="#fff"
    d="M28.5 46.37c-3.04 0-4-2.4-4.4-3.39-.57-1.44-.7-7.03-.57-11.61a.59.59 0 0 1 .83-.52.59.59 0 0 1 .35.55c-.15 5.29.06 10.08.49 11.14.66 1.67 1.67 3.12 4.52 2.5 2.7-.57 3.72-1.6 4.17-4.22.35-2 1.04-7.72 1.12-8.85a.59.59 0 1 1 1.17.09c-.08 1.17-.77 6.88-1.13 8.96-.53 3.1-1.9 4.5-5.08 5.18-.54.11-1.03.17-1.48.17ZM12.03 34.63c-.27 0-.53-.05-.78-.13-1.97-.66-3.85-3.87-5.58-9.54-1.32-4.32-2.16-8.83-2.23-10.3-.22-4.34.9-7.42 3.32-9.13 4.8-3.4 12.87-.17 13.2-.03a.59.59 0 1 1-.44 1.1c-.07-.04-7.81-3.14-12.08-.11-2.07 1.47-3.02 4.2-2.83 8.11.07 1.24.85 5.64 2.18 10.01 1.55 5.07 3.3 8.27 4.83 8.77.24.08.97.32 2-.93a90.42 90.42 0 0 1 3.78-4.24.59.59 0 0 1 .84.8c-.01.03-1.78 1.88-3.71 4.2-.91 1.1-1.79 1.42-2.5 1.42Zm25.6-4.96a.59.59 0 0 1-.5-.92c5.49-8.13 7.41-17.95 5.76-20.06-2.07-2.65-5-4.03-8.7-4.11-2.74-.06-4.92.64-5.27.76l-.1.04a.59.59 0 0 1-.5-1.06l.16-.07c.6-.22 2.82-.88 5.56-.85 4.1.04 7.47 1.62 9.78 4.57 1.09 1.4 1.1 4.6 0 8.8a42.63 42.63 0 0 1-5.7 12.64.59.59 0 0 1-.5.26Zm.27 3.77c-.93 0-1.77-.14-2.27-.44-.52-.3-.62-.73-.63-.95-.14-2.47 1.22-2.9 1.92-3.1-.1-.15-.23-.32-.38-.5-.4-.5-.96-1.2-1.39-2.24-.06-.16-.27-.54-.52-.98-1.32-2.36-4.06-7.29-2.3-9.8.82-1.17 2.44-1.63 4.84-1.38-.7-2.14-4.06-8.86-12.02-8.99-2.4-.04-4.36.7-5.84 2.19-3.3 3.33-3.18 9.37-3.18 9.43a.59.59 0 0 1-1.17.03c-.01-.27-.13-6.6 3.52-10.29a8.82 8.82 0 0 1 6.69-2.53c5.09.08 8.37 2.67 10.22 4.83 2.02 2.35 3.01 4.94 3.1 5.8.05.65-.4.78-.5.8h-.21c-2.35-.37-3.86-.11-4.49.78-1.34 1.92 1.26 6.57 2.37 8.56.28.5.49.88.58 1.1.36.89.84 1.48 1.22 1.96.34.42.63.78.73 1.2.05.1.74 1.1 4.8.27 1.02-.21 1.63-.03 1.82.53.37 1.11-1.7 2.4-2.84 2.94-1.02.47-2.65.78-4.07.78Zm-1.73-1.49c.13.13.78.36 2.11.3a9.33 9.33 0 0 0 3.2-.66c.96-.45 1.6-.95 1.94-1.29l-.19.04c-2.6.53-4.44.46-5.47-.21l-.2-.15-.28.09c-.58.16-1.19.33-1.1 1.88Zm-16.8 3.29c-.64 0-1.32-.09-2.01-.26-.72-.18-1.94-.72-1.92-1.61.02-1 1.47-1.3 2.02-1.41 1.97-.41 2.1-.57 2.72-1.36l.7-.85c.46-.5.96-.76 1.48-.76.37 0 .66.12.86.2.63.26 1.16.9 1.37 1.65.2.68.1 1.34-.26 1.84a5.87 5.87 0 0 1-4.95 2.56Zm-2.66-1.82c.18.13.54.32.93.42.6.15 1.19.22 1.74.22 1.67 0 3.02-.7 4-2.06.2-.28.14-.65.08-.84-.11-.4-.4-.76-.69-.88a1.15 1.15 0 0 0-.4-.12c-.07 0-.27 0-.6.37l-.67.8c-.76.98-1.12 1.3-3.4 1.78-.56.11-.85.23-.99.3Zm4.53-2.72a.59.59 0 0 1-.58-.5l-.03-.29a5.75 5.75 0 0 1-4.05-1.82 6.57 6.57 0 0 1-1.73-5.5c.31-2.23.2-4.19.13-5.25-.01-.29-.03-.5-.02-.65 0-.18 0-.68 1.65-1.51a9.2 9.2 0 0 1 3.05-.95c2.13-.22 3.53.72 3.95 2.67 1.14 5.24.1 7.56-.67 9.26-.14.31-.28.61-.38.9l-.1.25c-.4 1.08-.75 2.02-.64 2.72a.59.59 0 0 1-.5.67h-.08Zm-5.1-13.84.02.42c.06 1.1.18 3.13-.14 5.47a5.4 5.4 0 0 0 1.41 4.53c.9.94 2.08 1.45 3.3 1.45h.02c.14-.57.37-1.17.61-1.83l.1-.25c.12-.33.26-.64.4-.98.74-1.63 1.66-3.66.6-8.52-.2-.97-.71-1.53-1.54-1.7-1.7-.39-4.25.9-4.78 1.4Zm3.55-.25c-.03.2.38.76.91.83.54.08 1-.36 1.02-.56.03-.21-.38-.44-.91-.52-.54-.07-1 .04-1.02.25Zm1.03 1.04-.15-.01a1.41 1.41 0 0 1-.9-.56c-.07-.1-.2-.32-.18-.5.04-.27.37-.44.89-.44a2.59 2.59 0 0 1 1.1.26c.33.19.35.4.34.5-.05.3-.52.75-1.1.75Zm-.84-1c.02.12.34.54.75.6h.1c.38 0 .66-.3.7-.4-.04-.06-.28-.23-.75-.3l-.3-.01c-.3 0-.46.06-.5.1Zm16.08-.47c.03.2-.38.76-.92.84-.53.07-1-.36-1.02-.57-.03-.2.38-.44.92-.51.53-.07.99.03 1.02.24Zm-1.04.95c-.52 0-.96-.4-1-.66-.04-.32.47-.55 1-.63l.35-.02c.45 0 .75.13.78.35.02.14-.08.35-.27.55-.12.13-.38.35-.73.4h-.13Zm.35-1.12-.32.03c-.53.07-.85.28-.83.4.01.12.35.49.8.49h.1c.3-.05.52-.24.62-.35.16-.17.23-.33.22-.38-.01-.08-.2-.19-.6-.19Zm1.46 12.11a.59.59 0 0 1-.5-.91c1.26-1.87 1.03-3.78.81-5.63-.1-.78-.2-1.6-.17-2.38.03-.8.13-1.46.23-2.1.12-.76.23-1.48.18-2.33a.59.59 0 0 1 .98-.47.59.59 0 0 1 .2.4c.05.98-.08 1.8-.2 2.58-.09.6-.19 1.23-.21 1.96-.02.7.07 1.43.16 2.2.23 1.96.5 4.19-1 6.42a.59.59 0 0 1-.48.26Z"
  />
</svg>
