<svg xmlns="http://www.w3.org/2000/svg" fill="none" viewBox="0 0 16 16">
  <path
    fill="url(#a)"
    d="M7.97 1.31c-3.4 0-3.2 1.48-3.2 1.48v1.54h3.26v.46H3.48S1.3 4.54 1.3 7.99c0 3.44 1.9 3.31 1.9 3.31h1.14V9.7s-.06-1.9 1.88-1.9h3.23s1.81.03 1.81-1.75V3.1s.28-1.79-3.29-1.79Zm-1.8 1.04a.59.59 0 1 1 0 1.17.59.59 0 0 1 0-1.17Z"
  />
  <path
    fill="url(#b)"
    d="M8.07 14.69c3.41 0 3.2-1.48 3.2-1.48v-1.54H8v-.46h4.55s2.18.25 2.18-3.2c0-3.44-1.9-3.31-1.9-3.31H11.7v1.6s.06 1.9-1.88 1.9H6.6s-1.81-.03-1.81 1.75v2.95S4.5 14.7 8.07 14.7m1.8-1.04a.58.58 0 1 1 0-1.17.58.58 0 0 1 0 1.17Z"
  />
  <defs>
    <linearGradient
      id="a"
      x1="130.47"
      x2="796.56"
      y1="121.58"
      y2="781.02"
      gradientUnits="userSpaceOnUse"
    >
      <stop stop-color="#387EB8" />
      <stop offset="1" stop-color="#366994" />
    </linearGradient>
    <linearGradient
      id="b"
      x1="195.43"
      x2="910.73"
      y1="210.27"
      y2="886.47"
      gradientUnits="userSpaceOnUse"
    >
      <stop stop-color="#FFE052" />
      <stop offset="1" stop-color="#FFC331" />
    </linearGradient>
  </defs>
</svg>
