<svg
  xmlns="http://www.w3.org/2000/svg"
  fill="none"
  viewBox="0 0 16 16"
  data-type="icon"
  data-colorful="true"
>
  <path
    fill="#61DAFB"
    d="M6.75 8a1.25 1.25 0 1 0 2.5 0 1.25 1.25 0 0 0-2.5 0Z"
  />
  <path
    fill="#61DAFB"
    d="M15 8c0-.98-1.15-1.83-2.94-2.35.45-1.8.3-3.23-.56-3.72-.85-.5-2.16.08-3.5 1.38C6.66 2 5.35 1.44 4.5 1.93c-.85.49-1.01 1.91-.56 3.72C2.14 6.17.99 7.02.99 8s1.16 1.83 2.95 2.34c-.45 1.81-.3 3.23.56 3.73.2.12.44.18.7.18.62 0 1.37-.34 2.19-1 .2-.17.4-.36.61-.56.2.2.4.39.61.55.82.67 1.57 1 2.19 1 .26 0 .5-.05.7-.17.85-.5 1.01-1.92.56-3.73 1.8-.51 2.95-1.36 2.95-2.34Zm-3.8-5.54c.55.32.67 1.47.28 3.04-.58-.13-1.2-.23-1.87-.3-.38-.54-.78-1.03-1.18-1.46.92-.9 1.78-1.38 2.37-1.38.15 0 .29.03.4.1ZM9.95 9.13c-.21.37-.44.73-.67 1.07a16.66 16.66 0 0 1-2.55 0A17.04 17.04 0 0 1 5.44 8a17.64 17.64 0 0 1 1.28-2.21 16.68 16.68 0 0 1 2.55 0 17.32 17.32 0 0 1 1.27 2.2c-.18.38-.38.75-.6 1.14Zm.92-.42c.18.42.32.82.44 1.2-.39.09-.8.16-1.26.22a18.73 18.73 0 0 0 .82-1.42ZM8 11.82c-.28-.3-.55-.63-.82-.98a17.43 17.43 0 0 0 1.64 0c-.27.35-.54.68-.82.98Zm-2.05-1.7c-.45-.05-.87-.12-1.26-.21.12-.38.26-.78.44-1.2a18.17 18.17 0 0 0 .82 1.42Zm-.82-2.84c-.18-.41-.32-.81-.44-1.2.39-.08.8-.16 1.25-.21a16.48 16.48 0 0 0-.81 1.41ZM8 4.18c.27.29.54.62.81.97a17.36 17.36 0 0 0-1.62 0c.27-.35.54-.68.81-.98Zm2.48 2.38-.43-.7c.45.06.87.14 1.26.23-.12.38-.26.78-.44 1.2-.12-.25-.25-.49-.39-.73ZM4.8 2.46c.11-.07.25-.1.4-.1.6 0 1.45.49 2.37 1.38-.4.43-.8.93-1.18 1.47-.67.06-1.3.16-1.86.29-.4-1.57-.28-2.73.27-3.04ZM1.6 8c0-.64.94-1.32 2.5-1.76.18.56.4 1.15.68 1.76-.28.6-.5 1.2-.68 1.76C2.54 9.3 1.6 8.63 1.6 8ZM7 12.77c-.93.76-1.73 1.04-2.2.77-.55-.32-.67-1.47-.27-3.04.57.13 1.2.22 1.86.29.38.54.78 1.03 1.18 1.47-.19.18-.37.36-.57.51Zm4.2.77c-.47.27-1.27-.01-2.2-.77a9.87 9.87 0 0 1-.57-.51c.4-.44.8-.94 1.18-1.47.66-.06 1.29-.16 1.86-.3.4 1.58.28 2.73-.27 3.05Zm.7-3.78c-.17-.57-.4-1.16-.68-1.76.28-.6.5-1.2.68-1.76 1.56.44 2.5 1.12 2.5 1.76 0 .63-.94 1.31-2.5 1.76Z"
  />
</svg>
