<svg xmlns="http://www.w3.org/2000/svg" fill="none" viewBox="0 0 49 49">
  <path
    fill="#A73434"
    d="M44.63 36.06c-2.36 1.24-14.6 6.28-17.2 7.64-2.6 1.36-4.04 1.35-6.1.36-2.06-.99-15.07-6.26-17.42-7.38-1.17-.56-1.79-1.03-1.79-1.48V30.7s16.95-3.7 19.68-4.68c2.74-.98 3.69-1.02 6.02-.16 2.32.85 16.24 3.37 18.54 4.22v4.42c0 .44-.53.92-1.73 1.55Z"
  />
  <path
    fill="#DA5551"
    d="M44.63 31.6c-2.36 1.24-14.6 6.28-17.2 7.64-2.6 1.36-4.05 1.35-6.1.36-2.06-.98-15.07-6.25-17.42-7.38-2.34-1.12-2.4-1.9-.09-2.8 2.3-.9 15.25-6 17.98-6.98 2.74-.98 3.69-1.02 6.02-.16 2.32.85 14.48 5.7 16.78 6.55 2.3.85 2.39 1.54.03 2.78Z"
  />
  <path
    fill="#A73434"
    d="M44.63 28.8c-2.36 1.24-14.6 6.28-17.2 7.64-2.6 1.37-4.04 1.35-6.1.37-2.06-.99-15.07-6.26-17.42-7.38-1.17-.56-1.79-1.04-1.79-1.49v-4.48s16.95-3.7 19.68-4.68c2.74-.99 3.69-1.02 6.02-.17 2.32.86 16.24 3.38 18.54 4.22v4.42c0 .44-.53.93-1.73 1.56Z"
  />
  <path
    fill="#DA5551"
    d="M44.63 24.35c-2.36 1.24-14.6 6.28-17.2 7.64-2.6 1.36-4.05 1.35-6.1.36-2.06-.99-15.07-6.26-17.42-7.38-2.34-1.12-2.4-1.9-.09-2.8 2.3-.9 15.25-6 17.98-6.98 2.74-.98 3.69-1.02 6.02-.16 2.32.85 14.48 5.7 16.78 6.55 2.3.84 2.39 1.54.03 2.77Z"
  />
  <path
    fill="#A73434"
    d="M44.63 21.29c-2.36 1.23-14.6 6.27-17.2 7.63-2.6 1.36-4.04 1.35-6.1.36-2.06-.98-15.07-6.25-17.42-7.38-1.17-.56-1.79-1.03-1.79-1.48v-4.48s16.95-3.7 19.68-4.68c2.74-.99 3.69-1.02 6.02-.17 2.32.86 16.24 3.37 18.54 4.22v4.42c0 .44-.53.93-1.73 1.56Z"
  />
  <path
    fill="#DA5551"
    d="M44.63 16.83c-2.36 1.23-14.6 6.27-17.2 7.64-2.6 1.36-4.05 1.34-6.1.36-2.06-.99-15.07-6.26-17.42-7.38-2.34-1.13-2.4-1.9-.09-2.8 2.3-.9 15.25-6 17.98-6.98 2.74-.99 3.69-1.02 6.02-.17 2.32.86 14.48 5.71 16.78 6.55 2.3.85 2.39 1.55.03 2.78Z"
  />
  <path
    fill="#fff"
    d="m29.65 12.47-3.8.4-.86 2.05-1.37-2.3-4.4-.39 3.28-1.18-.98-1.82 3.07 1.2 2.9-.95-.79 1.88 2.95 1.1Zm-4.88 9.96-7.1-2.95 10.17-1.56-3.07 4.51Zm-9.84-8.82c3 0 5.43.95 5.43 2.11 0 1.17-2.43 2.12-5.43 2.12-3 0-5.44-.95-5.44-2.12 0-1.16 2.43-2.11 5.44-2.11Z"
  />
  <path fill="#C83B3D" d="m34.14 13.03 6.02 2.38-6.01 2.39v-4.77Z" />
  <path fill="#962C2B" d="m27.48 15.67 6.66-2.64.01 4.77-.65.25-6.02-2.38Z" />
</svg>
