<svg
  xmlns="http://www.w3.org/2000/svg"
  fill="none"
  viewBox="0 0 16 16"
  data-type="icon"
  data-colorful="true"
>
  <g clip-path="url(#a)">
    <path
      fill="currentColor"
      d="m15.9 7.8-.7-.42V7.2l.58-.55a.23.23 0 0 0-.08-.38l-.75-.28-.05-.18.47-.65a.23.23 0 0 0-.15-.36l-.8-.13-.08-.16.33-.73a.23.23 0 0 0-.1-.3.23.23 0 0 0-.12-.03l-.8.03-.12-.14.19-.78a.23.23 0 0 0-.28-.28l-.78.19-.14-.12.03-.8a.23.23 0 0 0-.33-.22l-.73.33-.16-.08-.13-.8a.23.23 0 0 0-.36-.15l-.65.47-.18-.05L9.73.3a.23.23 0 0 0-.38-.08L8.8.81a8.7 8.7 0 0 0-.18-.02L8.2.11a.23.23 0 0 0-.4 0l-.42.68-.18.02-.55-.59a.23.23 0 0 0-.38.08l-.28.75-.18.05-.65-.47a.23.23 0 0 0-.36.15l-.13.8-.16.08-.73-.33a.23.23 0 0 0-.33.22l.03.8-.14.12-.78-.19a.23.23 0 0 0-.28.28l.19.78-.12.14-.8-.03a.23.23 0 0 0-.24.21c0 .04 0 .08.02.12l.33.73-.08.16-.8.13a.23.23 0 0 0-.15.36l.47.65-.05.18-.75.28a.23.23 0 0 0-.08.38l.59.55-.02.18-.68.42a.23.23 0 0 0 0 .4l.68.42.02.18-.59.55a.23.23 0 0 0 .08.38l.75.28.05.18-.47.65a.23.23 0 0 0 .15.36l.8.13.08.16-.33.73a.23.23 0 0 0 .22.33l.8-.03.12.14-.19.78a.23.23 0 0 0 .28.28l.78-.19a7 7 0 0 0 .14.12l-.03.8a.23.23 0 0 0 .33.22l.73-.33.16.08.13.8a.23.23 0 0 0 .36.15l.65-.47.18.05.28.75a.23.23 0 0 0 .38.08l.55-.59.18.02.43.68a.23.23 0 0 0 .39 0l.42-.68.18-.02.55.59a.23.23 0 0 0 .38-.08l.28-.75.18-.05.65.47a.23.23 0 0 0 .36-.15l.13-.8.16-.08.73.33a.23.23 0 0 0 .33-.22l-.03-.8.14-.12.78.19a.23.23 0 0 0 .28-.28l-.19-.78.12-.14.8.03a.22.22 0 0 0 .2-.1.23.23 0 0 0 .02-.23l-.33-.73.08-.16.8-.13a.23.23 0 0 0 .15-.36l-.47-.65.05-.18.75-.28a.23.23 0 0 0 .08-.38l-.59-.55.02-.18.68-.42a.23.23 0 0 0 0-.4Zm-4.73 4.04a.43.43 0 0 0-.51.33l-.24 1.12a5.86 5.86 0 0 1-4.89-.03l-.24-1.11a.43.43 0 0 0-.51-.33l-.99.2a5.86 5.86 0 0 1-.5-.6h4.78c.06 0 .1 0 .1-.05v-1.7c0-.05-.04-.06-.1-.06h-1.4V8.54H8.2c.14 0 .74.04.93.8.06.24.2 1.01.28 1.26.1.27.46.83.85.83h2.47c-.17.22-.35.43-.54.62l-1-.21Zm.8 1.08a.48.48 0 1 1-.47-.48h.01a.48.48 0 0 1 .47.48Zm-7.04-.03a.48.48 0 1 1-.48-.47h.01a.48.48 0 0 1 .47.47ZM2.17 7.32l1.03-.46a.43.43 0 0 0 .22-.57l-.21-.48h.83v3.74H2.36a5.86 5.86 0 0 1-.19-2.23Zm-.35-1.13a.48.48 0 0 1 .48-.48h.01a.48.48 0 1 1-.49.48Zm4.85.77v-1.1h1.98c.1 0 .72.11.72.57 0 .39-.47.53-.86.53H6.67Zm5.8 2.62c-.3.04-.65-.12-.69-.31-.18-1.02-.48-1.23-.95-1.6.59-.38 1.2-.93 1.2-1.67 0-.8-.55-1.3-.92-1.55a2.62 2.62 0 0 0-1.26-.41H3.64A5.86 5.86 0 0 1 6.9 2.19l.74.77a.43.43 0 0 0 .6.01l.83-.78a5.86 5.86 0 0 1 4.01 2.86l-.56 1.27a.44.44 0 0 0 .22.57l1.08.48c.03.34.04.68.01 1.01h-.6c-.06 0-.08.04-.08.1v.28c0 .65-.37.79-.7.82ZM7.5 1.88a.48.48 0 0 1 .48-.47.48.48 0 1 1-.48.47Zm6.15 4.8a.48.48 0 1 1 0-.94h.01a.48.48 0 0 1 0 .95Z"
    />
  </g>
  <defs>
    <clipPath id="a"><path fill="#fff" d="M0 0h16v16H0z" /></clipPath>
  </defs>
</svg>
