<svg xmlns="http://www.w3.org/2000/svg" fill="none" viewBox="0 0 23 24">
  <g clip-path="url(#a)">
    <mask
      id="b"
      width="23"
      height="24"
      x="0"
      y="0"
      maskUnits="userSpaceOnUse"
      style="mask-type: luminance"
    >
      <path fill="#fff" d="M22.38.3H.37v22.78h22.01V.3Z" />
    </mask>
    <g mask="url(#b)">
      <path
        fill="#6CB52D"
        d="M20.41 1.88a9.6 9.6 0 0 1-1.18 2.07C17.23 1.9 14.43.6 11.35.6a11.03 11.03 0 0 0-7.5 19.08l.4.37a10.96 10.96 0 0 0 7.1 2.59c5.78 0 10.55-4.52 10.96-10.22.33-2.77-.51-6.32-1.9-10.55ZM5.44 19.78a.93.93 0 0 1-1.32.14.93.93 0 0 1-.13-1.31.93.93 0 0 1 1.31-.14c.4.32.46.9.14 1.32Zm14.9-3.29c-2.7 3.61-8.51 2.39-12.22 2.57 0 0-.66.04-1.31.14 0 0 .25-.12.56-.23 2.62-.91 3.85-1.1 5.44-1.91 2.97-1.53 5.95-4.86 6.54-8.32-1.14 3.32-4.59 6.18-7.72 7.34-2.16.8-6.05 1.57-6.05 1.57l-.16-.1C2.8 16.27 2.7 10.55 7.52 8.7c2.11-.81 4.11-.36 6.4-.9 2.44-.57 5.26-2.39 6.39-4.77 1.26 3.84 2.8 9.79.04 13.47Z"
      />
      <path
        fill="#6CB52D"
        d="M5.44 19.79a.93.93 0 0 1-1.32.13.93.93 0 0 1-.13-1.31.93.93 0 0 1 1.31-.14c.4.32.46.9.14 1.32Z"
      />
      <path
        fill="#fff"
        d="M20.34 16.5c-2.7 3.6-8.51 2.38-12.22 2.56 0 0-.66.04-1.31.14 0 0 .25-.12.56-.23 2.62-.91 3.85-1.1 5.44-1.91 2.97-1.52 5.94-4.86 6.54-8.32-1.14 3.32-4.59 6.18-7.72 7.34-2.16.8-6.05 1.57-6.05 1.57l-.16-.1C2.8 16.27 2.7 10.55 7.52 8.7c2.11-.82 4.11-.37 6.4-.91 2.44-.57 5.26-2.39 6.39-4.77 1.26 3.84 2.8 9.79.03 13.47Z"
      />
    </g>
  </g>
  <defs>
    <clipPath id="a"><path fill="#fff" d="M.37.3h22.02v22.78H.37z" /></clipPath>
  </defs>
</svg>
