<svg
  xmlns="http://www.w3.org/2000/svg"
  fill="none"
  viewBox="0 0 16 16"
  data-type="icon"
  data-colorful="true"
>
  <path
    fill="#00a3ff"
    d="M13.873 11.684c-.255.259-.764.648-1.655.648H6.746c1.655-1.62 3.054-2.98 3.182-3.109.127-.13.445-.453.763-.712.636-.583 1.146-.648 1.59-.648.637 0 1.146.259 1.592.648.89.841.89 2.331 0 3.173m1.081-4.21a3.53 3.53 0 0 0-2.608-1.165c-.891 0-1.655.323-2.355.842-.254.259-.636.518-.954.906-.255.26-5.727 5.7-5.727 5.7.318.064.7.064 1.018.064h6.936c.509 0 .89 0 1.273-.065a3.88 3.88 0 0 0 2.354-1.036c1.463-1.425 1.463-3.82.063-5.246"
  />
  <path
    fill="#00c8dc"
    d="M5.91 7.093c-.703-.523-1.407-.784-2.239-.784a3.54 3.54 0 0 0-2.623 1.176 3.863 3.863 0 0 0 .064 5.356c.64.588 1.28.915 2.047.98l1.472-1.437h-.832c-.832-.065-1.344-.327-1.663-.653a2.384 2.384 0 0 1-.064-3.267c.447-.457.96-.653 1.6-.653.383 0 .959.065 1.535.653.256.262.96.784 1.215 1.046h.064l.96-.98v-.066c-.448-.457-1.152-1.045-1.535-1.371"
  />
  <path
    fill="#006eff"
    d="M12.686 5.41a5.05 5.05 0 0 0-4.729-3.275c-2.527 0-4.535 1.862-4.923 4.174.194 0 .388-.064.647-.064.26 0 .583.064.843.064.323-1.605 1.749-2.761 3.433-2.761 1.425 0 2.656.834 3.239 2.054 0 0 .065.065.065 0 .453-.064.972-.192 1.425-.192q0 .096 0 0"
  />
</svg>
