<svg
  xmlns="http://www.w3.org/2000/svg"
  fill="none"
  viewBox="0 0 24 24"
  data-type="icon"
  data-colorful="true"
>
  <g clip-path="url(#a)">
    <path
      fill="#DD4814"
      d="M23.34 12.16a11.36 11.36 0 1 1-22.73 0 11.36 11.36 0 0 1 22.73 0Z"
    />
    <path
      fill="#fff"
      d="M4.25 10.64a1.52 1.52 0 1 0 0 3.03 1.52 1.52 0 0 0 0-3.03Zm10.83 6.9a1.52 1.52 0 1 0 1.52 2.62 1.52 1.52 0 0 0-1.52-2.62Zm-7.53-5.38c0-1.5.74-2.83 1.88-3.63L8.32 6.67a6.6 6.6 0 0 0-2.73 3.84 2.13 2.13 0 0 1 0 3.3 6.6 6.6 0 0 0 2.73 3.83l1.1-1.86a4.42 4.42 0 0 1-1.87-3.62Zm4.43-4.43a4.43 4.43 0 0 1 4.41 4.03l2.16-.03a6.57 6.57 0 0 0-1.96-4.27 2.13 2.13 0 0 1-2.85-1.65 6.6 6.6 0 0 0-4.68.44l1.05 1.89a4.41 4.41 0 0 1 1.87-.41Zm0 8.86c-.65 0-1.29-.14-1.87-.41l-1.05 1.89a6.56 6.56 0 0 0 4.68.44 2.13 2.13 0 0 1 2.85-1.65 6.57 6.57 0 0 0 1.96-4.28l-2.16-.03a4.43 4.43 0 0 1-4.41 4.04Zm3.1-9.81a1.52 1.52 0 1 0 1.52-2.63 1.52 1.52 0 0 0-1.52 2.63Z"
    />
  </g>
  <defs>
    <clipPath id="a"><path fill="#fff" d="M.59.8h22.78v22.78H.59z" /></clipPath>
  </defs>
</svg>
