<svg xmlns="http://www.w3.org/2000/svg" fill="none" viewBox="0 0 16 16">
  <path
    fill="#00e5e5"
    d="m13.068 7.414-1.975 7.723a.14.14 0 0 0 0 .065.144.144 0 0 0 .143.11h3.949a.144.144 0 0 0 .144-.175l-1.985-7.723a.146.146 0 0 0-.224-.074.14.14 0 0 0-.052.073M2.2 9.163.67 15.138a.144.144 0 0 0 .144.174h3.048a.14.14 0 0 0 .115-.052.14.14 0 0 0 .028-.057.14.14 0 0 0 0-.065l-1.53-5.973a.14.14 0 0 0-.053-.073.15.15 0 0 0-.171 0 .14.14 0 0 0-.051.073"
  />
  <path
    fill="#006eff"
    d="M4.897 4.218 2.111 15.136a.14.14 0 0 0 .026.119.14.14 0 0 0 .11.055h5.576a.144.144 0 0 0 .144-.173L5.173 4.217a.14.14 0 0 0-.052-.073.15.15 0 0 0-.172 0 .14.14 0 0 0-.052.073"
  />
  <path
    fill="#006eff"
    d="M9.705.746a.14.14 0 0 0-.052-.073.15.15 0 0 0-.171 0 .14.14 0 0 0-.052.073L5.62 15.137a.144.144 0 0 0 .145.174h7.613a.15.15 0 0 0 .144-.11.14.14 0 0 0 0-.064z"
  />
  <path
    fill="#00e5e5"
    d="M6.906 5.805 4.49 15.136a.14.14 0 0 0 .028.123.14.14 0 0 0 .116.052h4.822a.146.146 0 0 0 .144-.11.14.14 0 0 0 0-.065L7.182 5.805a.147.147 0 0 0-.138-.1.15.15 0 0 0-.138.1"
  />
</svg>
