<svg xmlns="http://www.w3.org/2000/svg" fill="none" viewBox="0 0 105 121">
  <foreignObject width="54.679" height="92.239" x="-.548" y="-.888"
    ><div
      xmlns="http://www.w3.org/1999/xhtml"
      style="
        backdrop-filter: blur(0.44px);
        clip-path: url(#a);
        height: 100%;
        width: 100%;
      "
  /></foreignObject>
  <path
    fill="#fff"
    fill-opacity=".37"
    stroke="url(#b)"
    stroke-width=".888"
    d="M.783 30.384 52.251.764l.546 59.872L.783 89.707z"
    data-figma-bg-blur-radius=".888"
  />
  <path
    fill="#eef0f7"
    stroke="url(#c)"
    stroke-opacity=".3"
    stroke-width=".444"
    d="M52.223 60.952.446 90.314 52.07 120.04l51.645-30.134z"
  />
  <path
    fill="url(#d)"
    d="m52.026 23.652 34.766 20.23v40.46l-34.766 20.23-34.766-20.23v-40.46z"
  />
  <path
    stroke="#005bff"
    stroke-width=".5"
    d="m86.792 43.882-34.766-20.23-34.766 20.23m69.532 0v40.46l-34.766 20.23m34.766-60.69L52.026 63.655m0 40.917L17.26 84.342v-40.46m34.766 60.69V63.655M17.26 43.882l34.766 19.773"
  />
  <path
    fill="url(#e)"
    d="M51.494 63.642 17.447 44.217l.066 39.98 34.452 20.052z"
  />
  <g fill="#fff" clip-path="url(#f)">
    <path
      d="M39.847 81.332c.678.395 1.344.552 1.922.455s1.045-.447 1.35-1.007c.304-.561.434-1.311.373-2.167-.06-.856-.308-1.782-.715-2.677a8.8 8.8 0 0 0-1.59-2.385c-.632-.664-1.32-1.142-1.987-1.378-.668-.236-1.287-.222-1.79.041s-.868.765-1.056 1.449l-1.371-2.59c.56-1.013 1.475-1.55 2.597-1.527s2.384.607 3.583 1.656c1.198 1.05 2.262 2.502 3.018 4.123.757 1.62 1.162 3.314 1.149 4.805s-.442 2.693-1.219 3.409c-.776.716-1.854.906-3.058.538-1.205-.369-2.465-1.273-3.576-2.567a13.5 13.5 0 0 1-2.544-4.56l1.431-.771a8.9 8.9 0 0 0 1.315 3.027c.627.927 1.387 1.672 2.168 2.125z"
    />
    <path
      d="M28.155 63.508c3.02 1.743 5.015 6.771 7.294 10.856-1.824 1.162-4.277 4.174-7.294 2.432-.726-.406-1.446-.983-2.12-1.7a12.8 12.8 0 0 1-1.802-2.475 13.4 13.4 0 0 1-1.208-2.865c-.28-.974-.424-1.93-.424-2.81 0-.882.144-1.671.424-2.322.28-.65.69-1.15 1.208-1.47.516-.32 1.13-.454 1.803-.393.673.06 1.393.315 2.119.747m.325 11.103c1.944 1.123 3.516-.817 4.68-1.569-1.465-2.625-2.736-5.85-4.69-6.978-.932-.538-1.826-.604-2.486-.184s-1.03 1.292-1.03 2.425.37 2.432 1.03 3.614 1.554 2.148 2.487 2.687z"
    />
  </g>
  <path
    fill="#f4f4f5"
    fill-opacity=".37"
    stroke="#ccdaff"
    stroke-width=".444"
    d="M103.596 30.237 52.293.892l.275 60.096 51.028 28.879z"
  />
  <foreignObject width="54.563" height="92.305" x="50.367" y="28.971"
    ><div
      xmlns="http://www.w3.org/1999/xhtml"
      style="
        backdrop-filter: blur(0.44px);
        clip-path: url(#g);
        height: 100%;
        width: 100%;
      "
  /></foreignObject>
  <path
    fill="#c9d3ee"
    fill-opacity=".37"
    stroke="url(#h)"
    stroke-width=".888"
    d="m51.701 60.145 51.897-29.523v59.304l-51.18 29.697z"
    data-figma-bg-blur-radius=".888"
  />
  <foreignObject width="105.968" height="62.329" x="-.596" y="-.683"
    ><div
      xmlns="http://www.w3.org/1999/xhtml"
      style="
        backdrop-filter: blur(0.44px);
        clip-path: url(#i);
        height: 100%;
        width: 100%;
      "
  /></foreignObject>
  <path
    fill="#e4eafb"
    fill-opacity=".37"
    stroke="url(#j)"
    stroke-width=".888"
    d="M52.33.718 1.173 30.17l50.773 30.074 51.653-29.759z"
    data-figma-bg-blur-radius=".888"
  />
  <text
    xml:space="preserve"
    fill="#005bff"
    font-size="16"
    letter-spacing="0em"
    style="white-space: pre"
    transform="matrix(1 0 -.5 .86603 34.447 19.718)"
  >
    <tspan x="0" y="17.68">Nacos</tspan>
  </text>
  <defs>
    <linearGradient
      id="b"
      x1="53.062"
      x2=".983"
      y1="58.885"
      y2="31.735"
      gradientUnits="userSpaceOnUse"
    >
      <stop offset=".499" stop-color="#a3afff" />
      <stop offset="1" stop-color="#005bff" />
    </linearGradient>
    <linearGradient
      id="c"
      x1="52.444"
      x2="13.271"
      y1="62.645"
      y2="92.251"
      gradientUnits="userSpaceOnUse"
    >
      <stop stop-color="#83afff" />
      <stop offset=".981" stop-color="#0042ba" />
    </linearGradient>
    <linearGradient
      id="d"
      x1="86.947"
      x2="46.947"
      y1="82.8"
      y2="39.3"
      gradientUnits="userSpaceOnUse"
    >
      <stop stop-color="#a3c4ff" />
      <stop offset="1" stop-color="#e2ecff" />
    </linearGradient>
    <linearGradient
      id="e"
      x1="52.018"
      x2="17.997"
      y1="65.46"
      y2="85.03"
      gradientUnits="userSpaceOnUse"
    >
      <stop stop-color="#70a9cc" />
      <stop offset="1" stop-color="#1e7fbb" />
    </linearGradient>
    <linearGradient
      id="h"
      x1="103.598"
      x2="52.043"
      y1="88.255"
      y2="61.204"
      gradientUnits="userSpaceOnUse"
    >
      <stop offset=".499" stop-color="#a3afff" />
      <stop offset="1" stop-color="#005bff" />
    </linearGradient>
    <linearGradient
      id="j"
      x1="52.319"
      x2="52.319"
      y1="1"
      y2="60.245"
      gradientUnits="userSpaceOnUse"
    >
      <stop offset=".416" stop-color="#a3c4ff" />
      <stop offset="1" stop-color="#005bff" />
    </linearGradient>
    <clipPath id="a" transform="translate(.548 .888)">
      <path d="M.783 30.384 52.251.764l.546 59.872L.783 89.707z" />
    </clipPath>
    <clipPath id="g" transform="translate(-50.367 -28.971)">
      <path d="m51.701 60.145 51.897-29.523v59.304l-51.18 29.697z" />
    </clipPath>
    <clipPath id="i" transform="translate(.596 .683)">
      <path d="M52.33.718 1.173 30.17l50.773 30.074 51.653-29.759z" />
    </clipPath>
    <clipPath id="f">
      <path fill="#fff" d="m46.588 66.232-25.14-14.515v29.03l25.14 14.515z" />
    </clipPath>
  </defs>
</svg>
