<svg xmlns="http://www.w3.org/2000/svg" fill="none" viewBox="0 0 739 383">
  <g clip-path="url(#a)">
    <path fill="#f4f4f5" d="M1 0h738v382.02H1z" />
    <g clip-path="url(#b)">
      <rect
        width="1232.73"
        height="203.86"
        fill="#efefef"
        rx="19.19"
        transform="matrix(1 -.09 .34 .94 -119.97 117.16)"
      />
      <path
        fill="#fff"
        fill-opacity=".6"
        d="M558.38 71.08c13.2-1.16 27.56 8 32.1 20.44l9.72 26.72c5.43 14.94 22.68 25.92 38.51 24.54l526.1-46.03c15.84-1.39 33.08 9.6 38.51 24.53l17.59 48.32c5.44 14.94-2.99 28.17-18.83 29.56l-1245.84 109c-15.84 1.38-33.08-9.6-38.52-24.54l-17.58-48.32c-5.44-14.94 3-28.17 18.83-29.56l184.95-16.18c15.83-1.38 24.26-14.61 18.83-29.55l-9.73-26.72c-4.53-12.44 2.5-23.47 15.7-24.62z"
      />
      <g clip-path="url(#c)">
        <path
          fill="url(#d)"
          fill-rule="evenodd"
          d="M154.87 124.52c.67-.1 1.41.01 2.11.32l8.53 3.7a3.3 3.3 0 0 1 1.76 1.78l7.3 20.03c.43 1.2-.21 2.29-1.47 2.45l-21.36 2.8a3.2 3.2 0 0 1-2.34-.71l-6.99-5.61a4 4 0 0 1-1.29-1.75L134.37 129c-.29-.8.13-1.5.96-1.63zm-.06 3.09c.4-.06.98.04 1.52.26l3.43 1.4c.78.32 1.02.8.44.88l-14.04 1.9a3.5 3.5 0 0 1-1.9-.46l-2.13-1.2c-.66-.37-.75-.8-.2-.87zm4.67 20.93c-.38-.03-.74-.34-.8-.7l-1.62-9.61c-.06-.4.23-.69.66-.65l.87.07c.39.04.74.34.8.7l1.62 9.62c.06.38-.23.68-.65.64zm-6.43-9.58c-.4-.26-.88-.19-1.04.16l-1.27 2.69-1.05 2.22c-.13.28.01.66.34.88l2.7 1.82 2.84 1.91c.4.26.88.19 1.04-.15l.38-.8c.13-.28-.01-.66-.33-.87l-3.53-2.38c-.33-.21-.47-.6-.33-.88l1.47-3.12c.13-.28 0-.66-.33-.88zm9.45-1.4 2.99 2 2.56 1.73c.32.21.46.59.33.88l-1.07 2.26-1.25 2.64c-.16.35-.65.42-1.04.16l-.89-.6c-.32-.22-.46-.6-.33-.88l1.47-3.12c.14-.29 0-.66-.33-.88l-3.52-2.37c-.33-.22-.47-.6-.33-.88l.37-.8c.16-.34.65-.41 1.04-.15"
          clip-rule="evenodd"
        />
      </g>
      <text
        xml:space="preserve"
        fill="#111824"
        font-family="PingFang SC"
        font-size="28.78"
        letter-spacing="1.2"
        style="white-space: pre"
        transform="matrix(1 -.09 .34 .94 186.13 118.28)"
      >
        <tspan x="0" y="29.55">project</tspan>
      </text>
      <path
        fill="#000"
        d="m563.03 97.19-4.74 7.44 9.7 6.18-1.62 2.53-9.7-6.18-4.74 7.44-3.3-2.1 4.74-7.44-9.7-6.18 1.62-2.53 9.7 6.18 4.74-7.44z"
      />
      <rect
        width="972.18"
        height="78.46"
        x="2.36"
        y="1.51"
        fill="#fff"
        stroke="#005bff"
        stroke-width="3.53"
        rx="39.23"
        transform="matrix(1 -.09 .34 .94 288.6 187.13)"
      />
      <text
        xml:space="preserve"
        fill="#111824"
        font-family="PingFang SC"
        font-size="28.78"
        letter-spacing="1.2"
        style="white-space: pre"
        transform="matrix(1 -.09 .34 .94 384.2 199.66)"
      >
        <tspan x="0" y="29.55">project.test.io</tspan>
      </text>
      <path
        fill="#ababab"
        d="m-1.3 249.9-22.6 1.98 6.82-10.7-3.53-2.24-9.76 15.31 19.95 12.71 1.72-2.7-13.92-8.88 22.6-1.98zM52.35 245.2l22.6-1.97L61 234.35l1.74-2.7 19.95 12.7-9.75 15.32-3.52-2.24 6.8-10.7-22.6 1.98z"
      />
      <circle
        cx="28.49"
        cy="28.49"
        r="28.49"
        fill="#f9fbff"
        transform="matrix(1 -.09 .34 .94 306.16 197.47)"
      />
      <g fill="#1d1d1e" clip-path="url(#e)">
        <path
          fill-rule="evenodd"
          d="M333.72 217.9c1.72-.15 2.64-1.6 2.05-3.22a4.3 4.3 0 0 0-4.2-2.68c-1.73.15-2.64 1.6-2.05 3.22a4.3 4.3 0 0 0 4.2 2.68m1.05 2.9c3.42-.3 5.25-3.16 4.07-6.4a8.55 8.55 0 0 0-8.32-5.3c-3.42.3-5.25 3.16-4.07 6.4a8.55 8.55 0 0 0 8.32 5.3"
          clip-rule="evenodd"
        />
        <path d="m341.07 213.5 12.96-1.14 1.06 2.9-12.97 1.13z" />
        <path
          fill-rule="evenodd"
          d="M355.17 226.04c-1.73.15-2.65 1.6-2.05 3.22a4.3 4.3 0 0 0 4.2 2.68c1.72-.15 2.64-1.6 2.05-3.22a4.3 4.3 0 0 0-4.2-2.68m-1.05-2.9c-3.43.3-5.25 3.16-4.07 6.4a8.55 8.55 0 0 0 8.32 5.3c3.42-.3 5.25-3.16 4.07-6.4a8.55 8.55 0 0 0-8.32-5.3"
          clip-rule="evenodd"
        />
        <path d="m347.82 230.45-12.97 1.13-1.05-2.9 12.97-1.13z" />
      </g>
      <g clip-path="url(#f)">
        <path
          fill="#474747"
          d="m233.88 248.33-7.64-20.98 11.01-11.79 18.65 9.2 7.64 20.98-11.13.97-4.45-12.24-7.42.65 4.46 12.24zm2.43-3.82 3.7-.32-4.45-12.24 14.83-1.3 4.46 12.24 3.7-.32-5.72-15.74-13.99-6.9-8.26 8.84z"
        />
      </g>
      <path
        fill="#474747"
        d="M160.45 251.99q-6.21.54-12-3.15t-7.92-9.54.7-10.3 9.04-4.99a18 18 0 0 1 6.57.72q3.38.99 6.3 3.12l-1.11-3.06q-.28-.75.08-1.3.34-.54 1.13-.61.8-.07 1.5.39.72.45 1 1.2l3.17 8.74q.28.74-.08 1.29-.34.55-1.13.62l-9.27.8a2.4 2.4 0 0 1-1.5-.38q-.72-.45-.99-1.2-.27-.74.08-1.29t1.14-.62l5.93-.52a16 16 0 0 0-5.46-3.49 14 14 0 0 0-6.09-.9q-4.63.4-6.76 3.74t-.54 7.72a14 14 0 0 0 5.95 7.14q4.35 2.78 8.99 2.37 3.2-.27 5.32-2.11a7.2 7.2 0 0 0 2.5-4.62q.07-.5.48-.87.41-.38.97-.42 1.06-.1 1.85.55.79.66.69 1.57a9.8 9.8 0 0 1-3.25 6.44 12 12 0 0 1-7.29 2.96M649.16 97.77l-9.84.86 3.38 9.29-3.28.28-3.38-9.28-9.85.86-1.13-3.1 9.85-.86-3.38-9.28 3.28-.3 3.38 9.3 9.85-.87z"
      />
    </g>
    <g filter="url(#g)">
      <path
        stroke="#fff"
        stroke-opacity=".7"
        stroke-width="1.54"
        d="m320.42 287.87 229.3-20.06c6.33-.55 13.23 3.84 15.4 9.82l20.27 55.67c2.18 5.98-1.2 11.27-7.54 11.83l-229.3 20.06c-6.33.55-13.23-3.84-15.4-9.82l-20.27-55.67c-2.18-5.98 1.2-11.27 7.54-11.83Z"
        shape-rendering="crispEdges"
      />
      <path
        fill="#fff"
        fill-opacity=".6"
        d="m504.13 269.38-.77 1.7 49-4.28c5.07-.44 10.6 3.08 12.33 7.86l22.4 61.54c1.74 4.78-.96 9.02-6.03 9.46l-235.22 20.58c-5.07.45-10.6-3.07-12.33-7.85l-22.4-61.54c-1.74-4.79.96-9.03 6.03-9.47l141.8-12.4-1.93-1.48 13.45-29.84z"
      />
      <text
        xml:space="preserve"
        fill="#111824"
        font-family="PingFang SC"
        font-size="28.78"
        letter-spacing="1.2"
        style="white-space: pre"
        transform="matrix(1 -.09 .34 .94 343.75 308.7)"
      >
        <tspan x="0" y="29.55">支持自定义域名</tspan>
      </text>
    </g>
    <g filter="url(#h)">
      <path
        fill="url(#i)"
        d="M-3.48 382.02h382.02v112.72H-3.48z"
        transform="rotate(-90 -3.48 382.02)"
      />
    </g>
    <path
      fill="url(#j)"
      d="M0 0h738v382.02H0z"
      style="mix-blend-mode: darken"
      transform="translate(1)"
    />
    <g filter="url(#k)">
      <path
        fill="url(#l)"
        d="M0 0h382.02v84.9H0z"
        transform="matrix(0 -1 -1 0 739 382.02)"
      />
    </g>
  </g>
  <defs>
    <clipPath id="a"><path fill="#fff" d="M0 0h739v382.02H0z" /></clipPath>
    <clipPath id="b">
      <rect
        width="1232.73"
        height="203.86"
        fill="#fff"
        rx="19.19"
        transform="matrix(1 -.09 .34 .94 -119.97 117.16)"
      />
    </clipPath>
    <clipPath id="c">
      <path fill="#fff" d="m128.9 123.6 38.22-3.35 13.12 36.06-38.22 3.34z" />
    </clipPath>
    <clipPath id="e">
      <path fill="#fff" d="m319.7 206.21 36.84-3.22 12.65 34.75-36.84 3.22z" />
    </clipPath>
    <clipPath id="f">
      <path fill="#fff" d="m213.1 212.26 44.49-3.89 15.27 41.97-44.49 3.9z" />
    </clipPath>
    <linearGradient
      id="d"
      x1="148.34"
      x2="140.55"
      y1="123.59"
      y2="154.54"
      gradientUnits="userSpaceOnUse"
    >
      <stop stop-color="#213654" />
      <stop offset="1" stop-color="#0f1d32" />
    </linearGradient>
    <linearGradient
      id="i"
      x1="211.41"
      x2="212.35"
      y1="382.02"
      y2="488.23"
      gradientUnits="userSpaceOnUse"
    >
      <stop stop-color="#f4f4f5" />
      <stop offset="1" stop-color="#f4f4f5" stop-opacity="0" />
    </linearGradient>
    <linearGradient
      id="l"
      x1="214.89"
      x2="215.43"
      y1="0"
      y2="79.99"
      gradientUnits="userSpaceOnUse"
    >
      <stop stop-color="#f4f4f5" />
      <stop offset="1" stop-color="#f4f4f5" stop-opacity="0" />
    </linearGradient>
    <filter
      id="g"
      width="636.34"
      height="154.47"
      x="43.75"
      y="237.52"
      color-interpolation-filters="sRGB"
      filterUnits="userSpaceOnUse"
    >
      <feFlood flood-opacity="0" result="BackgroundImageFix" />
      <feColorMatrix
        in="SourceAlpha"
        result="hardAlpha"
        values="0 0 0 0 0 0 0 0 0 0 0 0 0 0 0 0 0 0 127 0"
      />
      <feOffset />
      <feGaussianBlur stdDeviation=".77" />
      <feComposite in2="hardAlpha" operator="out" />
      <feColorMatrix
        values="0 0 0 0 0.473958 0 0 0 0 0.552499 0 0 0 0 0.625 0 0 0 0.25 0"
      />
      <feBlend in2="BackgroundImageFix" result="effect1_dropShadow_2261_1712" />
      <feColorMatrix
        in="SourceAlpha"
        result="hardAlpha"
        values="0 0 0 0 0 0 0 0 0 0 0 0 0 0 0 0 0 0 127 0"
      />
      <feOffset />
      <feGaussianBlur stdDeviation="3.07" />
      <feComposite in2="hardAlpha" operator="out" />
      <feColorMatrix
        values="0 0 0 0 0.632917 0 0 0 0 0.655278 0 0 0 0 0.7 0 0 0 0.25 0"
      />
      <feBlend
        in2="effect1_dropShadow_2261_1712"
        result="effect2_dropShadow_2261_1712"
      />
      <feBlend
        in="SourceGraphic"
        in2="effect2_dropShadow_2261_1712"
        result="shape"
      />
    </filter>
    <filter
      id="h"
      width="120.72"
      height="390.02"
      x="-7.48"
      y="-4"
      color-interpolation-filters="sRGB"
      filterUnits="userSpaceOnUse"
    >
      <feFlood flood-opacity="0" result="BackgroundImageFix" />
      <feBlend in="SourceGraphic" in2="BackgroundImageFix" result="shape" />
      <feGaussianBlur
        result="effect1_foregroundBlur_2261_1712"
        stdDeviation="2"
      />
    </filter>
    <filter
      id="k"
      width="92.9"
      height="390.02"
      x="650.1"
      y="-4"
      color-interpolation-filters="sRGB"
      filterUnits="userSpaceOnUse"
    >
      <feFlood flood-opacity="0" result="BackgroundImageFix" />
      <feBlend in="SourceGraphic" in2="BackgroundImageFix" result="shape" />
      <feGaussianBlur
        result="effect1_foregroundBlur_2261_1712"
        stdDeviation="2"
      />
    </filter>
    <radialGradient
      id="j"
      cx="0"
      cy="0"
      r="1"
      gradientTransform="matrix(0 182.48 -352.51 0 369 199.54)"
      gradientUnits="userSpaceOnUse"
    >
      <stop offset=".72" stop-color="#f8f8f8" stop-opacity="0" />
      <stop offset="1" stop-color="#f8f8f8" />
    </radialGradient>
  </defs>
</svg>
