<svg xmlns="http://www.w3.org/2000/svg" fill="none" viewBox="0 0 524 295">
  <g clip-path="url(#a)">
    <path fill="#f4f4f5" d="M0 0h523v295H0z" />
    <g filter="url(#b)">
      <rect
        width="519.05"
        height="662.89"
        x="22"
        y="20"
        fill="#fafafa"
        rx="8.58"
        shape-rendering="crispEdges"
      />
      <mask id="c" fill="#fff"><path d="M22 20h519.05v42.93H22z" /></mask>
      <path
        fill="#e4e4e7"
        d="M541.05 62.93v-.45H22v.89h519.05z"
        mask="url(#c)"
      />
      <path
        stroke="#18181b"
        stroke-linecap="round"
        stroke-linejoin="round"
        stroke-width="1.27"
        d="M51.93 41.46h-8.87M47.5 45.9l-4.44-4.44 4.43-4.43"
      />
      <text
        xml:space="preserve"
        fill="#000"
        font-size="15.21"
        font-weight="600"
        letter-spacing="0em"
        style="white-space: pre"
      >
        <tspan x="62.7" y="46.5">Configure DevBox</tspan>
      </text>
      <g filter="url(#d)">
        <path
          fill="#fff"
          d="M320.4 32.11a6.23 6.23 0 0 1 6.24-6.23h87.46a6.23 6.23 0 0 1 6.23 6.23v18.7a6.23 6.23 0 0 1-6.23 6.23h-87.47a6.23 6.23 0 0 1-6.23-6.23z"
          shape-rendering="crispEdges"
        />
        <path
          stroke="#e4e4e7"
          stroke-width=".78"
          d="M326.64 26.27h87.46a5.84 5.84 0 0 1 5.84 5.85v18.7a5.84 5.84 0 0 1-5.84 5.83h-87.46a5.84 5.84 0 0 1-5.85-5.84v-18.7a5.84 5.84 0 0 1 5.85-5.84Z"
          shape-rendering="crispEdges"
        />
        <text
          xml:space="preserve"
          fill="#18181b"
          font-size="10.91"
          font-weight="500"
          letter-spacing="0em"
          style="white-space: pre"
        >
          <tspan x="332.87" y="45.13">Export to Yaml</tspan>
        </text>
      </g>
      <path
        fill="#18181b"
        d="M429.68 32.11c0-3.44 2.8-6.23 6.23-6.23h81.02a6.23 6.23 0 0 1 6.23 6.23v18.7a6.23 6.23 0 0 1-6.23 6.23h-81.02a6.23 6.23 0 0 1-6.23-6.23z"
      />
      <text
        xml:space="preserve"
        fill="#fafafa"
        font-size="10.91"
        font-weight="500"
        letter-spacing="0em"
        style="white-space: pre"
      >
        <tspan x="458.92" y="45.13">Create</tspan>
      </text>
      <rect
        width="564.1"
        height="116.03"
        x="65.19"
        y="81.11"
        fill="#fff"
        rx="11.42"
      />
      <rect
        width="564.1"
        height="116.03"
        x="65.19"
        y="81.11"
        stroke="#e4e4e7"
        stroke-width=".59"
        rx="11.42"
      />
      <text
        xml:space="preserve"
        fill="#000"
        font-size="13.17"
        font-weight="600"
        letter-spacing="0em"
        style="white-space: pre"
      >
        <tspan x="88.31" y="115.73">Runtime</tspan>
      </text>
      <rect
        width="517.13"
        height="46.1"
        x="88.68"
        y="130.96"
        fill="#fff"
        rx="8.42"
      />
      <rect
        width="517.13"
        height="46.1"
        x="88.68"
        y="130.96"
        stroke="#e4e4e7"
        stroke-width=".73"
        rx="8.42"
      />
      <rect
        width="23.12"
        height="23.12"
        x="97.24"
        y="142.45"
        fill="#fff"
        rx="5.71"
      />
      <rect
        width="23.12"
        height="23.12"
        x="97.24"
        y="142.45"
        stroke="#e4e4e7"
        stroke-width=".29"
        rx="5.71"
      />
      <path
        fill="#408fc1"
        d="M106.94 157.96s-.58.31.4.42c1.2.13 1.81.11 3.13-.12 0 0 .35.2.83.38-2.95 1.19-6.69-.07-4.36-.68m-.37-1.56s-.64.45.35.55c1.27.12 2.28.13 4.03-.19 0 0 .24.24.62.36-3.57.99-7.55.08-5-.72"
      />
      <path
        fill="#ef5859"
        d="M109.51 153.86c.74.8-.2 1.51-.2 1.51s1.88-.9 1.02-2.05c-.8-1.06-1.42-1.59 1.92-3.4 0 0-5.24 1.22-2.74 3.94"
      />
      <path
        fill="#408fc1"
        d="M113.08 159.12s.4.32-.43.58c-1.57.48-6.54.63-7.92.02-.5-.22.44-.52.73-.59q.46-.07.48-.05c-.55-.4-3.56.77-1.53 1.1 5.55.92 10.11-.4 8.67-1.06m-5.81-4.3s-2.53.62-.9.84c.7.1 2.07.07 3.35-.04 1.04-.09 2.1-.28 2.1-.28s-.38.16-.64.35c-2.57.68-7.52.36-6.1-.34 1.2-.59 2.19-.52 2.19-.52m4.53 2.58c2.6-1.38 1.4-2.7.56-2.52q-.3.07-.3.08s.08-.12.23-.17c1.66-.6 2.94 1.75-.54 2.68z"
      />
      <path
        fill="#ef5859"
        d="M110.16 146.84s1.5 1.49-1.44 3.77c-2.37 1.84-.54 2.89 0 4.08-1.38-1.22-2.4-2.3-1.72-3.3 1-1.47 3.77-2.19 3.16-4.55"
      />
      <path
        fill="#408fc1"
        d="M107.42 161.14c2.54.16 6.44-.1 6.54-1.32 0 0-.18.46-2.1.83a21 21 0 0 1-6.44.1s.33.28 2 .38"
      />
      <text
        xml:space="preserve"
        fill="#000"
        font-size="11.71"
        font-weight="500"
        letter-spacing="0em"
        style="white-space: pre"
      >
        <tspan x="126.36" y="158.17">Java</tspan>
      </text>
      <text
        xml:space="preserve"
        fill="#71717a"
        font-size="10.24"
        letter-spacing="0em"
        style="white-space: pre"
      >
        <tspan x="162.14" y="157.46">
          Perplexica is an open-source AI-powered searching.
        </tspan>
      </text>
      <text
        xml:space="preserve"
        fill="#52525b"
        font-size="10.24"
        letter-spacing="0em"
        style="white-space: pre"
      >
        <tspan x="454.21" y="157.65">v24.04</tspan>
      </text>
      <path
        stroke="#52525b"
        stroke-linecap="round"
        stroke-linejoin="round"
        stroke-width=".97"
        d="m496 152.55 2.92 2.92 2.93-2.92"
      />
      <path stroke="#e4e4e7" stroke-width=".73" d="M519.78 148.16v11.7" />
      <rect
        width="564.1"
        height="174.79"
        x="65.19"
        y="209.43"
        fill="#fff"
        rx="11.42"
      />
      <rect
        width="564.1"
        height="174.79"
        x="65.19"
        y="209.43"
        stroke="#e4e4e7"
        stroke-width=".59"
        rx="11.42"
      />
      <text
        xml:space="preserve"
        fill="#000"
        font-size="13.17"
        font-weight="600"
        letter-spacing="0em"
        style="white-space: pre"
      >
        <tspan x="88.31" y="244.05">Usage</tspan>
      </text>
      <text
        xml:space="preserve"
        fill="#111824"
        font-size="11.71"
        font-weight="500"
        letter-spacing="0em"
        style="white-space: pre"
      >
        <tspan x="88.31" y="283.19">CPU</tspan>
      </text>
      <path
        fill="#f4f4f5"
        d="M161.49 275.23c0-1.2.98-2.2 2.2-2.2h419.8a2.2 2.2 0 0 1 0 4.4h-419.8a2.2 2.2 0 0 1-2.2-2.2"
      />
      <path
        fill="#18181b"
        d="M161.49 275.23c0-1.2.98-2.2 2.2-2.2h266.35a2.2 2.2 0 1 1 0 4.4H163.68a2.2 2.2 0 0 1-2.2-2.2"
      />
      <path
        fill="#fff"
        d="M431.5 270.11a5.12 5.12 0 1 1 0 10.25 5.12 5.12 0 0 1 0-10.25"
      />
      <path
        stroke="#18181b"
        stroke-width="1.46"
        d="M431.5 270.11a5.12 5.12 0 1 1 0 10.25 5.12 5.12 0 0 1 0-10.25Z"
      />
      <text
        xml:space="preserve"
        fill="#737373"
        font-size="10.24"
        letter-spacing="0em"
        style="white-space: pre"
      >
        <tspan x="161.49" y="297.16">1</tspan>
      </text>
      <text
        xml:space="preserve"
        fill="#737373"
        font-size="10.24"
        letter-spacing="0em"
        style="white-space: pre"
      >
        <tspan x="262.54" y="297.16">2</tspan>
      </text>
      <text
        xml:space="preserve"
        fill="#737373"
        font-size="10.24"
        letter-spacing="0em"
        style="white-space: pre"
      >
        <tspan x="366.58" y="297.16">4</tspan>
      </text>
      <text
        xml:space="preserve"
        fill="#737373"
        font-size="10.24"
        letter-spacing="0em"
        style="white-space: pre"
      >
        <tspan x="470.63" y="297.16">8</tspan>
      </text>
    </g>
  </g>
  <defs>
    <filter
      id="b"
      width="633.32"
      height="688.63"
      x="9.13"
      y="17.86"
      color-interpolation-filters="sRGB"
      filterUnits="userSpaceOnUse"
    >
      <feFlood flood-opacity="0" result="BackgroundImageFix" />
      <feColorMatrix
        in="SourceAlpha"
        result="hardAlpha"
        values="0 0 0 0 0 0 0 0 0 0 0 0 0 0 0 0 0 0 127 0"
      />
      <feMorphology
        in="SourceAlpha"
        radius="2.14"
        result="effect1_dropShadow_2831_4672"
      />
      <feOffset dy="4.29" />
      <feGaussianBlur stdDeviation="3.22" />
      <feComposite in2="hardAlpha" operator="out" />
      <feColorMatrix values="0 0 0 0 0 0 0 0 0 0 0 0 0 0 0 0 0 0 0.05 0" />
      <feBlend in2="BackgroundImageFix" result="effect1_dropShadow_2831_4672" />
      <feColorMatrix
        in="SourceAlpha"
        result="hardAlpha"
        values="0 0 0 0 0 0 0 0 0 0 0 0 0 0 0 0 0 0 127 0"
      />
      <feMorphology
        in="SourceAlpha"
        radius="3.22"
        result="effect2_dropShadow_2831_4672"
      />
      <feOffset dy="10.72" />
      <feGaussianBlur stdDeviation="8.04" />
      <feComposite in2="hardAlpha" operator="out" />
      <feColorMatrix values="0 0 0 0 0 0 0 0 0 0 0 0 0 0 0 0 0 0 0.1 0" />
      <feBlend
        in2="effect1_dropShadow_2831_4672"
        result="effect2_dropShadow_2831_4672"
      />
      <feBlend
        in="SourceGraphic"
        in2="effect2_dropShadow_2831_4672"
        result="shape"
      />
    </filter>
    <filter
      id="d"
      width="103.05"
      height="34.28"
      x="318.85"
      y="25.1"
      color-interpolation-filters="sRGB"
      filterUnits="userSpaceOnUse"
    >
      <feFlood flood-opacity="0" result="BackgroundImageFix" />
      <feColorMatrix
        in="SourceAlpha"
        result="hardAlpha"
        values="0 0 0 0 0 0 0 0 0 0 0 0 0 0 0 0 0 0 127 0"
      />
      <feOffset dy=".78" />
      <feGaussianBlur stdDeviation=".78" />
      <feComposite in2="hardAlpha" operator="out" />
      <feColorMatrix values="0 0 0 0 0 0 0 0 0 0 0 0 0 0 0 0 0 0 0.05 0" />
      <feBlend in2="BackgroundImageFix" result="effect1_dropShadow_2831_4672" />
      <feBlend
        in="SourceGraphic"
        in2="effect1_dropShadow_2831_4672"
        result="shape"
      />
    </filter>
    <clipPath id="a"><path fill="#fff" d="M0 0h524v295H0z" /></clipPath>
  </defs>
</svg>
