<svg xmlns="http://www.w3.org/2000/svg" fill="none" viewBox="0 0 454 331"><path fill="#F5F5F5" d="M0 0h454v331H0z"/><g clip-path="url(#a)" opacity=".8"><mask id="b" width="423" height="423" x="47" y="3" maskUnits="userSpaceOnUse" style="mask-type:luminance"><path fill="#fff" d="M469.381 425.058H47.521V3.40863h421.86V425.058Z"/></mask><g mask="url(#b)"><mask id="c" fill="#fff"><path d="m390.656 273.855-34.218 19.747v39.382c0 .107.087.191.191.191.104 0 .191-.087.191-.191v-39.16l33.836-19.525 33.836 19.525v39.16c0 .107.088.191.192.191.104 0 .191-.087.191-.191v-39.382l-34.219-19.747Z"/></mask><path stroke="#CCCACA" stroke-dasharray="0.94 0.94" stroke-width=".94278" d="m390.656 273.855-34.218 19.747v39.382c0 .107.087.191.191.191.104 0 .191-.087.191-.191v-39.16l33.836-19.525 33.836 19.525v39.16c0 .107.088.191.192.191.104 0 .191-.087.191-.191v-39.382l-34.219-19.747Z" mask="url(#c)"/><mask id="d" fill="#fff"><path d="m377.458 63.1145-34.123 19.691c-.093.0534-.124.1714-.07.2614.053.0928.171.1237.261.0703l33.932-19.5786 33.932 19.5786c.093.0534.208.0225.261-.0703.054-.0928.023-.208-.07-.2614l-34.123-19.691Z"/></mask><path stroke="#CCCACA" stroke-dasharray="0.94 0.94" stroke-width=".94278" d="m377.458 63.1145-34.123 19.691c-.093.0534-.124.1714-.07.2614.053.0928.171.1237.261.0703l33.932-19.5786 33.932 19.5786c.093.0534.208.0225.261-.0703.054-.0928.023-.208-.07-.2614l-34.123-19.691Z" mask="url(#d)"/><mask id="e" fill="#fff"><path d="m308.748 98.9601-34.123 19.6909c-.093.054-.123.172-.07.262.053.092.172.123.262.07l33.931-19.5787 33.932 19.5787c.093.053.208.022.261-.07.054-.093.023-.208-.07-.262l-34.123-19.6909Z"/></mask><path stroke="#CCCACA" stroke-dasharray="0.94 0.94" stroke-width=".94278" d="m308.748 98.9601-34.123 19.6909c-.093.054-.123.172-.07.262.053.092.172.123.262.07l33.931-19.5787 33.932 19.5787c.093.053.208.022.261-.07.054-.093.023-.208-.07-.262l-34.123-19.6909Z" mask="url(#e)"/><mask id="f" fill="#fff"><path d="M68.2823 92.5939 34.1594 112.285c-.0928.053-.1237.171-.0703.261.0535.093.1716.124.2616.071l33.9316-19.5789 33.9317 19.5789c.093.053.208.022.261-.071.054-.092.023-.208-.07-.261L68.2823 92.5939Z"/></mask><path stroke="#CCCACA" stroke-dasharray="0.94 0.94" stroke-width=".94278" d="M68.2823 92.5939 34.1594 112.285c-.0928.053-.1237.171-.0703.261.0535.093.1716.124.2616.071l33.9316-19.5789 33.9317 19.5789c.093.053.208.022.261-.071.054-.092.023-.208-.07-.261L68.2823 92.5939Z" mask="url(#f)"/><mask id="g" fill="#fff"><path d="m390.656 159.858-34.123 19.691c-.092.053-.123.171-.07.261.054.093.172.124.262.07l33.931-19.581 33.932 19.581c.093.054.208.023.262-.07.053-.093.022-.208-.071-.261l-34.123-19.691Z"/></mask><path stroke="#CCCACA" stroke-dasharray="0.94 0.94" stroke-width=".94278" d="m390.656 159.858-34.123 19.691c-.092.053-.123.171-.07.261.054.093.172.124.262.07l33.931-19.581 33.932 19.581c.093.054.208.023.262-.07.053-.093.022-.208-.071-.261l-34.123-19.691Z" mask="url(#g)"/><mask id="h" fill="#fff"><path d="M339.178 268.514c-.107 0-.191.087-.191.191v39.16l-33.932 19.581c-.092.054-.123.172-.07.262.054.092.172.123.262.07l34.123-19.691v-39.382c0-.107-.088-.191-.192-.191Z"/></mask><path stroke="#CCCACA" stroke-dasharray="0.94 0.94" stroke-width=".94278" d="M339.178 268.514c-.107 0-.191.087-.191.191v39.16l-33.932 19.581c-.092.054-.123.172-.07.262.054.092.172.123.262.07l34.123-19.691v-39.382c0-.107-.088-.191-.192-.191Z" mask="url(#h)"/><mask id="i" fill="#fff"><path d="M339.179 209.606c-.107 0-.192.087-.192.191v39.383l34.123 19.691c.093.053.208.022.262-.071.053-.092.022-.208-.071-.261l-33.931-19.582v-39.16c0-.106-.087-.191-.191-.191Z"/></mask><path stroke="#CCCACA" stroke-dasharray="0.94 0.94" stroke-width=".94278" d="M339.179 209.606c-.107 0-.192.087-.192.191v39.383l34.123 19.691c.093.053.208.022.262-.071.053-.092.022-.208-.071-.261l-33.931-19.582v-39.16c0-.106-.087-.191-.191-.191Z" mask="url(#i)"/><mask id="j" fill="#fff"><path d="M442.132 209.606c-.107 0-.191.087-.191.191v39.16l-33.932 19.582c-.093.053-.124.171-.07.261.053.093.171.124.261.071l34.123-19.691v-39.383c0-.106-.087-.191-.191-.191Z"/></mask><path stroke="#CCCACA" stroke-dasharray="0.94 0.94" stroke-width=".94278" d="M442.132 209.606c-.107 0-.191.087-.191.191v39.16l-33.932 19.582c-.093.053-.124.171-.07.261.053.093.171.124.261.071l34.123-19.691v-39.383c0-.106-.087-.191-.191-.191Z" mask="url(#j)"/><mask id="k" fill="#fff"><path d="M289.469 24.0927c-.107 0-.191.0872-.191.1912v39.16l-33.836 19.5252-33.932-19.5814c-.092-.0535-.208-.0225-.261.0702-.054.0928-.023.208.07.2614l34.123 19.6911 34.218-19.7473v-39.382c0-.1068-.087-.1912-.191-.1912v.0028Z"/></mask><path stroke="#CCCACA" stroke-dasharray="0.94 0.94" stroke-width=".94278" d="M289.469 24.0927c-.107 0-.191.0872-.191.1912v39.16l-33.836 19.5252-33.932-19.5814c-.092-.0535-.208-.0225-.261.0702-.054.0928-.023.208.07.2614l34.123 19.6911 34.218-19.7473v-39.382c0-.1068-.087-.1912-.191-.1912v.0028Z" mask="url(#k)"/><mask id="l" fill="#fff"><path d="M221.442 84.7763 187.32 104.467c-.093.054-.124.172-.071.262.054.093.172.123.262.07l33.931-19.5813 33.836 19.5253v39.16c0 .107.088.191.192.191.104 0 .191-.087.191-.191v-39.382l-34.219-19.7475v.0028Z"/></mask><path stroke="#CCCACA" stroke-dasharray="0.94 0.94" stroke-width=".94278" d="M221.442 84.7763 187.32 104.467c-.093.054-.124.172-.071.262.054.093.172.123.262.07l33.931-19.5813 33.836 19.5253v39.16c0 .107.088.191.192.191.104 0 .191-.087.191-.191v-39.382l-34.219-19.7475v.0028Z" mask="url(#l)"/><mask id="m" fill="#fff"><path d="M34.2579 16.8175.13503 36.5085c-.0928091.0534-.1237455.1715-.0703099.2614.0534359.0928.1715569.1237.2615529.0703L34.2579 17.2616l33.836 19.5252v39.1599c0 .1069.0872.1912.1912.1912.1041 0 .1913-.0871.1913-.1912v-39.382L34.2579 16.8175Z"/></mask><path stroke="#CCCACA" stroke-dasharray="0.94 0.94" stroke-width=".94278" d="M34.2579 16.8175.13503 36.5085c-.0928091.0534-.1237455.1715-.0703099.2614.0534359.0928.1715569.1237.2615529.0703L34.2579 17.2616l33.836 19.5252v39.1599c0 .1069.0872.1912.1912.1912.1041 0 .1913-.0871.1913-.1912v-39.382L34.2579 16.8175Z" mask="url(#m)"/><mask id="n" fill="#fff"><path d="M376.645 308.554c-.107 0-.191.087-.191.191v39.16l-33.836 19.525-33.932-19.581c-.093-.054-.208-.023-.261.07-.054.093-.023.208.07.261l34.123 19.691 34.218-19.747v-39.382c0-.107-.087-.191-.191-.191v.003Z"/></mask><path stroke="#CCCACA" stroke-dasharray="0.94 0.94" stroke-width=".94278" d="M376.645 308.554c-.107 0-.191.087-.191.191v39.16l-33.836 19.525-33.932-19.581c-.093-.054-.208-.023-.261.07-.054.093-.023.208.07.261l34.123 19.691 34.218-19.747v-39.382c0-.107-.087-.191-.191-.191v.003Z" mask="url(#n)"/><mask id="o" fill="#fff"><path d="m286.088 208.94-34.122 19.691c-.093.054-.124.172-.071.262.054.093.169.124.262.07l33.931-19.581 33.834 19.525v39.16c0 .107.087.191.191.191.104 0 .191-.087.191-.191v-39.382l-34.218-19.747.002.002Z"/></mask><path stroke="#CCCACA" stroke-dasharray="0.94 0.94" stroke-width=".94278" d="m286.088 208.94-34.122 19.691c-.093.054-.124.172-.071.262.054.093.169.124.262.07l33.931-19.581 33.834 19.525v39.16c0 .107.087.191.191.191.104 0 .191-.087.191-.191v-39.382l-34.218-19.747.002.002Z" mask="url(#o)"/><mask id="p" fill="#fff"><path d="m476.598 160.212-34.123 19.691c-.093.053-.124.171-.07.261.053.093.171.124.261.071l33.932-19.579 33.836 19.525v39.16c0 .107.087.191.191.191.104 0 .191-.087.191-.191v-39.382l-34.218-19.747Z"/></mask><path stroke="#CCCACA" stroke-dasharray="0.94 0.94" stroke-width=".94278" d="m476.598 160.212-34.123 19.691c-.093.053-.124.171-.07.261.053.093.171.124.261.071l33.932-19.579 33.836 19.525v39.16c0 .107.087.191.191.191.104 0 .191-.087.191-.191v-39.382l-34.218-19.747Z" mask="url(#p)"/><mask id="q" fill="#fff"><path d="M102.802-5.36124c-.107 0-.192.08716-.192.19117V34.212l34.219 19.7472 34.123-19.691c.093-.0534.123-.1715.07-.2614-.053-.0928-.172-.1237-.262-.0703l-33.931 19.5786-33.836-19.5252V-5.17007c0-.10682-.087-.19117-.191-.19117Z"/></mask><path stroke="#CCCACA" stroke-dasharray="0.94 0.94" stroke-width=".94278" d="M102.802-5.36124c-.107 0-.192.08716-.192.19117V34.212l34.219 19.7472 34.123-19.691c.093-.0534.123-.1715.07-.2614-.053-.0928-.172-.1237-.262-.0703l-33.931 19.5786-33.836-19.5252V-5.17007c0-.10682-.087-.19117-.191-.19117Z" mask="url(#q)"/><mask id="r" fill="#fff"><path d="m390.656 179.344-34.657 19.997v39.998l34.657 19.997 34.657-19.997v-39.998l-34.657-19.997Zm-34.274 20.219 34.271-19.778 34.272 19.778v39.554l-34.272 19.778-34.271-19.778v-39.554Z"/></mask><path stroke="#CCCACA" stroke-dasharray="0.94 0.94" stroke-width=".94278" d="m390.656 179.344-34.657 19.997v39.998l34.657 19.997 34.657-19.997v-39.998l-34.657-19.997Zm-34.274 20.219 34.271-19.778 34.272 19.778v39.554l-34.272 19.778-34.271-19.778v-39.554Z" mask="url(#r)"/><mask id="s" fill="#fff"><path d="M429.434-26.4971 394.777-6.49972V33.4979l34.657 19.9974 34.657-19.9974V-6.49972L429.434-26.4971ZM395.162-6.27767l34.272-19.77813 34.272 19.77813V33.2759L429.434 53.054l-34.272-19.7781V-6.27767Z"/></mask><path stroke="#CCCACA" stroke-dasharray="0.94 0.94" stroke-width=".94278" d="M429.434-26.4971 394.777-6.49972V33.4979l34.657 19.9974 34.657-19.9974V-6.49972L429.434-26.4971ZM395.162-6.27767l34.272-19.77813 34.272 19.77813V33.2759L429.434 53.054l-34.272-19.7781V-6.27767Z" mask="url(#s)"/><mask id="t" fill="#fff"><path d="M343.211 21.3484c-.034 0-.065.0084-.096.0253l-34.558 19.944v39.9976l34.657 19.9977 34.559-19.9443c.092-.0534.123-.1715.07-.2614-.053-.0928-.172-.1237-.262-.0703l-34.367 19.832-34.272-19.7786V41.5369l34.367-19.8315c.093-.0534.124-.1715.071-.2615-.037-.0618-.101-.0955-.166-.0955h-.003Z"/></mask><path stroke="#CCCACA" stroke-dasharray="0.94 0.94" stroke-width=".94278" d="M343.211 21.3484c-.034 0-.065.0084-.096.0253l-34.558 19.944v39.9976l34.657 19.9977 34.559-19.9443c.092-.0534.123-.1715.07-.2614-.053-.0928-.172-.1237-.262-.0703l-34.367 19.832-34.272-19.7786V41.5369l34.367-19.8315c.093-.0534.124-.1715.071-.2615-.037-.0618-.101-.0955-.166-.0955h-.003Z" mask="url(#t)"/><mask id="u" fill="#fff"><path d="m171.292 10.2508-34.559 19.944c-.093.0534-.124.1715-.07.2615.053.0927.169.1236.261.0702l34.368-19.8315 34.272 19.7781v39.5535l-34.368 19.8316c-.092.0534-.123.1715-.07.2614.053.0928.172.1237.262.0703l34.558-19.944V30.2483l-34.657-19.9975h.003Z"/></mask><path stroke="#CCCACA" stroke-dasharray="0.94 0.94" stroke-width=".94278" d="m171.292 10.2508-34.559 19.944c-.093.0534-.124.1715-.07.2615.053.0927.169.1236.261.0702l34.368-19.8315 34.272 19.7781v39.5535l-34.368 19.8316c-.092.0534-.123.1715-.07.2614.053.0928.172.1237.262.0703l34.558-19.944V30.2483l-34.657-19.9975h.003Z" mask="url(#u)"/><mask id="v" fill="#fff"><path d="M412.202-15.683c-.033 0-.064.0084-.095.0253L377.548 4.28634V44.284l34.559 19.944c.092.0534.208.0225.261-.0703.054-.0928.023-.208-.07-.2614L377.93 44.0647V4.5112l34.368-19.8315c.093-.0535.124-.1715.07-.2615-.036-.0618-.101-.0955-.166-.0955v-.0057Z"/></mask><path stroke="#CCCACA" stroke-dasharray="0.94 0.94" stroke-width=".94278" d="M412.202-15.683c-.033 0-.064.0084-.095.0253L377.548 4.28634V44.284l34.559 19.944c.092.0534.208.0225.261-.0703.054-.0928.023-.208-.07-.2614L377.93 44.0647V4.5112l34.368-19.8315c.093-.0535.124-.1715.07-.2615-.036-.0618-.101-.0955-.166-.0955v-.0057Z" mask="url(#v)"/><mask id="w" fill="#fff"><path d="M255.88-18.4271c-.033 0-.064.0084-.095.0253l-34.559 19.944v39.9977l34.559 19.9439c.093.0535.208.0225.261-.0702.054-.0928.023-.2081-.07-.2615l-34.367-19.8315V1.76706l34.367-19.83156c.093-.0534.124-.1715.07-.2614-.036-.0619-.101-.0956-.166-.0956v-.0056Z"/></mask><path stroke="#CCCACA" stroke-dasharray="0.94 0.94" stroke-width=".94278" d="M255.88-18.4271c-.033 0-.064.0084-.095.0253l-34.559 19.944v39.9977l34.559 19.9439c.093.0535.208.0225.261-.0702.054-.0928.023-.2081-.07-.2615l-34.367-19.8315V1.76706l34.367-19.83156c.093-.0534.124-.1715.07-.2614-.036-.0619-.101-.0956-.166-.0956v-.0056Z" mask="url(#w)"/><mask id="x" fill="#fff"><path d="M308.748 118.623c-.067 0-.129.034-.166.096-.053.093-.022.208.071.261l34.367 19.832v39.554l-34.367 19.831c-.093.053-.124.172-.071.261.054.093.172.124.262.071l34.559-19.944v-39.998l-34.559-19.944c-.031-.017-.062-.025-.096-.025v.005Z"/></mask><path stroke="#CCCACA" stroke-dasharray="0.94 0.94" stroke-width=".94278" d="M308.748 118.623c-.067 0-.129.034-.166.096-.053.093-.022.208.071.261l34.367 19.832v39.554l-34.367 19.831c-.093.053-.124.172-.071.261.054.093.172.124.262.071l34.559-19.944v-39.998l-34.559-19.944c-.031-.017-.062-.025-.096-.025v.005Z" mask="url(#x)"/><mask id="y" fill="#fff"><path d="M476.598 273.882c-.034 0-.065.009-.096.026l-34.559 19.944v39.997l34.559 19.944c.093.054.208.023.262-.07.053-.093.022-.208-.071-.261l-34.367-19.832v-39.553l34.367-19.832c.093-.053.124-.171.071-.261-.037-.062-.102-.096-.166-.096v-.006Z"/></mask><path stroke="#CCCACA" stroke-dasharray="0.94 0.94" stroke-width=".94278" d="M476.598 273.882c-.034 0-.065.009-.096.026l-34.559 19.944v39.997l34.559 19.944c.093.054.208.023.262-.07.053-.093.022-.208-.071-.261l-34.367-19.832v-39.553l34.367-19.832c.093-.053.124-.171.071-.261-.037-.062-.102-.096-.166-.096v-.006Z" mask="url(#y)"/><mask id="z" fill="#fff"><path d="M425.12 78.8474c-.068 0-.13.0337-.166.0956-.054.0927-.023.208.07.2614l34.368 19.8315v39.5531l-34.272 19.779-34.368-19.832c-.093-.053-.208-.022-.261.07-.054.093-.023.208.07.262l34.559 19.944 34.657-19.998V98.8167l-34.559-19.944c-.031-.0169-.062-.0253-.096-.0253h-.002Z"/></mask><path stroke="#CCCACA" stroke-dasharray="0.94 0.94" stroke-width=".94278" d="M425.12 78.8474c-.068 0-.13.0337-.166.0956-.054.0927-.023.208.07.2614l34.368 19.8315v39.5531l-34.272 19.779-34.368-19.832c-.093-.053-.208-.022-.261.07-.054.093-.023.208.07.262l34.559 19.944 34.657-19.998V98.8167l-34.559-19.944c-.031-.0169-.062-.0253-.096-.0253h-.002Z" mask="url(#z)"/><mask id="A" fill="#fff"><path d="M102.748 53.4899c-.067 0-.129.0338-.166.0956-.053.0928-.022.208.07.2614l34.368 19.8316v39.5535l-34.272 19.778-34.3675-19.831c-.0928-.054-.2081-.023-.2616.07-.0534.093-.0225.208.0703.261l34.5588 19.944 34.657-19.997V73.4592l-34.559-19.9439c-.03-.0169-.061-.0254-.095-.0254h-.003Z"/></mask><path stroke="#CCCACA" stroke-dasharray="0.94 0.94" stroke-width=".94278" d="M102.748 53.4899c-.067 0-.129.0338-.166.0956-.053.0928-.022.208.07.2614l34.368 19.8316v39.5535l-34.272 19.778-34.3675-19.831c-.0928-.054-.2081-.023-.2616.07-.0534.093-.0225.208.0703.261l34.5588 19.944 34.657-19.997V73.4592l-34.559-19.9439c-.03-.0169-.061-.0254-.095-.0254h-.003Z" mask="url(#A)"/></g><path fill="#CCCACA" d="M255.787 227.882c.486 2.061-.791 4.126-2.853 4.613-2.062.486-4.128-.79-4.614-2.851-.487-2.061.79-4.126 2.852-4.612 2.062-.487 4.128.79 4.615 2.85ZM342.899 307.875c.486 2.061-.791 4.126-2.853 4.612-2.062.487-4.128-.79-4.615-2.851-.486-2.061.791-4.126 2.853-4.612 2.062-.487 4.128.79 4.615 2.851ZM444.843 177.085c1.498 1.497 1.498 3.925 0 5.422-1.498 1.498-3.927 1.498-5.425 0-1.498-1.497-1.498-3.925 0-5.422 1.498-1.497 3.927-1.497 5.425 0ZM346.341 117.951c.487 2.061-.79 4.126-2.852 4.612-2.062.487-4.128-.79-4.615-2.851-.486-2.061.791-4.126 2.853-4.612 2.062-.486 4.128.79 4.614 2.851ZM381.459 63.1999c.487 2.0609-.79 4.126-2.852 4.6124-2.062.4864-4.128-.79-4.615-2.8509-.487-2.061.79-4.126 2.852-4.6124 2.062-.4865 4.128.7899 4.615 2.8509ZM344.678 17.9766c1.957.8103 2.887 3.0532 2.076 5.0096-.811 1.9564-3.055 2.8854-5.012 2.075-1.957-.8103-2.887-3.0532-2.076-5.0096.811-1.9564 3.055-2.8854 5.012-2.075ZM444.846 236.31c1.498 1.497 1.498 3.925 0 5.422-1.498 1.497-3.927 1.497-5.425 0-1.498-1.497-1.498-3.925 0-5.422 1.498-1.498 3.927-1.498 5.425 0ZM310.517 81.1745c0-.9754-.793-1.7681-1.769-1.7681-.976 0-1.769.7927-1.769 1.7681s.793 1.7681 1.769 1.7681c.976 0 1.769-.7927 1.769-1.7681ZM345.2 82.9713c0-.9754-.793-1.768-1.769-1.768-.976 0-1.769.7926-1.769 1.768 0 .9755.793 1.7682 1.769 1.7682.976 0 1.769-.7927 1.769-1.7682ZM223.186 84.9977c0-.9754-.793-1.7681-1.769-1.7681-.975 0-1.769.7927-1.769 1.7681 0 .9755.794 1.7681 1.769 1.7681.976 0 1.769-.7926 1.769-1.7681ZM257.649 61.3151c0-.9754-.793-1.7681-1.769-1.7681-.976 0-1.769.7927-1.769 1.7681s.793 1.7681 1.769 1.7681c.976 0 1.769-.7927 1.769-1.7681ZM392.426 274.077c0-.976-.793-1.768-1.769-1.768-.976 0-1.769.792-1.769 1.768 0 .975.793 1.768 1.769 1.768.976 0 1.769-.793 1.769-1.768ZM392.426 160.433c0-.975-.793-1.768-1.769-1.768-.976 0-1.769.793-1.769 1.768 0 .976.793 1.768 1.769 1.768.976 0 1.769-.792 1.769-1.768ZM310.517 198.368c0-.976-.793-1.768-1.769-1.768-.976 0-1.769.792-1.769 1.768 0 .975.793 1.768 1.769 1.768.976 0 1.769-.793 1.769-1.768ZM426.889 158.461c0-.976-.794-1.769-1.769-1.769-.976 0-1.769.793-1.769 1.769 0 .975.793 1.768 1.769 1.768.975 0 1.769-.793 1.769-1.768ZM276.49 118.814c0-.975-.793-1.768-1.769-1.768-.976 0-1.769.793-1.769 1.768 0 .976.793 1.768 1.769 1.768.976 0 1.769-.792 1.769-1.768ZM173.061 10.4724c0-.97546-.793-1.76817-1.769-1.76817-.976 0-1.769.79271-1.769 1.76817 0 .9754.793 1.768 1.769 1.768.976 0 1.769-.7926 1.769-1.768ZM104.571 53.6803c0-.9754-.793-1.7681-1.769-1.7681-.976 0-1.769.7927-1.769 1.7681s.793 1.7682 1.769 1.7682c.976 0 1.769-.7928 1.769-1.7682Z"/><mask id="B" fill="#fff"><path d="m390.657 263.718-34.258 19.767v39.405c0 .126.104.23.231.23.126 0 .23-.104.23-.23v-39.138l33.797-19.502 33.796 19.502v39.138c0 .126.104.23.231.23s.231-.104.231-.23v-39.405l-34.258-19.767Z"/></mask><path stroke="#005BFF" stroke-dasharray="0.94 0.94" stroke-width=".94278" d="m390.657 263.718-34.258 19.767v39.405c0 .126.104.23.231.23.126 0 .23-.104.23-.23v-39.138l33.797-19.502 33.796 19.502v39.138c0 .126.104.23.231.23s.231-.104.231-.23v-39.405l-34.258-19.767Z" mask="url(#B)"/><mask id="C" fill="#fff"><path d="m377.458 52.9779-34.143 19.7023c-.109.0646-.149.2052-.084.3148.065.1096.205.149.315.0843l33.912-19.5701 33.912 19.5701c.109.0647.25.0253.315-.0843.064-.1096.025-.2502-.085-.3148l-34.142-19.7023Z"/></mask><path stroke="#005BFF" stroke-dasharray="0.94 0.94" stroke-width=".94278" d="m377.458 52.9779-34.143 19.7023c-.109.0646-.149.2052-.084.3148.065.1096.205.149.315.0843l33.912-19.5701 33.912 19.5701c.109.0647.25.0253.315-.0843.064-.1096.025-.2502-.085-.3148l-34.142-19.7023Z" mask="url(#C)"/><mask id="D" fill="#fff"><path d="m308.748 88.8246-34.143 19.7024c-.109.064-.149.205-.084.315.065.109.205.149.315.084l33.912-19.5701 33.912 19.5701c.11.065.25.025.315-.084.065-.11.025-.251-.085-.315l-34.142-19.7024Z"/></mask><path stroke="#005BFF" stroke-dasharray="0.94 0.94" stroke-width=".94278" d="m308.748 88.8246-34.143 19.7024c-.109.064-.149.205-.084.315.065.109.205.149.315.084l33.912-19.5701 33.912 19.5701c.11.065.25.025.315-.084.065-.11.025-.251-.085-.315l-34.142-19.7024Z" mask="url(#D)"/><mask id="E" fill="#fff"><path d="M68.2821 82.4603 34.1396 102.163c-.1097.064-.1491.205-.0844.314.0647.11.2053.149.315.085l33.9119-19.5704 33.9119 19.5704c.11.064.25.025.315-.085.065-.109.025-.25-.084-.314L68.2821 82.4603Z"/></mask><path stroke="#005BFF" stroke-dasharray="0.94 0.94" stroke-width=".94278" d="M68.2821 82.4603 34.1396 102.163c-.1097.064-.1491.205-.0844.314.0647.11.2053.149.315.085l33.9119-19.5704 33.9119 19.5704c.11.064.25.025.315-.085.065-.109.025-.25-.084-.314L68.2821 82.4603Z" mask="url(#E)"/><mask id="F" fill="#fff"><path d="m390.656 149.722-34.142 19.702c-.11.065-.149.205-.085.315.065.11.206.149.315.084l33.912-19.57 33.912 19.57c.11.065.25.026.315-.084s.025-.25-.084-.315l-34.143-19.702Z"/></mask><path stroke="#005BFF" stroke-dasharray="0.94 0.94" stroke-width=".94278" d="m390.656 149.722-34.142 19.702c-.11.065-.149.205-.085.315.065.11.206.149.315.084l33.912-19.57 33.912 19.57c.11.065.25.026.315-.084s.025-.25-.084-.315l-34.143-19.702Z" mask="url(#F)"/><mask id="G" fill="#fff"><path d="M339.178 258.384c-.126 0-.231.104-.231.23v39.138l-33.911 19.57c-.11.064-.15.205-.085.315.065.109.205.149.315.084l34.143-19.702v-39.405c0-.126-.104-.23-.231-.23Z"/></mask><path stroke="#005BFF" stroke-dasharray="0.94 0.94" stroke-width=".94278" d="M339.178 258.384c-.126 0-.231.104-.231.23v39.138l-33.911 19.57c-.11.064-.15.205-.085.315.065.109.205.149.315.084l34.143-19.702v-39.405c0-.126-.104-.23-.231-.23Z" mask="url(#G)"/><mask id="H" fill="#fff"><path d="M339.178 199.476c-.126 0-.23.104-.23.231v39.404l34.142 19.703c.11.064.251.025.315-.085.065-.109.026-.25-.084-.314l-33.912-19.571v-39.137c0-.127-.104-.231-.231-.231Z"/></mask><path stroke="#005BFF" stroke-dasharray="0.94 0.94" stroke-width=".94278" d="M339.178 199.476c-.126 0-.23.104-.23.231v39.404l34.142 19.703c.11.064.251.025.315-.085.065-.109.026-.25-.084-.314l-33.912-19.571v-39.137c0-.127-.104-.231-.231-.231Z" mask="url(#H)"/><mask id="I" fill="#fff"><path d="M442.132 199.476c-.127 0-.231.104-.231.231v39.137l-33.912 19.571c-.11.064-.149.205-.084.314.064.11.205.149.315.085l34.142-19.703v-39.404c0-.127-.104-.231-.23-.231Z"/></mask><path stroke="#005BFF" stroke-dasharray="0.94 0.94" stroke-width=".94278" d="M442.132 199.476c-.127 0-.231.104-.231.231v39.137l-33.912 19.571c-.11.064-.149.205-.084.314.064.11.205.149.315.085l34.142-19.703v-39.404c0-.127-.104-.231-.23-.231Z" mask="url(#I)"/><mask id="J" fill="#fff"><path d="M289.469 13.9615c-.127 0-.231.1041-.231.2306v39.1374l-33.796 19.5027-33.912-19.5701c-.11-.0647-.25-.0253-.315.0843s-.025.2502.084.3148l34.143 19.7023L289.7 53.5966V14.1921c0-.1265-.104-.2306-.231-.2306Z"/></mask><path stroke="#005BFF" stroke-dasharray="0.94 0.94" stroke-width=".94278" d="M289.469 13.9615c-.127 0-.231.1041-.231.2306v39.1374l-33.796 19.5027-33.912-19.5701c-.11-.0647-.25-.0253-.315.0843s-.025.2502.084.3148l34.143 19.7023L289.7 53.5966V14.1921c0-.1265-.104-.2306-.231-.2306Z" mask="url(#J)"/><mask id="K" fill="#fff"><path d="M221.443 74.6432 187.3 94.3455c-.109.0646-.149.2052-.084.3148.065.1096.205.149.315.0843l33.912-19.5701 33.796 19.5026v39.1379c0 .126.104.23.231.23s.231-.104.231-.23V94.4101l-.116-.0675-34.142-19.7022v.0028Z"/></mask><path stroke="#005BFF" stroke-dasharray="0.94 0.94" stroke-width=".94278" d="M221.443 74.6432 187.3 94.3455c-.109.0646-.149.2052-.084.3148.065.1096.205.149.315.0843l33.912-19.5701 33.796 19.5026v39.1379c0 .126.104.23.231.23s.231-.104.231-.23V94.4101l-.116-.0675-34.142-19.7022v.0028Z" mask="url(#K)"/><mask id="L" fill="#fff"><path d="M34.2577 6.6813.11514 26.3835c-.10968388.0647-.1490575.2053-.0843723.3149.0646853.1096.2053053.149.3149893.0843L34.2577 7.21258 68.0543 26.7152v39.1375c0 .1265.1041.2305.2306.2305.1266 0 .2307-.104.2307-.2305V26.4482l-.1153-.0675L34.2577 6.67848v.00282Z"/></mask><path stroke="#005BFF" stroke-dasharray="0.94 0.94" stroke-width=".94278" d="M34.2577 6.6813.11514 26.3835c-.10968388.0647-.1490575.2053-.0843723.3149.0646853.1096.2053053.149.3149893.0843L34.2577 7.21258 68.0543 26.7152v39.1375c0 .1265.1041.2305.2306.2305.1266 0 .2307-.104.2307-.2305V26.4482l-.1153-.0675L34.2577 6.67848v.00282Z" mask="url(#L)"/><mask id="M" fill="#fff"><path d="M376.645 298.423c-.127 0-.231.104-.231.231v39.137l-33.796 19.503-33.912-19.57c-.11-.065-.251-.025-.315.084-.065.11-.026.25.084.315l34.143 19.702 34.257-19.767v-39.404c0-.127-.104-.231-.23-.231Z"/></mask><path stroke="#005BFF" stroke-dasharray="0.94 0.94" stroke-width=".94278" d="M376.645 298.423c-.127 0-.231.104-.231.231v39.137l-33.796 19.503-33.912-19.57c-.11-.065-.251-.025-.315.084-.065.11-.026.25.084.315l34.143 19.702 34.257-19.767v-39.404c0-.127-.104-.231-.23-.231Z" mask="url(#M)"/><mask id="N" fill="#fff"><path d="m286.088 198.807-34.142 19.703c-.11.064-.149.205-.085.314.065.11.206.149.315.085l33.912-19.57 33.797 19.502v39.138c0 .126.104.23.231.23.126 0 .23-.104.23-.23v-39.405l-34.255-19.767h-.003Z"/></mask><path stroke="#005BFF" stroke-dasharray="0.94 0.94" stroke-width=".94278" d="m286.088 198.807-34.142 19.703c-.11.064-.149.205-.085.314.065.11.206.149.315.085l33.912-19.57 33.797 19.502v39.138c0 .126.104.23.231.23.126 0 .23-.104.23-.23v-39.405l-34.255-19.767h-.003Z" mask="url(#N)"/><mask id="O" fill="#fff"><path d="m476.598 150.079-34.143 19.702c-.11.065-.149.205-.084.315.064.109.205.149.315.084l33.912-19.57 33.796 19.503v39.137c0 .127.104.231.231.231.126 0 .23-.104.23-.231v-39.404l-.115-.068-34.142-19.702v.003Z"/></mask><path stroke="#005BFF" stroke-dasharray="0.94 0.94" stroke-width=".94278" d="m476.598 150.079-34.143 19.702c-.11.065-.149.205-.084.315.064.109.205.149.315.084l33.912-19.57 33.796 19.503v39.137c0 .127.104.231.231.231.126 0 .23-.104.23-.231v-39.404l-.115-.068-34.142-19.702v.003Z" mask="url(#O)"/><mask id="P" fill="#fff"><path d="M102.801-15.4895c-.126 0-.23.104-.23.2305v39.4045l.115.0675 34.143 19.7023 34.142-19.7023c.11-.0647.149-.2052.085-.3148-.065-.1097-.206-.149-.315-.0844L136.829 43.384l-33.797-19.5027v-39.1375c0-.1265-.104-.2305-.231-.2305v-.0028Z"/></mask><path stroke="#005BFF" stroke-dasharray="0.94 0.94" stroke-width=".94278" d="M102.801-15.4895c-.126 0-.23.104-.23.2305v39.4045l.115.0675 34.143 19.7023 34.142-19.7023c.11-.0647.149-.2052.085-.3148-.065-.1097-.206-.149-.315-.0844L136.829 43.384l-33.797-19.5027v-39.1375c0-.1265-.104-.2305-.231-.2305v-.0028Z" mask="url(#P)"/><mask id="Q" fill="#fff"><path d="m390.657 169.208-34.694 20.02v40.042l34.694 20.02.115-.067 34.578-19.955v-40.043l-.115-.068-34.578-19.955v.006Zm-34.236 20.287 34.236-19.756 34.235 19.756v39.511l-34.235 19.756-34.236-19.756v-39.511Z"/></mask><path stroke="#005BFF" stroke-dasharray="0.94 0.94" stroke-width=".94278" d="m390.657 169.208-34.694 20.02v40.042l34.694 20.02.115-.067 34.578-19.955v-40.043l-.115-.068-34.578-19.955v.006Zm-34.236 20.287 34.236-19.756 34.235 19.756v39.511l-34.235 19.756-34.236-19.756v-39.511Z" mask="url(#Q)"/><mask id="R" fill="#fff"><path d="M429.434-36.6309 394.74-16.611v40.0426l.116.0675 34.578 19.9552 34.694-20.0199v-40.0426l-.115-.0675-34.579-19.9552Zm-34.233 20.2841 34.236-19.7557 34.235 19.7557v39.5114l-34.235 19.7556-34.236-19.7556v-39.5114Z"/></mask><path stroke="#005BFF" stroke-dasharray="0.94 0.94" stroke-width=".94278" d="M429.434-36.6309 394.74-16.611v40.0426l.116.0675 34.578 19.9552 34.694-20.0199v-40.0426l-.115-.0675-34.579-19.9552Zm-34.233 20.2841 34.236-19.7557 34.235 19.7557v39.5114l-34.235 19.7556-34.236-19.7556v-39.5114Z" mask="url(#R)"/><mask id="S" fill="#fff"><path d="M343.211 11.2183c-.04 0-.079.0112-.115.0309l-34.579 19.9552V71.247l.115.0675 34.579 19.9552 34.578-19.9552c.11-.0647.149-.2052.085-.3148-.065-.1097-.206-.149-.315-.0843l-34.348 19.8202L308.976 70.98V31.4686l34.347-19.8203c.11-.0646.149-.2052.085-.3148-.042-.0731-.121-.1152-.2-.1152h.003Z"/></mask><path stroke="#005BFF" stroke-dasharray="0.94 0.94" stroke-width=".94278" d="M343.211 11.2183c-.04 0-.079.0112-.115.0309l-34.579 19.9552V71.247l.115.0675 34.579 19.9552 34.578-19.9552c.11-.0647.149-.2052.085-.3148-.065-.1097-.206-.149-.315-.0843l-34.348 19.8202L308.976 70.98V31.4686l34.347-19.8203c.11-.0646.149-.2052.085-.3148-.042-.0731-.121-.1152-.2-.1152h.003Z" mask="url(#S)"/><mask id="T" fill="#fff"><path d="M171.292.114414 136.714 20.0697c-.11.0646-.149.2052-.085.3148.065.1096.206.149.315.0843L171.292.648476 205.528 20.4042v39.5113L171.18 79.7358c-.11.0647-.149.2052-.085.3149.065.1096.206.1489.315.0843l34.579-19.9553V20.1371l-.115-.0674L171.295.114414h-.003Z"/></mask><path stroke="#005BFF" stroke-dasharray="0.94 0.94" stroke-width=".94278" d="M171.292.114414 136.714 20.0697c-.11.0646-.149.2052-.085.3148.065.1096.206.149.315.0843L171.292.648476 205.528 20.4042v39.5113L171.18 79.7358c-.11.0647-.149.2052-.085.3149.065.1096.206.1489.315.0843l34.579-19.9553V20.1371l-.115-.0674L171.295.114414h-.003Z" mask="url(#T)"/><mask id="U" fill="#fff"><path d="M412.203-25.8139c-.04 0-.079.0113-.116.0309L377.509-5.82772V34.2149l.115.0675 34.463 19.8877c.11.0647.251.0254.315-.0843.065-.1096.026-.2502-.084-.3148L377.97 33.9507V-5.56069L412.318-25.381c.11-.0647.149-.2052.084-.3148-.042-.0731-.121-.1153-.199-.1153v-.0028Z"/></mask><path stroke="#005BFF" stroke-dasharray="0.94 0.94" stroke-width=".94278" d="M412.203-25.8139c-.04 0-.079.0113-.116.0309L377.509-5.82772V34.2149l.115.0675 34.463 19.8877c.11.0647.251.0254.315-.0843.065-.1096.026-.2502-.084-.3148L377.97 33.9507V-5.56069L412.318-25.381c.11-.0647.149-.2052.084-.3148-.042-.0731-.121-.1153-.199-.1153v-.0028Z" mask="url(#U)"/><mask id="V" fill="#fff"><path d="M255.88-28.557c-.039 0-.078.0112-.115.0309L221.187-8.57088V31.4717l.115.0675 34.463 19.8878c.11.0646.25.0253.315-.0843.065-.1097.025-.2502-.084-.3149l-34.348-19.8203V-8.30385l34.348-19.82035c.109-.0646.149-.2052.084-.3148-.042-.0731-.121-.1153-.2-.1153v-.0027Z"/></mask><path stroke="#005BFF" stroke-dasharray="0.94 0.94" stroke-width=".94278" d="M255.88-28.557c-.039 0-.078.0112-.115.0309L221.187-8.57088V31.4717l.115.0675 34.463 19.8878c.11.0646.25.0253.315-.0843.065-.1097.025-.2502-.084-.3149l-34.348-19.8203V-8.30385l34.348-19.82035c.109-.0646.149-.2052.084-.3148-.042-.0731-.121-.1153-.2-.1153v-.0027Z" mask="url(#V)"/><mask id="W" fill="#fff"><path d="M308.748 108.496c-.079 0-.157.042-.2.115-.064.109-.025.25.085.315l34.348 19.82v39.511l-34.348 19.821c-.11.064-.149.205-.085.314.065.11.206.149.315.085l34.579-19.955v-40.043l-.115-.068-34.464-19.887c-.036-.02-.076-.031-.115-.031v.003Z"/></mask><path stroke="#005BFF" stroke-dasharray="0.94 0.94" stroke-width=".94278" d="M308.748 108.496c-.079 0-.157.042-.2.115-.064.109-.025.25.085.315l34.348 19.82v39.511l-34.348 19.821c-.11.064-.149.205-.085.314.065.11.206.149.315.085l34.579-19.955v-40.043l-.115-.068-34.464-19.887c-.036-.02-.076-.031-.115-.031v.003Z" mask="url(#W)"/><mask id="X" fill="#fff"><path d="M476.598 263.755c-.04 0-.079.012-.116.031l-34.578 19.956v40.042l34.578 19.955c.11.065.251.026.315-.084.065-.109.026-.25-.084-.315l-34.348-19.82v-39.511l34.348-19.821c.11-.064.149-.205.084-.315-.042-.073-.121-.115-.199-.115v-.003Z"/></mask><path stroke="#005BFF" stroke-dasharray="0.94 0.94" stroke-width=".94278" d="M476.598 263.755c-.04 0-.079.012-.116.031l-34.578 19.956v40.042l34.578 19.955c.11.065.251.026.315-.084.065-.109.026-.25-.084-.315l-34.348-19.82v-39.511l34.348-19.821c.11-.064.149-.205.084-.315-.042-.073-.121-.115-.199-.115v-.003Z" mask="url(#X)"/><mask id="Y" fill="#fff"><path d="M425.119 68.7203c-.078 0-.157.0422-.199.1153-.065.1096-.026.2501.084.3148l34.348 19.8231v39.5115l-34.236 19.756-34.347-19.821c-.11-.064-.251-.025-.315.085-.065.109-.026.25.084.314l34.578 19.956 34.694-20.02V88.7121l-.115-.0675-34.463-19.8878c-.037-.0196-.076-.0309-.116-.0309l.003-.0056Z"/></mask><path stroke="#005BFF" stroke-dasharray="0.94 0.94" stroke-width=".94278" d="M425.119 68.7203c-.078 0-.157.0422-.199.1153-.065.1096-.026.2501.084.3148l34.348 19.8231v39.5115l-34.236 19.756-34.347-19.821c-.11-.064-.251-.025-.315.085-.065.109-.026.25.084.314l34.578 19.956 34.694-20.02V88.7121l-.115-.0675-34.463-19.8878c-.037-.0196-.076-.0309-.116-.0309l.003-.0056Z" mask="url(#Y)"/><mask id="Z" fill="#fff"><path d="M102.748 43.3618c-.079 0-.157.0422-.199.1152-.065.1097-.026.2502.084.3149l34.348 19.8203v39.5118l-34.236 19.755-34.3475-19.82c-.1097-.065-.2503-.025-.315.084-.0647.11-.0253.25.0844.315l34.5781 19.955 34.694-20.02V63.3508l-.115-.0675-34.463-19.8878c-.037-.0196-.076-.0309-.116-.0309l.003-.0028Z"/></mask><path stroke="#005BFF" stroke-dasharray="0.94 0.94" stroke-width=".94278" d="M102.748 43.3618c-.079 0-.157.0422-.199.1152-.065.1097-.026.2502.084.3149l34.348 19.8203v39.5118l-34.236 19.755-34.3475-19.82c-.1097-.065-.2503-.025-.315.084-.0647.11-.0253.25.0844.315l34.5781 19.955 34.694-20.02V63.3508l-.115-.0675-34.463-19.8878c-.037-.0196-.076-.0309-.116-.0309l.003-.0028Z" mask="url(#Z)"/></g><defs><clipPath id="a"><path fill="#fff" d="M0 330.578h453.144V0H0z"/></clipPath></defs></svg>