<svg xmlns="http://www.w3.org/2000/svg" fill="none" viewBox="0 0 1010 422">
  <g>
    <circle
      cx="512.195"
      cy="211.849"
      r="81.5"
      fill="#fff"
      stroke="#71717a"
      stroke-dasharray="2 2"
    />
    <mask id="path-2-inside-1_334_38" fill="#fff">
      <path
        d="M522.682 205.642h19.512v14.695h-19.512v19.513h-14.695v-19.513h-19.512v-14.695h19.512V186.13h14.695z"
      />
    </mask>
    <path
      fill="#d4d4d8"
      d="M522.682 205.642h-.918v.918h.918zm19.512 0h.919v-.919h-.919zm0 14.695v.919h.919v-.919zm-19.512 0v-.918h-.918v.918zm0 19.513v.918h.919v-.918zm-14.695 0h-.918v.918h.918zm0-19.513h.919v-.918h-.919zm-19.512 0h-.918v.919h.918zm0-14.695v-.919h-.918v.919zm19.512 0v.918h.919v-.918zm0-19.512v-.918h-.918v.918zm14.695 0h.919v-.918h-.919zm0 19.512v.918h19.512v-1.837h-19.512zm19.512 0h-.918v14.695h1.837v-14.695zm0 14.695v-.918h-19.512v1.837h19.512zm-19.512 0h-.918v19.513h1.837v-19.513zm0 19.513v-.919h-14.695v1.837h14.695zm-14.695 0h.919v-19.513h-1.837v19.513zm0-19.513v-.918h-19.512v1.837h19.512zm-19.512 0h.919v-14.695h-1.837v14.695zm0-14.695v.918h19.512v-1.837h-19.512zm19.512 0h.919V186.13h-1.837v19.512zm0-19.512v.919h14.695v-1.837h-14.695zm14.695 0h-.918v19.512h1.837V186.13z"
      mask="url(#path-2-inside-1_334_38)"
    />
    <mask id="path-4-inside-2_334_38" fill="#fff">
      <path
        d="M520.402 203.361h19.512v14.695h-19.512v19.513h-14.696v-19.513h-19.511v-14.695h19.511v-19.512h14.696z"
      />
    </mask>
    <path
      fill="#fff"
      d="M520.402 203.361h19.512v14.695h-19.512v19.513h-14.696v-19.513h-19.511v-14.695h19.511v-19.512h14.696z"
    />
    <path
      fill="#005bff"
      d="M520.402 203.361h-.919v.919h.919zm19.512 0h.918v-.918h-.918zm0 14.695v.919h.918v-.919zm-19.512 0v-.918h-.919v.918zm0 19.513v.919h.918v-.919zm-14.696 0h-.918v.919h.918zm0-19.513h.919v-.918h-.919zm-19.511 0h-.919v.919h.919zm0-14.695v-.918h-.919v.918zm19.511 0v.919h.919v-.919zm0-19.512v-.918h-.918v.918zm14.696 0h.918v-.918h-.918zm0 19.512v.919h19.512v-1.837h-19.512zm19.512 0h-.919v14.695h1.837v-14.695zm0 14.695v-.918h-19.512v1.837h19.512zm-19.512 0h-.919v19.513h1.837v-19.513zm0 19.513v-.918h-14.696v1.837h14.696zm-14.696 0h.919v-19.513h-1.837v19.513zm0-19.513v-.918h-19.511v1.837h19.511zm-19.511 0h.918v-14.695h-1.837v14.695zm0-14.695v.919h19.511v-1.837h-19.511zm19.511 0h.919v-19.512h-1.837v19.512zm0-19.512v.919h14.696v-1.837h-14.696zm14.696 0h-.919v19.512h1.837v-19.512z"
      mask="url(#path-4-inside-2_334_38)"
    />
    <circle
      cx="513.217"
      cy="208.78"
      r="166.621"
      stroke="#71717a"
      stroke-dasharray="2 2"
    />
  </g>
  <g stroke="#71717a" stroke-dasharray="2 2" stroke-width=".5">
    <path
      d="m736.362 22.857-1.759 1.016.124.217-1.76 1.015-.124-.216-1.76 1.016.124.216-.754.436v.872h-.25v2.031h.25v2.032h-.25v2.031h.25v2.033h-.25v2.03h.25v2.033h-.25v2.031h.25v2.033h-.25v2.032h.25v2.031h-.25v2.032h.25v2.032h-.25v2.032h.25v2.031h-.25v2.032h.25v2.032h-.25v2.032h.25V64h-.25v2.032h.25v2.032h-.25v2.032h.25v2.031h-.25v2.032h.25v2.031h-.25v2.033h.25v.87l.754.436-.124.216 1.759 1.017.125-.216 1.76 1.015-.124.216 1.759 1.016.125-.216 1.759 1.016-.125.217 1.759 1.015.125-.216 1.76 1.016-.124.216 1.76 1.015.124-.215 1.759 1.015-.125.217 1.759 1.016.125-.216 1.76 1.016-.124.215 1.76 1.016.124-.216 1.759 1.016-.125.216 1.759 1.016.125-.216 1.76 1.016-.124.216 1.76 1.015.124-.215 1.76 1.015-.125.217 1.759 1.016.125-.216 1.759 1.015-.124.216 1.76 1.016.124-.216 1.76 1.017-.125.215 1.759 1.016.125-.216 1.759 1.016-.124.216 1.76 1.015.124-.215 1.76 1.016-.125.216 1.759 1.016.125-.216.755.435.755-.435.125.216h.001l1.759-1.016h-.001l-.125-.216 1.76-1.016.125.216h.001l1.76-1.015-.126-.217 1.759-1.016.125.216h.001l1.759-1.016h-.001l-.125-.215 1.76-1.017.125.217h.001l1.76-1.016-.126-.217 1.759-1.015.125.216h.001l1.76-1.016h-.001l-.125-.217 1.759-1.015.125.216h.001l1.76-1.015-.126-.217 1.759-1.016.125.216h.001l1.76-1.016h-.001l-.125-.216 1.759-1.016.125.217h.001l1.76-1.016-.126-.216 1.76-1.016.125.216h.001l1.759-1.016-.126-.217 1.76-1.015.125.215 1.76-1.014-.126-.217 1.76-1.016.125.216h.001l1.759-1.015-.126-.217 1.76-1.016.125.216 1.76-1.015-.126-.217 1.76-1.015.125.216h.001l1.759-1.016-.125-.217.754-.436v-.87h.25V76.19h-.25v-2.03h.25v-2.033h-.25v-2.031h.25v-2.032h-.25v-2.032h.25V64h-.25v-2.031h.25v-2.032h-.25v-2.032h.25v-2.032h-.25v-2.031h.25V51.81h-.25v-2.032h.25v-2.032h-.25v-2.031h.25v-2.032h-.25V41.65h.25v-2.03h-.25v-2.033h.25v-2.031h-.25v-2.033h.25v-2.03h-.25V29.46h.25v-2.031h-.25v-.872l-.754-.436.125-.216-1.76-1.016-.125.216-1.76-1.015.125-.217h.001l-1.76-1.016-.125.216-1.76-1.015.125-.216.001-.001-1.76-1.016-.125.217-1.76-1.016.125-.216.001-.001-1.76-1.015-.125.216-1.76-1.016.125-.217-1.759-1.015-.125.216-1.76-1.015.125-.217h.001l-1.76-1.017-.001.002-.125.215-1.759-1.015.125-.217-1.76-1.016-.125.217-1.759-1.016.125-.216.001-.001-1.76-1.016-.001.001-.125.216-1.759-1.016.125-.217-1.76-1.015-.125.217-1.759-1.016.125-.217h.001l-1.76-1.016h-.001l-.125.216-1.76-1.015.125-.217-1.759-1.016-.125.217-1.759-1.016.125-.216.001-.001-1.76-1.016-.001.001-.125.216-1.76-1.016.125-.217-1.759-1.015-.125.217-.755-.437-.755.437-.124-.217-1.759 1.015.124.217-1.76 1.016-.124-.216-1.76 1.016.124.216-1.759 1.016-.124-.217-1.759 1.016.124.217-1.76 1.015-.124-.215-1.76 1.015.124.217-1.759 1.016-.124-.217-1.759 1.015.124.217-1.76 1.016-.124-.216-1.76 1.016.124.216-1.76 1.016-.124-.217-1.759 1.016.124.217-1.759 1.015-.124-.216-1.76 1.016.124.217-1.76 1.016-.124-.217-1.759 1.015.124.217-1.759 1.016-.124-.216-1.76 1.016.124.216-1.76 1.016-.124-.217-1.76 1.016.125.217-1.759 1.015zM735.261 338.402l-1.76 1.016.124.216-1.759 1.016-.124-.217-1.76 1.017.124.216-.754.435v.872h-.25v2.032h.25v2.032h-.25v2.031h.25v2.032h-.25v2.031h.25v2.033h-.25v2.031h.25v2.032h-.25v2.032h.25v2.032h-.25v2.032h.25v2.031h-.25v2.032h.25v2.032h-.25v2.032h.25v2.031h-.25v2.032h.25v2.032h-.25v2.032h.25v2.031h-.25v2.032h.25v2.032h-.25v2.032h.25v2.031h-.25v2.032h.25v.87l.754.437-.124.216 1.759 1.016.125-.216 1.759 1.016-.124.216 1.76 1.016.124-.216 1.76 1.015-.125.217 1.759 1.016.125-.216 1.76 1.016-.125.215 1.76 1.016.124-.216 1.76 1.016-.125.217 1.759 1.015.125-.216 1.76 1.016-.124.216 1.759 1.015.124-.215 1.76 1.015-.125.217 1.759 1.016.125-.216 1.76 1.016-.124.215 1.759 1.016.124-.216 1.76 1.016-.125.217 1.76 1.015.125-.216 1.759 1.016-.124.216 1.76 1.015.124-.215 1.759 1.016-.125.216 1.76 1.016.125-.216 1.759 1.015-.124.216 1.76 1.016.124-.216 1.759 1.017-.125.216 1.76 1.015.125-.216.755.436.755-.436.125.216h.001l1.759-1.015h-.001l-.125-.216 1.759-1.017.125.217h.001l1.76-1.016-.126-.217 1.76-1.015.125.216h.001l1.759-1.016h-.001l-.125-.216 1.76-1.016.125.216h.001l1.759-1.015-.126-.217 1.76-1.016.125.216h.001l1.76-1.015h-.001l-.125-.217 1.759-1.016.125.217h.001l1.759-1.016-.126-.216 1.76-1.016.125.216h.001l1.76-1.016h-.001l-.125-.217 1.759-1.015.125.216h.001l1.759-1.015-.126-.217 1.76-1.016.125.216h.001l1.76-1.015-.126-.217 1.76-1.016.125.216 1.76-1.015-.126-.216 1.759-1.016.125.216h.001l1.76-1.016-.126-.217 1.76-1.015.125.216 1.76-1.015-.126-.217 1.759-1.016.125.216h.001l1.76-1.015-.126-.217.755-.437v-.87h.25v-2.032h-.25v-2.031h.25v-2.032h-.25v-2.032h.25v-2.032h-.25v-2.031h.25v-2.032h-.25v-2.032h.25v-2.032h-.25v-2.031h.25v-2.032h-.25v-2.032h.25v-2.032h-.25v-2.031h.25v-2.032h-.25v-2.032h.25v-2.032h-.25v-2.032h.25v-2.031h-.25v-2.033h.25V351.1h-.25v-2.032h.25v-2.031h-.25v-2.032h.25v-2.032h-.25v-.872l-.755-.435.125-.216.001-.001-1.761-1.016-.125.217-1.759-1.016.125-.216.001-.001-1.76-1.015-.125.216-1.76-1.016.125-.216.001-.001-1.761-1.015-.125.217-1.759-1.016.125-.217.001-.001-1.76-1.014-.125.215-1.76-1.015.125-.217-1.76-1.016-.125.217-1.76-1.016.125-.216.001-.001-1.759-1.016-.001.001-.125.216-1.759-1.016.125-.217-1.76-1.015-.125.217-1.76-1.016.125-.217.001-.001-1.759-1.015-.001.001-.125.215-1.759-1.015.125-.217-1.76-1.016-.125.217-1.76-1.016.125-.216.001-.001-1.759-1.016-.001.001-.125.216-1.76-1.016.125-.217-1.759-1.015-.125.217-1.76-1.016.125-.217.001-.001-1.76-1.015-.001.001-.125.215-1.759-1.015.125-.217-1.759-1.016-.125.217-.755-.436-.755.436-.124-.217-1.76 1.016.124.217-1.759 1.015-.124-.215-1.76 1.015.124.217-1.759 1.016-.124-.217-1.76 1.015.124.217-1.759 1.016-.124-.216-1.76 1.016.124.216-1.759 1.016-.124-.217-1.76 1.016.124.217-1.76 1.015-.124-.215-1.759 1.015.124.217-1.76 1.016-.124-.217-1.759 1.015.124.217-1.76 1.016-.124-.216-1.759 1.016.124.216-1.76 1.016-.124-.217-1.759 1.016.124.217-1.76 1.015-.124-.215-1.76 1.015.125.217-1.76 1.016-.124-.217-1.76 1.015v.001l.125.216-1.76 1.016z"
    />
    <path
      d="m781.362 101.857-1.759 1.016.124.217-1.76 1.015-.124-.216-1.76 1.016.124.216-.754.436v.872h-.25v2.031h.25v2.032h-.25v2.031h.25v2.033h-.25v2.031h.25v2.032h-.25v2.031h.25v2.033h-.25v2.032h.25v2.031h-.25v2.032h.25v2.032h-.25v2.032h.25v2.031h-.25v2.032h.25v2.032h-.25v2.032h.25V143h-.25v2.032h.25v2.031h-.25v2.033h.25v2.031h-.25v2.032h.25v2.031h-.25v2.033h.25v.87l.754.436-.124.216 1.759 1.017.125-.216 1.76 1.016-.124.215 1.759 1.016.125-.216 1.759 1.016-.125.217 1.759 1.015.125-.216 1.76 1.016-.124.216 1.76 1.015.124-.215 1.759 1.015-.125.217 1.759 1.016.125-.216 1.76 1.015-.124.216 1.76 1.016.124-.216 1.759 1.016-.125.217 1.759 1.015.125-.216 1.76 1.016-.124.216 1.76 1.015.124-.215 1.76 1.015-.125.217 1.759 1.016.125-.216 1.759 1.015-.124.216 1.76 1.016.124-.216 1.76 1.017-.125.215 1.759 1.016.125-.216 1.759 1.016-.124.216 1.76 1.015.124-.215 1.76 1.016-.125.216 1.759 1.016.125-.216.755.435.755-.435.125.216h.001l1.759-1.016h-.001l-.125-.216 1.76-1.016.125.216h.001l1.76-1.015-.126-.217 1.759-1.016.125.216h.001l1.759-1.016h-.001l-.125-.215 1.76-1.017.125.217h.001l1.76-1.016-.126-.217 1.759-1.015.125.216h.001l1.76-1.016h-.001l-.125-.217 1.759-1.015.125.216h.001l1.76-1.015-.126-.217 1.759-1.016.125.216h.001l1.76-1.015h-.001l-.125-.217 1.759-1.016.125.217h.001l1.76-1.016-.126-.217 1.76-1.015.125.216h.001l1.759-1.016-.126-.217 1.76-1.015.125.215 1.76-1.014-.126-.217 1.76-1.016.125.216h.001l1.759-1.015-.126-.217 1.76-1.016.125.216 1.76-1.015-.126-.216 1.76-1.016.125.216h.001l1.759-1.016-.125-.217.754-.436v-.87h.25v-2.033h-.25v-2.031h.25v-2.032h-.25v-2.031h.25v-2.033h-.25v-2.031h.25V143h-.25v-2.031h.25v-2.032h-.25v-2.032h.25v-2.032h-.25v-2.031h.25v-2.032h-.25v-2.032h.25v-2.032h-.25v-2.031h.25v-2.032h-.25v-2.033h.25v-2.031h-.25v-2.032h.25v-2.031h-.25v-2.033h.25v-2.031h-.25v-2.032h.25v-2.031h-.25v-.872l-.754-.436.125-.216v-.001l-1.76-1.015-.125.216-1.76-1.015.125-.217.001-.001-1.76-1.015-.125.216-1.76-1.015.125-.216.001-.001-1.76-1.016-.125.217-1.76-1.016.125-.216.001-.001-1.76-1.015-.125.216-1.76-1.016.125-.217-1.759-1.015-.125.216-1.76-1.015.125-.217h.001l-1.76-1.016h-.001l-.125.216-1.759-1.015.125-.217-1.76-1.016-.125.217-1.759-1.016.125-.216.001-.001-1.76-1.016-.001.001-.125.216-1.759-1.016.125-.217-1.76-1.015-.125.217-1.759-1.016.125-.217h.001l-1.76-1.016h-.001l-.125.216-1.76-1.015.125-.217-1.759-1.016-.125.217-1.759-1.016.125-.216.001-.001-1.76-1.016-.001.001-.125.216-1.76-1.016.125-.217-1.759-1.015-.125.217-.755-.437-.755.437-.124-.217-1.759 1.015.124.217-1.76 1.016-.124-.216-1.76 1.016.124.216-1.759 1.016-.124-.217-1.759 1.016.124.217-1.76 1.015-.124-.216-1.76 1.016.124.217-1.759 1.016-.124-.217-1.759 1.015.124.217-1.76 1.016-.124-.216-1.76 1.016.124.216-1.76 1.016-.124-.217-1.759 1.016.124.217-1.759 1.015-.124-.215-1.76 1.015.124.217-1.76 1.016-.124-.217-1.759 1.015.124.217-1.759 1.016-.124-.216-1.76 1.016.124.216-1.76 1.016-.124-.217-1.76 1.016v.001l.125.216-1.759 1.015zM781.27 259.841l-1.76 1.016.124.217-1.759 1.015-.124-.217-1.76 1.017.124.216-.754.435v.872h-.25v2.032h.25v2.032h-.25v2.031h.25v2.032h-.25v2.032h.25v2.032h-.25v2.031h.25v2.032h-.25v2.033h.25v2.031h-.25v2.032h.25v2.031h-.25v2.033h.25v2.031h-.25v2.032h.25v2.031h-.25v2.032h.25v2.032h-.25v2.032h.25v2.031h-.25v2.032h.25v2.032h-.25v2.032h.25v2.031h-.25v2.032h.25v.87l.754.437-.124.216 1.759 1.016.125-.215 1.759 1.015-.124.216 1.76 1.016.124-.216 1.76 1.015-.125.217 1.759 1.016.125-.216 1.76 1.016-.124.216 1.759 1.015.124-.216 1.76 1.016-.125.217 1.759 1.015.125-.215 1.76 1.015-.124.216 1.759 1.016.124-.216 1.76 1.015-.125.217 1.759 1.016.125-.216 1.76 1.016-.124.215 1.759 1.016.124-.216 1.76 1.016-.125.217 1.76 1.015.125-.215 1.759 1.015-.124.216 1.76 1.016.124-.216 1.759 1.016-.125.216 1.76 1.016.125-.216 1.759 1.016-.124.215 1.76 1.016.124-.216 1.759 1.017-.125.216 1.76 1.015.125-.216.755.436.755-.436.125.216h.001l1.759-1.015h-.001l-.125-.216 1.76-1.017.125.217 1.76-1.016-.126-.216 1.76-1.016.125.216h.001l1.759-1.016h-.001l-.125-.216 1.76-1.016.125.217h.001l1.759-1.016-.126-.217 1.76-1.015.125.215h.001l1.76-1.015h-.001l-.125-.217 1.759-1.016.125.217h.001l1.759-1.016-.126-.216 1.76-1.016.125.216h.001l1.76-1.016h-.001l-.125-.217 1.759-1.015.125.217h.001l1.76-1.016-.126-.217 1.759-1.015.125.215h.001l1.76-1.015-.126-.217 1.76-1.016.125.216 1.76-1.014-.126-.217 1.759-1.016.125.216h.001l1.76-1.016-.126-.217 1.76-1.015.125.216 1.76-1.015-.126-.217 1.759-1.015.125.215h.001l1.76-1.015-.126-.217.755-.437v-.87h.25v-2.032h-.25v-2.031h.25v-2.032h-.25v-2.032h.25v-2.032h-.25v-2.031h.25v-2.032h-.25v-2.032h.25v-2.032h-.25v-2.031h.25v-2.032h-.25v-2.031h.25v-2.033h-.25v-2.031h.25v-2.032h-.25v-2.031h.25v-2.033h-.25v-2.032h.25v-2.031h-.25v-2.032h.25v-2.032h-.25v-2.032h.25v-2.031h-.25v-2.032h.25v-2.032h-.25v-.872l-.755-.435.125-.216.001-.001-1.761-1.016-.125.217-1.759-1.015.125-.217.001-.001-1.76-1.015-.125.216-1.76-1.016.125-.215.001-.001-1.761-1.016-.125.217-1.759-1.016.125-.217.001-.001-1.76-1.014-.125.215-1.76-1.015.125-.217-1.76-1.016-.125.217-1.759-1.015.125-.217.001-.001-1.76-1.016-.001.001-.125.216-1.759-1.016.125-.216-1.76-1.016-.125.217-1.76-1.016.125-.217.001-.001-1.759-1.015-.001.001-.125.216-1.759-1.016.125-.217-1.76-1.016-.125.217-1.76-1.015.125-.217.001-.001-1.759-1.016-.001.001-.125.216-1.76-1.016.125-.216-1.759-1.016-.125.217-1.76-1.016.125-.217.001-.001-1.76-1.015v.001l-.125.216-1.76-1.016.125-.217-1.759-1.015-.125.216-.755-.436-.755.436-.124-.216-1.76 1.015.124.217-1.759 1.016-.124-.216-1.76 1.015.124.217-1.759 1.016-.124-.217-1.76 1.016.124.216-1.759 1.016-.124-.216-1.76 1.016.124.217-1.759 1.015-.124-.217-1.76 1.016.124.217-1.76 1.016-.124-.216-1.759 1.015.124.217-1.76 1.016-.124-.217-1.759 1.016.124.216-1.76 1.016-.124-.216-1.759 1.016.124.217-1.76 1.015-.124-.217-1.759 1.016.124.217-1.76 1.015-.124-.215-1.759 1.015.124.217-1.76 1.016-.124-.217-1.76 1.016v.001l.125.215-1.76 1.016z"
    />
    <path
      d="m826.362 180.857-1.759 1.016.124.217-1.76 1.015-.124-.216-1.76 1.016.124.216-.754.436v.872h-.25v2.031h.25v2.032h-.25v2.031h.25v2.033h-.25v2.031h.25v2.032h-.25v2.031h.25v2.033h-.25v2.032h.25v2.031h-.25v2.032h.25v2.032h-.25v2.032h.25v2.031h-.25v2.032h.25v2.032h-.25v2.032h.25V222h-.25v2.032h.25v2.031h-.25v2.033h.25v2.031h-.25v2.032h.25v2.031h-.25v2.033h.25v.87l.754.436-.124.216 1.759 1.017.125-.216 1.76 1.016-.124.215 1.759 1.016.125-.216 1.759 1.016-.125.217 1.759 1.015.125-.216 1.76 1.016-.124.216 1.76 1.015.124-.215 1.759 1.015-.125.217 1.759 1.016.125-.216 1.76 1.015-.124.216 1.76 1.016.124-.216 1.759 1.016-.125.217 1.759 1.015.125-.216 1.76 1.016-.124.216 1.76 1.015.124-.215 1.76 1.015-.125.217 1.759 1.016.125-.216 1.759 1.015-.124.216 1.76 1.016.124-.216 1.76 1.017-.125.215 1.759 1.016.125-.216 1.759 1.016-.124.216 1.76 1.015.124-.215 1.76 1.016-.125.216 1.759 1.016.125-.216.755.435.755-.435.125.216h.001l1.759-1.016h-.001l-.125-.216 1.76-1.016.125.216h.001l1.76-1.015-.126-.217 1.759-1.016.125.216h.001l1.759-1.016h-.001l-.125-.215 1.76-1.017.125.217h.001l1.76-1.016-.126-.217 1.759-1.015.125.216h.001l1.76-1.016h-.001l-.125-.217 1.759-1.015.125.216h.001l1.76-1.015-.126-.217 1.759-1.016.125.216h.001l1.76-1.015h-.001l-.125-.217 1.759-1.016.125.217h.001l1.76-1.016-.126-.217 1.76-1.015.125.216h.001l1.759-1.016-.126-.217 1.76-1.015.125.215 1.76-1.014-.126-.217 1.76-1.016.125.216h.001l1.759-1.015-.126-.217 1.76-1.016.125.216 1.76-1.015-.126-.216 1.76-1.016.125.216h.001l1.759-1.016-.125-.217.754-.436v-.87h.25v-2.033h-.25v-2.031h.25v-2.032h-.25v-2.031h.25v-2.033h-.25v-2.031h.25V222h-.25v-2.031h.25v-2.032h-.25v-2.032h.25v-2.032h-.25v-2.031h.25v-2.032h-.25v-2.032h.25v-2.032h-.25v-2.031h.25v-2.032h-.25v-2.033h.25v-2.031h-.25v-2.032h.25v-2.031h-.25v-2.033h.25v-2.031h-.25v-2.032h.25v-2.031h-.25v-.872l-.754-.436.125-.216v-.001l-1.76-1.015-.125.216-1.76-1.015.125-.217.001-.001-1.76-1.015-.125.216-1.76-1.015.125-.216.001-.001-1.76-1.016-.125.217-1.76-1.016.125-.216.001-.001-1.76-1.015-.125.216-1.76-1.016.125-.217-1.759-1.015-.125.217-1.76-1.016.125-.217.001-.001-1.76-1.016-.001.001-.125.216-1.759-1.015.125-.217-1.76-1.016-.125.217-1.759-1.016.125-.216.001-.001-1.76-1.016-.001.001-.125.216-1.759-1.016.125-.217-1.76-1.015-.125.217-1.759-1.016.125-.217.001-.001-1.76-1.015-.001.001-.125.215-1.76-1.015.125-.217-1.759-1.016-.125.217-1.759-1.016.125-.216.001-.001-1.76-1.016-.001.001-.125.216-1.76-1.016.125-.217-1.759-1.015-.125.217-.755-.437-.755.437-.124-.217-1.759 1.015.124.217-1.76 1.016-.124-.216-1.76 1.016.124.216-1.759 1.016-.124-.217-1.759 1.016.124.217-1.76 1.015-.124-.215-1.76 1.015.124.217-1.759 1.016-.124-.217-1.759 1.015.124.217-1.76 1.016-.124-.216-1.76 1.016.124.216-1.76 1.016-.124-.217-1.759 1.016.124.217-1.759 1.015-.124-.216-1.76 1.016.124.217-1.76 1.016-.124-.217-1.759 1.015.124.217-1.759 1.016-.124-.216-1.76 1.016.124.216-1.76 1.016-.124-.217-1.76 1.016v.001l.125.216-1.759 1.015zM827.463 22.857l-1.759 1.016.124.217-1.76 1.015-.124-.216-1.76 1.016.124.216-.754.436v.872h-.25v2.031h.25v2.032h-.25v2.031h.25v2.033h-.25v2.03h.25v2.033h-.25v2.031h.25v2.033h-.25v2.032h.25v2.031h-.25v2.032h.25v2.032h-.25v2.032h.25v2.031h-.25v2.032h.25v2.032h-.25v2.032h.25V64h-.25v2.032h.25v2.032h-.25v2.032h.25v2.031h-.25v2.032h.25v2.031h-.25v2.033h.25v.87l.754.436-.124.216 1.759 1.017.125-.216 1.76 1.015-.124.216 1.759 1.016.124-.216 1.76 1.016-.125.217 1.759 1.015.125-.216 1.76 1.016-.124.216 1.759 1.015.124-.215 1.76 1.015-.125.217 1.759 1.016.125-.216 1.76 1.016-.124.215 1.759 1.016.125-.216 1.759 1.016-.125.216 1.759 1.016.125-.216 1.76 1.016-.124.216 1.76 1.015.124-.215 1.759 1.015-.125.217 1.76 1.016.125-.216 1.759 1.015-.124.216 1.76 1.016.124-.216 1.759 1.017-.125.215 1.76 1.016.125-.216 1.759 1.016-.124.216 1.76 1.015.124-.215 1.76 1.016-.125.216 1.759 1.016.125-.216.755.435.755-.435.125.216h.001l1.759-1.016h-.001l-.125-.216 1.76-1.016.125.216h.001l1.759-1.015-.126-.217 1.76-1.016.125.216h.001l1.759-1.016h-.001l-.125-.215 1.76-1.017.125.217h.001l1.759-1.016-.126-.217 1.76-1.015.125.216h.001l1.76-1.016h-.001l-.125-.217 1.759-1.015.125.216h.001l1.76-1.015-.126-.217 1.759-1.016.125.216h.001l1.76-1.016h-.001l-.125-.216 1.759-1.016.125.217h.001l1.76-1.016-.126-.216 1.759-1.016.125.216h.001l1.76-1.016-.126-.217 1.76-1.015.125.215 1.76-1.014-.126-.217 1.759-1.016.125.216h.001l1.76-1.015-.126-.217 1.76-1.016.125.216 1.76-1.015-.126-.217 1.76-1.015.125.216h.001l1.759-1.016-.126-.217.755-.436v-.87h.25V76.19h-.25v-2.03h.25v-2.033h-.25v-2.031h.25v-2.032h-.25v-2.032h.25V64h-.25v-2.031h.25v-2.032h-.25v-2.032h.25v-2.032h-.25v-2.031h.25V51.81h-.25v-2.032h.25v-2.032h-.25v-2.031h.25v-2.032h-.25V41.65h.25v-2.03h-.25v-2.033h.25v-2.031h-.25v-2.033h.25v-2.03h-.25V29.46h.25v-2.031h-.25v-.872l-.755-.436.125-.216h.001l-1.76-1.016-.125.216-1.76-1.015.125-.217h.001l-1.76-1.016-.125.216-1.76-1.015.125-.216.001-.001-1.761-1.016-.125.217-1.759-1.016.125-.216.001-.001-1.76-1.015-.125.216-1.76-1.016.125-.217-1.76-1.015-.125.216-1.759-1.015.125-.217h.001l-1.76-1.017-.001.002-.125.215-1.759-1.015.125-.217-1.76-1.016-.125.217-1.759-1.016.125-.216.001-.001-1.76-1.016-.001.001-.125.216-1.759-1.016.125-.217-1.76-1.015-.125.217-1.76-1.016.125-.217h.001l-1.759-1.016h-.001l-.125.216-1.76-1.015.125-.217-1.759-1.016-.125.217-1.76-1.016.125-.216.001-.001-1.759-1.016-.001.001-.125.216-1.76-1.016.125-.217-1.759-1.015-.125.217-.755-.437-.755.437-.124-.217-1.759 1.015.124.217-1.76 1.016-.124-.216-1.76 1.016.124.216-1.759 1.016-.124-.217-1.76 1.016.124.217-1.759 1.015-.124-.215-1.76 1.015.124.217-1.759 1.016-.124-.217-1.76 1.015.124.217-1.759 1.016-.124-.216-1.76 1.016.124.216-1.76 1.016-.124-.217-1.759 1.016.124.217-1.759 1.015-.125-.216-1.759 1.016.124.217-1.76 1.016-.124-.217-1.759 1.015.124.217-1.76 1.016-.124-.216-1.759 1.016.124.216-1.76 1.016-.124-.217-1.76 1.016.125.217-1.76 1.015zM826.362 338.402l-1.76 1.016.124.216-1.76 1.016-.124-.217-1.759 1.017.124.216-.754.435v.872h-.25v2.032h.25v2.032h-.25v2.031h.25v2.032h-.25v2.031h.25v2.033h-.25v2.031h.25v2.032h-.25v2.032h.25v2.032h-.25v2.032h.25v2.031h-.25v2.032h.25v2.032h-.25v2.032h.25v2.031h-.25v2.032h.25v2.032h-.25v2.032h.25v2.031h-.25v2.032h.25v2.032h-.25v2.032h.25v2.031h-.25v2.032h.25v.87l.754.437-.124.216 1.758 1.016.125-.216 1.76 1.016-.124.216 1.76 1.016.124-.216 1.76 1.015-.125.217 1.759 1.016.125-.216 1.759 1.016-.124.215 1.76 1.016.124-.216 1.76 1.016-.125.217 1.759 1.015.125-.216 1.759 1.016-.124.216 1.76 1.015.124-.215 1.76 1.015-.125.217 1.759 1.016.125-.216 1.76 1.016-.125.215 1.76 1.016.124-.216 1.76 1.016-.125.217 1.76 1.015.125-.216 1.759 1.016-.124.216 1.759 1.015.124-.215 1.76 1.016-.125.216 1.76 1.016.125-.216 1.759 1.015-.124.216 1.759 1.016.124-.216 1.76 1.017-.125.216 1.76 1.015.125-.216.755.436.755-.436.125.216h.001l1.759-1.015h-.001l-.125-.216 1.759-1.017.125.217h.001l1.76-1.016-.126-.217 1.76-1.015.125.216h.001l1.759-1.016h-.001l-.125-.216 1.759-1.016.125.216h.001l1.76-1.015-.126-.217 1.76-1.016.125.216h.001l1.76-1.015h-.001l-.125-.217 1.758-1.016.125.217h.001l1.76-1.016-.126-.216 1.76-1.016.125.216h.001l1.76-1.016h-.001l-.125-.217 1.759-1.015.125.216h.001l1.759-1.015-.126-.217 1.76-1.016.125.216h.001l1.76-1.015-.126-.217 1.76-1.016.125.216 1.759-1.015-.126-.216 1.76-1.016.125.216h.001l1.76-1.016-.126-.217 1.76-1.015.125.216 1.759-1.015-.126-.217 1.76-1.016.125.216h.001l1.76-1.015-.126-.217.755-.437v-.87h.25v-2.032h-.25v-2.031h.25v-2.032h-.25v-2.032h.25v-2.032h-.25v-2.031h.25v-2.032h-.25v-2.032h.25v-2.032h-.25v-2.031h.25v-2.032h-.25v-2.032h.25v-2.032h-.25v-2.031h.25v-2.032h-.25v-2.032h.25v-2.032h-.25v-2.032h.25v-2.031h-.25v-2.033h.25V351.1h-.25v-2.032h.25v-2.031h-.25v-2.032h.25v-2.032h-.25v-.872l-.755-.435.125-.216.001-.001-1.761-1.016-.125.217-1.76-1.016.125-.216.001-.001-1.759-1.015-.125.216-1.76-1.016.125-.216.001-.001-1.761-1.015-.125.217-1.76-1.016.125-.217.001-.001-1.759-1.014-.125.215-1.76-1.015.125-.217-1.76-1.016-.125.217-1.76-1.016.125-.216.001-.001-1.759-1.016-.001.001-.125.216-1.759-1.016.125-.217-1.76-1.015-.125.217-1.76-1.016.125-.217.001-.001-1.76-1.015-.001.001-.125.215-1.758-1.015.125-.217-1.76-1.016-.125.217-1.76-1.016.125-.216.001-.001-1.76-1.016-.001.001-.125.216-1.759-1.016.125-.217-1.759-1.015-.125.217-1.76-1.016.125-.217.001-.001-1.76-1.015-.001.001-.125.215-1.759-1.015.125-.217-1.759-1.016-.125.217-.755-.436-.755.436-.124-.217-1.76 1.016.124.217-1.76 1.015-.124-.215-1.759 1.015.124.217-1.759 1.016-.124-.217-1.76 1.015.124.217-1.76 1.016-.124-.216-1.759 1.016.124.216-1.759 1.016-.124-.217-1.76 1.016.124.217-1.76 1.015-.124-.215-1.76 1.015.125.217-1.76 1.016-.124-.217-1.759 1.015.124.217-1.76 1.016-.124-.216-1.76 1.016.124.216-1.759 1.016-.124-.217-1.759 1.016.124.217-1.76 1.015-.124-.215-1.76 1.015.124.217-1.759 1.016-.124-.217-1.76 1.015v.001l.125.216-1.76 1.016z"
    />
    <path
      d="m872.463 101.857-1.759 1.016.124.217-1.76 1.015-.124-.216-1.76 1.016.124.216-.754.436v.872h-.25v2.031h.25v2.032h-.25v2.031h.25v2.033h-.25v2.031h.25v2.032h-.25v2.031h.25v2.033h-.25v2.032h.25v2.031h-.25v2.032h.25v2.032h-.25v2.032h.25v2.031h-.25v2.032h.25v2.032h-.25v2.032h.25V143h-.25v2.032h.25v2.031h-.25v2.033h.25v2.031h-.25v2.032h.25v2.031h-.25v2.033h.25v.87l.754.436-.124.216 1.759 1.017.125-.216 1.76 1.016-.124.215 1.759 1.016.124-.216 1.76 1.016-.125.217 1.759 1.015.125-.216 1.76 1.016-.124.216 1.759 1.015.124-.215 1.76 1.015-.125.217 1.759 1.016.125-.216 1.76 1.015-.124.216 1.759 1.016.125-.216 1.759 1.016-.125.217 1.759 1.015.125-.216 1.76 1.016-.124.216 1.76 1.015.124-.215 1.759 1.015-.125.217 1.76 1.016.125-.216 1.759 1.015-.124.216 1.76 1.016.124-.216 1.759 1.017-.125.215 1.76 1.016.125-.216 1.759 1.016-.124.216 1.76 1.015.124-.215 1.76 1.016-.125.216 1.759 1.016.125-.216.755.435.755-.435.125.216h.001l1.759-1.016h-.001l-.125-.216 1.76-1.016.125.216h.001l1.759-1.015-.126-.217 1.76-1.016.125.216h.001l1.759-1.016h-.001l-.125-.215 1.76-1.017.125.217h.001l1.759-1.016-.126-.217 1.76-1.015.125.216h.001l1.76-1.016h-.001l-.125-.217 1.759-1.015.125.216h.001l1.76-1.015-.126-.217 1.759-1.016.125.216h.001l1.76-1.015h-.001l-.125-.217 1.759-1.016.125.217h.001l1.76-1.016-.126-.217 1.759-1.015.125.216h.001l1.76-1.016-.126-.217 1.76-1.015.125.215 1.76-1.014-.126-.217 1.759-1.016.125.216h.001l1.76-1.015-.126-.217 1.76-1.016.125.216 1.76-1.015-.126-.216 1.76-1.016.125.216h.001l1.759-1.016-.126-.217.755-.436v-.87h.25v-2.033h-.25v-2.031h.25v-2.032h-.25v-2.031h.25v-2.033h-.25v-2.031h.25V143h-.25v-2.031h.25v-2.032h-.25v-2.032h.25v-2.032h-.25v-2.031h.25v-2.032h-.25v-2.032h.25v-2.032h-.25v-2.031h.25v-2.032h-.25v-2.033h.25v-2.031h-.25v-2.032h.25v-2.031h-.25v-2.033h.25v-2.031h-.25v-2.032h.25v-2.031h-.25v-.872l-.755-.436.125-.216.001-.001-1.76-1.015-.125.216-1.76-1.015.125-.217.001-.001-1.76-1.015-.125.216-1.76-1.015.125-.216.001-.001-1.761-1.016-.125.217-1.759-1.016.125-.216.001-.001-1.76-1.015-.125.216-1.76-1.016.125-.217-1.76-1.015-.125.216-1.759-1.015.125-.217h.001l-1.76-1.016h-.001l-.125.216-1.759-1.015.125-.217-1.76-1.016-.125.217-1.759-1.016.125-.216.001-.001-1.76-1.016-.001.001-.125.216-1.759-1.016.125-.217-1.76-1.015-.125.217-1.76-1.016.125-.217h.001l-1.759-1.016h-.001l-.125.216-1.76-1.015.125-.217-1.759-1.016-.125.217-1.76-1.016.125-.216.001-.001-1.759-1.016-.001.001-.125.216-1.76-1.016.125-.217-1.759-1.015-.125.217-.755-.437-.755.437-.124-.217-1.759 1.015.124.217-1.76 1.016-.124-.216-1.76 1.016.124.216-1.759 1.016-.124-.217-1.76 1.016.124.217-1.759 1.015-.124-.216-1.76 1.016.124.217-1.759 1.016-.124-.217-1.76 1.015.124.217-1.759 1.016-.124-.216-1.76 1.016.124.216-1.76 1.016-.124-.217-1.759 1.016.124.217-1.759 1.015-.125-.215-1.759 1.015.124.217-1.76 1.016-.124-.217-1.759 1.015.124.217-1.76 1.016-.124-.216-1.759 1.016.124.216-1.76 1.016-.124-.217-1.76 1.016v.001l.125.216-1.76 1.015zM872.371 259.841l-1.76 1.016.124.217-1.759 1.015-.124-.217-1.76 1.017.124.216-.754.435v.872h-.25v2.032h.25v2.032h-.25v2.031h.25v2.032h-.25v2.032h.25v2.032h-.25v2.031h.25v2.032h-.25v2.033h.25v2.031h-.25v2.032h.25v2.031h-.25v2.033h.25v2.031h-.25v2.032h.25v2.031h-.25v2.032h.25v2.032h-.25v2.032h.25v2.031h-.25v2.032h.25v2.032h-.25v2.032h.25v2.031h-.25v2.032h.25v.87l.754.437-.124.216 1.759 1.016.125-.215 1.759 1.015-.124.216 1.76 1.016.124-.216 1.76 1.015-.125.217 1.759 1.016.125-.216 1.759 1.016-.124.216 1.76 1.015.124-.216 1.76 1.016-.125.217 1.759 1.015.125-.215 1.759 1.015-.124.216 1.76 1.016.124-.216 1.76 1.015-.125.217 1.759 1.016.125-.216 1.76 1.016-.124.215 1.759 1.016.124-.216 1.76 1.016-.125.217 1.76 1.015.125-.215 1.759 1.015-.124.216 1.759 1.016.124-.216 1.76 1.016-.125.216 1.76 1.016.125-.216 1.759 1.016-.124.215 1.759 1.016.124-.216 1.76 1.017-.125.216 1.76 1.015.125-.216.755.436.755-.436.125.216h.001l1.759-1.015h-.001l-.125-.216 1.759-1.017.125.217h.001l1.76-1.016-.126-.216 1.76-1.016.125.216h.001l1.759-1.016h-.001l-.125-.216 1.759-1.016.125.217h.001l1.76-1.016-.126-.217 1.76-1.015.125.215h.001l1.76-1.015h-.001l-.125-.217 1.759-1.016.125.217 1.76-1.016-.126-.216 1.76-1.016.125.216h.001l1.76-1.016h-.001l-.125-.217 1.759-1.015.125.217h.001l1.759-1.016-.126-.217 1.76-1.015.125.215h.001l1.76-1.015-.126-.217 1.76-1.016.125.216 1.759-1.014-.126-.217 1.76-1.016.125.216h.001l1.76-1.016-.126-.217 1.76-1.015.125.216 1.76-1.015-.126-.217 1.759-1.015.125.215h.001l1.76-1.015-.126-.217.755-.437v-.87h.25v-2.032h-.25v-2.031h.25v-2.032h-.25v-2.032h.25v-2.032h-.25v-2.031h.25v-2.032h-.25v-2.032h.25v-2.032h-.25v-2.031h.25v-2.032h-.25v-2.031h.25v-2.033h-.25v-2.031h.25v-2.032h-.25v-2.031h.25v-2.033h-.25v-2.032h.25v-2.031h-.25v-2.032h.25v-2.032h-.25v-2.032h.25v-2.031h-.25v-2.032h.25v-2.032h-.25v-.872l-.755-.435.125-.216.001-.001-1.761-1.016-.125.217-1.759-1.015.125-.217.001-.001-1.76-1.015-.125.216-1.76-1.016.125-.215.001-.001-1.761-1.016-.125.217-1.76-1.016.125-.217.001-.001-1.759-1.014-.125.215-1.76-1.015.125-.217-1.76-1.016-.125.217-1.76-1.015.125-.217.001-.001-1.759-1.016-.001.001-.125.216-1.759-1.016.125-.216-1.76-1.016-.125.217-1.76-1.016.125-.217.001-.001-1.76-1.015v.001l-.125.216-1.759-1.016.125-.217-1.76-1.016-.125.217-1.76-1.015.125-.217.001-.001-1.76-1.016-.001.001-.125.216-1.759-1.016.125-.216-1.759-1.016-.125.217-1.76-1.016.125-.217.001-.001-1.76-1.015-.001.001-.125.216-1.759-1.016.125-.217-1.759-1.015-.125.216-.755-.436-.755.436-.124-.216-1.76 1.015.124.217-1.76 1.016-.124-.216-1.759 1.015.124.217-1.759 1.016-.124-.217-1.76 1.016.124.216-1.76 1.016-.124-.216-1.759 1.016.124.217-1.759 1.015-.124-.217-1.76 1.016.124.217-1.76 1.016-.124-.216-1.759 1.015.124.217-1.76 1.016-.124-.217-1.759 1.016.124.216-1.76 1.016-.124-.216-1.76 1.016.124.217-1.759 1.015-.124-.217-1.759 1.016.124.217-1.76 1.015-.124-.215-1.76 1.015.124.217-1.759 1.016-.124-.217-1.76 1.016v.001l.125.215-1.76 1.016z"
    />
    <path
      d="m917.463 180.857-1.759 1.016.124.217-1.76 1.015-.124-.216-1.76 1.016.124.216-.754.436v.872h-.25v2.031h.25v2.032h-.25v2.031h.25v2.033h-.25v2.031h.25v2.032h-.25v2.031h.25v2.033h-.25v2.032h.25v2.031h-.25v2.032h.25v2.032h-.25v2.032h.25v2.031h-.25v2.032h.25v2.032h-.25v2.032h.25V222h-.25v2.032h.25v2.031h-.25v2.033h.25v2.031h-.25v2.032h.25v2.031h-.25v2.033h.25v.87l.754.436-.124.216 1.759 1.017.125-.216 1.76 1.016-.124.215 1.759 1.016.124-.216 1.76 1.016-.125.217 1.759 1.015.125-.216 1.76 1.016-.124.216 1.759 1.015.124-.215 1.76 1.015-.125.217 1.759 1.016.125-.216 1.76 1.015-.124.216 1.759 1.016.125-.216 1.759 1.016-.125.217 1.759 1.015.125-.216 1.76 1.016-.124.216 1.76 1.015.124-.215 1.759 1.015-.125.217 1.76 1.016.125-.216 1.759 1.015-.124.216 1.76 1.016.124-.216 1.759 1.017-.125.215 1.76 1.016.125-.216 1.759 1.016-.124.216 1.76 1.015.124-.215 1.76 1.016-.125.216 1.759 1.016.125-.216.755.435.755-.435.125.216h.001l1.759-1.016h-.001l-.125-.216 1.76-1.016.125.216h.001l1.759-1.015-.126-.217 1.76-1.016.125.216h.001l1.759-1.016h-.001l-.125-.215 1.76-1.017.125.217h.001l1.759-1.016-.126-.217 1.76-1.015.125.216h.001l1.76-1.016h-.001l-.125-.217 1.759-1.015.125.216h.001l1.76-1.015-.126-.217 1.759-1.016.125.216h.001l1.76-1.015h-.001l-.125-.217 1.759-1.016.125.217h.001l1.76-1.016-.126-.217 1.759-1.015.125.216h.001l1.76-1.016-.126-.217 1.76-1.015.125.215 1.76-1.014-.126-.217 1.759-1.016.125.216h.001l1.76-1.015-.126-.217 1.76-1.016.125.216 1.76-1.015-.126-.216 1.764-1.016.12.216 1.76-1.016-.12-.217.75-.436v-.87h.25v-2.033h-.25v-2.031h.25v-2.032h-.25v-2.031h.25v-2.033h-.25v-2.031h.25V222h-.25v-2.031h.25v-2.032h-.25v-2.032h.25v-2.032h-.25v-2.031h.25v-2.032h-.25v-2.032h.25v-2.032h-.25v-2.031h.25v-2.032h-.25v-2.033h.25v-2.031h-.25v-2.032h.25v-2.031h-.25v-2.033h.25v-2.031h-.25v-2.032h.25v-2.031h-.25v-.872l-.75-.436.12-.216v-.001l-1.76-1.015-.12.216-1.764-1.015.125-.217.001-.001-1.76-1.015-.125.216-1.76-1.015.125-.216.001-.001-1.761-1.016-.125.217-1.759-1.016.125-.216.001-.001-1.76-1.015-.125.216-1.76-1.016.125-.217-1.76-1.015-.125.217-1.759-1.016.125-.217.001-.001-1.76-1.016-.001.001-.125.216-1.759-1.015.125-.217-1.76-1.016-.125.217-1.759-1.016.125-.216.001-.001-1.76-1.016-.001.001-.125.216-1.759-1.016.125-.217-1.76-1.015-.125.217-1.76-1.016.125-.217.001-.001-1.759-1.015-.001.001-.125.215-1.76-1.015.125-.217-1.759-1.016-.125.217-1.76-1.016.125-.216.001-.001-1.759-1.016-.001.001-.125.216-1.76-1.016.125-.217-1.759-1.015-.125.217-.755-.437-.755.437-.124-.217-1.759 1.015.124.217-1.76 1.016-.124-.216-1.76 1.016.124.216-1.759 1.016-.124-.217-1.76 1.016.124.217-1.759 1.015-.124-.215-1.76 1.015.124.217-1.759 1.016-.124-.217-1.76 1.015.124.217-1.759 1.016-.124-.216-1.76 1.016.124.216-1.76 1.016-.124-.217-1.759 1.016.124.217-1.759 1.015-.125-.216-1.759 1.016.124.217-1.76 1.016-.124-.217-1.759 1.015.124.217-1.76 1.016-.124-.216-1.759 1.016.124.216-1.76 1.016-.124-.217-1.76 1.016v.001l.125.216-1.76 1.015z"
    />
  </g>
  <g stroke="#71717a" stroke-dasharray="2 2" stroke-width=".5">
    <path
      d="m273.515 22.857 1.76 1.016-.124.217 1.759 1.015.124-.216 1.76 1.016-.124.216.754.436v.872h.25v2.031h-.25v2.032h.25v2.031h-.25v2.033h.25v2.03h-.25v2.033h.25v2.031h-.25v2.033h.25v2.032h-.25v2.031h.25v2.032h-.25v2.032h.25v2.032h-.25v2.031h.25v2.032h-.25v2.032h.25v2.032h-.25V64h.25v2.032h-.25v2.032h.25v2.032h-.25v2.031h.25v2.032h-.25v2.031h.25v2.033h-.25v.87l-.754.436.124.216-1.759 1.017-.125-.216-1.759 1.015.124.216-1.76 1.016-.124-.216-1.76 1.016.125.217-1.759 1.015-.125-.216-1.759 1.016.124.216-1.76 1.015-.124-.215-1.76 1.015.125.217-1.759 1.016-.125-.216-1.76 1.016.124.215-1.759 1.016-.124-.216-1.76 1.016.125.216-1.759 1.016-.125-.216-1.76 1.016.124.216-1.759 1.015-.124-.215-1.76 1.015.125.217-1.76 1.016-.125-.216-1.759 1.015.124.216-1.759 1.016-.124-.216-1.76 1.017.125.215-1.76 1.016-.125-.216-1.759 1.016.124.216-1.76 1.015-.124-.215-1.759 1.016.125.216-1.76 1.016-.125-.216-.755.435-.755-.435-.125.216h-.001l-1.759-1.016h.001l.125-.216-1.759-1.016-.125.216h-.001l-1.76-1.015.126-.217-1.76-1.016-.125.216h-.001l-1.759-1.016h.001l.125-.215-1.759-1.017-.125.217h-.001l-1.76-1.016.126-.217-1.76-1.015-.125.216h-.001L217.209 96h.001l.125-.217-1.759-1.015-.125.216h-.001l-1.759-1.015.126-.217-1.76-1.016-.125.216h-.001l-1.76-1.016h.001l.125-.216-1.759-1.016-.125.217h-.001l-1.759-1.016.126-.216-1.76-1.016-.125.216h-.001l-1.76-1.016.126-.217-1.76-1.015-.125.215-1.759-1.014.125-.217-1.759-1.016-.125.216h-.001l-1.76-1.015.126-.217-1.76-1.016-.125.216-1.76-1.015.126-.217-1.759-1.015-.125.216h-.001l-1.76-1.016.126-.217-.755-.436v-.87h-.25V76.19h.25v-2.03h-.25v-2.033h.25v-2.031h-.25v-2.032h.25v-2.032h-.25V64h.25v-2.031h-.25v-2.032h.25v-2.032h-.25v-2.032h.25v-2.031h-.25V51.81h.25v-2.032h-.25v-2.032h.25v-2.031h-.25v-2.032h.25V41.65h-.25v-2.03h.25v-2.033h-.25v-2.031h.25v-2.033h-.25v-2.03h.25V29.46h-.25v-2.031h.25v-.872l.755-.436-.125-.216h-.001l1.761-1.016.125.216 1.759-1.015-.125-.217h-.001l1.76-1.016.125.216 1.76-1.015-.125-.216-.001-.001 1.761-1.016.125.217 1.759-1.016-.125-.216v-.001l1.759-1.015.125.216 1.76-1.016-.125-.217 1.76-1.015.125.216 1.76-1.015-.125-.217h-.001l1.759-1.017.001.002.125.215 1.759-1.015-.125-.217 1.76-1.016.125.217 1.76-1.016-.125-.216-.001-.001 1.759-1.016.001.001.125.216 1.759-1.016-.125-.217 1.76-1.015.125.217 1.76-1.016-.125-.217h-.001l1.76-1.016h.001l.125.216 1.759-1.015-.125-.217 1.759-1.016.125.217 1.76-1.016-.125-.216-.001-.001 1.76-1.016.001.001.125.216 1.759-1.016-.125-.217 1.759-1.015.125.217.755-.437.755.437.124-.217 1.76 1.015-.124.217 1.759 1.016.124-.216 1.76 1.016-.124.216 1.759 1.016.124-.217 1.76 1.016-.124.217 1.76 1.015.124-.215 1.759 1.015-.124.217 1.759 1.016.124-.217 1.76 1.015-.124.217 1.76 1.016.124-.216 1.759 1.016-.124.216 1.76 1.016.124-.217 1.759 1.016-.124.217 1.76 1.015.124-.216 1.759 1.016-.124.217 1.76 1.016.124-.217 1.759 1.015-.124.217 1.76 1.016.124-.216 1.76 1.016-.124.216 1.759 1.016.124-.217 1.76 1.016-.125.217 1.76 1.015zM274.616 338.402l1.76 1.016-.124.216 1.76 1.016.124-.217 1.76 1.017-.125.216.754.435v.872h.25v2.032h-.25v2.032h.25v2.031h-.25v2.032h.25v2.031h-.25v2.033h.25v2.031h-.25v2.032h.25v2.032h-.25v2.032h.25v2.032h-.25v2.031h.25v2.032h-.25v2.032h.25v2.032h-.25v2.031h.25v2.032h-.25v2.032h.25v2.032h-.25v2.031h.25v2.032h-.25v2.032h.25v2.032h-.25v2.031h.25v2.032h-.25v.87l-.754.437.125.216-1.759 1.016-.125-.216-1.76 1.016.124.216-1.76 1.016-.124-.216-1.76 1.015.125.217-1.758 1.016-.125-.216-1.76 1.016.124.215-1.76 1.016-.124-.216-1.76 1.016.125.217-1.758 1.015-.125-.216-1.76 1.016.124.216-1.76 1.015-.124-.215-1.76 1.015.125.217-1.759 1.016-.125-.216-1.759 1.016.124.215-1.76 1.016-.124-.216-1.76 1.016.125.217-1.76 1.015-.125-.216-1.758 1.016.124.216-1.76 1.015-.124-.215-1.76 1.016.125.216-1.76 1.016-.125-.216-1.758 1.015.124.216-1.76 1.016-.124-.216-1.76 1.017.125.216-1.76 1.015-.125-.216-.755.436-.755-.436-.125.216h-.001l-1.758-1.015h.001l.125-.216-1.76-1.017-.125.217h-.001l-1.76-1.016.126-.217-1.76-1.015-.125.216h-.001l-1.758-1.016h.001l.125-.216-1.76-1.016-.125.216h-.001l-1.76-1.015.126-.217-1.76-1.016-.125.216h-.001l-1.759-1.015h.001l.125-.217-1.759-1.016-.125.217h-.001l-1.76-1.016.126-.216-1.76-1.016-.125.216h-.001l-1.76-1.016h.001l.125-.217-1.758-1.015-.125.216h-.001l-1.76-1.015.126-.217-1.76-1.016-.125.216h-.001l-1.76-1.015.126-.217-1.759-1.016-.125.216-1.76-1.015.126-.216-1.76-1.016-.125.216h-.001l-1.76-1.016.126-.217-1.76-1.015-.124.216-1.76-1.015.126-.217-1.76-1.016-.125.216h-.001l-1.76-1.015.126-.217-.755-.437v-.87h-.25v-2.032h.25v-2.031h-.25v-2.032h.25v-2.032h-.25v-2.032h.25v-2.031h-.25v-2.032h.25v-2.032h-.25v-2.032h.25v-2.031h-.25v-2.032h.25v-2.032h-.25v-2.032h.25v-2.031h-.25v-2.032h.25v-2.032h-.25v-2.032h.25v-2.032h-.25v-2.031h.25v-2.033h-.25V351.1h.25v-2.032h-.25v-2.031h.25v-2.032h-.25v-2.032h.25v-.872l.755-.435-.125-.216-.001-.001 1.761-1.016.125.217 1.76-1.016-.125-.216-.001-.001 1.76-1.015.124.216 1.76-1.016-.125-.216-.001-.001 1.761-1.015.125.217 1.76-1.016-.125-.217-.001-.001 1.76-1.014.125.215 1.759-1.015-.125-.217 1.76-1.016.125.217 1.76-1.016-.125-.216-.001-.001 1.76-1.016.001.001.125.216 1.758-1.016-.125-.217 1.76-1.015.125.217 1.76-1.016-.125-.217-.001-.001 1.76-1.015.001.001.125.215 1.759-1.015-.125-.217 1.759-1.016.125.217 1.76-1.016-.125-.216-.001-.001 1.76-1.016.001.001.125.216 1.76-1.016-.125-.217 1.758-1.015.125.217 1.76-1.016-.125-.217-.001-.001 1.76-1.015.001.001.125.215 1.76-1.015-.125-.217 1.758-1.016.125.217.755-.436.755.436.124-.217 1.76 1.016-.124.217 1.76 1.015.124-.215 1.76 1.015-.124.217 1.758 1.016.124-.217 1.76 1.015-.124.217 1.76 1.016.124-.216 1.76 1.016-.124.216 1.758 1.016.124-.217 1.76 1.016-.124.217 1.76 1.015.124-.215 1.76 1.015-.124.217 1.759 1.016.124-.217 1.759 1.015-.124.217 1.76 1.016.124-.216 1.76 1.016-.124.216 1.76 1.016.124-.217 1.758 1.016-.124.217 1.76 1.015.124-.215 1.76 1.015-.124.217 1.76 1.016.124-.217 1.759 1.015v.001l-.125.216 1.76 1.016z"
    />
    <path
      d="m228.515 101.857 1.76 1.016-.124.217 1.759 1.015.124-.216 1.76 1.016-.124.216.754.436v.872h.25v2.031h-.25v2.032h.25v2.031h-.25v2.033h.25v2.031h-.25v2.032h.25v2.031h-.25v2.033h.25v2.032h-.25v2.031h.25v2.032h-.25v2.032h.25v2.032h-.25v2.031h.25v2.032h-.25v2.032h.25v2.032h-.25V143h.25v2.032h-.25v2.031h.25v2.033h-.25v2.031h.25v2.032h-.25v2.031h.25v2.033h-.25v.87l-.754.436.124.216-1.759 1.017-.125-.216-1.759 1.016.124.215-1.76 1.016-.124-.216-1.76 1.016.125.217-1.759 1.015-.125-.216-1.759 1.016.124.216-1.76 1.015-.124-.215-1.76 1.015.125.217-1.759 1.016-.125-.216-1.76 1.015.124.216-1.759 1.016-.124-.216-1.76 1.016.125.217-1.759 1.015-.125-.216-1.76 1.016.124.216-1.759 1.015-.124-.215-1.76 1.015.125.217-1.76 1.016-.125-.216-1.759 1.015.124.216-1.759 1.016-.124-.216-1.76 1.017.125.215-1.76 1.016-.125-.216-1.759 1.016.124.216-1.76 1.015-.124-.215-1.759 1.016.125.216-1.76 1.016-.125-.216-.755.435-.755-.435-.125.216h-.001l-1.759-1.016h.001l.125-.216-1.759-1.016-.125.216h-.001l-1.76-1.015.126-.217-1.76-1.016-.125.216h-.001l-1.759-1.016h.001l.125-.215-1.759-1.017-.125.217h-.001l-1.76-1.016.126-.217-1.76-1.015-.125.216h-.001l-1.76-1.016h.001l.125-.217-1.759-1.015-.125.216h-.001l-1.759-1.015.126-.217-1.76-1.016-.125.216h-.001l-1.76-1.015h.001l.125-.217-1.759-1.016-.125.217h-.001l-1.759-1.016.126-.217-1.76-1.015-.125.216h-.001l-1.76-1.016.126-.217-1.76-1.015-.125.215-1.759-1.014.125-.217-1.759-1.016-.125.216h-.001l-1.76-1.015.126-.217-1.76-1.016-.125.216-1.76-1.015.126-.216-1.759-1.016-.125.216h-.001l-1.76-1.016.126-.217-.755-.436v-.87h-.25v-2.033h.25v-2.031h-.25v-2.032h.25v-2.031h-.25v-2.033h.25v-2.031h-.25V143h.25v-2.031h-.25v-2.032h.25v-2.032h-.25v-2.032h.25v-2.031h-.25v-2.032h.25v-2.032h-.25v-2.032h.25v-2.031h-.25v-2.032h.25v-2.033h-.25v-2.031h.25v-2.032h-.25v-2.031h.25v-2.033h-.25v-2.031h.25v-2.032h-.25v-2.031h.25v-.872l.755-.436-.125-.216-.001-.001 1.761-1.015.125.216 1.759-1.015-.125-.217-.001-.001 1.76-1.015.125.216 1.76-1.015-.125-.216-.001-.001 1.761-1.016.125.217 1.759-1.016-.125-.216v-.001l1.759-1.015.125.216 1.76-1.016-.125-.217 1.76-1.015.125.216 1.76-1.015-.125-.217h-.001l1.759-1.016h.001l.125.216 1.759-1.015-.125-.217 1.76-1.016.125.217 1.76-1.016-.125-.216-.001-.001 1.759-1.016.001.001.125.216 1.759-1.016-.125-.217 1.76-1.015.125.217 1.76-1.016-.125-.217h-.001l1.76-1.016h.001l.125.216 1.759-1.015-.125-.217 1.759-1.016.125.217 1.76-1.016-.125-.216-.001-.001 1.76-1.016.001.001.125.216 1.759-1.016-.125-.217 1.759-1.015.125.217.755-.437.755.437.124-.217 1.76 1.015-.124.217 1.759 1.016.124-.216 1.76 1.016-.124.216 1.759 1.016.124-.217 1.76 1.016-.124.217 1.76 1.015.124-.216 1.759 1.016-.124.217 1.759 1.016.124-.217 1.76 1.015-.124.217 1.76 1.016.124-.216 1.759 1.016-.124.216 1.76 1.016.124-.217 1.759 1.016-.124.217 1.76 1.015.124-.215 1.759 1.015-.124.217 1.76 1.016.124-.217 1.759 1.015-.124.217 1.76 1.016.124-.216 1.76 1.016-.124.216 1.759 1.016.124-.217 1.76 1.016v.001l-.125.216 1.76 1.015zM228.607 259.841l1.76 1.016-.124.217 1.76 1.015.124-.217 1.759 1.017-.124.216.754.435v.872h.25v2.032h-.25v2.032h.25v2.031h-.25v2.032h.25v2.032h-.25v2.032h.25v2.031h-.25v2.032h.25v2.033h-.25v2.031h.25v2.032h-.25v2.031h.25v2.033h-.25v2.031h.25v2.032h-.25v2.031h.25v2.032h-.25v2.032h.25v2.032h-.25v2.031h.25v2.032h-.25v2.032h.25v2.032h-.25v2.031h.25v2.032h-.25v.87l-.754.437.124.216-1.758 1.016-.125-.215-1.76 1.015.124.216-1.76 1.016-.124-.216-1.76 1.015.125.217-1.758 1.016-.125-.216-1.76 1.016.124.216-1.76 1.015-.124-.216-1.76 1.016.125.217-1.758 1.015-.125-.215-1.76 1.015.124.216-1.76 1.016-.124-.216-1.76 1.015.125.217-1.759 1.016-.125-.216-1.759 1.016.124.215-1.76 1.016-.124-.216-1.76 1.016.125.217-1.76 1.015-.125-.215-1.758 1.015.124.216-1.76 1.016-.124-.216-1.76 1.016.125.216-1.76 1.016-.125-.216-1.759 1.016.125.215-1.76 1.016-.124-.216-1.76 1.017.125.216-1.76 1.015-.125-.216-.755.436-.755-.436-.125.216h-.001l-1.758-1.015h.001l.125-.216-1.76-1.017-.125.217h-.001l-1.76-1.016.126-.216-1.76-1.016-.125.216h-.001l-1.758-1.016h.001l.125-.216-1.76-1.016-.125.217h-.001l-1.76-1.016.126-.217-1.76-1.015-.125.215h-.001l-1.759-1.015.125-.217-1.758-1.016-.125.217h-.001l-1.76-1.016.126-.216-1.76-1.016-.125.216h-.001l-1.76-1.016h.001l.125-.217-1.758-1.015-.125.217h-.001l-1.76-1.016.126-.217-1.76-1.015-.125.215h-.001l-1.76-1.015.126-.217-1.759-1.016-.125.216-1.76-1.014.126-.217-1.76-1.016-.125.216h-.001l-1.76-1.016.126-.217-1.76-1.015-.125.216-1.759-1.015.126-.217-1.76-1.015-.125.215h-.001l-1.76-1.015.126-.217-.755-.437v-.87h-.25v-2.032h.25v-2.031h-.25v-2.032h.25v-2.032h-.25v-2.032h.25v-2.031h-.25v-2.032h.25v-2.032h-.25v-2.032h.25v-2.031h-.25v-2.032h.25v-2.031h-.25v-2.033h.25v-2.031h-.25v-2.032h.25v-2.031h-.25v-2.033h.25v-2.032h-.25v-2.031h.25v-2.032h-.25v-2.032h.25v-2.032h-.25v-2.031h.25v-2.032h-.25v-2.032h.25v-.872l.755-.435-.125-.216-.001-.001 1.761-1.016.125.217 1.76-1.015-.125-.217-.001-.001 1.759-1.015.125.216 1.76-1.016-.125-.215-.001-.001 1.761-1.016.125.217 1.76-1.016-.125-.217-.001-.001 1.76-1.014.125.215 1.759-1.015-.125-.217 1.76-1.016.125.217 1.76-1.015-.125-.217-.001-.001 1.76-1.016.001.001.125.216 1.758-1.016-.125-.216 1.76-1.016.125.217 1.76-1.016-.125-.217-.001-.001 1.76-1.015.001.001.125.216 1.758-1.016-.125-.217 1.76-1.016.125.217 1.76-1.015-.125-.217-.001-.001 1.76-1.016.001.001.125.216 1.76-1.016-.125-.216 1.758-1.016.125.217 1.76-1.016-.125-.217-.001-.001 1.76-1.015.001.001.125.216 1.76-1.016-.125-.217 1.758-1.015.125.216.755-.436.755.436.124-.216 1.76 1.015-.124.217 1.76 1.016.124-.216 1.76 1.015-.125.217 1.759 1.016.124-.217 1.76 1.016-.124.216 1.76 1.016.124-.216 1.76 1.016-.124.217 1.758 1.015.124-.217 1.76 1.016-.124.217 1.76 1.016.124-.216 1.76 1.015-.124.217 1.759 1.016.124-.217 1.759 1.016-.124.216 1.76 1.016.124-.216 1.76 1.016-.124.217 1.76 1.015.124-.217 1.758 1.016-.124.217 1.76 1.015.124-.215 1.76 1.015-.124.217 1.76 1.016.124-.217 1.759 1.016v.001l-.125.215 1.76 1.016z"
    />
    <path
      d="m183.515 180.857 1.76 1.016-.124.217 1.759 1.015.124-.216 1.76 1.016-.124.216.754.436v.872h.25v2.031h-.25v2.032h.25v2.031h-.25v2.033h.25v2.031h-.25v2.032h.25v2.031h-.25v2.033h.25v2.032h-.25v2.031h.25v2.032h-.25v2.032h.25v2.032h-.25v2.031h.25v2.032h-.25v2.032h.25v2.032h-.25V222h.25v2.032h-.25v2.031h.25v2.033h-.25v2.031h.25v2.032h-.25v2.031h.25v2.033h-.25v.87l-.754.436.124.216-1.759 1.017-.125-.216-1.759 1.016.124.215-1.76 1.016-.124-.216-1.76 1.016.125.217-1.759 1.015-.125-.216-1.759 1.016.124.216-1.76 1.015-.124-.215-1.76 1.015.125.217-1.759 1.016-.125-.216-1.76 1.015.124.216-1.759 1.016-.124-.216-1.76 1.016.125.217-1.759 1.015-.125-.216-1.76 1.016.124.216-1.759 1.015-.124-.215-1.76 1.015.125.217-1.76 1.016-.125-.216-1.759 1.015.124.216-1.759 1.016-.124-.216-1.76 1.017.125.215-1.76 1.016-.125-.216-1.759 1.016.124.216-1.76 1.015-.124-.215-1.759 1.016.125.216-1.76 1.016-.125-.216-.755.435-.755-.435-.125.216h-.001l-1.759-1.016h.001l.125-.216-1.759-1.016-.125.216h-.001l-1.76-1.015.126-.217-1.76-1.016-.125.216h-.001l-1.759-1.016h.001l.125-.215-1.759-1.017-.125.217h-.001l-1.76-1.016.126-.217-1.76-1.015-.125.216h-.001l-1.76-1.016h.001l.125-.217-1.759-1.015-.125.216h-.001l-1.759-1.015.126-.217-1.76-1.016-.125.216h-.001l-1.76-1.015h.001l.125-.217-1.759-1.016-.125.217h-.001l-1.759-1.016.126-.217-1.76-1.015-.125.216h-.001l-1.76-1.016.126-.217-1.76-1.015-.125.215-1.759-1.014.125-.217-1.759-1.016-.125.216h-.001l-1.76-1.015.126-.217-1.76-1.016-.125.216-1.76-1.015.126-.216-1.759-1.016-.125.216h-.001l-1.76-1.016.126-.217-.755-.436v-.87h-.25v-2.033h.25v-2.031h-.25v-2.032h.25v-2.031h-.25v-2.033h.25v-2.031h-.25V222h.25v-2.031h-.25v-2.032h.25v-2.032h-.25v-2.032h.25v-2.031h-.25v-2.032h.25v-2.032h-.25v-2.032h.25v-2.031h-.25v-2.032h.25v-2.033h-.25v-2.031h.25v-2.032h-.25v-2.031h.25v-2.033h-.25v-2.031h.25v-2.032h-.25v-2.031h.25v-.872l.755-.436-.125-.216-.001-.001 1.761-1.015.125.216 1.759-1.015-.125-.217-.001-.001 1.76-1.015.125.216 1.76-1.015-.125-.216-.001-.001 1.761-1.016.125.217 1.759-1.016-.125-.216v-.001l1.759-1.015.125.216 1.76-1.016-.125-.217 1.76-1.015.125.217 1.76-1.016-.125-.217-.001-.001 1.759-1.016.001.001.125.216 1.759-1.015-.125-.217 1.76-1.016.125.217 1.76-1.016-.125-.216-.001-.001 1.759-1.016.001.001.125.216 1.759-1.016-.125-.217 1.76-1.015.125.217 1.76-1.016-.125-.217-.001-.001 1.76-1.015.001.001.125.215 1.759-1.015-.125-.217 1.759-1.016.125.217 1.76-1.016-.125-.216-.001-.001 1.76-1.016.001.001.125.216 1.759-1.016-.125-.217 1.759-1.015.125.217.755-.437.755.437.124-.217 1.76 1.015-.124.217 1.759 1.016.124-.216 1.76 1.016-.124.216 1.759 1.016.124-.217 1.76 1.016-.124.217 1.76 1.015.124-.215 1.759 1.015-.124.217 1.759 1.016.124-.217 1.76 1.015-.124.217 1.76 1.016.124-.216 1.759 1.016-.124.216 1.76 1.016.124-.217 1.759 1.016-.124.217 1.76 1.015.124-.216 1.759 1.016-.124.217 1.76 1.016.124-.217 1.759 1.015-.124.217 1.76 1.016.124-.216 1.76 1.016-.124.216 1.759 1.016.124-.217 1.76 1.016v.001l-.125.216 1.76 1.015zM182.414 22.857l1.76 1.016-.124.217 1.76 1.015.124-.216 1.759 1.016-.124.216.754.436v.872h.25v2.031h-.25v2.032h.25v2.031h-.25v2.033h.25v2.03h-.25v2.033h.25v2.031h-.25v2.033h.25v2.032h-.25v2.031h.25v2.032h-.25v2.032h.25v2.032h-.25v2.031h.25v2.032h-.25v2.032h.25v2.032h-.25V64h.25v2.032h-.25v2.032h.25v2.032h-.25v2.031h.25v2.032h-.25v2.031h.25v2.033h-.25v.87l-.754.436.124.216-1.758 1.017-.125-.216-1.76 1.015.124.216-1.76 1.016-.124-.216-1.76 1.016.125.217-1.759 1.015-.125-.216-1.759 1.016.124.216-1.76 1.015-.124-.215-1.76 1.015.125.217-1.759 1.016-.125-.216-1.759 1.016.124.215-1.76 1.016-.124-.216-1.76 1.016.125.216-1.759 1.016-.125-.216-1.759 1.016.124.216-1.76 1.015-.124-.215-1.76 1.015.125.217-1.76 1.016-.125-.216-1.759 1.015.124.216-1.759 1.016-.124-.216-1.76 1.017.125.215-1.76 1.016-.125-.216-1.759 1.016.124.216-1.759 1.015-.124-.215-1.76 1.016.125.216-1.76 1.016-.125-.216-.755.435-.755-.435-.125.216h-.001l-1.758-1.016h.001l.125-.216-1.76-1.016-.125.216h-.001l-1.76-1.015.126-.217-1.76-1.016-.125.216h-.001l-1.759-1.016h.001l.125-.215-1.759-1.017-.125.217h-.001l-1.76-1.016.126-.217-1.76-1.015-.125.216h-.001L126.108 96h.001l.125-.217-1.758-1.015-.125.216h-.001l-1.76-1.015.126-.217-1.76-1.016-.125.216h-.001l-1.76-1.016h.001l.125-.216-1.758-1.016-.126.217-1.76-1.016.126-.216-1.76-1.016-.125.216h-.001l-1.76-1.016.126-.217-1.76-1.015-.125.215-1.759-1.014.126-.217-1.76-1.016-.125.216h-.001l-1.76-1.015.126-.217-1.76-1.016-.125.216-1.759-1.015.126-.217-1.76-1.015-.125.216h-.001l-1.76-1.016.126-.217-.755-.436v-.87h-.25V76.19h.25v-2.03h-.25v-2.033h.25v-2.031h-.25v-2.032h.25v-2.032h-.25V64h.25v-2.031h-.25v-2.032h.25v-2.032h-.25v-2.032h.25v-2.031h-.25V51.81h.25v-2.032h-.25v-2.032h.25v-2.031h-.25v-2.032h.25V41.65h-.25v-2.03h.25v-2.033h-.25v-2.031h.25v-2.033h-.25v-2.03h.25V29.46h-.25v-2.031h.25v-.872l.755-.436-.125-.216 1.76-1.016.125.216 1.76-1.015-.125-.217h-.001l1.759-1.016.125.216 1.76-1.015-.125-.216-.001-.001 1.761-1.016.125.217 1.76-1.016-.125-.216-.001-.001 1.759-1.015.125.216 1.76-1.016-.125-.217 1.76-1.015.125.216 1.76-1.015-.125-.217h-.001l1.76-1.017v.002l.126.215 1.758-1.015-.125-.217 1.76-1.016.125.217 1.76-1.016-.125-.216-.001-.001 1.76-1.016.001.001.125.216 1.758-1.016-.125-.217 1.76-1.015.125.217 1.76-1.016-.125-.217h-.001l1.76-1.016h.001l.125.216 1.759-1.015-.125-.217 1.759-1.016.125.217 1.76-1.016-.125-.216-.001-.001 1.76-1.016.001.001.125.216 1.76-1.016-.125-.217 1.758-1.015.125.217.755-.437.755.437.124-.217 1.76 1.015-.124.217 1.76 1.016.124-.216 1.759 1.016-.124.216 1.759 1.016.124-.217 1.76 1.016-.124.217 1.76 1.015.124-.215 1.759 1.015-.124.217 1.759 1.016.124-.217 1.76 1.015-.124.217 1.76 1.016.124-.216 1.76 1.016-.124.216 1.759 1.016.124-.217 1.759 1.016-.124.217 1.76 1.015.124-.216 1.76 1.016-.124.217 1.759 1.016.124-.217 1.759 1.015-.124.217 1.76 1.016.124-.216 1.76 1.016-.124.216 1.759 1.016.125-.217 1.759 1.016-.125.217 1.76 1.015zM183.515 338.402l1.76 1.016-.124.216 1.76 1.016.124-.217 1.76 1.017-.124.216.754.435v.872h.25v2.032h-.25v2.032h.25v2.031h-.25v2.032h.25v2.031h-.25v2.033h.25v2.031h-.25v2.032h.25v2.032h-.25v2.032h.25v2.032h-.25v2.031h.25v2.032h-.25v2.032h.25v2.032h-.25v2.031h.25v2.032h-.25v2.032h.25v2.032h-.25v2.031h.25v2.032h-.25v2.032h.25v2.032h-.25v2.031h.25v2.032h-.25v.87l-.754.437.124.216-1.759 1.016-.125-.216-1.76 1.016.124.216-1.76 1.016-.124-.216-1.759 1.015.125.217-1.759 1.016-.125-.216-1.76 1.016.124.215-1.76 1.016-.124-.216-1.759 1.016.125.217-1.759 1.015-.125-.216-1.76 1.016.124.216-1.76 1.015-.124-.215-1.76 1.015.125.217-1.758 1.016-.125-.216-1.76 1.016.124.215-1.76 1.016-.124-.216-1.76 1.016.125.217-1.759 1.015-.125-.216-1.759 1.016.124.216-1.76 1.015-.124-.215-1.76 1.016.125.216-1.76 1.016-.125-.216-1.758 1.015.124.216-1.76 1.016-.124-.216-1.76 1.017.125.216-1.76 1.015-.125-.216-.754.436-.755-.436-.125.216h-.001l-1.759-1.015h.001l.125-.216-1.76-1.017-.125.217h-.001l-1.76-1.016.126-.217-1.759-1.015-.125.216h-.001l-1.759-1.016h.001l.125-.216-1.76-1.016-.125.216h-.001l-1.76-1.015.126-.217-1.76-1.016-.125.216h-.001l-1.759-1.015h.001l.125-.217-1.759-1.016-.125.217h-.001l-1.76-1.016.126-.216-1.76-1.016-.125.216h-.001l-1.759-1.016h.001l.125-.217-1.759-1.015-.125.216h-.001l-1.76-1.015.126-.217-1.76-1.016-.125.216h-.001l-1.759-1.015.126-.217-1.76-1.016-.125.216-1.76-1.015.126-.216-1.76-1.016-.125.216h-.001l-1.76-1.016.126-.217-1.759-1.015-.125.216-1.76-1.015.126-.217-1.76-1.016-.125.216h-.001l-1.76-1.015.126-.217-.755-.437v-.87h-.25v-2.032h.25v-2.031h-.25v-2.032h.25v-2.032h-.25v-2.032h.25v-2.031h-.25v-2.032h.25v-2.032h-.25v-2.032h.25v-2.031h-.25v-2.032h.25v-2.032h-.25v-2.032h.25v-2.031h-.25v-2.032h.25v-2.032h-.25v-2.032h.25v-2.032h-.25v-2.031h.25v-2.033h-.25V351.1h.25v-2.032h-.25v-2.031h.25v-2.032h-.25v-2.032h.25v-.872l.755-.435-.125-.216v-.001l1.76-1.016.125.217 1.76-1.016-.125-.216-.001-.001 1.76-1.015.125.216 1.759-1.016-.125-.216-.001-.001 1.761-1.015.125.217 1.76-1.016-.125-.217-.001-.001 1.76-1.014.125.215 1.76-1.015-.125-.217 1.759-1.016.125.217 1.76-1.016-.125-.216-.001-.001 1.76-1.016.001.001.125.216 1.759-1.016-.125-.217 1.759-1.015.125.217 1.76-1.016-.125-.217-.001-.001 1.76-1.015.001.001.125.215 1.759-1.015-.125-.217 1.759-1.016.125.217 1.76-1.016-.125-.216-.001-.001 1.76-1.016.001.001.125.216 1.76-1.016-.125-.217 1.759-1.015.125.217 1.759-1.016-.125-.217-.001-.001 1.76-1.015.001.001.125.215 1.76-1.015-.125-.217 1.759-1.016.125.217.755-.436.754.436.124-.217 1.76 1.016-.124.217 1.76 1.015.124-.215 1.76 1.015-.124.217 1.758 1.016.125-.217 1.759 1.015-.124.217 1.76 1.016.124-.216 1.76 1.016-.124.216 1.759 1.016.124-.217 1.759 1.016-.124.217 1.76 1.015.124-.215 1.76 1.015-.124.217 1.76 1.016.124-.217 1.758 1.015-.124.217 1.76 1.016.124-.216 1.76 1.016-.124.216 1.76 1.016.124-.217 1.759 1.016-.124.217 1.759 1.015.124-.215 1.76 1.015-.124.217 1.76 1.016.124-.217 1.76 1.015v.001l-.125.216 1.759 1.016z"
    />
    <path
      d="m137.414 101.857 1.76 1.016-.124.217 1.76 1.015.124-.216 1.759 1.016-.124.216.754.436v.872h.25v2.031h-.25v2.032h.25v2.031h-.25v2.033h.25v2.031h-.25v2.032h.25v2.031h-.25v2.033h.25v2.032h-.25v2.031h.25v2.032h-.25v2.032h.25v2.032h-.25v2.031h.25v2.032h-.25v2.032h.25v2.032h-.25V143h.25v2.032h-.25v2.031h.25v2.033h-.25v2.031h.25v2.032h-.25v2.031h.25v2.033h-.25v.87l-.754.436.124.216-1.758 1.017-.125-.216-1.76 1.016.124.215-1.76 1.016-.124-.216-1.76 1.016.125.217-1.759 1.015-.125-.216-1.759 1.016.124.216-1.76 1.015-.124-.215-1.76 1.015.125.217-1.759 1.016-.125-.216-1.759 1.015.124.216-1.76 1.016-.124-.216-1.76 1.016.125.217-1.759 1.015-.125-.216-1.759 1.016.124.216-1.76 1.015-.124-.215-1.76 1.015.125.217-1.76 1.016-.125-.216-1.759 1.015.124.216-1.759 1.016-.124-.216-1.76 1.017.125.215-1.76 1.016-.125-.216-1.759 1.016.124.216-1.759 1.015-.124-.215-1.76 1.016.125.216-1.76 1.016-.125-.216-.755.435-.755-.435-.125.216-1.76-1.016h.001l.125-.216-1.76-1.016-.124.216h-.001l-1.76-1.015.126-.217-1.76-1.016-.125.216-1.76-1.016h.001l.125-.215-1.76-1.017-.124.217h-.001l-1.76-1.016.126-.217-1.76-1.015-.125.216-1.76-1.016.125-.217-1.758-1.015-.125.216h-.001l-1.76-1.015.126-.217-1.76-1.016-.125.216-1.76-1.015.125-.217-1.758-1.016-.126.217-1.76-1.016.126-.217-1.76-1.015-.125.216h-.001l-1.76-1.016.126-.217-1.76-1.015-.125.215-1.76-1.014.127-.217-1.76-1.016-.125.216h-.001l-1.76-1.015.126-.217-1.76-1.016-.125.216-1.76-1.015.127-.216-1.76-1.016-.125.216h-.001l-1.76-1.016.126-.217-.755-.436v-.87h-.25v-2.033h.25v-2.031h-.25v-2.032h.25v-2.031h-.25v-2.033h.25v-2.031h-.25V143h.25v-2.031h-.25v-2.032h.25v-2.032h-.25v-2.032h.25v-2.031h-.25v-2.032h.25v-2.032h-.25v-2.032h.25v-2.031h-.25v-2.032h.25v-2.033h-.25v-2.031h.25v-2.032h-.25v-2.031h.25v-2.033h-.25v-2.031h.25v-2.032h-.25v-2.031h.25v-.872l.755-.436-.125-.216v-.001l1.76-1.015.125.216 1.76-1.015-.125-.217-.001-.001 1.76-1.015.124.216 1.76-1.015-.125-.216v-.001l1.76-1.016.125.217 1.76-1.016-.125-.216-.001-.001 1.76-1.015.124.216 1.76-1.016-.125-.217 1.76-1.015.125.216 1.76-1.015-.125-.217h-.001l1.76-1.016.126.216 1.758-1.015-.125-.217 1.76-1.016.125.217 1.76-1.016-.125-.216-.001-.001 1.76-1.016v.001l.126.216 1.758-1.016-.125-.217 1.76-1.015.125.217 1.76-1.016-.125-.217h-.001l1.76-1.016.126.216 1.76-1.015-.126-.217 1.76-1.016.124.217 1.76-1.016-.125-.216-.001-.001 1.76-1.016v.001l.126.216 1.76-1.016-.126-.217 1.76-1.015.124.217.755-.437.755.437.124-.217 1.76 1.015-.124.217 1.76 1.016.124-.216 1.759 1.016-.124.216 1.759 1.016.124-.217 1.76 1.016-.124.217 1.76 1.015.124-.216 1.759 1.016-.124.217 1.759 1.016.124-.217 1.76 1.015-.124.217 1.76 1.016.124-.216 1.76 1.016-.124.216 1.759 1.016.124-.217 1.759 1.016-.124.217 1.76 1.015.124-.215 1.76 1.015-.124.217 1.759 1.016.124-.217 1.759 1.015-.124.217 1.76 1.016.124-.216 1.76 1.016-.124.216 1.759 1.016.125-.217 1.759 1.016v.001l-.125.216 1.76 1.015zM137.506 259.841l1.76 1.016-.124.217 1.76 1.015.124-.217 1.76 1.017-.124.216.754.435v.872h.25v2.032h-.25v2.032h.25v2.031h-.25v2.032h.25v2.032h-.25v2.032h.25v2.031h-.25v2.032h.25v2.033h-.25v2.031h.25v2.032h-.25v2.031h.25v2.033h-.25v2.031h.25v2.032h-.25v2.031h.25v2.032h-.25v2.032h.25v2.032h-.25v2.031h.25v2.032h-.25v2.032h.25v2.032h-.25v2.031h.25v2.032h-.25v.87l-.754.437.124.216-1.759 1.016-.125-.215-1.76 1.015.124.216-1.76 1.016-.124-.216-1.759 1.015.125.217-1.759 1.016-.125-.216-1.76 1.016.124.216-1.76 1.015-.124-.216-1.76 1.016.125.217-1.758 1.015-.125-.215-1.76 1.015.124.216-1.76 1.016-.124-.216-1.76 1.015.125.217-1.758 1.016-.125-.216-1.76 1.016.124.215-1.76 1.016-.124-.216-1.76 1.016.125.217-1.759 1.015-.125-.215-1.759 1.015.124.216-1.76 1.016-.124-.216-1.76 1.016.125.216-1.76 1.016-.125-.216-1.758 1.016.124.215-1.76 1.016-.124-.216-1.76 1.017.125.216-1.76 1.015-.125-.216-.754.436-.755-.436-.125.216h-.001l-1.76-1.015h.002l.125-.216-1.76-1.017-.125.217-1.76-1.016.125-.216-1.76-1.016-.124.216h-.001l-1.76-1.016h.002l.125-.216-1.76-1.016-.125.217h-.001l-1.76-1.016.126-.217-1.76-1.015-.125.215-1.76-1.015.126-.217-1.76-1.016-.124.217h-.001l-1.76-1.016.126-.216-1.76-1.016-.125.216-1.76-1.016.126-.217-1.76-1.015-.124.217h-.001l-1.76-1.016.126-.217-1.76-1.015-.125.215-1.76-1.015.126-.217-1.76-1.016-.125.216-1.76-1.014.126-.217-1.76-1.016-.125.216-1.76-1.016.125-.217-1.76-1.015-.124.216-1.76-1.015.126-.217-1.76-1.015-.125.215-1.76-1.015.125-.217-.755-.437v-.87h-.25v-2.032h.25v-2.031h-.25v-2.032h.25v-2.032h-.25v-2.032h.25v-2.031h-.25v-2.032h.25v-2.032h-.25v-2.032h.25v-2.031h-.25v-2.032h.25v-2.031h-.25v-2.033h.25v-2.031h-.25v-2.032h.25v-2.031h-.25v-2.033h.25v-2.032h-.25v-2.031h.25v-2.032h-.25v-2.032h.25v-2.032h-.25v-2.031h.25v-2.032h-.25v-2.032h.25v-.872l.755-.435-.125-.216v-.001l1.76-1.016.125.217 1.76-1.015-.125-.217-.001-.001 1.76-1.015.125.216 1.76-1.016-.126-.215v-.001l1.76-1.016.125.217 1.76-1.016-.125-.217-.001-.001 1.76-1.014.125.215 1.76-1.015-.126-.217 1.76-1.016.125.217 1.76-1.015-.125-.217-.001-.001 1.76-1.016v.001l.126.216 1.759-1.016-.125-.216 1.76-1.016.124.217 1.76-1.016-.125-.217v-.001l1.759-1.015v.001l.126.216 1.759-1.016-.125-.217 1.76-1.016.124.217 1.76-1.015-.125-.217v-.001l1.759-1.016.001.001.125.216 1.76-1.016-.125-.216 1.758-1.016.126.217 1.76-1.016-.126-.217v-.001l1.76-1.015v.001l.125.216 1.76-1.016-.125-.217 1.759-1.015.125.216.755-.436.754.436.124-.216 1.76 1.015-.124.217 1.76 1.016.124-.216 1.76 1.015-.124.217 1.758 1.016.124-.217 1.76 1.016-.124.216 1.76 1.016.124-.216 1.76 1.016-.124.217 1.759 1.015.124-.217 1.759 1.016-.124.217 1.76 1.016.124-.216 1.76 1.015-.124.217 1.76 1.016.124-.217 1.758 1.016-.124.216 1.76 1.016.124-.216 1.76 1.016-.124.217 1.76 1.015.124-.217 1.758 1.016-.124.217 1.76 1.015.124-.215 1.76 1.015-.124.217 1.76 1.016.124-.217 1.76 1.016v.001l-.125.215 1.759 1.016z"
    />
    <path
      d="m92.414 180.857 1.76 1.016-.124.217 1.76 1.015.124-.216 1.76 1.016-.125.216.754.436v.872h.25v2.031h-.25v2.032h.25v2.031h-.25v2.033h.25v2.031h-.25v2.032h.25v2.031h-.25v2.033h.25v2.032h-.25v2.031h.25v2.032h-.25v2.032h.25v2.032h-.25v2.031h.25v2.032h-.25v2.032h.25v2.032h-.25V222h.25v2.032h-.25v2.031h.25v2.033h-.25v2.031h.25v2.032h-.25v2.031h.25v2.033h-.25v.87l-.754.436.124.216-1.758 1.017-.125-.216-1.76 1.016.124.215-1.76 1.016-.124-.216-1.76 1.016.125.217-1.758 1.015-.126-.216-1.76 1.016.125.216-1.76 1.015-.124-.215-1.76 1.015.125.217-1.759 1.016-.125-.216-1.76 1.015.125.216-1.76 1.016-.124-.216-1.76 1.016.125.217-1.759 1.015-.125-.216-1.76 1.016.125.216-1.76 1.015-.124-.215-1.76 1.015.125.217-1.76 1.016-.125-.216-1.759 1.015.124.216-1.76 1.016-.123-.216-1.76 1.017.125.215-1.76 1.016-.125-.216-1.759 1.016.124.216-1.76 1.015-.123-.215-1.76 1.016.125.216-1.76 1.016-.125-.216-.755.435-.755-.435-.125.216-1.76-1.016h.002l.125-.216-1.76-1.016-.125.216h-.001l-1.76-1.015.126-.217-1.76-1.016-.125.216-1.76-1.016h.001l.125-.215-1.76-1.017-.124.217h-.001l-1.76-1.016.126-.217-1.76-1.015-.125.216-1.76-1.016.125-.217-1.758-1.015-.125.216h-.001l-1.76-1.015.126-.217-1.76-1.016-.125.216-1.76-1.015.125-.217-1.759-1.016-.125.217-1.76-1.016.126-.217-1.76-1.015-.125.216h-.001l-1.76-1.016.126-.217-1.76-1.015-.125.215-1.76-1.014.127-.217-1.76-1.016-.125.216h-.001l-1.76-1.015.126-.217-1.76-1.016-.125.216-1.76-1.015.127-.216-1.76-1.016-.125.216h-.001l-1.76-1.016.126-.217-.755-.436v-.87h-.25v-2.033h.25v-2.031h-.25v-2.032h.25v-2.031h-.25v-2.033h.25v-2.031h-.25V222h.25v-2.031h-.25v-2.032h.25v-2.032h-.25v-2.032h.25v-2.031h-.25v-2.032h.25v-2.032h-.25v-2.032h.25v-2.031h-.25v-2.032h.25v-2.033h-.25v-2.031h.25v-2.032h-.25v-2.031h.25v-2.033h-.25v-2.031h.25v-2.032h-.25v-2.031h.25v-.872l.755-.436-.125-.216v-.001l1.76-1.015.125.216 1.76-1.015-.125-.217-.001-.001 1.76-1.015.124.216 1.76-1.015-.125-.216v-.001l1.76-1.016.125.217 1.76-1.016-.125-.216-.001-.001 1.76-1.015.124.216 1.76-1.016-.125-.217 1.76-1.015.125.217 1.76-1.016-.125-.217-.001-.001 1.76-1.016v.001l.125.216 1.76-1.015-.126-.217 1.76-1.016.125.217 1.76-1.016-.125-.216-.001-.001 1.76-1.016v.001l.126.216 1.758-1.016-.125-.217 1.76-1.015.125.217 1.76-1.016-.125-.217-.001-.001 1.76-1.015v.001l.126.215 1.76-1.015-.126-.217 1.76-1.016.124.217 1.76-1.016-.125-.216-.001-.001 1.76-1.016v.001l.126.216 1.76-1.016-.125-.217 1.758-1.015.125.217.755-.437.755.437.124-.217 1.76 1.015-.124.217 1.76 1.016.124-.216 1.76 1.016-.125.216 1.76 1.016.123-.217 1.76 1.016-.124.217 1.76 1.015.124-.215 1.76 1.015-.125.217 1.76 1.016.123-.217 1.76 1.015-.124.217 1.76 1.016.124-.216 1.76 1.016-.124.216 1.76 1.016.123-.217 1.76 1.016-.125.217 1.76 1.015.124-.216 1.76 1.016-.124.217 1.76 1.016.123-.217 1.76 1.015-.125.217 1.76 1.016.124-.216 1.76 1.016-.124.216 1.76 1.016.123-.217 1.76 1.016v.001l-.125.216 1.76 1.015z"
    />
  </g>
</svg>
