<svg xmlns="http://www.w3.org/2000/svg" fill="none" viewBox="0 0 590 331">
  <path
    stroke="#005bff"
    stroke-dasharray="3 3"
    d="M187 213h-22.11l-1.07-33H142.6l-1.5 33H0"
  />
  <text
    xml:space="preserve"
    fill="#005bff"
    font-size="20"
    font-weight="500"
    letter-spacing="0em"
    style="white-space: pre"
  >
    <tspan x="22.02" y="206.1">应用商店</tspan>
  </text>
  <foreignObject width="394.97" height="228.88" x="183.86" y="98.94"
    ><div
      xmlns="http://www.w3.org/1999/xhtml"
      style="
        backdrop-filter: blur(0.5px);
        clip-path: url(#a);
        height: 100%;
        width: 100%;
      "
  /></foreignObject>
  <path
    fill="#e4eafb"
    fill-opacity=".37"
    stroke="url(#b)"
    d="M0 0h225.88v225.88H0z"
    data-figma-bg-blur-radius="1"
    transform="matrix(-.87 -.5 -.87 .5 576.97 213.38)"
  />
  <foreignObject width="394.97" height="228.88" x="183.86" y="57.5"
    ><div
      xmlns="http://www.w3.org/1999/xhtml"
      style="
        backdrop-filter: blur(0.5px);
        clip-path: url(#c);
        height: 100%;
        width: 100%;
      "
  /></foreignObject>
  <path
    fill="#e4eafb"
    fill-opacity=".37"
    stroke="url(#d)"
    d="M0 0h225.88v225.88H0z"
    data-figma-bg-blur-radius="1"
    transform="matrix(-.87 -.5 -.87 .5 576.97 171.94)"
  />
  <foreignObject width="196.69" height="156.45" x="380.89" y="170.1"
    ><div
      xmlns="http://www.w3.org/1999/xhtml"
      style="
        backdrop-filter: blur(0.5px);
        clip-path: url(#e);
        height: 100%;
        width: 100%;
      "
  /></foreignObject>
  <path
    fill="#e4eafb"
    fill-opacity=".37"
    stroke="url(#f)"
    d="M0 0h223.81v41.04H0z"
    data-figma-bg-blur-radius="1"
    transform="matrix(-.87 .5 0 1 576.14 171.85)"
  />
  <foreignObject width="197.52" height="156.68" x="185.32" y="170.46"
    ><div
      xmlns="http://www.w3.org/1999/xhtml"
      style="
        backdrop-filter: blur(0.5px);
        clip-path: url(#g);
        height: 100%;
        width: 100%;
      "
  /></foreignObject>
  <path
    fill="#e4eafb"
    fill-opacity=".37"
    stroke="url(#h)"
    d="M0 0h224.76v40.8H0z"
    data-figma-bg-blur-radius="1"
    transform="matrix(-.87 -.5 0 1 381.4 284.6)"
  />
  <path
    fill="#a3c4ff"
    stroke="#005bff"
    stroke-width=".5"
    d="m575.65 208.28-4.63 2.68v5.35l4.63 2.67 4.63-2.67v-5.35zM186.35 208.28l-4.63 2.68v5.35l4.63 2.67 4.63-2.67v-5.35zM381.1 319.63l-4.64 2.67v5.35l4.63 2.68 4.64-2.68v-5.35zM186.35 165.54l-4.63 2.68v5.35l4.63 2.67 4.63-2.67v-5.35zM381 55l-4.63 2.68v5.35L381 65.7l4.63-2.67v-5.35zM575.65 165.54l-4.63 2.68v5.35l4.63 2.67 4.63-2.67v-5.35zM381 277.71l-4.63 2.68v5.35l4.63 2.67 4.63-2.67v-5.35z"
  />
  <g clip-path="url(#i)">
    <foreignObject width="54.68" height="92.24" x="326.64" y="-1.97"
      ><div
        xmlns="http://www.w3.org/1999/xhtml"
        style="
          backdrop-filter: blur(0.44px);
          clip-path: url(#j);
          height: 100%;
          width: 100%;
        "
    /></foreignObject>
    <path
      fill="#fff"
      fill-opacity=".37"
      stroke="url(#k)"
      stroke-width=".89"
      d="M327.97 29.3 379.44-.32l.55 59.88-52.02 29.07z"
      data-figma-bg-blur-radius=".89"
    />
    <path
      fill="#eef0f7"
      stroke="url(#l)"
      stroke-opacity=".3"
      stroke-width=".44"
      d="m379.41 59.87-51.77 29.37 51.62 29.72 51.65-30.13z"
    />
    <path
      fill="url(#m)"
      d="m379.22 22.57 34.76 20.23v40.46l-34.76 20.23-34.77-20.23V42.8z"
    />
    <path
      stroke="#005bff"
      stroke-width=".5"
      d="m413.98 42.8-34.76-20.23-34.77 20.23m69.53 0v40.46l-34.76 20.23m34.76-60.69-34.76 19.78m0 40.91-34.77-20.23V42.8m34.77 60.7V62.57M344.45 42.8l34.77 19.78"
    />
    <path fill="url(#n)" d="m378.5 62.5-33.78-19.3v39.92l34.1 19.88z" />
    <g clip-path="url(#o)">
      <path
        stroke="#fff"
        stroke-linecap="round"
        stroke-linejoin="round"
        stroke-width="1.33"
        d="m358.66 72.5-1.73 1.5 1.73 3.5m3.46-3 1.74 3.5-1.74 1.5m0-15.5v4c0 .53.19 1.14.51 1.7.33.57.77 1.03 1.23 1.3l3.46 2M363 64.5l-7.8-4.5c-.45-.27-.9-.31-1.22-.12s-.5.59-.5 1.12v16c0 .53.18 1.14.5 1.7.33.57.77 1.03 1.23 1.3l10.39 6c.46.26.9.3 1.22.12.33-.19.51-.59.51-1.12V72z"
      />
    </g>
    <path
      fill="#f4f4f5"
      fill-opacity=".37"
      stroke="#ccdaff"
      stroke-width=".44"
      d="M430.79 29.16 379.49-.2l.27 60.1 51.03 28.88z"
    />
    <foreignObject width="54.56" height="92.3" x="377.56" y="27.89"
      ><div
        xmlns="http://www.w3.org/1999/xhtml"
        style="
          backdrop-filter: blur(0.44px);
          clip-path: url(#p);
          height: 100%;
          width: 100%;
        "
    /></foreignObject>
    <path
      fill="#c9d3ee"
      fill-opacity=".37"
      stroke="url(#q)"
      stroke-width=".89"
      d="m378.9 59.07 51.89-29.53v59.3l-51.18 29.7z"
      data-figma-bg-blur-radius=".89"
    />
    <foreignObject width="105.97" height="62.33" x="326.6" y="-1.76"
      ><div
        xmlns="http://www.w3.org/1999/xhtml"
        style="
          backdrop-filter: blur(0.44px);
          clip-path: url(#r);
          height: 100%;
          width: 100%;
        "
    /></foreignObject>
    <path
      fill="#e4eafb"
      fill-opacity=".37"
      stroke="url(#s)"
      stroke-width=".89"
      d="m379.52-.36-51.16 29.45 50.78 30.08 51.65-29.76z"
      data-figma-bg-blur-radius=".89"
    />
    <text
      xml:space="preserve"
      fill="#005bff"
      font-size="16"
      letter-spacing="0em"
      style="white-space: pre"
      transform="matrix(1 0 -.5 .87 354 19)"
    >
      <tspan x="0" y="17.68">New-api</tspan>
    </text>
    <foreignObject width="54.68" height="92.24" x="326" y="77.39"
      ><div
        xmlns="http://www.w3.org/1999/xhtml"
        style="
          backdrop-filter: blur(0.44px);
          clip-path: url(#t);
          height: 100%;
          width: 100%;
        "
    /></foreignObject>
    <path
      fill="#fff"
      fill-opacity=".37"
      stroke="url(#u)"
      stroke-width=".89"
      d="m327.34 108.67 51.46-29.63.55 59.88-52.01 29.07z"
      data-figma-bg-blur-radius=".89"
    />
    <path
      fill="#eef0f7"
      stroke="url(#v)"
      stroke-opacity=".3"
      stroke-width=".44"
      d="M378.78 139.23 327 168.6l51.62 29.72 51.65-30.13z"
    />
    <path
      fill="url(#w)"
      d="m378.58 101.94 34.77 20.22v40.46l-34.77 20.23-34.77-20.23v-40.46z"
    />
    <path
      stroke="#005bff"
      stroke-width=".5"
      d="m413.35 122.16-34.77-20.22-34.77 20.22m69.54 0v40.46l-34.77 20.23m34.77-60.69-34.77 19.78m0 40.91-34.77-20.23v-40.46m34.77 60.7v-40.92m-34.77-19.78 34.77 19.78"
    />
    <path fill="url(#x)" d="m377.83 141.81-33.76-19.2v39.87l34.38 20.03z" />
    <g clip-path="url(#y)">
      <path
        fill="#fff"
        d="M359.52 139.8v13.75l-7.44-4.3c-.7-.4-1.12-1.59-.67-2zm2.1 7.78v-6.9c0-2.19-2.4-4.56-3.58-3.48l-8.29 7.61c-1.5 1.38-.13 5.44 2.33 6.87l7.44 4.29v6.9c0 2.18 2.4 4.55 3.58 3.47l8.29-7.61c1.5-1.37.13-5.44-2.34-6.86zm0 2.42 7.44 4.29c.7.4 1.12 1.6.67 2l-8.11 7.46z"
      />
    </g>
    <path
      fill="#f4f4f5"
      fill-opacity=".37"
      stroke="#ccdaff"
      stroke-width=".44"
      d="m430.15 108.52-51.3-29.35.27 60.1 51.03 28.88z"
    />
    <foreignObject width="54.56" height="92.3" x="376.92" y="107.25"
      ><div
        xmlns="http://www.w3.org/1999/xhtml"
        style="
          backdrop-filter: blur(0.44px);
          clip-path: url(#z);
          height: 100%;
          width: 100%;
        "
    /></foreignObject>
    <path
      fill="#c9d3ee"
      fill-opacity=".37"
      stroke="url(#A)"
      stroke-width=".89"
      d="m378.25 138.43 51.9-29.53v59.3l-51.18 29.7z"
      data-figma-bg-blur-radius=".89"
    />
    <foreignObject width="105.97" height="62.33" x="325.96" y="77.6"
      ><div
        xmlns="http://www.w3.org/1999/xhtml"
        style="
          backdrop-filter: blur(0.44px);
          clip-path: url(#B);
          height: 100%;
          width: 100%;
        "
    /></foreignObject>
    <path
      fill="#e4eafb"
      fill-opacity=".37"
      stroke="url(#C)"
      stroke-width=".89"
      d="m378.88 79-51.15 29.45 50.77 30.08 51.65-29.76z"
      data-figma-bg-blur-radius=".89"
    />
    <text
      xml:space="preserve"
      fill="#005bff"
      font-size="16"
      letter-spacing="0em"
      style="white-space: pre"
      transform="matrix(1 0 -.5 .87 347.36 98)"
    >
      <tspan x="0" y="17.68">Supabase</tspan>
    </text>
    <foreignObject width="54.68" height="92.24" x="329" y="163.4"
      ><div
        xmlns="http://www.w3.org/1999/xhtml"
        style="
          backdrop-filter: blur(0.44px);
          clip-path: url(#D);
          height: 100%;
          width: 100%;
        "
    /></foreignObject>
    <path
      fill="#fff"
      fill-opacity=".37"
      stroke="url(#E)"
      stroke-width=".89"
      d="m330.34 194.67 51.46-29.62.55 59.87-52.01 29.07z"
      data-figma-bg-blur-radius=".89"
    />
    <path
      fill="#eef0f7"
      stroke="url(#F)"
      stroke-opacity=".3"
      stroke-width=".44"
      d="M381.78 225.23 330 254.6l51.62 29.72 51.65-30.13z"
    />
    <path
      fill="url(#G)"
      d="m381.58 187.94 34.77 20.22v40.46l-34.77 20.23-34.77-20.23v-40.46z"
    />
    <path
      stroke="#005bff"
      stroke-width=".5"
      d="m416.35 208.16-34.77-20.22-34.77 20.22m69.54 0v40.46l-34.77 20.23m34.77-60.69-34.77 19.78m0 40.91-34.77-20.23v-40.46m34.77 60.7v-40.92m-34.77-19.78 34.77 19.78"
    />
    <path fill="url(#H)" d="m381.04 227.9-33.98-19.32v39.9l34.63 20.16z" />
    <g clip-path="url(#I)">
      <path
        fill="#fff"
        d="M361.77 224.1c1.41.84 2.74 2.28 3.82 4.24.16.28.3.41.52.5 3.1 1.25 5.84 5.24 6.4 9.37a7 7 0 0 1-.12 2.89c-.06.2-.02.38.1.64 2.58 5.36 1.04 10.34-2.9 9.35-.22-.06-.32 0-.4.21-1.46 3.82-6.37 2.25-9.23-2.97-.15-.26-.27-.36-.46-.44-3.16-1.28-5.9-5.27-6.46-9.44a7 7 0 0 1 .14-2.84c.06-.2.02-.38-.1-.64-2.58-5.37-1.01-10.38 2.93-9.34q.29.09.36-.19c.85-2.24 2.92-2.78 5.4-1.33m3.42 18.8q-2.65.33-5.22.7c-.4.05-.72-.15-1.1-.65l-4.06-5.22c-.1-.12-.18-.3-.33-.34a8.8 8.8 0 0 0 1.69 5.9c1.36 2 2.87 3.01 4.35 2.9 1.53-.1 3-.37 4.5-.57.08 0 .17 0 .17-.15zm-.95-14.37c-.03-.17-.12-.26-.19-.36-1.36-1.91-2.8-2.93-4.28-2.89s-2.27 1.13-2.31 3.14c-.05 2.04 0 4.13-.02 6.2q0 .3.21.55l1.5 1.9c.05.08.1.2.2.19v-7.37c0-.51.16-.74.51-.78q1.55-.2 3.09-.4zm1.97 10.82v7.5q.01.71-.47.75-.72.07-1.4.18l-3.11.4c.1.1.14.14.17.2 1.27 1.86 2.64 2.9 4.09 3.03s2.38-.68 2.55-2.48c.22-2.2.05-4.64.08-6.96a.5.5 0 0 0-.12-.32zm-2.4-4.55.32.43 4.94 6.35c.36.46.51.88.51 1.38v5.8l.01.46.19.02c1.48.01 2.36-.9 2.5-2.8a8.8 8.8 0 0 0-1.97-5.94c-1.44-1.94-2.94-3.8-4.41-5.7q-.18-.25-.36-.22zm-7.82-7.25c-.15-.11-.24-.08-.34-.08-1.4.06-2.23.99-2.36 2.83a8.7 8.7 0 0 0 1.88 5.78c1.47 2 3.01 3.91 4.52 5.86.09.11.17.22.27.2l1.8-.24q-.19-.25-.32-.41-2.46-3.19-4.94-6.35c-.37-.47-.52-.9-.51-1.41zm4.4 6.24q.19 0 .32-.03 2.45-.29 4.88-.65c.39-.05.72.13 1.1.63l4.11 5.3c.09.1.15.25.3.28a8.8 8.8 0 0 0-1.64-5.81c-1.37-2.05-2.9-3.1-4.4-3-1.53.12-3 .38-4.5.57-.09 0-.18 0-.18.16zm4.8 6.07v-1.52a.8.8 0 0 0-.2-.57l-2.03-2.6q-.18-.25-.35-.21-1 .15-2.03.26c-.16.02-.2.12-.2.33v2.8c0 .25.07.43.24.65q.48.6.95 1.2c.4.52.8 1.25 1.2 1.48.41.23.83-.02 1.23-.07s.9.06 1.13-.22c.23-.3.04-1.08.06-1.53"
      />
    </g>
    <path
      fill="#f4f4f5"
      fill-opacity=".37"
      stroke="#ccdaff"
      stroke-width=".44"
      d="m433.15 194.52-51.3-29.35.27 60.1 51.03 28.88z"
    />
    <foreignObject width="54.56" height="92.3" x="379.92" y="193.25"
      ><div
        xmlns="http://www.w3.org/1999/xhtml"
        style="
          backdrop-filter: blur(0.44px);
          clip-path: url(#J);
          height: 100%;
          width: 100%;
        "
    /></foreignObject>
    <path
      fill="#c9d3ee"
      fill-opacity=".37"
      stroke="url(#K)"
      stroke-width=".89"
      d="m381.25 224.43 51.9-29.53v59.3l-51.18 29.7z"
      data-figma-bg-blur-radius=".89"
    />
    <foreignObject width="105.97" height="62.33" x="328.96" y="163.6"
      ><div
        xmlns="http://www.w3.org/1999/xhtml"
        style="
          backdrop-filter: blur(0.44px);
          clip-path: url(#L);
          height: 100%;
          width: 100%;
        "
    /></foreignObject>
    <path
      fill="#e4eafb"
      stroke="url(#M)"
      stroke-width=".89"
      d="m381.88 165-51.15 29.45 50.77 30.08 51.65-29.76z"
      data-figma-bg-blur-radius=".89"
    />
    <text
      xml:space="preserve"
      fill="#005bff"
      font-size="16"
      letter-spacing="0em"
      style="white-space: pre"
      transform="matrix(1 0 -.5 .87 355 184)"
    >
      <tspan x="0" y="17.68">ChatGPT</tspan>
    </text>
    <foreignObject width="54.68" height="92.24" x="186" y="80.39"
      ><div
        xmlns="http://www.w3.org/1999/xhtml"
        style="
          backdrop-filter: blur(0.44px);
          clip-path: url(#N);
          height: 100%;
          width: 100%;
        "
    /></foreignObject>
    <path
      fill="#fff"
      fill-opacity=".37"
      stroke="url(#O)"
      stroke-width=".89"
      d="m187.34 111.67 51.46-29.63.55 59.88-52.01 29.07z"
      data-figma-bg-blur-radius=".89"
    />
    <path
      fill="#eef0f7"
      stroke="url(#P)"
      stroke-opacity=".3"
      stroke-width=".44"
      d="M238.78 142.23 187 171.6l51.62 29.72 51.65-30.13z"
    />
    <path
      fill="url(#Q)"
      d="m238.58 104.94 34.77 20.22v40.46l-34.77 20.23-34.77-20.23v-40.46z"
    />
    <path
      stroke="#005bff"
      stroke-width=".5"
      d="m273.35 125.16-34.77-20.22-34.77 20.22m69.54 0v40.46l-34.77 20.23m34.77-60.69-34.77 19.78m0 40.91-34.77-20.23v-40.46m34.77 60.7v-40.92m-34.77-19.78 34.77 19.78"
    />
    <path fill="url(#R)" d="m238.06 144.9-34-19.3v39.88l34.44 20.02z" />
    <g clip-path="url(#S)">
      <path
        fill="#fff"
        d="m226.7 144.85.32.21.07.07c.15.12.18.16.36.5l.04.08-.02.16q-.03.21-.09.4l-.2-.14c-1.01-.63-1.56-.59-2.32-.31l.31.38c2.45 3 4.19 6.4 5.01 9.97l.06.3.26.13.18.1a5 5 0 0 1 1.96 1.82c.47.91.51 1.54.5 2.35-.1.86-.38 1.54-1 1.8-.37.11-.62.07-1.08-.19l-.34-.2-.08-.04c-.18-.12-.2-.15-.4-.37l-.04.22c-.53 2.62-2.22 4.58-4.4 4.98l-.55.08-.22.03-.24.03c-.28.03-.43.01-.59-.05l-.09-.04-.09-.05-.15-.09v2.52l-2.2-1.27v-2.39l-.33-.06-.53-.3-.55-.31-.26-.17-.12-.08-.4-.35v2.39l-2.2-1.27v-2.51l-.55-.45c-2.57-2.78-4.36-6.53-5.41-10.03q-.28-1.02-.42-2h-.22l-.12-.05c-.48-.23-.89-.48-1.34-1.01a7.5 7.5 0 0 1-1.22-3.25c-.02-.82.04-1.47.49-1.86.58-.2 1-.05 1.72.36l.42.25.27.16.12-.31a7 7 0 0 1 2.06-3.14l.43-.33c.75-.5 1.78-.7 2.78-.65l-.1-.16a6 6 0 0 0-1.88-1.99l-.33-.2-.22-.12-.01-.05-.1-.11c-.14-.16-.24-.33 0-.5v-.03q.18-.1.41-.07t.48.17c.72.41 1.52 1.48 2.06 2.21q.3.42.58.85.5.25.99.4c.68.2 1.34.55 2.03.94l.76.44c.84.5 1.6 1 2.4 1.73.31.26.5.35.78.42l.13-.07.09-.04c.66-.3 1.43-.46 2.35.16m-9.38.54q-.56-.3-.94-.09-.39.23-.4.86c0 .4.15.88.4 1.31s.58.8.94 1c.35.2.69.23.94.09q.38-.24.39-.86c0-.41-.14-.88-.4-1.31a3 3 0 0 0-.93-1m6.65 3.85c-.35-.2-.69-.24-.94-.1q-.38.24-.39.86c0 .41.14.88.4 1.31.24.44.58.8.93 1s.7.23.94.1q.39-.24.4-.87c0-.4-.15-.88-.4-1.31a3 3 0 0 0-.94-1"
      />
    </g>
    <path
      fill="#f4f4f5"
      fill-opacity=".37"
      stroke="#ccdaff"
      stroke-width=".44"
      d="m290.15 111.52-51.3-29.35.27 60.1 51.03 28.88z"
    />
    <foreignObject width="54.56" height="92.3" x="236.92" y="110.25"
      ><div
        xmlns="http://www.w3.org/1999/xhtml"
        style="
          backdrop-filter: blur(0.44px);
          clip-path: url(#T);
          height: 100%;
          width: 100%;
        "
    /></foreignObject>
    <path
      fill="#c9d3ee"
      fill-opacity=".37"
      stroke="url(#U)"
      stroke-width=".89"
      d="m238.25 141.43 51.9-29.53v59.3l-51.18 29.7z"
      data-figma-bg-blur-radius=".89"
    />
    <foreignObject width="105.97" height="62.33" x="185.96" y="80.6"
      ><div
        xmlns="http://www.w3.org/1999/xhtml"
        style="
          backdrop-filter: blur(0.44px);
          clip-path: url(#V);
          height: 100%;
          width: 100%;
        "
    /></foreignObject>
    <path
      fill="#e4eafb"
      fill-opacity=".37"
      stroke="url(#W)"
      stroke-width=".89"
      d="m238.88 82-51.15 29.45 50.77 30.08 51.65-29.76z"
      data-figma-bg-blur-radius=".89"
    />
    <text
      xml:space="preserve"
      fill="#005bff"
      font-size="16"
      letter-spacing="0em"
      style="white-space: pre"
      transform="matrix(1 0 -.5 .87 208 101)"
    >
      <tspan x="0" y="17.68">Openclaw</tspan>
    </text>
    <foreignObject width="54.68" height="92.24" x="471" y="80.39"
      ><div
        xmlns="http://www.w3.org/1999/xhtml"
        style="
          backdrop-filter: blur(0.44px);
          clip-path: url(#X);
          height: 100%;
          width: 100%;
        "
    /></foreignObject>
    <path
      fill="#fff"
      fill-opacity=".37"
      stroke="url(#Y)"
      stroke-width=".89"
      d="m472.34 111.67 51.46-29.62.55 59.87-52.01 29.07z"
      data-figma-bg-blur-radius=".89"
    />
    <path
      fill="#eef0f7"
      stroke="url(#Z)"
      stroke-opacity=".3"
      stroke-width=".44"
      d="M523.78 142.23 472 171.6l51.62 29.72 51.65-30.13z"
    />
    <path
      fill="url(#aa)"
      d="m523.58 104.94 34.76 20.22v40.46l-34.76 20.23-34.77-20.23v-40.46z"
    />
    <path
      stroke="#005bff"
      stroke-width=".5"
      d="m558.35 125.16-34.77-20.22-34.77 20.22m69.54 0v40.46l-34.77 20.23m34.76-60.69-34.76 19.78m0 40.91-34.77-20.23v-40.46m34.77 60.7v-40.92m-34.77-19.78 34.77 19.78"
    />
    <path fill="url(#ab)" d="M523.05 144.92 489 125.5l.06 39.98 34.46 20.05z" />
    <g fill="#fff" clip-path="url(#ac)">
      <path
        d="M511.4 162.62c.68.39 1.35.55 1.92.45q.88-.16 1.35-1a4 4 0 0 0 .38-2.17 8.77 8.77 0 0 0-2.3-5.06 5 5 0 0 0-2-1.38 2.2 2.2 0 0 0-1.79.04q-.76.4-1.05 1.44l-1.37-2.59a2.8 2.8 0 0 1 2.6-1.52 6 6 0 0 1 3.58 1.66c1.2 1.04 2.26 2.5 3.01 4.12a11.4 11.4 0 0 1 1.15 4.8c0 1.5-.44 2.7-1.22 3.41-.77.72-1.85.9-3.05.54a8 8 0 0 1-3.58-2.57c-1.11-1.3-2-2.9-2.54-4.56l1.43-.77a9 9 0 0 0 1.31 3.03 7 7 0 0 0 2.17 2.12"
      />
      <path
        d="M499.7 144.8c3.03 1.73 5.02 6.76 7.3 10.85-1.82 1.16-4.27 4.17-7.3 2.43a9 9 0 0 1-2.11-1.7 13.45 13.45 0 0 1-3.01-5.34q-.42-1.47-.43-2.81 0-1.33.43-2.32t1.2-1.47a3 3 0 0 1 1.81-.4q1.02.1 2.12.75m.33 11.1c1.95 1.12 3.52-.82 4.68-1.58-1.46-2.62-2.73-5.84-4.69-6.97-.93-.54-1.82-.6-2.48-.19-.66.42-1.03 1.3-1.03 2.43s.37 2.43 1.03 3.61a7 7 0 0 0 2.48 2.69z"
      />
    </g>
    <path
      fill="#f4f4f5"
      fill-opacity=".37"
      stroke="#ccdaff"
      stroke-width=".44"
      d="m575.15 111.52-51.3-29.35.27 60.1 51.03 28.88z"
    />
    <foreignObject width="54.56" height="92.3" x="521.92" y="110.25"
      ><div
        xmlns="http://www.w3.org/1999/xhtml"
        style="
          backdrop-filter: blur(0.44px);
          clip-path: url(#ad);
          height: 100%;
          width: 100%;
        "
    /></foreignObject>
    <path
      fill="#c9d3ee"
      fill-opacity=".37"
      stroke="url(#ae)"
      stroke-width=".89"
      d="m523.25 141.43 51.9-29.53v59.3l-51.18 29.7z"
      data-figma-bg-blur-radius=".89"
    />
    <foreignObject width="105.97" height="62.33" x="470.96" y="80.6"
      ><div
        xmlns="http://www.w3.org/1999/xhtml"
        style="
          backdrop-filter: blur(0.44px);
          clip-path: url(#af);
          height: 100%;
          width: 100%;
        "
    /></foreignObject>
    <path
      fill="#e4eafb"
      fill-opacity=".37"
      stroke="url(#ag)"
      stroke-width=".89"
      d="m523.88 82-51.15 29.45 50.77 30.08 51.65-29.76z"
      data-figma-bg-blur-radius=".89"
    />
    <text
      xml:space="preserve"
      fill="#005bff"
      font-size="16"
      letter-spacing="0em"
      style="white-space: pre"
      transform="matrix(1 0 -.5 .87 506 101)"
    >
      <tspan x="0" y="17.68">Nacos</tspan>
    </text>
  </g>
  <defs>
    <linearGradient
      id="b"
      x1="112.67"
      x2="112.67"
      y1="0"
      y2="225.88"
      gradientUnits="userSpaceOnUse"
    >
      <stop offset=".42" stop-color="#a3c4ff" />
      <stop offset="1" stop-color="#005bff" />
    </linearGradient>
    <linearGradient
      id="d"
      x1="112.67"
      x2="112.67"
      y1="0"
      y2="225.88"
      gradientUnits="userSpaceOnUse"
    >
      <stop offset=".42" stop-color="#a3c4ff" />
      <stop offset="1" stop-color="#005bff" />
    </linearGradient>
    <linearGradient
      id="f"
      x1="111.63"
      x2="111.63"
      y1="0"
      y2="41.04"
      gradientUnits="userSpaceOnUse"
    >
      <stop offset=".42" stop-color="#a3c4ff" />
      <stop offset="1" stop-color="#005bff" />
    </linearGradient>
    <linearGradient
      id="h"
      x1="112.11"
      x2="112.11"
      y1="0"
      y2="40.8"
      gradientUnits="userSpaceOnUse"
    >
      <stop offset=".42" stop-color="#a3c4ff" />
      <stop offset="1" stop-color="#005bff" />
    </linearGradient>
    <linearGradient
      id="k"
      x1="380.25"
      x2="328.18"
      y1="57.8"
      y2="30.66"
      gradientUnits="userSpaceOnUse"
    >
      <stop offset=".5" stop-color="#a3afff" />
      <stop offset="1" stop-color="#005bff" />
    </linearGradient>
    <linearGradient
      id="l"
      x1="379.63"
      x2="340.46"
      y1="61.57"
      y2="91.17"
      gradientUnits="userSpaceOnUse"
    >
      <stop stop-color="#83afff" />
      <stop offset=".98" stop-color="#0042ba" />
    </linearGradient>
    <linearGradient
      id="m"
      x1="414.14"
      x2="374.14"
      y1="81.72"
      y2="38.22"
      gradientUnits="userSpaceOnUse"
    >
      <stop stop-color="#a3c4ff" />
      <stop offset="1" stop-color="#e2ecff" />
    </linearGradient>
    <linearGradient
      id="n"
      x1="344.5"
      x2="379.93"
      y1="63.09"
      y2="64.83"
      gradientUnits="userSpaceOnUse"
    >
      <stop stop-color="#0f0f0f" />
      <stop offset="1" stop-color="#444" />
    </linearGradient>
    <linearGradient
      id="q"
      x1="430.79"
      x2="379.23"
      y1="87.18"
      y2="60.13"
      gradientUnits="userSpaceOnUse"
    >
      <stop offset=".5" stop-color="#a3afff" />
      <stop offset="1" stop-color="#005bff" />
    </linearGradient>
    <linearGradient
      id="s"
      x1="379.51"
      x2="379.51"
      y1="-.08"
      y2="59.17"
      gradientUnits="userSpaceOnUse"
    >
      <stop offset=".42" stop-color="#a3c4ff" />
      <stop offset="1" stop-color="#005bff" />
    </linearGradient>
    <linearGradient
      id="u"
      x1="379.61"
      x2="327.54"
      y1="137.17"
      y2="110.02"
      gradientUnits="userSpaceOnUse"
    >
      <stop offset=".5" stop-color="#a3afff" />
      <stop offset="1" stop-color="#005bff" />
    </linearGradient>
    <linearGradient
      id="v"
      x1="379"
      x2="339.82"
      y1="140.93"
      y2="170.53"
      gradientUnits="userSpaceOnUse"
    >
      <stop stop-color="#83afff" />
      <stop offset=".98" stop-color="#0042ba" />
    </linearGradient>
    <linearGradient
      id="w"
      x1="413.5"
      x2="373.5"
      y1="161.08"
      y2="117.58"
      gradientUnits="userSpaceOnUse"
    >
      <stop stop-color="#a3c4ff" />
      <stop offset="1" stop-color="#e2ecff" />
    </linearGradient>
    <linearGradient
      id="x"
      x1="378.47"
      x2="344.55"
      y1="142.69"
      y2="162"
      gradientUnits="userSpaceOnUse"
    >
      <stop stop-color="#a5f2ee" />
      <stop offset="1" stop-color="#54eb8e" />
    </linearGradient>
    <linearGradient
      id="A"
      x1="430.15"
      x2="378.6"
      y1="166.54"
      y2="139.49"
      gradientUnits="userSpaceOnUse"
    >
      <stop offset=".5" stop-color="#a3afff" />
      <stop offset="1" stop-color="#005bff" />
    </linearGradient>
    <linearGradient
      id="C"
      x1="378.87"
      x2="378.87"
      y1="79.28"
      y2="138.53"
      gradientUnits="userSpaceOnUse"
    >
      <stop offset=".42" stop-color="#a3c4ff" />
      <stop offset="1" stop-color="#005bff" />
    </linearGradient>
    <linearGradient
      id="E"
      x1="382.61"
      x2="330.54"
      y1="223.17"
      y2="196.02"
      gradientUnits="userSpaceOnUse"
    >
      <stop offset=".5" stop-color="#a3afff" />
      <stop offset="1" stop-color="#005bff" />
    </linearGradient>
    <linearGradient
      id="F"
      x1="382"
      x2="342.82"
      y1="226.93"
      y2="256.53"
      gradientUnits="userSpaceOnUse"
    >
      <stop stop-color="#83afff" />
      <stop offset=".98" stop-color="#0042ba" />
    </linearGradient>
    <linearGradient
      id="G"
      x1="416.5"
      x2="376.5"
      y1="247.08"
      y2="203.58"
      gradientUnits="userSpaceOnUse"
    >
      <stop stop-color="#a3c4ff" />
      <stop offset="1" stop-color="#e2ecff" />
    </linearGradient>
    <linearGradient
      id="H"
      x1="347"
      x2="383.11"
      y1="228.79"
      y2="230.91"
      gradientUnits="userSpaceOnUse"
    >
      <stop stop-color="#0f0f0f" />
      <stop offset="1" stop-color="#444" />
    </linearGradient>
    <linearGradient
      id="K"
      x1="433.15"
      x2="381.6"
      y1="252.54"
      y2="225.49"
      gradientUnits="userSpaceOnUse"
    >
      <stop offset=".5" stop-color="#a3afff" />
      <stop offset="1" stop-color="#005bff" />
    </linearGradient>
    <linearGradient
      id="M"
      x1="381.87"
      x2="381.87"
      y1="165.28"
      y2="224.53"
      gradientUnits="userSpaceOnUse"
    >
      <stop offset=".42" stop-color="#a3c4ff" />
      <stop offset="1" stop-color="#005bff" />
    </linearGradient>
    <linearGradient
      id="O"
      x1="239.61"
      x2="187.54"
      y1="140.17"
      y2="113.02"
      gradientUnits="userSpaceOnUse"
    >
      <stop offset=".5" stop-color="#a3afff" />
      <stop offset="1" stop-color="#005bff" />
    </linearGradient>
    <linearGradient
      id="P"
      x1="239"
      x2="199.82"
      y1="143.93"
      y2="173.53"
      gradientUnits="userSpaceOnUse"
    >
      <stop stop-color="#83afff" />
      <stop offset=".98" stop-color="#0042ba" />
    </linearGradient>
    <linearGradient
      id="Q"
      x1="273.5"
      x2="233.5"
      y1="164.08"
      y2="120.58"
      gradientUnits="userSpaceOnUse"
    >
      <stop stop-color="#a3c4ff" />
      <stop offset="1" stop-color="#e2ecff" />
    </linearGradient>
    <linearGradient
      id="R"
      x1="239"
      x2="204.24"
      y1="145.74"
      y2="165.94"
      gradientUnits="userSpaceOnUse"
    >
      <stop stop-color="#ffc892" />
      <stop offset="1" stop-color="#ff3d07" />
    </linearGradient>
    <linearGradient
      id="U"
      x1="290.15"
      x2="238.6"
      y1="169.54"
      y2="142.49"
      gradientUnits="userSpaceOnUse"
    >
      <stop offset=".5" stop-color="#a3afff" />
      <stop offset="1" stop-color="#005bff" />
    </linearGradient>
    <linearGradient
      id="W"
      x1="238.87"
      x2="238.87"
      y1="82.28"
      y2="141.53"
      gradientUnits="userSpaceOnUse"
    >
      <stop offset=".42" stop-color="#a3c4ff" />
      <stop offset="1" stop-color="#005bff" />
    </linearGradient>
    <linearGradient
      id="Y"
      x1="524.61"
      x2="472.54"
      y1="140.17"
      y2="113.02"
      gradientUnits="userSpaceOnUse"
    >
      <stop offset=".5" stop-color="#a3afff" />
      <stop offset="1" stop-color="#005bff" />
    </linearGradient>
    <linearGradient
      id="Z"
      x1="524"
      x2="484.82"
      y1="143.93"
      y2="173.53"
      gradientUnits="userSpaceOnUse"
    >
      <stop stop-color="#83afff" />
      <stop offset=".98" stop-color="#0042ba" />
    </linearGradient>
    <linearGradient
      id="aa"
      x1="558.5"
      x2="518.5"
      y1="164.08"
      y2="120.58"
      gradientUnits="userSpaceOnUse"
    >
      <stop stop-color="#a3c4ff" />
      <stop offset="1" stop-color="#e2ecff" />
    </linearGradient>
    <linearGradient
      id="ab"
      x1="523.57"
      x2="489.55"
      y1="146.74"
      y2="166.31"
      gradientUnits="userSpaceOnUse"
    >
      <stop stop-color="#70a9cc" />
      <stop offset="1" stop-color="#1e7fbb" />
    </linearGradient>
    <linearGradient
      id="ae"
      x1="575.15"
      x2="523.6"
      y1="169.54"
      y2="142.49"
      gradientUnits="userSpaceOnUse"
    >
      <stop offset=".5" stop-color="#a3afff" />
      <stop offset="1" stop-color="#005bff" />
    </linearGradient>
    <linearGradient
      id="ag"
      x1="523.87"
      x2="523.87"
      y1="82.28"
      y2="141.53"
      gradientUnits="userSpaceOnUse"
    >
      <stop offset=".42" stop-color="#a3c4ff" />
      <stop offset="1" stop-color="#005bff" />
    </linearGradient>
    <clipPath id="a" transform="translate(-183.86 -98.94)">
      <path d="M576.97 213.38 381.35 100.44 185.73 213.38l195.62 112.94z" />
    </clipPath>
    <clipPath id="c" transform="translate(-183.86 -57.5)">
      <path d="M576.97 171.94 381.35 59 185.73 171.94l195.62 112.94z" />
    </clipPath>
    <clipPath id="e" transform="translate(-380.89 -170.1)">
      <path d="m576.15 171.86-193.83 111.9v41.04l193.83-111.9z" />
    </clipPath>
    <clipPath id="g" transform="translate(-185.32 -170.46)">
      <path d="M381.4 284.6 186.75 172.2v40.8L381.4 325.4z" />
    </clipPath>
    <clipPath id="j" transform="translate(-326.64 1.97)">
      <path d="M327.97 29.3 379.44-.32l.55 59.88-52.02 29.07z" />
    </clipPath>
    <clipPath id="p" transform="translate(-377.56 -27.9)">
      <path d="m378.9 59.07 51.89-29.53v59.3l-51.18 29.7z" />
    </clipPath>
    <clipPath id="r" transform="translate(-326.6 1.76)">
      <path d="m379.52-.36-51.16 29.45 50.78 30.08 51.65-29.76z" />
    </clipPath>
    <clipPath id="t" transform="translate(-326 -77.4)">
      <path d="m327.34 108.67 51.46-29.63.55 59.88-52.01 29.07z" />
    </clipPath>
    <clipPath id="z" transform="translate(-376.92 -107.25)">
      <path d="m378.25 138.43 51.9-29.53v59.3l-51.18 29.7z" />
    </clipPath>
    <clipPath id="B" transform="translate(-325.96 -77.6)">
      <path d="m378.88 79-51.15 29.45 50.77 30.08 51.65-29.76z" />
    </clipPath>
    <clipPath id="D" transform="translate(-329 -163.4)">
      <path d="m330.34 194.67 51.46-29.62.55 59.87-52.01 29.07z" />
    </clipPath>
    <clipPath id="J" transform="translate(-379.92 -193.25)">
      <path d="m381.25 224.43 51.9-29.53v59.3l-51.18 29.7z" />
    </clipPath>
    <clipPath id="L" transform="translate(-328.96 -163.6)">
      <path d="m381.88 165-51.15 29.45 50.77 30.08 51.65-29.76z" />
    </clipPath>
    <clipPath id="N" transform="translate(-186 -80.4)">
      <path d="m187.34 111.67 51.46-29.63.55 59.88-52.01 29.07z" />
    </clipPath>
    <clipPath id="T" transform="translate(-236.92 -110.25)">
      <path d="m238.25 141.43 51.9-29.53v59.3l-51.18 29.7z" />
    </clipPath>
    <clipPath id="V" transform="translate(-185.96 -80.6)">
      <path d="m238.88 82-51.15 29.45 50.77 30.08 51.65-29.76z" />
    </clipPath>
    <clipPath id="X" transform="translate(-471 -80.4)">
      <path d="m472.34 111.67 51.46-29.62.55 59.87-52.01 29.07z" />
    </clipPath>
    <clipPath id="ad" transform="translate(-521.92 -110.25)">
      <path d="m523.25 141.43 51.9-29.53v59.3l-51.18 29.7z" />
    </clipPath>
    <clipPath id="af" transform="translate(-470.96 -80.6)">
      <path d="m523.88 82-51.15 29.45 50.77 30.08 51.65-29.76z" />
    </clipPath>
    <clipPath id="i"><path fill="#fff" d="M590 0H172v291h418z" /></clipPath>
    <clipPath id="o">
      <path fill="#fff" d="m350 55 20.78 12v24L350 79z" />
    </clipPath>
    <clipPath id="y">
      <path fill="#fff" d="m348 130 25.14 14.51v29.04L348 159.03z" />
    </clipPath>
    <clipPath id="I">
      <path fill="#fff" d="m351 217 25.14 14.51v29.04L351 246.03z" />
    </clipPath>
    <clipPath id="S">
      <path fill="#fff" d="m208 133 25.14 14.51v29.04L208 162.03z" />
    </clipPath>
    <clipPath id="ac">
      <path fill="#fff" d="M518.14 147.51 493 133v29.03l25.14 14.51z" />
    </clipPath>
  </defs>
</svg>
