<svg xmlns="http://www.w3.org/2000/svg" fill="none" viewBox="0 0 105 121">
  <foreignObject width="54.679" height="92.239" x="-.549" y="-.888"
    ><div
      xmlns="http://www.w3.org/1999/xhtml"
      style="
        backdrop-filter: blur(0.44px);
        clip-path: url(#a);
        height: 100%;
        width: 100%;
      "
  /></foreignObject>
  <path
    fill="#fff"
    fill-opacity=".37"
    stroke="url(#b)"
    stroke-width=".888"
    d="M.783 30.384 52.251.764l.546 59.872L.783 89.707z"
    data-figma-bg-blur-radius=".888"
  />
  <path
    fill="#eef0f7"
    stroke="url(#c)"
    stroke-opacity=".3"
    stroke-width=".444"
    d="M52.223 60.952.446 90.314 52.07 120.04l51.645-30.134z"
  />
  <path
    fill="url(#d)"
    d="m52.026 23.652 34.766 20.23v40.46l-34.766 20.23-34.766-20.23v-40.46z"
  />
  <path
    fill="#cdcdcd"
    d="m52.026 23.652 34.766 20.23v40.46l-34.766 20.23-34.766-20.23v-40.46z"
  />
  <path
    stroke="#005bff"
    stroke-width=".5"
    d="m86.792 43.882-34.766-20.23-34.766 20.23m69.532 0v40.46l-34.766 20.23m34.766-60.69L52.026 63.655m0 40.917L17.26 84.342v-40.46m34.766 60.69V63.655M17.26 43.882l34.766 19.773"
  />
  <path
    fill="url(#e)"
    d="m51.485 63.625-33.977-19.33-.004 39.906 34.63 20.159z"
  />
  <g filter="url(#f)">
    <path
      fill="#fff"
      d="M47.72 76.534c2.556 4.41 2.556 9.168 0 10.627-2.554 1.46-6.696-.931-9.251-5.341s-2.555-9.168 0-10.627 6.697.932 9.252 5.341"
    />
  </g>
  <path
    fill="url(#g)"
    d="M30.399 65.415c0-.557.393-.781.877-.502l10.6 6.12c1.716.938 3.447 2.663 4.756 4.923 2.53 4.368 2.53 9.081 0 10.527-1.331.76-3.097.465-4.84-.62L29.1 78.534c-.485-.28-.878-.957-.878-1.514v-1.635c0-.557.393-.781.878-.502l7.369 4.255a13 13 0 0 1-.815-3.053l-8.564-4.944c-.484-.28-.877-.958-.877-1.514V68.36c0-.556.393-.78.877-.501l8.736 5.043c.202-.683.522-1.266.962-1.712l-5.512-3.182c-.484-.28-.877-.957-.877-1.514z"
  />
  <path
    fill="url(#h)"
    d="M22.29 71.959c0-.557.392-.781.877-.501l2.162 1.248c.484.28.877.958.877 1.514v1.636c0 .556-.393.78-.877.501l-2.162-1.248c-.485-.28-.878-.958-.878-1.515z"
  />
  <path
    fill="#f4f4f5"
    fill-opacity=".37"
    stroke="#ccdaff"
    stroke-width=".444"
    d="M103.596 30.237 52.293.892l.275 60.096 51.028 28.879z"
  />
  <foreignObject width="54.563" height="92.305" x="50.367" y="28.971"
    ><div
      xmlns="http://www.w3.org/1999/xhtml"
      style="
        backdrop-filter: blur(0.44px);
        clip-path: url(#i);
        height: 100%;
        width: 100%;
      "
  /></foreignObject>
  <path
    fill="#c9d3ee"
    fill-opacity=".37"
    stroke="url(#j)"
    stroke-width=".888"
    d="m51.701 60.145 51.897-29.523v59.304l-51.18 29.697z"
    data-figma-bg-blur-radius=".888"
  />
  <foreignObject width="105.968" height="62.329" x="-.596" y="-.683"
    ><div
      xmlns="http://www.w3.org/1999/xhtml"
      style="
        backdrop-filter: blur(0.44px);
        clip-path: url(#k);
        height: 100%;
        width: 100%;
      "
  /></foreignObject>
  <path
    fill="#e4eafb"
    stroke="url(#l)"
    stroke-width=".888"
    d="M52.33.718 1.173 30.17l50.773 30.074 51.653-29.759z"
    data-figma-bg-blur-radius=".888"
  />
  <text
    xml:space="preserve"
    fill="#005bff"
    font-size="16"
    letter-spacing="0em"
    style="white-space: pre"
    transform="matrix(1 0 -.5 .86603 27.447 19.718)"
  >
    <tspan x="0" y="17.68">AI Proxy</tspan>
  </text>
  <defs>
    <linearGradient
      id="b"
      x1="53.062"
      x2=".983"
      y1="58.885"
      y2="31.735"
      gradientUnits="userSpaceOnUse"
    >
      <stop offset=".499" stop-color="#a3afff" />
      <stop offset="1" stop-color="#005bff" />
    </linearGradient>
    <linearGradient
      id="c"
      x1="52.444"
      x2="13.271"
      y1="62.645"
      y2="92.251"
      gradientUnits="userSpaceOnUse"
    >
      <stop stop-color="#83afff" />
      <stop offset=".981" stop-color="#0042ba" />
    </linearGradient>
    <linearGradient
      id="d"
      x1="86.947"
      x2="46.947"
      y1="82.8"
      y2="39.3"
      gradientUnits="userSpaceOnUse"
    >
      <stop stop-color="#a3c4ff" />
      <stop offset="1" stop-color="#e2ecff" />
    </linearGradient>
    <linearGradient
      id="e"
      x1="17.447"
      x2="53.554"
      y1="64.513"
      y2="66.632"
      gradientUnits="userSpaceOnUse"
    >
      <stop stop-color="#0f0f0f" />
      <stop offset="1" stop-color="#444" />
    </linearGradient>
    <linearGradient
      id="g"
      x1="49.26"
      x2="26.704"
      y1="83.221"
      y2="86.557"
      gradientUnits="userSpaceOnUse"
    >
      <stop stop-color="#fff" />
      <stop offset=".442" stop-color="#fff" />
      <stop offset="1" stop-color="#fff" stop-opacity=".2" />
    </linearGradient>
    <linearGradient
      id="h"
      x1="49.26"
      x2="26.705"
      y1="83.221"
      y2="86.557"
      gradientUnits="userSpaceOnUse"
    >
      <stop stop-color="#fff" />
      <stop offset=".442" stop-color="#fff" />
      <stop offset="1" stop-color="#fff" stop-opacity=".2" />
    </linearGradient>
    <linearGradient
      id="j"
      x1="103.598"
      x2="52.043"
      y1="88.255"
      y2="61.204"
      gradientUnits="userSpaceOnUse"
    >
      <stop offset=".499" stop-color="#a3afff" />
      <stop offset="1" stop-color="#005bff" />
    </linearGradient>
    <linearGradient
      id="l"
      x1="52.319"
      x2="52.319"
      y1="1"
      y2="60.245"
      gradientUnits="userSpaceOnUse"
    >
      <stop offset=".416" stop-color="#a3c4ff" />
      <stop offset="1" stop-color="#005bff" />
    </linearGradient>
    <clipPath id="a" transform="translate(.549 .888)">
      <path d="M.783 30.384 52.251.764l.546 59.872L.783 89.707z" />
    </clipPath>
    <clipPath id="i" transform="translate(-50.367 -28.971)">
      <path d="m51.701 60.145 51.897-29.523v59.304l-51.18 29.697z" />
    </clipPath>
    <clipPath id="k" transform="translate(.596 .683)">
      <path d="M52.33.718 1.173 30.17l50.773 30.074 51.653-29.759z" />
    </clipPath>
    <filter
      id="f"
      width="30.484"
      height="34.225"
      x="27.853"
      y="62.064"
      color-interpolation-filters="sRGB"
      filterUnits="userSpaceOnUse"
    >
      <feFlood flood-opacity="0" result="BackgroundImageFix" />
      <feBlend in="SourceGraphic" in2="BackgroundImageFix" result="shape" />
      <feGaussianBlur
        result="effect1_foregroundBlur_432_922"
        stdDeviation="4.35"
      />
    </filter>
  </defs>
</svg>
