<svg xmlns="http://www.w3.org/2000/svg" fill="none" viewBox="0 0 105 121">
  <foreignObject width="54.679" height="92.239" x="-.548" y="-.888"
    ><div
      xmlns="http://www.w3.org/1999/xhtml"
      style="
        backdrop-filter: blur(0.44px);
        clip-path: url(#a);
        height: 100%;
        width: 100%;
      "
  /></foreignObject>
  <path
    fill="#fff"
    fill-opacity=".37"
    stroke="url(#b)"
    stroke-width=".888"
    d="M.783 30.384 52.251.764l.546 59.872L.783 89.707z"
    data-figma-bg-blur-radius=".888"
  />
  <path
    fill="#eef0f7"
    stroke="url(#c)"
    stroke-opacity=".3"
    stroke-width=".444"
    d="M52.223 60.952.446 90.314 52.07 120.04l51.645-30.134z"
  />
  <path
    fill="url(#d)"
    d="m52.026 23.652 34.766 20.23v40.46l-34.766 20.23-34.766-20.23v-40.46z"
  />
  <path
    stroke="#005bff"
    stroke-width=".5"
    d="m86.792 43.882-34.766-20.23-34.766 20.23m69.532 0v40.46l-34.766 20.23m34.766-60.69L52.026 63.655m0 40.917L17.26 84.342v-40.46m34.766 60.69V63.655M17.26 43.882l34.766 19.773"
  />
  <path
    fill="url(#e)"
    d="m51.485 63.625-33.977-19.33-.004 39.906 34.63 20.159z"
  />
  <g clip-path="url(#f)">
    <path
      fill="#fff"
      d="M32.22 59.823c1.412.84 2.735 2.271 3.82 4.23.16.288.299.415.513.5 3.111 1.258 5.842 5.248 6.413 9.374.15 1.084.102 2.05-.13 2.89-.057.205-.02.376.106.637 2.574 5.365 1.034 10.343-2.9 9.349-.225-.059-.323.01-.402.215-1.462 3.824-6.372 2.246-9.235-2.969-.143-.257-.265-.366-.459-.444-3.155-1.275-5.89-5.271-6.454-9.434-.146-1.07-.092-2.02.14-2.847.057-.205.02-.376-.102-.635-2.585-5.375-1.017-10.379 2.93-9.344.198.051.29 0 .361-.184.85-2.24 2.914-2.786 5.4-1.338m3.422 18.79c-1.786.234-3.513.452-5.227.699-.387.056-.717-.143-1.105-.647-1.343-1.752-2.696-3.481-4.05-5.215-.098-.123-.18-.308-.336-.34-.184 1.923.333 3.913 1.69 5.894 1.367 1.996 2.87 3.014 4.359 2.905 1.523-.11 2.996-.37 4.488-.569.085-.01.18 0 .18-.155zm-.952-14.367c-.034-.166-.123-.258-.19-.356-1.361-1.917-2.81-2.933-4.279-2.892-1.482.047-2.27 1.132-2.315 3.14-.044 2.041-.007 4.13-.017 6.19 0 .222.061.374.214.563.5.627.993 1.27 1.486 1.902.061.077.116.2.218.18 0-2.447.007-4.903-.004-7.368-.003-.507.153-.743.51-.783 1.034-.117 2.058-.261 3.084-.399.432-.055.864-.12 1.293-.177m1.968 10.82v.535c0 2.321-.003 4.645.004 6.97.003.475-.14.713-.476.745-.473.044-.935.115-1.401.176-1.003.135-2.01.268-3.108.415.095.097.143.132.177.185 1.261 1.86 2.638 2.914 4.084 3.039 1.445.124 2.376-.686 2.553-2.484.214-2.198.044-4.643.078-6.958a.5.5 0 0 0-.126-.327c-.578-.743-1.152-1.484-1.785-2.296m-2.404-4.545c.14.185.235.307.327.427 1.645 2.12 3.288 4.24 4.94 6.352.358.456.51.874.507 1.374-.01 1.927-.003 3.864-.003 5.797 0 .142.01.286.017.461.085.012.136.02.187.025 1.479.01 2.356-.899 2.496-2.806.146-1.974-.524-4.014-1.962-5.935-1.449-1.934-2.945-3.8-4.417-5.702-.13-.167-.225-.234-.36-.217-.559.08-1.123.142-1.732.224m-7.814-7.254c-.153-.114-.245-.08-.34-.076-1.407.056-2.23.984-2.36 2.83-.132 1.915.497 3.915 1.874 5.78 1.476 1.996 3.016 3.908 4.526 5.857.088.114.17.215.272.199.585-.08 1.17-.16 1.788-.241-.129-.17-.217-.293-.309-.413-1.646-2.119-3.288-4.24-4.94-6.347-.371-.473-.52-.898-.518-1.413.014-2.043.007-4.101.007-6.176m4.39 6.242c.143-.01.238-.013.33-.027 1.629-.212 3.26-.414 4.88-.652.387-.056.717.126 1.105.63 1.363 1.776 2.737 3.53 4.107 5.29.082.105.15.253.29.283.18-1.883-.31-3.844-1.633-5.81-1.374-2.047-2.894-3.095-4.41-2.99-1.524.11-2.996.371-4.492.564-.085.01-.177.006-.177.16zm4.812 6.064c0-.572-.01-1.054.003-1.518.007-.213-.051-.372-.207-.566-.68-.86-1.357-1.732-2.027-2.607-.13-.17-.224-.225-.357-.21a50 50 0 0 1-2.027.266c-.156.019-.204.116-.204.333.01.937.014 1.875 0 2.798-.003.253.072.43.249.644.323.392.629.806.945 1.21.401.511.802 1.248 1.2 1.474.415.235.827-.02 1.235-.068.39-.05.904.063 1.125-.223.228-.307.04-1.083.065-1.533"
    />
  </g>
  <path
    fill="#f4f4f5"
    fill-opacity=".37"
    stroke="#ccdaff"
    stroke-width=".444"
    d="M103.596 30.237 52.293.892l.275 60.096 51.028 28.879z"
  />
  <foreignObject width="54.563" height="92.305" x="50.367" y="28.971"
    ><div
      xmlns="http://www.w3.org/1999/xhtml"
      style="
        backdrop-filter: blur(0.44px);
        clip-path: url(#g);
        height: 100%;
        width: 100%;
      "
  /></foreignObject>
  <path
    fill="#c9d3ee"
    fill-opacity=".37"
    stroke="url(#h)"
    stroke-width=".888"
    d="m51.701 60.145 51.897-29.523v59.304l-51.18 29.697z"
    data-figma-bg-blur-radius=".888"
  />
  <foreignObject width="105.968" height="62.329" x="-.596" y="-.683"
    ><div
      xmlns="http://www.w3.org/1999/xhtml"
      style="
        backdrop-filter: blur(0.44px);
        clip-path: url(#i);
        height: 100%;
        width: 100%;
      "
  /></foreignObject>
  <path
    fill="#e4eafb"
    stroke="url(#j)"
    stroke-width=".888"
    d="M52.33.718 1.173 30.17l50.773 30.074 51.653-29.759z"
    data-figma-bg-blur-radius=".888"
  />
  <text
    xml:space="preserve"
    fill="#005bff"
    font-size="16"
    letter-spacing="0em"
    style="white-space: pre"
    transform="matrix(1 0 -.5 .86603 25.447 19.718)"
  >
    <tspan x="0" y="17.68">ChatGPT</tspan>
  </text>
  <defs>
    <linearGradient
      id="b"
      x1="53.062"
      x2=".983"
      y1="58.885"
      y2="31.735"
      gradientUnits="userSpaceOnUse"
    >
      <stop offset=".499" stop-color="#a3afff" />
      <stop offset="1" stop-color="#005bff" />
    </linearGradient>
    <linearGradient
      id="c"
      x1="52.444"
      x2="13.271"
      y1="62.645"
      y2="92.251"
      gradientUnits="userSpaceOnUse"
    >
      <stop stop-color="#83afff" />
      <stop offset=".981" stop-color="#0042ba" />
    </linearGradient>
    <linearGradient
      id="d"
      x1="86.947"
      x2="46.947"
      y1="82.8"
      y2="39.3"
      gradientUnits="userSpaceOnUse"
    >
      <stop stop-color="#a3c4ff" />
      <stop offset="1" stop-color="#e2ecff" />
    </linearGradient>
    <linearGradient
      id="e"
      x1="17.447"
      x2="53.554"
      y1="64.513"
      y2="66.632"
      gradientUnits="userSpaceOnUse"
    >
      <stop stop-color="#0f0f0f" />
      <stop offset="1" stop-color="#444" />
    </linearGradient>
    <linearGradient
      id="h"
      x1="103.598"
      x2="52.043"
      y1="88.255"
      y2="61.204"
      gradientUnits="userSpaceOnUse"
    >
      <stop offset=".499" stop-color="#a3afff" />
      <stop offset="1" stop-color="#005bff" />
    </linearGradient>
    <linearGradient
      id="j"
      x1="52.319"
      x2="52.319"
      y1="1"
      y2="60.245"
      gradientUnits="userSpaceOnUse"
    >
      <stop offset=".416" stop-color="#a3c4ff" />
      <stop offset="1" stop-color="#005bff" />
    </linearGradient>
    <clipPath id="a" transform="translate(.548 .888)">
      <path d="M.783 30.384 52.251.764l.546 59.872L.783 89.707z" />
    </clipPath>
    <clipPath id="g" transform="translate(-50.367 -28.971)">
      <path d="m51.701 60.145 51.897-29.523v59.304l-51.18 29.697z" />
    </clipPath>
    <clipPath id="i" transform="translate(.596 .683)">
      <path d="M52.33.718 1.173 30.17l50.773 30.074 51.653-29.759z" />
    </clipPath>
    <clipPath id="f">
      <path fill="#fff" d="m21.447 52.718 25.141 14.514v29.03l-25.14-14.514z" />
    </clipPath>
  </defs>
</svg>
