<svg xmlns="http://www.w3.org/2000/svg" fill="none" viewBox="0 0 105 121">
  <foreignObject width="54.679" height="92.239" x="-.549" y="-.888"
    ><div
      xmlns="http://www.w3.org/1999/xhtml"
      style="
        backdrop-filter: blur(0.44px);
        clip-path: url(#a);
        height: 100%;
        width: 100%;
      "
  /></foreignObject>
  <path
    fill="#fff"
    fill-opacity=".37"
    stroke="url(#b)"
    stroke-width=".888"
    d="M.783 30.384 52.251.764l.546 59.872L.783 89.707z"
    data-figma-bg-blur-radius=".888"
  />
  <path
    fill="#eef0f7"
    stroke="url(#c)"
    stroke-opacity=".3"
    stroke-width=".444"
    d="M52.223 60.953.446 90.315 52.07 120.04l51.645-30.134z"
  />
  <path
    fill="url(#d)"
    d="m52.026 23.653 34.766 20.23v40.46l-34.766 20.23-34.766-20.23v-40.46z"
  />
  <path
    stroke="#005bff"
    stroke-width=".5"
    d="m86.792 43.883-34.766-20.23-34.766 20.23m69.532 0v40.46l-34.766 20.23m34.766-60.69L52.026 63.656m0 40.917L17.26 84.343v-40.46m34.766 60.69V63.656M17.26 43.883l34.766 19.773"
  />
  <path
    fill="url(#e)"
    d="M51.618 63.696 17.496 44.3l.013 39.92 34.525 20.08z"
  />
  <g clip-path="url(#f)">
    <mask
      id="g"
      width="36"
      height="61"
      x="17"
      y="44"
      maskUnits="userSpaceOnUse"
      style="mask-type: luminance"
    >
      <path fill="#fff" d="m51.809 63.58-34.29-19.274v39.932l34.508 19.941z" />
    </mask>
    <g fill-rule="evenodd" clip-rule="evenodd" mask="url(#g)">
      <path
        fill="url(#h)"
        d="M37.545 74.81c.552.318 1 1.094 1 1.731v3.464c0 .638-.448.896-1 .578l-5.733-3.31c-.487-.257-.882-.062-.947.448v2.915c0 .638-.448.897-1 .578l-3-1.732c-.552-.319-1-1.094-1-1.732v-3.464c0-.638.448-.896 1-.577l2.424 1.399c.528.274.949.014.949-.604v-2.758c0-.638.448-.897 1-.578z"
      />
      <path
        fill="url(#i)"
        d="M40.29 68.51c.553.318 1 1.094 1 1.731v2.685c.01.634.453 1.397 1 1.712l2.273 1.313c.552.319 1 1.094 1 1.732v3.464c0 .637-.448.896-1 .577l-3-1.732c-.552-.319-1-1.094-1-1.732v-2.7c-.013-.602-.414-1.314-.922-1.652l-10.598-6.12c-.51-.264-.92-.028-.946.547v2.728c0 .637-.447.896-1 .577l-3-1.732c-.551-.319-1-1.094-1-1.732v-3.464c0-.637.449-.896 1-.577l2.47 1.426c.486.238.874.02.92-.512v-2.778c0-.637.447-.896 1-.577z"
      />
    </g>
  </g>
  <path
    fill="#f4f4f5"
    fill-opacity=".37"
    stroke="#ccdaff"
    stroke-width=".444"
    d="M103.596 30.238 52.293.893l.275 60.096 51.028 28.879z"
  />
  <foreignObject width="54.563" height="92.305" x="50.367" y="28.972"
    ><div
      xmlns="http://www.w3.org/1999/xhtml"
      style="
        backdrop-filter: blur(0.44px);
        clip-path: url(#j);
        height: 100%;
        width: 100%;
      "
  /></foreignObject>
  <path
    fill="#c9d3ee"
    fill-opacity=".37"
    stroke="url(#k)"
    stroke-width=".888"
    d="m51.701 60.146 51.897-29.523v59.304l-51.18 29.697z"
    data-figma-bg-blur-radius=".888"
  />
  <foreignObject width="105.968" height="62.329" x="-.596" y="-.682"
    ><div
      xmlns="http://www.w3.org/1999/xhtml"
      style="
        backdrop-filter: blur(0.44px);
        clip-path: url(#l);
        height: 100%;
        width: 100%;
      "
  /></foreignObject>
  <path
    fill="#e4eafb"
    fill-opacity=".37"
    stroke="url(#m)"
    stroke-width=".888"
    d="M52.33.719 1.173 30.17l50.773 30.074 51.653-29.759z"
    data-figma-bg-blur-radius=".888"
  />
  <text
    xml:space="preserve"
    fill="#005bff"
    font-size="16"
    letter-spacing="0em"
    style="white-space: pre"
    transform="matrix(1 0 -.5 .86603 38.809 20.08)"
  >
    <tspan x="0" y="17.68">Brain</tspan>
  </text>
  <defs>
    <linearGradient
      id="b"
      x1="53.062"
      x2=".983"
      y1="58.885"
      y2="31.735"
      gradientUnits="userSpaceOnUse"
    >
      <stop offset=".499" stop-color="#a3afff" />
      <stop offset="1" stop-color="#005bff" />
    </linearGradient>
    <linearGradient
      id="c"
      x1="52.444"
      x2="13.271"
      y1="62.646"
      y2="92.252"
      gradientUnits="userSpaceOnUse"
    >
      <stop stop-color="#83afff" />
      <stop offset=".981" stop-color="#0042ba" />
    </linearGradient>
    <linearGradient
      id="d"
      x1="86.947"
      x2="46.947"
      y1="82.801"
      y2="39.301"
      gradientUnits="userSpaceOnUse"
    >
      <stop stop-color="#a3c4ff" />
      <stop offset="1" stop-color="#e2ecff" />
    </linearGradient>
    <linearGradient
      id="e"
      x1="17.808"
      x2="53.915"
      y1="64.875"
      y2="66.994"
      gradientUnits="userSpaceOnUse"
    >
      <stop stop-color="#0f0f0f" />
      <stop offset="1" stop-color="#444" />
    </linearGradient>
    <linearGradient
      id="h"
      x1="34.391"
      x2="26.256"
      y1="65.103"
      y2="79.193"
      gradientUnits="userSpaceOnUse"
    >
      <stop stop-color="#fff" />
      <stop offset="1" stop-color="#a9a9a9" />
    </linearGradient>
    <linearGradient
      id="i"
      x1="34.391"
      x2="26.257"
      y1="65.103"
      y2="79.193"
      gradientUnits="userSpaceOnUse"
    >
      <stop stop-color="#fff" />
      <stop offset="1" stop-color="#a9a9a9" />
    </linearGradient>
    <linearGradient
      id="k"
      x1="103.598"
      x2="52.043"
      y1="88.256"
      y2="61.205"
      gradientUnits="userSpaceOnUse"
    >
      <stop offset=".499" stop-color="#a3afff" />
      <stop offset="1" stop-color="#005bff" />
    </linearGradient>
    <linearGradient
      id="m"
      x1="52.319"
      x2="52.319"
      y1="1.001"
      y2="60.246"
      gradientUnits="userSpaceOnUse"
    >
      <stop offset=".416" stop-color="#a3c4ff" />
      <stop offset="1" stop-color="#005bff" />
    </linearGradient>
    <clipPath id="a" transform="translate(.549 .888)">
      <path d="M.783 30.384 52.251.764l.546 59.872L.783 89.707z" />
    </clipPath>
    <clipPath id="j" transform="translate(-50.367 -28.972)">
      <path d="m51.701 60.146 51.897-29.523v59.304l-51.18 29.697z" />
    </clipPath>
    <clipPath id="l" transform="translate(.596 .682)">
      <path d="M52.33.719 1.173 30.17l50.773 30.074 51.653-29.759z" />
    </clipPath>
    <clipPath id="f">
      <path fill="#fff" d="m16.809 44.08 35.045 20.234v40.467L16.809 84.546z" />
    </clipPath>
  </defs>
</svg>
