<svg xmlns="http://www.w3.org/2000/svg" fill="none" viewBox="0 0 190 218">
  <path
    stroke="#605d5d"
    stroke-dasharray="1.42 1.42"
    stroke-width=".71"
    d="M93.36.83v105.4m0 0L.22 161.38m93.14-55.15 94.37 55.15"
  />
  <g fill="#fff" filter="url(#a)">
    <path
      d="m32.68 116.15 10.92-6.3v59.42l-10.92 6.3zM49.06 100.4l10.9-6.3v65.72l-10.9 6.3zM65.43 119.76l10.91-6.3v36.9l-10.91 6.3zM81.8 63.49l10.91-6.3v83.73l-10.9 6.3zM98.17 78.34l10.92-6.3v59.42l-10.92 6.3zM114.55 24.78l10.91-6.3V122l-10.91 6.3z"
    />
  </g>
  <path
    stroke="#605d5d"
    stroke-dasharray="1.42 1.42"
    stroke-width=".71"
    d="M.31.18h104.18v106.74H.31z"
    transform="matrix(.87 -.5 0 1 73.94 95.23)"
  />
  <g clip-path="url(#b)">
    <path
      fill="#005bff"
      d="M92.15 169.85c.95-.55 1.86-.64 2.53-.25.67.38 1.04 1.21 1.04 2.3 0 1.1-.37 2.37-1.04 3.53a7.3 7.3 0 0 1-2.53 2.67c-.95.55-1.86.64-2.53.25s-1.04-1.22-1.04-2.31c0-1.1.37-2.37 1.04-3.53a7.3 7.3 0 0 1 2.53-2.66m0-6.2c5.32-3.07 9.94-2.33 12.34 1.31.23.36.35.53.43.98.06.29.06.96 0 1.32-.08.54-.2.85-.43 1.47-2.4 6.41-7.02 12.49-12.34 15.56s-9.94 2.33-12.34-1.31c-.23-.35-.35-.53-.43-.97-.06-.3-.06-.97 0-1.32.08-.55.2-.86.43-1.48 2.4-6.4 7.02-12.49 12.34-15.56m-9.34 13.51c-.31.67-.47 1-.62 1.72a5 5 0 0 0 0 1.69c.15.54.3.7.62 1a5.7 5.7 0 0 0 3.15 1.5c1.86.26 4-.26 6.19-1.53a22 22 0 0 0 6.2-5.62 29 29 0 0 0 3.14-5.14c.31-.67.47-1 .62-1.71.09-.44.09-1.35 0-1.7-.15-.54-.3-.69-.62-.99a5.6 5.6 0 0 0-3.15-1.5c-1.86-.27-4 .26-6.19 1.52a22 22 0 0 0-6.2 5.63 29 29 0 0 0-3.14 5.13"
    />
  </g>
  <path
    stroke="#605d5d"
    stroke-width=".71"
    d="M3.01 159.59V59.02M186.08 159.59V59.02"
  />
  <path
    stroke="#dbdbdb"
    stroke-width=".71"
    d="M94.36 108v106.98l-91.6-52.89V56.31zm92.31 54.1-91.6 52.88V108l91.6-51.69zm-.36-106.4-91.6 51.69L3.14 55.7 94.72 2.82z"
  />
  <path
    fill="#fafafa"
    stroke="#605d5d"
    stroke-width=".43"
    d="M96.94 106.41v2.77l-2.4 1.38-2.39-1.38v-2.77l2.4-1.38zM96.94 213.6v2.77l-2.4 1.38-2.39-1.38v-2.76l2.4-1.39zM5.4 160.61v2.77l-2.39 1.38-2.4-1.38v-2.77l2.4-1.38zM188.48 160.61v2.77l-2.4 1.38-2.4-1.38v-2.77l2.4-1.38zM5.4 54.62v2.77l-2.39 1.38-2.4-1.38v-2.77l2.4-1.38zM188.48 54.62v2.77l-2.4 1.38-2.4-1.38v-2.77l2.4-1.38zM96.94 1.63v2.76l-2.4 1.39-2.39-1.39V1.63l2.4-1.38z"
  />
  <defs>
    <clipPath id="b">
      <path fill="#fff" d="m76.92 165.18 30.46-17.59v35.18l-30.46 17.58z" />
    </clipPath>
    <filter
      id="a"
      width="95.62"
      height="157.1"
      x="29.84"
      y="18.47"
      color-interpolation-filters="sRGB"
      filterUnits="userSpaceOnUse"
    >
      <feFlood flood-opacity="0" result="BackgroundImageFix" />
      <feColorMatrix
        in="SourceAlpha"
        result="hardAlpha"
        values="0 0 0 0 0 0 0 0 0 0 0 0 0 0 0 0 0 0 127 0"
      />
      <feOffset dx="-2.84" />
      <feComposite in2="hardAlpha" operator="out" />
      <feColorMatrix
        values="0 0 0 0 0.509615 0 0 0 0 0.509615 0 0 0 0 0.509615 0 0 0 0.25 0"
      />
      <feBlend in2="BackgroundImageFix" result="effect1_dropShadow_3366_3361" />
      <feBlend
        in="SourceGraphic"
        in2="effect1_dropShadow_3366_3361"
        result="shape"
      />
    </filter>
  </defs>
</svg>
