<svg xmlns="http://www.w3.org/2000/svg" fill="none" viewBox="0 0 414 234">
  <g clip-path="url(#a)">
    <path fill="#f4f4f5" d="M0 0h413.33v234H0z" />
    <g filter="url(#b)" shape-rendering="crispEdges">
      <rect
        width="332.21"
        height="249.36"
        x="40.56"
        y="25.65"
        fill="url(#c)"
        rx="12"
      />
      <rect
        width="331.71"
        height="248.86"
        x="40.81"
        y="25.9"
        stroke="#e4e4e7"
        stroke-width=".5"
        rx="11.75"
      />
    </g>
    <rect
      width="232.28"
      height="6.26"
      x="96.18"
      y="121.72"
      fill="url(#d)"
      rx="3.13"
    />
    <rect
      width="140.68"
      height="20.75"
      x="97"
      y="68.79"
      fill="url(#e)"
      rx="10.37"
    />
    <rect
      width="232.28"
      height="6.26"
      x="97"
      y="146.77"
      fill="url(#f)"
      rx="3.13"
    />
    <rect
      width="232.28"
      height="6.26"
      x="97"
      y="171.82"
      fill="url(#g)"
      rx="3.13"
    />
    <rect
      width="152.45"
      height="6.26"
      x="97"
      y="196.88"
      fill="url(#h)"
      rx="3.13"
    />
    <path
      fill="#2a76ff"
      d="M187.98 75.33a1 1 0 0 1 1.37-1.15l10.26 4.35a1 1 0 0 1-.1 1.88l-4.4 1.36a1 1 0 0 0-.6.5l-2.07 4.13a1 1 0 0 1-1.87-.22z"
    />
    <g filter="url(#i)">
      <rect
        width="73.63"
        height="24.52"
        x="199.26"
        y="82.07"
        fill="#2a76ff"
        rx="12.26"
      />
      <rect
        width="73.13"
        height="24.02"
        x="199.51"
        y="82.32"
        stroke="#e4e4e7"
        stroke-width=".5"
        rx="12.01"
      />
    </g>
    <path
      fill="#fff"
      d="m225.12 98.54 3.45-9.57h1.84l3.45 9.57h-1.55l-.87-2.5h-3.9l-.87 2.5zm2.87-3.82h3l-1.5-4.36zm6.9 3.82v-7.17h1.3l.04 1.78-.16-.06q.12-.6.42-1 .3-.42.75-.65t.97-.23q.9 0 1.5.52.57.52.72 1.42h-.23q.13-.63.4-1.05.3-.43.76-.66.45-.23 1.04-.23.75 0 1.28.32.54.3.8.92.3.6.29 1.48v4.6h-1.43v-4.25a2.4 2.4 0 0 0-.34-1.4q-.33-.47-1.02-.47a1.35 1.35 0 0 0-1.3.89q-.18.42-.18 1.03v4.2h-1.36v-4.2q0-.9-.31-1.41-.3-.51-1.02-.51-.45 0-.8.23-.32.22-.51.67-.2.44-.19 1.02v4.2zm11.78 0v-7.17h1.43v7.17zm-.03-8.2V88.9h1.48v1.42zm3.6 8.2v-7.17h1.3l.05 1.91-.17-.1q.12-.7.45-1.12.34-.43.83-.64t1.05-.21q.8 0 1.33.36.54.36.8.97.3.6.29 1.39v4.6h-1.43v-4.17q0-.64-.13-1.06-.14-.44-.45-.66-.3-.23-.8-.23-.76 0-1.23.5t-.47 1.45v4.18zm9.81.16q-1.12 0-1.8-.52a1.7 1.7 0 0 1-.65-1.44q0-.93.55-1.44.57-.52 1.74-.75l2.46-.47q0-.84-.39-1.24-.38-.42-1.16-.42-.68 0-1.07.31-.39.3-.54.89l-1.47-.1a2.7 2.7 0 0 1 1-1.7 3.3 3.3 0 0 1 2.08-.61q1.46 0 2.21.78.77.76.77 2.17v2.79q0 .25.08.36t.3.1h.25v1.13a2 2 0 0 1-.52.04q-.45 0-.8-.15a1 1 0 0 1-.48-.49q-.16-.35-.16-.93l.15.07q-.11.47-.48.84a3 3 0 0 1-.9.57q-.54.2-1.17.2m.23-1.13q.65 0 1.1-.25t.72-.7a2 2 0 0 0 .25-1v-.47l-2.1.4q-.65.13-.91.4a1 1 0 0 0-.26.66q0 .45.31.71.33.24.89.25"
    />
    <circle cx="212.03" cy="94.53" r="8.79" fill="url(#j)" />
    <circle
      cx="212.03"
      cy="94.53"
      r="8.55"
      stroke="#3370ff"
      stroke-opacity=".2"
      stroke-width=".49"
    />
    <path
      fill="#fff"
      d="M211.2 91.65h.86l1.88 4.88h-.8l-.46-1.25h-2.1l-.46 1.25h-.8zm-.4 3.01h1.65l-.8-2.2h-.03z"
    />
    <path
      fill="#10b981"
      d="M116.83 154.79a1 1 0 0 1 1.36-1.15l10.27 4.35a1 1 0 0 1-.1 1.87l-4.4 1.37a1 1 0 0 0-.6.5l-2.08 4.12a1 1 0 0 1-1.86-.22z"
    />
    <g filter="url(#k)">
      <rect
        width="73.63"
        height="24.52"
        x="128.11"
        y="161.53"
        fill="#10b981"
        rx="12.26"
      />
      <rect
        width="73.13"
        height="24.02"
        x="128.36"
        y="161.78"
        stroke="#e4e4e7"
        stroke-width=".5"
        rx="12.01"
      />
    </g>
    <path
      fill="#fff"
      d="M154.86 178v-9.57h1.99l2.84 7.85 2.84-7.85h2V178h-1.46v-7l-2.57 6.99h-1.62l-2.57-7V178zm13.7.15q-1.11 0-1.79-.5a1.7 1.7 0 0 1-.66-1.45q0-.93.55-1.44.57-.52 1.74-.75l2.47-.47q0-.84-.4-1.24-.38-.42-1.15-.42-.69 0-1.08.3t-.54.9l-1.47-.1a2.7 2.7 0 0 1 1-1.7 3.3 3.3 0 0 1 2.09-.61q1.45 0 2.2.78.77.75.77 2.17v2.78q0 .26.09.37t.3.1h.25v1.12a2 2 0 0 1-.53.04q-.45 0-.8-.15a1 1 0 0 1-.48-.48q-.15-.34-.16-.93l.15.07q-.1.47-.47.83a3 3 0 0 1-.9.58q-.54.2-1.18.2m.23-1.13q.65 0 1.1-.24.47-.25.72-.7a2 2 0 0 0 .26-1.01v-.46l-2.1.4q-.66.13-.92.4a1 1 0 0 0-.26.66q0 .45.31.71.33.24.9.24m5.34.97v-7.16h1.3l.06 1.9-.12-.04q.15-.97.6-1.42t1.22-.44h.69v1.28h-.7q-.52 0-.9.17-.36.18-.54.54t-.18.94V178zm4.92 0v-7.16h1.43v7.16zm-.03-8.2v-1.43h1.48v1.43zm5.35 8.36q-1.11 0-1.79-.5a1.7 1.7 0 0 1-.66-1.45q0-.93.55-1.44.57-.52 1.74-.75l2.46-.47q0-.84-.39-1.24-.39-.42-1.15-.42-.69 0-1.08.3t-.54.9l-1.47-.1a2.7 2.7 0 0 1 1-1.7 3.3 3.3 0 0 1 2.09-.61q1.45 0 2.2.78.77.75.77 2.17v2.78q0 .26.08.37.1.1.3.1h.26v1.12a2 2 0 0 1-.53.04q-.45 0-.8-.15a1 1 0 0 1-.48-.48q-.15-.34-.16-.93l.15.07q-.1.47-.47.83-.36.37-.9.58-.55.2-1.18.2m.23-1.13q.65 0 1.1-.24.47-.25.72-.7a2 2 0 0 0 .25-1.01v-.46l-2.1.4q-.64.13-.91.4a1 1 0 0 0-.26.66q0 .45.31.71.32.24.9.24"
    />
    <circle
      cx="140.88"
      cy="173.99"
      r="8.55"
      fill="url(#l)"
      stroke="#28d29a"
      stroke-width=".49"
    />
    <path
      fill="#fff"
      d="M138.26 171.54h.88l1.7 3.9h.02l1.7-3.9h.88v4.88h-.75v-3.49h-.02l-1.5 3.49h-.64l-1.5-3.49H139v3.49h-.74z"
    />
    <path
      fill="#8774ee"
      d="M265.13 126.6a1 1 0 0 1 1.36-1.14l10.27 4.35a1 1 0 0 1-.1 1.87l-4.4 1.37a1 1 0 0 0-.6.5l-2.08 4.12a1 1 0 0 1-1.86-.22z"
    />
    <g filter="url(#m)">
      <rect
        width="73.63"
        height="24.52"
        x="276.41"
        y="133.35"
        fill="#8774ee"
        rx="12.26"
      />
      <rect
        width="73.13"
        height="24.02"
        x="276.66"
        y="133.6"
        stroke="#e4e4e7"
        stroke-width=".5"
        rx="12.01"
      />
    </g>
    <path
      fill="#fff"
      d="M303.16 149.81v-9.56h3.8q1.03 0 1.77.35a2.65 2.65 0 0 1 1.55 2.53q0 .65-.3 1.16a2.3 2.3 0 0 1-1.77 1.16l-.07-.12q.9 0 1.4.41t.58 1.28l.25 2.79h-1.46l-.23-2.6q-.04-.58-.4-.85-.34-.28-1.14-.28h-2.53v3.73zm1.45-5.06H307q.82 0 1.3-.4.48-.43.48-1.18 0-.76-.48-1.17-.5-.42-1.42-.42h-2.26zm10.32 5.22q-1.03 0-1.8-.46-.75-.46-1.18-1.3a4.4 4.4 0 0 1-.42-1.98q0-1.16.42-1.98.41-.84 1.19-1.3.75-.46 1.79-.47 1.02 0 1.79.48.75.45 1.18 1.29.42.83.42 1.98 0 1.13-.42 1.98-.42.84-1.18 1.3t-1.8.46m0-1.24q.9 0 1.41-.66.5-.67.5-1.84 0-1.18-.5-1.83-.5-.68-1.41-.68t-1.42.68-.5 1.83.5 1.84q.5.66 1.42.66m8.4 1.24q-.74 0-1.32-.32a2.3 2.3 0 0 1-.87-.92l-.04 1.08h-1.34v-9.56h1.43v3.4q.29-.46.83-.82.57-.35 1.31-.35.93 0 1.62.46.67.46 1.05 1.3t.38 1.99q0 1.15-.38 1.99t-1.05 1.3q-.69.45-1.62.45m-.23-1.24q.83 0 1.3-.66a3 3 0 0 0 .5-1.84q0-1.18-.5-1.83a1.5 1.5 0 0 0-1.28-.68q-.6 0-1.04.3-.43.3-.66.86a4 4 0 0 0-.23 1.35q0 .75.23 1.33.23.57.66.88.44.3 1.02.3m4.72 1.08v-7.16h1.43v7.16zm-.02-8.2v-1.43h1.48v1.43zm3.59 8.2v-7.16h1.3l.06 1.9-.18-.09q.13-.7.46-1.13.34-.44.82-.63.5-.22 1.05-.22.81 0 1.34.37.54.34.8.97.3.6.29 1.38v4.61h-1.43v-4.18q0-.63-.13-1.06-.14-.43-.45-.66-.3-.23-.8-.23-.76 0-1.23.5-.48.5-.47 1.45v4.18z"
    />
    <circle
      cx="289.18"
      cy="145.81"
      r="8.55"
      fill="url(#n)"
      stroke="#ae9fff"
      stroke-width=".49"
    />
    <path
      fill="#fff"
      d="M286.56 143.35h.88l1.7 3.92h.02l1.7-3.92h.88v4.89h-.75v-3.49h-.02l-1.5 3.49h-.64l-1.5-3.49h-.03v3.49h-.74z"
    />
  </g>
  <defs>
    <linearGradient
      id="c"
      x1="206.67"
      x2="206.67"
      y1="25.65"
      y2="275.01"
      gradientUnits="userSpaceOnUse"
    >
      <stop stop-color="#fff" />
      <stop offset="1" stop-color="#fff" stop-opacity="0" />
    </linearGradient>
    <linearGradient
      id="d"
      x1="96.18"
      x2="328.47"
      y1="124.85"
      y2="124.85"
      gradientUnits="userSpaceOnUse"
    >
      <stop stop-color="#eae9e9" />
      <stop offset="1" stop-color="#fff" stop-opacity="0" />
    </linearGradient>
    <linearGradient
      id="e"
      x1="97"
      x2="237.68"
      y1="79.16"
      y2="79.16"
      gradientUnits="userSpaceOnUse"
    >
      <stop stop-color="#eae9e9" />
      <stop offset="1" stop-color="#fff" stop-opacity="0" />
    </linearGradient>
    <linearGradient
      id="f"
      x1="97"
      x2="329.28"
      y1="149.91"
      y2="149.91"
      gradientUnits="userSpaceOnUse"
    >
      <stop stop-color="#eae9e9" />
      <stop offset="1" stop-color="#fff" stop-opacity="0" />
    </linearGradient>
    <linearGradient
      id="g"
      x1="97"
      x2="329.28"
      y1="174.96"
      y2="174.96"
      gradientUnits="userSpaceOnUse"
    >
      <stop stop-color="#eae9e9" />
      <stop offset="1" stop-color="#fff" stop-opacity="0" />
    </linearGradient>
    <linearGradient
      id="h"
      x1="97"
      x2="249.44"
      y1="200.01"
      y2="200.01"
      gradientUnits="userSpaceOnUse"
    >
      <stop stop-color="#eae9e9" />
      <stop offset="1" stop-color="#fff" stop-opacity="0" />
    </linearGradient>
    <linearGradient
      id="j"
      x1="212.03"
      x2="205.93"
      y1="85.74"
      y2="101.86"
      gradientUnits="userSpaceOnUse"
    >
      <stop stop-color="#3e78ff" />
      <stop offset="1" stop-color="#78a0ff" />
    </linearGradient>
    <linearGradient
      id="l"
      x1="140.88"
      x2="134.78"
      y1="165.2"
      y2="181.32"
      gradientUnits="userSpaceOnUse"
    >
      <stop stop-color="#1edb9c" />
      <stop offset="1" stop-color="#0fce8e" />
    </linearGradient>
    <linearGradient
      id="n"
      x1="289.18"
      x2="283.07"
      y1="137.02"
      y2="153.14"
      gradientUnits="userSpaceOnUse"
    >
      <stop stop-color="#8774ee" />
      <stop offset="1" stop-color="#ae9fff" />
    </linearGradient>
    <filter
      id="b"
      width="356.21"
      height="273.36"
      x="28.56"
      y="23.65"
      color-interpolation-filters="sRGB"
      filterUnits="userSpaceOnUse"
    >
      <feFlood flood-opacity="0" result="BackgroundImageFix" />
      <feColorMatrix
        in="SourceAlpha"
        result="hardAlpha"
        values="0 0 0 0 0 0 0 0 0 0 0 0 0 0 0 0 0 0 127 0"
      />
      <feMorphology
        in="SourceAlpha"
        radius="2"
        result="effect1_dropShadow_2234_1456"
      />
      <feOffset dy="4" />
      <feGaussianBlur stdDeviation="3" />
      <feComposite in2="hardAlpha" operator="out" />
      <feColorMatrix values="0 0 0 0 0 0 0 0 0 0 0 0 0 0 0 0 0 0 0.05 0" />
      <feBlend in2="BackgroundImageFix" result="effect1_dropShadow_2234_1456" />
      <feColorMatrix
        in="SourceAlpha"
        result="hardAlpha"
        values="0 0 0 0 0 0 0 0 0 0 0 0 0 0 0 0 0 0 127 0"
      />
      <feMorphology
        in="SourceAlpha"
        radius="3"
        result="effect2_dropShadow_2234_1456"
      />
      <feOffset dy="10" />
      <feGaussianBlur stdDeviation="7.5" />
      <feComposite in2="hardAlpha" operator="out" />
      <feColorMatrix values="0 0 0 0 0 0 0 0 0 0 0 0 0 0 0 0 0 0 0.1 0" />
      <feBlend
        in2="effect1_dropShadow_2234_1456"
        result="effect2_dropShadow_2234_1456"
      />
      <feBlend
        in="SourceGraphic"
        in2="effect2_dropShadow_2234_1456"
        result="shape"
      />
    </filter>
    <filter
      id="i"
      width="97.63"
      height="48.52"
      x="187.26"
      y="80.07"
      color-interpolation-filters="sRGB"
      filterUnits="userSpaceOnUse"
    >
      <feFlood flood-opacity="0" result="BackgroundImageFix" />
      <feColorMatrix
        in="SourceAlpha"
        result="hardAlpha"
        values="0 0 0 0 0 0 0 0 0 0 0 0 0 0 0 0 0 0 127 0"
      />
      <feMorphology
        in="SourceAlpha"
        radius="2"
        result="effect1_dropShadow_2234_1456"
      />
      <feOffset dy="4" />
      <feGaussianBlur stdDeviation="3" />
      <feComposite in2="hardAlpha" operator="out" />
      <feColorMatrix values="0 0 0 0 0 0 0 0 0 0 0 0 0 0 0 0 0 0 0.05 0" />
      <feBlend in2="BackgroundImageFix" result="effect1_dropShadow_2234_1456" />
      <feColorMatrix
        in="SourceAlpha"
        result="hardAlpha"
        values="0 0 0 0 0 0 0 0 0 0 0 0 0 0 0 0 0 0 127 0"
      />
      <feMorphology
        in="SourceAlpha"
        radius="3"
        result="effect2_dropShadow_2234_1456"
      />
      <feOffset dy="10" />
      <feGaussianBlur stdDeviation="7.5" />
      <feComposite in2="hardAlpha" operator="out" />
      <feColorMatrix values="0 0 0 0 0 0 0 0 0 0 0 0 0 0 0 0 0 0 0.1 0" />
      <feBlend
        in2="effect1_dropShadow_2234_1456"
        result="effect2_dropShadow_2234_1456"
      />
      <feBlend
        in="SourceGraphic"
        in2="effect2_dropShadow_2234_1456"
        result="shape"
      />
    </filter>
    <filter
      id="k"
      width="97.63"
      height="48.52"
      x="116.11"
      y="159.53"
      color-interpolation-filters="sRGB"
      filterUnits="userSpaceOnUse"
    >
      <feFlood flood-opacity="0" result="BackgroundImageFix" />
      <feColorMatrix
        in="SourceAlpha"
        result="hardAlpha"
        values="0 0 0 0 0 0 0 0 0 0 0 0 0 0 0 0 0 0 127 0"
      />
      <feMorphology
        in="SourceAlpha"
        radius="2"
        result="effect1_dropShadow_2234_1456"
      />
      <feOffset dy="4" />
      <feGaussianBlur stdDeviation="3" />
      <feComposite in2="hardAlpha" operator="out" />
      <feColorMatrix values="0 0 0 0 0 0 0 0 0 0 0 0 0 0 0 0 0 0 0.05 0" />
      <feBlend in2="BackgroundImageFix" result="effect1_dropShadow_2234_1456" />
      <feColorMatrix
        in="SourceAlpha"
        result="hardAlpha"
        values="0 0 0 0 0 0 0 0 0 0 0 0 0 0 0 0 0 0 127 0"
      />
      <feMorphology
        in="SourceAlpha"
        radius="3"
        result="effect2_dropShadow_2234_1456"
      />
      <feOffset dy="10" />
      <feGaussianBlur stdDeviation="7.5" />
      <feComposite in2="hardAlpha" operator="out" />
      <feColorMatrix values="0 0 0 0 0 0 0 0 0 0 0 0 0 0 0 0 0 0 0.1 0" />
      <feBlend
        in2="effect1_dropShadow_2234_1456"
        result="effect2_dropShadow_2234_1456"
      />
      <feBlend
        in="SourceGraphic"
        in2="effect2_dropShadow_2234_1456"
        result="shape"
      />
    </filter>
    <filter
      id="m"
      width="97.63"
      height="48.52"
      x="264.41"
      y="131.35"
      color-interpolation-filters="sRGB"
      filterUnits="userSpaceOnUse"
    >
      <feFlood flood-opacity="0" result="BackgroundImageFix" />
      <feColorMatrix
        in="SourceAlpha"
        result="hardAlpha"
        values="0 0 0 0 0 0 0 0 0 0 0 0 0 0 0 0 0 0 127 0"
      />
      <feMorphology
        in="SourceAlpha"
        radius="2"
        result="effect1_dropShadow_2234_1456"
      />
      <feOffset dy="4" />
      <feGaussianBlur stdDeviation="3" />
      <feComposite in2="hardAlpha" operator="out" />
      <feColorMatrix values="0 0 0 0 0 0 0 0 0 0 0 0 0 0 0 0 0 0 0.05 0" />
      <feBlend in2="BackgroundImageFix" result="effect1_dropShadow_2234_1456" />
      <feColorMatrix
        in="SourceAlpha"
        result="hardAlpha"
        values="0 0 0 0 0 0 0 0 0 0 0 0 0 0 0 0 0 0 127 0"
      />
      <feMorphology
        in="SourceAlpha"
        radius="3"
        result="effect2_dropShadow_2234_1456"
      />
      <feOffset dy="10" />
      <feGaussianBlur stdDeviation="7.5" />
      <feComposite in2="hardAlpha" operator="out" />
      <feColorMatrix values="0 0 0 0 0 0 0 0 0 0 0 0 0 0 0 0 0 0 0.1 0" />
      <feBlend
        in2="effect1_dropShadow_2234_1456"
        result="effect2_dropShadow_2234_1456"
      />
      <feBlend
        in="SourceGraphic"
        in2="effect2_dropShadow_2234_1456"
        result="shape"
      />
    </filter>
    <clipPath id="a"><path fill="#fff" d="M0 0h413.33v234H0z" /></clipPath>
  </defs>
</svg>
