<svg xmlns="http://www.w3.org/2000/svg" fill="none" viewBox="0 0 414 234">
  <g clip-path="url(#a)">
    <path fill="#f4f4f5" d="M0 0h414.68v234H0z" />
    <circle cx="206.67" cy="117" r="146.54" fill="#fff" fill-opacity=".2" />
    <circle
      cx="206.67"
      cy="117"
      r="146.02"
      stroke="#005bff"
      stroke-dasharray="2.08 2.08"
      stroke-opacity=".2"
      stroke-width="1.04"
    />
    <circle
      cx="206.67"
      cy="117"
      r="77.49"
      fill="#fff"
      fill-opacity=".6"
      stroke="#005bff"
      stroke-width=".9"
    />
    <path
      stroke="#005bff"
      stroke-width="2.35"
      d="m205.56 64.05-26.63 19.36-18.88 2.96 6.86 57.8 31.56 18.93 7.1 6.97"
    />
    <path
      stroke="#005bff"
      stroke-width="2.35"
      d="m203.96 64.05 26.63 19.36 18.88 2.96-6.87 57.8-31.56 18.93-7.08 6.97"
    />
    <mask
      id="b"
      width="22"
      height="46"
      x="194.57"
      y="95.69"
      fill="#000"
      maskUnits="userSpaceOnUse"
    >
      <path fill="#fff" d="M194.57 95.69h22v46h-22z" />
      <path
        d="M214.18 103.48v9.6l-4.86 2.8-.55 19.48-2.9 2.56-2.89-2.56-.55-19.48-4.86-2.8v-9.6l8.3-4.8z"
      />
    </mask>
    <path
      fill="#fff"
      d="M214.18 103.48v9.6l-4.86 2.8-.55 19.48-2.9 2.56-2.89-2.56-.55-19.48-4.86-2.8v-9.6l8.3-4.8z"
    />
    <path
      fill="#005bff"
      d="M214.18 103.48h2.35v-1.36l-1.17-.68zm0 9.6 1.18 2.03 1.17-.68v-1.36zm-4.86 2.8-1.17-2.04-1.14.66-.04 1.31zm-.55 19.48 1.55 1.77.77-.68.03-1.02zm-2.9 2.56-1.55 1.76 1.56 1.38 1.55-1.38zm-2.89-2.56-2.35.07.03 1.02.77.68zm-.55-19.48 2.35-.07-.03-1.31-1.14-.66zm-4.86-2.8h-2.35v1.35l1.18.68zm0-9.6-1.17-2.04-1.18.68v1.36zm8.3-4.8 1.18-2.03-1.17-.68-1.18.68zm8.31 4.8h-2.35v9.6h4.7v-9.6zm0 9.6-1.17-2.05-4.86 2.81 1.17 2.04 1.18 2.03 4.86-2.8zm-4.86 2.8-2.35-.07-.55 19.49 2.35.06 2.35.07.55-19.49zm-.55 19.48-1.56-1.76-2.89 2.56 1.56 1.76 1.55 1.76 2.9-2.55zm-2.9 2.56 1.56-1.76-2.89-2.56-1.56 1.76-1.55 1.77 2.89 2.55zm-2.89-2.56 2.36-.06-.56-19.49-2.35.07-2.35.06.55 19.49zm-.55-19.48 1.18-2.04-4.86-2.8-1.18 2.03-1.17 2.04 4.85 2.8zm-4.86-2.8h2.35v-9.6h-4.7v9.6zm0-9.6 1.18 2.04 8.3-4.8-1.17-2.03-1.18-2.04-8.3 4.8zm8.3-4.8-1.17 2.04 8.3 4.8 1.18-2.04 1.18-2.04-8.3-4.8z"
      mask="url(#b)"
    />
  </g>
  <defs>
    <clipPath id="a"><path fill="#fff" d="M0 0h413.33v234H0z" /></clipPath>
  </defs>
</svg>
