<svg xmlns="http://www.w3.org/2000/svg" fill="none" viewBox="0 0 1011 422">
  <circle
    cx="512.2"
    cy="211.85"
    r="81.5"
    fill="#fff"
    stroke="#71717a"
    stroke-dasharray="2 2"
  />
  <path
    fill="url(#a)"
    d="M496.54 210.31c3.25 4.75 9.97 4.31 9.97 4.31-1.67-1.62-2.76-3.12-2.9-7.34-.13-4.22-2.5-5.37-2.5-5.37 4.32-2.7 2.77-5.67 2.64-8.96-.08-2.03 1.13-3.55 2.07-4.42a21.5 21.5 0 0 0-18.32 21.28c0 .77.08 1.48.15 2.22.4-1.06 5.9-6.11 8.9-1.72"
  />
  <path
    fill="url(#b)"
    d="M533.27 197.41a10.2 10.2 0 0 0-6.65-2.43c-5.42 0-10 4.43-10.26 9.85l-.01.63c0 .36.03.76.06 1.08.05.54.23 1.41.37 2.18a15 15 0 0 1-.7 8.06 15 15 0 0 1-5.07 6.63 14.5 14.5 0 0 1-8.66 2.83c-2.4 0-4.6-.56-6.57-1.55a14.8 14.8 0 0 1-7.91-10.58 25.2 25.2 0 0 0 24.94 21.38 25.1 25.1 0 0 0 25.06-25.1c0-1.99-.22-3.76-.53-5.27-.23-1.13-.6-2.4-1.13-3.65a10.5 10.5 0 0 0-2.94-4.06"
  />
  <mask
    id="c"
    width="51"
    height="42"
    x="487"
    y="194"
    maskUnits="userSpaceOnUse"
    style="mask-type: luminance"
  >
    <path
      fill="#fff"
      d="M533.27 197.41a10.2 10.2 0 0 0-6.65-2.43c-5.42 0-10 4.43-10.26 9.85l-.01.63c0 .36.03.76.06 1.08.05.54.23 1.41.37 2.18a15 15 0 0 1-.7 8.06 15 15 0 0 1-5.07 6.63 14.5 14.5 0 0 1-8.66 2.83c-2.4 0-4.6-.56-6.57-1.55a14.8 14.8 0 0 1-7.91-10.58 25.2 25.2 0 0 0 24.94 21.38 25.1 25.1 0 0 0 25.06-25.1c0-1.99-.22-3.76-.53-5.27-.23-1.13-.6-2.4-1.13-3.65a10.5 10.5 0 0 0-2.94-4.06"
    />
  </mask>
  <g mask="url(#c)">
    <path
      fill="url(#d)"
      d="M510.1 230.75a22.1 22.1 0 0 0 22.08-22.13 22.1 22.1 0 0 0-22.09-22.12 22.1 22.1 0 0 0-22.08 22.12 22.1 22.1 0 0 0 22.08 22.13"
    />
  </g>
  <circle
    cx="513.22"
    cy="208.78"
    r="166.62"
    stroke="#71717a"
    stroke-dasharray="2 2"
  />
  <path
    stroke="#71717a"
    stroke-dasharray="2 2"
    stroke-width=".5"
    d="m815.71 22.86 1.76 1.01-.12.22 1.76 1.02.12-.22 1.76 1.02-.12.21.75.44v.87h.25v2.03h-.25v2.03h.25v2.03h-.25v2.04h.25v2.03h-.25v2.03h.25v2.03h-.25v2.03h.25v2.03h-.25v2.04h.25v2.03h-.25v2.03h.25v2.03h-.25v2.03h.25v2.04h-.25v2.03h.25v2.03h-.25V64h.25v2.03h-.25v2.03h.25v2.04h-.25v2.03h.25v2.03h-.25v2.03h.25v2.03h-.25v.87l-.75.44.12.22-1.76 1.01-.12-.21-1.76 1.01.12.22-1.76 1.01-.12-.21-1.76 1.01.12.22-1.76 1.02-.12-.22-1.76 1.02.12.21-1.76 1.02-.12-.22-1.76 1.02.12.21-1.75 1.02-.13-.22-1.76 1.02.12.21-1.76 1.02-.12-.22-1.76 1.02.13.22-1.76 1.01-.13-.21-1.76 1.01.13.22-1.76 1.01-.13-.21-1.76 1.01.13.22-1.76 1.02-.13-.22-1.76 1.02.13.21-1.76 1.02-.13-.22-1.76 1.02.13.21-1.76 1.02-.13-.22-1.75 1.02.12.22-1.76 1.01-.12-.22-1.76 1.02.12.22-1.76 1.01-.12-.21-.76.43-.75-.43-.13.21-1.76-1.01.13-.22-1.76-1.02-.13.22-1.76-1.01.13-.22-1.76-1.02-.13.22-1.76-1.02.13-.21-1.76-1.02-.12.22-1.77-1.02.13-.21-1.76-1.02-.12.22L759.4 96l.12-.22-1.76-1.01-.12.21-1.76-1.01.12-.22-1.76-1.01-.12.21-1.76-1.01.12-.22-1.76-1.02-.12.22-1.76-1.01.12-.22-1.76-1.02-.12.22-1.76-1.02.12-.21-1.75-1.02-.13.22-1.76-1.02.13-.22-1.76-1.01-.13.22-1.76-1.02.13-.22-1.76-1.01-.13.21-1.76-1.01.13-.22-1.76-1.01-.13.21-1.76-1.01.13-.22-.76-.44v-.87h-.25V76.2h.25v-2.03h-.25v-2.03h.25V70.1h-.25v-2.04h.25v-2.03h-.25V64h.25v-2.03h-.25v-2.03h.25V57.9h-.25v-2.04h.25v-2.03h-.25v-2.03h.25v-2.03h-.25v-2.03h.25V45.7h-.25v-2.03h.25v-2.03h-.25v-2.03h.25v-2.03h-.25v-2.03h.25v-2.04h-.25V31.5h.25v-2.03h-.25v-2.03h.25v-.87l.76-.44-.13-.21 1.76-1.02.13.22 1.76-1.02-.13-.22 1.76-1.01.13.21 1.76-1.01-.13-.22 1.76-1.01.13.21 1.76-1.01-.13-.22 1.76-1.02.13.22 1.75-1.02-.12-.21 1.76-1.02.12.22 1.76-1.02-.12-.21 1.76-1.02.12.22 1.76-1.02-.12-.22 1.76-1.01.12.21 1.76-1.01-.12-.22 1.76-1.01.12.21 1.76-1.01-.12-.22 1.75-1.02.13.22 1.76-1.01-.12-.22 1.75-1.02.13.22 1.76-1.02-.12-.21 1.75-1.02.13.22 1.76-1.02-.13-.21 1.76-1.02.13.22 1.76-1.02-.13-.22 1.76-1.01.13.21.75-.43.76.43.12-.21 1.76 1.01-.12.22 1.76 1.02.12-.22 1.76 1.02-.12.21 1.75 1.02.13-.22 1.76 1.02-.13.21 1.76 1.02.13-.22 1.76 1.02-.13.22 1.76 1.01.13-.22 1.76 1.02-.13.22 1.76 1.01.13-.21 1.76 1.01-.13.22L798 12.9l.13-.21 1.75 1.01-.12.22 1.76 1.02.12-.22 1.76 1.02-.12.21 1.76 1.02.12-.22 1.76 1.02-.12.21 1.76 1.02.12-.22 1.76 1.02-.12.22 1.76 1.01.12-.21 1.76 1.01-.12.22 1.76 1.01zM814.6 338.4l1.77 1.02-.12.21 1.75 1.02.13-.22 1.76 1.02-.13.22.76.43v.87h.25V345h-.25v2.04h.25v2.03h-.25v2.03h.25v2.03h-.25v2.03h.25v2.03h-.25v2.04h.25v2.03h-.25v2.03h.25v2.03h-.25v2.03h.25v2.04h-.25v2.03h.25v2.03h-.25v2.03h.25v2.03h-.25v2.03h.25v2.04h-.25v2.03h.25v2.03h-.25v2.03h.25v2.03h-.25v2.04h.25v2.03h-.25v.87l-.76.43.13.22-1.76 1.02-.13-.22-1.75 1.02.12.21-1.76 1.02-.12-.22-1.76 1.02.12.21-1.76 1.02-.12-.22-1.76 1.02.12.21-1.76 1.02-.12-.21-1.76 1.01.12.22-1.76 1.01-.12-.21-1.76 1.01.12.22-1.76 1.01-.12-.21-1.76 1.01.12.22-1.75 1.02-.13-.22-1.76 1.02.12.21-1.75 1.02-.13-.22-1.76 1.02.13.21-1.76 1.02-.13-.22-1.76 1.02.13.22-1.76 1.01-.13-.21-1.76 1.01.13.22-1.76 1.01-.13-.21-1.76 1.01.13.22-1.76 1.01-.13-.21-1.75 1.02.12.21-1.76 1.02-.12-.22-.76.44-.75-.44-.13.22-1.76-1.02.13-.21-1.76-1.02-.13.22-1.76-1.02.13-.22-1.76-1.01-.13.21-1.76-1.01.13-.22-1.76-1.01-.13.21-1.76-1.01.13-.22-1.76-1.02-.13.22-1.76-1.02.13-.21-1.76-1.02-.12.22-1.76-1.02.12-.21-1.76-1.02-.12.22-1.76-1.02.12-.22-1.76-1.01-.12.21-1.76-1.01.12-.22-1.76-1.01-.12.21-1.76-1.01.12-.22-1.76-1.01-.12.21-1.76-1.01.12-.22-1.75-1.02-.13.22-1.76-1.02.13-.21-1.77-1.02-.12.22-1.76-1.02.13-.21-1.76-1.02-.13.22-1.76-1.02.13-.22-.76-.43v-.87h-.25v-2.03h.25v-2.04h-.25v-2.03h.25v-2.03h-.25v-2.03h.25v-2.03h-.25v-2.04h.25v-2.03h-.25v-2.03h.25v-2.03h-.25v-2.03h.25v-2.03h-.25v-2.04h.25v-2.03h-.25v-2.03h.25v-2.03h-.25v-2.03h.25v-2.04h-.25v-2.03h.25v-2.03h-.25v-2.03h.25v-2.03h-.25v-2.03h.25V345h-.25v-2.03h.25v-.87l.76-.43-.13-.22 1.76-1.02.13.22 1.76-1.02-.13-.21 1.76-1.02.13.22 1.76-1.02-.13-.21 1.76-1.02.13.22 1.75-1.02-.12-.22 1.76-1.01.12.21 1.76-1.01-.12-.22 1.76-1.01.12.21 1.76-1.01-.12-.22 1.76-1.02.12.22 1.76-1.01-.12-.22 1.76-1.02.12.22 1.76-1.02-.12-.21 1.75-1.02.13.22 1.76-1.02-.13-.22 1.76-1.01.13.22 1.76-1.02-.13-.22 1.76-1.01.13.21 1.76-1.01-.13-.22 1.76-1.01.13.21 1.76-1.01-.13-.22 1.76-1.02.13.22 1.76-1.01-.13-.22 1.76-1.02.13.22.75-.44.75.44.13-.22 1.76 1.02-.12.22 1.75 1.01.13-.22 1.76 1.02-.13.22 1.76 1.01.13-.21 1.76 1.01-.13.22 1.76 1.01.13-.21 1.76 1.01-.13.22 1.76 1.02.13-.22 1.75 1.01-.12.22 1.76 1.02.13-.22 1.75 1.02-.12.21 1.76 1.02.12-.22 1.76 1.02-.12.22 1.76 1.01.12-.22 1.76 1.02-.12.22 1.76 1.01.12-.21 1.76 1.01-.12.22 1.76 1.01.12-.21 1.76 1.01-.12.22 1.76 1.02.12-.22 1.76 1.01-.12.22 1.75 1.02z"
  />
  <path
    stroke="#71717a"
    stroke-dasharray="2 2"
    stroke-width=".5"
    d="m860.71 101.86 1.76 1.01-.12.22 1.76 1.02.12-.22 1.76 1.02-.12.21.75.44v.87h.25v2.03h-.25v2.03h.25v2.03h-.25v2.04h.25v2.03h-.25v2.03h.25v2.03h-.25v2.03h.25v2.03h-.25v2.04h.25v2.03h-.25v2.03h.25v2.03h-.25v2.03h.25v2.03h-.25v2.04h.25v2.03h-.25V143h.25v2.03h-.25v2.03h.25v2.04h-.25v2.03h.25v2.03h-.25v2.03h.25v2.03h-.25v.87l-.75.44.12.22-1.76 1.01-.12-.21-1.76 1.01.12.22-1.76 1.01-.12-.21-1.76 1.01.12.22-1.76 1.01-.12-.21-1.76 1.01.12.22-1.76 1.02-.12-.22-1.76 1.02.12.21-1.75 1.02-.13-.22-1.76 1.02.12.21-1.76 1.02-.12-.22-1.76 1.02.13.22-1.76 1.01-.13-.21-1.76 1.01.13.22-1.76 1.01-.13-.21-1.76 1.01.13.22-1.76 1.02-.13-.22-1.76 1.01.13.22-1.76 1.02-.13-.22-1.76 1.02.13.21-1.76 1.02-.13-.22-1.75 1.02.12.22-1.76 1.01-.12-.22-1.76 1.02.12.22-1.76 1.01-.12-.21-.76.43-.75-.43-.13.21-1.76-1.01.13-.22-1.76-1.01-.13.21-1.76-1.01.13-.22-1.76-1.02-.13.22-1.76-1.02.13-.21-1.76-1.02-.12.22-1.77-1.02.13-.22-1.76-1.01-.12.22-1.76-1.02.12-.22-1.76-1.01-.12.21-1.76-1.01.12-.22-1.76-1.01-.12.21-1.76-1.01.12-.22-1.76-1.02-.12.22-1.76-1.01.12-.22-1.76-1.02-.12.22-1.76-1.02.12-.21-1.75-1.02-.13.22-1.76-1.02.13-.22-1.76-1.01-.13.21-1.76-1.01.13-.22-1.76-1.01-.13.21-1.76-1.01.13-.22-1.76-1.01-.13.21-1.76-1.01.13-.22-.76-.44v-.87h-.25v-2.03h.25v-2.03h-.25v-2.03h.25v-2.03h-.25v-2.04h.25v-2.03h-.25V143h.25v-2.03h-.25v-2.03h.25v-2.03h-.25v-2.04h.25v-2.03h-.25v-2.03h.25v-2.03h-.25v-2.03h.25v-2.03h-.25v-2.04h.25v-2.03h-.25v-2.03h.25v-2.03h-.25v-2.03h.25v-2.04h-.25v-2.03h.25v-2.03h-.25v-2.03h.25v-.87l.76-.44-.13-.22 1.76-1.01.13.22 1.76-1.02-.13-.22 1.76-1.01.13.21 1.76-1.01-.13-.22 1.76-1.01.13.21 1.76-1.01-.13-.22 1.76-1.02.13.22 1.75-1.02-.12-.21 1.76-1.02.12.22 1.76-1.02-.12-.21 1.76-1.02.12.22 1.76-1.02-.12-.22 1.76-1.01.12.22 1.76-1.02-.12-.22 1.76-1.01.12.21 1.76-1.01-.12-.22 1.75-1.02.13.22 1.76-1.01-.12-.22 1.75-1.02.13.22 1.76-1.02-.12-.21 1.75-1.02.13.22 1.76-1.02-.13-.21 1.76-1.02.13.22 1.76-1.02-.13-.22 1.76-1.01.13.21.75-.43.76.43.12-.21 1.76 1.01-.12.22 1.76 1.02.12-.22 1.76 1.02-.12.21 1.75 1.02.13-.22 1.76 1.02-.13.21 1.76 1.02.13-.22 1.76 1.02-.13.22 1.76 1.01.13-.22 1.76 1.02-.13.22 1.76 1.01.13-.21 1.76 1.01-.13.22 1.76 1.02.13-.22 1.75 1.01-.12.22 1.76 1.02.12-.22 1.76 1.02-.12.21 1.76 1.02.12-.22 1.76 1.02-.12.21 1.76 1.02.12-.22 1.76 1.02-.12.22 1.76 1.01.12-.21 1.76 1.01-.12.22 1.76 1.01zM860.62 259.84l1.76 1.02-.13.21 1.76 1.02.13-.22 1.76 1.02-.13.22.76.43v.87h.25v2.03h-.25v2.04h.25v2.03h-.25v2.03h.25v2.03h-.25v2.03h.25v2.03h-.25v2.04h.25v2.03h-.25v2.03h.25v2.03h-.25v2.03h.25v2.03h-.25v2.04h.25v2.03h-.25v2.03h.25v2.03h-.25v2.03h.25v2.04h-.25v2.03h.25v2.03h-.25v2.03h.25v2.03h-.25v2.03h.25v2.04h-.25v.87l-.76.43.13.22-1.76 1.01-.13-.21-1.76 1.02.13.21-1.76 1.02-.13-.22-1.76 1.02.13.21-1.76 1.02-.12-.22-1.76 1.02.12.21-1.76 1.02-.12-.22-1.76 1.02.12.22-1.76 1.01-.12-.21-1.76 1.01.12.22-1.76 1.01-.12-.21-1.76 1.01.12.22-1.76 1.02-.12-.22-1.76 1.02.12.21-1.76 1.02-.12-.22-1.76 1.02.13.21-1.76 1.02-.13-.22-1.76 1.02.13.21-1.76 1.02-.13-.21-1.76 1.01.13.22-1.76 1.01-.13-.21-1.76 1.01.13.22-1.76 1.01-.13-.21-1.76 1.01.13.22-1.76 1.02-.13-.22-.75.44-.76-.44-.12.22-1.76-1.02.13-.22-1.76-1.01-.13.22-1.76-1.02.13-.22-1.76-1.01-.13.21-1.76-1.01.13-.22-1.76-1.01-.13.21-1.76-1.01.13-.22-1.76-1.02-.13.22-1.76-1.02.13-.21-1.76-1.02-.13.22-1.76-1.02.13-.21-1.76-1.02-.12.22-1.77-1.02.13-.22-1.76-1.01-.12.21-1.76-1.01.12-.22-1.76-1.01-.12.21-1.76-1.01.12-.22-1.76-1.02-.12.22-1.76-1.01.12-.22-1.76-1.02-.12.22-1.76-1.02.12-.21-1.76-1.02-.12.22-1.76-1.02.13-.21-1.76-1.02-.13.22-1.76-1.02.13-.22-.76-.43v-.87h-.25v-2.04h.25v-2.03h-.25v-2.03h.25v-2.03h-.25v-2.03h.25v-2.03h-.25v-2.04h.25v-2.03h-.25v-2.03h.25v-2.03h-.25v-2.03h.25v-2.04h-.25v-2.03h.25v-2.03h-.25v-2.03h.25v-2.03h-.25v-2.03h.25v-2.04h-.25v-2.03h.25v-2.03h-.25v-2.03h.25v-2.03h-.25v-2.03h.25v-2.04h-.25v-2.03h.25v-.87l.76-.44-.13-.21 1.76-1.02.13.22 1.75-1.02-.12-.21 1.76-1.02.12.22 1.76-1.02-.12-.22 1.76-1.01.12.22 1.76-1.02-.12-.22 1.76-1.01.12.21 1.76-1.01-.12-.22 1.76-1.01.12.21 1.76-1.01-.12-.22 1.75-1.02.13.22 1.76-1.02-.12-.21 1.75-1.02.13.22 1.76-1.02-.12-.21 1.75-1.02.13.22 1.76-1.02-.13-.22 1.76-1.01.13.22 1.76-1.02-.13-.22 1.76-1.01.13.21 1.76-1.01-.13-.22 1.76-1.01.13.21 1.76-1.01-.13-.22 1.76-1.02.13.22 1.75-1.02-.12-.21 1.76-1.02.12.22.76-.44.75.44.13-.22 1.76 1.02-.13.21 1.76 1.02.13-.22 1.76 1.02-.13.22 1.76 1.01.13-.22 1.76 1.02-.13.22 1.76 1.01.13-.21 1.75 1.01-.12.22 1.76 1.02.12-.22 1.76 1.01-.12.22 1.76 1.02.12-.22 1.76 1.02-.12.21 1.76 1.02.12-.22 1.76 1.02-.12.21 1.76 1.02.12-.22 1.76 1.02-.12.22 1.76 1.01.12-.22 1.76 1.02-.12.22 1.76 1.01.12-.21 1.76 1.01-.12.22 1.75 1.02.13-.22 1.76 1.01-.13.22 1.76 1.02z"
  />
  <path
    stroke="#71717a"
    stroke-dasharray="2 2"
    stroke-width=".5"
    d="m905.71 180.86 1.76 1.01-.12.22 1.76 1.01.12-.21 1.76 1.02-.12.21.75.44v.87h.25v2.03h-.25v2.03h.25v2.03h-.25v2.04h.25v2.03h-.25v2.03h.25v2.03h-.25v2.03h.25v2.03h-.25v2.04h.25v2.03h-.25v2.03h.25v2.03h-.25v2.03h.25v2.03h-.25v2.04h.25v2.03h-.25V222h.25v2.03h-.25v2.03h.25v2.04h-.25v2.03h.25v2.03h-.25v2.03h.25v2.03h-.25v.87l-.75.44.12.22-1.76 1.01-.12-.21-1.76 1.01.12.22-1.76 1.01-.12-.21-1.76 1.01.12.22-1.76 1.01-.12-.21-1.76 1.01.12.22-1.76 1.02-.12-.22-1.76 1.02.12.21-1.75 1.02-.13-.22-1.76 1.02.12.21-1.76 1.02-.12-.22-1.76 1.02.13.22-1.76 1.01-.13-.21-1.76 1.01.13.22-1.76 1.01-.13-.21-1.76 1.01.13.22-1.76 1.02-.13-.22-1.76 1.01.13.22-1.76 1.02-.13-.22-1.76 1.02.13.21-1.76 1.02-.13-.22-1.75 1.02.12.22-1.76 1.01-.12-.22-1.76 1.02.12.22-1.76 1.01-.12-.21-.76.43-.75-.43-.13.21-1.76-1.01.13-.22-1.76-1.02-.13.22-1.76-1.01.13-.22-1.76-1.02-.13.22-1.76-1.02.13-.21-1.76-1.02-.12.22-1.77-1.02.13-.21-1.76-1.02-.12.22-1.76-1.02.12-.22-1.76-1.01-.12.21-1.76-1.01.12-.22-1.76-1.01-.12.21-1.76-1.01.12-.22-1.76-1.02-.12.22-1.76-1.01.12-.22-1.76-1.02-.12.22-1.76-1.02.12-.21-1.75-1.02-.13.22-1.76-1.02.13-.22-1.76-1.01-.13.21-1.76-1.01.13-.22-1.76-1.01-.13.21-1.76-1.01.13-.22-1.76-1.01-.13.21-1.76-1.01.13-.22-.76-.44v-.87h-.25v-2.03h.25v-2.03h-.25v-2.03h.25v-2.03h-.25v-2.04h.25v-2.03h-.25V222h.25v-2.03h-.25v-2.03h.25v-2.03h-.25v-2.04h.25v-2.03h-.25v-2.03h.25v-2.03h-.25v-2.03h.25v-2.03h-.25v-2.04h.25v-2.03h-.25v-2.03h.25v-2.03h-.25v-2.03h.25v-2.04h-.25v-2.03h.25v-2.03h-.25v-2.03h.25v-.87l.76-.44-.13-.22 1.76-1.01.13.22 1.76-1.02-.13-.22 1.76-1.01.13.21 1.76-1.01-.13-.22 1.76-1.02.13.22 1.76-1.01-.13-.22 1.76-1.02.13.22 1.75-1.02-.12-.21 1.76-1.02.12.22 1.76-1.02-.12-.21 1.76-1.02.12.22 1.76-1.02-.12-.22 1.76-1.01.12.22 1.76-1.02-.12-.22 1.76-1.01.12.21 1.76-1.01-.12-.22 1.75-1.02.13.22 1.76-1.01-.12-.22 1.75-1.02.13.22 1.76-1.02-.12-.21 1.75-1.02.13.22 1.76-1.02-.13-.21 1.76-1.02.13.22 1.76-1.02-.13-.22 1.76-1.01.13.22.75-.44.76.44.12-.22 1.76 1.01-.12.22 1.76 1.02.12-.22 1.76 1.02-.12.21 1.75 1.02.13-.22 1.76 1.02-.13.21 1.76 1.02.13-.22 1.76 1.02-.13.22 1.76 1.01.13-.22 1.76 1.02-.13.22 1.76 1.01.13-.21 1.76 1.01-.13.22 1.76 1.01.13-.21 1.75 1.01-.12.22 1.76 1.02.12-.22 1.76 1.02-.12.21 1.76 1.02.12-.22 1.76 1.02-.12.21 1.76 1.02.12-.22 1.76 1.02-.12.22 1.76 1.01.12-.22 1.76 1.02-.12.22 1.76 1.01zM906.81 22.86l1.76 1.01-.12.22 1.76 1.02.12-.22 1.76 1.02-.12.21.75.44v.87h.25v2.03h-.25v2.03h.25v2.03h-.25v2.04h.25v2.03h-.25v2.03h.25v2.03h-.25v2.03h.25v2.03h-.25v2.04h.25v2.03h-.25v2.03h.25v2.03h-.25v2.03h.25v2.04h-.25v2.03h.25v2.03h-.25V64h.25v2.03h-.25v2.03h.25v2.04h-.25v2.03h.25v2.03h-.25v2.03h.25v2.03h-.25v.87l-.75.44.12.22-1.76 1.01-.12-.21-1.76 1.01.12.22-1.76 1.01-.12-.21-1.76 1.01.12.22-1.76 1.02-.12-.22-1.76 1.02.12.21-1.76 1.02-.12-.22-1.76 1.02.13.21-1.76 1.02-.13-.22-1.76 1.02.13.21-1.76 1.02-.13-.22-1.76 1.02.13.22-1.76 1.01-.13-.21-1.76 1.01.13.22-1.76 1.01-.13-.21-1.76 1.01.13.22-1.76 1.02-.13-.22-1.75 1.02.12.21-1.76 1.02-.12-.22-1.76 1.02.12.21-1.76 1.02-.12-.22-1.76 1.02.12.22-1.76 1.01-.12-.22-1.76 1.02.12.22-1.76 1.01-.12-.21-.76.43-.75-.43-.13.21-1.76-1.01.13-.22-1.76-1.02-.13.22-1.76-1.01.13-.22-1.76-1.02-.12.22-1.76-1.02.12-.21-1.76-1.02-.12.22-1.76-1.02.12-.21-1.76-1.02-.12.22L850.5 96l.12-.22-1.76-1.01-.12.21-1.76-1.01.12-.22-1.76-1.01-.12.21-1.76-1.01.12-.22-1.75-1.02-.13.22-1.76-1.01.13-.22-1.76-1.02-.13.22-1.76-1.02.13-.21-1.76-1.02-.13.22-1.76-1.02.13-.22-1.76-1.01-.13.22-1.76-1.02.13-.22-1.76-1.01-.13.21-1.76-1.01.13-.22-1.76-1.01-.13.21-1.76-1.01.13-.22-.75-.44v-.87h-.25V76.2h.25v-2.03h-.25v-2.03h.25V70.1h-.25v-2.04h.25v-2.03h-.25V64h.25v-2.03h-.25v-2.03h.25V57.9h-.25v-2.04h.25v-2.03h-.25v-2.03h.25v-2.03h-.25v-2.03h.25V45.7h-.25v-2.03h.25v-2.03h-.25v-2.03h.25v-2.03h-.25v-2.03h.25v-2.04h-.25V31.5h.25v-2.03h-.25v-2.03h.25v-.87l.75-.44-.13-.21 1.76-1.02.13.22 1.76-1.02-.13-.22 1.76-1.01.13.21 1.76-1.01-.13-.22 1.76-1.01.13.21 1.76-1.01-.13-.22 1.76-1.02.13.22 1.76-1.02-.13-.21 1.76-1.02.13.22 1.75-1.02-.12-.21 1.76-1.02.13.22 1.75-1.02-.12-.22 1.76-1.01.12.21 1.76-1.01-.12-.22 1.76-1.01.12.21 1.76-1.01-.12-.22 1.76-1.02.12.22 1.76-1.01-.12-.22 1.75-1.02.13.22 1.76-1.02-.12-.21 1.75-1.02.13.22 1.76-1.02-.13-.21 1.76-1.02.13.22 1.76-1.02-.13-.22 1.76-1.01.13.21.75-.43.76.43.12-.21 1.76 1.01-.12.22 1.76 1.02.12-.22 1.76 1.02-.12.21 1.76 1.02.12-.22 1.76 1.02-.12.21 1.75 1.02.13-.22 1.76 1.02-.12.22 1.75 1.01.13-.22 1.76 1.02-.13.22 1.76 1.01.13-.21 1.76 1.01-.13.22 1.76 1.01.13-.21 1.76 1.01-.13.22 1.76 1.02.13-.22 1.75 1.02-.12.21 1.76 1.02.13-.22 1.75 1.02-.12.21 1.76 1.02.12-.22 1.76 1.02-.12.22 1.76 1.01.12-.21 1.76 1.01-.12.22 1.76 1.01zM905.71 338.4l1.76 1.02-.12.21 1.76 1.02.12-.22 1.76 1.02-.12.22.75.43v.87h.25V345h-.25v2.04h.25v2.03h-.25v2.03h.25v2.03h-.25v2.03h.25v2.03h-.25v2.04h.25v2.03h-.25v2.03h.25v2.03h-.25v2.03h.25v2.04h-.25v2.03h.25v2.03h-.25v2.03h.25v2.03h-.25v2.03h.25v2.04h-.25v2.03h.25v2.03h-.25v2.03h.25v2.03h-.25v2.04h.25v2.03h-.25v.87l-.75.43.12.22-1.76 1.02-.12-.22-1.76 1.02.12.21-1.76 1.02-.12-.22-1.76 1.02.12.21-1.76 1.02-.12-.22-1.76 1.02.12.21-1.76 1.02-.12-.21-1.76 1.01.12.22-1.75 1.01-.13-.21-1.76 1.01.12.22-1.76 1.01-.12-.21-1.76 1.01.13.22-1.76 1.02-.13-.22-1.76 1.02.13.21-1.76 1.02-.13-.22-1.76 1.02.13.21-1.76 1.02-.13-.22-1.76 1.02.13.22-1.76 1.01-.13-.21-1.76 1.01.13.22-1.76 1.01-.13-.21-1.75 1.01.12.22-1.76 1.01-.12-.21-1.76 1.02.12.21-1.76 1.02-.12-.22-.76.44-.75-.44-.13.22-1.76-1.02.13-.21-1.76-1.02-.13.22-1.76-1.02.13-.22-1.76-1.01-.13.21-1.76-1.01.13-.22-1.76-1.01-.12.21-1.77-1.01.13-.22-1.76-1.02-.12.22-1.76-1.02.12-.21-1.76-1.02-.12.22-1.76-1.02.12-.21-1.76-1.02-.12.22-1.76-1.02.12-.22-1.76-1.01-.12.21-1.76-1.01.12-.22-1.76-1.01-.12.21-1.76-1.01.12-.22-1.75-1.01-.13.21-1.76-1.01.13-.22-1.76-1.02-.13.22-1.76-1.02.13-.21-1.76-1.02-.13.22-1.76-1.02.13-.21-1.76-1.02-.13.22-1.76-1.02.13-.22-.76-.43v-.87h-.25v-2.03h.25v-2.04h-.25v-2.03h.25v-2.03h-.25v-2.03h.25v-2.03h-.25v-2.04h.25v-2.03h-.25v-2.03h.25v-2.03h-.25v-2.03h.25v-2.03h-.25v-2.04h.25v-2.03h-.25v-2.03h.25v-2.03h-.25v-2.03h.25v-2.04h-.25v-2.03h.25v-2.03h-.25v-2.03h.25v-2.03h-.25v-2.03h.25V345h-.25v-2.03h.25v-.87l.76-.43-.13-.22 1.76-1.02.13.22 1.76-1.02-.13-.21 1.76-1.02.13.22 1.76-1.02-.13-.21 1.76-1.02.13.22 1.76-1.02-.13-.22 1.76-1.01.13.21 1.75-1.01-.12-.22 1.76-1.01.12.21 1.76-1.01-.12-.22 1.76-1.02.12.22 1.76-1.01-.12-.22 1.76-1.02.12.22 1.76-1.02-.12-.21 1.76-1.02.12.22 1.76-1.02-.12-.22 1.75-1.01.13.22 1.76-1.02-.12-.22 1.75-1.01.13.21 1.76-1.01-.12-.22 1.75-1.01.13.21 1.76-1.01-.13-.22 1.76-1.02.13.22 1.76-1.01-.13-.22 1.76-1.02.13.22.75-.44.76.44.12-.22 1.76 1.02-.12.22 1.76 1.01.12-.22 1.76 1.02-.12.22 1.75 1.01.13-.21 1.76 1.01-.13.22 1.76 1.01.13-.21 1.76 1.01-.13.22 1.76 1.02.13-.22 1.76 1.01-.13.22 1.76 1.02.13-.22 1.76 1.02-.13.21 1.76 1.02.13-.22 1.75 1.02-.12.22 1.76 1.01.12-.22 1.76 1.02-.12.22 1.76 1.01.12-.21 1.76 1.01-.12.22 1.76 1.01.12-.21 1.76 1.01-.12.22 1.76 1.02.12-.22 1.76 1.01-.12.22 1.76 1.02z"
  />
  <path
    stroke="#71717a"
    stroke-dasharray="2 2"
    stroke-width=".5"
    d="m951.81 101.86 1.76 1.01-.12.22 1.76 1.02.12-.22 1.76 1.02-.12.21.75.44v.87h.25v2.03h-.25v2.03h.25v2.03h-.25v2.04h.25v2.03h-.25v2.03h.25v2.03h-.25v2.03h.25v2.03h-.25v2.04h.25v2.03h-.25v2.03h.25v2.03h-.25v2.03h.25v2.03h-.25v2.04h.25v2.03h-.25V143h.25v2.03h-.25v2.03h.25v2.04h-.25v2.03h.25v2.03h-.25v2.03h.25v2.03h-.25v.87l-.75.44.12.22-1.76 1.01-.12-.21-1.76 1.01.12.22-1.76 1.01-.12-.21-1.76 1.01.12.22-1.76 1.01-.12-.21-1.76 1.01.12.22-1.76 1.02-.12-.22-1.76 1.02.13.21-1.76 1.02-.13-.22-1.76 1.02.13.21-1.76 1.02-.13-.22-1.76 1.02.13.22-1.76 1.01-.13-.21-1.76 1.01.13.22-1.76 1.01-.13-.21-1.76 1.01.13.22-1.76 1.02-.13-.22-1.75 1.01.12.22-1.76 1.02-.12-.22-1.76 1.02.12.21-1.76 1.02-.12-.22-1.76 1.02.12.22-1.76 1.01-.12-.22-1.76 1.02.12.22-1.76 1.01-.12-.21-.76.43-.75-.43-.13.21-1.76-1.01.13-.22-1.76-1.01-.13.21-1.76-1.01.13-.22-1.76-1.02-.12.22-1.76-1.02.12-.21-1.76-1.02-.12.22-1.76-1.02.12-.22-1.76-1.01-.12.22-1.76-1.02.12-.22-1.76-1.01-.12.21-1.76-1.01.12-.22-1.76-1.01-.12.21-1.76-1.01.12-.22-1.75-1.02-.13.22-1.76-1.01.13-.22-1.76-1.02-.13.22-1.76-1.02.13-.21-1.76-1.02-.13.22-1.76-1.02.13-.22-1.76-1.01-.13.21-1.76-1.01.13-.22-1.76-1.01-.13.21-1.76-1.01.13-.22-1.76-1.01-.13.21-1.76-1.01.13-.22-.75-.44v-.87h-.25v-2.03h.25v-2.03h-.25v-2.03h.25v-2.03h-.25v-2.04h.25v-2.03h-.25V143h.25v-2.03h-.25v-2.03h.25v-2.03h-.25v-2.04h.25v-2.03h-.25v-2.03h.25v-2.03h-.25v-2.03h.25v-2.03h-.25v-2.04h.25v-2.03h-.25v-2.03h.25v-2.03h-.25v-2.03h.25v-2.04h-.25v-2.03h.25v-2.03h-.25v-2.03h.25v-.87l.75-.44-.13-.22 1.76-1.01.13.22 1.76-1.02-.13-.22 1.76-1.01.13.21 1.76-1.01-.13-.22 1.76-1.01.13.21 1.76-1.01-.13-.22 1.76-1.02.13.22 1.76-1.02-.13-.21 1.76-1.02.13.22 1.75-1.02-.12-.21 1.76-1.02.13.22 1.75-1.02-.12-.22 1.76-1.01.12.22 1.76-1.02-.12-.22 1.76-1.01.12.21 1.76-1.01-.12-.22 1.76-1.02.12.22 1.76-1.01-.12-.22 1.75-1.02.13.22 1.76-1.02-.12-.21 1.75-1.02.13.22 1.76-1.02-.13-.21 1.76-1.02.13.22 1.76-1.02-.13-.22 1.76-1.01.13.21.75-.43.76.43.12-.21 1.76 1.01-.12.22 1.76 1.02.12-.22 1.76 1.02-.12.21 1.76 1.02.12-.22 1.76 1.02-.12.21 1.75 1.02.13-.22 1.76 1.02-.12.22 1.75 1.01.13-.22 1.76 1.02-.13.22 1.76 1.01.13-.21 1.76 1.01-.13.22 1.76 1.02.13-.22 1.76 1.01-.13.22 1.76 1.02.13-.22 1.75 1.02-.12.21 1.76 1.02.13-.22 1.75 1.02-.12.21 1.76 1.02.12-.22 1.76 1.02-.12.22 1.76 1.01.12-.21 1.76 1.01-.12.22 1.76 1.01zM951.72 259.84l1.76 1.02-.12.21 1.75 1.02.13-.22 1.76 1.02-.12.22.75.43v.87h.25v2.03h-.25v2.04h.25v2.03h-.25v2.03h.25v2.03h-.25v2.03h.25v2.03h-.25v2.04h.25v2.03h-.25v2.03h.25v2.03h-.25v2.03h.25v2.03h-.25v2.04h.25v2.03h-.25v2.03h.25v2.03h-.25v2.03h.25v2.04h-.25v2.03h.25v2.03h-.25v2.03h.25v2.03h-.25v2.03h.25v2.04h-.25v.87l-.75.43.12.22-1.76 1.01-.12-.21-1.76 1.02.12.21-1.76 1.02-.12-.22-1.76 1.02.12.21-1.76 1.02-.12-.22-1.76 1.02.12.21-1.76 1.02-.12-.22-1.76 1.02.12.22-1.76 1.01-.12-.21-1.76 1.01.12.22-1.76 1.01-.12-.21-1.76 1.01.12.22-1.75 1.02-.13-.22-1.76 1.02.13.21-1.76 1.02-.13-.22-1.76 1.02.13.21-1.76 1.02-.13-.22-1.76 1.02.13.21-1.76 1.02-.13-.21-1.76 1.01.13.22-1.76 1.01-.13-.21-1.75 1.01.12.22-1.76 1.01-.12-.21-1.76 1.01.12.22-1.76 1.02-.12-.22-.76.44-.75-.44-.13.22-1.76-1.02.13-.22-1.76-1.01-.13.22-1.76-1.02.13-.22-1.76-1.01-.13.21-1.76-1.01.13-.22-1.76-1.01-.13.21-1.76-1.01.13-.22-1.76-1.02-.13.22-1.76-1.02.13-.21-1.76-1.02-.12.22-1.76-1.02.12-.21-1.76-1.02-.12.22-1.76-1.02.12-.22-1.76-1.01-.12.21-1.76-1.01.12-.22-1.76-1.01-.12.21-1.76-1.01.12-.22-1.76-1.02-.12.22-1.76-1.01.13-.22-1.77-1.02-.12.22-1.76-1.02.13-.21-1.76-1.02-.13.22-1.76-1.02.13-.21-1.76-1.02-.13.22-1.76-1.02.13-.22-.76-.43v-.87h-.25v-2.04h.25v-2.03h-.25v-2.03h.25v-2.03h-.25v-2.03h.25v-2.03h-.25v-2.04h.25v-2.03h-.25v-2.03h.25v-2.03h-.25v-2.03h.25v-2.04h-.25v-2.03h.25v-2.03h-.25v-2.03h.25v-2.03h-.25v-2.03h.25v-2.04h-.25v-2.03h.25v-2.03h-.25v-2.03h.25v-2.03h-.25v-2.03h.25v-2.04h-.25v-2.03h.25v-.87l.76-.44-.13-.21 1.76-1.02.13.22 1.76-1.02-.13-.21 1.76-1.02.13.22 1.75-1.02-.12-.22 1.76-1.01.13.22 1.75-1.02-.12-.22 1.76-1.01.12.21 1.76-1.01-.12-.22 1.76-1.01.12.21 1.76-1.01-.12-.22 1.76-1.02.12.22 1.76-1.02-.12-.21 1.76-1.02.12.22 1.76-1.02-.12-.21 1.75-1.02.13.22 1.76-1.02-.12-.22 1.75-1.01.13.22 1.76-1.02-.13-.22 1.76-1.01.13.21 1.76-1.01-.13-.22 1.76-1.01.13.21 1.76-1.01-.13-.22 1.76-1.02.13.22 1.76-1.02-.13-.21 1.76-1.02.13.22.75-.44.75.44.13-.22 1.76 1.02-.12.21 1.75 1.02.13-.22 1.76 1.02-.12.22 1.75 1.01.13-.22 1.76 1.02-.13.22 1.76 1.01.13-.21 1.76 1.01-.13.22 1.76 1.02.13-.22 1.75 1.01-.12.22 1.76 1.02.13-.22 1.75 1.02-.12.21 1.76 1.02.13-.22 1.75 1.02-.12.21 1.76 1.02.12-.22 1.76 1.02-.12.22 1.76 1.01.12-.22 1.76 1.02-.12.22 1.76 1.01.12-.21 1.76 1.01-.12.22 1.76 1.02.12-.22 1.76 1.01-.12.22 1.75 1.02z"
  />
  <path
    stroke="#71717a"
    stroke-dasharray="2 2"
    stroke-width=".5"
    d="m996.81 180.86 1.76 1.01-.12.22 1.76 1.01.12-.21 1.76 1.02-.12.21.75.44v.87h.25v2.03h-.25v2.03h.25v2.03h-.25v2.04h.25v2.03h-.25v2.03h.25v2.03h-.25v2.03h.25v2.03h-.25v2.04h.25v2.03h-.25v2.03h.25v2.03h-.25v2.03h.25v2.03h-.25v2.04h.25v2.03h-.25V222h.25v2.03h-.25v2.03h.25v2.04h-.25v2.03h.25v2.03h-.25v2.03h.25v2.03h-.25v.87l-.75.44.12.22-1.76 1.01-.12-.21-1.76 1.01.12.22-1.76 1.01-.12-.21-1.76 1.01.12.22-1.76 1.01-.12-.21-1.76 1.01.12.22-1.76 1.02-.12-.22-1.76 1.02.13.21-1.76 1.02-.13-.22-1.76 1.02.13.21-1.76 1.02-.13-.22-1.76 1.02.13.22-1.76 1.01-.13-.21-1.76 1.01.13.22-1.76 1.01-.13-.21-1.76 1.01.13.22-1.76 1.02-.13-.22-1.75 1.01.12.22-1.76 1.02-.12-.22-1.76 1.02.12.21-1.76 1.02-.12-.22-1.76 1.02.12.22-1.76 1.01-.12-.22-1.76 1.02.12.22-1.76 1.01-.12-.21-.76.43-.75-.43-.13.21-1.76-1.01.13-.22-1.76-1.02-.13.22-1.76-1.01.13-.22-1.76-1.02-.12.22-1.76-1.02.12-.21-1.76-1.02-.12.22-1.76-1.02.12-.21-1.76-1.02-.12.22-1.76-1.02.12-.22-1.76-1.01-.12.21-1.76-1.01.12-.22-1.76-1.01-.12.21-1.76-1.01.12-.22-1.75-1.02-.13.22-1.76-1.01.13-.22-1.76-1.02-.13.22-1.76-1.02.13-.21-1.76-1.02-.13.22-1.76-1.02.13-.22-1.76-1.01-.13.21-1.76-1.01.13-.22-1.76-1.01-.13.21-1.76-1.01.13-.22-1.76-1.01-.13.21-1.76-1.01.13-.22-.75-.44v-.87h-.25v-2.03h.25v-2.03h-.25v-2.03h.25v-2.03h-.25v-2.04h.25v-2.03h-.25V222h.25v-2.03h-.25v-2.03h.25v-2.03h-.25v-2.04h.25v-2.03h-.25v-2.03h.25v-2.03h-.25v-2.03h.25v-2.03h-.25v-2.04h.25v-2.03h-.25v-2.03h.25v-2.03h-.25v-2.03h.25v-2.04h-.25v-2.03h.25v-2.03h-.25v-2.03h.25v-.87l.75-.44-.13-.22 1.76-1.01.13.22 1.76-1.02-.13-.22 1.76-1.01.13.21 1.76-1.01-.13-.22 1.76-1.02.13.22 1.76-1.01-.13-.22 1.76-1.02.13.22 1.76-1.02-.13-.21 1.76-1.02.13.22 1.75-1.02-.12-.21 1.76-1.02.13.22 1.75-1.02-.12-.22 1.76-1.01.12.22 1.76-1.02-.12-.22 1.76-1.01.12.21 1.76-1.01-.12-.22 1.76-1.02.12.22 1.76-1.01-.12-.22 1.75-1.02.13.22 1.76-1.02-.12-.21 1.75-1.02.13.22 1.76-1.02-.13-.21 1.76-1.02.13.22 1.76-1.02-.13-.22 1.76-1.01.13.22.75-.44.76.44.12-.22 1.76 1.01-.12.22 1.76 1.02.12-.22 1.76 1.02-.12.21 1.76 1.02.12-.22 1.76 1.02-.12.21 1.75 1.02.13-.22 1.76 1.02-.12.22 1.75 1.01.13-.22 1.76 1.02-.13.22 1.76 1.01.13-.21 1.76 1.01-.13.22 1.76 1.01.13-.21 1.76 1.01-.13.22 1.76 1.02.13-.22 1.75 1.02-.12.21 1.76 1.02.13-.22 1.75 1.02-.12.21 1.76 1.02.12-.22 1.76 1.02-.12.22 1.76 1.01.12-.22 1.76 1.02-.12.22 1.76 1.01zM273.52 22.86l1.75 1.01-.12.22 1.76 1.02.12-.22 1.76 1.02-.12.21.75.44v.87h.25v2.03h-.25v2.03h.25v2.03h-.25v2.04h.25v2.03h-.25v2.03h.25v2.03h-.25v2.03h.25v2.03h-.25v2.04h.25v2.03h-.25v2.03h.25v2.03h-.25v2.03h.25v2.04h-.25v2.03h.25v2.03h-.25V64h.25v2.03h-.25v2.03h.25v2.04h-.25v2.03h.25v2.03h-.25v2.03h.25v2.03h-.25v.87l-.75.44.12.22-1.75 1.01-.13-.21-1.76 1.01.13.22-1.76 1.01-.13-.21-1.76 1.01.13.22-1.76 1.02-.13-.22-1.76 1.02.13.21-1.76 1.02-.13-.22-1.76 1.02.13.21-1.76 1.02-.13-.22-1.76 1.02.13.21-1.76 1.02-.12-.22-1.76 1.02.12.22-1.76 1.01-.12-.21-1.76 1.01.12.22-1.76 1.01-.12-.21-1.76 1.01.12.22-1.76 1.02-.12-.22-1.76 1.02.12.21-1.76 1.02-.12-.22-1.76 1.02.12.21-1.76 1.02-.12-.22-1.76 1.02.12.22-1.76 1.01-.12-.22-1.76 1.02.13.22-1.76 1.01-.13-.21-.75.43-.76-.43-.12.21-1.76-1.01.12-.22-1.76-1.02-.12.22-1.76-1.01.12-.22-1.76-1.02-.12.22-1.76-1.02.12-.21-1.75-1.02-.13.22-1.76-1.02.13-.21-1.77-1.02-.12.22L217.2 96l.13-.22-1.76-1.01-.13.21-1.76-1.01.13-.22-1.76-1.01-.13.21-1.76-1.01.13-.22-1.76-1.02-.13.22-1.76-1.01.13-.22-1.76-1.02-.13.22-1.76-1.02.13-.21-1.76-1.02-.13.22-1.75-1.02.12-.22-1.76-1.01-.12.22-1.77-1.02.13-.22-1.76-1.01-.12.21-1.76-1.01.12-.22-1.76-1.01-.12.21-1.76-1.01.12-.22-.75-.44v-.87h-.25V76.2h.25v-2.03h-.25v-2.03h.25V70.1h-.25v-2.04h.25v-2.03h-.25V64h.25v-2.03h-.25v-2.03h.25V57.9h-.25v-2.04h.25v-2.03h-.25v-2.03h.25v-2.03h-.25v-2.03h.25V45.7h-.25v-2.03h.25v-2.03h-.25v-2.03h.25v-2.03h-.25v-2.03h.25v-2.04h-.25V31.5h.25v-2.03h-.25v-2.03h.25v-.87l.75-.44-.12-.21 1.76-1.02.12.22 1.76-1.02-.12-.22 1.76-1.01.12.21 1.76-1.01-.12-.22 1.76-1.01.12.21 1.76-1.01-.12-.22 1.75-1.02.13.22 1.76-1.02-.13-.21 1.76-1.02.13.22 1.76-1.02-.13-.21 1.76-1.02.13.22 1.76-1.02-.13-.22 1.76-1.01.13.21 1.76-1.01-.13-.22 1.76-1.01.13.21 1.75-1.01-.12-.22 1.76-1.02.13.22 1.75-1.01-.12-.22 1.76-1.02.13.22 1.75-1.02-.12-.21L226 4.57l.12.22 1.76-1.02-.12-.21 1.76-1.02.12.22 1.76-1.02-.12-.22 1.76-1.01.12.21.76-.43.75.43.13-.21 1.75 1.01-.12.22 1.76 1.02.12-.22 1.76 1.02-.12.21 1.76 1.02.12-.22 1.76 1.02-.12.21 1.76 1.02.12-.22 1.76 1.02-.12.22 1.76 1.01.12-.22 1.76 1.02-.12.22 1.76 1.01.12-.21 1.76 1.01-.12.22 1.76 1.01.12-.21 1.76 1.01-.12.22 1.75 1.02.13-.22 1.76 1.02-.13.21 1.76 1.02.13-.22 1.76 1.02-.13.21 1.76 1.02.13-.22 1.76 1.02-.13.22 1.76 1.01.13-.21 1.76 1.01-.13.22 1.76 1.01zM274.62 338.4l1.76 1.02-.13.21 1.76 1.02.13-.22 1.76 1.02-.13.22.75.43v.87h.25V345h-.25v2.04h.25v2.03h-.25v2.03h.25v2.03h-.25v2.03h.25v2.03h-.25v2.04h.25v2.03h-.25v2.03h.25v2.03h-.25v2.03h.25v2.04h-.25v2.03h.25v2.03h-.25v2.03h.25v2.03h-.25v2.03h.25v2.04h-.25v2.03h.25v2.03h-.25v2.03h.25v2.03h-.25v2.04h.25v2.03h-.25v.87l-.75.43.13.22-1.76 1.02-.13-.22-1.76 1.02.13.21-1.76 1.02-.13-.22-1.76 1.02.13.21-1.76 1.02-.13-.22-1.76 1.02.13.21-1.76 1.02-.13-.21-1.76 1.01.13.22-1.76 1.01-.12-.21-1.76 1.01.12.22-1.76 1.01-.12-.21-1.76 1.01.12.22-1.76 1.02-.12-.22-1.76 1.02.12.21-1.76 1.02-.12-.22-1.76 1.02.12.21-1.76 1.02-.12-.22-1.76 1.02.12.22-1.76 1.01-.12-.21-1.76 1.01.13.22-1.77 1.01-.12-.21-1.76 1.01.13.22-1.76 1.01-.13-.21-1.76 1.02.13.21-1.76 1.02-.13-.22-.75.44-.76-.44-.12.22-1.76-1.02.12-.21-1.76-1.02-.12.22-1.76-1.02.12-.22-1.76-1.01-.12.21-1.76-1.01.13-.22-1.76-1.01-.13.21-1.76-1.01.13-.22-1.76-1.02-.13.22-1.76-1.02.13-.21-1.76-1.02-.13.22-1.76-1.02.13-.21-1.76-1.02-.13.22-1.76-1.02.13-.22-1.76-1.01-.12.21-1.77-1.01.13-.22-1.76-1.01-.12.21-1.77-1.01.13-.22-1.76-1.01-.12.21-1.76-1.01.12-.22-1.76-1.02-.12.22-1.76-1.02.12-.21-1.76-1.02-.12.22-1.76-1.02.12-.21-1.76-1.02-.12.22-1.76-1.02.12-.22-.75-.43v-.87h-.25v-2.03h.25v-2.04h-.25v-2.03h.25v-2.03h-.25v-2.03h.25v-2.03h-.25v-2.04h.25v-2.03h-.25v-2.03h.25v-2.03h-.25v-2.03h.25v-2.03h-.25v-2.04h.25v-2.03h-.25v-2.03h.25v-2.03h-.25v-2.03h.25v-2.04h-.25v-2.03h.25v-2.03h-.25v-2.03h.25v-2.03h-.25v-2.03h.25V345h-.25v-2.03h.25v-.87l.75-.43-.12-.22 1.76-1.02.12.22 1.76-1.02-.12-.21 1.76-1.02.12.22 1.76-1.02-.12-.21 1.76-1.02.12.22 1.76-1.02-.12-.22 1.76-1.01.12.21 1.76-1.01-.12-.22 1.75-1.01.13.21 1.76-1.01-.12-.22 1.75-1.02.13.22 1.76-1.01-.13-.22 1.76-1.02.13.22 1.76-1.02-.13-.21 1.76-1.02.13.22 1.76-1.02-.13-.22 1.76-1.01.13.22 1.76-1.02-.13-.22 1.76-1.01.13.21 1.76-1.01-.13-.22 1.76-1.01.12.21 1.76-1.01-.12-.22 1.76-1.02.12.22 1.76-1.01-.12-.22 1.76-1.02.12.22.76-.44.75.44.13-.22 1.76 1.02-.13.22 1.76 1.01.13-.22 1.76 1.02-.13.22 1.76 1.01.12-.21 1.76 1.01-.12.22 1.76 1.01.12-.21 1.76 1.01-.12.22 1.76 1.02.12-.22 1.76 1.01-.12.22 1.76 1.02.12-.22 1.76 1.02-.12.21 1.76 1.02.12-.22 1.76 1.02-.12.22 1.76 1.01.12-.22 1.76 1.02-.12.22 1.76 1.01.12-.21 1.76 1.01-.13.22 1.76 1.01.13-.21 1.76 1.01-.13.22 1.76 1.02.13-.22 1.76 1.01-.13.22 1.76 1.02z"
  />
  <path
    stroke="#71717a"
    stroke-dasharray="2 2"
    stroke-width=".5"
    d="m228.52 101.86 1.75 1.01-.12.22 1.76 1.02.12-.22 1.76 1.02-.12.21.75.44v.87h.25v2.03h-.25v2.03h.25v2.03h-.25v2.04h.25v2.03h-.25v2.03h.25v2.03h-.25v2.03h.25v2.03h-.25v2.04h.25v2.03h-.25v2.03h.25v2.03h-.25v2.03h.25v2.03h-.25v2.04h.25v2.03h-.25V143h.25v2.03h-.25v2.03h.25v2.04h-.25v2.03h.25v2.03h-.25v2.03h.25v2.03h-.25v.87l-.75.44.12.22-1.75 1.01-.13-.21-1.76 1.01.13.22-1.77 1.01-.12-.21-1.76 1.01.13.22-1.76 1.01-.13-.21-1.76 1.01.13.22-1.76 1.02-.13-.22-1.76 1.02.13.21-1.76 1.02-.13-.22-1.76 1.02.13.21-1.76 1.02-.12-.22-1.76 1.02.12.22-1.76 1.01-.12-.21-1.76 1.01.12.22-1.76 1.01-.12-.21-1.76 1.01.12.22-1.76 1.02-.12-.22-1.76 1.01.12.22-1.76 1.02-.12-.22-1.76 1.02.12.21-1.76 1.02-.12-.22-1.76 1.02.12.22-1.76 1.01-.12-.22-1.76 1.02.13.22-1.76 1.01-.13-.21-.75.43-.76-.43-.12.21-1.76-1.01.12-.22-1.76-1.01-.12.21-1.76-1.01.12-.22-1.76-1.02-.12.22-1.76-1.02.12-.21-1.75-1.02-.13.22-1.76-1.02.13-.22-1.77-1.01-.12.22-1.76-1.02.13-.22-1.76-1.01-.13.21-1.76-1.01.13-.22-1.76-1.01-.13.21-1.76-1.01.13-.22-1.76-1.02-.13.22-1.76-1.01.13-.22-1.76-1.02-.13.22-1.76-1.02.13-.21-1.76-1.02-.13.22-1.75-1.02.12-.22-1.76-1.01-.12.21-1.77-1.01.13-.22-1.76-1.01-.12.21-1.76-1.01.12-.22-1.76-1.01-.12.21-1.76-1.01.12-.22-.75-.44v-.87h-.25v-2.03h.25v-2.03h-.25v-2.03h.25v-2.03h-.25v-2.04h.25v-2.03h-.25V143h.25v-2.03h-.25v-2.03h.25v-2.03h-.25v-2.04h.25v-2.03h-.25v-2.03h.25v-2.03h-.25v-2.03h.25v-2.03h-.25v-2.04h.25v-2.03h-.25v-2.03h.25v-2.03h-.25v-2.03h.25v-2.04h-.25v-2.03h.25v-2.03h-.25v-2.03h.25v-.87l.75-.44-.12-.22 1.76-1.01.12.22 1.76-1.02-.12-.22 1.76-1.01.12.21 1.76-1.01-.12-.22 1.76-1.01.12.21 1.76-1.01-.12-.22 1.75-1.02.13.22 1.76-1.02-.13-.21 1.76-1.02.13.22 1.76-1.02-.13-.21 1.76-1.02.13.22 1.76-1.02-.13-.22 1.76-1.01.13.22 1.76-1.02-.13-.22 1.76-1.01.13.21 1.75-1.01-.12-.22 1.76-1.02.13.22 1.75-1.01-.12-.22 1.76-1.02.13.22 1.75-1.02-.12-.21 1.76-1.02.12.22 1.76-1.02-.12-.21 1.76-1.02.12.22 1.76-1.02-.12-.22 1.76-1.01.12.21.76-.43.75.43.13-.21 1.75 1.01-.12.22 1.76 1.02.12-.22 1.76 1.02-.12.21 1.76 1.02.12-.22 1.76 1.02-.12.21 1.76 1.02.12-.22 1.76 1.02-.12.22 1.76 1.01.12-.22 1.76 1.02-.12.22 1.76 1.01.12-.21 1.76 1.01-.12.22 1.76 1.02.12-.22 1.76 1.01-.12.22 1.75 1.02.13-.22 1.76 1.02-.13.21 1.76 1.02.13-.22 1.76 1.02-.13.21 1.76 1.02.13-.22 1.76 1.02-.13.22 1.76 1.01.13-.21 1.76 1.01-.13.22 1.76 1.01zM228.6 259.84l1.77 1.02-.13.21 1.76 1.02.13-.22 1.76 1.02-.13.22.76.43v.87h.25v2.03h-.25v2.04h.25v2.03h-.25v2.03h.25v2.03h-.25v2.03h.25v2.03h-.25v2.04h.25v2.03h-.25v2.03h.25v2.03h-.25v2.03h.25v2.03h-.25v2.04h.25v2.03h-.25v2.03h.25v2.03h-.25v2.03h.25v2.04h-.25v2.03h.25v2.03h-.25v2.03h.25v2.03h-.25v2.03h.25v2.04h-.25v.87l-.76.43.13.22-1.76 1.01-.13-.21-1.76 1.02.13.21-1.76 1.02-.13-.22-1.76 1.02.13.21-1.76 1.02-.12-.22-1.76 1.02.12.21-1.76 1.02-.12-.22-1.76 1.02.12.22-1.76 1.01-.12-.21-1.76 1.01.12.22-1.76 1.01-.12-.21-1.76 1.01.12.22-1.76 1.02-.12-.22-1.76 1.02.12.21-1.76 1.02-.12-.22-1.76 1.02.12.21-1.76 1.02-.12-.22-1.76 1.02.13.21-1.76 1.02-.13-.21-1.76 1.01.13.22-1.76 1.01-.13-.21-1.76 1.01.13.22-1.76 1.01-.13-.21-1.76 1.01.13.22-1.76 1.02-.13-.22-.75.44-.76-.44-.12.22-1.76-1.02.13-.22-1.76-1.01-.13.22-1.76-1.02.13-.22-1.77-1.01-.12.21-1.76-1.01.13-.22-1.76-1.01-.13.21-1.76-1.01.13-.22-1.76-1.02-.13.22-1.76-1.02.13-.21-1.76-1.02-.13.22-1.76-1.02.13-.21-1.76-1.02-.13.22-1.76-1.02.13-.22-1.76-1.01-.12.21-1.76-1.01.12-.22-1.76-1.01-.12.21-1.77-1.01.13-.22-1.76-1.02-.12.22-1.76-1.01.12-.22-1.76-1.02-.12.22-1.76-1.02.12-.21-1.76-1.02-.12.22-1.76-1.02.13-.21-1.77-1.02-.12.22-1.76-1.02.13-.22-.76-.43v-.87h-.25v-2.04h.25v-2.03h-.25v-2.03h.25v-2.03h-.25v-2.03h.25v-2.03h-.25v-2.04h.25v-2.03h-.25v-2.03h.25v-2.03h-.25v-2.03h.25v-2.04h-.25v-2.03h.25v-2.03h-.25v-2.03h.25v-2.03h-.25v-2.03h.25v-2.04h-.25v-2.03h.25v-2.03h-.25v-2.03h.25v-2.03h-.25v-2.03h.25v-2.04h-.25v-2.03h.25v-.87l.75-.44-.12-.21 1.76-1.02.13.22 1.75-1.02-.12-.21 1.76-1.02.12.22 1.76-1.02-.12-.22 1.76-1.01.12.22 1.76-1.02-.12-.22 1.76-1.01.12.21 1.76-1.01-.12-.22 1.76-1.01.12.21 1.76-1.01-.12-.22 1.75-1.02.13.22 1.76-1.02-.13-.21 1.76-1.02.13.22 1.76-1.02-.13-.21 1.76-1.02.13.22 1.76-1.02-.13-.22 1.76-1.01.13.22 1.76-1.02-.13-.22 1.76-1.01.13.21 1.76-1.01-.13-.22 1.76-1.01.13.21 1.76-1.01-.13-.22 1.76-1.02.13.22 1.75-1.02-.12-.21 1.76-1.02.12.22.76-.44.75.44.13-.22 1.76 1.02-.13.21 1.76 1.02.13-.22 1.76 1.02-.13.22 1.76 1.01.13-.22 1.75 1.02-.12.22 1.76 1.01.13-.21 1.75 1.01-.12.22 1.76 1.02.12-.22 1.76 1.01-.12.22 1.76 1.02.12-.22 1.76 1.02-.12.21 1.76 1.02.12-.22 1.76 1.02-.12.21 1.76 1.02.12-.22 1.76 1.02-.12.22 1.76 1.01.12-.22 1.76 1.02-.12.22 1.75 1.01.13-.21 1.76 1.01-.12.22 1.75 1.02.13-.22 1.76 1.01-.13.22 1.76 1.02z"
  />
  <path
    stroke="#71717a"
    stroke-dasharray="2 2"
    stroke-width=".5"
    d="m183.52 180.86 1.75 1.01-.12.22 1.76 1.01.12-.21 1.76 1.02-.12.21.75.44v.87h.25v2.03h-.25v2.03h.25v2.03h-.25v2.04h.25v2.03h-.25v2.03h.25v2.03h-.25v2.03h.25v2.03h-.25v2.04h.25v2.03h-.25v2.03h.25v2.03h-.25v2.03h.25v2.03h-.25v2.04h.25v2.03h-.25V222h.25v2.03h-.25v2.03h.25v2.04h-.25v2.03h.25v2.03h-.25v2.03h.25v2.03h-.25v.87l-.75.44.12.22-1.75 1.01-.13-.21-1.76 1.01.13.22-1.77 1.01-.12-.21-1.76 1.01.13.22-1.76 1.01-.13-.21-1.76 1.01.13.22-1.76 1.02-.13-.22-1.76 1.02.13.21-1.76 1.02-.13-.22-1.76 1.02.13.21-1.76 1.02-.12-.22-1.76 1.02.12.22-1.76 1.01-.12-.21-1.76 1.01.12.22-1.76 1.01-.12-.21-1.76 1.01.12.22-1.76 1.02-.12-.22-1.76 1.01.12.22-1.76 1.02-.12-.22-1.76 1.02.12.21-1.76 1.02-.12-.22-1.76 1.02.12.22-1.76 1.01-.12-.22-1.76 1.02.13.22-1.76 1.01-.13-.21-.75.43-.76-.43-.12.21-1.76-1.01.12-.22-1.76-1.02-.12.22-1.76-1.01.12-.22-1.76-1.02-.12.22-1.76-1.02.12-.21-1.75-1.02-.13.22-1.76-1.02.13-.21-1.77-1.02-.12.22-1.76-1.02.13-.22-1.76-1.01-.13.21-1.76-1.01.13-.22-1.76-1.01-.13.21-1.76-1.01.13-.22-1.76-1.02-.13.22-1.76-1.01.13-.22-1.76-1.02-.13.22-1.76-1.02.13-.21-1.76-1.02-.13.22-1.76-1.02.13-.22-1.76-1.01-.12.21-1.77-1.01.13-.22-1.76-1.01-.12.21-1.76-1.01.12-.22-1.76-1.01-.12.21-1.76-1.01.12-.22-.75-.44v-.87h-.25v-2.03h.25v-2.03h-.25v-2.03h.25v-2.03h-.25v-2.04h.25v-2.03h-.25V222h.25v-2.03h-.25v-2.03h.25v-2.03h-.25v-2.04h.25v-2.03h-.25v-2.03h.25v-2.03h-.25v-2.03h.25v-2.03h-.25v-2.04h.25v-2.03h-.25v-2.03h.25v-2.03h-.25v-2.03h.25v-2.04h-.25v-2.03h.25v-2.03h-.25v-2.03h.25v-.87l.75-.44-.12-.22 1.76-1.01.12.22 1.76-1.02-.12-.22 1.76-1.01.12.21 1.76-1.01-.12-.22 1.76-1.02.12.22 1.76-1.01-.12-.22 1.75-1.02.13.22 1.76-1.02-.13-.21 1.76-1.02.13.22 1.76-1.02-.13-.21 1.76-1.02.13.22 1.76-1.02-.13-.22 1.76-1.01.13.22 1.76-1.02-.13-.22 1.76-1.01.13.21 1.75-1.01-.12-.22 1.76-1.02.13.22 1.75-1.01-.12-.22 1.76-1.02.13.22 1.75-1.02-.12-.21 1.76-1.02.12.22 1.76-1.02-.12-.21 1.76-1.02.12.22 1.76-1.02-.12-.22 1.76-1.01.12.22.76-.44.75.44.13-.22 1.75 1.01-.12.22 1.76 1.02.12-.22 1.76 1.02-.12.21 1.76 1.02.12-.22 1.76 1.02-.12.21 1.76 1.02.12-.22 1.76 1.02-.12.22 1.76 1.01.12-.22 1.76 1.02-.12.22 1.76 1.01.12-.21 1.76 1.01-.12.22 1.76 1.01.12-.21 1.76 1.01-.12.22 1.75 1.02.13-.22 1.76 1.02-.13.21 1.76 1.02.13-.22 1.76 1.02-.13.21 1.76 1.02.13-.22 1.76 1.02-.13.22 1.76 1.01.13-.22 1.76 1.02-.13.22 1.76 1.01zM182.41 22.86l1.76 1.01-.12.22 1.76 1.02.12-.22 1.76 1.02-.12.21.75.44v.87h.25v2.03h-.25v2.03h.25v2.03h-.25v2.04h.25v2.03h-.25v2.03h.25v2.03h-.25v2.03h.25v2.03h-.25v2.04h.25v2.03h-.25v2.03h.25v2.03h-.25v2.03h.25v2.04h-.25v2.03h.25v2.03h-.25V64h.25v2.03h-.25v2.03h.25v2.04h-.25v2.03h.25v2.03h-.25v2.03h.25v2.03h-.25v.87l-.75.44.12.22-1.75 1.01-.13-.21-1.76 1.01.12.22-1.76 1.01-.12-.21-1.76 1.01.13.22-1.76 1.02-.13-.22-1.76 1.02.13.21-1.76 1.02-.13-.22-1.76 1.02.13.21-1.76 1.02-.13-.22-1.76 1.02.13.21-1.76 1.02-.13-.22-1.76 1.02.13.22-1.76 1.01-.12-.21-1.76 1.01.12.22-1.76 1.01-.12-.21-1.76 1.01.12.22-1.76 1.02-.12-.22-1.76 1.02.12.21-1.76 1.02-.12-.22-1.76 1.02.12.21-1.76 1.02-.12-.22-1.76 1.02.12.22-1.76 1.01-.12-.22-1.76 1.02.13.22-1.76 1.01-.13-.21-.76.43-.75-.43-.12.21-1.76-1.01.12-.22-1.76-1.02-.12.22-1.76-1.01.12-.22-1.76-1.02-.12.22-1.76-1.02.12-.21-1.76-1.02-.12.22-1.76-1.02.12-.21L128 96.8l-.12.22L126.1 96l.12-.22-1.75-1.01-.13.21-1.76-1.01.13-.22-1.76-1.01-.13.21-1.76-1.01.13-.22-1.76-1.02-.13.22-1.76-1.01.13-.22-1.76-1.02-.13.22-1.76-1.02.13-.21-1.76-1.02-.13.22-1.76-1.02.13-.22-1.76-1.01-.12.22-1.77-1.02.13-.22-1.76-1.01-.12.21-1.76-1.01.12-.22-1.76-1.01-.12.21-1.76-1.01.12-.22-.75-.44v-.87h-.25V76.2h.25v-2.03h-.25v-2.03h.25V70.1h-.25v-2.04h.25v-2.03h-.25V64h.25v-2.03h-.25v-2.03h.25V57.9h-.25v-2.04h.25v-2.03h-.25v-2.03h.25v-2.03h-.25v-2.03h.25V45.7h-.25v-2.03h.25v-2.03h-.25v-2.03h.25v-2.03h-.25v-2.03h.25v-2.04h-.25V31.5h.25v-2.03h-.25v-2.03h.25v-.87l.75-.44-.12-.21 1.76-1.02.12.22 1.76-1.02-.12-.22 1.75-1.01.13.21 1.76-1.01-.12-.22 1.75-1.01.13.21 1.76-1.01-.12-.22 1.75-1.02.13.22 1.76-1.02-.13-.21 1.76-1.02.13.22 1.76-1.02-.13-.21 1.76-1.02.13.22 1.76-1.02-.13-.22 1.76-1.01.13.21 1.76-1.01-.13-.22 1.76-1.01.13.21 1.75-1.01-.12-.22 1.76-1.02.12.22 1.76-1.01-.12-.22 1.76-1.02.12.22 1.76-1.02-.12-.21 1.76-1.02.12.22 1.76-1.02-.12-.21 1.76-1.02.12.22 1.76-1.02-.12-.22 1.75-1.01.13.21.75-.43.76.43.12-.21 1.76 1.01-.12.22 1.76 1.02.12-.22 1.76 1.02-.12.21 1.76 1.02.12-.22 1.76 1.02-.12.21 1.76 1.02.12-.22 1.76 1.02-.12.22 1.76 1.01.12-.22 1.76 1.02-.12.22 1.76 1.01.12-.21 1.76 1.01-.12.22 1.75 1.01.13-.21 1.76 1.01-.13.22 1.76 1.02.13-.22 1.76 1.02-.13.21 1.76 1.02.13-.22 1.76 1.02-.13.21 1.76 1.02.13-.22 1.76 1.02-.13.22 1.76 1.01.13-.21 1.75 1.01-.12.22 1.76 1.01zM183.52 338.4l1.75 1.02-.12.21 1.76 1.02.13-.22 1.75 1.02-.12.22.76.43v.87h.25V345h-.25v2.04h.25v2.03h-.25v2.03h.25v2.03h-.25v2.03h.25v2.03h-.25v2.04h.25v2.03h-.25v2.03h.25v2.03h-.25v2.03h.25v2.04h-.25v2.03h.25v2.03h-.25v2.03h.25v2.03h-.25v2.03h.25v2.04h-.25v2.03h.25v2.03h-.25v2.03h.25v2.03h-.25v2.04h.25v2.03h-.25v.87l-.76.43.13.22-1.76 1.02-.13-.22-1.76 1.02.13.21-1.77 1.02-.12-.22-1.76 1.02.13.21-1.76 1.02-.13-.22-1.76 1.02.13.21-1.76 1.02-.13-.21-1.76 1.01.13.22-1.76 1.01-.12-.21-1.77 1.01.13.22-1.76 1.01-.12-.21-1.76 1.01.12.22-1.76 1.02-.12-.22-1.76 1.02.12.21-1.76 1.02-.12-.22-1.76 1.02.12.21-1.76 1.02-.12-.22-1.76 1.02.12.22-1.76 1.01-.12-.21-1.76 1.01.12.22-1.76 1.01-.12-.21-1.76 1.01.13.22-1.77 1.01-.12-.21-1.76 1.02.13.21-1.76 1.02-.13-.22-.75.44-.76-.44-.12.22-1.76-1.02.12-.21-1.76-1.02-.12.22-1.76-1.02.12-.22-1.76-1.01-.12.21-1.76-1.01.13-.22-1.76-1.01-.13.21-1.76-1.01.13-.22-1.77-1.02-.12.22-1.76-1.02.13-.21-1.76-1.02-.13.22-1.76-1.02.13-.21-1.76-1.02-.13.22-1.76-1.02.13-.22-1.76-1.01-.13.21-1.76-1.01.13-.22-1.76-1.01-.13.21-1.76-1.01.13-.22-1.76-1.01-.12.21-1.77-1.01.13-.22-1.76-1.02-.12.22-1.77-1.02.13-.21-1.76-1.02-.12.22-1.76-1.02.12-.21-1.76-1.02-.12.22-1.76-1.02.12-.22-.75-.43v-.87h-.25v-2.03h.25v-2.04h-.25v-2.03h.25v-2.03h-.25v-2.03h.25v-2.03h-.25v-2.04h.25v-2.03h-.25v-2.03h.25v-2.03h-.25v-2.03h.25v-2.03h-.25v-2.04h.25v-2.03h-.25v-2.03h.25v-2.03h-.25v-2.03h.25v-2.04h-.25v-2.03h.25v-2.03h-.25v-2.03h.25v-2.03h-.25v-2.03h.25V345h-.25v-2.03h.25v-.87l.75-.43-.12-.22 1.76-1.02.12.22 1.76-1.02-.12-.21 1.76-1.02.12.22 1.76-1.02-.12-.21 1.76-1.02.12.22 1.76-1.02-.12-.22 1.75-1.01.13.21 1.76-1.01-.12-.22 1.75-1.01.13.21 1.76-1.01-.13-.22 1.76-1.02.13.22 1.76-1.01-.13-.22 1.76-1.02.13.22 1.76-1.02-.13-.21 1.76-1.02.13.22 1.76-1.02-.13-.22 1.76-1.01.13.22 1.75-1.02-.12-.22 1.76-1.01.13.21 1.75-1.01-.12-.22 1.76-1.01.12.21 1.76-1.01-.12-.22 1.76-1.02.12.22 1.76-1.01-.12-.22 1.76-1.02.12.22.76-.44.75.44.13-.22 1.75 1.02-.12.22 1.76 1.01.13-.22 1.75 1.02-.12.22 1.76 1.01.12-.21 1.76 1.01-.12.22 1.76 1.01.12-.21 1.76 1.01-.12.22 1.76 1.02.12-.22 1.76 1.01-.12.22 1.76 1.02.12-.22 1.76 1.02-.12.21 1.76 1.02.12-.22 1.76 1.02-.12.22 1.75 1.01.13-.22 1.76 1.02-.12.22 1.75 1.01.13-.21 1.76 1.01-.13.22 1.76 1.01.13-.21 1.76 1.01-.13.22 1.76 1.02.13-.22 1.76 1.01-.13.22 1.76 1.02z"
  />
  <path
    stroke="#71717a"
    stroke-dasharray="2 2"
    stroke-width=".5"
    d="m137.41 101.86 1.76 1.01-.12.22 1.76 1.02.12-.22 1.76 1.02-.12.21.75.44v.87h.25v2.03h-.25v2.03h.25v2.03h-.25v2.04h.25v2.03h-.25v2.03h.25v2.03h-.25v2.03h.25v2.03h-.25v2.04h.25v2.03h-.25v2.03h.25v2.03h-.25v2.03h.25v2.03h-.25v2.04h.25v2.03h-.25V143h.25v2.03h-.25v2.03h.25v2.04h-.25v2.03h.25v2.03h-.25v2.03h.25v2.03h-.25v.87l-.75.44.12.22-1.75 1.01-.13-.21-1.76 1.01.12.22-1.76 1.01-.12-.21-1.76 1.01.13.22-1.76 1.01-.13-.21-1.76 1.01.13.22-1.76 1.02-.13-.22-1.76 1.02.13.21-1.76 1.02-.13-.22-1.76 1.02.13.21-1.76 1.02-.13-.22-1.76 1.02.13.22-1.76 1.01-.12-.21-1.76 1.01.12.22-1.76 1.01-.12-.21-1.76 1.01.12.22-1.76 1.02-.12-.22-1.76 1.01.12.22-1.76 1.02-.12-.22-1.76 1.02.12.21-1.76 1.02-.12-.22-1.76 1.02.12.22-1.76 1.01-.12-.22-1.76 1.02.13.22-1.76 1.01-.13-.21-.75.43-.76-.43-.12.21-1.76-1.01.12-.22-1.76-1.01-.12.21-1.76-1.01.12-.22-1.76-1.02-.12.22-1.76-1.02.12-.21-1.76-1.02-.12.22-1.76-1.02.12-.22L83 175.8l-.12.22L81.1 175l.12-.22-1.75-1.01-.13.21-1.76-1.01.13-.22-1.76-1.01-.13.21-1.76-1.01.13-.22-1.76-1.02-.13.22-1.76-1.01.13-.22-1.76-1.02-.13.22-1.76-1.02.13-.21-1.76-1.02-.13.22-1.76-1.02.13-.22-1.76-1.01-.13.21-1.76-1.01.13-.22-1.76-1.01-.12.21-1.76-1.01.12-.22-1.76-1.01-.12.21-1.76-1.01.12-.22-.75-.44v-.87h-.25v-2.03h.25v-2.03h-.25v-2.03h.25v-2.03h-.25v-2.04h.25v-2.03h-.25V143h.25v-2.03h-.25v-2.03h.25v-2.03h-.25v-2.04h.25v-2.03h-.25v-2.03h.25v-2.03h-.25v-2.03h.25v-2.03h-.25v-2.04h.25v-2.03h-.25v-2.03h.25v-2.03h-.25v-2.03h.25v-2.04h-.25v-2.03h.25v-2.03h-.25v-2.03h.25v-.87l.75-.44-.12-.22 1.76-1.01.12.22 1.76-1.02-.12-.22 1.76-1.01.12.21 1.76-1.01-.12-.22 1.75-1.01.13.21 1.76-1.01-.13-.22 1.76-1.02.13.22 1.76-1.02-.13-.21 1.76-1.02.13.22 1.76-1.02-.13-.21 1.76-1.02.13.22 1.76-1.02-.13-.22 1.76-1.01.13.22 1.76-1.02-.13-.22 1.76-1.01.13.21 1.75-1.01-.12-.22 1.76-1.02.12.22 1.76-1.01-.12-.22 1.76-1.02.12.22 1.76-1.02-.12-.21 1.76-1.02.12.22 1.76-1.02-.12-.21 1.76-1.02.12.22 1.76-1.02-.12-.22 1.76-1.01.12.21.76-.43.75.43.12-.21 1.76 1.01-.12.22 1.76 1.02.12-.22 1.76 1.02-.12.21 1.76 1.02.12-.22 1.76 1.02-.12.21 1.76 1.02.12-.22 1.76 1.02-.12.22 1.76 1.01.12-.22 1.76 1.02-.12.22 1.76 1.01.12-.21 1.76 1.01-.12.22 1.75 1.02.13-.22 1.76 1.01-.13.22 1.76 1.02.13-.22 1.76 1.02-.13.21 1.76 1.02.13-.22 1.76 1.02-.13.21 1.76 1.02.13-.22 1.76 1.02-.13.22 1.76 1.01.13-.21 1.75 1.01-.12.22 1.76 1.01zM137.5 259.84l1.77 1.02-.13.21 1.76 1.02.13-.22 1.76 1.02-.13.22.76.43v.87h.25v2.03h-.25v2.04h.25v2.03h-.25v2.03h.25v2.03h-.25v2.03h.25v2.03h-.25v2.04h.25v2.03h-.25v2.03h.25v2.03h-.25v2.03h.25v2.03h-.25v2.04h.25v2.03h-.25v2.03h.25v2.03h-.25v2.03h.25v2.04h-.25v2.03h.25v2.03h-.25v2.03h.25v2.03h-.25v2.03h.25v2.04h-.25v.87l-.76.43.13.22-1.76 1.01-.13-.21-1.76 1.02.13.21-1.76 1.02-.13-.22-1.76 1.02.13.21-1.76 1.02-.13-.22-1.76 1.02.13.21-1.76 1.02-.13-.22-1.76 1.02.13.22-1.76 1.01-.12-.21-1.76 1.01.12.22-1.76 1.01-.12-.21-1.76 1.01.12.22-1.76 1.02-.12-.22-1.76 1.02.12.21-1.76 1.02-.12-.22-1.76 1.02.12.21-1.76 1.02-.12-.22-1.76 1.02.12.21-1.76 1.02-.12-.21-1.76 1.01.13.22-1.77 1.01-.12-.21-1.76 1.01.13.22-1.76 1.01-.13-.21-1.76 1.01.13.22-1.76 1.02-.13-.22-.75.44-.76-.44-.12.22-1.76-1.02.12-.22-1.76-1.01-.12.22-1.76-1.02.12-.22-1.76-1.01-.12.21-1.76-1.01.13-.22-1.76-1.01-.13.21-1.76-1.01.13-.22-1.76-1.02-.13.22-1.76-1.02.13-.21-1.76-1.02-.13.22-1.76-1.02.13-.21-1.76-1.02-.13.22-1.76-1.02.13-.22-1.76-1.01-.13.21-1.76-1.01.13-.22-1.76-1.01-.12.21-1.77-1.01.13-.22-1.76-1.02-.12.22-1.76-1.01.12-.22-1.76-1.02-.12.22-1.76-1.02.12-.21-1.76-1.02-.12.22-1.76-1.02.12-.21-1.76-1.02-.12.22-1.76-1.02.12-.22-.75-.43v-.87h-.25v-2.04h.25v-2.03h-.25v-2.03h.25v-2.03h-.25v-2.03h.25v-2.03h-.25v-2.04h.25v-2.03h-.25v-2.03h.25v-2.03h-.25v-2.03h.25v-2.04h-.25v-2.03h.25v-2.03h-.25v-2.03h.25v-2.03h-.25v-2.03h.25v-2.04h-.25v-2.03h.25v-2.03h-.25v-2.03h.25v-2.03h-.25v-2.03h.25v-2.04h-.25v-2.03h.25v-.87l.75-.44-.12-.21 1.76-1.02.12.22 1.76-1.02-.12-.21 1.76-1.02.12.22 1.76-1.02-.12-.22 1.76-1.01.12.22 1.76-1.02-.12-.22 1.76-1.01.12.21 1.76-1.01-.12-.22 1.76-1.01.12.21 1.76-1.01-.12-.22 1.75-1.02.13.22 1.76-1.02-.13-.21 1.76-1.02.13.22 1.76-1.02-.13-.21 1.76-1.02.13.22 1.76-1.02-.13-.22 1.76-1.01.13.22 1.76-1.02-.13-.22 1.76-1.01.13.21 1.76-1.01-.13-.22 1.76-1.01.12.21 1.76-1.01-.12-.22 1.76-1.02.12.22 1.76-1.02-.12-.21 1.76-1.02.12.22.76-.44.75.44.13-.22 1.76 1.02-.13.21 1.76 1.02.13-.22 1.76 1.02-.13.22 1.76 1.01.12-.22 1.76 1.02-.12.22 1.76 1.01.12-.21 1.76 1.01-.12.22 1.76 1.02.12-.22 1.76 1.01-.12.22 1.76 1.02.12-.22 1.76 1.02-.12.21 1.76 1.02.12-.22 1.76 1.02-.12.21 1.76 1.02.12-.22 1.76 1.02-.12.22 1.76 1.01.12-.22 1.76 1.02-.13.22 1.76 1.01.13-.21 1.76 1.01-.13.22 1.76 1.02.13-.22 1.76 1.01-.13.22 1.76 1.02z"
  />
  <path
    stroke="#71717a"
    stroke-dasharray="2 2"
    stroke-width=".5"
    d="m92.41 180.86 1.76 1.01-.12.22 1.76 1.01.12-.21 1.76 1.02-.12.21.75.44v.87h.25v2.03h-.25v2.03h.25v2.03h-.25v2.04h.25v2.03h-.25v2.03h.25v2.03h-.25v2.03h.25v2.03h-.25v2.04h.25v2.03h-.25v2.03h.25v2.03h-.25v2.03h.25v2.03h-.25v2.04h.25v2.03h-.25V222h.25v2.03h-.25v2.03h.25v2.04h-.25v2.03h.25v2.03h-.25v2.03h.25v2.03h-.25v.87l-.75.44.12.22-1.76 1.01-.12-.21-1.76 1.01.12.22-1.76 1.01-.12-.21-1.76 1.01.13.22-1.76 1.01-.13-.21-1.76 1.01.13.22-1.76 1.02-.13-.22-1.76 1.02.13.21-1.76 1.02-.13-.22-1.76 1.02.13.21-1.76 1.02-.13-.22-1.76 1.02.13.22-1.76 1.01-.12-.21-1.76 1.01.12.22-1.76 1.01-.12-.21-1.76 1.01.12.22-1.76 1.02-.12-.22-1.76 1.01.12.22-1.76 1.02-.12-.22-1.76 1.02.12.21-1.76 1.02-.12-.22-1.76 1.02.12.22-1.76 1.01-.12-.22-1.76 1.02.12.22-1.75 1.01-.13-.21-.75.43-.76-.43-.12.21-1.76-1.01.12-.22-1.76-1.02-.12.22-1.76-1.01.12-.22-1.76-1.02-.12.22-1.76-1.02.12-.21-1.76-1.02-.12.22-1.76-1.02.12-.21L38 254.8l-.12.22L36.1 254l.12-.22-1.75-1.01-.13.21-1.76-1.01.13-.22-1.76-1.01-.13.21-1.76-1.01.13-.22-1.76-1.02-.13.22-1.76-1.01.13-.22-1.76-1.02-.13.22-1.76-1.02.13-.21-1.76-1.02-.13.22-1.76-1.02.13-.22-1.76-1.01-.13.21-1.76-1.01.13-.22-1.76-1.01-.12.21-1.76-1.01.12-.22-1.76-1.01-.12.21-1.76-1.01.12-.22-.75-.44v-.87h-.25v-2.03h.25v-2.03h-.25v-2.03h.25v-2.03h-.25v-2.04h.25v-2.03h-.25V222h.25v-2.03h-.25v-2.03h.25v-2.03h-.25v-2.04h.25v-2.03h-.25v-2.03h.25v-2.03h-.25v-2.03h.25v-2.03h-.25v-2.04h.25v-2.03h-.25v-2.03h.25v-2.03h-.25v-2.03h.25v-2.04h-.25v-2.03h.25v-2.03h-.25v-2.03h.25v-.87l.75-.44-.12-.22 1.76-1.01.12.22 1.76-1.02-.12-.22 1.76-1.01.12.21 1.76-1.01-.12-.22 1.75-1.02.13.22 1.76-1.01-.13-.22 1.76-1.02.13.22 1.76-1.02-.13-.21 1.76-1.02.13.22 1.76-1.02-.13-.21 1.76-1.02.13.22 1.76-1.02-.13-.22 1.76-1.01.13.22 1.76-1.02-.13-.22 1.76-1.01.13.21 1.75-1.01-.12-.22 1.76-1.02.12.22 1.76-1.01-.12-.22 1.76-1.02.12.22 1.76-1.02-.12-.21 1.76-1.02.12.22 1.76-1.02-.12-.21 1.76-1.02.12.22 1.76-1.02-.12-.22 1.76-1.01.12.22.76-.44.75.44.12-.22 1.76 1.01-.12.22 1.76 1.02.12-.22 1.76 1.02-.12.21 1.76 1.02.12-.22 1.76 1.02-.12.21 1.76 1.02.12-.22 1.76 1.02-.12.22 1.76 1.01.12-.22 1.76 1.02-.12.22 1.76 1.01.12-.21 1.76 1.01-.12.22 1.76 1.01.12-.21 1.76 1.01-.13.22 1.76 1.02.13-.22 1.76 1.02-.13.21 1.76 1.02.13-.22 1.76 1.02-.13.21 1.76 1.02.13-.22 1.76 1.02-.13.22 1.76 1.01.13-.22 1.76 1.02-.13.22 1.76 1.01z"
  />
  <defs>
    <linearGradient
      id="a"
      x1="502.79"
      x2="481.64"
      y1="185.58"
      y2="218.86"
      gradientUnits="userSpaceOnUse"
    >
      <stop stop-color="#0aa3f9" />
      <stop offset="1" stop-color="#b5b4ff" />
    </linearGradient>
    <linearGradient
      id="b"
      x1="545.31"
      x2="511.7"
      y1="236.62"
      y2="193.45"
      gradientUnits="userSpaceOnUse"
    >
      <stop stop-color="#0aa3f9" />
      <stop offset="1" stop-color="#b5b4ff" />
    </linearGradient>
    <linearGradient
      id="d"
      x1="525.41"
      x2="486.87"
      y1="186.51"
      y2="223.03"
      gradientUnits="userSpaceOnUse"
    >
      <stop stop-color="#7abbfd" />
      <stop offset="1" stop-color="#7abbfd" stop-opacity="0" />
    </linearGradient>
  </defs>
</svg>
