<svg xmlns="http://www.w3.org/2000/svg" fill="none" viewBox="0 0 998 998">
  <path
    stroke="#d9d9d9"
    stroke-linejoin="round"
    d="m544.484 62.973 3.987-37.888M589.782 70.148l7.918-37.266M676.891 98.448l15.493-34.802M717.751 119.268l19.048-32.993M791.851 173.106l25.493-28.313M824.278 205.533l28.313-25.494M878.116 279.633l32.992-19.049M898.936 320.492l34.802-15.493M927.236 407.602l37.265-7.917M934.411 452.9l37.888-3.988M934.411 544.485l37.888 3.988M927.236 589.784l37.266 7.918M898.936 676.893l34.802 15.493M878.116 717.753l32.992 19.049M824.278 791.852l28.313 25.493M791.851 824.279l25.493 28.313M717.751 878.118l19.049 32.993M676.892 898.938l15.493 34.802M589.782 927.238l7.918 37.266M544.484 934.413l3.988 37.888M452.898 934.413l-3.987 37.888M407.6 927.237l-7.918 37.266M320.491 898.938l-15.493 34.803M279.631 878.118l-19.048 32.993M205.532 824.279l-25.494 28.313M173.104 791.852l-28.312 25.493M119.266 717.753l-32.992 19.049M98.446 676.893l-34.802 15.493M70.146 589.783l-37.265 7.918M62.971 544.485l-37.888 3.988M62.971 452.9l-37.888-3.988M70.146 407.601l-37.266-7.917M98.446 320.492l-34.802-15.493M119.266 279.632l-32.992-19.049M173.105 205.533l-28.313-25.494M205.532 173.105l-25.494-28.313M279.632 119.267l-19.049-32.993M320.491 98.448l-15.493-34.802M407.6 70.148l-7.918-37.266M452.898 62.972l-3.988-37.888M568.14 66.111l6.045-37.615M612.981 75.742l9.935-36.78M698.42 108.743l17.365-33.907M738.086 131.757l20.816-31.906M809.144 189.55l26.997-26.883M839.758 223.694l29.658-23.914M889.482 300.614l33.98-17.224M908.046 342.547l35.594-13.575M931.561 431.068l37.642-5.877M936.26 476.69l38.049-1.919M931.272 568.142l37.615 6.044M921.642 612.981l36.779 9.936M888.641 698.421l33.907 17.365M865.628 738.085l31.906 20.817M807.834 809.145l26.883 26.997M773.69 839.759l23.914 29.659M696.769 889.482l17.224 33.981M654.837 908.047l13.575 35.594M566.316 931.562l5.877 37.641M520.694 936.26l1.919 38.049M429.243 931.273l-6.044 37.614M384.403 921.643l-9.935 36.779M298.964 888.642l-17.365 33.907M259.299 865.628l-20.817 31.906M188.24 807.835l-26.997 26.883M157.627 773.691l-29.659 23.914M107.903 696.769l-33.98 17.224M89.338 654.837l-35.594 13.575M65.823 566.316l-37.641 5.877M61.125 520.695l-38.05 1.918M66.111 429.244l-37.614-6.045M75.742 384.403l-36.78-9.935M108.743 298.963l-33.907-17.364M131.757 259.298l-31.906-20.817M189.55 188.24l-26.883-26.997M223.694 157.627l-23.914-29.659M300.615 107.902l-17.224-33.98M342.547 89.338l-13.575-35.594M431.069 65.822l-5.877-37.641M476.69 61.125l-1.919-38.049M523.113 61.254l2.129-38.038M568.708 66.203l6.085-37.608M657.098 90.208l13.771-35.519M698.927 109.005l17.411-33.885M775.572 159.152l24.078-29.526M809.546 189.955l27.032-26.848M866.945 261.332l32.021-20.64M889.739 301.123l34.003-17.177M922.267 386.744l36.834-9.731M931.65 431.637l37.647-5.836M936.131 523.113l38.037 2.129M931.18 568.708l37.609 6.085M907.176 657.098l35.518 13.771M888.379 698.928l33.885 17.412M838.231 775.572l29.526 24.078M807.429 809.546l26.849 27.031M736.052 866.945l20.64 32.021M696.26 889.74l17.177 34.003M610.639 922.268l9.732 36.833M565.746 931.65l5.837 37.648M474.27 936.13l-2.129 38.038M428.675 931.181l-6.085 37.608M340.285 907.176l-13.771 35.518M298.456 888.38l-17.412 33.884M221.812 838.231l-24.078 29.526M187.837 807.429l-27.032 26.848M130.438 736.052l-32.02 20.64M107.644 696.26l-34.003 17.177M75.116 610.639l-36.834 9.731M65.733 565.747l-37.647 5.836M61.253 474.271l-38.038-2.129M66.203 428.676l-37.609-6.085M90.207 340.285 54.69 326.514M109.004 298.457l-33.885-17.412M159.152 221.812l-29.526-24.078M189.954 187.837l-26.848-27.031M261.331 130.439l-20.64-32.021M301.123 107.644l-17.177-34.002M386.744 75.116l-9.731-36.834M431.637 65.734 425.8 28.087"
  />
  <circle cx="498.692" cy="498.692" r="456.5" fill="#fafafa" />
  <circle cx="482.482" cy="127.431" r="1.238" fill="#005bff" />
  <circle cx="514.902" cy="869.952" r="1.238" fill="#005bff" />
  <circle cx="466.304" cy="128.492" r="1.238" fill="#005bff" />
  <circle cx="531.08" cy="868.894" r="1.238" fill="#005bff" />
  <circle cx="450.186" cy="130.255" r="1.238" fill="#005bff" />
  <circle cx="547.198" cy="867.128" r="1.238" fill="#005bff" />
  <circle cx="434.163" cy="132.724" r="1.238" fill="#005bff" />
  <circle cx="563.222" cy="864.661" r="1.238" fill="#005bff" />
  <circle cx="418.262" cy="135.884" r="1.238" fill="#005bff" />
  <circle cx="579.126" cy="861.501" r="1.238" fill="#005bff" />
  <circle cx="402.511" cy="139.738" r="1.238" fill="#005bff" />
  <circle cx="594.873" cy="857.645" r="1.238" fill="#005bff" />
  <circle cx="386.947" cy="144.278" r="1.238" fill="#005bff" />
  <circle cx="610.442" cy="853.107" r="1.238" fill="#005bff" />
  <circle cx="371.592" cy="149.49" r="1.238" fill="#005bff" />
  <circle cx="625.791" cy="847.9" r="1.238" fill="#005bff" />
  <circle cx="356.48" cy="155.366" r="1.238" fill="#005bff" />
  <circle cx="640.904" cy="842.023" r="1.238" fill="#005bff" />
  <circle cx="341.64" cy="161.898" r="1.238" fill="#005bff" />
  <circle cx="655.745" cy="835.493" r="1.238" fill="#005bff" />
  <circle cx="327.098" cy="169.067" r="1.238" fill="#005bff" />
  <circle cx="670.288" cy="828.317" r="1.238" fill="#005bff" />
  <circle cx="312.887" cy="176.866" r="1.238" fill="#005bff" />
  <circle cx="684.503" cy="820.523" r="1.238" fill="#005bff" />
  <circle cx="299.024" cy="185.274" r="1.238" fill="#005bff" />
  <circle cx="698.362" cy="812.109" r="1.238" fill="#005bff" />
  <circle cx="285.541" cy="194.281" r="1.238" fill="#005bff" />
  <circle cx="711.843" cy="803.103" r="1.238" fill="#005bff" />
  <circle cx="272.465" cy="203.869" r="1.238" fill="#005bff" />
  <circle cx="724.919" cy="793.514" r="1.238" fill="#005bff" />
  <circle cx="259.825" cy="214.017" r="1.238" fill="#005bff" />
  <circle cx="737.564" cy="783.366" r="1.238" fill="#005bff" />
  <circle cx="247.631" cy="224.71" r="1.238" fill="#005bff" />
  <circle cx="749.753" cy="772.674" r="1.238" fill="#005bff" />
  <circle cx="224.71" cy="247.632" r="1.238" fill="#005bff" />
  <circle cx="772.674" cy="749.753" r="1.238" fill="#005bff" />
  <circle cx="214.017" cy="259.825" r="1.238" fill="#005bff" />
  <circle cx="783.367" cy="737.564" r="1.238" fill="#005bff" />
  <circle cx="203.87" cy="272.465" r="1.238" fill="#005bff" />
  <circle cx="793.515" cy="724.92" r="1.238" fill="#005bff" />
  <circle cx="194.282" cy="285.542" r="1.238" fill="#005bff" />
  <circle cx="803.102" cy="711.844" r="1.238" fill="#005bff" />
  <circle cx="185.274" cy="299.024" r="1.238" fill="#005bff" />
  <circle cx="812.11" cy="698.362" r="1.238" fill="#005bff" />
  <circle cx="176.866" cy="312.887" r="1.238" fill="#005bff" />
  <circle cx="820.524" cy="684.501" r="1.238" fill="#005bff" />
  <circle cx="169.067" cy="327.099" r="1.238" fill="#005bff" />
  <circle cx="828.317" cy="670.288" r="1.238" fill="#005bff" />
  <circle cx="161.897" cy="341.641" r="1.238" fill="#005bff" />
  <circle cx="835.492" cy="655.744" r="1.238" fill="#005bff" />
  <circle cx="155.366" cy="356.481" r="1.238" fill="#005bff" />
  <circle cx="842.022" cy="640.905" r="1.238" fill="#005bff" />
  <circle cx="149.49" cy="371.593" r="1.238" fill="#005bff" />
  <circle cx="847.898" cy="625.792" r="1.238" fill="#005bff" />
  <circle cx="144.277" cy="386.947" r="1.238" fill="#005bff" />
  <circle cx="853.107" cy="610.442" r="1.238" fill="#005bff" />
  <circle cx="139.738" cy="402.511" r="1.238" fill="#005bff" />
  <circle cx="857.645" cy="594.874" r="1.238" fill="#005bff" />
  <circle cx="135.884" cy="418.262" r="1.238" fill="#005bff" />
  <circle cx="861.5" cy="579.127" r="1.238" fill="#005bff" />
  <circle cx="132.723" cy="434.162" r="1.238" fill="#005bff" />
  <circle cx="864.661" cy="563.223" r="1.238" fill="#005bff" />
  <circle cx="130.255" cy="450.187" r="1.238" fill="#005bff" />
  <circle cx="867.129" cy="547.198" r="1.238" fill="#005bff" />
  <circle cx="128.491" cy="466.304" r="1.238" fill="#005bff" />
  <circle cx="868.893" cy="531.079" r="1.238" fill="#005bff" />
  <circle cx="127.431" cy="482.483" r="1.238" fill="#005bff" />
  <circle cx="869.954" cy="514.902" r="1.238" fill="#005bff" />
  <circle cx="127.431" cy="514.901" r="1.238" fill="#005bff" />
  <circle cx="869.954" cy="482.482" r="1.238" fill="#005bff" />
  <circle cx="128.491" cy="531.079" r="1.238" fill="#005bff" />
  <circle cx="868.893" cy="466.304" r="1.238" fill="#005bff" />
  <circle cx="130.255" cy="547.198" r="1.238" fill="#005bff" />
  <circle cx="867.129" cy="450.187" r="1.238" fill="#005bff" />
  <circle cx="132.723" cy="563.223" r="1.238" fill="#005bff" />
  <circle cx="864.661" cy="434.163" r="1.238" fill="#005bff" />
  <circle cx="135.884" cy="579.127" r="1.238" fill="#005bff" />
  <circle cx="861.5" cy="418.262" r="1.238" fill="#005bff" />
  <circle cx="139.738" cy="594.873" r="1.238" fill="#005bff" />
  <circle cx="857.645" cy="402.511" r="1.238" fill="#005bff" />
  <circle cx="144.277" cy="610.442" r="1.238" fill="#005bff" />
  <circle cx="853.107" cy="386.946" r="1.238" fill="#005bff" />
  <circle cx="149.49" cy="625.792" r="1.238" fill="#005bff" />
  <circle cx="847.902" cy="371.592" r="1.238" fill="#005bff" />
  <circle cx="155.366" cy="640.904" r="1.238" fill="#005bff" />
  <circle cx="842.023" cy="356.48" r="1.238" fill="#005bff" />
  <circle cx="161.897" cy="655.744" r="1.238" fill="#005bff" />
  <circle cx="835.492" cy="341.641" r="1.238" fill="#005bff" />
  <circle cx="169.067" cy="670.288" r="1.238" fill="#005bff" />
  <circle cx="828.318" cy="327.098" r="1.238" fill="#005bff" />
  <circle cx="176.866" cy="684.501" r="1.238" fill="#005bff" />
  <circle cx="820.525" cy="312.887" r="1.238" fill="#005bff" />
  <circle cx="185.274" cy="698.362" r="1.238" fill="#005bff" />
  <circle cx="812.11" cy="299.025" r="1.238" fill="#005bff" />
  <circle cx="194.282" cy="711.843" r="1.238" fill="#005bff" />
  <circle cx="803.102" cy="285.542" r="1.238" fill="#005bff" />
  <circle cx="203.87" cy="724.92" r="1.238" fill="#005bff" />
  <circle cx="793.515" cy="272.465" r="1.238" fill="#005bff" />
  <circle cx="214.017" cy="737.565" r="1.238" fill="#005bff" />
  <circle cx="783.367" cy="259.826" r="1.238" fill="#005bff" />
  <circle cx="224.71" cy="749.754" r="1.238" fill="#005bff" />
  <circle cx="772.674" cy="247.633" r="1.238" fill="#005bff" />
  <circle cx="247.631" cy="772.674" r="1.238" fill="#005bff" />
  <circle cx="749.753" cy="224.711" r="1.238" fill="#005bff" />
  <circle cx="259.826" cy="783.366" r="1.238" fill="#005bff" />
  <circle cx="737.564" cy="214.016" r="1.238" fill="#005bff" />
  <circle cx="272.465" cy="793.514" r="1.238" fill="#005bff" />
  <circle cx="724.918" cy="203.87" r="1.238" fill="#005bff" />
  <circle cx="285.541" cy="803.102" r="1.238" fill="#005bff" />
  <circle cx="711.844" cy="194.281" r="1.238" fill="#005bff" />
  <circle cx="299.024" cy="812.109" r="1.238" fill="#005bff" />
  <circle cx="698.362" cy="185.274" r="1.238" fill="#005bff" />
  <circle cx="312.887" cy="820.523" r="1.238" fill="#005bff" />
  <circle cx="684.503" cy="176.865" r="1.238" fill="#005bff" />
  <circle cx="327.098" cy="828.318" r="1.238" fill="#005bff" />
  <circle cx="670.287" cy="169.067" r="1.238" fill="#005bff" />
  <circle cx="341.64" cy="835.493" r="1.238" fill="#005bff" />
  <circle cx="655.744" cy="161.898" r="1.238" fill="#005bff" />
  <circle cx="356.478" cy="842.022" r="1.238" fill="#005bff" />
  <circle cx="640.904" cy="155.366" r="1.238" fill="#005bff" />
  <circle cx="371.593" cy="847.899" r="1.238" fill="#005bff" />
  <circle cx="625.792" cy="149.49" r="1.238" fill="#005bff" />
  <circle cx="386.948" cy="853.107" r="1.238" fill="#005bff" />
  <circle cx="610.441" cy="144.278" r="1.238" fill="#005bff" />
  <circle cx="402.511" cy="857.644" r="1.238" fill="#005bff" />
  <circle cx="594.874" cy="139.738" r="1.238" fill="#005bff" />
  <circle cx="418.26" cy="861.5" r="1.238" fill="#005bff" />
  <circle cx="579.127" cy="135.884" r="1.238" fill="#005bff" />
  <circle cx="434.162" cy="864.661" r="1.238" fill="#005bff" />
  <circle cx="563.222" cy="132.724" r="1.238" fill="#005bff" />
  <circle cx="450.187" cy="867.127" r="1.238" fill="#005bff" />
  <circle cx="547.198" cy="130.255" r="1.238" fill="#005bff" />
  <circle cx="466.305" cy="868.893" r="1.238" fill="#005bff" />
  <circle cx="531.08" cy="128.492" r="1.238" fill="#005bff" />
  <circle cx="482.482" cy="869.953" r="1.238" fill="#005bff" />
  <circle cx="514.902" cy="127.432" r="1.238" fill="#005bff" />
  <circle cx="498.692" cy="498.692" r="385" stroke="#005bff" />
  <path
    stroke="#005bff"
    stroke-linejoin="round"
    d="M498.812 92.58V15.192M624.196 112.461 648.1 38.866M737.412 170.174l45.475-62.607M827.266 260.058l62.584-45.491M884.957 373.315l73.569-23.913M904.832 498.862h77.36M884.957 624.41l73.57 23.913M827.266 737.667l62.584 45.491M737.412 827.552l45.475 62.606M624.196 885.264l23.904 73.595M498.812 904.806v77.387M373.188 885.263l-23.904 73.595M259.972 827.552l-45.475 62.606M170.118 737.667l-62.584 45.491M112.427 624.41l-73.57 23.913M92.552 498.861h-77.36M112.427 373.315l-73.57-23.913M170.118 260.058l-62.584-45.491M259.972 170.174l-45.475-62.607M373.188 112.46l-23.904-73.595"
  />
  <path
    stroke="#605d5d"
    stroke-linejoin="round"
    d="m541.607 90.38 3.737-35.519M584.058 97.107l7.421-34.936M665.694 123.639l14.519-32.626M703.986 143.157l17.851-30.929M773.428 193.63l23.892-26.543M803.818 224.03l26.534-23.9M854.273 293.497l30.919-17.858M873.784 331.802l32.615-14.525M900.306 413.466l34.924-7.423M907.03 455.933l35.507-3.739M907.031 541.793l35.506 3.738M900.306 584.259l34.924 7.423M873.784 665.924l32.615 14.524M854.273 704.229l30.919 17.858M803.818 773.696l26.534 23.9M773.429 804.095l23.891 26.543M703.986 854.569l17.851 30.93M665.694 874.087l14.519 32.626M584.058 900.617l7.421 34.936M541.607 907.345l3.737 35.519M455.777 907.344l-3.737 35.519M413.325 900.617l-7.42 34.936M331.69 874.087l-14.519 32.626M293.398 854.569l-17.852 30.93M223.955 804.096l-23.891 26.542M193.566 773.695l-26.533 23.9M143.111 704.229l-30.919 17.858M123.6 665.924l-32.615 14.524M97.078 584.259l-34.924 7.423M90.354 541.793l-35.507 3.738M90.354 455.933l-35.507-3.739M97.078 413.466l-34.924-7.423M123.6 331.802l-32.615-14.525M143.111 293.497l-30.919-17.858M193.566 224.03l-26.534-23.9M223.955 193.63l-23.891-26.543M293.398 143.157l-17.852-30.929M331.69 123.638l-14.519-32.626M413.326 97.107l-7.421-34.936M455.777 90.38l-3.737-35.519M563.777 93.322l5.664-35.263M605.798 102.35l9.311-34.48M685.87 133.289l16.273-31.787M723.042 154.864l19.509-29.911M789.634 209.043l25.301-25.202M818.324 241.055l27.795-22.419M864.923 313.167l31.845-16.147M882.322 352.477l33.357-12.727M904.359 435.465l35.276-5.51M908.762 478.235l35.657-1.799M904.089 563.969l35.25 5.666M895.063 606.004l34.468 9.314M864.136 686.103l31.776 16.279M842.569 723.289l29.901 19.515M788.407 789.905l25.194 25.31M756.409 818.604l22.411 27.805M684.322 865.221l16.142 31.856M645.025 882.624l12.722 33.369M562.066 904.67l5.508 35.288M519.312 909.073l1.798 35.67M433.609 904.399l-5.665 35.263M391.586 895.37l-9.31 34.48M311.516 864.433l-16.274 31.788M274.343 842.858l-19.509 29.912M207.75 788.678l-25.301 25.202M179.061 756.668l-27.795 22.419M132.462 684.555l-31.845 16.148M115.064 645.243 81.707 657.97M93.026 562.257l-35.276 5.509M88.623 519.487l-35.657 1.798M93.296 433.755l-35.25-5.667M102.322 391.717l-34.468-9.314M133.249 311.619l-31.776-16.279M154.817 274.433l-29.902-19.515M208.977 207.816l-25.194-25.309M240.976 179.117l-22.411-27.805M313.063 132.502l-16.142-31.856M352.36 115.098 339.638 81.73M435.319 93.052l-5.508-35.288M478.073 88.648l-1.798-35.67M521.579 88.77l1.996-35.66M564.309 93.41l5.703-35.257M647.144 115.914l12.906-33.297M686.344 133.535l16.318-31.766M758.173 180.547l22.565-27.68M790.013 209.425l25.333-25.17M843.804 276.34l30.008-19.349M865.166 313.644l31.866-16.103M895.65 393.913l34.519-9.123M904.443 435.999l35.281-5.471M908.641 521.757l35.648 1.996M904.002 564.501l35.245 5.705M881.506 647.365l33.286 12.911M863.891 686.581l31.756 16.323M816.894 758.434l27.671 22.572M788.028 790.284l25.161 25.342M721.136 844.096l19.343 30.019M683.845 865.464l16.098 31.877M603.605 895.958l9.12 34.531M561.534 904.755l5.47 35.294M475.805 908.956l-1.995 35.66M433.076 904.315l-5.702 35.257M350.241 881.809l-12.906 33.298M311.041 864.189l-16.318 31.766M239.212 817.175l-22.564 27.681M207.373 788.299l-25.333 25.17M153.581 721.385l-30.008 19.35M132.219 684.08l-31.865 16.103M101.736 603.811l-34.519 9.124M92.943 561.725l-35.282 5.472M88.744 475.968l-35.647-1.996M93.383 433.222l-35.245-5.704M115.879 350.358l-33.286-12.911M133.494 311.144l-31.755-16.324M180.491 239.29l-27.671-22.572M209.357 207.44l-25.161-25.341M276.249 153.63l-19.343-30.02M313.54 132.26l-16.098-31.877M393.78 101.766l-9.12-34.53M435.851 92.969l-5.469-35.294"
  />
</svg>
