<svg xmlns="http://www.w3.org/2000/svg" fill="none" viewBox="0 0 710 664">
  <path
    fill="url(#a)"
    d="M688.343 188.024a142.31 142.31 0 0 0-7.489-18.988v-.395c-13.756-28.087-36.564-50.687-64.725-64.132a137.904 137.904 0 0 0-90.415-9.942c-30.394 7.007-57.537 24.114-77.027 48.545-19.49 24.432-30.184 54.755-30.347 86.051a137.765 137.765 0 0 0 3.153 29.272c.01.132.01.264 0 .396.789 3.955 1.971 7.911 3.154 11.867a214.747 214.747 0 0 1 4.025 85.276 214.47 214.47 0 0 1-29.513 80.071 213.676 213.676 0 0 1-58.353 62.12 212.865 212.865 0 0 1-77.908 34.286 212.5 212.5 0 0 1-85.063.993 212.817 212.817 0 0 1-78.682-32.456 213.633 213.633 0 0 1-59.778-60.741 214.45 214.45 0 0 1-31.361-79.359 354.819 354.819 0 0 0 50.802 137.973 353.455 353.455 0 0 0 102.292 105.345 352.063 352.063 0 0 0 136.125 54.532 351.556 351.556 0 0 0 146.459-5.693 352.28 352.28 0 0 0 131.513-64.937 353.722 353.722 0 0 0 93.865-112.97 354.984 354.984 0 0 0 40.016-141.503 355.19 355.19 0 0 0-20.743-145.611Z"
  />
  <path
    fill="url(#b)"
    d="M128.239 307.088c45.724 66.851 140.323 60.918 140.323 60.918-23.65-22.943-39.022-43.908-40.599-103.64-1.576-59.731-35.475-75.554-35.475-75.554 60.702-38.37 39.023-79.905 37.052-126.187-1.183-28.876 15.766-50.237 29.168-62.5-77.135 11.596-146.834 52.622-194.566 114.527C16.409 176.557-5.672 254.561 2.5 332.405c5.518-15.428 83.563-87.026 125.738-25.317Z"
  />
  <path
    fill="url(#c)"
    d="M688.343 188.024a142.31 142.31 0 0 0-7.489-18.988v-.395c-13.756-28.087-36.564-50.687-64.725-64.132a137.904 137.904 0 0 0-90.415-9.942c-30.394 7.007-57.537 24.114-77.027 48.545-19.49 24.432-30.184 54.755-30.347 86.051a137.765 137.765 0 0 0 3.153 29.272c.01.132.01.264 0 .396.789 3.955 1.971 7.911 3.154 11.867a214.747 214.747 0 0 1 4.025 85.276 214.47 214.47 0 0 1-29.513 80.071 213.676 213.676 0 0 1-58.353 62.12 212.865 212.865 0 0 1-77.908 34.286 212.5 212.5 0 0 1-85.063.993 212.817 212.817 0 0 1-78.682-32.456 213.633 213.633 0 0 1-59.778-60.741 214.45 214.45 0 0 1-31.361-79.359 354.819 354.819 0 0 0 50.802 137.973 353.455 353.455 0 0 0 102.292 105.345 352.063 352.063 0 0 0 136.125 54.532 351.556 351.556 0 0 0 146.459-5.693 352.28 352.28 0 0 0 131.513-64.937 353.722 353.722 0 0 0 93.865-112.97 354.984 354.984 0 0 0 40.016-141.503 355.19 355.19 0 0 0-20.743-145.611Z"
  />
  <path
    fill="url(#d)"
    fill-rule="evenodd"
    d="M629.615 283.355c0 172.371-139.238 312.105-310.996 312.105-91.173 0-173.182-39.373-230.066-102.099a212.838 212.838 0 0 0 89.294 40.082 212.481 212.481 0 0 0 85.063-.994 212.854 212.854 0 0 0 77.908-34.285 213.692 213.692 0 0 0 58.353-62.121 214.486 214.486 0 0 0 29.512-80.07 214.733 214.733 0 0 0-4.025-85.277c-1.182-3.955-2.365-7.911-3.153-11.867a2.893 2.893 0 0 0 0-.395 137.708 137.708 0 0 1-3.153-29.272c.163-31.297 10.856-61.619 30.346-86.051 19.49-24.431 46.634-41.538 77.027-48.545a137.86 137.86 0 0 1 37.993-3.347c41.288 52.972 65.897 119.67 65.897 192.136Z"
    clip-rule="evenodd"
  />
  <defs>
    <linearGradient
      id="a"
      x1="655.036"
      x2="150.086"
      y1="131.932"
      y2="604.902"
      gradientUnits="userSpaceOnUse"
    >
      <stop stop-color="#6378FF" />
      <stop offset="1" stop-color="#6312FF" />
    </linearGradient>
    <linearGradient
      id="b"
      x1="216.131"
      x2="-82.257"
      y1="-41.461"
      y2="427.355"
      gradientUnits="userSpaceOnUse"
    >
      <stop stop-color="#0AA3F9" />
      <stop offset="1" stop-color="#B5B4FF" />
    </linearGradient>
    <linearGradient
      id="c"
      x1="814.31"
      x2="338.223"
      y1="679.892"
      y2="72.833"
      gradientUnits="userSpaceOnUse"
    >
      <stop stop-color="#0AA3F9" />
      <stop offset="1" stop-color="#B5B4FF" />
    </linearGradient>
    <linearGradient
      id="d"
      x1="546.741"
      x2="106.813"
      y1="91.167"
      y2="539.077"
      gradientUnits="userSpaceOnUse"
    >
      <stop stop-color="#7ABBFD" />
      <stop offset="1" stop-color="#7ABBFD" stop-opacity="0" />
    </linearGradient>
  </defs>
</svg>
