<svg
  width="188"
  height="217"
  viewBox="0 0 188 217"
  fill="none"
  xmlns="http://www.w3.org/2000/svg"
>
  <g filter="url(#filter0_d_40_153)">
    <rect
      width="49.6454"
      height="49.6454"
      transform="matrix(0.866025 -0.5 0.866025 0.5 2.47363 146.131)"
      fill="#FAFAFA"
    />
    <rect
      width="49.6454"
      height="49.6454"
      transform="matrix(0.866025 -0.5 0.866025 0.5 50.0417 173.594)"
      fill="#FAFAFA"
    />
    <rect
      width="49.6454"
      height="49.6454"
      transform="matrix(0.866025 -0.5 0.866025 0.5 50.0417 118.667)"
      fill="#FAFAFA"
    />
    <rect
      width="49.6454"
      height="49.6454"
      transform="matrix(0.866025 -0.5 0.866025 0.5 97.6099 146.131)"
      fill="#FAFAFA"
    />
  </g>
  <path
    d="M61.1198 128.283C62.5574 127.453 63.9776 126.973 65.4153 126.863C66.9221 126.733 68.3944 127.023 69.8666 127.733L67.996 128.813C67.0261 128.453 66.1254 128.293 65.294 128.373C64.4453 128.443 63.5793 128.743 62.644 129.283C61.8299 129.753 61.3276 130.183 61.1371 130.573C60.8773 131.043 61.0678 131.453 61.6913 131.813C62.2456 132.133 62.9731 132.213 63.9257 132.043C64.3587 131.973 65.3286 131.713 66.8355 131.243C69.0179 130.583 70.5075 130.183 71.2869 130.073C72.9843 129.833 74.4046 130.033 75.5477 130.693C76.6563 131.333 77.0893 132.083 76.8641 132.953C76.6216 133.813 75.721 134.693 74.1621 135.593C72.6552 136.463 71.1657 136.963 69.7281 137.113C67.9787 137.283 66.2813 136.943 64.6185 136.103L66.4891 135.023C67.5976 135.503 68.6542 135.713 69.6241 135.633C70.5075 135.563 71.4601 135.233 72.4993 134.633C73.4346 134.093 74.0062 133.563 74.2487 133.063C74.4912 132.563 74.3353 132.153 73.7811 131.833C73.0882 131.433 72.1529 131.353 70.9751 131.573C70.5594 131.653 69.4683 131.963 67.6842 132.513C65.6751 133.113 64.4107 133.463 63.8218 133.563C62.2976 133.783 60.9985 133.573 59.9247 132.953C58.8335 132.323 58.4351 131.573 58.7295 130.683C59.0067 129.843 59.8034 129.043 61.1198 128.283ZM75.0361 124.189C76.491 123.349 78.1018 122.979 79.8685 123.119C81.462 123.239 83.0728 123.749 84.6836 124.659L77.894 128.579C78.8293 129.039 79.73 129.299 80.6133 129.329C81.4793 129.349 82.2934 129.159 83.0209 128.739C83.6617 128.369 84.0255 127.979 84.1294 127.579C84.1987 127.259 84.0601 126.879 83.783 126.439L85.6189 125.379C86.2425 125.979 86.5543 126.619 86.485 127.299C86.3811 128.139 85.7402 128.909 84.5451 129.599C83.2287 130.359 81.7565 130.729 80.1803 130.699C78.4829 130.679 76.9067 130.249 75.4345 129.399C74.1008 128.629 73.3733 127.769 73.2694 126.789C73.1135 125.819 73.7198 124.949 75.0361 124.189ZM76.595 125.029C75.9021 125.429 75.5557 125.849 75.5557 126.329C75.5731 126.779 75.8848 127.259 76.543 127.759L81.3754 124.969C79.6434 124.169 78.0499 124.189 76.595 125.029ZM85.0552 118.404C86.3716 117.644 87.6706 117.274 88.9523 117.294C90.0608 117.314 91.1694 117.634 92.2606 118.264L97.9763 121.564L96.2789 122.544L95.0145 121.814C95.1184 122.274 95.0492 122.734 94.7893 123.184C94.4776 123.684 93.9406 124.174 93.1439 124.634C92.2086 125.174 91.2386 125.454 90.2514 125.484C89.2121 125.544 88.3288 125.354 87.584 124.924C86.5794 124.344 86.1984 123.664 86.4582 122.894C86.666 122.174 87.4454 121.424 88.7272 120.644L90.6844 119.454L90.3207 119.244C89.0736 118.524 87.7745 118.554 86.4235 119.334C85.852 119.664 85.4882 119.994 85.3497 120.314C85.1765 120.694 85.2804 121.054 85.6788 121.404L83.7042 122.364C82.9248 121.694 82.6823 120.994 82.9941 120.294C83.2366 119.674 83.9467 119.044 85.0552 118.404ZM92.0181 120.224L90.1821 121.344C88.5366 122.334 88.2942 123.154 89.4027 123.794C89.7491 123.994 90.1648 124.074 90.6844 124.034C91.1867 124.004 91.689 123.854 92.1566 123.584C92.9361 123.134 93.3517 122.614 93.4383 122.024C93.5249 121.434 93.2305 120.924 92.5377 120.524L92.0181 120.224ZM87.6764 112.951L89.5124 111.891L102.122 119.171L100.286 120.231L87.6764 112.951ZM99.3331 110.161C100.684 109.381 102.226 109.011 103.94 109.061C105.62 109.111 107.162 109.521 108.53 110.311C109.881 111.091 110.609 111.971 110.678 112.931C110.747 113.931 110.124 114.831 108.773 115.611C107.422 116.391 105.863 116.751 104.131 116.711C102.468 116.671 100.944 116.251 99.5929 115.471C98.2246 114.681 97.4972 113.801 97.4279 112.821C97.3413 111.831 97.9821 110.941 99.3331 110.161ZM100.84 111.031C99.9913 111.521 99.6622 112.091 99.8701 112.751C100.026 113.321 100.58 113.861 101.481 114.381C102.382 114.901 103.3 115.211 104.287 115.301C105.413 115.411 106.417 115.231 107.266 114.741C108.115 114.251 108.426 113.671 108.253 113.011C108.08 112.431 107.56 111.891 106.677 111.381C105.776 110.861 104.824 110.551 103.836 110.461C102.676 110.351 101.689 110.541 100.84 111.031ZM108.889 104.644C111.209 103.304 113.426 103.104 115.522 104.074L113.738 105.104C113.115 104.904 112.578 104.834 112.093 104.894C111.573 104.954 110.984 105.174 110.361 105.534C109.806 105.854 109.46 106.134 109.356 106.394C109.2 106.684 109.322 106.934 109.668 107.134C109.98 107.314 110.482 107.324 111.192 107.174C111.642 107.074 112.405 106.834 113.53 106.444C114.795 105.994 115.851 105.724 116.648 105.624C117.809 105.474 118.796 105.624 119.593 106.084C121.481 107.174 121.099 108.494 118.449 110.024C115.99 111.444 113.617 111.594 111.331 110.514L113.132 109.474C113.842 109.764 114.5 109.884 115.055 109.844C115.592 109.794 116.198 109.584 116.891 109.184C118.311 108.364 118.623 107.704 117.826 107.244C117.393 106.994 116.769 106.954 116.007 107.114C115.592 107.194 114.812 107.444 113.686 107.854C112.387 108.324 111.383 108.604 110.69 108.684C109.564 108.834 108.611 108.684 107.849 108.244C107.035 107.774 106.723 107.214 106.949 106.564C107.156 105.904 107.815 105.264 108.889 104.644ZM81.2808 144.923L86.9273 141.663C88.1398 140.963 89.3522 140.583 90.6339 140.523C91.8463 140.463 92.9202 140.703 93.8728 141.253C94.5657 141.653 94.9814 142.093 95.1199 142.573C95.2238 143.033 95.1026 143.503 94.7042 143.993C95.6742 143.613 96.6268 143.443 97.5448 143.493C98.4628 143.543 99.3461 143.813 100.178 144.293C101.425 145.013 101.892 145.783 101.632 146.613C101.39 147.313 100.611 148.043 99.2942 148.803L93.6477 152.063L81.2808 144.923ZM84.7276 144.733L88.4169 146.863L91.6731 144.983C92.5392 144.483 93.0068 144.033 93.0934 143.643C93.1627 143.243 92.8683 142.853 92.2101 142.473C91.5865 142.113 90.9457 141.963 90.2875 142.023C89.612 142.073 88.8499 142.353 88.0185 142.833L84.7276 144.733ZM89.9584 147.753L93.9768 150.073L97.4755 148.053C98.2723 147.593 98.7572 147.153 98.9651 146.753C99.1902 146.243 98.9651 145.773 98.2549 145.363C97.5275 144.943 96.7654 144.763 96.0033 144.823C95.2412 144.883 94.4098 145.183 93.5091 145.703L89.9584 147.753ZM100.325 137.588C100.775 137.328 101.243 137.138 101.711 137.048L103.547 138.108C102.958 138.288 102.473 138.508 102.057 138.748C101.503 139.068 101.226 139.488 101.243 139.998C101.26 140.548 101.676 141.048 102.456 141.498L107.201 144.238L105.365 145.298L96.4107 140.128L98.2467 139.068L99.5977 139.848C99.3379 139.438 99.2686 139.058 99.3725 138.718C99.4418 138.278 99.7709 137.908 100.325 137.588ZM106.648 133.937C107.965 133.177 109.264 132.807 110.545 132.827C111.654 132.847 112.762 133.167 113.854 133.797L119.569 137.097L117.872 138.077L116.608 137.347C116.712 137.807 116.642 138.267 116.382 138.717C116.071 139.217 115.534 139.707 114.737 140.167C113.802 140.707 112.832 140.987 111.844 141.017C110.805 141.077 109.922 140.887 109.177 140.457C108.173 139.877 107.791 139.197 108.051 138.427C108.259 137.707 109.039 136.957 110.32 136.177L112.278 134.987L111.914 134.777C110.667 134.057 109.368 134.087 108.017 134.867C107.445 135.197 107.081 135.527 106.943 135.847C106.77 136.227 106.874 136.587 107.272 136.937L105.297 137.897C104.518 137.227 104.275 136.527 104.587 135.827C104.83 135.207 105.54 134.577 106.648 133.937ZM113.611 135.757L111.775 136.877C110.13 137.867 109.887 138.687 110.996 139.327C111.342 139.527 111.758 139.607 112.278 139.567C112.78 139.537 113.282 139.387 113.75 139.117C114.529 138.667 114.945 138.147 115.031 137.557C115.118 136.967 114.824 136.457 114.131 136.057L113.611 135.757ZM110.43 127.894C110.794 127.684 111.209 127.564 111.694 127.564C112.162 127.554 112.578 127.654 112.942 127.864C113.305 128.074 113.461 128.324 113.461 128.604C113.444 128.874 113.253 129.124 112.907 129.324C112.543 129.534 112.127 129.634 111.66 129.644C111.175 129.644 110.742 129.534 110.395 129.334C110.032 129.124 109.858 128.884 109.876 128.614C109.876 128.334 110.066 128.104 110.43 127.894ZM113.097 130.494L114.933 129.434L123.888 134.604L122.052 135.664L113.097 130.494ZM121.714 125.239C123.931 123.959 126.269 124.009 128.729 125.429L134.254 128.619L132.418 129.679L127.049 126.579C125.525 125.699 124.052 125.669 122.667 126.469C122.147 126.769 121.853 127.139 121.853 127.579C121.853 128.059 122.164 128.539 122.823 128.999L128.209 132.109L126.373 133.169L117.419 127.999L119.255 126.939L120.363 127.579C120.259 127.119 120.328 126.699 120.554 126.309C120.761 125.909 121.16 125.559 121.714 125.239Z"
    fill="#005BFF"
  />
  <rect
    x="0.433013"
    width="104.387"
    height="104.387"
    transform="matrix(0.866025 -0.5 0.866025 0.5 3.05801 111.291)"
    stroke="#605D5D"
    stroke-width="0.5"
  />
  <path
    d="M100.263 121.975L92.8875 131.911L86.4339 121.443L6.83901 75.4885L93.1948 25.6309L180.165 75.8433L100.263 121.975Z"
    stroke="#605D5D"
    stroke-width="0.5"
    stroke-dasharray="1 1"
  />
  <mask
    id="path-8-outside-1_40_153"
    maskUnits="userSpaceOnUse"
    x="55.8192"
    y="50.9949"
    width="79.6743"
    height="46"
    fill="black"
  >
    <rect fill="white" x="55.8192" y="50.9949" width="79.6743" height="46" />
    <path
      d="M103.923 92.7221L98.8055 95.6767L73.2971 63.8585L78.3358 60.9494L133.447 75.6767L128.329 78.6312L82.351 65.9949L82.0361 66.1767L103.923 92.7221ZM90.0665 82.5403L110.694 70.6312L115.024 73.1312L94.3967 85.0403L90.0665 82.5403Z"
    />
  </mask>
  <path
    d="M103.923 92.7221L98.8055 95.6767L73.2971 63.8585L78.3358 60.9494L133.447 75.6767L128.329 78.6312L82.351 65.9949L82.0361 66.1767L103.923 92.7221ZM90.0665 82.5403L110.694 70.6312L115.024 73.1312L94.3967 85.0403L90.0665 82.5403Z"
    fill="white"
  />
  <path
    d="M103.923 92.7221L104.356 92.9721L104.662 92.7956L104.476 92.5702L103.923 92.7221ZM98.8055 95.6767L98.2498 95.8252L98.6183 96.2848L99.2385 95.9267L98.8055 95.6767ZM73.2971 63.8585L72.8641 63.6085L72.5619 63.783L72.7414 64.007L73.2971 63.8585ZM78.3358 60.9494L78.5931 60.6286L78.2051 60.5249L77.9028 60.6994L78.3358 60.9494ZM133.447 75.6767L133.88 75.9267L134.5 75.5686L133.704 75.3558L133.447 75.6767ZM128.329 78.6312L128.066 78.9505L128.456 79.0578L128.762 78.8812L128.329 78.6312ZM82.351 65.9949L82.6143 65.6756L82.2238 65.5683L81.918 65.7449L82.351 65.9949ZM82.0361 66.1767L81.6031 65.9267L81.2973 66.1032L81.4832 66.3287L82.0361 66.1767ZM90.0665 82.5403L89.6335 82.2903L89.2005 82.5403L89.6335 82.7903L90.0665 82.5403ZM110.694 70.6312L111.127 70.3812L110.694 70.1312L110.261 70.3812L110.694 70.6312ZM115.024 73.1312L115.457 73.3812L115.89 73.1312L115.457 72.8812L115.024 73.1312ZM94.3967 85.0403L93.9637 85.2903L94.3967 85.5403L94.8297 85.2903L94.3967 85.0403ZM103.923 92.7221L103.49 92.4721L98.3725 95.4267L98.8055 95.6767L99.2385 95.9267L104.356 92.9721L103.923 92.7221ZM98.8055 95.6767L99.3613 95.5282L73.8529 63.71L73.2971 63.8585L72.7414 64.007L98.2498 95.8252L98.8055 95.6767ZM73.2971 63.8585L73.7302 64.1085L78.7689 61.1994L78.3358 60.9494L77.9028 60.6994L72.8641 63.6085L73.2971 63.8585ZM78.3358 60.9494L78.0786 61.2703L133.189 75.9975L133.447 75.6767L133.704 75.3558L78.5931 60.6286L78.3358 60.9494ZM133.447 75.6767L133.014 75.4267L127.896 78.3812L128.329 78.6312L128.762 78.8812L133.88 75.9267L133.447 75.6767ZM128.329 78.6312L128.592 78.312L82.6143 65.6756L82.351 65.9949L82.0878 66.3141L128.066 78.9505L128.329 78.6312ZM82.351 65.9949L81.918 65.7449L81.6031 65.9267L82.0361 66.1767L82.4691 66.4267L82.7841 66.2449L82.351 65.9949ZM82.0361 66.1767L81.4832 66.3287L103.37 92.8741L103.923 92.7221L104.476 92.5702L82.5891 66.0247L82.0361 66.1767ZM90.0665 82.5403L90.4996 82.7903L111.127 70.8812L110.694 70.6312L110.261 70.3812L89.6335 82.2903L90.0665 82.5403ZM110.694 70.6312L110.261 70.8812L114.591 73.3812L115.024 73.1312L115.457 72.8812L111.127 70.3812L110.694 70.6312ZM115.024 73.1312L114.591 72.8812L93.9637 84.7903L94.3967 85.0403L94.8297 85.2903L115.457 73.3812L115.024 73.1312ZM94.3967 85.0403L94.8297 84.7903L90.4996 82.2903L90.0665 82.5403L89.6335 82.7903L93.9637 85.2903L94.3967 85.0403Z"
    fill="#605D5D"
    mask="url(#path-8-outside-1_40_153)"
  />
  <path
    d="M185.062 55.9678V161.29L93.8486 213.952L2.63672 161.29V55.9678L93.8486 3.30566L185.062 55.9678Z"
    stroke="#DBDBDB"
    stroke-width="0.5"
  />
  <path
    d="M5.41699 54.7166V57.5261L2.9834 58.9314L0.549805 57.5261V54.7166L2.9834 53.3113L5.41699 54.7166Z"
    fill="#FAFAFA"
    stroke="#605D5D"
    stroke-width="0.3"
  />
  <path
    d="M186.807 54.7166V57.5261L184.373 58.9314L181.939 57.5261V54.7166L184.373 53.3113L186.807 54.7166Z"
    fill="#FAFAFA"
    stroke="#605D5D"
    stroke-width="0.3"
  />
  <path
    d="M96.1118 106.031V108.84L93.6782 110.246L91.2446 108.84V106.031L93.6782 104.625L96.1118 106.031Z"
    fill="#FAFAFA"
    stroke="#605D5D"
    stroke-width="0.3"
  />
  <path
    d="M96.1118 2.20898V5.01855L93.6782 6.42383L91.2446 5.01855V2.20898L93.6782 0.803711L96.1118 2.20898Z"
    fill="#FAFAFA"
    stroke="#605D5D"
    stroke-width="0.3"
  />
  <path
    d="M5.41699 159.732V162.541L2.9834 163.947L0.549805 162.541V159.732L2.9834 158.326L5.41699 159.732Z"
    fill="#FAFAFA"
    stroke="#605D5D"
    stroke-width="0.3"
  />
  <path
    d="M186.807 159.732V162.541L184.373 163.947L181.939 162.541V159.732L184.373 158.326L186.807 159.732Z"
    fill="#FAFAFA"
    stroke="#605D5D"
    stroke-width="0.3"
  />
  <path
    d="M96.1118 212.239V215.049L93.6782 216.454L91.2446 215.049V212.239L93.6782 210.834L96.1118 212.239Z"
    fill="#FAFAFA"
    stroke="#605D5D"
    stroke-width="0.3"
  />
  <path d="M2.9834 158.75V59.1052" stroke="#605D5D" stroke-width="0.5" />
  <path d="M184.373 158.75V59.1052" stroke="#605D5D" stroke-width="0.5" />
  <defs>
    <filter
      id="filter0_d_40_153"
      x="2.47363"
      y="93.8447"
      width="181.125"
      height="108.572"
      filterUnits="userSpaceOnUse"
      color-interpolation-filters="sRGB"
    >
      <feFlood flood-opacity="0" result="BackgroundImageFix" />
      <feColorMatrix
        in="SourceAlpha"
        type="matrix"
        values="0 0 0 0 0 0 0 0 0 0 0 0 0 0 0 0 0 0 127 0"
        result="hardAlpha"
      />
      <feOffset dy="4" />
      <feComposite in2="hardAlpha" operator="out" />
      <feColorMatrix
        type="matrix"
        values="0 0 0 0 0.730769 0 0 0 0 0.730769 0 0 0 0 0.730769 0 0 0 0.25 0"
      />
      <feBlend
        mode="normal"
        in2="BackgroundImageFix"
        result="effect1_dropShadow_40_153"
      />
      <feBlend
        mode="normal"
        in="SourceGraphic"
        in2="effect1_dropShadow_40_153"
        result="shape"
      />
    </filter>
  </defs>
</svg>
