<svg
  viewBox="-20 -20 728 264"
  fill="none"
  xmlns="http://www.w3.org/2000/svg"
>
  <g filter="url(#filter0_dd_343_625)">
    <g clip-path="url(#clip0_343_625)">
      <rect
        x="12.6631"
        y="95.7986"
        width="683"
        height="126"
        rx="16"
        fill="white"
      />
      <path
        d="M34.3191 132.174V119.394H36.4791L40.5651 130.482L44.6331 119.394H46.7931V132.174H45.2451V122.274L41.5911 132.174H39.5211L35.8671 122.274V132.174H34.3191ZM53.4385 132.39C52.5385 132.39 51.7585 132.186 51.0985 131.778C50.4505 131.37 49.9465 130.794 49.5865 130.05C49.2385 129.294 49.0645 128.412 49.0645 127.404C49.0645 126.396 49.2385 125.52 49.5865 124.776C49.9465 124.032 50.4445 123.456 51.0805 123.048C51.7285 122.628 52.4905 122.418 53.3665 122.418C54.1945 122.418 54.9265 122.616 55.5625 123.012C56.1985 123.396 56.6905 123.96 57.0385 124.704C57.3985 125.448 57.5785 126.354 57.5785 127.422V127.872H50.6485C50.7085 128.892 50.9785 129.66 51.4585 130.176C51.9505 130.692 52.6105 130.95 53.4385 130.95C54.0625 130.95 54.5725 130.806 54.9685 130.518C55.3765 130.218 55.6585 129.828 55.8145 129.348L57.4345 129.474C57.1825 130.326 56.7025 131.028 55.9945 131.58C55.2985 132.12 54.4465 132.39 53.4385 132.39ZM50.6485 126.54H55.9225C55.8505 125.616 55.5805 124.938 55.1125 124.506C54.6565 124.074 54.0745 123.858 53.3665 123.858C52.6345 123.858 52.0285 124.086 51.5485 124.542C51.0805 124.986 50.7805 125.652 50.6485 126.54ZM63.1005 132.39C62.2485 132.39 61.5225 132.252 60.9225 131.976C60.3345 131.7 59.8725 131.322 59.5365 130.842C59.2125 130.35 59.0265 129.792 58.9785 129.168L60.5625 129.06C60.6585 129.636 60.9045 130.098 61.3005 130.446C61.6965 130.782 62.2965 130.95 63.1005 130.95C63.7485 130.95 64.2645 130.848 64.6485 130.644C65.0445 130.428 65.2425 130.086 65.2425 129.618C65.2425 129.366 65.1825 129.156 65.0625 128.988C64.9425 128.82 64.7085 128.676 64.3605 128.556C64.0125 128.424 63.4965 128.298 62.8125 128.178C61.9005 128.01 61.1805 127.806 60.6525 127.566C60.1365 127.314 59.7645 127.008 59.5365 126.648C59.3205 126.276 59.2125 125.838 59.2125 125.334C59.2125 124.482 59.5245 123.786 60.1485 123.246C60.7725 122.694 61.6605 122.418 62.8125 122.418C63.5925 122.418 64.2465 122.562 64.7745 122.85C65.3145 123.126 65.7345 123.498 66.0345 123.966C66.3465 124.422 66.5505 124.926 66.6465 125.478L65.0625 125.586C64.9905 125.25 64.8585 124.956 64.6665 124.704C64.4745 124.44 64.2225 124.236 63.9105 124.092C63.5985 123.936 63.2265 123.858 62.7945 123.858C62.1105 123.858 61.6065 123.99 61.2825 124.254C60.9585 124.518 60.7965 124.854 60.7965 125.262C60.7965 125.574 60.8685 125.832 61.0125 126.036C61.1685 126.228 61.4145 126.39 61.7505 126.522C62.0865 126.642 62.5365 126.75 63.1005 126.846C64.0725 127.014 64.8285 127.218 65.3685 127.458C65.9085 127.698 66.2865 127.992 66.5025 128.34C66.7185 128.688 66.8265 129.114 66.8265 129.618C66.8265 130.206 66.6585 130.71 66.3225 131.13C65.9985 131.538 65.5545 131.85 64.9905 132.066C64.4385 132.282 63.8085 132.39 63.1005 132.39ZM72.3642 132.39C71.5122 132.39 70.7862 132.252 70.1862 131.976C69.5982 131.7 69.1362 131.322 68.8002 130.842C68.4762 130.35 68.2902 129.792 68.2422 129.168L69.8262 129.06C69.9222 129.636 70.1682 130.098 70.5642 130.446C70.9602 130.782 71.5602 130.95 72.3642 130.95C73.0122 130.95 73.5282 130.848 73.9122 130.644C74.3082 130.428 74.5062 130.086 74.5062 129.618C74.5062 129.366 74.4462 129.156 74.3262 128.988C74.2062 128.82 73.9722 128.676 73.6242 128.556C73.2762 128.424 72.7602 128.298 72.0762 128.178C71.1642 128.01 70.4442 127.806 69.9162 127.566C69.4002 127.314 69.0282 127.008 68.8002 126.648C68.5842 126.276 68.4762 125.838 68.4762 125.334C68.4762 124.482 68.7882 123.786 69.4122 123.246C70.0362 122.694 70.9242 122.418 72.0762 122.418C72.8562 122.418 73.5102 122.562 74.0382 122.85C74.5782 123.126 74.9982 123.498 75.2982 123.966C75.6102 124.422 75.8142 124.926 75.9102 125.478L74.3262 125.586C74.2542 125.25 74.1222 124.956 73.9302 124.704C73.7382 124.44 73.4862 124.236 73.1742 124.092C72.8622 123.936 72.4902 123.858 72.0582 123.858C71.3742 123.858 70.8702 123.99 70.5462 124.254C70.2222 124.518 70.0602 124.854 70.0602 125.262C70.0602 125.574 70.1322 125.832 70.2762 126.036C70.4322 126.228 70.6782 126.39 71.0142 126.522C71.3502 126.642 71.8002 126.75 72.3642 126.846C73.3362 127.014 74.0922 127.218 74.6322 127.458C75.1722 127.698 75.5502 127.992 75.7662 128.34C75.9822 128.688 76.0902 129.114 76.0902 129.618C76.0902 130.206 75.9222 130.71 75.5862 131.13C75.2622 131.538 74.8182 131.85 74.2542 132.066C73.7022 132.282 73.0722 132.39 72.3642 132.39ZM80.974 132.39C79.99 132.39 79.204 132.162 78.616 131.706C78.04 131.25 77.752 130.614 77.752 129.798C77.752 128.982 77.992 128.34 78.472 127.872C78.952 127.404 79.714 127.074 80.758 126.882L84.142 126.252C84.142 125.448 83.95 124.848 83.566 124.452C83.194 124.056 82.63 123.858 81.874 123.858C81.214 123.858 80.692 124.008 80.308 124.308C79.924 124.596 79.66 125.016 79.516 125.568L77.914 125.442C78.094 124.542 78.526 123.816 79.21 123.264C79.906 122.7 80.794 122.418 81.874 122.418C83.098 122.418 84.034 122.766 84.682 123.462C85.33 124.146 85.654 125.094 85.654 126.306V130.248C85.654 130.464 85.69 130.62 85.762 130.716C85.846 130.8 85.978 130.842 86.158 130.842H86.536V132.174C86.488 132.186 86.41 132.192 86.302 132.192C86.194 132.204 86.08 132.21 85.96 132.21C85.528 132.21 85.174 132.144 84.898 132.012C84.634 131.868 84.442 131.652 84.322 131.364C84.202 131.064 84.142 130.674 84.142 130.194L84.322 130.23C84.238 130.638 84.034 131.01 83.71 131.346C83.386 131.67 82.984 131.928 82.504 132.12C82.024 132.3 81.514 132.39 80.974 132.39ZM81.118 131.058C81.754 131.058 82.294 130.938 82.738 130.698C83.194 130.446 83.542 130.11 83.782 129.69C84.022 129.258 84.142 128.778 84.142 128.25V127.566L81.046 128.142C80.398 128.262 79.948 128.448 79.696 128.7C79.456 128.94 79.336 129.258 79.336 129.654C79.336 130.098 79.492 130.446 79.804 130.698C80.128 130.938 80.566 131.058 81.118 131.058ZM91.8266 135.09C91.1426 135.09 90.5246 134.976 89.9726 134.748C89.4206 134.52 88.9586 134.196 88.5866 133.776C88.2146 133.356 87.9626 132.87 87.8306 132.318L89.4146 132.21C89.5586 132.654 89.8106 133.002 90.1706 133.254C90.5426 133.518 91.0946 133.65 91.8266 133.65C92.6906 133.65 93.3506 133.476 93.8066 133.128C94.2746 132.78 94.5086 132.258 94.5086 131.562V130.014C94.2806 130.518 93.9146 130.92 93.4106 131.22C92.9066 131.52 92.3426 131.67 91.7186 131.67C90.9146 131.67 90.1946 131.472 89.5586 131.076C88.9346 130.68 88.4426 130.134 88.0826 129.438C87.7346 128.742 87.5606 127.944 87.5606 127.044C87.5606 126.132 87.7346 125.334 88.0826 124.65C88.4306 123.954 88.9106 123.408 89.5226 123.012C90.1466 122.616 90.8546 122.418 91.6466 122.418C92.3186 122.418 92.9186 122.574 93.4466 122.886C93.9866 123.198 94.3646 123.618 94.5806 124.146V122.634H96.0206V131.526C96.0206 132.27 95.8526 132.906 95.5166 133.434C95.1806 133.974 94.7006 134.382 94.0766 134.658C93.4526 134.946 92.7026 135.09 91.8266 135.09ZM91.7906 130.23C92.6066 130.23 93.2606 129.948 93.7526 129.384C94.2446 128.808 94.4966 128.028 94.5086 127.044C94.5206 126.384 94.4126 125.82 94.1846 125.352C93.9686 124.872 93.6506 124.506 93.2306 124.254C92.8226 123.99 92.3426 123.858 91.7906 123.858C90.9506 123.858 90.2966 124.146 89.8286 124.722C89.3726 125.286 89.1446 126.06 89.1446 127.044C89.1446 128.028 89.3786 128.808 89.8466 129.384C90.3266 129.948 90.9746 130.23 91.7906 130.23ZM102.446 132.39C101.546 132.39 100.766 132.186 100.106 131.778C99.4583 131.37 98.9543 130.794 98.5943 130.05C98.2463 129.294 98.0723 128.412 98.0723 127.404C98.0723 126.396 98.2463 125.52 98.5943 124.776C98.9543 124.032 99.4523 123.456 100.088 123.048C100.736 122.628 101.498 122.418 102.374 122.418C103.202 122.418 103.934 122.616 104.57 123.012C105.206 123.396 105.698 123.96 106.046 124.704C106.406 125.448 106.586 126.354 106.586 127.422V127.872H99.6563C99.7163 128.892 99.9863 129.66 100.466 130.176C100.958 130.692 101.618 130.95 102.446 130.95C103.07 130.95 103.58 130.806 103.976 130.518C104.384 130.218 104.666 129.828 104.822 129.348L106.442 129.474C106.19 130.326 105.71 131.028 105.002 131.58C104.306 132.12 103.454 132.39 102.446 132.39ZM99.6563 126.54H104.93C104.858 125.616 104.588 124.938 104.12 124.506C103.664 124.074 103.082 123.858 102.374 123.858C101.642 123.858 101.036 124.086 100.556 124.542C100.088 124.986 99.7883 125.652 99.6563 126.54ZM113.526 132.174V119.394H117.918C119.43 119.394 120.564 119.67 121.32 120.222C122.076 120.774 122.454 121.644 122.454 122.832C122.454 123.384 122.334 123.87 122.094 124.29C121.854 124.71 121.512 125.04 121.068 125.28C120.624 125.508 120.096 125.622 119.484 125.622L119.466 125.514C120.558 125.514 121.416 125.808 122.04 126.396C122.676 126.972 122.994 127.728 122.994 128.664C122.994 129.828 122.616 130.704 121.86 131.292C121.104 131.88 120.03 132.174 118.638 132.174H113.526ZM115.074 130.662H118.638C119.514 130.662 120.186 130.482 120.654 130.122C121.134 129.762 121.374 129.246 121.374 128.574C121.374 127.902 121.134 127.38 120.654 127.008C120.186 126.624 119.514 126.432 118.638 126.432H115.074V130.662ZM115.074 124.92H117.918C118.854 124.92 119.574 124.746 120.078 124.398C120.582 124.038 120.834 123.54 120.834 122.904C120.834 122.232 120.588 121.734 120.096 121.41C119.616 121.074 118.89 120.906 117.918 120.906H115.074V124.92ZM125.369 132.174V122.634H126.701L126.773 125.046L126.629 124.992C126.749 124.176 127.007 123.582 127.403 123.21C127.811 122.826 128.351 122.634 129.023 122.634H129.959V124.074H129.041C128.561 124.074 128.159 124.164 127.835 124.344C127.523 124.512 127.283 124.77 127.115 125.118C126.959 125.454 126.881 125.886 126.881 126.414V132.174H125.369ZM134.042 132.39C133.058 132.39 132.272 132.162 131.684 131.706C131.108 131.25 130.82 130.614 130.82 129.798C130.82 128.982 131.06 128.34 131.54 127.872C132.02 127.404 132.782 127.074 133.826 126.882L137.21 126.252C137.21 125.448 137.018 124.848 136.634 124.452C136.262 124.056 135.698 123.858 134.942 123.858C134.282 123.858 133.76 124.008 133.376 124.308C132.992 124.596 132.728 125.016 132.584 125.568L130.982 125.442C131.162 124.542 131.594 123.816 132.278 123.264C132.974 122.7 133.862 122.418 134.942 122.418C136.166 122.418 137.102 122.766 137.75 123.462C138.398 124.146 138.722 125.094 138.722 126.306V130.248C138.722 130.464 138.758 130.62 138.83 130.716C138.914 130.8 139.046 130.842 139.226 130.842H139.604V132.174C139.556 132.186 139.478 132.192 139.37 132.192C139.262 132.204 139.148 132.21 139.028 132.21C138.596 132.21 138.242 132.144 137.966 132.012C137.702 131.868 137.51 131.652 137.39 131.364C137.27 131.064 137.21 130.674 137.21 130.194L137.39 130.23C137.306 130.638 137.102 131.01 136.778 131.346C136.454 131.67 136.052 131.928 135.572 132.12C135.092 132.3 134.582 132.39 134.042 132.39ZM134.186 131.058C134.822 131.058 135.362 130.938 135.806 130.698C136.262 130.446 136.61 130.11 136.85 129.69C137.09 129.258 137.21 128.778 137.21 128.25V127.566L134.114 128.142C133.466 128.262 133.016 128.448 132.764 128.7C132.524 128.94 132.404 129.258 132.404 129.654C132.404 130.098 132.56 130.446 132.872 130.698C133.196 130.938 133.634 131.058 134.186 131.058ZM141.242 132.174V122.634H142.754V132.174H141.242ZM141.206 121.14V119.376H142.79V121.14H141.206ZM145.812 132.174V122.634H147.198L147.252 125.064L147.072 124.902C147.192 124.338 147.402 123.876 147.702 123.516C148.002 123.144 148.362 122.868 148.782 122.688C149.214 122.508 149.676 122.418 150.168 122.418C150.9 122.418 151.5 122.58 151.968 122.904C152.448 123.228 152.802 123.666 153.03 124.218C153.27 124.758 153.39 125.364 153.39 126.036V132.174H151.878V126.468C151.878 125.88 151.806 125.388 151.662 124.992C151.53 124.584 151.314 124.278 151.014 124.074C150.714 123.858 150.324 123.75 149.844 123.75C149.112 123.75 148.506 123.984 148.026 124.452C147.558 124.908 147.324 125.58 147.324 126.468V132.174H145.812ZM159.691 132.174L164.299 119.394H166.387L170.995 132.174H169.303L168.025 128.538H162.661L161.383 132.174H159.691ZM163.183 127.026H167.503L165.343 120.744L163.183 127.026ZM176.096 135.09C175.412 135.09 174.794 134.976 174.242 134.748C173.69 134.52 173.228 134.196 172.856 133.776C172.484 133.356 172.232 132.87 172.1 132.318L173.684 132.21C173.828 132.654 174.08 133.002 174.44 133.254C174.812 133.518 175.364 133.65 176.096 133.65C176.96 133.65 177.62 133.476 178.076 133.128C178.544 132.78 178.778 132.258 178.778 131.562V130.014C178.55 130.518 178.184 130.92 177.68 131.22C177.176 131.52 176.612 131.67 175.988 131.67C175.184 131.67 174.464 131.472 173.828 131.076C173.204 130.68 172.712 130.134 172.352 129.438C172.004 128.742 171.83 127.944 171.83 127.044C171.83 126.132 172.004 125.334 172.352 124.65C172.7 123.954 173.18 123.408 173.792 123.012C174.416 122.616 175.124 122.418 175.916 122.418C176.588 122.418 177.188 122.574 177.716 122.886C178.256 123.198 178.634 123.618 178.85 124.146V122.634H180.29V131.526C180.29 132.27 180.122 132.906 179.786 133.434C179.45 133.974 178.97 134.382 178.346 134.658C177.722 134.946 176.972 135.09 176.096 135.09ZM176.06 130.23C176.876 130.23 177.53 129.948 178.022 129.384C178.514 128.808 178.766 128.028 178.778 127.044C178.79 126.384 178.682 125.82 178.454 125.352C178.238 124.872 177.92 124.506 177.5 124.254C177.092 123.99 176.612 123.858 176.06 123.858C175.22 123.858 174.566 124.146 174.098 124.722C173.642 125.286 173.414 126.06 173.414 127.044C173.414 128.028 173.648 128.808 174.116 129.384C174.596 129.948 175.244 130.23 176.06 130.23ZM186.716 132.39C185.816 132.39 185.036 132.186 184.376 131.778C183.728 131.37 183.224 130.794 182.864 130.05C182.516 129.294 182.342 128.412 182.342 127.404C182.342 126.396 182.516 125.52 182.864 124.776C183.224 124.032 183.722 123.456 184.358 123.048C185.006 122.628 185.768 122.418 186.644 122.418C187.472 122.418 188.204 122.616 188.84 123.012C189.476 123.396 189.968 123.96 190.316 124.704C190.676 125.448 190.856 126.354 190.856 127.422V127.872H183.926C183.986 128.892 184.256 129.66 184.736 130.176C185.228 130.692 185.888 130.95 186.716 130.95C187.34 130.95 187.85 130.806 188.246 130.518C188.654 130.218 188.936 129.828 189.092 129.348L190.712 129.474C190.46 130.326 189.98 131.028 189.272 131.58C188.576 132.12 187.724 132.39 186.716 132.39ZM183.926 126.54H189.2C189.128 125.616 188.858 124.938 188.39 124.506C187.934 124.074 187.352 123.858 186.644 123.858C185.912 123.858 185.306 124.086 184.826 124.542C184.358 124.986 184.058 125.652 183.926 126.54ZM192.904 132.174V122.634H194.29L194.344 125.064L194.164 124.902C194.284 124.338 194.494 123.876 194.794 123.516C195.094 123.144 195.454 122.868 195.874 122.688C196.306 122.508 196.768 122.418 197.26 122.418C197.992 122.418 198.592 122.58 199.06 122.904C199.54 123.228 199.894 123.666 200.122 124.218C200.362 124.758 200.482 125.364 200.482 126.036V132.174H198.97V126.468C198.97 125.88 198.898 125.388 198.754 124.992C198.622 124.584 198.406 124.278 198.106 124.074C197.806 123.858 197.416 123.75 196.936 123.75C196.204 123.75 195.598 123.984 195.118 124.452C194.65 124.908 194.416 125.58 194.416 126.468V132.174H192.904ZM206.134 132.174C205.27 132.174 204.628 131.976 204.208 131.58C203.8 131.184 203.596 130.566 203.596 129.726V120.402H205.108V129.69C205.108 130.122 205.204 130.422 205.396 130.59C205.588 130.758 205.882 130.842 206.278 130.842H207.646V132.174H206.134ZM202.192 123.966V122.634H207.646V123.966H202.192ZM209.5 132.174V130.14H211.534V132.174H209.5ZM213.121 132.174V130.14H215.155V132.174H213.121Z"
        fill="#71717A"
      />
      <rect
        x="647.663"
        y="176.799"
        width="36"
        height="36"
        rx="10"
        fill="#3370FF"
      />
      <path
        d="M659.83 194.799L665.663 188.965M665.663 188.965L671.497 194.799M665.663 188.965V200.632"
        stroke="white"
        stroke-width="2"
        stroke-linecap="round"
        stroke-linejoin="round"
      />
    </g>
    <rect
      x="13.1631"
      y="96.2986"
      width="682"
      height="125"
      rx="15.5"
      stroke="#E4E4E7"
    />
  </g>
  <rect
    x="332.362"
    y="0.515381"
    width="363"
    height="67"
    rx="16"
    fill="#ECECED"
  />
  <path
    d="M353.983 40.283V27.503H355.531V40.283H353.983ZM365.027 40.283L362.075 30.743H363.731L365.963 38.699L368.231 30.743H369.851L372.119 38.699L374.369 30.743H376.025L373.073 40.283H371.165L369.041 33.029L366.917 40.283H365.027ZM380.036 40.499C379.052 40.499 378.266 40.271 377.678 39.815C377.102 39.359 376.814 38.723 376.814 37.907C376.814 37.091 377.054 36.449 377.534 35.981C378.014 35.513 378.776 35.183 379.82 34.991L383.204 34.361C383.204 33.557 383.012 32.957 382.628 32.561C382.256 32.165 381.692 31.967 380.936 31.967C380.276 31.967 379.754 32.117 379.37 32.417C378.986 32.705 378.722 33.125 378.578 33.677L376.976 33.551C377.156 32.651 377.588 31.925 378.272 31.373C378.968 30.809 379.856 30.527 380.936 30.527C382.16 30.527 383.096 30.875 383.744 31.571C384.392 32.255 384.716 33.203 384.716 34.415V38.357C384.716 38.573 384.752 38.729 384.824 38.825C384.908 38.909 385.04 38.951 385.22 38.951H385.598V40.283C385.55 40.295 385.472 40.301 385.364 40.301C385.256 40.313 385.142 40.319 385.022 40.319C384.59 40.319 384.236 40.253 383.96 40.121C383.696 39.977 383.504 39.761 383.384 39.473C383.264 39.173 383.204 38.783 383.204 38.303L383.384 38.339C383.3 38.747 383.096 39.119 382.772 39.455C382.448 39.779 382.046 40.037 381.566 40.229C381.086 40.409 380.576 40.499 380.036 40.499ZM380.18 39.167C380.816 39.167 381.356 39.047 381.8 38.807C382.256 38.555 382.604 38.219 382.844 37.799C383.084 37.367 383.204 36.887 383.204 36.359V35.675L380.108 36.251C379.46 36.371 379.01 36.557 378.758 36.809C378.518 37.049 378.398 37.367 378.398 37.763C378.398 38.207 378.554 38.555 378.866 38.807C379.19 39.047 379.628 39.167 380.18 39.167ZM387.306 40.283V30.743H388.692L388.746 33.173L388.566 33.011C388.686 32.447 388.896 31.985 389.196 31.625C389.496 31.253 389.856 30.977 390.276 30.797C390.708 30.617 391.17 30.527 391.662 30.527C392.394 30.527 392.994 30.689 393.462 31.013C393.942 31.337 394.296 31.775 394.524 32.327C394.764 32.867 394.884 33.473 394.884 34.145V40.283H393.372V34.577C393.372 33.989 393.3 33.497 393.156 33.101C393.024 32.693 392.808 32.387 392.508 32.183C392.208 31.967 391.818 31.859 391.338 31.859C390.606 31.859 390 32.093 389.52 32.561C389.052 33.017 388.818 33.689 388.818 34.577V40.283H387.306ZM400.536 40.283C399.672 40.283 399.03 40.085 398.61 39.689C398.202 39.293 397.998 38.675 397.998 37.835V28.511H399.51V37.799C399.51 38.231 399.606 38.531 399.798 38.699C399.99 38.867 400.284 38.951 400.68 38.951H402.048V40.283H400.536ZM396.594 32.075V30.743H402.048V32.075H396.594ZM412.085 40.283C411.221 40.283 410.579 40.085 410.159 39.689C409.751 39.293 409.547 38.675 409.547 37.835V28.511H411.059V37.799C411.059 38.231 411.155 38.531 411.347 38.699C411.539 38.867 411.833 38.951 412.229 38.951H413.597V40.283H412.085ZM408.143 32.075V30.743H413.597V32.075H408.143ZM419.087 40.499C418.211 40.499 417.443 40.295 416.783 39.887C416.123 39.479 415.613 38.903 415.253 38.159C414.893 37.403 414.713 36.521 414.713 35.513C414.713 34.493 414.893 33.611 415.253 32.867C415.613 32.123 416.123 31.547 416.783 31.139C417.443 30.731 418.211 30.527 419.087 30.527C419.963 30.527 420.725 30.731 421.373 31.139C422.033 31.547 422.543 32.123 422.903 32.867C423.263 33.611 423.443 34.493 423.443 35.513C423.443 36.521 423.263 37.403 422.903 38.159C422.543 38.903 422.033 39.479 421.373 39.887C420.725 40.295 419.963 40.499 419.087 40.499ZM419.087 39.059C419.963 39.059 420.641 38.747 421.121 38.123C421.613 37.487 421.859 36.617 421.859 35.513C421.859 34.409 421.613 33.545 421.121 32.921C420.641 32.285 419.963 31.967 419.087 31.967C418.211 31.967 417.527 32.285 417.035 32.921C416.543 33.545 416.297 34.409 416.297 35.513C416.297 36.617 416.543 37.487 417.035 38.123C417.527 38.747 418.211 39.059 419.087 39.059ZM433.563 40.499C432.735 40.499 432.015 40.295 431.403 39.887C430.803 39.479 430.341 38.903 430.017 38.159C429.693 37.415 429.531 36.533 429.531 35.513C429.531 34.493 429.693 33.611 430.017 32.867C430.341 32.123 430.803 31.547 431.403 31.139C432.015 30.731 432.735 30.527 433.563 30.527C434.199 30.527 434.781 30.665 435.309 30.941C435.837 31.205 436.233 31.583 436.497 32.075V27.503H438.009V40.283H436.641L436.587 38.843C436.323 39.359 435.921 39.767 435.381 40.067C434.841 40.355 434.235 40.499 433.563 40.499ZM433.869 39.059C434.433 39.059 434.907 38.915 435.291 38.627C435.687 38.339 435.987 37.931 436.191 37.403C436.395 36.863 436.497 36.233 436.497 35.513C436.497 34.769 436.395 34.133 436.191 33.605C435.987 33.077 435.687 32.675 435.291 32.399C434.907 32.111 434.433 31.967 433.869 31.967C433.029 31.967 432.357 32.285 431.853 32.921C431.361 33.545 431.115 34.409 431.115 35.513C431.115 36.605 431.361 37.469 431.853 38.105C432.357 38.741 433.029 39.059 433.869 39.059ZM444.435 40.499C443.535 40.499 442.755 40.295 442.095 39.887C441.447 39.479 440.943 38.903 440.583 38.159C440.235 37.403 440.061 36.521 440.061 35.513C440.061 34.505 440.235 33.629 440.583 32.885C440.943 32.141 441.441 31.565 442.077 31.157C442.725 30.737 443.487 30.527 444.363 30.527C445.191 30.527 445.923 30.725 446.559 31.121C447.195 31.505 447.687 32.069 448.035 32.813C448.395 33.557 448.575 34.463 448.575 35.531V35.981H441.645C441.705 37.001 441.975 37.769 442.455 38.285C442.947 38.801 443.607 39.059 444.435 39.059C445.059 39.059 445.569 38.915 445.965 38.627C446.373 38.327 446.655 37.937 446.811 37.457L448.431 37.583C448.179 38.435 447.699 39.137 446.991 39.689C446.295 40.229 445.443 40.499 444.435 40.499ZM441.645 34.649H446.919C446.847 33.725 446.577 33.047 446.109 32.615C445.653 32.183 445.071 31.967 444.363 31.967C443.631 31.967 443.025 32.195 442.545 32.651C442.077 33.095 441.777 33.761 441.645 34.649ZM450.623 42.983V30.743H452.027L452.063 32.795L451.847 32.687C452.087 31.979 452.483 31.445 453.035 31.085C453.599 30.713 454.247 30.527 454.979 30.527C455.927 30.527 456.701 30.761 457.301 31.229C457.913 31.697 458.363 32.309 458.651 33.065C458.951 33.821 459.101 34.637 459.101 35.513C459.101 36.389 458.951 37.205 458.651 37.961C458.363 38.717 457.913 39.329 457.301 39.797C456.701 40.265 455.927 40.499 454.979 40.499C454.487 40.499 454.025 40.415 453.593 40.247C453.173 40.079 452.813 39.845 452.513 39.545C452.225 39.245 452.027 38.891 451.919 38.483L452.135 38.231V42.983H450.623ZM454.835 39.059C455.663 39.059 456.317 38.747 456.797 38.123C457.277 37.499 457.517 36.629 457.517 35.513C457.517 34.397 457.277 33.527 456.797 32.903C456.317 32.279 455.663 31.967 454.835 31.967C454.283 31.967 453.803 32.099 453.395 32.363C452.999 32.627 452.687 33.023 452.459 33.551C452.243 34.079 452.135 34.733 452.135 35.513C452.135 36.293 452.243 36.947 452.459 37.475C452.675 38.003 452.987 38.399 453.395 38.663C453.803 38.927 454.283 39.059 454.835 39.059ZM463.112 40.283C462.56 40.283 462.11 40.139 461.762 39.851C461.414 39.563 461.24 39.107 461.24 38.483V27.503H462.752V38.357C462.752 38.549 462.8 38.699 462.896 38.807C463.004 38.903 463.154 38.951 463.346 38.951H464.174V40.283H463.112ZM469.659 40.499C468.783 40.499 468.015 40.295 467.355 39.887C466.695 39.479 466.185 38.903 465.825 38.159C465.465 37.403 465.285 36.521 465.285 35.513C465.285 34.493 465.465 33.611 465.825 32.867C466.185 32.123 466.695 31.547 467.355 31.139C468.015 30.731 468.783 30.527 469.659 30.527C470.535 30.527 471.297 30.731 471.945 31.139C472.605 31.547 473.115 32.123 473.475 32.867C473.835 33.611 474.015 34.493 474.015 35.513C474.015 36.521 473.835 37.403 473.475 38.159C473.115 38.903 472.605 39.479 471.945 39.887C471.297 40.295 470.535 40.499 469.659 40.499ZM469.659 39.059C470.535 39.059 471.213 38.747 471.693 38.123C472.185 37.487 472.431 36.617 472.431 35.513C472.431 34.409 472.185 33.545 471.693 32.921C471.213 32.285 470.535 31.967 469.659 31.967C468.783 31.967 468.099 32.285 467.607 32.921C467.115 33.545 466.869 34.409 466.869 35.513C466.869 36.617 467.115 37.487 467.607 38.123C468.099 38.747 468.783 39.059 469.659 39.059ZM476.208 42.983V41.651H477.306C477.642 41.651 477.888 41.597 478.044 41.489C478.212 41.393 478.338 41.231 478.422 41.003L478.764 40.103H478.242L474.75 30.743H476.406L479.25 38.699L481.968 30.743H483.624L479.754 41.489C479.574 42.005 479.304 42.383 478.944 42.623C478.584 42.863 478.086 42.983 477.45 42.983H476.208ZM489.962 40.283V30.743H491.348L491.402 33.155L491.186 33.083C491.294 32.555 491.48 32.105 491.744 31.733C492.02 31.349 492.356 31.055 492.752 30.851C493.148 30.635 493.586 30.527 494.066 30.527C494.894 30.527 495.566 30.755 496.082 31.211C496.61 31.667 496.94 32.303 497.072 33.119L496.784 33.101C496.88 32.549 497.054 32.087 497.306 31.715C497.57 31.331 497.906 31.037 498.314 30.833C498.722 30.629 499.19 30.527 499.718 30.527C500.402 30.527 500.978 30.671 501.446 30.959C501.914 31.235 502.268 31.643 502.508 32.183C502.748 32.723 502.868 33.377 502.868 34.145V40.283H501.356V34.469C501.356 33.605 501.188 32.957 500.852 32.525C500.516 32.081 500.018 31.859 499.358 31.859C498.914 31.859 498.524 31.967 498.188 32.183C497.864 32.399 497.612 32.711 497.432 33.119C497.252 33.515 497.162 34.001 497.162 34.577V40.283H495.65V34.577C495.65 33.725 495.5 33.059 495.2 32.579C494.9 32.099 494.396 31.859 493.688 31.859C493.244 31.859 492.854 31.967 492.518 32.183C492.194 32.399 491.936 32.711 491.744 33.119C491.564 33.527 491.474 34.013 491.474 34.577V40.283H489.962ZM505.546 42.983V41.651H506.644C506.98 41.651 507.226 41.597 507.382 41.489C507.55 41.393 507.676 41.231 507.76 41.003L508.102 40.103H507.58L504.088 30.743H505.744L508.588 38.699L511.306 30.743H512.962L509.092 41.489C508.912 42.005 508.642 42.383 508.282 42.623C507.922 42.863 507.424 42.983 506.788 42.983H505.546ZM519.3 40.283V30.743H520.812V40.283H519.3ZM519.264 29.249V27.485H520.848V29.249H519.264ZM523.871 40.283V30.743H525.257L525.311 33.155L525.095 33.083C525.203 32.555 525.389 32.105 525.653 31.733C525.929 31.349 526.265 31.055 526.661 30.851C527.057 30.635 527.495 30.527 527.975 30.527C528.803 30.527 529.475 30.755 529.991 31.211C530.519 31.667 530.849 32.303 530.981 33.119L530.693 33.101C530.789 32.549 530.963 32.087 531.215 31.715C531.479 31.331 531.815 31.037 532.223 30.833C532.631 30.629 533.099 30.527 533.627 30.527C534.311 30.527 534.887 30.671 535.355 30.959C535.823 31.235 536.177 31.643 536.417 32.183C536.657 32.723 536.777 33.377 536.777 34.145V40.283H535.265V34.469C535.265 33.605 535.097 32.957 534.761 32.525C534.425 32.081 533.927 31.859 533.267 31.859C532.823 31.859 532.433 31.967 532.097 32.183C531.773 32.399 531.521 32.711 531.341 33.119C531.161 33.515 531.071 34.001 531.071 34.577V40.283H529.559V34.577C529.559 33.725 529.409 33.059 529.109 32.579C528.809 32.099 528.305 31.859 527.597 31.859C527.153 31.859 526.763 31.967 526.427 32.183C526.103 32.399 525.845 32.711 525.653 33.119C525.473 33.527 525.383 34.013 525.383 34.577V40.283H523.871ZM542.054 40.499C541.07 40.499 540.284 40.271 539.696 39.815C539.12 39.359 538.832 38.723 538.832 37.907C538.832 37.091 539.072 36.449 539.552 35.981C540.032 35.513 540.794 35.183 541.838 34.991L545.222 34.361C545.222 33.557 545.03 32.957 544.646 32.561C544.274 32.165 543.71 31.967 542.954 31.967C542.294 31.967 541.772 32.117 541.388 32.417C541.004 32.705 540.74 33.125 540.596 33.677L538.994 33.551C539.174 32.651 539.606 31.925 540.29 31.373C540.986 30.809 541.874 30.527 542.954 30.527C544.178 30.527 545.114 30.875 545.762 31.571C546.41 32.255 546.734 33.203 546.734 34.415V38.357C546.734 38.573 546.77 38.729 546.842 38.825C546.926 38.909 547.058 38.951 547.238 38.951H547.616V40.283C547.568 40.295 547.49 40.301 547.382 40.301C547.274 40.313 547.16 40.319 547.04 40.319C546.608 40.319 546.254 40.253 545.978 40.121C545.714 39.977 545.522 39.761 545.402 39.473C545.282 39.173 545.222 38.783 545.222 38.303L545.402 38.339C545.318 38.747 545.114 39.119 544.79 39.455C544.466 39.779 544.064 40.037 543.584 40.229C543.104 40.409 542.594 40.499 542.054 40.499ZM542.198 39.167C542.834 39.167 543.374 39.047 543.818 38.807C544.274 38.555 544.622 38.219 544.862 37.799C545.102 37.367 545.222 36.887 545.222 36.359V35.675L542.126 36.251C541.478 36.371 541.028 36.557 540.776 36.809C540.536 37.049 540.416 37.367 540.416 37.763C540.416 38.207 540.572 38.555 540.884 38.807C541.208 39.047 541.646 39.167 542.198 39.167ZM552.907 43.199C552.223 43.199 551.605 43.085 551.053 42.857C550.501 42.629 550.039 42.305 549.667 41.885C549.295 41.465 549.043 40.979 548.911 40.427L550.495 40.319C550.639 40.763 550.891 41.111 551.251 41.363C551.623 41.627 552.175 41.759 552.907 41.759C553.771 41.759 554.431 41.585 554.887 41.237C555.355 40.889 555.589 40.367 555.589 39.671V38.123C555.361 38.627 554.995 39.029 554.491 39.329C553.987 39.629 553.423 39.779 552.799 39.779C551.995 39.779 551.275 39.581 550.639 39.185C550.015 38.789 549.523 38.243 549.163 37.547C548.815 36.851 548.641 36.053 548.641 35.153C548.641 34.241 548.815 33.443 549.163 32.759C549.511 32.063 549.991 31.517 550.603 31.121C551.227 30.725 551.935 30.527 552.727 30.527C553.399 30.527 553.999 30.683 554.527 30.995C555.067 31.307 555.445 31.727 555.661 32.255V30.743H557.101V39.635C557.101 40.379 556.933 41.015 556.597 41.543C556.261 42.083 555.781 42.491 555.157 42.767C554.533 43.055 553.783 43.199 552.907 43.199ZM552.871 38.339C553.687 38.339 554.341 38.057 554.833 37.493C555.325 36.917 555.577 36.137 555.589 35.153C555.601 34.493 555.493 33.929 555.265 33.461C555.049 32.981 554.731 32.615 554.311 32.363C553.903 32.099 553.423 31.967 552.871 31.967C552.031 31.967 551.377 32.255 550.909 32.831C550.453 33.395 550.225 34.169 550.225 35.153C550.225 36.137 550.459 36.917 550.927 37.493C551.407 38.057 552.055 38.339 552.871 38.339ZM563.526 40.499C562.626 40.499 561.846 40.295 561.186 39.887C560.538 39.479 560.034 38.903 559.674 38.159C559.326 37.403 559.152 36.521 559.152 35.513C559.152 34.505 559.326 33.629 559.674 32.885C560.034 32.141 560.532 31.565 561.168 31.157C561.816 30.737 562.578 30.527 563.454 30.527C564.282 30.527 565.014 30.725 565.65 31.121C566.286 31.505 566.778 32.069 567.126 32.813C567.486 33.557 567.666 34.463 567.666 35.531V35.981H560.736C560.796 37.001 561.066 37.769 561.546 38.285C562.038 38.801 562.698 39.059 563.526 39.059C564.15 39.059 564.66 38.915 565.056 38.627C565.464 38.327 565.746 37.937 565.902 37.457L567.522 37.583C567.27 38.435 566.79 39.137 566.082 39.689C565.386 40.229 564.534 40.499 563.526 40.499ZM560.736 34.649H566.01C565.938 33.725 565.668 33.047 565.2 32.615C564.744 32.183 564.162 31.967 563.454 31.967C562.722 31.967 562.116 32.195 561.636 32.651C561.168 33.095 560.868 33.761 560.736 34.649ZM577.45 30.491C577.09 30.491 576.772 30.371 576.496 30.131C576.22 29.879 576.082 29.549 576.082 29.141C576.082 28.733 576.22 28.409 576.496 28.169C576.772 27.917 577.09 27.791 577.45 27.791C577.81 27.791 578.128 27.917 578.404 28.169C578.68 28.409 578.818 28.733 578.818 29.141C578.818 29.549 578.68 29.879 578.404 30.131C578.128 30.371 577.81 30.491 577.45 30.491ZM577.45 39.311C577.09 39.311 576.772 39.191 576.496 38.951C576.22 38.699 576.082 38.369 576.082 37.961C576.082 37.541 576.22 37.211 576.496 36.971C576.772 36.719 577.09 36.593 577.45 36.593C577.81 36.593 578.128 36.719 578.404 36.971C578.68 37.211 578.818 37.541 578.818 37.961C578.818 38.369 578.68 38.699 578.404 38.951C578.128 39.191 577.81 39.311 577.45 39.311ZM587.89 40.283V30.743H589.276L589.33 33.173L589.15 33.011C589.27 32.447 589.48 31.985 589.78 31.625C590.08 31.253 590.44 30.977 590.86 30.797C591.292 30.617 591.754 30.527 592.246 30.527C592.978 30.527 593.578 30.689 594.046 31.013C594.526 31.337 594.88 31.775 595.108 32.327C595.348 32.867 595.468 33.473 595.468 34.145V40.283H593.956V34.577C593.956 33.989 593.884 33.497 593.74 33.101C593.608 32.693 593.392 32.387 593.092 32.183C592.792 31.967 592.402 31.859 591.922 31.859C591.19 31.859 590.584 32.093 590.104 32.561C589.636 33.017 589.402 33.689 589.402 34.577V40.283H587.89ZM601.756 43.199C601.072 43.199 600.454 43.085 599.902 42.857C599.35 42.629 598.888 42.305 598.516 41.885C598.144 41.465 597.892 40.979 597.76 40.427L599.344 40.319C599.488 40.763 599.74 41.111 600.1 41.363C600.472 41.627 601.024 41.759 601.756 41.759C602.62 41.759 603.28 41.585 603.736 41.237C604.204 40.889 604.438 40.367 604.438 39.671V38.123C604.21 38.627 603.844 39.029 603.34 39.329C602.836 39.629 602.272 39.779 601.648 39.779C600.844 39.779 600.124 39.581 599.488 39.185C598.864 38.789 598.372 38.243 598.012 37.547C597.664 36.851 597.49 36.053 597.49 35.153C597.49 34.241 597.664 33.443 598.012 32.759C598.36 32.063 598.84 31.517 599.452 31.121C600.076 30.725 600.784 30.527 601.576 30.527C602.248 30.527 602.848 30.683 603.376 30.995C603.916 31.307 604.294 31.727 604.51 32.255V30.743H605.95V39.635C605.95 40.379 605.782 41.015 605.446 41.543C605.11 42.083 604.63 42.491 604.006 42.767C603.382 43.055 602.632 43.199 601.756 43.199ZM601.72 38.339C602.536 38.339 603.19 38.057 603.682 37.493C604.174 36.917 604.426 36.137 604.438 35.153C604.45 34.493 604.342 33.929 604.114 33.461C603.898 32.981 603.58 32.615 603.16 32.363C602.752 32.099 602.272 31.967 601.72 31.967C600.88 31.967 600.226 32.255 599.758 32.831C599.302 33.395 599.074 34.169 599.074 35.153C599.074 36.137 599.308 36.917 599.776 37.493C600.256 38.057 600.904 38.339 601.72 38.339ZM608.562 40.283V30.743H610.074V40.283H608.562ZM608.526 29.249V27.485H610.11V29.249H608.526ZM613.132 40.283V30.743H614.518L614.572 33.173L614.392 33.011C614.512 32.447 614.722 31.985 615.022 31.625C615.322 31.253 615.682 30.977 616.102 30.797C616.534 30.617 616.996 30.527 617.488 30.527C618.22 30.527 618.82 30.689 619.288 31.013C619.768 31.337 620.122 31.775 620.35 32.327C620.59 32.867 620.71 33.473 620.71 34.145V40.283H619.198V34.577C619.198 33.989 619.126 33.497 618.982 33.101C618.85 32.693 618.634 32.387 618.334 32.183C618.034 31.967 617.644 31.859 617.164 31.859C616.432 31.859 615.826 32.093 615.346 32.561C614.878 33.017 614.644 33.689 614.644 34.577V40.283H613.132ZM622.101 40.283L625.611 35.387L622.281 30.743H624.045L626.547 34.343L628.977 30.743H630.777L627.483 35.423L630.939 40.283H629.175L626.547 36.431L623.901 40.283H622.101ZM632.504 42.263L637.814 26.783H639.254L633.944 42.263H632.504ZM641.912 40.283V29.879C641.912 29.171 642.116 28.601 642.524 28.169C642.932 27.725 643.568 27.503 644.432 27.503H645.944V28.835H644.54C644.168 28.835 643.886 28.937 643.694 29.141C643.514 29.345 643.424 29.627 643.424 29.987V40.283H641.912ZM640.616 32.075V30.743H645.818V32.075H640.616ZM651.013 40.499C650.113 40.499 649.333 40.295 648.673 39.887C648.025 39.479 647.521 38.903 647.161 38.159C646.813 37.403 646.639 36.521 646.639 35.513C646.639 34.505 646.813 33.629 647.161 32.885C647.521 32.141 648.019 31.565 648.655 31.157C649.303 30.737 650.065 30.527 650.941 30.527C651.769 30.527 652.501 30.725 653.137 31.121C653.773 31.505 654.265 32.069 654.613 32.813C654.973 33.557 655.153 34.463 655.153 35.531V35.981H648.223C648.283 37.001 648.553 37.769 649.033 38.285C649.525 38.801 650.185 39.059 651.013 39.059C651.637 39.059 652.147 38.915 652.543 38.627C652.951 38.327 653.233 37.937 653.389 37.457L655.009 37.583C654.757 38.435 654.277 39.137 653.569 39.689C652.873 40.229 652.021 40.499 651.013 40.499ZM648.223 34.649H653.497C653.425 33.725 653.155 33.047 652.687 32.615C652.231 32.183 651.649 31.967 650.941 31.967C650.209 31.967 649.603 32.195 649.123 32.651C648.655 33.095 648.355 33.761 648.223 34.649ZM659.161 40.283C658.609 40.283 658.159 40.139 657.811 39.851C657.463 39.563 657.289 39.107 657.289 38.483V27.503H658.801V38.357C658.801 38.549 658.849 38.699 658.945 38.807C659.053 38.903 659.203 38.951 659.395 38.951H660.223V40.283H659.161ZM661.947 40.283V30.743H663.459V40.283H661.947ZM661.911 29.249V27.485H663.495V29.249H661.911ZM664.851 40.283L668.361 35.387L665.031 30.743H666.795L669.297 34.343L671.727 30.743H673.527L670.233 35.423L673.689 40.283H671.925L669.297 36.431L666.651 40.283H664.851Z"
    fill="#18181B"
  />
  <defs>
    <filter
      id="filter0_dd_343_625"
      x="0.663086"
      y="93.7986"
      width="707"
      height="150"
      filterUnits="userSpaceOnUse"
      color-interpolation-filters="sRGB"
    >
      <feFlood flood-opacity="0" result="BackgroundImageFix" />
      <feColorMatrix
        in="SourceAlpha"
        type="matrix"
        values="0 0 0 0 0 0 0 0 0 0 0 0 0 0 0 0 0 0 127 0"
        result="hardAlpha"
      />
      <feMorphology
        radius="2"
        operator="erode"
        in="SourceAlpha"
        result="effect1_dropShadow_343_625"
      />
      <feOffset dy="4" />
      <feGaussianBlur stdDeviation="3" />
      <feComposite in2="hardAlpha" operator="out" />
      <feColorMatrix
        type="matrix"
        values="0 0 0 0 0 0 0 0 0 0 0 0 0 0 0 0 0 0 0.02 0"
      />
      <feBlend
        mode="normal"
        in2="BackgroundImageFix"
        result="effect1_dropShadow_343_625"
      />
      <feColorMatrix
        in="SourceAlpha"
        type="matrix"
        values="0 0 0 0 0 0 0 0 0 0 0 0 0 0 0 0 0 0 127 0"
        result="hardAlpha"
      />
      <feMorphology
        radius="3"
        operator="erode"
        in="SourceAlpha"
        result="effect2_dropShadow_343_625"
      />
      <feOffset dy="10" />
      <feGaussianBlur stdDeviation="7.5" />
      <feComposite in2="hardAlpha" operator="out" />
      <feColorMatrix
        type="matrix"
        values="0 0 0 0 0 0 0 0 0 0 0 0 0 0 0 0 0 0 0.05 0"
      />
      <feBlend
        mode="normal"
        in2="effect1_dropShadow_343_625"
        result="effect2_dropShadow_343_625"
      />
      <feBlend
        mode="normal"
        in="SourceGraphic"
        in2="effect2_dropShadow_343_625"
        result="shape"
      />
    </filter>
    <clipPath id="clip0_343_625">
      <rect
        x="12.6631"
        y="95.7986"
        width="683"
        height="126"
        rx="16"
        fill="white"
      />
    </clipPath>
  </defs>
</svg>
