<svg
  viewBox="0 0 788 310"
  fill="none"
  xmlns="http://www.w3.org/2000/svg"
>
  <rect width="788" height="310" fill="#FAFAFA" />
  <rect
    y="269.402"
    width="788"
    height="40.5977"
    fill="url(#paint0_linear_416_279)"
  />
  <rect
    x="48.5"
    y="52.5"
    width="210"
    height="37"
    rx="7.5"
    fill="white"
    stroke="#D4D4D8"
  />
  <line
    x1="153.5"
    y1="90"
    x2="153.5"
    y2="143"
    stroke="#D4D4D8"
    stroke-dasharray="2 2"
  />
  <line
    x1="395.5"
    y1="90"
    x2="395.5"
    y2="143"
    stroke="#D4D4D8"
    stroke-dasharray="2 2"
  />
  <line
    x1="636.5"
    y1="90"
    x2="636.5"
    y2="143"
    stroke="#D4D4D8"
    stroke-dasharray="2 2"
  />
  <line
    x1="259"
    y1="203.5"
    x2="289"
    y2="203.5"
    stroke="#D4D4D8"
    stroke-dasharray="2 2"
  />
  <line
    x1="500"
    y1="203.5"
    x2="530"
    y2="203.5"
    stroke="#D4D4D8"
    stroke-dasharray="2 2"
  />
  <rect
    x="48.5"
    y="52.5"
    width="210"
    height="37"
    rx="7.5"
    fill="white"
    stroke="#D4D4D8"
  />
  <g clip-path="url(#clip0_416_279)">
    <path
      d="M77.6668 71.0002C77.6668 74.6821 74.6821 77.6668 71.0002 77.6668M77.6668 71.0002C77.6668 67.3183 74.6821 64.3335 71.0002 64.3335M77.6668 71.0002H64.3335M71.0002 77.6668C67.3183 77.6668 64.3335 74.6821 64.3335 71.0002M71.0002 77.6668C69.2883 75.8694 68.3335 73.4823 68.3335 71.0002C68.3335 68.518 69.2883 66.1309 71.0002 64.3335M71.0002 77.6668C72.712 75.8694 73.6668 73.4823 73.6668 71.0002C73.6668 68.518 72.712 66.1309 71.0002 64.3335M64.3335 71.0002C64.3335 67.3183 67.3183 64.3335 71.0002 64.3335"
      stroke="#3370FF"
      stroke-linecap="round"
      stroke-linejoin="round"
    />
  </g>
  <path
    d="M83.88 74.5V66.69H84.804V69.957L84.694 69.935C84.7673 69.6123 84.892 69.3483 85.068 69.143C85.244 68.9377 85.4603 68.7873 85.717 68.692C85.9737 68.5893 86.256 68.538 86.564 68.538C86.982 68.538 87.334 68.6333 87.62 68.824C87.9133 69.0073 88.1333 69.2677 88.28 69.605C88.434 69.935 88.511 70.3163 88.511 70.749V74.5H87.587V71.013C87.587 70.4483 87.4843 70.0303 87.279 69.759C87.081 69.4877 86.7767 69.352 86.366 69.352C85.8967 69.352 85.519 69.495 85.233 69.781C84.947 70.067 84.804 70.4813 84.804 71.024V74.5H83.88ZM91.9652 74.5C91.4372 74.5 91.0448 74.379 90.7882 74.137C90.5388 73.895 90.4142 73.5173 90.4142 73.004V67.306H91.3382V72.982C91.3382 73.246 91.3968 73.4293 91.5142 73.532C91.6315 73.6347 91.8112 73.686 92.0532 73.686H92.8892V74.5H91.9652ZM89.5562 69.484V68.67H92.8892V69.484H89.5562ZM95.2762 74.5C94.7482 74.5 94.3558 74.379 94.0992 74.137C93.8498 73.895 93.7252 73.5173 93.7252 73.004V67.306H94.6492V72.982C94.6492 73.246 94.7078 73.4293 94.8252 73.532C94.9425 73.6347 95.1222 73.686 95.3642 73.686H96.2002V74.5H95.2762ZM92.8672 69.484V68.67H96.2002V69.484H92.8672ZM97.5118 76.15V68.67H98.3698L98.3918 69.924L98.2598 69.858C98.4065 69.4253 98.6485 69.099 98.9858 68.879C99.3305 68.6517 99.7265 68.538 100.174 68.538C100.753 68.538 101.226 68.681 101.593 68.967C101.967 69.253 102.242 69.627 102.418 70.089C102.601 70.551 102.693 71.0497 102.693 71.585C102.693 72.1203 102.601 72.619 102.418 73.081C102.242 73.543 101.967 73.917 101.593 74.203C101.226 74.489 100.753 74.632 100.174 74.632C99.8732 74.632 99.5908 74.5807 99.3268 74.478C99.0702 74.3753 98.8502 74.2323 98.6668 74.049C98.4908 73.8657 98.3698 73.6493 98.3038 73.4L98.4358 73.246V76.15H97.5118ZM100.086 73.752C100.592 73.752 100.992 73.5613 101.285 73.18C101.578 72.7987 101.725 72.267 101.725 71.585C101.725 70.903 101.578 70.3713 101.285 69.99C100.992 69.6087 100.592 69.418 100.086 69.418C99.7485 69.418 99.4552 69.4987 99.2058 69.66C98.9638 69.8213 98.7732 70.0633 98.6338 70.386C98.5018 70.7087 98.4358 71.1083 98.4358 71.585C98.4358 72.0617 98.5018 72.4613 98.6338 72.784C98.7658 73.1067 98.9565 73.3487 99.2058 73.51C99.4552 73.6713 99.7485 73.752 100.086 73.752ZM106.069 74.632C105.549 74.632 105.105 74.5477 104.738 74.379C104.379 74.2103 104.097 73.9793 103.891 73.686C103.693 73.3853 103.58 73.0443 103.55 72.663L104.518 72.597C104.577 72.949 104.727 73.2313 104.969 73.444C105.211 73.6493 105.578 73.752 106.069 73.752C106.465 73.752 106.781 73.6897 107.015 73.565C107.257 73.433 107.378 73.224 107.378 72.938C107.378 72.784 107.342 72.6557 107.268 72.553C107.195 72.4503 107.052 72.3623 106.839 72.289C106.627 72.2083 106.311 72.1313 105.893 72.058C105.336 71.9553 104.896 71.8307 104.573 71.684C104.258 71.53 104.031 71.343 103.891 71.123C103.759 70.8957 103.693 70.628 103.693 70.32C103.693 69.7993 103.884 69.374 104.265 69.044C104.647 68.7067 105.189 68.538 105.893 68.538C106.37 68.538 106.77 68.626 107.092 68.802C107.422 68.9707 107.679 69.198 107.862 69.484C108.053 69.7627 108.178 70.0707 108.236 70.408L107.268 70.474C107.224 70.2687 107.144 70.089 107.026 69.935C106.909 69.7737 106.755 69.649 106.564 69.561C106.374 69.4657 106.146 69.418 105.882 69.418C105.464 69.418 105.156 69.4987 104.958 69.66C104.76 69.8213 104.661 70.0267 104.661 70.276C104.661 70.4667 104.705 70.6243 104.793 70.749C104.889 70.8663 105.039 70.9653 105.244 71.046C105.45 71.1193 105.725 71.1853 106.069 71.244C106.663 71.3467 107.125 71.4713 107.455 71.618C107.785 71.7647 108.016 71.9443 108.148 72.157C108.28 72.3697 108.346 72.63 108.346 72.938C108.346 73.2973 108.244 73.6053 108.038 73.862C107.84 74.1113 107.569 74.302 107.224 74.434C106.887 74.566 106.502 74.632 106.069 74.632ZM109.847 74.5V73.257H111.09V74.5H109.847ZM109.847 70.177V68.934H111.09V70.177H109.847ZM112.326 75.71L115.571 66.25H116.451L113.206 75.71H112.326ZM116.44 75.71L119.685 66.25H120.565L117.32 75.71H116.44ZM123.859 74.5C123.331 74.5 122.938 74.379 122.682 74.137C122.432 73.895 122.308 73.5173 122.308 73.004V67.306H123.232V72.982C123.232 73.246 123.29 73.4293 123.408 73.532C123.525 73.6347 123.705 73.686 123.947 73.686H124.783V74.5H123.859ZM121.45 69.484V68.67H124.783V69.484H121.45ZM128.137 74.632C127.587 74.632 127.111 74.5073 126.707 74.258C126.311 74.0087 126.003 73.6567 125.783 73.202C125.571 72.74 125.464 72.201 125.464 71.585C125.464 70.969 125.571 70.4337 125.783 69.979C126.003 69.5243 126.308 69.1723 126.696 68.923C127.092 68.6663 127.558 68.538 128.093 68.538C128.599 68.538 129.047 68.659 129.435 68.901C129.824 69.1357 130.125 69.4803 130.337 69.935C130.557 70.3897 130.667 70.9433 130.667 71.596V71.871H126.432C126.469 72.4943 126.634 72.9637 126.927 73.279C127.228 73.5943 127.631 73.752 128.137 73.752C128.519 73.752 128.83 73.664 129.072 73.488C129.322 73.3047 129.494 73.0663 129.589 72.773L130.579 72.85C130.425 73.3707 130.132 73.7997 129.699 74.137C129.274 74.467 128.753 74.632 128.137 74.632ZM126.432 71.057H129.655C129.611 70.4923 129.446 70.078 129.16 69.814C128.882 69.55 128.526 69.418 128.093 69.418C127.646 69.418 127.276 69.5573 126.982 69.836C126.696 70.1073 126.513 70.5143 126.432 71.057ZM134.042 74.632C133.521 74.632 133.078 74.5477 132.711 74.379C132.352 74.2103 132.069 73.9793 131.864 73.686C131.666 73.3853 131.552 73.0443 131.523 72.663L132.491 72.597C132.55 72.949 132.7 73.2313 132.942 73.444C133.184 73.6493 133.551 73.752 134.042 73.752C134.438 73.752 134.753 73.6897 134.988 73.565C135.23 73.433 135.351 73.224 135.351 72.938C135.351 72.784 135.314 72.6557 135.241 72.553C135.168 72.4503 135.025 72.3623 134.812 72.289C134.599 72.2083 134.284 72.1313 133.866 72.058C133.309 71.9553 132.869 71.8307 132.546 71.684C132.231 71.53 132.003 71.343 131.864 71.123C131.732 70.8957 131.666 70.628 131.666 70.32C131.666 69.7993 131.857 69.374 132.238 69.044C132.619 68.7067 133.162 68.538 133.866 68.538C134.343 68.538 134.742 68.626 135.065 68.802C135.395 68.9707 135.652 69.198 135.835 69.484C136.026 69.7627 136.15 70.0707 136.209 70.408L135.241 70.474C135.197 70.2687 135.116 70.089 134.999 69.935C134.882 69.7737 134.728 69.649 134.537 69.561C134.346 69.4657 134.119 69.418 133.855 69.418C133.437 69.418 133.129 69.4987 132.931 69.66C132.733 69.8213 132.634 70.0267 132.634 70.276C132.634 70.4667 132.678 70.6243 132.766 70.749C132.861 70.8663 133.012 70.9653 133.217 71.046C133.422 71.1193 133.697 71.1853 134.042 71.244C134.636 71.3467 135.098 71.4713 135.428 71.618C135.758 71.7647 135.989 71.9443 136.121 72.157C136.253 72.3697 136.319 72.63 136.319 72.938C136.319 73.2973 136.216 73.6053 136.011 73.862C135.813 74.1113 135.542 74.302 135.197 74.434C134.86 74.566 134.475 74.632 134.042 74.632ZM139.489 74.5C138.961 74.5 138.568 74.379 138.312 74.137C138.062 73.895 137.938 73.5173 137.938 73.004V67.306H138.862V72.982C138.862 73.246 138.92 73.4293 139.038 73.532C139.155 73.6347 139.335 73.686 139.577 73.686H140.413V74.5H139.489ZM137.08 69.484V68.67H140.413V69.484H137.08ZM140.933 71.728V70.859H144.574V71.728H140.933ZM148.072 74.5C147.544 74.5 147.151 74.379 146.895 74.137C146.645 73.895 146.521 73.5173 146.521 73.004V67.306H147.445V72.982C147.445 73.246 147.503 73.4293 147.621 73.532C147.738 73.6347 147.918 73.686 148.16 73.686H148.996V74.5H148.072ZM145.663 69.484V68.67H148.996V69.484H145.663ZM152.35 74.632C151.8 74.632 151.324 74.5073 150.92 74.258C150.524 74.0087 150.216 73.6567 149.996 73.202C149.784 72.74 149.677 72.201 149.677 71.585C149.677 70.969 149.784 70.4337 149.996 69.979C150.216 69.5243 150.521 69.1723 150.909 68.923C151.305 68.6663 151.771 68.538 152.306 68.538C152.812 68.538 153.26 68.659 153.648 68.901C154.037 69.1357 154.338 69.4803 154.55 69.935C154.77 70.3897 154.88 70.9433 154.88 71.596V71.871H150.645C150.682 72.4943 150.847 72.9637 151.14 73.279C151.441 73.5943 151.844 73.752 152.35 73.752C152.732 73.752 153.043 73.664 153.285 73.488C153.535 73.3047 153.707 73.0663 153.802 72.773L154.792 72.85C154.638 73.3707 154.345 73.7997 153.912 74.137C153.487 74.467 152.966 74.632 152.35 74.632ZM150.645 71.057H153.868C153.824 70.4923 153.659 70.078 153.373 69.814C153.095 69.55 152.739 69.418 152.306 69.418C151.859 69.418 151.489 69.5573 151.195 69.836C150.909 70.1073 150.726 70.5143 150.645 71.057ZM158.255 74.632C157.734 74.632 157.291 74.5477 156.924 74.379C156.565 74.2103 156.282 73.9793 156.077 73.686C155.879 73.3853 155.765 73.0443 155.736 72.663L156.704 72.597C156.763 72.949 156.913 73.2313 157.155 73.444C157.397 73.6493 157.764 73.752 158.255 73.752C158.651 73.752 158.966 73.6897 159.201 73.565C159.443 73.433 159.564 73.224 159.564 72.938C159.564 72.784 159.527 72.6557 159.454 72.553C159.381 72.4503 159.238 72.3623 159.025 72.289C158.812 72.2083 158.497 72.1313 158.079 72.058C157.522 71.9553 157.082 71.8307 156.759 71.684C156.444 71.53 156.216 71.343 156.077 71.123C155.945 70.8957 155.879 70.628 155.879 70.32C155.879 69.7993 156.07 69.374 156.451 69.044C156.832 68.7067 157.375 68.538 158.079 68.538C158.556 68.538 158.955 68.626 159.278 68.802C159.608 68.9707 159.865 69.198 160.048 69.484C160.239 69.7627 160.363 70.0707 160.422 70.408L159.454 70.474C159.41 70.2687 159.329 70.089 159.212 69.935C159.095 69.7737 158.941 69.649 158.75 69.561C158.559 69.4657 158.332 69.418 158.068 69.418C157.65 69.418 157.342 69.4987 157.144 69.66C156.946 69.8213 156.847 70.0267 156.847 70.276C156.847 70.4667 156.891 70.6243 156.979 70.749C157.074 70.8663 157.225 70.9653 157.43 71.046C157.635 71.1193 157.91 71.1853 158.255 71.244C158.849 71.3467 159.311 71.4713 159.641 71.618C159.971 71.7647 160.202 71.9443 160.334 72.157C160.466 72.3697 160.532 72.63 160.532 72.938C160.532 73.2973 160.429 73.6053 160.224 73.862C160.026 74.1113 159.755 74.302 159.41 74.434C159.073 74.566 158.688 74.632 158.255 74.632ZM163.702 74.5C163.174 74.5 162.781 74.379 162.525 74.137C162.275 73.895 162.151 73.5173 162.151 73.004V67.306H163.075V72.982C163.075 73.246 163.133 73.4293 163.251 73.532C163.368 73.6347 163.548 73.686 163.79 73.686H164.626V74.5H163.702ZM161.293 69.484V68.67H164.626V69.484H161.293ZM165.758 74.5V73.257H167.001V74.5H165.758ZM170.281 74.632C169.702 74.632 169.236 74.4377 168.884 74.049C168.54 73.653 168.367 73.1103 168.367 72.421V68.67H169.291V72.168C169.291 72.7327 169.39 73.1507 169.588 73.422C169.794 73.686 170.105 73.818 170.523 73.818C170.985 73.818 171.348 73.6713 171.612 73.378C171.876 73.0773 172.008 72.6667 172.008 72.146V68.67H172.932V74.5H172.052V73.059L172.195 73.136C172.078 73.6127 171.854 73.983 171.524 74.247C171.194 74.5037 170.78 74.632 170.281 74.632ZM176.71 74.632C176.189 74.632 175.746 74.5477 175.379 74.379C175.02 74.2103 174.737 73.9793 174.532 73.686C174.334 73.3853 174.22 73.0443 174.191 72.663L175.159 72.597C175.218 72.949 175.368 73.2313 175.61 73.444C175.852 73.6493 176.219 73.752 176.71 73.752C177.106 73.752 177.421 73.6897 177.656 73.565C177.898 73.433 178.019 73.224 178.019 72.938C178.019 72.784 177.982 72.6557 177.909 72.553C177.836 72.4503 177.693 72.3623 177.48 72.289C177.267 72.2083 176.952 72.1313 176.534 72.058C175.977 71.9553 175.537 71.8307 175.214 71.684C174.899 71.53 174.671 71.343 174.532 71.123C174.4 70.8957 174.334 70.628 174.334 70.32C174.334 69.7993 174.525 69.374 174.906 69.044C175.287 68.7067 175.83 68.538 176.534 68.538C177.011 68.538 177.41 68.626 177.733 68.802C178.063 68.9707 178.32 69.198 178.503 69.484C178.694 69.7627 178.818 70.0707 178.877 70.408L177.909 70.474C177.865 70.2687 177.784 70.089 177.667 69.935C177.55 69.7737 177.396 69.649 177.205 69.561C177.014 69.4657 176.787 69.418 176.523 69.418C176.105 69.418 175.797 69.4987 175.599 69.66C175.401 69.8213 175.302 70.0267 175.302 70.276C175.302 70.4667 175.346 70.6243 175.434 70.749C175.529 70.8663 175.68 70.9653 175.885 71.046C176.09 71.1193 176.365 71.1853 176.71 71.244C177.304 71.3467 177.766 71.4713 178.096 71.618C178.426 71.7647 178.657 71.9443 178.789 72.157C178.921 72.3697 178.987 72.63 178.987 72.938C178.987 73.2973 178.884 73.6053 178.679 73.862C178.481 74.1113 178.21 74.302 177.865 74.434C177.528 74.566 177.143 74.632 176.71 74.632ZM181.242 74.5L179.438 68.67H180.45L181.814 73.532L183.2 68.67H184.19L185.576 73.532L186.951 68.67H187.963L186.159 74.5H184.993L183.695 70.067L182.397 74.5H181.242ZM188.038 74.5V73.257H189.281V74.5H188.038ZM192.77 74.632C192.249 74.632 191.805 74.5477 191.439 74.379C191.079 74.2103 190.797 73.9793 190.592 73.686C190.394 73.3853 190.28 73.0443 190.251 72.663L191.219 72.597C191.277 72.949 191.428 73.2313 191.67 73.444C191.912 73.6493 192.278 73.752 192.77 73.752C193.166 73.752 193.481 73.6897 193.716 73.565C193.958 73.433 194.079 73.224 194.079 72.938C194.079 72.784 194.042 72.6557 193.969 72.553C193.895 72.4503 193.752 72.3623 193.54 72.289C193.327 72.2083 193.012 72.1313 192.594 72.058C192.036 71.9553 191.596 71.8307 191.274 71.684C190.958 71.53 190.731 71.343 190.592 71.123C190.46 70.8957 190.394 70.628 190.394 70.32C190.394 69.7993 190.584 69.374 190.966 69.044C191.347 68.7067 191.89 68.538 192.594 68.538C193.07 68.538 193.47 68.626 193.793 68.802C194.123 68.9707 194.379 69.198 194.563 69.484C194.753 69.7627 194.878 70.0707 194.937 70.408L193.969 70.474C193.925 70.2687 193.844 70.089 193.727 69.935C193.609 69.7737 193.455 69.649 193.265 69.561C193.074 69.4657 192.847 69.418 192.583 69.418C192.165 69.418 191.857 69.4987 191.659 69.66C191.461 69.8213 191.362 70.0267 191.362 70.276C191.362 70.4667 191.406 70.6243 191.494 70.749C191.589 70.8663 191.739 70.9653 191.945 71.046C192.15 71.1193 192.425 71.1853 192.77 71.244C193.364 71.3467 193.826 71.4713 194.156 71.618C194.486 71.7647 194.717 71.9443 194.849 72.157C194.981 72.3697 195.047 72.63 195.047 72.938C195.047 73.2973 194.944 73.6053 194.739 73.862C194.541 74.1113 194.269 74.302 193.925 74.434C193.587 74.566 193.202 74.632 192.77 74.632ZM198.585 74.632C198.035 74.632 197.558 74.5073 197.155 74.258C196.759 74.0087 196.451 73.6567 196.231 73.202C196.018 72.74 195.912 72.201 195.912 71.585C195.912 70.969 196.018 70.4337 196.231 69.979C196.451 69.5243 196.755 69.1723 197.144 68.923C197.54 68.6663 198.005 68.538 198.541 68.538C199.047 68.538 199.494 68.659 199.883 68.901C200.271 69.1357 200.572 69.4803 200.785 69.935C201.005 70.3897 201.115 70.9433 201.115 71.596V71.871H196.88C196.916 72.4943 197.081 72.9637 197.375 73.279C197.675 73.5943 198.079 73.752 198.585 73.752C198.966 73.752 199.278 73.664 199.52 73.488C199.769 73.3047 199.941 73.0663 200.037 72.773L201.027 72.85C200.873 73.3707 200.579 73.7997 200.147 74.137C199.721 74.467 199.201 74.632 198.585 74.632ZM196.88 71.057H200.103C200.059 70.4923 199.894 70.078 199.608 69.814C199.329 69.55 198.973 69.418 198.541 69.418C198.093 69.418 197.723 69.5573 197.43 69.836C197.144 70.1073 196.96 70.5143 196.88 71.057ZM204.09 74.632C203.488 74.632 203.008 74.4927 202.649 74.214C202.297 73.9353 202.121 73.5467 202.121 73.048C202.121 72.5493 202.267 72.157 202.561 71.871C202.854 71.585 203.32 71.3833 203.958 71.266L206.026 70.881C206.026 70.3897 205.908 70.023 205.674 69.781C205.446 69.539 205.102 69.418 204.64 69.418C204.236 69.418 203.917 69.5097 203.683 69.693C203.448 69.869 203.287 70.1257 203.199 70.463L202.22 70.386C202.33 69.836 202.594 69.3923 203.012 69.055C203.437 68.7103 203.98 68.538 204.64 68.538C205.388 68.538 205.96 68.7507 206.356 69.176C206.752 69.594 206.95 70.1733 206.95 70.914V73.323C206.95 73.455 206.972 73.5503 207.016 73.609C207.067 73.6603 207.148 73.686 207.258 73.686H207.489V74.5C207.459 74.5073 207.412 74.511 207.346 74.511C207.28 74.5183 207.21 74.522 207.137 74.522C206.873 74.522 206.656 74.4817 206.488 74.401C206.326 74.313 206.209 74.181 206.136 74.005C206.062 73.8217 206.026 73.5833 206.026 73.29L206.136 73.312C206.084 73.5613 205.96 73.7887 205.762 73.994C205.564 74.192 205.318 74.3497 205.025 74.467C204.731 74.577 204.42 74.632 204.09 74.632ZM204.178 73.818C204.566 73.818 204.896 73.7447 205.168 73.598C205.446 73.444 205.659 73.2387 205.806 72.982C205.952 72.718 206.026 72.4247 206.026 72.102V71.684L204.134 72.036C203.738 72.1093 203.463 72.223 203.309 72.377C203.162 72.5237 203.089 72.718 203.089 72.96C203.089 73.2313 203.184 73.444 203.375 73.598C203.573 73.7447 203.84 73.818 204.178 73.818ZM209.612 74.5C209.275 74.5 209 74.412 208.787 74.236C208.574 74.06 208.468 73.7813 208.468 73.4V66.69H209.392V73.323C209.392 73.4403 209.421 73.532 209.48 73.598C209.546 73.6567 209.638 73.686 209.755 73.686H210.261V74.5H209.612ZM213.613 74.632C213.078 74.632 212.608 74.5073 212.205 74.258C211.802 74.0087 211.49 73.6567 211.27 73.202C211.05 72.74 210.94 72.201 210.94 71.585C210.94 70.9617 211.05 70.4227 211.27 69.968C211.49 69.5133 211.802 69.1613 212.205 68.912C212.608 68.6627 213.078 68.538 213.613 68.538C214.148 68.538 214.614 68.6627 215.01 68.912C215.413 69.1613 215.725 69.5133 215.945 69.968C216.165 70.4227 216.275 70.9617 216.275 71.585C216.275 72.201 216.165 72.74 215.945 73.202C215.725 73.6567 215.413 74.0087 215.01 74.258C214.614 74.5073 214.148 74.632 213.613 74.632ZM213.613 73.752C214.148 73.752 214.563 73.5613 214.856 73.18C215.157 72.7913 215.307 72.2597 215.307 71.585C215.307 70.9103 215.157 70.3823 214.856 70.001C214.563 69.6123 214.148 69.418 213.613 69.418C213.078 69.418 212.66 69.6123 212.359 70.001C212.058 70.3823 211.908 70.9103 211.908 71.585C211.908 72.2597 212.058 72.7913 212.359 73.18C212.66 73.5613 213.078 73.752 213.613 73.752ZM219.657 74.632C219.137 74.632 218.693 74.5477 218.326 74.379C217.967 74.2103 217.685 73.9793 217.479 73.686C217.281 73.3853 217.168 73.0443 217.138 72.663L218.106 72.597C218.165 72.949 218.315 73.2313 218.557 73.444C218.799 73.6493 219.166 73.752 219.657 73.752C220.053 73.752 220.369 73.6897 220.603 73.565C220.845 73.433 220.966 73.224 220.966 72.938C220.966 72.784 220.93 72.6557 220.856 72.553C220.783 72.4503 220.64 72.3623 220.427 72.289C220.215 72.2083 219.899 72.1313 219.481 72.058C218.924 71.9553 218.484 71.8307 218.161 71.684C217.846 71.53 217.619 71.343 217.479 71.123C217.347 70.8957 217.281 70.628 217.281 70.32C217.281 69.7993 217.472 69.374 217.853 69.044C218.235 68.7067 218.777 68.538 219.481 68.538C219.958 68.538 220.358 68.626 220.68 68.802C221.01 68.9707 221.267 69.198 221.45 69.484C221.641 69.7627 221.766 70.0707 221.824 70.408L220.856 70.474C220.812 70.2687 220.732 70.089 220.614 69.935C220.497 69.7737 220.343 69.649 220.152 69.561C219.962 69.4657 219.734 69.418 219.47 69.418C219.052 69.418 218.744 69.4987 218.546 69.66C218.348 69.8213 218.249 70.0267 218.249 70.276C218.249 70.4667 218.293 70.6243 218.381 70.749C218.477 70.8663 218.627 70.9653 218.832 71.046C219.038 71.1193 219.313 71.1853 219.657 71.244C220.251 71.3467 220.713 71.4713 221.043 71.618C221.373 71.7647 221.604 71.9443 221.736 72.157C221.868 72.3697 221.934 72.63 221.934 72.938C221.934 73.2973 221.832 73.6053 221.626 73.862C221.428 74.1113 221.157 74.302 220.812 74.434C220.475 74.566 220.09 74.632 219.657 74.632ZM222.907 74.5V73.257H224.15V74.5H222.907ZM225.516 74.5V68.67H226.44V74.5H225.516ZM225.494 67.757V66.679H226.462V67.757H225.494ZM230.371 74.632C229.836 74.632 229.366 74.5073 228.963 74.258C228.56 74.0087 228.248 73.6567 228.028 73.202C227.808 72.74 227.698 72.201 227.698 71.585C227.698 70.9617 227.808 70.4227 228.028 69.968C228.248 69.5133 228.56 69.1613 228.963 68.912C229.366 68.6627 229.836 68.538 230.371 68.538C230.906 68.538 231.372 68.6627 231.768 68.912C232.171 69.1613 232.483 69.5133 232.703 69.968C232.923 70.4227 233.033 70.9617 233.033 71.585C233.033 72.201 232.923 72.74 232.703 73.202C232.483 73.6567 232.171 74.0087 231.768 74.258C231.372 74.5073 230.906 74.632 230.371 74.632ZM230.371 73.752C230.906 73.752 231.321 73.5613 231.614 73.18C231.915 72.7913 232.065 72.2597 232.065 71.585C232.065 70.9103 231.915 70.3823 231.614 70.001C231.321 69.6123 230.906 69.418 230.371 69.418C229.836 69.418 229.418 69.6123 229.117 70.001C228.816 70.3823 228.666 70.9103 228.666 71.585C228.666 72.2597 228.816 72.7913 229.117 73.18C229.418 73.5613 229.836 73.752 230.371 73.752ZM233.852 75.71L237.097 66.25H237.977L234.732 75.71H233.852Z"
    fill="#D4D4D8"
  />
  <rect
    x="289.5"
    y="52.5"
    width="210"
    height="37"
    rx="7.5"
    fill="white"
    stroke="#D4D4D8"
  />
  <g clip-path="url(#clip1_416_279)">
    <path
      d="M318.667 71.0002C318.667 74.6821 315.682 77.6668 312 77.6668M318.667 71.0002C318.667 67.3183 315.682 64.3335 312 64.3335M318.667 71.0002H305.333M312 77.6668C308.318 77.6668 305.333 74.6821 305.333 71.0002M312 77.6668C310.288 75.8694 309.333 73.4823 309.333 71.0002C309.333 68.518 310.288 66.1309 312 64.3335M312 77.6668C313.712 75.8694 314.667 73.4823 314.667 71.0002C314.667 68.518 313.712 66.1309 312 64.3335M305.333 71.0002C305.333 67.3183 308.318 64.3335 312 64.3335"
      stroke="#3370FF"
      stroke-linecap="round"
      stroke-linejoin="round"
    />
  </g>
  <path
    d="M324.88 74.5V66.69H325.804V69.957L325.694 69.935C325.767 69.6123 325.892 69.3483 326.068 69.143C326.244 68.9377 326.46 68.7873 326.717 68.692C326.974 68.5893 327.256 68.538 327.564 68.538C327.982 68.538 328.334 68.6333 328.62 68.824C328.913 69.0073 329.133 69.2677 329.28 69.605C329.434 69.935 329.511 70.3163 329.511 70.749V74.5H328.587V71.013C328.587 70.4483 328.484 70.0303 328.279 69.759C328.081 69.4877 327.777 69.352 327.366 69.352C326.897 69.352 326.519 69.495 326.233 69.781C325.947 70.067 325.804 70.4813 325.804 71.024V74.5H324.88ZM332.965 74.5C332.437 74.5 332.045 74.379 331.788 74.137C331.539 73.895 331.414 73.5173 331.414 73.004V67.306H332.338V72.982C332.338 73.246 332.397 73.4293 332.514 73.532C332.632 73.6347 332.811 73.686 333.053 73.686H333.889V74.5H332.965ZM330.556 69.484V68.67H333.889V69.484H330.556ZM336.276 74.5C335.748 74.5 335.356 74.379 335.099 74.137C334.85 73.895 334.725 73.5173 334.725 73.004V67.306H335.649V72.982C335.649 73.246 335.708 73.4293 335.825 73.532C335.943 73.6347 336.122 73.686 336.364 73.686H337.2V74.5H336.276ZM333.867 69.484V68.67H337.2V69.484H333.867ZM338.512 76.15V68.67H339.37L339.392 69.924L339.26 69.858C339.407 69.4253 339.649 69.099 339.986 68.879C340.331 68.6517 340.727 68.538 341.174 68.538C341.753 68.538 342.226 68.681 342.593 68.967C342.967 69.253 343.242 69.627 343.418 70.089C343.601 70.551 343.693 71.0497 343.693 71.585C343.693 72.1203 343.601 72.619 343.418 73.081C343.242 73.543 342.967 73.917 342.593 74.203C342.226 74.489 341.753 74.632 341.174 74.632C340.873 74.632 340.591 74.5807 340.327 74.478C340.07 74.3753 339.85 74.2323 339.667 74.049C339.491 73.8657 339.37 73.6493 339.304 73.4L339.436 73.246V76.15H338.512ZM341.086 73.752C341.592 73.752 341.992 73.5613 342.285 73.18C342.578 72.7987 342.725 72.267 342.725 71.585C342.725 70.903 342.578 70.3713 342.285 69.99C341.992 69.6087 341.592 69.418 341.086 69.418C340.749 69.418 340.455 69.4987 340.206 69.66C339.964 69.8213 339.773 70.0633 339.634 70.386C339.502 70.7087 339.436 71.1083 339.436 71.585C339.436 72.0617 339.502 72.4613 339.634 72.784C339.766 73.1067 339.957 73.3487 340.206 73.51C340.455 73.6713 340.749 73.752 341.086 73.752ZM347.069 74.632C346.549 74.632 346.105 74.5477 345.738 74.379C345.379 74.2103 345.097 73.9793 344.891 73.686C344.693 73.3853 344.58 73.0443 344.55 72.663L345.518 72.597C345.577 72.949 345.727 73.2313 345.969 73.444C346.211 73.6493 346.578 73.752 347.069 73.752C347.465 73.752 347.781 73.6897 348.015 73.565C348.257 73.433 348.378 73.224 348.378 72.938C348.378 72.784 348.342 72.6557 348.268 72.553C348.195 72.4503 348.052 72.3623 347.839 72.289C347.627 72.2083 347.311 72.1313 346.893 72.058C346.336 71.9553 345.896 71.8307 345.573 71.684C345.258 71.53 345.031 71.343 344.891 71.123C344.759 70.8957 344.693 70.628 344.693 70.32C344.693 69.7993 344.884 69.374 345.265 69.044C345.647 68.7067 346.189 68.538 346.893 68.538C347.37 68.538 347.77 68.626 348.092 68.802C348.422 68.9707 348.679 69.198 348.862 69.484C349.053 69.7627 349.178 70.0707 349.236 70.408L348.268 70.474C348.224 70.2687 348.144 70.089 348.026 69.935C347.909 69.7737 347.755 69.649 347.564 69.561C347.374 69.4657 347.146 69.418 346.882 69.418C346.464 69.418 346.156 69.4987 345.958 69.66C345.76 69.8213 345.661 70.0267 345.661 70.276C345.661 70.4667 345.705 70.6243 345.793 70.749C345.889 70.8663 346.039 70.9653 346.244 71.046C346.45 71.1193 346.725 71.1853 347.069 71.244C347.663 71.3467 348.125 71.4713 348.455 71.618C348.785 71.7647 349.016 71.9443 349.148 72.157C349.28 72.3697 349.346 72.63 349.346 72.938C349.346 73.2973 349.244 73.6053 349.038 73.862C348.84 74.1113 348.569 74.302 348.224 74.434C347.887 74.566 347.502 74.632 347.069 74.632ZM350.847 74.5V73.257H352.09V74.5H350.847ZM350.847 70.177V68.934H352.09V70.177H350.847ZM353.326 75.71L356.571 66.25H357.451L354.206 75.71H353.326ZM357.44 75.71L360.685 66.25H361.565L358.32 75.71H357.44ZM364.859 74.5C364.331 74.5 363.938 74.379 363.682 74.137C363.432 73.895 363.308 73.5173 363.308 73.004V67.306H364.232V72.982C364.232 73.246 364.29 73.4293 364.408 73.532C364.525 73.6347 364.705 73.686 364.947 73.686H365.783V74.5H364.859ZM362.45 69.484V68.67H365.783V69.484H362.45ZM369.137 74.632C368.587 74.632 368.111 74.5073 367.707 74.258C367.311 74.0087 367.003 73.6567 366.783 73.202C366.571 72.74 366.464 72.201 366.464 71.585C366.464 70.969 366.571 70.4337 366.783 69.979C367.003 69.5243 367.308 69.1723 367.696 68.923C368.092 68.6663 368.558 68.538 369.093 68.538C369.599 68.538 370.047 68.659 370.435 68.901C370.824 69.1357 371.125 69.4803 371.337 69.935C371.557 70.3897 371.667 70.9433 371.667 71.596V71.871H367.432C367.469 72.4943 367.634 72.9637 367.927 73.279C368.228 73.5943 368.631 73.752 369.137 73.752C369.519 73.752 369.83 73.664 370.072 73.488C370.322 73.3047 370.494 73.0663 370.589 72.773L371.579 72.85C371.425 73.3707 371.132 73.7997 370.699 74.137C370.274 74.467 369.753 74.632 369.137 74.632ZM367.432 71.057H370.655C370.611 70.4923 370.446 70.078 370.16 69.814C369.882 69.55 369.526 69.418 369.093 69.418C368.646 69.418 368.276 69.5573 367.982 69.836C367.696 70.1073 367.513 70.5143 367.432 71.057ZM375.042 74.632C374.521 74.632 374.078 74.5477 373.711 74.379C373.352 74.2103 373.069 73.9793 372.864 73.686C372.666 73.3853 372.552 73.0443 372.523 72.663L373.491 72.597C373.55 72.949 373.7 73.2313 373.942 73.444C374.184 73.6493 374.551 73.752 375.042 73.752C375.438 73.752 375.753 73.6897 375.988 73.565C376.23 73.433 376.351 73.224 376.351 72.938C376.351 72.784 376.314 72.6557 376.241 72.553C376.168 72.4503 376.025 72.3623 375.812 72.289C375.599 72.2083 375.284 72.1313 374.866 72.058C374.309 71.9553 373.869 71.8307 373.546 71.684C373.231 71.53 373.003 71.343 372.864 71.123C372.732 70.8957 372.666 70.628 372.666 70.32C372.666 69.7993 372.857 69.374 373.238 69.044C373.619 68.7067 374.162 68.538 374.866 68.538C375.343 68.538 375.742 68.626 376.065 68.802C376.395 68.9707 376.652 69.198 376.835 69.484C377.026 69.7627 377.15 70.0707 377.209 70.408L376.241 70.474C376.197 70.2687 376.116 70.089 375.999 69.935C375.882 69.7737 375.728 69.649 375.537 69.561C375.346 69.4657 375.119 69.418 374.855 69.418C374.437 69.418 374.129 69.4987 373.931 69.66C373.733 69.8213 373.634 70.0267 373.634 70.276C373.634 70.4667 373.678 70.6243 373.766 70.749C373.861 70.8663 374.012 70.9653 374.217 71.046C374.422 71.1193 374.697 71.1853 375.042 71.244C375.636 71.3467 376.098 71.4713 376.428 71.618C376.758 71.7647 376.989 71.9443 377.121 72.157C377.253 72.3697 377.319 72.63 377.319 72.938C377.319 73.2973 377.216 73.6053 377.011 73.862C376.813 74.1113 376.542 74.302 376.197 74.434C375.86 74.566 375.475 74.632 375.042 74.632ZM380.489 74.5C379.961 74.5 379.568 74.379 379.312 74.137C379.062 73.895 378.938 73.5173 378.938 73.004V67.306H379.862V72.982C379.862 73.246 379.92 73.4293 380.038 73.532C380.155 73.6347 380.335 73.686 380.577 73.686H381.413V74.5H380.489ZM378.08 69.484V68.67H381.413V69.484H378.08ZM381.933 71.728V70.859H385.574V71.728H381.933ZM389.072 74.5C388.544 74.5 388.151 74.379 387.895 74.137C387.645 73.895 387.521 73.5173 387.521 73.004V67.306H388.445V72.982C388.445 73.246 388.503 73.4293 388.621 73.532C388.738 73.6347 388.918 73.686 389.16 73.686H389.996V74.5H389.072ZM386.663 69.484V68.67H389.996V69.484H386.663ZM393.35 74.632C392.8 74.632 392.324 74.5073 391.92 74.258C391.524 74.0087 391.216 73.6567 390.996 73.202C390.784 72.74 390.677 72.201 390.677 71.585C390.677 70.969 390.784 70.4337 390.996 69.979C391.216 69.5243 391.521 69.1723 391.909 68.923C392.305 68.6663 392.771 68.538 393.306 68.538C393.812 68.538 394.26 68.659 394.648 68.901C395.037 69.1357 395.338 69.4803 395.55 69.935C395.77 70.3897 395.88 70.9433 395.88 71.596V71.871H391.645C391.682 72.4943 391.847 72.9637 392.14 73.279C392.441 73.5943 392.844 73.752 393.35 73.752C393.732 73.752 394.043 73.664 394.285 73.488C394.535 73.3047 394.707 73.0663 394.802 72.773L395.792 72.85C395.638 73.3707 395.345 73.7997 394.912 74.137C394.487 74.467 393.966 74.632 393.35 74.632ZM391.645 71.057H394.868C394.824 70.4923 394.659 70.078 394.373 69.814C394.095 69.55 393.739 69.418 393.306 69.418C392.859 69.418 392.489 69.5573 392.195 69.836C391.909 70.1073 391.726 70.5143 391.645 71.057ZM399.255 74.632C398.734 74.632 398.291 74.5477 397.924 74.379C397.565 74.2103 397.282 73.9793 397.077 73.686C396.879 73.3853 396.765 73.0443 396.736 72.663L397.704 72.597C397.763 72.949 397.913 73.2313 398.155 73.444C398.397 73.6493 398.764 73.752 399.255 73.752C399.651 73.752 399.966 73.6897 400.201 73.565C400.443 73.433 400.564 73.224 400.564 72.938C400.564 72.784 400.527 72.6557 400.454 72.553C400.381 72.4503 400.238 72.3623 400.025 72.289C399.812 72.2083 399.497 72.1313 399.079 72.058C398.522 71.9553 398.082 71.8307 397.759 71.684C397.444 71.53 397.216 71.343 397.077 71.123C396.945 70.8957 396.879 70.628 396.879 70.32C396.879 69.7993 397.07 69.374 397.451 69.044C397.832 68.7067 398.375 68.538 399.079 68.538C399.556 68.538 399.955 68.626 400.278 68.802C400.608 68.9707 400.865 69.198 401.048 69.484C401.239 69.7627 401.363 70.0707 401.422 70.408L400.454 70.474C400.41 70.2687 400.329 70.089 400.212 69.935C400.095 69.7737 399.941 69.649 399.75 69.561C399.559 69.4657 399.332 69.418 399.068 69.418C398.65 69.418 398.342 69.4987 398.144 69.66C397.946 69.8213 397.847 70.0267 397.847 70.276C397.847 70.4667 397.891 70.6243 397.979 70.749C398.074 70.8663 398.225 70.9653 398.43 71.046C398.635 71.1193 398.91 71.1853 399.255 71.244C399.849 71.3467 400.311 71.4713 400.641 71.618C400.971 71.7647 401.202 71.9443 401.334 72.157C401.466 72.3697 401.532 72.63 401.532 72.938C401.532 73.2973 401.429 73.6053 401.224 73.862C401.026 74.1113 400.755 74.302 400.41 74.434C400.073 74.566 399.688 74.632 399.255 74.632ZM404.702 74.5C404.174 74.5 403.781 74.379 403.525 74.137C403.275 73.895 403.151 73.5173 403.151 73.004V67.306H404.075V72.982C404.075 73.246 404.133 73.4293 404.251 73.532C404.368 73.6347 404.548 73.686 404.79 73.686H405.626V74.5H404.702ZM402.293 69.484V68.67H405.626V69.484H402.293ZM406.758 74.5V73.257H408.001V74.5H406.758ZM411.281 74.632C410.702 74.632 410.236 74.4377 409.884 74.049C409.54 73.653 409.367 73.1103 409.367 72.421V68.67H410.291V72.168C410.291 72.7327 410.39 73.1507 410.588 73.422C410.794 73.686 411.105 73.818 411.523 73.818C411.985 73.818 412.348 73.6713 412.612 73.378C412.876 73.0773 413.008 72.6667 413.008 72.146V68.67H413.932V74.5H413.052V73.059L413.195 73.136C413.078 73.6127 412.854 73.983 412.524 74.247C412.194 74.5037 411.78 74.632 411.281 74.632ZM417.71 74.632C417.189 74.632 416.746 74.5477 416.379 74.379C416.02 74.2103 415.737 73.9793 415.532 73.686C415.334 73.3853 415.22 73.0443 415.191 72.663L416.159 72.597C416.218 72.949 416.368 73.2313 416.61 73.444C416.852 73.6493 417.219 73.752 417.71 73.752C418.106 73.752 418.421 73.6897 418.656 73.565C418.898 73.433 419.019 73.224 419.019 72.938C419.019 72.784 418.982 72.6557 418.909 72.553C418.836 72.4503 418.693 72.3623 418.48 72.289C418.267 72.2083 417.952 72.1313 417.534 72.058C416.977 71.9553 416.537 71.8307 416.214 71.684C415.899 71.53 415.671 71.343 415.532 71.123C415.4 70.8957 415.334 70.628 415.334 70.32C415.334 69.7993 415.525 69.374 415.906 69.044C416.287 68.7067 416.83 68.538 417.534 68.538C418.011 68.538 418.41 68.626 418.733 68.802C419.063 68.9707 419.32 69.198 419.503 69.484C419.694 69.7627 419.818 70.0707 419.877 70.408L418.909 70.474C418.865 70.2687 418.784 70.089 418.667 69.935C418.55 69.7737 418.396 69.649 418.205 69.561C418.014 69.4657 417.787 69.418 417.523 69.418C417.105 69.418 416.797 69.4987 416.599 69.66C416.401 69.8213 416.302 70.0267 416.302 70.276C416.302 70.4667 416.346 70.6243 416.434 70.749C416.529 70.8663 416.68 70.9653 416.885 71.046C417.09 71.1193 417.365 71.1853 417.71 71.244C418.304 71.3467 418.766 71.4713 419.096 71.618C419.426 71.7647 419.657 71.9443 419.789 72.157C419.921 72.3697 419.987 72.63 419.987 72.938C419.987 73.2973 419.884 73.6053 419.679 73.862C419.481 74.1113 419.21 74.302 418.865 74.434C418.528 74.566 418.143 74.632 417.71 74.632ZM422.242 74.5L420.438 68.67H421.45L422.814 73.532L424.2 68.67H425.19L426.576 73.532L427.951 68.67H428.963L427.159 74.5H425.993L424.695 70.067L423.397 74.5H422.242ZM429.038 74.5V73.257H430.281V74.5H429.038ZM433.77 74.632C433.249 74.632 432.805 74.5477 432.439 74.379C432.079 74.2103 431.797 73.9793 431.592 73.686C431.394 73.3853 431.28 73.0443 431.251 72.663L432.219 72.597C432.277 72.949 432.428 73.2313 432.67 73.444C432.912 73.6493 433.278 73.752 433.77 73.752C434.166 73.752 434.481 73.6897 434.716 73.565C434.958 73.433 435.079 73.224 435.079 72.938C435.079 72.784 435.042 72.6557 434.969 72.553C434.895 72.4503 434.752 72.3623 434.54 72.289C434.327 72.2083 434.012 72.1313 433.594 72.058C433.036 71.9553 432.596 71.8307 432.274 71.684C431.958 71.53 431.731 71.343 431.592 71.123C431.46 70.8957 431.394 70.628 431.394 70.32C431.394 69.7993 431.584 69.374 431.966 69.044C432.347 68.7067 432.89 68.538 433.594 68.538C434.07 68.538 434.47 68.626 434.793 68.802C435.123 68.9707 435.379 69.198 435.563 69.484C435.753 69.7627 435.878 70.0707 435.937 70.408L434.969 70.474C434.925 70.2687 434.844 70.089 434.727 69.935C434.609 69.7737 434.455 69.649 434.265 69.561C434.074 69.4657 433.847 69.418 433.583 69.418C433.165 69.418 432.857 69.4987 432.659 69.66C432.461 69.8213 432.362 70.0267 432.362 70.276C432.362 70.4667 432.406 70.6243 432.494 70.749C432.589 70.8663 432.739 70.9653 432.945 71.046C433.15 71.1193 433.425 71.1853 433.77 71.244C434.364 71.3467 434.826 71.4713 435.156 71.618C435.486 71.7647 435.717 71.9443 435.849 72.157C435.981 72.3697 436.047 72.63 436.047 72.938C436.047 73.2973 435.944 73.6053 435.739 73.862C435.541 74.1113 435.269 74.302 434.925 74.434C434.587 74.566 434.202 74.632 433.77 74.632ZM439.585 74.632C439.035 74.632 438.558 74.5073 438.155 74.258C437.759 74.0087 437.451 73.6567 437.231 73.202C437.018 72.74 436.912 72.201 436.912 71.585C436.912 70.969 437.018 70.4337 437.231 69.979C437.451 69.5243 437.755 69.1723 438.144 68.923C438.54 68.6663 439.005 68.538 439.541 68.538C440.047 68.538 440.494 68.659 440.883 68.901C441.271 69.1357 441.572 69.4803 441.785 69.935C442.005 70.3897 442.115 70.9433 442.115 71.596V71.871H437.88C437.916 72.4943 438.081 72.9637 438.375 73.279C438.675 73.5943 439.079 73.752 439.585 73.752C439.966 73.752 440.278 73.664 440.52 73.488C440.769 73.3047 440.941 73.0663 441.037 72.773L442.027 72.85C441.873 73.3707 441.579 73.7997 441.147 74.137C440.721 74.467 440.201 74.632 439.585 74.632ZM437.88 71.057H441.103C441.059 70.4923 440.894 70.078 440.608 69.814C440.329 69.55 439.973 69.418 439.541 69.418C439.093 69.418 438.723 69.5573 438.43 69.836C438.144 70.1073 437.96 70.5143 437.88 71.057ZM445.09 74.632C444.488 74.632 444.008 74.4927 443.649 74.214C443.297 73.9353 443.121 73.5467 443.121 73.048C443.121 72.5493 443.267 72.157 443.561 71.871C443.854 71.585 444.32 71.3833 444.958 71.266L447.026 70.881C447.026 70.3897 446.908 70.023 446.674 69.781C446.446 69.539 446.102 69.418 445.64 69.418C445.236 69.418 444.917 69.5097 444.683 69.693C444.448 69.869 444.287 70.1257 444.199 70.463L443.22 70.386C443.33 69.836 443.594 69.3923 444.012 69.055C444.437 68.7103 444.98 68.538 445.64 68.538C446.388 68.538 446.96 68.7507 447.356 69.176C447.752 69.594 447.95 70.1733 447.95 70.914V73.323C447.95 73.455 447.972 73.5503 448.016 73.609C448.067 73.6603 448.148 73.686 448.258 73.686H448.489V74.5C448.459 74.5073 448.412 74.511 448.346 74.511C448.28 74.5183 448.21 74.522 448.137 74.522C447.873 74.522 447.656 74.4817 447.488 74.401C447.326 74.313 447.209 74.181 447.136 74.005C447.062 73.8217 447.026 73.5833 447.026 73.29L447.136 73.312C447.084 73.5613 446.96 73.7887 446.762 73.994C446.564 74.192 446.318 74.3497 446.025 74.467C445.731 74.577 445.42 74.632 445.09 74.632ZM445.178 73.818C445.566 73.818 445.896 73.7447 446.168 73.598C446.446 73.444 446.659 73.2387 446.806 72.982C446.952 72.718 447.026 72.4247 447.026 72.102V71.684L445.134 72.036C444.738 72.1093 444.463 72.223 444.309 72.377C444.162 72.5237 444.089 72.718 444.089 72.96C444.089 73.2313 444.184 73.444 444.375 73.598C444.573 73.7447 444.84 73.818 445.178 73.818ZM450.612 74.5C450.275 74.5 450 74.412 449.787 74.236C449.574 74.06 449.468 73.7813 449.468 73.4V66.69H450.392V73.323C450.392 73.4403 450.421 73.532 450.48 73.598C450.546 73.6567 450.638 73.686 450.755 73.686H451.261V74.5H450.612ZM454.613 74.632C454.078 74.632 453.608 74.5073 453.205 74.258C452.802 74.0087 452.49 73.6567 452.27 73.202C452.05 72.74 451.94 72.201 451.94 71.585C451.94 70.9617 452.05 70.4227 452.27 69.968C452.49 69.5133 452.802 69.1613 453.205 68.912C453.608 68.6627 454.078 68.538 454.613 68.538C455.148 68.538 455.614 68.6627 456.01 68.912C456.413 69.1613 456.725 69.5133 456.945 69.968C457.165 70.4227 457.275 70.9617 457.275 71.585C457.275 72.201 457.165 72.74 456.945 73.202C456.725 73.6567 456.413 74.0087 456.01 74.258C455.614 74.5073 455.148 74.632 454.613 74.632ZM454.613 73.752C455.148 73.752 455.563 73.5613 455.856 73.18C456.157 72.7913 456.307 72.2597 456.307 71.585C456.307 70.9103 456.157 70.3823 455.856 70.001C455.563 69.6123 455.148 69.418 454.613 69.418C454.078 69.418 453.66 69.6123 453.359 70.001C453.058 70.3823 452.908 70.9103 452.908 71.585C452.908 72.2597 453.058 72.7913 453.359 73.18C453.66 73.5613 454.078 73.752 454.613 73.752ZM460.657 74.632C460.137 74.632 459.693 74.5477 459.326 74.379C458.967 74.2103 458.685 73.9793 458.479 73.686C458.281 73.3853 458.168 73.0443 458.138 72.663L459.106 72.597C459.165 72.949 459.315 73.2313 459.557 73.444C459.799 73.6493 460.166 73.752 460.657 73.752C461.053 73.752 461.369 73.6897 461.603 73.565C461.845 73.433 461.966 73.224 461.966 72.938C461.966 72.784 461.93 72.6557 461.856 72.553C461.783 72.4503 461.64 72.3623 461.427 72.289C461.215 72.2083 460.899 72.1313 460.481 72.058C459.924 71.9553 459.484 71.8307 459.161 71.684C458.846 71.53 458.619 71.343 458.479 71.123C458.347 70.8957 458.281 70.628 458.281 70.32C458.281 69.7993 458.472 69.374 458.853 69.044C459.235 68.7067 459.777 68.538 460.481 68.538C460.958 68.538 461.358 68.626 461.68 68.802C462.01 68.9707 462.267 69.198 462.45 69.484C462.641 69.7627 462.766 70.0707 462.824 70.408L461.856 70.474C461.812 70.2687 461.732 70.089 461.614 69.935C461.497 69.7737 461.343 69.649 461.152 69.561C460.962 69.4657 460.734 69.418 460.47 69.418C460.052 69.418 459.744 69.4987 459.546 69.66C459.348 69.8213 459.249 70.0267 459.249 70.276C459.249 70.4667 459.293 70.6243 459.381 70.749C459.477 70.8663 459.627 70.9653 459.832 71.046C460.038 71.1193 460.313 71.1853 460.657 71.244C461.251 71.3467 461.713 71.4713 462.043 71.618C462.373 71.7647 462.604 71.9443 462.736 72.157C462.868 72.3697 462.934 72.63 462.934 72.938C462.934 73.2973 462.832 73.6053 462.626 73.862C462.428 74.1113 462.157 74.302 461.812 74.434C461.475 74.566 461.09 74.632 460.657 74.632ZM463.907 74.5V73.257H465.15V74.5H463.907ZM466.516 74.5V68.67H467.44V74.5H466.516ZM466.494 67.757V66.679H467.462V67.757H466.494ZM471.371 74.632C470.836 74.632 470.366 74.5073 469.963 74.258C469.56 74.0087 469.248 73.6567 469.028 73.202C468.808 72.74 468.698 72.201 468.698 71.585C468.698 70.9617 468.808 70.4227 469.028 69.968C469.248 69.5133 469.56 69.1613 469.963 68.912C470.366 68.6627 470.836 68.538 471.371 68.538C471.906 68.538 472.372 68.6627 472.768 68.912C473.171 69.1613 473.483 69.5133 473.703 69.968C473.923 70.4227 474.033 70.9617 474.033 71.585C474.033 72.201 473.923 72.74 473.703 73.202C473.483 73.6567 473.171 74.0087 472.768 74.258C472.372 74.5073 471.906 74.632 471.371 74.632ZM471.371 73.752C471.906 73.752 472.321 73.5613 472.614 73.18C472.915 72.7913 473.065 72.2597 473.065 71.585C473.065 70.9103 472.915 70.3823 472.614 70.001C472.321 69.6123 471.906 69.418 471.371 69.418C470.836 69.418 470.418 69.6123 470.117 70.001C469.816 70.3823 469.666 70.9103 469.666 71.585C469.666 72.2597 469.816 72.7913 470.117 73.18C470.418 73.5613 470.836 73.752 471.371 73.752ZM474.852 75.71L478.097 66.25H478.977L475.732 75.71H474.852Z"
    fill="#D4D4D8"
  />
  <rect
    x="530.5"
    y="52.5"
    width="210"
    height="37"
    rx="7.5"
    fill="white"
    stroke="#D4D4D8"
  />
  <g clip-path="url(#clip2_416_279)">
    <path
      d="M559.667 71.0002C559.667 74.6821 556.682 77.6668 553 77.6668M559.667 71.0002C559.667 67.3183 556.682 64.3335 553 64.3335M559.667 71.0002H546.333M553 77.6668C549.318 77.6668 546.333 74.6821 546.333 71.0002M553 77.6668C551.288 75.8694 550.333 73.4823 550.333 71.0002C550.333 68.518 551.288 66.1309 553 64.3335M553 77.6668C554.712 75.8694 555.667 73.4823 555.667 71.0002C555.667 68.518 554.712 66.1309 553 64.3335M546.333 71.0002C546.333 67.3183 549.318 64.3335 553 64.3335"
      stroke="#3370FF"
      stroke-linecap="round"
      stroke-linejoin="round"
    />
  </g>
  <path
    d="M565.88 74.5V66.69H566.804V69.957L566.694 69.935C566.767 69.6123 566.892 69.3483 567.068 69.143C567.244 68.9377 567.46 68.7873 567.717 68.692C567.974 68.5893 568.256 68.538 568.564 68.538C568.982 68.538 569.334 68.6333 569.62 68.824C569.913 69.0073 570.133 69.2677 570.28 69.605C570.434 69.935 570.511 70.3163 570.511 70.749V74.5H569.587V71.013C569.587 70.4483 569.484 70.0303 569.279 69.759C569.081 69.4877 568.777 69.352 568.366 69.352C567.897 69.352 567.519 69.495 567.233 69.781C566.947 70.067 566.804 70.4813 566.804 71.024V74.5H565.88ZM573.965 74.5C573.437 74.5 573.045 74.379 572.788 74.137C572.539 73.895 572.414 73.5173 572.414 73.004V67.306H573.338V72.982C573.338 73.246 573.397 73.4293 573.514 73.532C573.632 73.6347 573.811 73.686 574.053 73.686H574.889V74.5H573.965ZM571.556 69.484V68.67H574.889V69.484H571.556ZM577.276 74.5C576.748 74.5 576.356 74.379 576.099 74.137C575.85 73.895 575.725 73.5173 575.725 73.004V67.306H576.649V72.982C576.649 73.246 576.708 73.4293 576.825 73.532C576.943 73.6347 577.122 73.686 577.364 73.686H578.2V74.5H577.276ZM574.867 69.484V68.67H578.2V69.484H574.867ZM579.512 76.15V68.67H580.37L580.392 69.924L580.26 69.858C580.407 69.4253 580.649 69.099 580.986 68.879C581.331 68.6517 581.727 68.538 582.174 68.538C582.753 68.538 583.226 68.681 583.593 68.967C583.967 69.253 584.242 69.627 584.418 70.089C584.601 70.551 584.693 71.0497 584.693 71.585C584.693 72.1203 584.601 72.619 584.418 73.081C584.242 73.543 583.967 73.917 583.593 74.203C583.226 74.489 582.753 74.632 582.174 74.632C581.873 74.632 581.591 74.5807 581.327 74.478C581.07 74.3753 580.85 74.2323 580.667 74.049C580.491 73.8657 580.37 73.6493 580.304 73.4L580.436 73.246V76.15H579.512ZM582.086 73.752C582.592 73.752 582.992 73.5613 583.285 73.18C583.578 72.7987 583.725 72.267 583.725 71.585C583.725 70.903 583.578 70.3713 583.285 69.99C582.992 69.6087 582.592 69.418 582.086 69.418C581.749 69.418 581.455 69.4987 581.206 69.66C580.964 69.8213 580.773 70.0633 580.634 70.386C580.502 70.7087 580.436 71.1083 580.436 71.585C580.436 72.0617 580.502 72.4613 580.634 72.784C580.766 73.1067 580.957 73.3487 581.206 73.51C581.455 73.6713 581.749 73.752 582.086 73.752ZM588.069 74.632C587.549 74.632 587.105 74.5477 586.738 74.379C586.379 74.2103 586.097 73.9793 585.891 73.686C585.693 73.3853 585.58 73.0443 585.55 72.663L586.518 72.597C586.577 72.949 586.727 73.2313 586.969 73.444C587.211 73.6493 587.578 73.752 588.069 73.752C588.465 73.752 588.781 73.6897 589.015 73.565C589.257 73.433 589.378 73.224 589.378 72.938C589.378 72.784 589.342 72.6557 589.268 72.553C589.195 72.4503 589.052 72.3623 588.839 72.289C588.627 72.2083 588.311 72.1313 587.893 72.058C587.336 71.9553 586.896 71.8307 586.573 71.684C586.258 71.53 586.031 71.343 585.891 71.123C585.759 70.8957 585.693 70.628 585.693 70.32C585.693 69.7993 585.884 69.374 586.265 69.044C586.647 68.7067 587.189 68.538 587.893 68.538C588.37 68.538 588.77 68.626 589.092 68.802C589.422 68.9707 589.679 69.198 589.862 69.484C590.053 69.7627 590.178 70.0707 590.236 70.408L589.268 70.474C589.224 70.2687 589.144 70.089 589.026 69.935C588.909 69.7737 588.755 69.649 588.564 69.561C588.374 69.4657 588.146 69.418 587.882 69.418C587.464 69.418 587.156 69.4987 586.958 69.66C586.76 69.8213 586.661 70.0267 586.661 70.276C586.661 70.4667 586.705 70.6243 586.793 70.749C586.889 70.8663 587.039 70.9653 587.244 71.046C587.45 71.1193 587.725 71.1853 588.069 71.244C588.663 71.3467 589.125 71.4713 589.455 71.618C589.785 71.7647 590.016 71.9443 590.148 72.157C590.28 72.3697 590.346 72.63 590.346 72.938C590.346 73.2973 590.244 73.6053 590.038 73.862C589.84 74.1113 589.569 74.302 589.224 74.434C588.887 74.566 588.502 74.632 588.069 74.632ZM591.847 74.5V73.257H593.09V74.5H591.847ZM591.847 70.177V68.934H593.09V70.177H591.847ZM594.326 75.71L597.571 66.25H598.451L595.206 75.71H594.326ZM598.44 75.71L601.685 66.25H602.565L599.32 75.71H598.44ZM605.859 74.5C605.331 74.5 604.938 74.379 604.682 74.137C604.432 73.895 604.308 73.5173 604.308 73.004V67.306H605.232V72.982C605.232 73.246 605.29 73.4293 605.408 73.532C605.525 73.6347 605.705 73.686 605.947 73.686H606.783V74.5H605.859ZM603.45 69.484V68.67H606.783V69.484H603.45ZM610.137 74.632C609.587 74.632 609.111 74.5073 608.707 74.258C608.311 74.0087 608.003 73.6567 607.783 73.202C607.571 72.74 607.464 72.201 607.464 71.585C607.464 70.969 607.571 70.4337 607.783 69.979C608.003 69.5243 608.308 69.1723 608.696 68.923C609.092 68.6663 609.558 68.538 610.093 68.538C610.599 68.538 611.047 68.659 611.435 68.901C611.824 69.1357 612.125 69.4803 612.337 69.935C612.557 70.3897 612.667 70.9433 612.667 71.596V71.871H608.432C608.469 72.4943 608.634 72.9637 608.927 73.279C609.228 73.5943 609.631 73.752 610.137 73.752C610.519 73.752 610.83 73.664 611.072 73.488C611.322 73.3047 611.494 73.0663 611.589 72.773L612.579 72.85C612.425 73.3707 612.132 73.7997 611.699 74.137C611.274 74.467 610.753 74.632 610.137 74.632ZM608.432 71.057H611.655C611.611 70.4923 611.446 70.078 611.16 69.814C610.882 69.55 610.526 69.418 610.093 69.418C609.646 69.418 609.276 69.5573 608.982 69.836C608.696 70.1073 608.513 70.5143 608.432 71.057ZM616.042 74.632C615.521 74.632 615.078 74.5477 614.711 74.379C614.352 74.2103 614.069 73.9793 613.864 73.686C613.666 73.3853 613.552 73.0443 613.523 72.663L614.491 72.597C614.55 72.949 614.7 73.2313 614.942 73.444C615.184 73.6493 615.551 73.752 616.042 73.752C616.438 73.752 616.753 73.6897 616.988 73.565C617.23 73.433 617.351 73.224 617.351 72.938C617.351 72.784 617.314 72.6557 617.241 72.553C617.168 72.4503 617.025 72.3623 616.812 72.289C616.599 72.2083 616.284 72.1313 615.866 72.058C615.309 71.9553 614.869 71.8307 614.546 71.684C614.231 71.53 614.003 71.343 613.864 71.123C613.732 70.8957 613.666 70.628 613.666 70.32C613.666 69.7993 613.857 69.374 614.238 69.044C614.619 68.7067 615.162 68.538 615.866 68.538C616.343 68.538 616.742 68.626 617.065 68.802C617.395 68.9707 617.652 69.198 617.835 69.484C618.026 69.7627 618.15 70.0707 618.209 70.408L617.241 70.474C617.197 70.2687 617.116 70.089 616.999 69.935C616.882 69.7737 616.728 69.649 616.537 69.561C616.346 69.4657 616.119 69.418 615.855 69.418C615.437 69.418 615.129 69.4987 614.931 69.66C614.733 69.8213 614.634 70.0267 614.634 70.276C614.634 70.4667 614.678 70.6243 614.766 70.749C614.861 70.8663 615.012 70.9653 615.217 71.046C615.422 71.1193 615.697 71.1853 616.042 71.244C616.636 71.3467 617.098 71.4713 617.428 71.618C617.758 71.7647 617.989 71.9443 618.121 72.157C618.253 72.3697 618.319 72.63 618.319 72.938C618.319 73.2973 618.216 73.6053 618.011 73.862C617.813 74.1113 617.542 74.302 617.197 74.434C616.86 74.566 616.475 74.632 616.042 74.632ZM621.489 74.5C620.961 74.5 620.568 74.379 620.312 74.137C620.062 73.895 619.938 73.5173 619.938 73.004V67.306H620.862V72.982C620.862 73.246 620.92 73.4293 621.038 73.532C621.155 73.6347 621.335 73.686 621.577 73.686H622.413V74.5H621.489ZM619.08 69.484V68.67H622.413V69.484H619.08ZM622.933 71.728V70.859H626.574V71.728H622.933ZM630.072 74.5C629.544 74.5 629.151 74.379 628.895 74.137C628.645 73.895 628.521 73.5173 628.521 73.004V67.306H629.445V72.982C629.445 73.246 629.503 73.4293 629.621 73.532C629.738 73.6347 629.918 73.686 630.16 73.686H630.996V74.5H630.072ZM627.663 69.484V68.67H630.996V69.484H627.663ZM634.35 74.632C633.8 74.632 633.324 74.5073 632.92 74.258C632.524 74.0087 632.216 73.6567 631.996 73.202C631.784 72.74 631.677 72.201 631.677 71.585C631.677 70.969 631.784 70.4337 631.996 69.979C632.216 69.5243 632.521 69.1723 632.909 68.923C633.305 68.6663 633.771 68.538 634.306 68.538C634.812 68.538 635.26 68.659 635.648 68.901C636.037 69.1357 636.338 69.4803 636.55 69.935C636.77 70.3897 636.88 70.9433 636.88 71.596V71.871H632.645C632.682 72.4943 632.847 72.9637 633.14 73.279C633.441 73.5943 633.844 73.752 634.35 73.752C634.732 73.752 635.043 73.664 635.285 73.488C635.535 73.3047 635.707 73.0663 635.802 72.773L636.792 72.85C636.638 73.3707 636.345 73.7997 635.912 74.137C635.487 74.467 634.966 74.632 634.35 74.632ZM632.645 71.057H635.868C635.824 70.4923 635.659 70.078 635.373 69.814C635.095 69.55 634.739 69.418 634.306 69.418C633.859 69.418 633.489 69.5573 633.195 69.836C632.909 70.1073 632.726 70.5143 632.645 71.057ZM640.255 74.632C639.734 74.632 639.291 74.5477 638.924 74.379C638.565 74.2103 638.282 73.9793 638.077 73.686C637.879 73.3853 637.765 73.0443 637.736 72.663L638.704 72.597C638.763 72.949 638.913 73.2313 639.155 73.444C639.397 73.6493 639.764 73.752 640.255 73.752C640.651 73.752 640.966 73.6897 641.201 73.565C641.443 73.433 641.564 73.224 641.564 72.938C641.564 72.784 641.527 72.6557 641.454 72.553C641.381 72.4503 641.238 72.3623 641.025 72.289C640.812 72.2083 640.497 72.1313 640.079 72.058C639.522 71.9553 639.082 71.8307 638.759 71.684C638.444 71.53 638.216 71.343 638.077 71.123C637.945 70.8957 637.879 70.628 637.879 70.32C637.879 69.7993 638.07 69.374 638.451 69.044C638.832 68.7067 639.375 68.538 640.079 68.538C640.556 68.538 640.955 68.626 641.278 68.802C641.608 68.9707 641.865 69.198 642.048 69.484C642.239 69.7627 642.363 70.0707 642.422 70.408L641.454 70.474C641.41 70.2687 641.329 70.089 641.212 69.935C641.095 69.7737 640.941 69.649 640.75 69.561C640.559 69.4657 640.332 69.418 640.068 69.418C639.65 69.418 639.342 69.4987 639.144 69.66C638.946 69.8213 638.847 70.0267 638.847 70.276C638.847 70.4667 638.891 70.6243 638.979 70.749C639.074 70.8663 639.225 70.9653 639.43 71.046C639.635 71.1193 639.91 71.1853 640.255 71.244C640.849 71.3467 641.311 71.4713 641.641 71.618C641.971 71.7647 642.202 71.9443 642.334 72.157C642.466 72.3697 642.532 72.63 642.532 72.938C642.532 73.2973 642.429 73.6053 642.224 73.862C642.026 74.1113 641.755 74.302 641.41 74.434C641.073 74.566 640.688 74.632 640.255 74.632ZM645.702 74.5C645.174 74.5 644.781 74.379 644.525 74.137C644.275 73.895 644.151 73.5173 644.151 73.004V67.306H645.075V72.982C645.075 73.246 645.133 73.4293 645.251 73.532C645.368 73.6347 645.548 73.686 645.79 73.686H646.626V74.5H645.702ZM643.293 69.484V68.67H646.626V69.484H643.293ZM647.758 74.5V73.257H649.001V74.5H647.758ZM652.281 74.632C651.702 74.632 651.236 74.4377 650.884 74.049C650.54 73.653 650.367 73.1103 650.367 72.421V68.67H651.291V72.168C651.291 72.7327 651.39 73.1507 651.588 73.422C651.794 73.686 652.105 73.818 652.523 73.818C652.985 73.818 653.348 73.6713 653.612 73.378C653.876 73.0773 654.008 72.6667 654.008 72.146V68.67H654.932V74.5H654.052V73.059L654.195 73.136C654.078 73.6127 653.854 73.983 653.524 74.247C653.194 74.5037 652.78 74.632 652.281 74.632ZM658.71 74.632C658.189 74.632 657.746 74.5477 657.379 74.379C657.02 74.2103 656.737 73.9793 656.532 73.686C656.334 73.3853 656.22 73.0443 656.191 72.663L657.159 72.597C657.218 72.949 657.368 73.2313 657.61 73.444C657.852 73.6493 658.219 73.752 658.71 73.752C659.106 73.752 659.421 73.6897 659.656 73.565C659.898 73.433 660.019 73.224 660.019 72.938C660.019 72.784 659.982 72.6557 659.909 72.553C659.836 72.4503 659.693 72.3623 659.48 72.289C659.267 72.2083 658.952 72.1313 658.534 72.058C657.977 71.9553 657.537 71.8307 657.214 71.684C656.899 71.53 656.671 71.343 656.532 71.123C656.4 70.8957 656.334 70.628 656.334 70.32C656.334 69.7993 656.525 69.374 656.906 69.044C657.287 68.7067 657.83 68.538 658.534 68.538C659.011 68.538 659.41 68.626 659.733 68.802C660.063 68.9707 660.32 69.198 660.503 69.484C660.694 69.7627 660.818 70.0707 660.877 70.408L659.909 70.474C659.865 70.2687 659.784 70.089 659.667 69.935C659.55 69.7737 659.396 69.649 659.205 69.561C659.014 69.4657 658.787 69.418 658.523 69.418C658.105 69.418 657.797 69.4987 657.599 69.66C657.401 69.8213 657.302 70.0267 657.302 70.276C657.302 70.4667 657.346 70.6243 657.434 70.749C657.529 70.8663 657.68 70.9653 657.885 71.046C658.09 71.1193 658.365 71.1853 658.71 71.244C659.304 71.3467 659.766 71.4713 660.096 71.618C660.426 71.7647 660.657 71.9443 660.789 72.157C660.921 72.3697 660.987 72.63 660.987 72.938C660.987 73.2973 660.884 73.6053 660.679 73.862C660.481 74.1113 660.21 74.302 659.865 74.434C659.528 74.566 659.143 74.632 658.71 74.632ZM663.242 74.5L661.438 68.67H662.45L663.814 73.532L665.2 68.67H666.19L667.576 73.532L668.951 68.67H669.963L668.159 74.5H666.993L665.695 70.067L664.397 74.5H663.242ZM670.038 74.5V73.257H671.281V74.5H670.038ZM674.77 74.632C674.249 74.632 673.805 74.5477 673.439 74.379C673.079 74.2103 672.797 73.9793 672.592 73.686C672.394 73.3853 672.28 73.0443 672.251 72.663L673.219 72.597C673.277 72.949 673.428 73.2313 673.67 73.444C673.912 73.6493 674.278 73.752 674.77 73.752C675.166 73.752 675.481 73.6897 675.716 73.565C675.958 73.433 676.079 73.224 676.079 72.938C676.079 72.784 676.042 72.6557 675.969 72.553C675.895 72.4503 675.752 72.3623 675.54 72.289C675.327 72.2083 675.012 72.1313 674.594 72.058C674.036 71.9553 673.596 71.8307 673.274 71.684C672.958 71.53 672.731 71.343 672.592 71.123C672.46 70.8957 672.394 70.628 672.394 70.32C672.394 69.7993 672.584 69.374 672.966 69.044C673.347 68.7067 673.89 68.538 674.594 68.538C675.07 68.538 675.47 68.626 675.793 68.802C676.123 68.9707 676.379 69.198 676.563 69.484C676.753 69.7627 676.878 70.0707 676.937 70.408L675.969 70.474C675.925 70.2687 675.844 70.089 675.727 69.935C675.609 69.7737 675.455 69.649 675.265 69.561C675.074 69.4657 674.847 69.418 674.583 69.418C674.165 69.418 673.857 69.4987 673.659 69.66C673.461 69.8213 673.362 70.0267 673.362 70.276C673.362 70.4667 673.406 70.6243 673.494 70.749C673.589 70.8663 673.739 70.9653 673.945 71.046C674.15 71.1193 674.425 71.1853 674.77 71.244C675.364 71.3467 675.826 71.4713 676.156 71.618C676.486 71.7647 676.717 71.9443 676.849 72.157C676.981 72.3697 677.047 72.63 677.047 72.938C677.047 73.2973 676.944 73.6053 676.739 73.862C676.541 74.1113 676.269 74.302 675.925 74.434C675.587 74.566 675.202 74.632 674.77 74.632ZM680.585 74.632C680.035 74.632 679.558 74.5073 679.155 74.258C678.759 74.0087 678.451 73.6567 678.231 73.202C678.018 72.74 677.912 72.201 677.912 71.585C677.912 70.969 678.018 70.4337 678.231 69.979C678.451 69.5243 678.755 69.1723 679.144 68.923C679.54 68.6663 680.005 68.538 680.541 68.538C681.047 68.538 681.494 68.659 681.883 68.901C682.271 69.1357 682.572 69.4803 682.785 69.935C683.005 70.3897 683.115 70.9433 683.115 71.596V71.871H678.88C678.916 72.4943 679.081 72.9637 679.375 73.279C679.675 73.5943 680.079 73.752 680.585 73.752C680.966 73.752 681.278 73.664 681.52 73.488C681.769 73.3047 681.941 73.0663 682.037 72.773L683.027 72.85C682.873 73.3707 682.579 73.7997 682.147 74.137C681.721 74.467 681.201 74.632 680.585 74.632ZM678.88 71.057H682.103C682.059 70.4923 681.894 70.078 681.608 69.814C681.329 69.55 680.973 69.418 680.541 69.418C680.093 69.418 679.723 69.5573 679.43 69.836C679.144 70.1073 678.96 70.5143 678.88 71.057ZM686.09 74.632C685.488 74.632 685.008 74.4927 684.649 74.214C684.297 73.9353 684.121 73.5467 684.121 73.048C684.121 72.5493 684.267 72.157 684.561 71.871C684.854 71.585 685.32 71.3833 685.958 71.266L688.026 70.881C688.026 70.3897 687.908 70.023 687.674 69.781C687.446 69.539 687.102 69.418 686.64 69.418C686.236 69.418 685.917 69.5097 685.683 69.693C685.448 69.869 685.287 70.1257 685.199 70.463L684.22 70.386C684.33 69.836 684.594 69.3923 685.012 69.055C685.437 68.7103 685.98 68.538 686.64 68.538C687.388 68.538 687.96 68.7507 688.356 69.176C688.752 69.594 688.95 70.1733 688.95 70.914V73.323C688.95 73.455 688.972 73.5503 689.016 73.609C689.067 73.6603 689.148 73.686 689.258 73.686H689.489V74.5C689.459 74.5073 689.412 74.511 689.346 74.511C689.28 74.5183 689.21 74.522 689.137 74.522C688.873 74.522 688.656 74.4817 688.488 74.401C688.326 74.313 688.209 74.181 688.136 74.005C688.062 73.8217 688.026 73.5833 688.026 73.29L688.136 73.312C688.084 73.5613 687.96 73.7887 687.762 73.994C687.564 74.192 687.318 74.3497 687.025 74.467C686.731 74.577 686.42 74.632 686.09 74.632ZM686.178 73.818C686.566 73.818 686.896 73.7447 687.168 73.598C687.446 73.444 687.659 73.2387 687.806 72.982C687.952 72.718 688.026 72.4247 688.026 72.102V71.684L686.134 72.036C685.738 72.1093 685.463 72.223 685.309 72.377C685.162 72.5237 685.089 72.718 685.089 72.96C685.089 73.2313 685.184 73.444 685.375 73.598C685.573 73.7447 685.84 73.818 686.178 73.818ZM691.612 74.5C691.275 74.5 691 74.412 690.787 74.236C690.574 74.06 690.468 73.7813 690.468 73.4V66.69H691.392V73.323C691.392 73.4403 691.421 73.532 691.48 73.598C691.546 73.6567 691.638 73.686 691.755 73.686H692.261V74.5H691.612ZM695.613 74.632C695.078 74.632 694.608 74.5073 694.205 74.258C693.802 74.0087 693.49 73.6567 693.27 73.202C693.05 72.74 692.94 72.201 692.94 71.585C692.94 70.9617 693.05 70.4227 693.27 69.968C693.49 69.5133 693.802 69.1613 694.205 68.912C694.608 68.6627 695.078 68.538 695.613 68.538C696.148 68.538 696.614 68.6627 697.01 68.912C697.413 69.1613 697.725 69.5133 697.945 69.968C698.165 70.4227 698.275 70.9617 698.275 71.585C698.275 72.201 698.165 72.74 697.945 73.202C697.725 73.6567 697.413 74.0087 697.01 74.258C696.614 74.5073 696.148 74.632 695.613 74.632ZM695.613 73.752C696.148 73.752 696.563 73.5613 696.856 73.18C697.157 72.7913 697.307 72.2597 697.307 71.585C697.307 70.9103 697.157 70.3823 696.856 70.001C696.563 69.6123 696.148 69.418 695.613 69.418C695.078 69.418 694.66 69.6123 694.359 70.001C694.058 70.3823 693.908 70.9103 693.908 71.585C693.908 72.2597 694.058 72.7913 694.359 73.18C694.66 73.5613 695.078 73.752 695.613 73.752ZM701.657 74.632C701.137 74.632 700.693 74.5477 700.326 74.379C699.967 74.2103 699.685 73.9793 699.479 73.686C699.281 73.3853 699.168 73.0443 699.138 72.663L700.106 72.597C700.165 72.949 700.315 73.2313 700.557 73.444C700.799 73.6493 701.166 73.752 701.657 73.752C702.053 73.752 702.369 73.6897 702.603 73.565C702.845 73.433 702.966 73.224 702.966 72.938C702.966 72.784 702.93 72.6557 702.856 72.553C702.783 72.4503 702.64 72.3623 702.427 72.289C702.215 72.2083 701.899 72.1313 701.481 72.058C700.924 71.9553 700.484 71.8307 700.161 71.684C699.846 71.53 699.619 71.343 699.479 71.123C699.347 70.8957 699.281 70.628 699.281 70.32C699.281 69.7993 699.472 69.374 699.853 69.044C700.235 68.7067 700.777 68.538 701.481 68.538C701.958 68.538 702.358 68.626 702.68 68.802C703.01 68.9707 703.267 69.198 703.45 69.484C703.641 69.7627 703.766 70.0707 703.824 70.408L702.856 70.474C702.812 70.2687 702.732 70.089 702.614 69.935C702.497 69.7737 702.343 69.649 702.152 69.561C701.962 69.4657 701.734 69.418 701.47 69.418C701.052 69.418 700.744 69.4987 700.546 69.66C700.348 69.8213 700.249 70.0267 700.249 70.276C700.249 70.4667 700.293 70.6243 700.381 70.749C700.477 70.8663 700.627 70.9653 700.832 71.046C701.038 71.1193 701.313 71.1853 701.657 71.244C702.251 71.3467 702.713 71.4713 703.043 71.618C703.373 71.7647 703.604 71.9443 703.736 72.157C703.868 72.3697 703.934 72.63 703.934 72.938C703.934 73.2973 703.832 73.6053 703.626 73.862C703.428 74.1113 703.157 74.302 702.812 74.434C702.475 74.566 702.09 74.632 701.657 74.632ZM704.907 74.5V73.257H706.15V74.5H704.907ZM707.516 74.5V68.67H708.44V74.5H707.516ZM707.494 67.757V66.679H708.462V67.757H707.494ZM712.371 74.632C711.836 74.632 711.366 74.5073 710.963 74.258C710.56 74.0087 710.248 73.6567 710.028 73.202C709.808 72.74 709.698 72.201 709.698 71.585C709.698 70.9617 709.808 70.4227 710.028 69.968C710.248 69.5133 710.56 69.1613 710.963 68.912C711.366 68.6627 711.836 68.538 712.371 68.538C712.906 68.538 713.372 68.6627 713.768 68.912C714.171 69.1613 714.483 69.5133 714.703 69.968C714.923 70.4227 715.033 70.9617 715.033 71.585C715.033 72.201 714.923 72.74 714.703 73.202C714.483 73.6567 714.171 74.0087 713.768 74.258C713.372 74.5073 712.906 74.632 712.371 74.632ZM712.371 73.752C712.906 73.752 713.321 73.5613 713.614 73.18C713.915 72.7913 714.065 72.2597 714.065 71.585C714.065 70.9103 713.915 70.3823 713.614 70.001C713.321 69.6123 712.906 69.418 712.371 69.418C711.836 69.418 711.418 69.6123 711.117 70.001C710.816 70.3823 710.666 70.9103 710.666 71.585C710.666 72.2597 710.816 72.7913 711.117 73.18C711.418 73.5613 711.836 73.752 712.371 73.752ZM715.852 75.71L719.097 66.25H719.977L716.732 75.71H715.852Z"
    fill="#D4D4D8"
  />
  <rect
    x="48.5"
    y="143.5"
    width="210"
    height="117"
    rx="7.5"
    fill="white"
    stroke="#D4D4D8"
  />
  <rect
    x="48.5"
    y="143.5"
    width="210"
    height="117"
    rx="7.5"
    fill="white"
    stroke="#D4D4D8"
  />
  <path
    d="M64.012 170V162.19H66.432C67.6347 162.19 68.5587 162.531 69.204 163.213C69.8567 163.888 70.183 164.852 70.183 166.106C70.183 167.353 69.864 168.313 69.226 168.988C68.588 169.663 67.6787 170 66.498 170H64.012ZM64.958 169.076H66.432C67.3487 169.076 68.038 168.83 68.5 168.339C68.962 167.84 69.193 167.096 69.193 166.106C69.193 165.101 68.962 164.353 68.5 163.862C68.038 163.363 67.3487 163.114 66.432 163.114H64.958V169.076ZM73.9881 170.132C73.4381 170.132 72.9614 170.007 72.5581 169.758C72.1621 169.509 71.8541 169.157 71.6341 168.702C71.4214 168.24 71.3151 167.701 71.3151 167.085C71.3151 166.469 71.4214 165.934 71.6341 165.479C71.8541 165.024 72.1584 164.672 72.5471 164.423C72.9431 164.166 73.4087 164.038 73.9441 164.038C74.4501 164.038 74.8974 164.159 75.2861 164.401C75.6747 164.636 75.9754 164.98 76.1881 165.435C76.4081 165.89 76.5181 166.443 76.5181 167.096V167.371H72.2831C72.3197 167.994 72.4847 168.464 72.7781 168.779C73.0787 169.094 73.4821 169.252 73.9881 169.252C74.3694 169.252 74.6811 169.164 74.9231 168.988C75.1724 168.805 75.3447 168.566 75.4401 168.273L76.4301 168.35C76.2761 168.871 75.9827 169.3 75.5501 169.637C75.1247 169.967 74.6041 170.132 73.9881 170.132ZM72.2831 166.557H75.5061C75.4621 165.992 75.2971 165.578 75.0111 165.314C74.7324 165.05 74.3767 164.918 73.9441 164.918C73.4967 164.918 73.1264 165.057 72.8331 165.336C72.5471 165.607 72.3637 166.014 72.2831 166.557ZM79.0828 170L76.9598 164.17H77.9718L79.6658 169.054L81.3598 164.17H82.3718L80.2488 170H79.0828ZM83.5198 170V162.19H86.2038C87.1278 162.19 87.8208 162.359 88.2828 162.696C88.7448 163.033 88.9758 163.565 88.9758 164.291C88.9758 164.628 88.9025 164.925 88.7558 165.182C88.6091 165.439 88.4001 165.64 88.1288 165.787C87.8575 165.926 87.5348 165.996 87.1608 165.996L87.1498 165.93C87.8171 165.93 88.3415 166.11 88.7228 166.469C89.1115 166.821 89.3058 167.283 89.3058 167.855C89.3058 168.566 89.0748 169.102 88.6128 169.461C88.1508 169.82 87.4945 170 86.6438 170H83.5198ZM84.4658 169.076H86.6438C87.1791 169.076 87.5898 168.966 87.8758 168.746C88.1691 168.526 88.3158 168.211 88.3158 167.8C88.3158 167.389 88.1691 167.07 87.8758 166.843C87.5898 166.608 87.1791 166.491 86.6438 166.491H84.4658V169.076ZM84.4658 165.567H86.2038C86.7758 165.567 87.2158 165.461 87.5238 165.248C87.8318 165.028 87.9858 164.724 87.9858 164.335C87.9858 163.924 87.8355 163.62 87.5348 163.422C87.2415 163.217 86.7978 163.114 86.2038 163.114H84.4658V165.567ZM93.1199 170.132C92.5846 170.132 92.1152 170.007 91.7119 169.758C91.3086 169.509 90.9969 169.157 90.7769 168.702C90.5569 168.24 90.4469 167.701 90.4469 167.085C90.4469 166.462 90.5569 165.923 90.7769 165.468C90.9969 165.013 91.3086 164.661 91.7119 164.412C92.1152 164.163 92.5846 164.038 93.1199 164.038C93.6552 164.038 94.1209 164.163 94.5169 164.412C94.9202 164.661 95.2319 165.013 95.4519 165.468C95.6719 165.923 95.7819 166.462 95.7819 167.085C95.7819 167.701 95.6719 168.24 95.4519 168.702C95.2319 169.157 94.9202 169.509 94.5169 169.758C94.1209 170.007 93.6552 170.132 93.1199 170.132ZM93.1199 169.252C93.6552 169.252 94.0696 169.061 94.3629 168.68C94.6636 168.291 94.8139 167.76 94.8139 167.085C94.8139 166.41 94.6636 165.882 94.3629 165.501C94.0696 165.112 93.6552 164.918 93.1199 164.918C92.5846 164.918 92.1666 165.112 91.8659 165.501C91.5652 165.882 91.4149 166.41 91.4149 167.085C91.4149 167.76 91.5652 168.291 91.8659 168.68C92.1666 169.061 92.5846 169.252 93.1199 169.252ZM96.2377 170L98.3827 167.008L96.3477 164.17H97.4257L98.9547 166.37L100.44 164.17H101.54L99.5267 167.03L101.639 170H100.561L98.9547 167.646L97.3377 170H96.2377Z"
    fill="#D4D4D8"
  />
  <rect x="63" y="183" width="181" height="10" rx="5" fill="#E4E4E7" />
  <rect x="63" y="204" width="106" height="10" rx="5" fill="#E4E4E7" />
  <rect x="173" y="204" width="71" height="10" rx="5" fill="#E4E4E7" />
  <rect x="63" y="225" width="70" height="10" rx="5" fill="#E4E4E7" />
  <rect x="139" y="225" width="105" height="10" rx="5" fill="#E4E4E7" />
  <rect
    x="289.5"
    y="143.5"
    width="210"
    height="117"
    rx="7.5"
    fill="white"
    stroke="#D4D4D8"
  />
  <rect
    x="289.5"
    y="143.5"
    width="210"
    height="117"
    rx="7.5"
    fill="white"
    stroke="#D4D4D8"
  />
  <path
    d="M304.22 170L307.036 162.19H308.312L311.128 170H310.094L309.313 167.778H306.035L305.254 170H304.22ZM306.354 166.854H308.994L307.674 163.015L306.354 166.854ZM312.013 171.65V164.17H312.871L312.893 165.424L312.761 165.358C312.907 164.925 313.149 164.599 313.487 164.379C313.831 164.152 314.227 164.038 314.675 164.038C315.254 164.038 315.727 164.181 316.094 164.467C316.468 164.753 316.743 165.127 316.919 165.589C317.102 166.051 317.194 166.55 317.194 167.085C317.194 167.62 317.102 168.119 316.919 168.581C316.743 169.043 316.468 169.417 316.094 169.703C315.727 169.989 315.254 170.132 314.675 170.132C314.374 170.132 314.092 170.081 313.828 169.978C313.571 169.875 313.351 169.732 313.168 169.549C312.992 169.366 312.871 169.149 312.805 168.9L312.937 168.746V171.65H312.013ZM314.587 169.252C315.093 169.252 315.492 169.061 315.786 168.68C316.079 168.299 316.226 167.767 316.226 167.085C316.226 166.403 316.079 165.871 315.786 165.49C315.492 165.109 315.093 164.918 314.587 164.918C314.249 164.918 313.956 164.999 313.707 165.16C313.465 165.321 313.274 165.563 313.135 165.886C313.003 166.209 312.937 166.608 312.937 167.085C312.937 167.562 313.003 167.961 313.135 168.284C313.267 168.607 313.457 168.849 313.707 169.01C313.956 169.171 314.249 169.252 314.587 169.252ZM318.447 171.65V164.17H319.305L319.327 165.424L319.195 165.358C319.342 164.925 319.584 164.599 319.921 164.379C320.266 164.152 320.662 164.038 321.109 164.038C321.689 164.038 322.162 164.181 322.528 164.467C322.902 164.753 323.177 165.127 323.353 165.589C323.537 166.051 323.628 166.55 323.628 167.085C323.628 167.62 323.537 168.119 323.353 168.581C323.177 169.043 322.902 169.417 322.528 169.703C322.162 169.989 321.689 170.132 321.109 170.132C320.809 170.132 320.526 170.081 320.262 169.978C320.006 169.875 319.786 169.732 319.602 169.549C319.426 169.366 319.305 169.149 319.239 168.9L319.371 168.746V171.65H318.447ZM321.021 169.252C321.527 169.252 321.927 169.061 322.22 168.68C322.514 168.299 322.66 167.767 322.66 167.085C322.66 166.403 322.514 165.871 322.22 165.49C321.927 165.109 321.527 164.918 321.021 164.918C320.684 164.918 320.391 164.999 320.141 165.16C319.899 165.321 319.709 165.563 319.569 165.886C319.437 166.209 319.371 166.608 319.371 167.085C319.371 167.562 319.437 167.961 319.569 168.284C319.701 168.607 319.892 168.849 320.141 169.01C320.391 169.171 320.684 169.252 321.021 169.252ZM325.121 170V162.19H326.067V169.56L325.594 169.076H329.972V170H325.121ZM332.943 170.132C332.342 170.132 331.862 169.993 331.502 169.714C331.15 169.435 330.974 169.047 330.974 168.548C330.974 168.049 331.121 167.657 331.414 167.371C331.708 167.085 332.173 166.883 332.811 166.766L334.879 166.381C334.879 165.89 334.762 165.523 334.527 165.281C334.3 165.039 333.955 164.918 333.493 164.918C333.09 164.918 332.771 165.01 332.536 165.193C332.302 165.369 332.14 165.626 332.052 165.963L331.073 165.886C331.183 165.336 331.447 164.892 331.865 164.555C332.291 164.21 332.833 164.038 333.493 164.038C334.241 164.038 334.813 164.251 335.209 164.676C335.605 165.094 335.803 165.673 335.803 166.414V168.823C335.803 168.955 335.825 169.05 335.869 169.109C335.921 169.16 336.001 169.186 336.111 169.186H336.342V170C336.313 170.007 336.265 170.011 336.199 170.011C336.133 170.018 336.064 170.022 335.99 170.022C335.726 170.022 335.51 169.982 335.341 169.901C335.18 169.813 335.063 169.681 334.989 169.505C334.916 169.322 334.879 169.083 334.879 168.79L334.989 168.812C334.938 169.061 334.813 169.289 334.615 169.494C334.417 169.692 334.172 169.85 333.878 169.967C333.585 170.077 333.273 170.132 332.943 170.132ZM333.031 169.318C333.42 169.318 333.75 169.245 334.021 169.098C334.3 168.944 334.513 168.739 334.659 168.482C334.806 168.218 334.879 167.925 334.879 167.602V167.184L332.987 167.536C332.591 167.609 332.316 167.723 332.162 167.877C332.016 168.024 331.942 168.218 331.942 168.46C331.942 168.731 332.038 168.944 332.228 169.098C332.426 169.245 332.694 169.318 333.031 169.318ZM339.235 170.132C338.656 170.132 338.19 169.938 337.838 169.549C337.494 169.153 337.321 168.61 337.321 167.921V164.17H338.245V167.668C338.245 168.233 338.344 168.651 338.542 168.922C338.748 169.186 339.059 169.318 339.477 169.318C339.939 169.318 340.302 169.171 340.566 168.878C340.83 168.577 340.962 168.167 340.962 167.646V164.17H341.886V170H341.006V168.559L341.149 168.636C341.032 169.113 340.808 169.483 340.478 169.747C340.148 170.004 339.734 170.132 339.235 170.132ZM343.649 170V164.17H344.496L344.529 165.655L344.419 165.556C344.492 165.211 344.62 164.929 344.804 164.709C344.987 164.482 345.207 164.313 345.464 164.203C345.728 164.093 346.01 164.038 346.311 164.038C346.758 164.038 347.125 164.137 347.411 164.335C347.704 164.533 347.92 164.801 348.06 165.138C348.206 165.468 348.28 165.838 348.28 166.249V170H347.356V166.513C347.356 166.154 347.312 165.853 347.224 165.611C347.143 165.362 347.011 165.175 346.828 165.05C346.644 164.918 346.406 164.852 346.113 164.852C345.665 164.852 345.295 164.995 345.002 165.281C344.716 165.56 344.573 165.97 344.573 166.513V170H343.649ZM352.188 170.132C351.646 170.132 351.173 170.007 350.769 169.758C350.373 169.509 350.065 169.157 349.845 168.702C349.625 168.24 349.515 167.701 349.515 167.085C349.515 166.469 349.625 165.934 349.845 165.479C350.065 165.024 350.373 164.672 350.769 164.423C351.173 164.166 351.646 164.038 352.188 164.038C352.636 164.038 353.032 164.119 353.376 164.28C353.728 164.434 354.014 164.661 354.234 164.962C354.454 165.263 354.597 165.629 354.663 166.062L353.695 166.128C353.629 165.739 353.461 165.442 353.189 165.237C352.918 165.024 352.584 164.918 352.188 164.918C351.653 164.918 351.235 165.112 350.934 165.501C350.634 165.882 350.483 166.41 350.483 167.085C350.483 167.76 350.634 168.291 350.934 168.68C351.235 169.061 351.653 169.252 352.188 169.252C352.584 169.252 352.918 169.142 353.189 168.922C353.461 168.702 353.629 168.372 353.695 167.932L354.663 167.998C354.597 168.431 354.454 168.808 354.234 169.131C354.014 169.446 353.728 169.692 353.376 169.868C353.032 170.044 352.636 170.132 352.188 170.132ZM355.809 170V162.19H356.733V165.457L356.623 165.435C356.696 165.112 356.821 164.848 356.997 164.643C357.173 164.438 357.389 164.287 357.646 164.192C357.902 164.089 358.185 164.038 358.493 164.038C358.911 164.038 359.263 164.133 359.549 164.324C359.842 164.507 360.062 164.768 360.209 165.105C360.363 165.435 360.44 165.816 360.44 166.249V170H359.516V166.513C359.516 165.948 359.413 165.53 359.208 165.259C359.01 164.988 358.705 164.852 358.295 164.852C357.825 164.852 357.448 164.995 357.162 165.281C356.876 165.567 356.733 165.981 356.733 166.524V170H355.809ZM361.985 171.65V164.17H362.843L362.865 165.424L362.733 165.358C362.88 164.925 363.122 164.599 363.459 164.379C363.804 164.152 364.2 164.038 364.647 164.038C365.227 164.038 365.7 164.181 366.066 164.467C366.44 164.753 366.715 165.127 366.891 165.589C367.075 166.051 367.166 166.55 367.166 167.085C367.166 167.62 367.075 168.119 366.891 168.581C366.715 169.043 366.44 169.417 366.066 169.703C365.7 169.989 365.227 170.132 364.647 170.132C364.347 170.132 364.064 170.081 363.8 169.978C363.544 169.875 363.324 169.732 363.14 169.549C362.964 169.366 362.843 169.149 362.777 168.9L362.909 168.746V171.65H361.985ZM364.559 169.252C365.065 169.252 365.465 169.061 365.758 168.68C366.052 168.299 366.198 167.767 366.198 167.085C366.198 166.403 366.052 165.871 365.758 165.49C365.465 165.109 365.065 164.918 364.559 164.918C364.222 164.918 363.929 164.999 363.679 165.16C363.437 165.321 363.247 165.563 363.107 165.886C362.975 166.209 362.909 166.608 362.909 167.085C362.909 167.562 362.975 167.961 363.107 168.284C363.239 168.607 363.43 168.849 363.679 169.01C363.929 169.171 364.222 169.252 364.559 169.252ZM370.143 170.132C369.542 170.132 369.062 169.993 368.702 169.714C368.35 169.435 368.174 169.047 368.174 168.548C368.174 168.049 368.321 167.657 368.614 167.371C368.908 167.085 369.373 166.883 370.011 166.766L372.079 166.381C372.079 165.89 371.962 165.523 371.727 165.281C371.5 165.039 371.155 164.918 370.693 164.918C370.29 164.918 369.971 165.01 369.736 165.193C369.502 165.369 369.34 165.626 369.252 165.963L368.273 165.886C368.383 165.336 368.647 164.892 369.065 164.555C369.491 164.21 370.033 164.038 370.693 164.038C371.441 164.038 372.013 164.251 372.409 164.676C372.805 165.094 373.003 165.673 373.003 166.414V168.823C373.003 168.955 373.025 169.05 373.069 169.109C373.121 169.16 373.201 169.186 373.311 169.186H373.542V170C373.513 170.007 373.465 170.011 373.399 170.011C373.333 170.018 373.264 170.022 373.19 170.022C372.926 170.022 372.71 169.982 372.541 169.901C372.38 169.813 372.263 169.681 372.189 169.505C372.116 169.322 372.079 169.083 372.079 168.79L372.189 168.812C372.138 169.061 372.013 169.289 371.815 169.494C371.617 169.692 371.372 169.85 371.078 169.967C370.785 170.077 370.473 170.132 370.143 170.132ZM370.231 169.318C370.62 169.318 370.95 169.245 371.221 169.098C371.5 168.944 371.713 168.739 371.859 168.482C372.006 168.218 372.079 167.925 372.079 167.602V167.184L370.187 167.536C369.791 167.609 369.516 167.723 369.362 167.877C369.216 168.024 369.142 168.218 369.142 168.46C369.142 168.731 369.238 168.944 369.428 169.098C369.626 169.245 369.894 169.318 370.231 169.318ZM376.633 170.132C376.127 170.132 375.687 170.007 375.313 169.758C374.946 169.509 374.664 169.157 374.466 168.702C374.268 168.247 374.169 167.708 374.169 167.085C374.169 166.462 374.268 165.923 374.466 165.468C374.664 165.013 374.946 164.661 375.313 164.412C375.687 164.163 376.127 164.038 376.633 164.038C377.021 164.038 377.377 164.122 377.7 164.291C378.022 164.452 378.264 164.683 378.426 164.984V162.19H379.35V170H378.514L378.481 169.12C378.319 169.435 378.074 169.685 377.744 169.868C377.414 170.044 377.043 170.132 376.633 170.132ZM376.82 169.252C377.164 169.252 377.454 169.164 377.689 168.988C377.931 168.812 378.114 168.563 378.239 168.24C378.363 167.91 378.426 167.525 378.426 167.085C378.426 166.63 378.363 166.242 378.239 165.919C378.114 165.596 377.931 165.351 377.689 165.182C377.454 165.006 377.164 164.918 376.82 164.918C376.306 164.918 375.896 165.112 375.588 165.501C375.287 165.882 375.137 166.41 375.137 167.085C375.137 167.752 375.287 168.28 375.588 168.669C375.896 169.058 376.306 169.252 376.82 169.252Z"
    fill="#D4D4D8"
  />
  <rect x="304" y="183" width="181" height="10" rx="5" fill="#E4E4E7" />
  <rect x="304" y="204" width="106" height="10" rx="5" fill="#E4E4E7" />
  <rect x="414" y="204" width="71" height="10" rx="5" fill="#E4E4E7" />
  <rect x="304" y="225" width="70" height="10" rx="5" fill="#E4E4E7" />
  <rect x="380" y="225" width="105" height="10" rx="5" fill="#E4E4E7" />
  <rect
    x="530.5"
    y="143.5"
    width="210"
    height="117"
    rx="7.5"
    fill="white"
    stroke="#D4D4D8"
  />
  <rect
    x="530.5"
    y="143.5"
    width="210"
    height="117"
    rx="7.5"
    fill="white"
    stroke="#D4D4D8"
  />
  <path
    d="M546.012 170V162.19H548.432C549.635 162.19 550.559 162.531 551.204 163.213C551.857 163.888 552.183 164.852 552.183 166.106C552.183 167.353 551.864 168.313 551.226 168.988C550.588 169.663 549.679 170 548.498 170H546.012ZM546.958 169.076H548.432C549.349 169.076 550.038 168.83 550.5 168.339C550.962 167.84 551.193 167.096 551.193 166.106C551.193 165.101 550.962 164.353 550.5 163.862C550.038 163.363 549.349 163.114 548.432 163.114H546.958V169.076ZM555.241 170.132C554.64 170.132 554.159 169.993 553.8 169.714C553.448 169.435 553.272 169.047 553.272 168.548C553.272 168.049 553.419 167.657 553.712 167.371C554.005 167.085 554.471 166.883 555.109 166.766L557.177 166.381C557.177 165.89 557.06 165.523 556.825 165.281C556.598 165.039 556.253 164.918 555.791 164.918C555.388 164.918 555.069 165.01 554.834 165.193C554.599 165.369 554.438 165.626 554.35 165.963L553.371 165.886C553.481 165.336 553.745 164.892 554.163 164.555C554.588 164.21 555.131 164.038 555.791 164.038C556.539 164.038 557.111 164.251 557.507 164.676C557.903 165.094 558.101 165.673 558.101 166.414V168.823C558.101 168.955 558.123 169.05 558.167 169.109C558.218 169.16 558.299 169.186 558.409 169.186H558.64V170C558.611 170.007 558.563 170.011 558.497 170.011C558.431 170.018 558.361 170.022 558.288 170.022C558.024 170.022 557.808 169.982 557.639 169.901C557.478 169.813 557.36 169.681 557.287 169.505C557.214 169.322 557.177 169.083 557.177 168.79L557.287 168.812C557.236 169.061 557.111 169.289 556.913 169.494C556.715 169.692 556.469 169.85 556.176 169.967C555.883 170.077 555.571 170.132 555.241 170.132ZM555.329 169.318C555.718 169.318 556.048 169.245 556.319 169.098C556.598 168.944 556.81 168.739 556.957 168.482C557.104 168.218 557.177 167.925 557.177 167.602V167.184L555.285 167.536C554.889 167.609 554.614 167.723 554.46 167.877C554.313 168.024 554.24 168.218 554.24 168.46C554.24 168.731 554.335 168.944 554.526 169.098C554.724 169.245 554.992 169.318 555.329 169.318ZM561.528 170C561 170 560.607 169.879 560.351 169.637C560.101 169.395 559.977 169.017 559.977 168.504V162.806H560.901V168.482C560.901 168.746 560.959 168.929 561.077 169.032C561.194 169.135 561.374 169.186 561.616 169.186H562.452V170H561.528ZM559.119 164.984V164.17H562.452V164.984H559.119ZM565.167 170.132C564.566 170.132 564.085 169.993 563.726 169.714C563.374 169.435 563.198 169.047 563.198 168.548C563.198 168.049 563.345 167.657 563.638 167.371C563.931 167.085 564.397 166.883 565.035 166.766L567.103 166.381C567.103 165.89 566.986 165.523 566.751 165.281C566.524 165.039 566.179 164.918 565.717 164.918C565.314 164.918 564.995 165.01 564.76 165.193C564.525 165.369 564.364 165.626 564.276 165.963L563.297 165.886C563.407 165.336 563.671 164.892 564.089 164.555C564.514 164.21 565.057 164.038 565.717 164.038C566.465 164.038 567.037 164.251 567.433 164.676C567.829 165.094 568.027 165.673 568.027 166.414V168.823C568.027 168.955 568.049 169.05 568.093 169.109C568.144 169.16 568.225 169.186 568.335 169.186H568.566V170C568.537 170.007 568.489 170.011 568.423 170.011C568.357 170.018 568.287 170.022 568.214 170.022C567.95 170.022 567.734 169.982 567.565 169.901C567.404 169.813 567.286 169.681 567.213 169.505C567.14 169.322 567.103 169.083 567.103 168.79L567.213 168.812C567.162 169.061 567.037 169.289 566.839 169.494C566.641 169.692 566.395 169.85 566.102 169.967C565.809 170.077 565.497 170.132 565.167 170.132ZM565.255 169.318C565.644 169.318 565.974 169.245 566.245 169.098C566.524 168.944 566.736 168.739 566.883 168.482C567.03 168.218 567.103 167.925 567.103 167.602V167.184L565.211 167.536C564.815 167.609 564.54 167.723 564.386 167.877C564.239 168.024 564.166 168.218 564.166 168.46C564.166 168.731 564.261 168.944 564.452 169.098C564.65 169.245 564.918 169.318 565.255 169.318ZM572.24 170.132C571.836 170.132 571.477 170.044 571.162 169.868C570.846 169.685 570.604 169.435 570.436 169.12L570.403 170H569.567V162.19H570.491V164.984C570.637 164.742 570.865 164.526 571.173 164.335C571.481 164.137 571.836 164.038 572.24 164.038C572.753 164.038 573.197 164.163 573.571 164.412C573.945 164.661 574.234 165.013 574.44 165.468C574.645 165.923 574.748 166.462 574.748 167.085C574.748 167.708 574.645 168.247 574.44 168.702C574.234 169.157 573.945 169.509 573.571 169.758C573.197 170.007 572.753 170.132 572.24 170.132ZM572.185 169.252C572.676 169.252 573.065 169.058 573.351 168.669C573.637 168.28 573.78 167.752 573.78 167.085C573.78 166.41 573.637 165.882 573.351 165.501C573.065 165.112 572.683 164.918 572.207 164.918C571.847 164.918 571.539 165.006 571.283 165.182C571.026 165.351 570.828 165.596 570.689 165.919C570.557 166.242 570.491 166.63 570.491 167.085C570.491 167.525 570.557 167.91 570.689 168.24C570.828 168.563 571.022 168.812 571.272 168.988C571.528 169.164 571.833 169.252 572.185 169.252ZM577.724 170.132C577.123 170.132 576.643 169.993 576.283 169.714C575.931 169.435 575.755 169.047 575.755 168.548C575.755 168.049 575.902 167.657 576.195 167.371C576.489 167.085 576.954 166.883 577.592 166.766L579.66 166.381C579.66 165.89 579.543 165.523 579.308 165.281C579.081 165.039 578.736 164.918 578.274 164.918C577.871 164.918 577.552 165.01 577.317 165.193C577.083 165.369 576.921 165.626 576.833 165.963L575.854 165.886C575.964 165.336 576.228 164.892 576.646 164.555C577.072 164.21 577.614 164.038 578.274 164.038C579.022 164.038 579.594 164.251 579.99 164.676C580.386 165.094 580.584 165.673 580.584 166.414V168.823C580.584 168.955 580.606 169.05 580.65 169.109C580.702 169.16 580.782 169.186 580.892 169.186H581.123V170C581.094 170.007 581.046 170.011 580.98 170.011C580.914 170.018 580.845 170.022 580.771 170.022C580.507 170.022 580.291 169.982 580.122 169.901C579.961 169.813 579.844 169.681 579.77 169.505C579.697 169.322 579.66 169.083 579.66 168.79L579.77 168.812C579.719 169.061 579.594 169.289 579.396 169.494C579.198 169.692 578.953 169.85 578.659 169.967C578.366 170.077 578.054 170.132 577.724 170.132ZM577.812 169.318C578.201 169.318 578.531 169.245 578.802 169.098C579.081 168.944 579.294 168.739 579.44 168.482C579.587 168.218 579.66 167.925 579.66 167.602V167.184L577.768 167.536C577.372 167.609 577.097 167.723 576.943 167.877C576.797 168.024 576.723 168.218 576.723 168.46C576.723 168.731 576.819 168.944 577.009 169.098C577.207 169.245 577.475 169.318 577.812 169.318ZM584.269 170.132C583.748 170.132 583.304 170.048 582.938 169.879C582.578 169.71 582.296 169.479 582.091 169.186C581.893 168.885 581.779 168.544 581.75 168.163L582.718 168.097C582.776 168.449 582.927 168.731 583.169 168.944C583.411 169.149 583.777 169.252 584.269 169.252C584.665 169.252 584.98 169.19 585.215 169.065C585.457 168.933 585.578 168.724 585.578 168.438C585.578 168.284 585.541 168.156 585.468 168.053C585.394 167.95 585.251 167.862 585.039 167.789C584.826 167.708 584.511 167.631 584.093 167.558C583.535 167.455 583.095 167.331 582.773 167.184C582.457 167.03 582.23 166.843 582.091 166.623C581.959 166.396 581.893 166.128 581.893 165.82C581.893 165.299 582.083 164.874 582.465 164.544C582.846 164.207 583.389 164.038 584.093 164.038C584.569 164.038 584.969 164.126 585.292 164.302C585.622 164.471 585.878 164.698 586.062 164.984C586.252 165.263 586.377 165.571 586.436 165.908L585.468 165.974C585.424 165.769 585.343 165.589 585.226 165.435C585.108 165.274 584.954 165.149 584.764 165.061C584.573 164.966 584.346 164.918 584.082 164.918C583.664 164.918 583.356 164.999 583.158 165.16C582.96 165.321 582.861 165.527 582.861 165.776C582.861 165.967 582.905 166.124 582.993 166.249C583.088 166.366 583.238 166.465 583.444 166.546C583.649 166.619 583.924 166.685 584.269 166.744C584.863 166.847 585.325 166.971 585.655 167.118C585.985 167.265 586.216 167.444 586.348 167.657C586.48 167.87 586.546 168.13 586.546 168.438C586.546 168.797 586.443 169.105 586.238 169.362C586.04 169.611 585.768 169.802 585.424 169.934C585.086 170.066 584.701 170.132 584.269 170.132ZM590.084 170.132C589.534 170.132 589.057 170.007 588.654 169.758C588.258 169.509 587.95 169.157 587.73 168.702C587.517 168.24 587.411 167.701 587.411 167.085C587.411 166.469 587.517 165.934 587.73 165.479C587.95 165.024 588.254 164.672 588.643 164.423C589.039 164.166 589.504 164.038 590.04 164.038C590.546 164.038 590.993 164.159 591.382 164.401C591.77 164.636 592.071 164.98 592.284 165.435C592.504 165.89 592.614 166.443 592.614 167.096V167.371H588.379C588.415 167.994 588.58 168.464 588.874 168.779C589.174 169.094 589.578 169.252 590.084 169.252C590.465 169.252 590.777 169.164 591.019 168.988C591.268 168.805 591.44 168.566 591.536 168.273L592.526 168.35C592.372 168.871 592.078 169.3 591.646 169.637C591.22 169.967 590.7 170.132 590.084 170.132ZM588.379 166.557H591.602C591.558 165.992 591.393 165.578 591.107 165.314C590.828 165.05 590.472 164.918 590.04 164.918C589.592 164.918 589.222 165.057 588.929 165.336C588.643 165.607 588.459 166.014 588.379 166.557Z"
    fill="#D4D4D8"
  />
  <rect x="545" y="183" width="181" height="10" rx="5" fill="#E4E4E7" />
  <rect x="545" y="204" width="106" height="10" rx="5" fill="#E4E4E7" />
  <rect x="655" y="204" width="71" height="10" rx="5" fill="#E4E4E7" />
  <rect x="545" y="225" width="70" height="10" rx="5" fill="#E4E4E7" />
  <rect x="621" y="225" width="105" height="10" rx="5" fill="#E4E4E7" />
  <defs>
    <linearGradient
      id="paint0_linear_416_279"
      x1="394"
      y1="269.402"
      x2="394"
      y2="310"
      gradientUnits="userSpaceOnUse"
    >
      <stop stop-color="#FAFAFA" stop-opacity="0" />
      <stop offset="1" stop-color="#FAFAFA" />
    </linearGradient>
    <clipPath id="clip0_416_279">
      <rect width="16" height="16" fill="white" transform="translate(63 63)" />
    </clipPath>
    <clipPath id="clip1_416_279">
      <rect width="16" height="16" fill="white" transform="translate(304 63)" />
    </clipPath>
    <clipPath id="clip2_416_279">
      <rect width="16" height="16" fill="white" transform="translate(545 63)" />
    </clipPath>
  </defs>
</svg>
