<svg
  viewBox="0 0 708 310"
  fill="none"
  xmlns="http://www.w3.org/2000/svg"
>
  <rect width="788" height="310" fill="#FAFAFA" />
  <rect
    y="269.402"
    width="788"
    height="40.5977"
    fill="url(#paint0_linear_416_342)"
  />
  <g clip-path="url(#clip0_416_342)">
    <mask
      id="mask0_416_342"
      style="mask-type: luminance"
      maskUnits="userSpaceOnUse"
      x="30"
      y="40"
      width="40"
      height="39"
    >
      <path d="M69.4634 40H30.4634V79H69.4634V40Z" fill="white" />
    </mask>
    <g mask="url(#mask0_416_342)">
      <path
        d="M69.4634 40H30.4634V79H69.4634V40Z"
        fill="url(#paint1_linear_416_342)"
      />
      <path
        fill-rule="evenodd"
        clip-rule="evenodd"
        d="M53.5406 58.0769C54.1551 58.077 54.6533 58.5752 54.6533 59.1897V62.5281C54.6533 63.1427 54.1551 63.6409 53.5406 63.6409H47.1612C46.6197 63.6637 46.1795 64.0721 46.1074 64.5994V67.4094C46.1074 68.0239 45.6091 68.5222 44.9947 68.5222H41.6563C41.0417 68.5222 40.5436 68.024 40.5435 67.4094V64.0711C40.5435 63.4565 41.0417 62.9583 41.6563 62.9583H44.3535C44.9417 62.9287 45.4096 62.4439 45.4097 61.8484V59.1897C45.4097 58.5752 45.9079 58.0769 46.5225 58.0769H53.5406Z"
        fill="url(#paint2_linear_416_342)"
      />
      <path
        fill-rule="evenodd"
        clip-rule="evenodd"
        d="M56.5962 50.4778C57.2106 50.4778 57.7088 50.9761 57.709 51.5906V54.178C57.7188 54.7839 58.2125 55.272 58.8208 55.2722H61.3506C61.965 55.2723 62.4632 55.7706 62.4634 56.385V59.7234C62.4632 60.3378 61.965 60.836 61.3506 60.8362H58.0122C57.3978 60.836 56.8995 60.3378 56.8994 59.7234V57.1213C56.8847 56.5488 56.4385 56.0848 55.8735 56.0417H44.0796C43.5108 56.0707 43.0559 56.5257 43.0268 57.0945V59.7234C43.0267 60.3378 42.5285 60.8362 41.914 60.8362H38.5757C37.9614 60.8359 37.463 60.3377 37.4629 59.7234V56.385C37.463 55.7707 37.9614 55.2724 38.5757 55.2722H41.3247C41.8647 55.231 42.2967 54.8053 42.3467 54.2678V51.5906C42.3468 50.9762 42.8451 50.4779 43.4594 50.4778H56.5962Z"
        fill="url(#paint3_linear_416_342)"
      />
    </g>
  </g>
  <path
    d="M91.1194 65.5V52.72H95.7094C97.1374 52.72 98.2474 53.062 99.0394 53.746C99.8314 54.43 100.227 55.378 100.227 56.59C100.227 57.406 100.047 58.114 99.6874 58.714C99.3274 59.302 98.8114 59.752 98.1394 60.064C97.4674 60.376 96.6574 60.532 95.7094 60.532H92.6674V65.5H91.1194ZM92.6674 59.02H95.7094C96.6694 59.02 97.3894 58.816 97.8694 58.408C98.3614 58 98.6074 57.394 98.6074 56.59C98.6074 55.81 98.3614 55.222 97.8694 54.826C97.3894 54.43 96.6694 54.232 95.7094 54.232H92.6674V59.02ZM104.482 65.5C103.93 65.5 103.48 65.356 103.132 65.068C102.784 64.78 102.61 64.324 102.61 63.7V52.72H104.122V63.574C104.122 63.766 104.17 63.916 104.266 64.024C104.374 64.12 104.524 64.168 104.716 64.168H105.544V65.5H104.482ZM111.03 65.716C110.13 65.716 109.35 65.512 108.69 65.104C108.042 64.696 107.538 64.12 107.178 63.376C106.83 62.62 106.656 61.738 106.656 60.73C106.656 59.722 106.83 58.846 107.178 58.102C107.538 57.358 108.036 56.782 108.672 56.374C109.32 55.954 110.082 55.744 110.958 55.744C111.786 55.744 112.518 55.942 113.154 56.338C113.79 56.722 114.282 57.286 114.63 58.03C114.99 58.774 115.17 59.68 115.17 60.748V61.198H108.24C108.3 62.218 108.57 62.986 109.05 63.502C109.542 64.018 110.202 64.276 111.03 64.276C111.654 64.276 112.164 64.132 112.56 63.844C112.968 63.544 113.25 63.154 113.406 62.674L115.026 62.8C114.774 63.652 114.294 64.354 113.586 64.906C112.89 65.446 112.038 65.716 111.03 65.716ZM108.24 59.866H113.514C113.442 58.942 113.172 58.264 112.704 57.832C112.248 57.4 111.666 57.184 110.958 57.184C110.226 57.184 109.62 57.412 109.14 57.868C108.672 58.312 108.372 58.978 108.24 59.866ZM120.038 65.716C119.054 65.716 118.268 65.488 117.68 65.032C117.104 64.576 116.816 63.94 116.816 63.124C116.816 62.308 117.056 61.666 117.536 61.198C118.016 60.73 118.778 60.4 119.822 60.208L123.206 59.578C123.206 58.774 123.014 58.174 122.63 57.778C122.258 57.382 121.694 57.184 120.938 57.184C120.278 57.184 119.756 57.334 119.372 57.634C118.988 57.922 118.724 58.342 118.58 58.894L116.978 58.768C117.158 57.868 117.59 57.142 118.274 56.59C118.97 56.026 119.858 55.744 120.938 55.744C122.162 55.744 123.098 56.092 123.746 56.788C124.394 57.472 124.718 58.42 124.718 59.632V63.574C124.718 63.79 124.754 63.946 124.826 64.042C124.91 64.126 125.042 64.168 125.222 64.168H125.6V65.5C125.552 65.512 125.474 65.518 125.366 65.518C125.258 65.53 125.144 65.536 125.024 65.536C124.592 65.536 124.238 65.47 123.962 65.338C123.698 65.194 123.506 64.978 123.386 64.69C123.266 64.39 123.206 64 123.206 63.52L123.386 63.556C123.302 63.964 123.098 64.336 122.774 64.672C122.45 64.996 122.048 65.254 121.568 65.446C121.088 65.626 120.578 65.716 120.038 65.716ZM120.182 64.384C120.818 64.384 121.358 64.264 121.802 64.024C122.258 63.772 122.606 63.436 122.846 63.016C123.086 62.584 123.206 62.104 123.206 61.576V60.892L120.11 61.468C119.462 61.588 119.012 61.774 118.76 62.026C118.52 62.266 118.4 62.584 118.4 62.98C118.4 63.424 118.556 63.772 118.868 64.024C119.192 64.264 119.63 64.384 120.182 64.384ZM130.747 65.716C129.895 65.716 129.169 65.578 128.569 65.302C127.981 65.026 127.519 64.648 127.183 64.168C126.859 63.676 126.673 63.118 126.625 62.494L128.209 62.386C128.305 62.962 128.551 63.424 128.947 63.772C129.343 64.108 129.943 64.276 130.747 64.276C131.395 64.276 131.911 64.174 132.295 63.97C132.691 63.754 132.889 63.412 132.889 62.944C132.889 62.692 132.829 62.482 132.709 62.314C132.589 62.146 132.355 62.002 132.007 61.882C131.659 61.75 131.143 61.624 130.459 61.504C129.547 61.336 128.827 61.132 128.299 60.892C127.783 60.64 127.411 60.334 127.183 59.974C126.967 59.602 126.859 59.164 126.859 58.66C126.859 57.808 127.171 57.112 127.795 56.572C128.419 56.02 129.307 55.744 130.459 55.744C131.239 55.744 131.893 55.888 132.421 56.176C132.961 56.452 133.381 56.824 133.681 57.292C133.993 57.748 134.197 58.252 134.293 58.804L132.709 58.912C132.637 58.576 132.505 58.282 132.313 58.03C132.121 57.766 131.869 57.562 131.557 57.418C131.245 57.262 130.873 57.184 130.441 57.184C129.757 57.184 129.253 57.316 128.929 57.58C128.605 57.844 128.443 58.18 128.443 58.588C128.443 58.9 128.515 59.158 128.659 59.362C128.815 59.554 129.061 59.716 129.397 59.848C129.733 59.968 130.183 60.076 130.747 60.172C131.719 60.34 132.475 60.544 133.015 60.784C133.555 61.024 133.933 61.318 134.149 61.666C134.365 62.014 134.473 62.44 134.473 62.944C134.473 63.532 134.305 64.036 133.969 64.456C133.645 64.864 133.201 65.176 132.637 65.392C132.085 65.608 131.455 65.716 130.747 65.716ZM140.262 65.716C139.362 65.716 138.582 65.512 137.922 65.104C137.274 64.696 136.77 64.12 136.41 63.376C136.062 62.62 135.888 61.738 135.888 60.73C135.888 59.722 136.062 58.846 136.41 58.102C136.77 57.358 137.268 56.782 137.904 56.374C138.552 55.954 139.314 55.744 140.19 55.744C141.018 55.744 141.75 55.942 142.386 56.338C143.022 56.722 143.514 57.286 143.862 58.03C144.222 58.774 144.402 59.68 144.402 60.748V61.198H137.472C137.532 62.218 137.802 62.986 138.282 63.502C138.774 64.018 139.434 64.276 140.262 64.276C140.886 64.276 141.396 64.132 141.792 63.844C142.2 63.544 142.482 63.154 142.638 62.674L144.258 62.8C144.006 63.652 143.526 64.354 142.818 64.906C142.122 65.446 141.27 65.716 140.262 65.716ZM137.472 59.866H142.746C142.674 58.942 142.404 58.264 141.936 57.832C141.48 57.4 140.898 57.184 140.19 57.184C139.458 57.184 138.852 57.412 138.372 57.868C137.904 58.312 137.604 58.978 137.472 59.866ZM151.126 65.5V52.72H152.638V58.066L152.458 58.03C152.578 57.502 152.782 57.07 153.07 56.734C153.358 56.398 153.712 56.152 154.132 55.996C154.552 55.828 155.014 55.744 155.518 55.744C156.202 55.744 156.778 55.9 157.246 56.212C157.726 56.512 158.086 56.938 158.326 57.49C158.578 58.03 158.704 58.654 158.704 59.362V65.5H157.192V59.794C157.192 58.87 157.024 58.186 156.688 57.742C156.364 57.298 155.866 57.076 155.194 57.076C154.426 57.076 153.808 57.31 153.34 57.778C152.872 58.246 152.638 58.924 152.638 59.812V65.5H151.126ZM165.1 65.716C164.2 65.716 163.42 65.512 162.76 65.104C162.112 64.696 161.608 64.12 161.248 63.376C160.9 62.62 160.726 61.738 160.726 60.73C160.726 59.722 160.9 58.846 161.248 58.102C161.608 57.358 162.106 56.782 162.742 56.374C163.39 55.954 164.152 55.744 165.028 55.744C165.856 55.744 166.588 55.942 167.224 56.338C167.86 56.722 168.352 57.286 168.7 58.03C169.06 58.774 169.24 59.68 169.24 60.748V61.198H162.31C162.37 62.218 162.64 62.986 163.12 63.502C163.612 64.018 164.272 64.276 165.1 64.276C165.724 64.276 166.234 64.132 166.63 63.844C167.038 63.544 167.32 63.154 167.476 62.674L169.096 62.8C168.844 63.652 168.364 64.354 167.656 64.906C166.96 65.446 166.108 65.716 165.1 65.716ZM162.31 59.866H167.584C167.512 58.942 167.242 58.264 166.774 57.832C166.318 57.4 165.736 57.184 165.028 57.184C164.296 57.184 163.69 57.412 163.21 57.868C162.742 58.312 162.442 58.978 162.31 59.866ZM173.248 65.5C172.696 65.5 172.246 65.356 171.898 65.068C171.55 64.78 171.376 64.324 171.376 63.7V52.72H172.888V63.574C172.888 63.766 172.936 63.916 173.032 64.024C173.14 64.12 173.29 64.168 173.482 64.168H174.31V65.5H173.248ZM176.105 68.2V55.96H177.509L177.545 58.012L177.329 57.904C177.569 57.196 177.965 56.662 178.517 56.302C179.081 55.93 179.729 55.744 180.461 55.744C181.409 55.744 182.183 55.978 182.783 56.446C183.395 56.914 183.845 57.526 184.133 58.282C184.433 59.038 184.583 59.854 184.583 60.73C184.583 61.606 184.433 62.422 184.133 63.178C183.845 63.934 183.395 64.546 182.783 65.014C182.183 65.482 181.409 65.716 180.461 65.716C179.969 65.716 179.507 65.632 179.075 65.464C178.655 65.296 178.295 65.062 177.995 64.762C177.707 64.462 177.509 64.108 177.401 63.7L177.617 63.448V68.2H176.105ZM180.317 64.276C181.145 64.276 181.799 63.964 182.279 63.34C182.759 62.716 182.999 61.846 182.999 60.73C182.999 59.614 182.759 58.744 182.279 58.12C181.799 57.496 181.145 57.184 180.317 57.184C179.765 57.184 179.285 57.316 178.877 57.58C178.481 57.844 178.169 58.24 177.941 58.768C177.725 59.296 177.617 59.95 177.617 60.73C177.617 61.51 177.725 62.164 177.941 62.692C178.157 63.22 178.469 63.616 178.877 63.88C179.285 64.144 179.765 64.276 180.317 64.276ZM191.31 65.5V55.96H192.696L192.75 58.372L192.534 58.3C192.642 57.772 192.828 57.322 193.092 56.95C193.368 56.566 193.704 56.272 194.1 56.068C194.496 55.852 194.934 55.744 195.414 55.744C196.242 55.744 196.914 55.972 197.43 56.428C197.958 56.884 198.288 57.52 198.42 58.336L198.132 58.318C198.228 57.766 198.402 57.304 198.654 56.932C198.918 56.548 199.254 56.254 199.662 56.05C200.07 55.846 200.538 55.744 201.066 55.744C201.75 55.744 202.326 55.888 202.794 56.176C203.262 56.452 203.616 56.86 203.856 57.4C204.096 57.94 204.216 58.594 204.216 59.362V65.5H202.704V59.686C202.704 58.822 202.536 58.174 202.2 57.742C201.864 57.298 201.366 57.076 200.706 57.076C200.262 57.076 199.872 57.184 199.536 57.4C199.212 57.616 198.96 57.928 198.78 58.336C198.6 58.732 198.51 59.218 198.51 59.794V65.5H196.998V59.794C196.998 58.942 196.848 58.276 196.548 57.796C196.248 57.316 195.744 57.076 195.036 57.076C194.592 57.076 194.202 57.184 193.866 57.4C193.542 57.616 193.284 57.928 193.092 58.336C192.912 58.744 192.822 59.23 192.822 59.794V65.5H191.31ZM210.61 65.716C209.71 65.716 208.93 65.512 208.27 65.104C207.622 64.696 207.118 64.12 206.758 63.376C206.41 62.62 206.236 61.738 206.236 60.73C206.236 59.722 206.41 58.846 206.758 58.102C207.118 57.358 207.616 56.782 208.252 56.374C208.9 55.954 209.662 55.744 210.538 55.744C211.366 55.744 212.098 55.942 212.734 56.338C213.37 56.722 213.862 57.286 214.21 58.03C214.57 58.774 214.75 59.68 214.75 60.748V61.198H207.82C207.88 62.218 208.15 62.986 208.63 63.502C209.122 64.018 209.782 64.276 210.61 64.276C211.234 64.276 211.744 64.132 212.14 63.844C212.548 63.544 212.83 63.154 212.986 62.674L214.606 62.8C214.354 63.652 213.874 64.354 213.166 64.906C212.47 65.446 211.618 65.716 210.61 65.716ZM207.82 59.866H213.094C213.022 58.942 212.752 58.264 212.284 57.832C211.828 57.4 211.246 57.184 210.538 57.184C209.806 57.184 209.2 57.412 208.72 57.868C208.252 58.312 207.952 58.978 207.82 59.866ZM224.966 65.5C224.102 65.5 223.46 65.302 223.04 64.906C222.632 64.51 222.428 63.892 222.428 63.052V53.728H223.94V63.016C223.94 63.448 224.036 63.748 224.228 63.916C224.42 64.084 224.714 64.168 225.11 64.168H226.478V65.5H224.966ZM221.024 57.292V55.96H226.478V57.292H221.024ZM231.967 65.716C231.091 65.716 230.323 65.512 229.663 65.104C229.003 64.696 228.493 64.12 228.133 63.376C227.773 62.62 227.593 61.738 227.593 60.73C227.593 59.71 227.773 58.828 228.133 58.084C228.493 57.34 229.003 56.764 229.663 56.356C230.323 55.948 231.091 55.744 231.967 55.744C232.843 55.744 233.605 55.948 234.253 56.356C234.913 56.764 235.423 57.34 235.783 58.084C236.143 58.828 236.323 59.71 236.323 60.73C236.323 61.738 236.143 62.62 235.783 63.376C235.423 64.12 234.913 64.696 234.253 65.104C233.605 65.512 232.843 65.716 231.967 65.716ZM231.967 64.276C232.843 64.276 233.521 63.964 234.001 63.34C234.493 62.704 234.739 61.834 234.739 60.73C234.739 59.626 234.493 58.762 234.001 58.138C233.521 57.502 232.843 57.184 231.967 57.184C231.091 57.184 230.407 57.502 229.915 58.138C229.423 58.762 229.177 59.626 229.177 60.73C229.177 61.834 229.423 62.704 229.915 63.34C230.407 63.964 231.091 64.276 231.967 64.276ZM246.786 65.716C245.898 65.716 245.124 65.512 244.464 65.104C243.816 64.696 243.312 64.12 242.952 63.376C242.592 62.62 242.412 61.738 242.412 60.73C242.412 59.722 242.592 58.846 242.952 58.102C243.312 57.358 243.816 56.782 244.464 56.374C245.124 55.954 245.898 55.744 246.786 55.744C247.518 55.744 248.166 55.876 248.73 56.14C249.306 56.392 249.774 56.764 250.134 57.256C250.494 57.748 250.728 58.348 250.836 59.056L249.252 59.164C249.144 58.528 248.868 58.042 248.424 57.706C247.98 57.358 247.434 57.184 246.786 57.184C245.91 57.184 245.226 57.502 244.734 58.138C244.242 58.762 243.996 59.626 243.996 60.73C243.996 61.834 244.242 62.704 244.734 63.34C245.226 63.964 245.91 64.276 246.786 64.276C247.434 64.276 247.98 64.096 248.424 63.736C248.868 63.376 249.144 62.836 249.252 62.116L250.836 62.224C250.728 62.932 250.494 63.55 250.134 64.078C249.774 64.594 249.306 64.996 248.73 65.284C248.166 65.572 247.518 65.716 246.786 65.716ZM252.71 65.5V52.72H254.222V58.066L254.042 58.03C254.162 57.502 254.366 57.07 254.654 56.734C254.942 56.398 255.296 56.152 255.716 55.996C256.136 55.828 256.598 55.744 257.102 55.744C257.786 55.744 258.362 55.9 258.83 56.212C259.31 56.512 259.67 56.938 259.91 57.49C260.162 58.03 260.288 58.654 260.288 59.362V65.5H258.776V59.794C258.776 58.87 258.608 58.186 258.272 57.742C257.948 57.298 257.45 57.076 256.778 57.076C256.01 57.076 255.392 57.31 254.924 57.778C254.456 58.246 254.222 58.924 254.222 59.812V65.5H252.71ZM265.567 65.716C264.583 65.716 263.797 65.488 263.209 65.032C262.633 64.576 262.345 63.94 262.345 63.124C262.345 62.308 262.585 61.666 263.065 61.198C263.545 60.73 264.307 60.4 265.351 60.208L268.735 59.578C268.735 58.774 268.543 58.174 268.159 57.778C267.787 57.382 267.223 57.184 266.467 57.184C265.807 57.184 265.285 57.334 264.901 57.634C264.517 57.922 264.253 58.342 264.109 58.894L262.507 58.768C262.687 57.868 263.119 57.142 263.803 56.59C264.499 56.026 265.387 55.744 266.467 55.744C267.691 55.744 268.627 56.092 269.275 56.788C269.923 57.472 270.247 58.42 270.247 59.632V63.574C270.247 63.79 270.283 63.946 270.355 64.042C270.439 64.126 270.571 64.168 270.751 64.168H271.129V65.5C271.081 65.512 271.003 65.518 270.895 65.518C270.787 65.53 270.673 65.536 270.553 65.536C270.121 65.536 269.767 65.47 269.491 65.338C269.227 65.194 269.035 64.978 268.915 64.69C268.795 64.39 268.735 64 268.735 63.52L268.915 63.556C268.831 63.964 268.627 64.336 268.303 64.672C267.979 64.996 267.577 65.254 267.097 65.446C266.617 65.626 266.107 65.716 265.567 65.716ZM265.711 64.384C266.347 64.384 266.887 64.264 267.331 64.024C267.787 63.772 268.135 63.436 268.375 63.016C268.615 62.584 268.735 62.104 268.735 61.576V60.892L265.639 61.468C264.991 61.588 264.541 61.774 264.289 62.026C264.049 62.266 263.929 62.584 263.929 62.98C263.929 63.424 264.085 63.772 264.397 64.024C264.721 64.264 265.159 64.384 265.711 64.384ZM272.837 65.5V55.96H274.223L274.277 58.39L274.097 58.228C274.217 57.664 274.427 57.202 274.727 56.842C275.027 56.47 275.387 56.194 275.807 56.014C276.239 55.834 276.701 55.744 277.193 55.744C277.925 55.744 278.525 55.906 278.993 56.23C279.473 56.554 279.827 56.992 280.055 57.544C280.295 58.084 280.415 58.69 280.415 59.362V65.5H278.903V59.794C278.903 59.206 278.831 58.714 278.687 58.318C278.555 57.91 278.339 57.604 278.039 57.4C277.739 57.184 277.349 57.076 276.869 57.076C276.137 57.076 275.531 57.31 275.051 57.778C274.583 58.234 274.349 58.906 274.349 59.794V65.5H272.837ZM286.703 68.416C286.019 68.416 285.401 68.302 284.849 68.074C284.297 67.846 283.835 67.522 283.463 67.102C283.091 66.682 282.839 66.196 282.707 65.644L284.291 65.536C284.435 65.98 284.687 66.328 285.047 66.58C285.419 66.844 285.971 66.976 286.703 66.976C287.567 66.976 288.227 66.802 288.683 66.454C289.151 66.106 289.385 65.584 289.385 64.888V63.34C289.157 63.844 288.791 64.246 288.287 64.546C287.783 64.846 287.219 64.996 286.595 64.996C285.791 64.996 285.071 64.798 284.435 64.402C283.811 64.006 283.319 63.46 282.959 62.764C282.611 62.068 282.437 61.27 282.437 60.37C282.437 59.458 282.611 58.66 282.959 57.976C283.307 57.28 283.787 56.734 284.399 56.338C285.023 55.942 285.731 55.744 286.523 55.744C287.195 55.744 287.795 55.9 288.323 56.212C288.863 56.524 289.241 56.944 289.457 57.472V55.96H290.897V64.852C290.897 65.596 290.729 66.232 290.393 66.76C290.057 67.3 289.577 67.708 288.953 67.984C288.329 68.272 287.579 68.416 286.703 68.416ZM286.667 63.556C287.483 63.556 288.137 63.274 288.629 62.71C289.121 62.134 289.373 61.354 289.385 60.37C289.397 59.71 289.289 59.146 289.061 58.678C288.845 58.198 288.527 57.832 288.107 57.58C287.699 57.316 287.219 57.184 286.667 57.184C285.827 57.184 285.173 57.472 284.705 58.048C284.249 58.612 284.021 59.386 284.021 60.37C284.021 61.354 284.255 62.134 284.723 62.71C285.203 63.274 285.851 63.556 286.667 63.556ZM297.323 65.716C296.423 65.716 295.643 65.512 294.983 65.104C294.335 64.696 293.831 64.12 293.471 63.376C293.123 62.62 292.949 61.738 292.949 60.73C292.949 59.722 293.123 58.846 293.471 58.102C293.831 57.358 294.329 56.782 294.965 56.374C295.613 55.954 296.375 55.744 297.251 55.744C298.079 55.744 298.811 55.942 299.447 56.338C300.083 56.722 300.575 57.286 300.923 58.03C301.283 58.774 301.463 59.68 301.463 60.748V61.198H294.533C294.593 62.218 294.863 62.986 295.343 63.502C295.835 64.018 296.495 64.276 297.323 64.276C297.947 64.276 298.457 64.132 298.853 63.844C299.261 63.544 299.543 63.154 299.699 62.674L301.319 62.8C301.067 63.652 300.587 64.354 299.879 64.906C299.183 65.446 298.331 65.716 297.323 65.716ZM294.533 59.866H299.807C299.735 58.942 299.465 58.264 298.997 57.832C298.541 57.4 297.959 57.184 297.251 57.184C296.519 57.184 295.913 57.412 295.433 57.868C294.965 58.312 294.665 58.978 294.533 59.866ZM311.679 65.5C310.815 65.5 310.173 65.302 309.753 64.906C309.345 64.51 309.141 63.892 309.141 63.052V53.728H310.653V63.016C310.653 63.448 310.749 63.748 310.941 63.916C311.133 64.084 311.427 64.168 311.823 64.168H313.191V65.5H311.679ZM307.737 57.292V55.96H313.191V57.292H307.737ZM315.13 65.5V52.72H316.642V58.066L316.462 58.03C316.582 57.502 316.786 57.07 317.074 56.734C317.362 56.398 317.716 56.152 318.136 55.996C318.556 55.828 319.018 55.744 319.522 55.744C320.206 55.744 320.782 55.9 321.25 56.212C321.73 56.512 322.09 56.938 322.33 57.49C322.582 58.03 322.708 58.654 322.708 59.362V65.5H321.196V59.794C321.196 58.87 321.028 58.186 320.692 57.742C320.368 57.298 319.87 57.076 319.198 57.076C318.43 57.076 317.812 57.31 317.344 57.778C316.876 58.246 316.642 58.924 316.642 59.812V65.5H315.13ZM329.104 65.716C328.204 65.716 327.424 65.512 326.764 65.104C326.116 64.696 325.612 64.12 325.252 63.376C324.904 62.62 324.73 61.738 324.73 60.73C324.73 59.722 324.904 58.846 325.252 58.102C325.612 57.358 326.11 56.782 326.746 56.374C327.394 55.954 328.156 55.744 329.032 55.744C329.86 55.744 330.592 55.942 331.228 56.338C331.864 56.722 332.356 57.286 332.704 58.03C333.064 58.774 333.244 59.68 333.244 60.748V61.198H326.314C326.374 62.218 326.644 62.986 327.124 63.502C327.616 64.018 328.276 64.276 329.104 64.276C329.728 64.276 330.238 64.132 330.634 63.844C331.042 63.544 331.324 63.154 331.48 62.674L333.1 62.8C332.848 63.652 332.368 64.354 331.66 64.906C330.964 65.446 330.112 65.716 329.104 65.716ZM326.314 59.866H331.588C331.516 58.942 331.246 58.264 330.778 57.832C330.322 57.4 329.74 57.184 329.032 57.184C328.3 57.184 327.694 57.412 327.214 57.868C326.746 58.312 326.446 58.978 326.314 59.866ZM339.968 65.5V55.96H341.354L341.408 58.372L341.192 58.3C341.3 57.772 341.486 57.322 341.75 56.95C342.026 56.566 342.362 56.272 342.758 56.068C343.154 55.852 343.592 55.744 344.072 55.744C344.9 55.744 345.572 55.972 346.088 56.428C346.616 56.884 346.946 57.52 347.078 58.336L346.79 58.318C346.886 57.766 347.06 57.304 347.312 56.932C347.576 56.548 347.912 56.254 348.32 56.05C348.728 55.846 349.196 55.744 349.724 55.744C350.408 55.744 350.984 55.888 351.452 56.176C351.92 56.452 352.274 56.86 352.514 57.4C352.754 57.94 352.874 58.594 352.874 59.362V65.5H351.362V59.686C351.362 58.822 351.194 58.174 350.858 57.742C350.522 57.298 350.024 57.076 349.364 57.076C348.92 57.076 348.53 57.184 348.194 57.4C347.87 57.616 347.618 57.928 347.438 58.336C347.258 58.732 347.168 59.218 347.168 59.794V65.5H345.656V59.794C345.656 58.942 345.506 58.276 345.206 57.796C344.906 57.316 344.402 57.076 343.694 57.076C343.25 57.076 342.86 57.184 342.524 57.4C342.2 57.616 341.942 57.928 341.75 58.336C341.57 58.744 341.48 59.23 341.48 59.794V65.5H339.968ZM359.268 65.716C358.368 65.716 357.588 65.512 356.928 65.104C356.28 64.696 355.776 64.12 355.416 63.376C355.068 62.62 354.894 61.738 354.894 60.73C354.894 59.722 355.068 58.846 355.416 58.102C355.776 57.358 356.274 56.782 356.91 56.374C357.558 55.954 358.32 55.744 359.196 55.744C360.024 55.744 360.756 55.942 361.392 56.338C362.028 56.722 362.52 57.286 362.868 58.03C363.228 58.774 363.408 59.68 363.408 60.748V61.198H356.478C356.538 62.218 356.808 62.986 357.288 63.502C357.78 64.018 358.44 64.276 359.268 64.276C359.892 64.276 360.402 64.132 360.798 63.844C361.206 63.544 361.488 63.154 361.644 62.674L363.264 62.8C363.012 63.652 362.532 64.354 361.824 64.906C361.128 65.446 360.276 65.716 359.268 65.716ZM356.478 59.866H361.752C361.68 58.942 361.41 58.264 360.942 57.832C360.486 57.4 359.904 57.184 359.196 57.184C358.464 57.184 357.858 57.412 357.378 57.868C356.91 58.312 356.61 58.978 356.478 59.866ZM365.456 65.5V55.96H366.842L366.896 58.372L366.68 58.3C366.788 57.772 366.974 57.322 367.238 56.95C367.514 56.566 367.85 56.272 368.246 56.068C368.642 55.852 369.08 55.744 369.56 55.744C370.388 55.744 371.06 55.972 371.576 56.428C372.104 56.884 372.434 57.52 372.566 58.336L372.278 58.318C372.374 57.766 372.548 57.304 372.8 56.932C373.064 56.548 373.4 56.254 373.808 56.05C374.216 55.846 374.684 55.744 375.212 55.744C375.896 55.744 376.472 55.888 376.94 56.176C377.408 56.452 377.762 56.86 378.002 57.4C378.242 57.94 378.362 58.594 378.362 59.362V65.5H376.85V59.686C376.85 58.822 376.682 58.174 376.346 57.742C376.01 57.298 375.512 57.076 374.852 57.076C374.408 57.076 374.018 57.184 373.682 57.4C373.358 57.616 373.106 57.928 372.926 58.336C372.746 58.732 372.656 59.218 372.656 59.794V65.5H371.144V59.794C371.144 58.942 370.994 58.276 370.694 57.796C370.394 57.316 369.89 57.076 369.182 57.076C368.738 57.076 368.348 57.184 368.012 57.4C367.688 57.616 367.43 57.928 367.238 58.336C367.058 58.744 366.968 59.23 366.968 59.794V65.5H365.456ZM384.756 65.716C383.88 65.716 383.112 65.512 382.452 65.104C381.792 64.696 381.282 64.12 380.922 63.376C380.562 62.62 380.382 61.738 380.382 60.73C380.382 59.71 380.562 58.828 380.922 58.084C381.282 57.34 381.792 56.764 382.452 56.356C383.112 55.948 383.88 55.744 384.756 55.744C385.632 55.744 386.394 55.948 387.042 56.356C387.702 56.764 388.212 57.34 388.572 58.084C388.932 58.828 389.112 59.71 389.112 60.73C389.112 61.738 388.932 62.62 388.572 63.376C388.212 64.12 387.702 64.696 387.042 65.104C386.394 65.512 385.632 65.716 384.756 65.716ZM384.756 64.276C385.632 64.276 386.31 63.964 386.79 63.34C387.282 62.704 387.528 61.834 387.528 60.73C387.528 59.626 387.282 58.762 386.79 58.138C386.31 57.502 385.632 57.184 384.756 57.184C383.88 57.184 383.196 57.502 382.704 58.138C382.212 58.762 381.966 59.626 381.966 60.73C381.966 61.834 382.212 62.704 382.704 63.34C383.196 63.964 383.88 64.276 384.756 64.276ZM391.173 65.5V55.96H392.505L392.577 58.372L392.433 58.318C392.553 57.502 392.811 56.908 393.207 56.536C393.615 56.152 394.155 55.96 394.827 55.96H395.763V57.4H394.845C394.365 57.4 393.963 57.49 393.639 57.67C393.327 57.838 393.087 58.096 392.919 58.444C392.763 58.78 392.685 59.212 392.685 59.74V65.5H391.173ZM397.95 68.2V66.868H399.048C399.384 66.868 399.63 66.814 399.786 66.706C399.954 66.61 400.08 66.448 400.164 66.22L400.506 65.32H399.984L396.492 55.96H398.148L400.992 63.916L403.71 55.96H405.366L401.496 66.706C401.316 67.222 401.046 67.6 400.686 67.84C400.326 68.08 399.828 68.2 399.192 68.2H397.95ZM415.196 65.5C414.332 65.5 413.69 65.302 413.27 64.906C412.862 64.51 412.658 63.892 412.658 63.052V53.728H414.17V63.016C414.17 63.448 414.266 63.748 414.458 63.916C414.65 64.084 414.944 64.168 415.34 64.168H416.708V65.5H415.196ZM411.254 57.292V55.96H416.708V57.292H411.254ZM422.198 65.716C421.322 65.716 420.554 65.512 419.894 65.104C419.234 64.696 418.724 64.12 418.364 63.376C418.004 62.62 417.824 61.738 417.824 60.73C417.824 59.71 418.004 58.828 418.364 58.084C418.724 57.34 419.234 56.764 419.894 56.356C420.554 55.948 421.322 55.744 422.198 55.744C423.074 55.744 423.836 55.948 424.484 56.356C425.144 56.764 425.654 57.34 426.014 58.084C426.374 58.828 426.554 59.71 426.554 60.73C426.554 61.738 426.374 62.62 426.014 63.376C425.654 64.12 425.144 64.696 424.484 65.104C423.836 65.512 423.074 65.716 422.198 65.716ZM422.198 64.276C423.074 64.276 423.752 63.964 424.232 63.34C424.724 62.704 424.97 61.834 424.97 60.73C424.97 59.626 424.724 58.762 424.232 58.138C423.752 57.502 423.074 57.184 422.198 57.184C421.322 57.184 420.638 57.502 420.146 58.138C419.654 58.762 419.408 59.626 419.408 60.73C419.408 61.834 419.654 62.704 420.146 63.34C420.638 63.964 421.322 64.276 422.198 64.276ZM438.888 65.5V62.728H432.39V61.324L438.78 52.72H440.436V61.216H442.02V62.728H440.436V65.5H438.888ZM434.262 61.216H438.888V55.096L434.262 61.216ZM453.94 65.788C452.74 65.788 451.714 65.5 450.862 64.924C450.01 64.348 449.356 63.562 448.9 62.566C448.456 61.558 448.234 60.412 448.234 59.128C448.234 57.844 448.462 56.698 448.918 55.69C449.374 54.682 450.028 53.89 450.88 53.314C451.744 52.726 452.776 52.432 453.976 52.432C454.996 52.432 455.854 52.618 456.55 52.99C457.258 53.362 457.816 53.866 458.224 54.502C458.644 55.138 458.932 55.852 459.088 56.644L457.468 56.752C457.312 55.924 456.964 55.252 456.424 54.736C455.884 54.208 455.068 53.944 453.976 53.944C453.004 53.944 452.212 54.184 451.6 54.664C451 55.144 450.556 55.78 450.268 56.572C449.992 57.352 449.854 58.204 449.854 59.128C449.854 60.1 449.998 60.976 450.286 61.756C450.574 62.524 451.024 63.136 451.636 63.592C452.248 64.048 453.028 64.276 453.976 64.276C454.732 64.276 455.386 64.108 455.938 63.772C456.49 63.424 456.916 62.962 457.216 62.386C457.516 61.81 457.672 61.186 457.684 60.514H454.012V59.038H459.124V65.5H457.972L457.864 62.548L458.08 62.8C457.936 63.376 457.66 63.892 457.252 64.348C456.844 64.792 456.352 65.146 455.776 65.41C455.212 65.662 454.6 65.788 453.94 65.788ZM461.684 65.5V52.72H466.076C467.588 52.72 468.722 52.996 469.478 53.548C470.234 54.1 470.612 54.97 470.612 56.158C470.612 56.71 470.492 57.196 470.252 57.616C470.012 58.036 469.67 58.366 469.226 58.606C468.782 58.834 468.254 58.948 467.642 58.948L467.624 58.84C468.716 58.84 469.574 59.134 470.198 59.722C470.834 60.298 471.152 61.054 471.152 61.99C471.152 63.154 470.774 64.03 470.018 64.618C469.262 65.206 468.188 65.5 466.796 65.5H461.684ZM463.232 63.988H466.796C467.672 63.988 468.344 63.808 468.812 63.448C469.292 63.088 469.532 62.572 469.532 61.9C469.532 61.228 469.292 60.706 468.812 60.334C468.344 59.95 467.672 59.758 466.796 59.758H463.232V63.988ZM463.232 58.246H466.076C467.012 58.246 467.732 58.072 468.236 57.724C468.74 57.364 468.992 56.866 468.992 56.23C468.992 55.558 468.746 55.06 468.254 54.736C467.774 54.4 467.048 54.232 466.076 54.232H463.232V58.246Z"
    fill="#18181B"
  />
  <path
    d="M94.5594 118.224C93.6727 118.224 92.8934 118.019 92.2214 117.608C91.5494 117.188 91.0267 116.591 90.6534 115.816C90.28 115.041 90.0934 114.117 90.0934 113.044C90.0934 111.971 90.28 111.047 90.6534 110.272C91.0267 109.488 91.5494 108.886 92.2214 108.466C92.8934 108.046 93.6727 107.836 94.5594 107.836C95.7634 107.836 96.6967 108.139 97.3594 108.746C98.022 109.353 98.456 110.179 98.6614 111.224L97.3874 111.308C97.2474 110.599 96.9487 110.039 96.4914 109.628C96.034 109.217 95.39 109.012 94.5594 109.012C93.9247 109.012 93.3647 109.175 92.8794 109.502C92.4034 109.819 92.03 110.281 91.7594 110.888C91.4887 111.485 91.3534 112.204 91.3534 113.044C91.3534 113.884 91.4887 114.603 91.7594 115.2C92.03 115.797 92.4034 116.255 92.8794 116.572C93.3647 116.889 93.9247 117.048 94.5594 117.048C95.4274 117.048 96.0994 116.824 96.5754 116.376C97.0514 115.919 97.35 115.303 97.4714 114.528L98.7454 114.612C98.624 115.331 98.386 115.961 98.0314 116.502C97.6767 117.043 97.2054 117.468 96.6174 117.776C96.0387 118.075 95.3527 118.224 94.5594 118.224ZM100.622 118V108.06H104.192C105.303 108.06 106.166 108.326 106.782 108.858C107.398 109.39 107.706 110.127 107.706 111.07C107.706 111.705 107.566 112.255 107.286 112.722C107.006 113.179 106.605 113.529 106.082 113.772C105.56 114.015 104.93 114.136 104.192 114.136H101.826V118H100.622ZM101.826 112.96H104.192C104.939 112.96 105.499 112.801 105.872 112.484C106.255 112.167 106.446 111.695 106.446 111.07C106.446 110.463 106.255 110.006 105.872 109.698C105.499 109.39 104.939 109.236 104.192 109.236H101.826V112.96ZM113.27 118.224C112.505 118.224 111.837 118.075 111.268 117.776C110.708 117.477 110.274 117.053 109.966 116.502C109.667 115.942 109.518 115.284 109.518 114.528V108.046H110.722V114.528C110.722 115.331 110.941 115.951 111.38 116.39C111.828 116.829 112.458 117.048 113.27 117.048C114.073 117.048 114.693 116.829 115.132 116.39C115.58 115.951 115.804 115.331 115.804 114.528V108.046H117.008V114.528C117.008 115.284 116.854 115.942 116.546 116.502C116.247 117.053 115.818 117.477 115.258 117.776C114.698 118.075 114.035 118.224 113.27 118.224ZM119.38 118V116.418H120.962V118H119.38ZM119.38 112.498V110.916H120.962V112.498H119.38Z"
    fill="#030712"
  />
  <path
    d="M131.303 118C131.303 117.3 131.411 116.67 131.625 116.11C131.849 115.541 132.237 114.999 132.787 114.486C133.347 113.973 134.122 113.455 135.111 112.932C135.569 112.689 135.937 112.465 136.217 112.26C136.497 112.055 136.703 111.835 136.833 111.602C136.964 111.369 137.029 111.084 137.029 110.748C137.029 110.403 136.955 110.104 136.805 109.852C136.656 109.591 136.432 109.385 136.133 109.236C135.844 109.087 135.48 109.012 135.041 109.012C134.341 109.012 133.786 109.194 133.375 109.558C132.974 109.922 132.722 110.44 132.619 111.112L131.359 111.028C131.471 110.057 131.845 109.283 132.479 108.704C133.114 108.125 133.968 107.836 135.041 107.836C135.723 107.836 136.306 107.957 136.791 108.2C137.277 108.443 137.645 108.783 137.897 109.222C138.159 109.651 138.289 110.151 138.289 110.72C138.289 111.224 138.205 111.663 138.037 112.036C137.869 112.4 137.585 112.741 137.183 113.058C136.791 113.375 136.25 113.716 135.559 114.08C134.663 114.556 133.982 115.037 133.515 115.522C133.058 116.007 132.815 116.441 132.787 116.824H138.289V118H131.303ZM147.727 118.224C146.841 118.224 146.061 118.019 145.389 117.608C144.717 117.188 144.195 116.591 143.821 115.816C143.448 115.041 143.261 114.117 143.261 113.044C143.261 111.971 143.448 111.047 143.821 110.272C144.195 109.488 144.717 108.886 145.389 108.466C146.061 108.046 146.841 107.836 147.727 107.836C148.931 107.836 149.865 108.139 150.527 108.746C151.19 109.353 151.624 110.179 151.829 111.224L150.555 111.308C150.415 110.599 150.117 110.039 149.659 109.628C149.202 109.217 148.558 109.012 147.727 109.012C147.093 109.012 146.533 109.175 146.047 109.502C145.571 109.819 145.198 110.281 144.927 110.888C144.657 111.485 144.521 112.204 144.521 113.044C144.521 113.884 144.657 114.603 144.927 115.2C145.198 115.797 145.571 116.255 146.047 116.572C146.533 116.889 147.093 117.048 147.727 117.048C148.595 117.048 149.267 116.824 149.743 116.376C150.219 115.919 150.518 115.303 150.639 114.528L151.913 114.612C151.792 115.331 151.554 115.961 151.199 116.502C150.845 117.043 150.373 117.468 149.785 117.776C149.207 118.075 148.521 118.224 147.727 118.224ZM156.384 118.168C155.702 118.168 155.105 118.009 154.592 117.692C154.078 117.375 153.682 116.927 153.402 116.348C153.122 115.76 152.982 115.074 152.982 114.29C152.982 113.497 153.122 112.811 153.402 112.232C153.682 111.653 154.078 111.205 154.592 110.888C155.105 110.571 155.702 110.412 156.384 110.412C157.065 110.412 157.658 110.571 158.162 110.888C158.675 111.205 159.072 111.653 159.352 112.232C159.632 112.811 159.772 113.497 159.772 114.29C159.772 115.074 159.632 115.76 159.352 116.348C159.072 116.927 158.675 117.375 158.162 117.692C157.658 118.009 157.065 118.168 156.384 118.168ZM156.384 117.048C157.065 117.048 157.592 116.805 157.966 116.32C158.348 115.825 158.54 115.149 158.54 114.29C158.54 113.431 158.348 112.759 157.966 112.274C157.592 111.779 157.065 111.532 156.384 111.532C155.702 111.532 155.17 111.779 154.788 112.274C154.405 112.759 154.214 113.431 154.214 114.29C154.214 115.149 154.405 115.825 154.788 116.32C155.17 116.805 155.702 117.048 156.384 117.048ZM161.374 118V110.58H162.41L162.466 112.456L162.354 112.414C162.448 111.779 162.648 111.317 162.956 111.028C163.274 110.729 163.694 110.58 164.216 110.58H164.944V111.7H164.23C163.857 111.7 163.544 111.77 163.292 111.91C163.05 112.041 162.863 112.241 162.732 112.512C162.611 112.773 162.55 113.109 162.55 113.52V118H161.374ZM169.017 118.168C168.317 118.168 167.71 118.009 167.197 117.692C166.693 117.375 166.301 116.927 166.021 116.348C165.75 115.76 165.615 115.074 165.615 114.29C165.615 113.506 165.75 112.825 166.021 112.246C166.301 111.667 166.688 111.219 167.183 110.902C167.687 110.575 168.279 110.412 168.961 110.412C169.605 110.412 170.174 110.566 170.669 110.874C171.163 111.173 171.546 111.611 171.817 112.19C172.097 112.769 172.237 113.473 172.237 114.304V114.654H166.847C166.893 115.447 167.103 116.045 167.477 116.446C167.859 116.847 168.373 117.048 169.017 117.048C169.502 117.048 169.899 116.936 170.207 116.712C170.524 116.479 170.743 116.175 170.865 115.802L172.125 115.9C171.929 116.563 171.555 117.109 171.005 117.538C170.463 117.958 169.801 118.168 169.017 118.168ZM166.847 113.618H170.949C170.893 112.899 170.683 112.372 170.319 112.036C169.964 111.7 169.511 111.532 168.961 111.532C168.391 111.532 167.92 111.709 167.547 112.064C167.183 112.409 166.949 112.927 166.847 113.618Z"
    fill="#030712"
  />
  <path
    d="M617.467 132V132.25H618.463C618.837 132.25 619.192 132.325 619.516 132.459L619.611 132.228C620.344 132.531 620.931 133.118 621.235 133.852L621.004 133.947C621.139 134.271 621.213 134.627 621.213 135C621.213 135.373 621.139 135.729 621.004 136.053L621.235 136.147C620.931 136.881 620.345 137.467 619.611 137.771L619.516 137.541C619.192 137.675 618.837 137.75 618.463 137.75H617.468V138H615.476V137.75H613.484V138H611.492V137.75H609.499V138H607.506V137.75H605.514V138H603.522V137.75H601.529V138H599.537V137.75H597.544V138H595.552V137.75H593.559V138H591.567V137.75H589.575V138H587.583V137.75H585.589V138H583.597V137.75H581.605V138H579.613V137.75H577.62V138H575.627V137.75H573.635V138H571.643V137.75H569.65V138H567.658V137.75H565.666V138H563.673V137.75H561.68V138H559.688V137.75H557.696V138H555.704V137.75H553.71V138H551.718V137.75H549.726V138H547.734V137.75H545.741V138H543.749V137.75H541.756V138H539.764V137.75H537.771V138H535.779V137.75H533.787V138H531.794V137.75H529.801V138H527.809V137.75H525.817V138H523.825V137.75H521.832V138H519.839V137.75H517.847V138H515.855V137.75H513.862V138H511.87V137.75H509.877V138H507.885V137.75H505.892V138H503.9V137.75H501.908V138H499.916V137.75H497.922V138H495.93V137.75H493.938V138H491.946V137.75H489.953V138H487.96V137.75H485.968V138H483.976V137.75H481.983V138H479.991V137.75H477.999V138H476.006V137.75H474.013V138H472.021V137.75H470.029V138H468.037V137.75H466.043V138H464.051V137.75H462.059V138H460.067V137.75H458.074V138H456.082V137.75H454.089V138H452.097V137.75H450.104V138H448.112V137.75H446.12V138H444.127V137.75H442.134V138H440.142V137.75H438.15V138H436.158V137.75H434.165V138H432.172V137.75H430.18V138H428.188V137.75H426.195V138H424.203V137.75H422.21V138H420.218V137.75H418.225V138H416.233V137.75H414.241V138H412.249V137.75H410.255V138H408.263V137.75H406.271V138H404.279V137.75H402.286V138H400.293V137.75H398.301V138H396.309V137.75H394.316V138H392.324V137.75H390.332V138H388.339V137.75H386.346V138H384.354V137.75H382.362V138H380.37V137.75H378.376V138H376.384V137.75H374.392V138H372.4V137.75H370.407V138H368.415V137.75H366.422V138H364.43V137.75H362.437V138H360.445V137.75H358.453V138H356.46V137.75H354.467V138H352.475V137.75H350.483V138H348.491V137.75H346.498V138H344.505V137.75H342.513V138H340.521V137.75H338.528V138H336.536V137.75H334.543V138H332.551V137.75H330.558V138H328.566V137.75H326.574V138H324.582V137.75H322.588V138H320.596V137.75H318.604V138H316.612V137.75H314.619V138H312.626V137.75H310.634V138H308.642V137.75H306.649V138H304.657V137.75H302.665V138H300.672V137.75H298.679V138H296.687V137.75H294.695V138H292.703V137.75H290.709V138H288.717V137.75H286.725V138H284.733V137.75H282.74V138H280.748V137.75H278.755V138H276.763V137.75H274.77V138H272.778V137.75H270.786V138H268.793V137.75H266.8V138H264.808V137.75H262.816V138H260.824V137.75H258.831V138H256.838V137.75H254.846V138H252.854V137.75H250.861V138H248.869V137.75H246.876V138H244.884V137.75H242.891V138H240.899V137.75H238.907V138H236.915V137.75H234.921V138H232.929V137.75H230.937V138H228.945V137.75H226.952V138H224.959V137.75H222.967V138H220.975V137.75H218.982V138H216.99V137.75H214.998V138H213.005V137.75H211.012V138H209.02V137.75H207.028V138H205.036V137.75H203.042V138H201.05V137.75H199.058V138H197.066V137.75H195.073V138H193.081V137.75H191.088V138H189.096V137.75H187.104V138H185.111V137.75H183.119V138H181.126V137.75H179.134V138H177.141V137.75H175.149V138H173.157V137.75H171.165V138H169.171V137.75H167.179V138H165.187V137.75H163.195V138H161.202V137.75H159.209V138H157.217V137.75H155.225V138H153.232V137.75H151.24V138H149.248V137.75H147.255V138H145.262V137.75H143.27V138H141.278V137.75H139.286V138H137.292V137.75H135.3V138H133.308V137.75H131.316V138H129.323V137.75H127.331V138H125.338V137.75H123.346V138H121.354V137.75H119.361V138H117.369V137.75H115.376V138H113.384V137.75H111.391V138H109.399V137.75H107.407V138H105.415V137.75H103.421V138H101.429V137.75H99.437V138H97.4448V137.75H95.4517V138H93.4595V137.75H92.4634C92.09 137.75 91.7345 137.675 91.4106 137.541L91.3149 137.771C90.5815 137.467 89.9949 136.881 89.6909 136.147L89.9224 136.053C89.788 135.729 89.7134 135.373 89.7134 135C89.7134 134.627 89.788 134.271 89.9224 133.947L89.6909 133.852C89.995 133.118 90.5816 132.532 91.3149 132.228L91.4106 132.459C91.7345 132.325 92.09 132.25 92.4634 132.25H93.4585V132H95.4507V132.25H97.4429V132H99.4351V132.25H101.428V132H103.42V132.25H105.413V132H107.405V132.25H109.398V132H111.39V132.25H113.382V132H115.375V132.25H117.368V132H119.36V132.25H121.352V132H123.344V132.25H125.337V132H127.33V132.25H129.322V132H131.314V132.25H133.307V132H135.299V132.25H137.292V132H139.284V132.25H141.277V132H143.269V132.25H145.261V132H147.253V132.25H149.247V132H151.239V132.25H153.231V132H155.223V132.25H157.216V132H159.208V132.25H161.201V132H163.193V132.25H165.186V132H167.178V132.25H169.17V132H171.163V132.25H173.156V132H175.148V132.25H177.14V132H179.132V132.25H181.125V132H183.118V132.25H185.11V132H187.102V132.25H189.095V132H191.087V132.25H193.08V132H195.072V132.25H197.065V132H199.057V132.25H201.049V132H203.042V132.25H205.035V132H207.027V132.25H209.019V132H211.011V132.25H213.004V132H214.997V132.25H216.989V132H218.981V132.25H220.974V132H222.966V132.25H224.958V132H226.951V132.25H228.944V132H230.936V132.25H232.928V132H234.92V132.25H236.914V132H238.906V132.25H240.898V132H242.89V132.25H244.883V132H246.875V132.25H248.868V132H250.86V132.25H252.853V132H254.845V132.25H256.837V132H258.83V132.25H260.823V132H262.815V132.25H264.807V132H266.799V132.25H268.792V132H270.785V132.25H272.777V132H274.769V132.25H276.762V132H278.754V132.25H280.747V132H282.739V132.25H284.732V132H286.724V132.25H288.716V132H290.708V132.25H292.702V132H294.694V132.25H296.686V132H298.678V132.25H300.671V132H302.664V132.25H304.656V132H306.648V132.25H308.641V132H310.633V132.25H312.625V132H314.618V132.25H316.611V132H318.603V132.25H320.595V132H322.587V132.25H324.581V132H326.573V132.25H328.565V132H330.557V132.25H332.55V132H334.542V132.25H336.535V132H338.527V132.25H340.52V132H342.512V132.25H344.504V132H346.497V132.25H348.49V132H350.482V132.25H352.474V132H354.466V132.25H356.459V132H358.452V132.25H360.444V132H362.436V132.25H364.429V132H366.421V132.25H368.414V132H370.406V132.25H372.399V132H374.391V132.25H376.383V132H378.375V132.25H380.369V132H382.361V132.25H384.353V132H386.345V132.25H388.338V132H390.331V132.25H392.323V132H394.315V132.25H396.308V132H398.3V132.25H400.292V132H402.285V132.25H404.278V132H406.27V132.25H408.262V132H410.254V132.25H412.248V132H414.24V132.25H416.232V132H418.224V132.25H420.217V132H422.209V132.25H424.202V132H426.194V132.25H428.187V132H430.179V132.25H432.171V132H434.164V132.25H436.157V132H438.149V132.25H440.141V132H442.133V132.25H444.126V132H446.119V132.25H448.111V132H450.103V132.25H452.096V132H454.088V132.25H456.081V132H458.073V132.25H460.066V132H462.058V132.25H464.05V132H466.042V132.25H468.036V132H470.028V132.25H472.02V132H474.012V132.25H476.005V132H477.998V132.25H479.99V132H481.982V132.25H483.975V132H485.967V132.25H487.959V132H489.952V132.25H491.945V132H493.937V132.25H495.929V132H497.921V132.25H499.915V132H501.907V132.25H503.899V132H505.891V132.25H507.884V132H509.876V132.25H511.869V132H513.861V132.25H515.854V132H517.846V132.25H519.838V132H521.831V132.25H523.823V132H525.816V132.25H527.808V132H529.8V132.25H531.792V132H533.786V132.25H535.778V132H537.77V132.25H539.762V132H541.755V132.25H543.748V132H545.74V132.25H547.732V132H549.725V132.25H551.717V132H553.709V132.25H555.702V132H557.695V132.25H559.687V132H561.679V132.25H563.671V132H565.665V132.25H567.657V132H569.649V132.25H571.641V132H573.634V132.25H575.626V132H577.619V132.25H579.611V132H581.604V132.25H583.596V132H585.588V132.25H587.581V132H589.573V132.25H591.566V132H593.558V132.25H595.55V132H597.542V132.25H599.536V132H601.528V132.25H603.52V132H605.512V132.25H607.505V132H609.498V132.25H611.49V132H613.482V132.25H615.475V132H617.467Z"
    stroke="#005BFF"
    stroke-width="0.5"
    stroke-dasharray="2 2"
  />
  <path
    d="M89.4634 135C89.4634 133.343 90.8065 132 92.4634 132H219.463C221.12 132 222.463 133.343 222.463 135C222.463 136.657 221.12 138 219.463 138H92.4634C90.8065 138 89.4634 136.657 89.4634 135Z"
    fill="black"
    fill-opacity="0.4"
  />
  <path
    d="M212.463 135C212.463 130.582 216.045 127 220.463 127C224.882 127 228.463 130.582 228.463 135C228.463 139.418 224.882 143 220.463 143C216.045 143 212.463 139.418 212.463 135Z"
    fill="#71717A"
  />
  <path
    d="M220.463 128C224.329 128 227.463 131.134 227.463 135C227.463 138.866 224.329 142 220.463 142C216.597 142 213.463 138.866 213.463 135C213.463 131.134 216.597 128 220.463 128Z"
    stroke="white"
    stroke-opacity="0.05"
    stroke-width="2"
  />
  <path
    d="M92.0954 165V157.636H90.0234V156.6H90.8634C91.2274 156.6 91.5167 156.553 91.7314 156.46C91.9554 156.367 92.114 156.208 92.2074 155.984C92.3007 155.76 92.3474 155.452 92.3474 155.06H93.2994V165H92.0954Z"
    fill="#737373"
  />
  <path
    d="M217.553 165C217.553 164.3 217.661 163.67 217.875 163.11C218.099 162.541 218.487 161.999 219.037 161.486C219.597 160.973 220.372 160.455 221.361 159.932C221.819 159.689 222.187 159.465 222.467 159.26C222.747 159.055 222.953 158.835 223.083 158.602C223.214 158.369 223.279 158.084 223.279 157.748C223.279 157.403 223.205 157.104 223.055 156.852C222.906 156.591 222.682 156.385 222.383 156.236C222.094 156.087 221.73 156.012 221.291 156.012C220.591 156.012 220.036 156.194 219.625 156.558C219.224 156.922 218.972 157.44 218.869 158.112L217.609 158.028C217.721 157.057 218.095 156.283 218.729 155.704C219.364 155.125 220.218 154.836 221.291 154.836C221.973 154.836 222.556 154.957 223.041 155.2C223.527 155.443 223.895 155.783 224.147 156.222C224.409 156.651 224.539 157.151 224.539 157.72C224.539 158.224 224.455 158.663 224.287 159.036C224.119 159.4 223.835 159.741 223.433 160.058C223.041 160.375 222.5 160.716 221.809 161.08C220.913 161.556 220.232 162.037 219.765 162.522C219.308 163.007 219.065 163.441 219.037 163.824H224.539V165H217.553Z"
    fill="#737373"
  />
  <path
    d="M352.437 165V162.844H347.383V161.752L352.353 155.06H353.641V161.668H354.873V162.844H353.641V165H352.437ZM348.839 161.668H352.437V156.908L348.839 161.668Z"
    fill="#737373"
  />
  <path
    d="M481.441 165.224C480.732 165.224 480.097 165.112 479.537 164.888C478.987 164.664 478.553 164.333 478.235 163.894C477.927 163.455 477.773 162.914 477.773 162.27C477.773 161.551 477.988 160.959 478.417 160.492C478.847 160.016 479.416 159.694 480.125 159.526L480.153 159.806C479.584 159.647 479.122 159.391 478.767 159.036C478.422 158.672 478.249 158.182 478.249 157.566C478.249 157.043 478.38 156.577 478.641 156.166C478.912 155.755 479.285 155.433 479.761 155.2C480.237 154.957 480.797 154.836 481.441 154.836C482.085 154.836 482.645 154.957 483.121 155.2C483.607 155.433 483.98 155.755 484.241 156.166C484.503 156.577 484.633 157.043 484.633 157.566C484.633 158.182 484.461 158.672 484.115 159.036C483.77 159.391 483.308 159.647 482.729 159.806L482.757 159.526C483.476 159.694 484.045 160.016 484.465 160.492C484.895 160.959 485.109 161.551 485.109 162.27C485.109 162.914 484.951 163.455 484.633 163.894C484.325 164.333 483.896 164.664 483.345 164.888C482.795 165.112 482.16 165.224 481.441 165.224ZM481.441 164.048C482.179 164.048 482.762 163.899 483.191 163.6C483.63 163.292 483.849 162.825 483.849 162.2C483.849 161.621 483.653 161.159 483.261 160.814C482.879 160.459 482.272 160.282 481.441 160.282C480.62 160.282 480.013 160.459 479.621 160.814C479.229 161.159 479.033 161.621 479.033 162.2C479.033 162.825 479.248 163.292 479.677 163.6C480.116 163.899 480.704 164.048 481.441 164.048ZM481.441 159.162C482.057 159.162 482.533 159.031 482.869 158.77C483.205 158.499 483.373 158.098 483.373 157.566C483.373 157.09 483.21 156.712 482.883 156.432C482.557 156.152 482.076 156.012 481.441 156.012C480.816 156.012 480.335 156.152 479.999 156.432C479.673 156.712 479.509 157.09 479.509 157.566C479.509 158.098 479.677 158.499 480.013 158.77C480.349 159.031 480.825 159.162 481.441 159.162Z"
    fill="#737373"
  />
  <path
    d="M610.095 165V157.636H608.023V156.6H608.863C609.227 156.6 609.516 156.553 609.731 156.46C609.955 156.367 610.114 156.208 610.207 155.984C610.3 155.76 610.347 155.452 610.347 155.06H611.299V165H610.095ZM617.067 165.224C616.321 165.224 615.681 165.056 615.149 164.72C614.627 164.375 614.225 163.871 613.945 163.208C613.675 162.545 613.539 161.743 613.539 160.8C613.539 159.979 613.605 159.209 613.735 158.49C613.875 157.771 614.095 157.141 614.393 156.6C614.701 156.049 615.103 155.62 615.597 155.312C616.101 154.995 616.722 154.836 617.459 154.836C618.346 154.836 619.032 155.055 619.517 155.494C620.003 155.923 620.343 156.488 620.539 157.188L619.279 157.3C619.167 156.908 618.971 156.595 618.691 156.362C618.421 156.129 618.01 156.012 617.459 156.012C616.638 156.012 615.989 156.362 615.513 157.062C615.047 157.762 614.799 158.821 614.771 160.24L614.519 160.184C614.622 159.848 614.799 159.54 615.051 159.26C615.313 158.971 615.63 158.742 616.003 158.574C616.386 158.397 616.815 158.308 617.291 158.308C617.945 158.308 618.519 158.448 619.013 158.728C619.508 159.008 619.891 159.405 620.161 159.918C620.441 160.422 620.581 161.015 620.581 161.696C620.581 162.424 620.432 163.054 620.133 163.586C619.835 164.109 619.419 164.515 618.887 164.804C618.365 165.084 617.758 165.224 617.067 165.224ZM617.095 164.048C617.749 164.048 618.281 163.843 618.691 163.432C619.111 163.012 619.321 162.433 619.321 161.696C619.321 161.239 619.233 160.842 619.055 160.506C618.878 160.17 618.631 159.913 618.313 159.736C617.996 159.549 617.627 159.456 617.207 159.456C616.759 159.456 616.358 159.549 616.003 159.736C615.649 159.913 615.369 160.17 615.163 160.506C614.958 160.842 614.855 161.239 614.855 161.696C614.855 162.153 614.944 162.559 615.121 162.914C615.308 163.269 615.569 163.549 615.905 163.754C616.241 163.95 616.638 164.048 617.095 164.048Z"
    fill="#737373"
  />
  <path
    d="M634.559 165.224C633.672 165.224 632.893 165.019 632.221 164.608C631.549 164.188 631.026 163.591 630.653 162.816C630.28 162.041 630.093 161.117 630.093 160.044C630.093 158.971 630.28 158.047 630.653 157.272C631.026 156.488 631.549 155.886 632.221 155.466C632.893 155.046 633.672 154.836 634.559 154.836C635.763 154.836 636.696 155.139 637.359 155.746C638.022 156.353 638.456 157.179 638.661 158.224L637.387 158.308C637.247 157.599 636.948 157.039 636.491 156.628C636.034 156.217 635.39 156.012 634.559 156.012C633.924 156.012 633.364 156.175 632.879 156.502C632.403 156.819 632.03 157.281 631.759 157.888C631.488 158.485 631.353 159.204 631.353 160.044C631.353 160.884 631.488 161.603 631.759 162.2C632.03 162.797 632.403 163.255 632.879 163.572C633.364 163.889 633.924 164.048 634.559 164.048C635.427 164.048 636.099 163.824 636.575 163.376C637.051 162.919 637.35 162.303 637.471 161.528L638.745 161.612C638.624 162.331 638.386 162.961 638.031 163.502C637.676 164.043 637.205 164.468 636.617 164.776C636.038 165.075 635.352 165.224 634.559 165.224Z"
    fill="#737373"
  />
  <path
    d="M90.7514 217V207.06H92.4314L95.6094 215.684L98.7734 207.06H100.453V217H99.2494V209.3L96.4074 217H94.7974L91.9554 209.3V217H90.7514ZM105.622 217.168C104.922 217.168 104.315 217.009 103.802 216.692C103.298 216.375 102.906 215.927 102.626 215.348C102.355 214.76 102.22 214.074 102.22 213.29C102.22 212.506 102.355 211.825 102.626 211.246C102.906 210.667 103.293 210.219 103.788 209.902C104.292 209.575 104.885 209.412 105.566 209.412C106.21 209.412 106.779 209.566 107.274 209.874C107.769 210.173 108.151 210.611 108.422 211.19C108.702 211.769 108.842 212.473 108.842 213.304V213.654H103.452C103.499 214.447 103.709 215.045 104.082 215.446C104.465 215.847 104.978 216.048 105.622 216.048C106.107 216.048 106.504 215.936 106.812 215.712C107.129 215.479 107.349 215.175 107.47 214.802L108.73 214.9C108.534 215.563 108.161 216.109 107.61 216.538C107.069 216.958 106.406 217.168 105.622 217.168ZM103.452 212.618H107.554C107.498 211.899 107.288 211.372 106.924 211.036C106.569 210.7 106.117 210.532 105.566 210.532C104.997 210.532 104.525 210.709 104.152 211.064C103.788 211.409 103.555 211.927 103.452 212.618ZM110.435 217V209.58H111.513L111.555 211.456L111.387 211.4C111.471 210.989 111.616 210.639 111.821 210.35C112.036 210.051 112.297 209.823 112.605 209.664C112.913 209.496 113.254 209.412 113.627 209.412C114.271 209.412 114.794 209.589 115.195 209.944C115.606 210.299 115.862 210.793 115.965 211.428L115.741 211.414C115.816 210.985 115.951 210.625 116.147 210.336C116.352 210.037 116.614 209.809 116.931 209.65C117.248 209.491 117.612 209.412 118.023 209.412C118.555 209.412 119.003 209.524 119.367 209.748C119.731 209.963 120.006 210.28 120.193 210.7C120.38 211.12 120.473 211.629 120.473 212.226V217H119.297V212.478C119.297 211.806 119.166 211.302 118.905 210.966C118.644 210.621 118.256 210.448 117.743 210.448C117.398 210.448 117.094 210.532 116.833 210.7C116.581 210.868 116.385 211.111 116.245 211.428C116.105 211.736 116.035 212.114 116.035 212.562V217H114.859V212.562C114.859 211.899 114.742 211.381 114.509 211.008C114.276 210.635 113.884 210.448 113.333 210.448C112.988 210.448 112.684 210.532 112.423 210.7C112.171 210.868 111.97 211.111 111.821 211.428C111.681 211.745 111.611 212.123 111.611 212.562V217H110.435ZM125.446 217.168C124.765 217.168 124.168 217.009 123.654 216.692C123.141 216.375 122.744 215.927 122.464 215.348C122.184 214.76 122.044 214.074 122.044 213.29C122.044 212.497 122.184 211.811 122.464 211.232C122.744 210.653 123.141 210.205 123.654 209.888C124.168 209.571 124.765 209.412 125.446 209.412C126.128 209.412 126.72 209.571 127.224 209.888C127.738 210.205 128.134 210.653 128.414 211.232C128.694 211.811 128.834 212.497 128.834 213.29C128.834 214.074 128.694 214.76 128.414 215.348C128.134 215.927 127.738 216.375 127.224 216.692C126.72 217.009 126.128 217.168 125.446 217.168ZM125.446 216.048C126.128 216.048 126.655 215.805 127.028 215.32C127.411 214.825 127.602 214.149 127.602 213.29C127.602 212.431 127.411 211.759 127.028 211.274C126.655 210.779 126.128 210.532 125.446 210.532C124.765 210.532 124.233 210.779 123.85 211.274C123.468 211.759 123.276 212.431 123.276 213.29C123.276 214.149 123.468 214.825 123.85 215.32C124.233 215.805 124.765 216.048 125.446 216.048ZM130.437 217V209.58H131.473L131.529 211.456L131.417 211.414C131.51 210.779 131.711 210.317 132.019 210.028C132.336 209.729 132.756 209.58 133.279 209.58H134.007V210.7H133.293C132.92 210.7 132.607 210.77 132.355 210.91C132.112 211.041 131.926 211.241 131.795 211.512C131.674 211.773 131.613 212.109 131.613 212.52V217H130.437ZM135.708 219.1V218.064H136.562C136.823 218.064 137.015 218.022 137.136 217.938C137.267 217.863 137.365 217.737 137.43 217.56L137.696 216.86H137.29L134.574 209.58H135.862L138.074 215.768L140.188 209.58H141.476L138.466 217.938C138.326 218.339 138.116 218.633 137.836 218.82C137.556 219.007 137.169 219.1 136.674 219.1H135.708ZM142.8 217V215.418H144.382V217H142.8ZM142.8 211.498V209.916H144.382V211.498H142.8Z"
    fill="#030712"
  />
  <path
    d="M155.303 217C155.303 216.3 155.411 215.67 155.625 215.11C155.849 214.541 156.237 213.999 156.787 213.486C157.347 212.973 158.122 212.455 159.111 211.932C159.569 211.689 159.937 211.465 160.217 211.26C160.497 211.055 160.703 210.835 160.833 210.602C160.964 210.369 161.029 210.084 161.029 209.748C161.029 209.403 160.955 209.104 160.805 208.852C160.656 208.591 160.432 208.385 160.133 208.236C159.844 208.087 159.48 208.012 159.041 208.012C158.341 208.012 157.786 208.194 157.375 208.558C156.974 208.922 156.722 209.44 156.619 210.112L155.359 210.028C155.471 209.057 155.845 208.283 156.479 207.704C157.114 207.125 157.968 206.836 159.041 206.836C159.723 206.836 160.306 206.957 160.791 207.2C161.277 207.443 161.645 207.783 161.897 208.222C162.159 208.651 162.289 209.151 162.289 209.72C162.289 210.224 162.205 210.663 162.037 211.036C161.869 211.4 161.585 211.741 161.183 212.058C160.791 212.375 160.25 212.716 159.559 213.08C158.663 213.556 157.982 214.037 157.515 214.522C157.058 215.007 156.815 215.441 156.787 215.824H162.289V217H155.303ZM171.699 217.224C170.766 217.224 169.968 217 169.305 216.552C168.643 216.104 168.134 215.493 167.779 214.718C167.434 213.934 167.261 213.043 167.261 212.044C167.261 211.045 167.439 210.154 167.793 209.37C168.148 208.586 168.657 207.97 169.319 207.522C169.991 207.065 170.794 206.836 171.727 206.836C172.521 206.836 173.188 206.981 173.729 207.27C174.28 207.559 174.714 207.951 175.031 208.446C175.358 208.941 175.582 209.496 175.703 210.112L174.443 210.196C174.322 209.552 174.051 209.029 173.631 208.628C173.211 208.217 172.577 208.012 171.727 208.012C170.971 208.012 170.355 208.199 169.879 208.572C169.413 208.945 169.067 209.44 168.843 210.056C168.629 210.663 168.521 211.325 168.521 212.044C168.521 212.8 168.633 213.481 168.857 214.088C169.081 214.685 169.431 215.161 169.907 215.516C170.383 215.871 170.99 216.048 171.727 216.048C172.315 216.048 172.824 215.917 173.253 215.656C173.683 215.385 174.014 215.026 174.247 214.578C174.481 214.13 174.602 213.645 174.611 213.122H171.755V211.974H175.731V217H174.835L174.751 214.704L174.919 214.9C174.807 215.348 174.593 215.749 174.275 216.104C173.958 216.449 173.575 216.725 173.127 216.93C172.689 217.126 172.213 217.224 171.699 217.224ZM177.722 217V207.06H181.138C182.314 207.06 183.196 207.275 183.784 207.704C184.372 208.133 184.666 208.81 184.666 209.734C184.666 210.163 184.573 210.541 184.386 210.868C184.199 211.195 183.933 211.451 183.588 211.638C183.243 211.815 182.832 211.904 182.356 211.904L182.342 211.82C183.191 211.82 183.859 212.049 184.344 212.506C184.839 212.954 185.086 213.542 185.086 214.27C185.086 215.175 184.792 215.857 184.204 216.314C183.616 216.771 182.781 217 181.698 217H177.722ZM178.926 215.824H181.698C182.379 215.824 182.902 215.684 183.266 215.404C183.639 215.124 183.826 214.723 183.826 214.2C183.826 213.677 183.639 213.271 183.266 212.982C182.902 212.683 182.379 212.534 181.698 212.534H178.926V215.824ZM178.926 211.358H181.138C181.866 211.358 182.426 211.223 182.818 210.952C183.21 210.672 183.406 210.285 183.406 209.79C183.406 209.267 183.215 208.88 182.832 208.628C182.459 208.367 181.894 208.236 181.138 208.236H178.926V211.358ZM197.612 216.342L201.966 211.974L197.626 207.634H199.18L203.52 211.988L199.166 216.342H197.612ZM193.58 211.414H202.82V212.562H193.58V211.414Z"
    fill="#030712"
  />
  <path
    d="M213.121 217V214.844H208.067V213.752L213.037 207.06H214.325V213.668H215.557V214.844H214.325V217H213.121ZM209.523 213.668H213.121V208.908L209.523 213.668ZM224.828 217.224C223.895 217.224 223.097 217 222.434 216.552C221.772 216.104 221.263 215.493 220.908 214.718C220.563 213.934 220.39 213.043 220.39 212.044C220.39 211.045 220.568 210.154 220.922 209.37C221.277 208.586 221.786 207.97 222.448 207.522C223.12 207.065 223.923 206.836 224.856 206.836C225.65 206.836 226.317 206.981 226.858 207.27C227.409 207.559 227.843 207.951 228.16 208.446C228.487 208.941 228.711 209.496 228.832 210.112L227.572 210.196C227.451 209.552 227.18 209.029 226.76 208.628C226.34 208.217 225.706 208.012 224.856 208.012C224.1 208.012 223.484 208.199 223.008 208.572C222.542 208.945 222.196 209.44 221.972 210.056C221.758 210.663 221.65 211.325 221.65 212.044C221.65 212.8 221.762 213.481 221.986 214.088C222.21 214.685 222.56 215.161 223.036 215.516C223.512 215.871 224.119 216.048 224.856 216.048C225.444 216.048 225.953 215.917 226.382 215.656C226.812 215.385 227.143 215.026 227.376 214.578C227.61 214.13 227.731 213.645 227.74 213.122H224.884V211.974H228.86V217H227.964L227.88 214.704L228.048 214.9C227.936 215.348 227.722 215.749 227.404 216.104C227.087 216.449 226.704 216.725 226.256 216.93C225.818 217.126 225.342 217.224 224.828 217.224ZM230.851 217V207.06H234.267C235.443 207.06 236.325 207.275 236.913 207.704C237.501 208.133 237.795 208.81 237.795 209.734C237.795 210.163 237.702 210.541 237.515 210.868C237.328 211.195 237.062 211.451 236.717 211.638C236.372 211.815 235.961 211.904 235.485 211.904L235.471 211.82C236.32 211.82 236.988 212.049 237.473 212.506C237.968 212.954 238.215 213.542 238.215 214.27C238.215 215.175 237.921 215.857 237.333 216.314C236.745 216.771 235.91 217 234.827 217H230.851ZM232.055 215.824H234.827C235.508 215.824 236.031 215.684 236.395 215.404C236.768 215.124 236.955 214.723 236.955 214.2C236.955 213.677 236.768 213.271 236.395 212.982C236.031 212.683 235.508 212.534 234.827 212.534H232.055V215.824ZM232.055 211.358H234.267C234.995 211.358 235.555 211.223 235.947 210.952C236.339 210.672 236.535 210.285 236.535 209.79C236.535 209.267 236.344 208.88 235.961 208.628C235.588 208.367 235.023 208.236 234.267 208.236H232.055V211.358Z"
    fill="#F87171"
  />
  <path d="M154.463 212.548H185.95V213.248H154.463V212.548Z" fill="#030712" />
  <path
    d="M617.467 231V231.25H618.463C618.837 231.25 619.192 231.325 619.516 231.459L619.611 231.228C620.344 231.531 620.931 232.118 621.235 232.852L621.004 232.947C621.139 233.271 621.213 233.627 621.213 234C621.213 234.373 621.139 234.729 621.004 235.053L621.235 235.147C620.931 235.881 620.345 236.467 619.611 236.771L619.516 236.541C619.192 236.675 618.837 236.75 618.463 236.75H617.468V237H615.476V236.75H613.484V237H611.492V236.75H609.499V237H607.506V236.75H605.514V237H603.522V236.75H601.529V237H599.537V236.75H597.544V237H595.552V236.75H593.559V237H591.567V236.75H589.575V237H587.583V236.75H585.589V237H583.597V236.75H581.605V237H579.613V236.75H577.62V237H575.627V236.75H573.635V237H571.643V236.75H569.65V237H567.658V236.75H565.666V237H563.673V236.75H561.68V237H559.688V236.75H557.696V237H555.704V236.75H553.71V237H551.718V236.75H549.726V237H547.734V236.75H545.741V237H543.749V236.75H541.756V237H539.764V236.75H537.771V237H535.779V236.75H533.787V237H531.794V236.75H529.801V237H527.809V236.75H525.817V237H523.825V236.75H521.832V237H519.839V236.75H517.847V237H515.855V236.75H513.862V237H511.87V236.75H509.877V237H507.885V236.75H505.892V237H503.9V236.75H501.908V237H499.916V236.75H497.922V237H495.93V236.75H493.938V237H491.946V236.75H489.953V237H487.96V236.75H485.968V237H483.976V236.75H481.983V237H479.991V236.75H477.999V237H476.006V236.75H474.013V237H472.021V236.75H470.029V237H468.037V236.75H466.043V237H464.051V236.75H462.059V237H460.067V236.75H458.074V237H456.082V236.75H454.089V237H452.097V236.75H450.104V237H448.112V236.75H446.12V237H444.127V236.75H442.134V237H440.142V236.75H438.15V237H436.158V236.75H434.165V237H432.172V236.75H430.18V237H428.188V236.75H426.195V237H424.203V236.75H422.21V237H420.218V236.75H418.225V237H416.233V236.75H414.241V237H412.249V236.75H410.255V237H408.263V236.75H406.271V237H404.279V236.75H402.286V237H400.293V236.75H398.301V237H396.309V236.75H394.316V237H392.324V236.75H390.332V237H388.339V236.75H386.346V237H384.354V236.75H382.362V237H380.37V236.75H378.376V237H376.384V236.75H374.392V237H372.4V236.75H370.407V237H368.415V236.75H366.422V237H364.43V236.75H362.437V237H360.445V236.75H358.453V237H356.46V236.75H354.467V237H352.475V236.75H350.483V237H348.491V236.75H346.498V237H344.505V236.75H342.513V237H340.521V236.75H338.528V237H336.536V236.75H334.543V237H332.551V236.75H330.558V237H328.566V236.75H326.574V237H324.582V236.75H322.588V237H320.596V236.75H318.604V237H316.612V236.75H314.619V237H312.626V236.75H310.634V237H308.642V236.75H306.649V237H304.657V236.75H302.665V237H300.672V236.75H298.679V237H296.687V236.75H294.695V237H292.703V236.75H290.709V237H288.717V236.75H286.725V237H284.733V236.75H282.74V237H280.748V236.75H278.755V237H276.763V236.75H274.77V237H272.778V236.75H270.786V237H268.793V236.75H266.8V237H264.808V236.75H262.816V237H260.824V236.75H258.831V237H256.838V236.75H254.846V237H252.854V236.75H250.861V237H248.869V236.75H246.876V237H244.884V236.75H242.891V237H240.899V236.75H238.907V237H236.915V236.75H234.921V237H232.929V236.75H230.937V237H228.945V236.75H226.952V237H224.959V236.75H222.967V237H220.975V236.75H218.982V237H216.99V236.75H214.998V237H213.005V236.75H211.012V237H209.02V236.75H207.028V237H205.036V236.75H203.042V237H201.05V236.75H199.058V237H197.066V236.75H195.073V237H193.081V236.75H191.088V237H189.096V236.75H187.104V237H185.111V236.75H183.119V237H181.126V236.75H179.134V237H177.141V236.75H175.149V237H173.157V236.75H171.165V237H169.171V236.75H167.179V237H165.187V236.75H163.195V237H161.202V236.75H159.209V237H157.217V236.75H155.225V237H153.232V236.75H151.24V237H149.248V236.75H147.255V237H145.262V236.75H143.27V237H141.278V236.75H139.286V237H137.292V236.75H135.3V237H133.308V236.75H131.316V237H129.323V236.75H127.331V237H125.338V236.75H123.346V237H121.354V236.75H119.361V237H117.369V236.75H115.376V237H113.384V236.75H111.391V237H109.399V236.75H107.407V237H105.415V236.75H103.421V237H101.429V236.75H99.437V237H97.4448V236.75H95.4517V237H93.4595V236.75H92.4634C92.09 236.75 91.7345 236.675 91.4106 236.541L91.3149 236.771C90.5815 236.467 89.9949 235.881 89.6909 235.147L89.9224 235.053C89.788 234.729 89.7134 234.373 89.7134 234C89.7134 233.627 89.788 233.271 89.9224 232.947L89.6909 232.852C89.995 232.118 90.5816 231.532 91.3149 231.228L91.4106 231.459C91.7345 231.325 92.09 231.25 92.4634 231.25H93.4585V231H95.4507V231.25H97.4429V231H99.4351V231.25H101.428V231H103.42V231.25H105.413V231H107.405V231.25H109.398V231H111.39V231.25H113.382V231H115.375V231.25H117.368V231H119.36V231.25H121.352V231H123.344V231.25H125.337V231H127.33V231.25H129.322V231H131.314V231.25H133.307V231H135.299V231.25H137.292V231H139.284V231.25H141.277V231H143.269V231.25H145.261V231H147.253V231.25H149.247V231H151.239V231.25H153.231V231H155.223V231.25H157.216V231H159.208V231.25H161.201V231H163.193V231.25H165.186V231H167.178V231.25H169.17V231H171.163V231.25H173.156V231H175.148V231.25H177.14V231H179.132V231.25H181.125V231H183.118V231.25H185.11V231H187.102V231.25H189.095V231H191.087V231.25H193.08V231H195.072V231.25H197.065V231H199.057V231.25H201.049V231H203.042V231.25H205.035V231H207.027V231.25H209.019V231H211.011V231.25H213.004V231H214.997V231.25H216.989V231H218.981V231.25H220.974V231H222.966V231.25H224.958V231H226.951V231.25H228.944V231H230.936V231.25H232.928V231H234.92V231.25H236.914V231H238.906V231.25H240.898V231H242.89V231.25H244.883V231H246.875V231.25H248.868V231H250.86V231.25H252.853V231H254.845V231.25H256.837V231H258.83V231.25H260.823V231H262.815V231.25H264.807V231H266.799V231.25H268.792V231H270.785V231.25H272.777V231H274.769V231.25H276.762V231H278.754V231.25H280.747V231H282.739V231.25H284.732V231H286.724V231.25H288.716V231H290.708V231.25H292.702V231H294.694V231.25H296.686V231H298.678V231.25H300.671V231H302.664V231.25H304.656V231H306.648V231.25H308.641V231H310.633V231.25H312.625V231H314.618V231.25H316.611V231H318.603V231.25H320.595V231H322.587V231.25H324.581V231H326.573V231.25H328.565V231H330.557V231.25H332.55V231H334.542V231.25H336.535V231H338.527V231.25H340.52V231H342.512V231.25H344.504V231H346.497V231.25H348.49V231H350.482V231.25H352.474V231H354.466V231.25H356.459V231H358.452V231.25H360.444V231H362.436V231.25H364.429V231H366.421V231.25H368.414V231H370.406V231.25H372.399V231H374.391V231.25H376.383V231H378.375V231.25H380.369V231H382.361V231.25H384.353V231H386.345V231.25H388.338V231H390.331V231.25H392.323V231H394.315V231.25H396.308V231H398.3V231.25H400.292V231H402.285V231.25H404.278V231H406.27V231.25H408.262V231H410.254V231.25H412.248V231H414.24V231.25H416.232V231H418.224V231.25H420.217V231H422.209V231.25H424.202V231H426.194V231.25H428.187V231H430.179V231.25H432.171V231H434.164V231.25H436.157V231H438.149V231.25H440.141V231H442.133V231.25H444.126V231H446.119V231.25H448.111V231H450.103V231.25H452.096V231H454.088V231.25H456.081V231H458.073V231.25H460.066V231H462.058V231.25H464.05V231H466.042V231.25H468.036V231H470.028V231.25H472.02V231H474.012V231.25H476.005V231H477.998V231.25H479.99V231H481.982V231.25H483.975V231H485.967V231.25H487.959V231H489.952V231.25H491.945V231H493.937V231.25H495.929V231H497.921V231.25H499.915V231H501.907V231.25H503.899V231H505.891V231.25H507.884V231H509.876V231.25H511.869V231H513.861V231.25H515.854V231H517.846V231.25H519.838V231H521.831V231.25H523.823V231H525.816V231.25H527.808V231H529.8V231.25H531.792V231H533.786V231.25H535.778V231H537.77V231.25H539.762V231H541.755V231.25H543.748V231H545.74V231.25H547.732V231H549.725V231.25H551.717V231H553.709V231.25H555.702V231H557.695V231.25H559.687V231H561.679V231.25H563.671V231H565.665V231.25H567.657V231H569.649V231.25H571.641V231H573.634V231.25H575.626V231H577.619V231.25H579.611V231H581.604V231.25H583.596V231H585.588V231.25H587.581V231H589.573V231.25H591.566V231H593.558V231.25H595.55V231H597.542V231.25H599.536V231H601.528V231.25H603.52V231H605.512V231.25H607.505V231H609.498V231.25H611.49V231H613.482V231.25H615.475V231H617.467Z"
    stroke="#005BFF"
    stroke-width="0.5"
    stroke-dasharray="2 2"
  />
  <path
    d="M89.4634 234C89.4634 232.343 90.8065 231 92.4634 231H219.463C221.12 231 222.463 232.343 222.463 234C222.463 235.657 221.12 237 219.463 237H92.4634C90.8065 237 89.4634 235.657 89.4634 234Z"
    fill="black"
    fill-opacity="0.4"
  />
  <path
    d="M212.463 234C212.463 229.582 216.045 226 220.463 226C224.882 226 228.463 229.582 228.463 234C228.463 238.418 224.882 242 220.463 242C216.045 242 212.463 238.418 212.463 234Z"
    fill="#71717A"
  />
  <path
    d="M220.463 227C224.329 227 227.463 230.134 227.463 234C227.463 237.866 224.329 241 220.463 241C216.597 241 213.463 237.866 213.463 234C213.463 230.134 216.597 227 220.463 227Z"
    stroke="white"
    stroke-opacity="0.05"
    stroke-width="2"
  />
  <path
    d="M92.0954 264V256.636H90.0234V255.6H90.8634C91.2274 255.6 91.5167 255.553 91.7314 255.46C91.9554 255.367 92.114 255.208 92.2074 254.984C92.3007 254.76 92.3474 254.452 92.3474 254.06H93.2994V264H92.0954Z"
    fill="#737373"
  />
  <path
    d="M217.553 264C217.553 263.3 217.661 262.67 217.875 262.11C218.099 261.541 218.487 260.999 219.037 260.486C219.597 259.973 220.372 259.455 221.361 258.932C221.819 258.689 222.187 258.465 222.467 258.26C222.747 258.055 222.953 257.835 223.083 257.602C223.214 257.369 223.279 257.084 223.279 256.748C223.279 256.403 223.205 256.104 223.055 255.852C222.906 255.591 222.682 255.385 222.383 255.236C222.094 255.087 221.73 255.012 221.291 255.012C220.591 255.012 220.036 255.194 219.625 255.558C219.224 255.922 218.972 256.44 218.869 257.112L217.609 257.028C217.721 256.057 218.095 255.283 218.729 254.704C219.364 254.125 220.218 253.836 221.291 253.836C221.973 253.836 222.556 253.957 223.041 254.2C223.527 254.443 223.895 254.783 224.147 255.222C224.409 255.651 224.539 256.151 224.539 256.72C224.539 257.224 224.455 257.663 224.287 258.036C224.119 258.4 223.835 258.741 223.433 259.058C223.041 259.375 222.5 259.716 221.809 260.08C220.913 260.556 220.232 261.037 219.765 261.522C219.308 262.007 219.065 262.441 219.037 262.824H224.539V264H217.553Z"
    fill="#737373"
  />
  <path
    d="M352.437 264V261.844H347.383V260.752L352.353 254.06H353.641V260.668H354.873V261.844H353.641V264H352.437ZM348.839 260.668H352.437V255.908L348.839 260.668Z"
    fill="#737373"
  />
  <path
    d="M481.441 264.224C480.732 264.224 480.097 264.112 479.537 263.888C478.987 263.664 478.553 263.333 478.235 262.894C477.927 262.455 477.773 261.914 477.773 261.27C477.773 260.551 477.988 259.959 478.417 259.492C478.847 259.016 479.416 258.694 480.125 258.526L480.153 258.806C479.584 258.647 479.122 258.391 478.767 258.036C478.422 257.672 478.249 257.182 478.249 256.566C478.249 256.043 478.38 255.577 478.641 255.166C478.912 254.755 479.285 254.433 479.761 254.2C480.237 253.957 480.797 253.836 481.441 253.836C482.085 253.836 482.645 253.957 483.121 254.2C483.607 254.433 483.98 254.755 484.241 255.166C484.503 255.577 484.633 256.043 484.633 256.566C484.633 257.182 484.461 257.672 484.115 258.036C483.77 258.391 483.308 258.647 482.729 258.806L482.757 258.526C483.476 258.694 484.045 259.016 484.465 259.492C484.895 259.959 485.109 260.551 485.109 261.27C485.109 261.914 484.951 262.455 484.633 262.894C484.325 263.333 483.896 263.664 483.345 263.888C482.795 264.112 482.16 264.224 481.441 264.224ZM481.441 263.048C482.179 263.048 482.762 262.899 483.191 262.6C483.63 262.292 483.849 261.825 483.849 261.2C483.849 260.621 483.653 260.159 483.261 259.814C482.879 259.459 482.272 259.282 481.441 259.282C480.62 259.282 480.013 259.459 479.621 259.814C479.229 260.159 479.033 260.621 479.033 261.2C479.033 261.825 479.248 262.292 479.677 262.6C480.116 262.899 480.704 263.048 481.441 263.048ZM481.441 258.162C482.057 258.162 482.533 258.031 482.869 257.77C483.205 257.499 483.373 257.098 483.373 256.566C483.373 256.09 483.21 255.712 482.883 255.432C482.557 255.152 482.076 255.012 481.441 255.012C480.816 255.012 480.335 255.152 479.999 255.432C479.673 255.712 479.509 256.09 479.509 256.566C479.509 257.098 479.677 257.499 480.013 257.77C480.349 258.031 480.825 258.162 481.441 258.162Z"
    fill="#737373"
  />
  <path
    d="M610.095 264V256.636H608.023V255.6H608.863C609.227 255.6 609.516 255.553 609.731 255.46C609.955 255.367 610.114 255.208 610.207 254.984C610.3 254.76 610.347 254.452 610.347 254.06H611.299V264H610.095ZM617.067 264.224C616.321 264.224 615.681 264.056 615.149 263.72C614.627 263.375 614.225 262.871 613.945 262.208C613.675 261.545 613.539 260.743 613.539 259.8C613.539 258.979 613.605 258.209 613.735 257.49C613.875 256.771 614.095 256.141 614.393 255.6C614.701 255.049 615.103 254.62 615.597 254.312C616.101 253.995 616.722 253.836 617.459 253.836C618.346 253.836 619.032 254.055 619.517 254.494C620.003 254.923 620.343 255.488 620.539 256.188L619.279 256.3C619.167 255.908 618.971 255.595 618.691 255.362C618.421 255.129 618.01 255.012 617.459 255.012C616.638 255.012 615.989 255.362 615.513 256.062C615.047 256.762 614.799 257.821 614.771 259.24L614.519 259.184C614.622 258.848 614.799 258.54 615.051 258.26C615.313 257.971 615.63 257.742 616.003 257.574C616.386 257.397 616.815 257.308 617.291 257.308C617.945 257.308 618.519 257.448 619.013 257.728C619.508 258.008 619.891 258.405 620.161 258.918C620.441 259.422 620.581 260.015 620.581 260.696C620.581 261.424 620.432 262.054 620.133 262.586C619.835 263.109 619.419 263.515 618.887 263.804C618.365 264.084 617.758 264.224 617.067 264.224ZM617.095 263.048C617.749 263.048 618.281 262.843 618.691 262.432C619.111 262.012 619.321 261.433 619.321 260.696C619.321 260.239 619.233 259.842 619.055 259.506C618.878 259.17 618.631 258.913 618.313 258.736C617.996 258.549 617.627 258.456 617.207 258.456C616.759 258.456 616.358 258.549 616.003 258.736C615.649 258.913 615.369 259.17 615.163 259.506C614.958 259.842 614.855 260.239 614.855 260.696C614.855 261.153 614.944 261.559 615.121 261.914C615.308 262.269 615.569 262.549 615.905 262.754C616.241 262.95 616.638 263.048 617.095 263.048Z"
    fill="#737373"
  />
  <path
    d="M634.531 264.224C633.598 264.224 632.8 264 632.137 263.552C631.474 263.104 630.966 262.493 630.611 261.718C630.266 260.934 630.093 260.043 630.093 259.044C630.093 258.045 630.27 257.154 630.625 256.37C630.98 255.586 631.488 254.97 632.151 254.522C632.823 254.065 633.626 253.836 634.559 253.836C635.352 253.836 636.02 253.981 636.561 254.27C637.112 254.559 637.546 254.951 637.863 255.446C638.19 255.941 638.414 256.496 638.535 257.112L637.275 257.196C637.154 256.552 636.883 256.029 636.463 255.628C636.043 255.217 635.408 255.012 634.559 255.012C633.803 255.012 633.187 255.199 632.711 255.572C632.244 255.945 631.899 256.44 631.675 257.056C631.46 257.663 631.353 258.325 631.353 259.044C631.353 259.8 631.465 260.481 631.689 261.088C631.913 261.685 632.263 262.161 632.739 262.516C633.215 262.871 633.822 263.048 634.559 263.048C635.147 263.048 635.656 262.917 636.085 262.656C636.514 262.385 636.846 262.026 637.079 261.578C637.312 261.13 637.434 260.645 637.443 260.122H634.587V258.974H638.563V264H637.667L637.583 261.704L637.751 261.9C637.639 262.348 637.424 262.749 637.107 263.104C636.79 263.449 636.407 263.725 635.959 263.93C635.52 264.126 635.044 264.224 634.531 264.224ZM640.554 264V254.06H643.97C645.146 254.06 646.028 254.275 646.616 254.704C647.204 255.133 647.498 255.81 647.498 256.734C647.498 257.163 647.404 257.541 647.218 257.868C647.031 258.195 646.765 258.451 646.42 258.638C646.074 258.815 645.664 258.904 645.188 258.904L645.174 258.82C646.023 258.82 646.69 259.049 647.176 259.506C647.67 259.954 647.918 260.542 647.918 261.27C647.918 262.175 647.624 262.857 647.036 263.314C646.448 263.771 645.612 264 644.53 264H640.554ZM641.758 262.824H644.53C645.211 262.824 645.734 262.684 646.098 262.404C646.471 262.124 646.658 261.723 646.658 261.2C646.658 260.677 646.471 260.271 646.098 259.982C645.734 259.683 645.211 259.534 644.53 259.534H641.758V262.824ZM641.758 258.358H643.97C644.698 258.358 645.258 258.223 645.65 257.952C646.042 257.672 646.238 257.285 646.238 256.79C646.238 256.267 646.046 255.88 645.664 255.628C645.29 255.367 644.726 255.236 643.97 255.236H641.758V258.358Z"
    fill="#737373"
  />
  <defs>
    <linearGradient
      id="paint0_linear_416_342"
      x1="394"
      y1="269.402"
      x2="394"
      y2="310"
      gradientUnits="userSpaceOnUse"
    >
      <stop stop-color="#FAFAFA" stop-opacity="0" />
      <stop offset="1" stop-color="#FAFAFA" />
    </linearGradient>
    <linearGradient
      id="paint1_linear_416_342"
      x1="69.4634"
      y1="40"
      x2="30.4634"
      y2="79"
      gradientUnits="userSpaceOnUse"
    >
      <stop stop-color="#636363" />
      <stop offset="1" stop-color="#111114" />
    </linearGradient>
    <linearGradient
      id="paint2_linear_416_342"
      x1="50.0311"
      y1="50.4776"
      x2="50.0311"
      y2="68.5825"
      gradientUnits="userSpaceOnUse"
    >
      <stop stop-color="white" />
      <stop offset="1" stop-color="#A9A9A9" />
    </linearGradient>
    <linearGradient
      id="paint3_linear_416_342"
      x1="50.031"
      y1="50.4775"
      x2="50.031"
      y2="68.5824"
      gradientUnits="userSpaceOnUse"
    >
      <stop stop-color="white" />
      <stop offset="1" stop-color="#A9A9A9" />
    </linearGradient>
    <clipPath id="clip0_416_342">
      <path
        d="M30.4634 48C30.4634 43.5817 34.0451 40 38.4634 40H61.4634C65.8817 40 69.4634 43.5817 69.4634 48V71C69.4634 75.4183 65.8817 79 61.4634 79H38.4634C34.0451 79 30.4634 75.4183 30.4634 71V48Z"
        fill="white"
      />
    </clipPath>
  </defs>
</svg>
