<svg
  viewBox="0 0 748 310"
  fill="none"
  xmlns="http://www.w3.org/2000/svg"
>
  <g filter="url(#filter0_dd_416_397)">
    <rect
      width="1160.92"
      height="429"
      rx="12"
      transform="matrix(0.963927 -0.266168 0 1 12 97)"
      fill="white"
      shape-rendering="crispEdges"
    />
    <rect
      x="0.240982"
      y="0.183458"
      width="1160.42"
      height="428.5"
      rx="11.75"
      transform="matrix(0.963927 -0.266168 0 1 12.0087 97.0641)"
      stroke="#E4E4E7"
      stroke-width="0.5"
      shape-rendering="crispEdges"
    />
    <path
      d="M33.9996 126.212V113.432L37.8167 112.378C39.7137 111.854 41.1712 112.009 42.1891 112.844C43.2186 113.664 43.7333 115.1 43.7333 117.152C43.7333 119.192 43.2301 120.903 42.2238 122.285C41.2175 123.667 39.7831 124.615 37.9208 125.129L33.9996 126.212ZM35.4917 124.288L37.8167 123.646C39.2626 123.246 40.3499 122.544 41.0787 121.539C41.8074 120.522 42.1718 119.203 42.1718 117.583C42.1718 115.939 41.8074 114.816 41.0787 114.213C40.3499 113.598 39.2626 113.49 37.8167 113.89L35.4917 114.532V124.288ZM49.7352 122.083C48.8676 122.322 48.1158 122.326 47.4796 122.093C46.8549 121.858 46.3691 121.416 46.0221 120.768C45.6867 120.104 45.5189 119.269 45.5189 118.261C45.5189 117.253 45.6867 116.33 46.0221 115.494C46.3691 114.654 46.8492 113.945 47.4622 113.368C48.0868 112.776 48.8214 112.363 49.6658 112.13C50.4639 111.909 51.1695 111.912 51.7825 112.139C52.3956 112.354 52.8698 112.787 53.2053 113.438C53.5523 114.086 53.7258 114.945 53.7258 116.013V116.463L47.0458 118.307C47.1036 119.311 47.3639 120.007 47.8266 120.396C48.3008 120.781 48.937 120.863 49.7352 120.643C50.3366 120.476 50.8283 120.197 51.21 119.803C51.6032 119.395 51.8751 118.93 52.0254 118.408L53.587 118.103C53.3441 119.022 52.8814 119.852 52.199 120.592C51.5281 121.317 50.7068 121.814 49.7352 122.083ZM47.0458 116.975L52.1296 115.571C52.0601 114.667 51.7999 114.06 51.3488 113.753C50.9092 113.442 50.3482 113.381 49.6658 113.57C48.9602 113.765 48.376 114.154 47.9133 114.738C47.4622 115.306 47.173 116.052 47.0458 116.975ZM57.7712 119.648L54.4226 111.032L56.0188 110.591L58.6908 117.846L61.3628 109.116L62.9591 108.675L59.6104 119.14L57.7712 119.648ZM64.7699 117.715V104.935L69.0035 103.766C70.461 103.364 71.554 103.338 72.2828 103.688C73.0115 104.039 73.3759 104.809 73.3759 105.997C73.3759 106.549 73.2602 107.067 73.0289 107.55C72.7975 108.034 72.4678 108.455 72.0399 108.814C71.6119 109.16 71.1029 109.414 70.513 109.577L70.4957 109.474C71.5483 109.183 72.3753 109.249 72.9768 109.671C73.5899 110.078 73.8964 110.749 73.8964 111.685C73.8964 112.849 73.532 113.826 72.8033 114.615C72.0746 115.404 71.0393 115.984 69.6975 116.354L64.7699 117.715ZM66.2621 115.791L69.6975 114.842C70.5419 114.609 71.1897 114.25 71.6408 113.766C72.1035 113.278 72.3348 112.698 72.3348 112.026C72.3348 111.354 72.1035 110.896 71.6408 110.652C71.1897 110.392 70.5419 110.379 69.6975 110.612L66.2621 111.561V115.791ZM66.2621 110.049L69.0035 109.292C69.9057 109.043 70.5998 108.677 71.0856 108.195C71.5714 107.701 71.8143 107.136 71.8143 106.5C71.8143 105.828 71.5772 105.395 71.1029 105.202C70.6402 104.994 69.9404 105.019 69.0035 105.278L66.2621 106.035V110.049ZM79.9125 113.75C79.0681 113.983 78.3278 113.983 77.6916 113.751C77.0554 113.519 76.5638 113.078 76.2168 112.43C75.8698 111.77 75.6962 110.936 75.6962 109.928C75.6962 108.908 75.8698 107.978 76.2168 107.138C76.5638 106.298 77.0554 105.587 77.6916 105.003C78.3278 104.419 79.0681 104.011 79.9125 103.778C80.7569 103.545 81.4914 103.546 82.116 103.781C82.7522 104.014 83.2438 104.454 83.5908 105.102C83.9378 105.75 84.1113 106.584 84.1113 107.604C84.1113 108.612 83.9378 109.542 83.5908 110.394C83.2438 111.234 82.7522 111.946 82.116 112.529C81.4914 113.11 80.7569 113.517 79.9125 113.75ZM79.9125 112.31C80.7569 112.077 81.4104 111.584 81.8731 110.832C82.3473 110.065 82.5845 109.13 82.5845 108.026C82.5845 106.922 82.3473 106.123 81.8731 105.63C81.4104 105.122 80.7569 104.985 79.9125 105.218C79.0681 105.451 78.4087 105.951 77.9345 106.718C77.4602 107.473 77.2231 108.402 77.2231 109.506C77.2231 110.61 77.4602 111.415 77.9345 111.92C78.4087 112.413 79.0681 112.543 79.9125 112.31ZM84.8303 112.176L88.2137 106.345L85.0038 102.588L86.7042 102.118L89.1159 105.052L91.4583 100.806L93.1933 100.326L90.0181 105.883L93.3495 109.823L91.6491 110.293L89.1159 107.14L86.5654 111.697L84.8303 112.176Z"
      fill="#18181B"
    />
    <rect
      width="339.656"
      height="8.95459"
      rx="4.47729"
      transform="matrix(0.963927 -0.266168 0 1 64.4756 142.278)"
      fill="#F4F4F5"
    />
    <rect
      width="156.965"
      height="8.95459"
      rx="4.47729"
      transform="matrix(0.963927 -0.266168 0 1 64.4756 161.278)"
      fill="#F4F4F5"
    />
    <g clip-path="url(#clip0_416_397)">
      <g opacity="0.7">
        <rect
          width="8"
          height="8"
          rx="2"
          transform="matrix(0.963927 -0.266168 0 1 100.464 97.9604)"
          fill="#34D399"
        />
        <rect
          x="0.481963"
          y="0.366916"
          width="7"
          height="7"
          rx="1.5"
          transform="matrix(0.963927 -0.266168 0 1 100.481 98.0887)"
          stroke="black"
          stroke-opacity="0.05"
        />
      </g>
      <path
        d="M117.047 102.381V92.4412L120.866 91.3866C121.55 91.1978 122.139 91.1565 122.634 91.2625C123.129 91.3685 123.511 91.6083 123.781 91.9817C124.051 92.3552 124.186 92.85 124.186 93.466C124.186 93.914 124.087 94.3426 123.889 94.7519C123.7 95.1588 123.444 95.5142 123.12 95.8183C122.805 96.1106 122.468 96.3204 122.108 96.4478L122.04 96.3404C122.643 96.174 123.111 96.1895 123.444 96.3869C123.777 96.575 123.97 96.9649 124.024 97.5567L124.281 100.384L122.81 100.79L122.58 98.1514C122.553 97.7575 122.423 97.4995 122.189 97.3775C121.955 97.246 121.573 97.2536 121.042 97.4002L118.505 98.1007V101.979L117.047 102.381ZM118.505 96.7147L120.893 96.0552C121.442 95.9036 121.874 95.6444 122.189 95.2775C122.513 94.8987 122.675 94.448 122.675 93.9253C122.675 93.3933 122.513 93.032 122.189 92.8415C121.865 92.6416 121.393 92.6273 120.772 92.7987L118.505 93.4247V96.7147ZM128.301 99.4417C127.581 99.6404 127.006 99.5521 126.574 99.1767C126.151 98.7894 125.939 98.1525 125.939 97.2658V92.4778L127.37 92.0828V96.4928C127.37 97.1648 127.482 97.6284 127.707 97.8837C127.932 98.1389 128.274 98.2032 128.733 98.0765C129.255 97.9324 129.66 97.6479 129.947 97.2231C130.244 96.7864 130.393 96.2508 130.393 95.6161V91.2481L131.823 90.8531V98.3011L130.487 98.67L130.46 96.7315L130.663 96.7596C130.537 97.4477 130.271 98.025 129.866 98.4915C129.462 98.9486 128.94 99.2653 128.301 99.4417ZM133.847 97.7424V90.2944L135.156 89.933L135.21 91.906L135.034 91.8565C135.115 91.3488 135.268 90.9146 135.493 90.5538C135.718 90.193 135.992 89.8979 136.316 89.6685C136.64 89.4297 136.991 89.2582 137.369 89.1538C137.909 89.0048 138.354 89.0078 138.705 89.1629C139.065 89.3062 139.335 89.5677 139.515 89.9473C139.703 90.3152 139.798 90.7698 139.798 91.3111V96.0991L138.367 96.4941V92.1541C138.367 91.7154 138.322 91.3592 138.232 91.0853C138.143 90.8115 137.994 90.6238 137.787 90.5223C137.58 90.4208 137.31 90.416 136.977 90.5079C136.474 90.647 136.064 90.9327 135.749 91.365C135.435 91.7973 135.277 92.3448 135.277 93.0074V97.3474L133.847 97.7424ZM141.569 95.6099V88.1619L142.878 87.8005L142.932 89.7736L142.757 89.724C142.838 89.2163 142.991 88.7821 143.216 88.4213C143.441 88.0606 143.715 87.7655 144.039 87.536C144.363 87.2973 144.714 87.1257 145.092 87.0214C145.631 86.8723 146.077 86.8753 146.428 87.0305C146.787 87.1738 147.057 87.4352 147.237 87.8149C147.426 88.1827 147.521 88.6373 147.521 89.1786V93.9666L146.09 94.3616V90.0216C146.09 89.583 146.045 89.2267 145.955 88.9529C145.865 88.6791 145.717 88.4914 145.51 88.3899C145.303 88.2883 145.033 88.2835 144.7 88.3754C144.196 88.5146 143.787 88.8003 143.472 89.2325C143.157 89.6648 143 90.2123 143 90.875V95.215L141.569 95.6099ZM149.411 93.4447V85.9967L150.841 85.6017V93.0497L149.411 93.4447ZM149.384 84.9262V83.4422L150.868 83.0323V84.5163L149.384 84.9262ZM152.982 92.4586V85.0106L154.291 84.6491L154.345 86.6222L154.17 86.5726C154.251 86.0649 154.404 85.6307 154.628 85.2699C154.853 84.9092 155.128 84.6141 155.452 84.3846C155.776 84.1459 156.126 83.9743 156.504 83.87C157.044 83.7209 157.489 83.724 157.84 83.8791C158.2 84.0224 158.47 84.2838 158.65 84.6635C158.839 85.0313 158.933 85.4859 158.933 86.0272V90.8152L157.503 91.2102V86.8702C157.503 86.4316 157.458 86.0753 157.368 85.8015C157.278 85.5277 157.13 85.34 156.923 85.2385C156.716 85.1369 156.446 85.1321 156.113 85.224C155.609 85.3632 155.2 85.6489 154.885 86.0811C154.57 86.5134 154.413 87.0609 154.413 87.7236V92.0636L152.982 92.4586ZM163.685 91.7712C163.118 91.9277 162.619 91.9769 162.187 91.9188C161.755 91.8607 161.4 91.7068 161.121 91.4572C160.842 91.2169 160.653 90.8957 160.554 90.4937L162.039 89.9858C162.138 90.2665 162.308 90.4619 162.551 90.5722C162.803 90.6893 163.181 90.6783 163.685 90.5392C164.279 90.3752 164.733 90.1191 165.048 89.7708C165.372 89.4201 165.534 88.9787 165.534 88.4467V87.3687C165.363 87.7985 165.088 88.1776 164.711 88.506C164.333 88.8343 163.91 89.0631 163.442 89.1923C162.839 89.3587 162.304 89.3525 161.836 89.1737C161.368 88.9949 161.004 88.6708 160.743 88.2015C160.482 87.7322 160.352 87.1429 160.352 86.4336C160.352 85.7149 160.478 85.0501 160.73 84.4393C160.99 83.8259 161.35 83.3018 161.809 82.8671C162.277 82.43 162.803 82.1306 163.388 81.9692C163.901 81.8276 164.351 81.8247 164.738 81.9605C165.133 82.0939 165.417 82.3423 165.588 82.7058V81.5298L166.964 81.1497V88.0097C166.964 88.6257 166.829 89.1809 166.559 89.6755C166.298 90.1768 165.921 90.6032 165.426 90.9545C164.94 91.3126 164.36 91.5849 163.685 91.7712ZM163.671 87.8689C164.229 87.7149 164.675 87.3819 165.007 86.87C165.349 86.3556 165.525 85.7285 165.534 84.9887C165.543 84.5009 165.471 84.1054 165.318 83.8023C165.165 83.4899 164.944 83.2801 164.657 83.1729C164.378 83.0539 164.049 83.0466 163.671 83.1509C163.087 83.3124 162.632 83.6525 162.308 84.1713C161.994 84.6782 161.836 85.291 161.836 86.0097C161.836 86.7377 161.998 87.2716 162.322 87.6115C162.655 87.9396 163.105 88.0254 163.671 87.8689Z"
        fill="#71717A"
      />
    </g>
  </g>
  <g filter="url(#filter1_dd_416_397)">
    <rect
      width="1160.92"
      height="429"
      rx="12"
      transform="matrix(0.963927 -0.266168 0 1 110.575 161.245)"
      fill="white"
      shape-rendering="crispEdges"
    />
    <rect
      x="0.240982"
      y="0.183458"
      width="1160.42"
      height="428.5"
      rx="11.75"
      transform="matrix(0.963927 -0.266168 0 1 110.584 161.309)"
      stroke="#E4E4E7"
      stroke-width="0.5"
      shape-rendering="crispEdges"
    />
    <path
      d="M132.575 190.457V177.677L136.392 176.623C138.289 176.099 139.746 176.254 140.764 177.089C141.794 177.909 142.309 179.345 142.309 181.397C142.309 183.437 141.805 185.148 140.799 186.53C139.793 187.912 138.358 188.86 136.496 189.374L132.575 190.457ZM134.067 188.533L136.392 187.891C137.838 187.491 138.925 186.789 139.654 185.784C140.383 184.767 140.747 183.448 140.747 181.828C140.747 180.184 140.383 179.061 139.654 178.458C138.925 177.843 137.838 177.735 136.392 178.135L134.067 178.777V188.533ZM147.132 186.653C146.184 186.915 145.426 186.896 144.859 186.597C144.304 186.294 144.026 185.735 144.026 184.919C144.026 184.103 144.258 183.397 144.72 182.801C145.183 182.205 145.918 181.672 146.924 181.202L150.186 179.672C150.186 178.868 150.001 178.319 149.631 178.025C149.272 177.728 148.728 177.68 148 177.881C147.363 178.057 146.86 178.346 146.49 178.748C146.12 179.138 145.866 179.629 145.727 180.219L144.183 180.519C144.356 179.572 144.772 178.731 145.432 177.997C146.103 177.247 146.959 176.729 148 176.441C149.18 176.116 150.082 176.215 150.706 176.738C151.331 177.25 151.643 178.111 151.643 179.323V183.265C151.643 183.481 151.678 183.628 151.747 183.705C151.828 183.766 151.956 183.773 152.129 183.725L152.493 183.625V184.957C152.447 184.981 152.372 185.008 152.268 185.037C152.164 185.078 152.054 185.114 151.938 185.146C151.522 185.261 151.181 185.289 150.915 185.231C150.66 185.157 150.475 184.992 150.359 184.736C150.244 184.468 150.186 184.094 150.186 183.614L150.359 183.602C150.278 184.032 150.082 184.459 149.769 184.881C149.457 185.291 149.07 185.656 148.607 185.976C148.144 186.284 147.653 186.509 147.132 186.653ZM147.271 185.283C147.884 185.113 148.405 184.85 148.833 184.491C149.272 184.118 149.607 183.689 149.839 183.206C150.07 182.71 150.186 182.198 150.186 181.67V180.986L147.202 182.386C146.577 182.678 146.143 182.984 145.9 183.303C145.669 183.607 145.553 183.957 145.553 184.353C145.553 184.797 145.704 185.103 146.004 185.272C146.317 185.426 146.739 185.43 147.271 185.283ZM157.048 183.699C156.215 183.929 155.597 183.902 155.192 183.618C154.798 183.33 154.602 182.766 154.602 181.926V172.602L156.059 172.2V181.488C156.059 181.92 156.152 182.194 156.337 182.311C156.522 182.428 156.805 182.434 157.187 182.329L158.506 181.964V183.296L157.048 183.699ZM153.248 176.54V175.208L158.506 173.756V175.088L153.248 176.54ZM162.788 182.33C161.84 182.592 161.082 182.573 160.515 182.273C159.96 181.971 159.683 181.411 159.683 180.595C159.683 179.779 159.914 179.074 160.377 178.478C160.839 177.882 161.574 177.349 162.58 176.879L165.842 175.349C165.842 174.545 165.657 173.996 165.287 173.702C164.928 173.405 164.385 173.357 163.656 173.558C163.02 173.734 162.517 174.023 162.146 174.425C161.776 174.815 161.522 175.306 161.383 175.896L159.839 176.196C160.012 175.248 160.429 174.407 161.088 173.673C161.759 172.924 162.615 172.406 163.656 172.118C164.836 171.792 165.738 171.891 166.363 172.415C166.987 172.926 167.3 173.788 167.3 175V178.942C167.3 179.158 167.334 179.305 167.404 179.381C167.485 179.443 167.612 179.45 167.785 179.402L168.15 179.301V180.633C168.104 180.658 168.028 180.685 167.924 180.714C167.82 180.754 167.71 180.791 167.595 180.823C167.178 180.938 166.837 180.966 166.571 180.907C166.316 180.834 166.131 180.669 166.016 180.413C165.9 180.145 165.842 179.771 165.842 179.291L166.016 179.279C165.935 179.709 165.738 180.135 165.426 180.558C165.113 180.968 164.726 181.333 164.263 181.653C163.801 181.96 163.309 182.186 162.788 182.33ZM162.927 180.96C163.54 180.79 164.061 180.526 164.489 180.168C164.928 179.795 165.264 179.366 165.495 178.882C165.726 178.387 165.842 177.875 165.842 177.347V176.663L162.858 178.063C162.233 178.355 161.799 178.661 161.557 178.98C161.325 179.284 161.209 179.634 161.209 180.03C161.209 180.474 161.36 180.78 161.661 180.949C161.973 181.103 162.395 181.106 162.927 180.96ZM173.944 179.249C173.308 179.425 172.741 179.438 172.244 179.287C171.747 179.124 171.365 178.822 171.099 178.379L171.047 179.833L169.728 180.198V167.418L171.186 167.015V171.587C171.417 171.127 171.776 170.674 172.261 170.228C172.747 169.77 173.308 169.453 173.944 169.277C174.754 169.054 175.454 169.065 176.044 169.31C176.634 169.555 177.091 170.005 177.414 170.659C177.738 171.314 177.9 172.151 177.9 173.171C177.9 174.191 177.738 175.118 177.414 175.951C177.091 176.785 176.634 177.487 176.044 178.058C175.454 178.629 174.754 179.026 173.944 179.249ZM173.858 177.833C174.633 177.619 175.246 177.132 175.697 176.371C176.148 175.611 176.373 174.685 176.373 173.593C176.373 172.489 176.148 171.687 175.697 171.187C175.246 170.676 174.644 170.524 173.892 170.732C173.326 170.888 172.84 171.166 172.435 171.566C172.03 171.954 171.718 172.442 171.498 173.031C171.29 173.616 171.186 174.281 171.186 175.025C171.186 175.745 171.29 176.346 171.498 176.829C171.718 177.296 172.024 177.62 172.417 177.799C172.822 177.975 173.302 177.987 173.858 177.833ZM182.596 176.86C181.647 177.122 180.89 177.104 180.323 176.804C179.768 176.501 179.49 175.942 179.49 175.126C179.49 174.31 179.722 173.604 180.184 173.008C180.647 172.413 181.381 171.88 182.388 171.41L185.65 169.879C185.65 169.075 185.465 168.526 185.094 168.232C184.736 167.935 184.192 167.888 183.464 168.089C182.827 168.265 182.324 168.553 181.954 168.956C181.584 169.346 181.329 169.836 181.191 170.426L179.646 170.727C179.82 169.779 180.236 168.938 180.896 168.204C181.566 167.455 182.422 166.936 183.464 166.649C184.643 166.323 185.546 166.422 186.17 166.945C186.795 167.457 187.107 168.319 187.107 169.531V173.473C187.107 173.689 187.142 173.835 187.211 173.912C187.292 173.974 187.419 173.98 187.593 173.933L187.957 173.832V175.164C187.911 175.189 187.836 175.216 187.732 175.244C187.628 175.285 187.518 175.321 187.402 175.353C186.986 175.468 186.644 175.496 186.378 175.438C186.124 175.364 185.939 175.199 185.823 174.943C185.708 174.675 185.65 174.301 185.65 173.821L185.823 173.809C185.742 174.24 185.546 174.666 185.233 175.088C184.921 175.498 184.533 175.863 184.071 176.183C183.608 176.491 183.116 176.717 182.596 176.86ZM182.735 175.49C183.348 175.321 183.868 175.057 184.296 174.699C184.736 174.325 185.071 173.897 185.303 173.413C185.534 172.917 185.65 172.405 185.65 171.877V171.193L182.665 172.593C182.041 172.886 181.607 173.191 181.364 173.511C181.133 173.814 181.017 174.164 181.017 174.56C181.017 175.004 181.167 175.311 181.468 175.48C181.78 175.634 182.203 175.637 182.735 175.49ZM192.918 174.01C192.097 174.237 191.397 174.292 190.819 174.176C190.252 174.056 189.807 173.801 189.483 173.411C189.171 173.005 188.991 172.496 188.945 171.885L190.472 171.356C190.564 171.906 190.801 172.303 191.183 172.545C191.565 172.776 192.143 172.784 192.918 172.57C193.543 172.398 194.04 172.158 194.41 171.852C194.792 171.531 194.983 171.136 194.983 170.668C194.983 170.416 194.925 170.222 194.809 170.086C194.694 169.95 194.468 169.868 194.133 169.841C193.797 169.801 193.3 169.813 192.641 169.875C191.762 169.95 191.068 169.937 190.559 169.838C190.061 169.723 189.703 169.516 189.483 169.217C189.275 168.902 189.171 168.493 189.171 167.989C189.171 167.137 189.471 166.358 190.073 165.652C190.674 164.934 191.53 164.421 192.641 164.115C193.393 163.907 194.023 163.877 194.532 164.025C195.052 164.157 195.457 164.417 195.746 164.805C196.047 165.178 196.244 165.628 196.336 166.154L194.809 166.684C194.74 166.367 194.613 166.108 194.428 165.907C194.243 165.694 194 165.557 193.699 165.497C193.398 165.424 193.04 165.445 192.623 165.56C191.964 165.742 191.478 166.008 191.166 166.358C190.854 166.708 190.697 167.087 190.697 167.495C190.697 167.807 190.767 168.046 190.906 168.212C191.056 168.362 191.293 168.459 191.617 168.501C191.941 168.532 192.375 168.52 192.918 168.466C193.855 168.375 194.584 168.378 195.104 168.474C195.625 168.571 195.989 168.764 196.198 169.055C196.406 169.345 196.51 169.742 196.51 170.246C196.51 170.834 196.348 171.383 196.024 171.893C195.712 172.387 195.284 172.817 194.74 173.183C194.208 173.546 193.601 173.822 192.918 174.01ZM202.091 171.477C201.223 171.717 200.471 171.721 199.835 171.488C199.21 171.253 198.725 170.811 198.378 170.163C198.042 169.499 197.874 168.664 197.874 167.656C197.874 166.648 198.042 165.725 198.378 164.889C198.725 164.049 199.205 163.34 199.818 162.763C200.442 162.17 201.177 161.758 202.021 161.525C202.819 161.304 203.525 161.307 204.138 161.534C204.751 161.749 205.225 162.182 205.561 162.833C205.908 163.481 206.081 164.339 206.081 165.407V165.857L199.401 167.702C199.459 168.706 199.719 169.402 200.182 169.79C200.656 170.175 201.293 170.258 202.091 170.037C202.692 169.871 203.184 169.592 203.565 169.198C203.959 168.79 204.231 168.324 204.381 167.803L205.943 167.498C205.7 168.417 205.237 169.247 204.554 169.987C203.884 170.712 203.062 171.209 202.091 171.477ZM199.401 166.37L204.485 164.966C204.416 164.061 204.155 163.455 203.704 163.148C203.265 162.837 202.704 162.776 202.021 162.965C201.316 163.159 200.732 163.549 200.269 164.132C199.818 164.701 199.529 165.447 199.401 166.37Z"
      fill="#18181B"
    />
    <rect
      width="339.656"
      height="8.95459"
      rx="4.47729"
      transform="matrix(0.963927 -0.266168 0 1 163.051 206.523)"
      fill="#F4F4F5"
    />
    <rect
      width="156.965"
      height="8.95459"
      rx="4.47729"
      transform="matrix(0.963927 -0.266168 0 1 163.051 225.523)"
      fill="#F4F4F5"
    />
    <g clip-path="url(#clip1_416_397)">
      <g opacity="0.7">
        <rect
          width="8"
          height="8"
          rx="2"
          transform="matrix(0.963927 -0.266168 0 1 216.463 155.96)"
          fill="#34D399"
        />
        <rect
          x="0.481963"
          y="0.366916"
          width="7"
          height="7"
          rx="1.5"
          transform="matrix(0.963927 -0.266168 0 1 216.48 156.089)"
          stroke="black"
          stroke-opacity="0.05"
        />
      </g>
      <path
        d="M233.046 160.381V150.441L236.865 149.387C237.549 149.198 238.138 149.156 238.633 149.262C239.128 149.369 239.51 149.608 239.78 149.982C240.05 150.355 240.185 150.85 240.185 151.466C240.185 151.914 240.086 152.343 239.888 152.752C239.699 153.159 239.443 153.514 239.119 153.818C238.804 154.111 238.467 154.32 238.107 154.448L238.039 154.34C238.642 154.174 239.11 154.189 239.443 154.387C239.776 154.575 239.969 154.965 240.023 155.557L240.28 158.384L238.809 158.79L238.579 156.151C238.552 155.758 238.422 155.5 238.188 155.377C237.954 155.246 237.572 155.254 237.041 155.4L234.504 156.101V159.979L233.046 160.381ZM234.504 154.715L236.892 154.055C237.441 153.904 237.873 153.644 238.188 153.277C238.512 152.899 238.674 152.448 238.674 151.925C238.674 151.393 238.512 151.032 238.188 150.841C237.864 150.642 237.392 150.627 236.771 150.799L234.504 151.425V154.715ZM244.3 157.442C243.58 157.64 243.005 157.552 242.573 157.177C242.15 156.789 241.938 156.152 241.938 155.266V150.478L243.369 150.083V154.493C243.369 155.165 243.481 155.628 243.706 155.884C243.931 156.139 244.273 156.203 244.732 156.076C245.254 155.932 245.659 155.648 245.946 155.223C246.243 154.786 246.392 154.251 246.392 153.616V149.248L247.822 148.853V156.301L246.486 156.67L246.459 154.731L246.662 154.76C246.536 155.448 246.27 156.025 245.865 156.491C245.461 156.949 244.939 157.265 244.3 157.442ZM249.846 155.742V148.294L251.155 147.933L251.209 149.906L251.033 149.856C251.114 149.349 251.267 148.915 251.492 148.554C251.717 148.193 251.991 147.898 252.315 147.668C252.639 147.43 252.99 147.258 253.368 147.154C253.908 147.005 254.353 147.008 254.704 147.163C255.064 147.306 255.334 147.568 255.514 147.947C255.702 148.315 255.797 148.77 255.797 149.311V154.099L254.366 154.494V150.154C254.366 149.715 254.321 149.359 254.232 149.085C254.142 148.812 253.993 148.624 253.786 148.522C253.579 148.421 253.309 148.416 252.976 148.508C252.473 148.647 252.063 148.933 251.748 149.365C251.434 149.797 251.276 150.345 251.276 151.007V155.347L249.846 155.742ZM257.568 153.61V146.162L258.877 145.8L258.931 147.774L258.756 147.724C258.837 147.216 258.99 146.782 259.215 146.421C259.44 146.061 259.714 145.765 260.038 145.536C260.362 145.297 260.713 145.126 261.091 145.021C261.63 144.872 262.076 144.875 262.427 145.03C262.786 145.174 263.056 145.435 263.236 145.815C263.425 146.183 263.52 146.637 263.52 147.179V151.967L262.089 152.362V148.022C262.089 147.583 262.044 147.227 261.954 146.953C261.864 146.679 261.716 146.491 261.509 146.39C261.302 146.288 261.032 146.284 260.699 146.375C260.195 146.515 259.786 146.8 259.471 147.233C259.156 147.665 258.999 148.212 258.999 148.875V153.215L257.568 153.61ZM265.41 151.445V143.997L266.84 143.602V151.05L265.41 151.445ZM265.383 142.926V141.442L266.867 141.032V142.516L265.383 142.926ZM268.981 150.459V143.011L270.29 142.649L270.344 144.622L270.169 144.573C270.25 144.065 270.403 143.631 270.627 143.27C270.852 142.909 271.127 142.614 271.451 142.385C271.775 142.146 272.125 141.974 272.503 141.87C273.043 141.721 273.488 141.724 273.839 141.879C274.199 142.022 274.469 142.284 274.649 142.663C274.838 143.031 274.932 143.486 274.932 144.027V148.815L273.502 149.21V144.87C273.502 144.432 273.457 144.075 273.367 143.801C273.277 143.528 273.129 143.34 272.922 143.238C272.715 143.137 272.445 143.132 272.112 143.224C271.608 143.363 271.199 143.649 270.884 144.081C270.569 144.513 270.412 145.061 270.412 145.724V150.064L268.981 150.459ZM279.684 149.771C279.117 149.928 278.618 149.977 278.186 149.919C277.754 149.861 277.399 149.707 277.12 149.457C276.841 149.217 276.652 148.896 276.553 148.494L278.038 147.986C278.137 148.266 278.307 148.462 278.55 148.572C278.802 148.689 279.18 148.678 279.684 148.539C280.278 148.375 280.732 148.119 281.047 147.771C281.371 147.42 281.533 146.979 281.533 146.447V145.369C281.362 145.799 281.087 146.178 280.71 146.506C280.332 146.834 279.909 147.063 279.441 147.192C278.838 147.359 278.303 147.353 277.835 147.174C277.367 146.995 277.003 146.671 276.742 146.202C276.481 145.732 276.351 145.143 276.351 144.434C276.351 143.715 276.477 143.05 276.729 142.439C276.989 141.826 277.349 141.302 277.808 140.867C278.276 140.43 278.802 140.131 279.387 139.969C279.9 139.828 280.35 139.825 280.737 139.961C281.132 140.094 281.416 140.342 281.587 140.706V139.53L282.963 139.15V146.01C282.963 146.626 282.828 147.181 282.558 147.675C282.298 148.177 281.92 148.603 281.425 148.954C280.939 149.313 280.359 149.585 279.684 149.771ZM279.67 145.869C280.228 145.715 280.674 145.382 281.006 144.87C281.348 144.356 281.524 143.728 281.533 142.989C281.542 142.501 281.47 142.105 281.317 141.802C281.164 141.49 280.944 141.28 280.656 141.173C280.377 141.054 280.048 141.047 279.67 141.151C279.086 141.312 278.631 141.653 278.307 142.171C277.993 142.678 277.835 143.291 277.835 144.01C277.835 144.738 277.997 145.272 278.321 145.612C278.654 145.94 279.104 146.025 279.67 145.869Z"
        fill="#71717A"
      />
    </g>
  </g>
  <g filter="url(#filter2_dd_416_397)">
    <rect
      width="1160.92"
      height="429"
      rx="12"
      transform="matrix(0.963927 -0.266168 0 1 237.327 215.477)"
      fill="white"
      shape-rendering="crispEdges"
    />
    <rect
      x="0.963927"
      y="0.733832"
      width="1158.92"
      height="427"
      rx="11"
      transform="matrix(0.963927 -0.266168 0 1 237.362 215.734)"
      stroke="#F87171"
      stroke-width="2"
      shape-rendering="crispEdges"
    />
    <path
      d="M258.077 245.034L262.519 231.027L264.532 230.471L268.974 242.025L267.343 242.475L266.111 239.179L260.94 240.607L259.708 244.583L258.077 245.034ZM261.444 238.956L265.608 237.806L263.526 232.099L261.444 238.956ZM270.369 244.339V232.099L271.723 231.726L271.757 233.768L271.549 233.718C271.781 232.946 272.162 232.306 272.694 231.799C273.238 231.277 273.863 230.919 274.568 230.724C275.482 230.472 276.228 230.5 276.806 230.808C277.396 231.113 277.83 231.605 278.108 232.285C278.397 232.961 278.542 233.737 278.542 234.613C278.542 235.489 278.397 236.345 278.108 237.181C277.83 238.013 277.396 238.745 276.806 239.376C276.228 240.004 275.482 240.444 274.568 240.696C274.094 240.827 273.649 240.866 273.232 240.813C272.827 240.757 272.48 240.619 272.191 240.398C271.914 240.175 271.723 239.874 271.619 239.494L271.827 239.185V243.937L270.369 244.339ZM274.429 239.294C275.228 239.074 275.858 238.588 276.321 237.836C276.783 237.084 277.015 236.15 277.015 235.034C277.015 233.918 276.783 233.112 276.321 232.616C275.858 232.12 275.228 231.982 274.429 232.202C273.897 232.349 273.435 232.609 273.041 232.982C272.66 233.351 272.359 233.83 272.139 234.419C271.931 235.004 271.827 235.687 271.827 236.467C271.827 237.247 271.931 237.872 272.139 238.343C272.347 238.813 272.648 239.126 273.041 239.282C273.435 239.437 273.897 239.441 274.429 239.294ZM280.519 241.537V229.297L281.872 228.923L281.907 230.966L281.699 230.915C281.93 230.143 282.312 229.504 282.844 228.997C283.387 228.475 284.012 228.116 284.718 227.921C285.631 227.669 286.378 227.697 286.956 228.005C287.546 228.311 287.98 228.803 288.257 229.482C288.546 230.158 288.691 230.934 288.691 231.81C288.691 232.686 288.546 233.542 288.257 234.378C287.98 235.211 287.546 235.943 286.956 236.573C286.378 237.201 285.631 237.641 284.718 237.893C284.243 238.024 283.798 238.063 283.382 238.01C282.977 237.954 282.63 237.816 282.341 237.596C282.063 237.372 281.872 237.071 281.768 236.692L281.976 236.382V241.134L280.519 241.537ZM284.579 236.492C285.377 236.271 286.007 235.785 286.47 235.034C286.933 234.282 287.164 233.348 287.164 232.232C287.164 231.116 286.933 230.31 286.47 229.814C286.007 229.317 285.377 229.179 284.579 229.4C284.047 229.547 283.584 229.806 283.191 230.179C282.809 230.548 282.508 231.028 282.289 231.616C282.08 232.202 281.976 232.884 281.976 233.664C281.976 234.444 282.08 235.07 282.289 235.54C282.497 236.011 282.798 236.324 283.191 236.479C283.584 236.634 284.047 236.639 284.579 236.492ZM291.046 235.93V223.15L292.538 222.738V234.798L291.792 234.212L298.698 232.305V233.817L291.046 235.93ZM303.384 232.739C302.435 233.001 301.677 232.982 301.111 232.683C300.555 232.38 300.278 231.821 300.278 231.005C300.278 230.189 300.509 229.483 300.972 228.887C301.435 228.291 302.169 227.759 303.175 227.289L306.437 225.758C306.437 224.954 306.252 224.405 305.882 224.111C305.524 223.814 304.98 223.766 304.251 223.968C303.615 224.143 303.112 224.432 302.742 224.835C302.372 225.225 302.117 225.715 301.978 226.305L300.434 226.606C300.608 225.658 301.024 224.817 301.683 224.083C302.354 223.334 303.21 222.815 304.251 222.528C305.431 222.202 306.333 222.301 306.958 222.824C307.582 223.336 307.895 224.198 307.895 225.41V229.352C307.895 229.568 307.93 229.714 307.999 229.791C308.08 229.852 308.207 229.859 308.381 229.811L308.745 229.711V231.043C308.699 231.068 308.624 231.094 308.519 231.123C308.415 231.164 308.305 231.2 308.19 231.232C307.773 231.347 307.432 231.375 307.166 231.317C306.912 231.243 306.727 231.078 306.611 230.822C306.495 230.554 306.437 230.18 306.437 229.7L306.611 229.688C306.53 230.118 306.333 230.545 306.021 230.967C305.709 231.377 305.321 231.742 304.858 232.062C304.396 232.37 303.904 232.596 303.384 232.739ZM303.522 231.369C304.135 231.2 304.656 230.936 305.084 230.578C305.524 230.204 305.859 229.776 306.09 229.292C306.322 228.796 306.437 228.284 306.437 227.756V227.072L303.453 228.472C302.828 228.765 302.395 229.07 302.152 229.389C301.92 229.693 301.805 230.043 301.805 230.439C301.805 230.883 301.955 231.19 302.256 231.359C302.568 231.512 302.99 231.516 303.522 231.369ZM313.308 229.999C312.395 230.251 311.66 230.136 311.105 229.653C310.561 229.155 310.289 228.342 310.289 227.214V221.076L311.747 220.674V226.398C311.747 227.322 311.903 227.963 312.215 228.321C312.539 228.663 313.031 228.743 313.69 228.561C314.419 228.36 314.992 227.962 315.408 227.367C315.824 226.76 316.033 226.031 316.033 225.179V219.491L317.49 219.088V228.628L316.102 229.011V226.653L316.328 226.717C316.142 227.548 315.79 228.252 315.269 228.827C314.749 229.391 314.095 229.782 313.308 229.999ZM320.27 227.861V218.321L321.606 217.952L321.658 220.367L321.484 220.253C321.6 219.657 321.802 219.139 322.091 218.7C322.38 218.248 322.728 217.876 323.132 217.584C323.549 217.289 323.994 217.076 324.468 216.945C325.174 216.75 325.752 216.753 326.203 216.952C326.666 217.148 327.007 217.492 327.227 217.983C327.458 218.459 327.574 219.034 327.574 219.706V225.844L326.117 226.246V220.54C326.117 219.952 326.047 219.479 325.908 219.121C325.781 218.749 325.573 218.5 325.284 218.376C324.995 218.24 324.619 218.236 324.156 218.363C323.45 218.558 322.866 218.954 322.404 219.549C321.953 220.13 321.727 220.864 321.727 221.752V227.458L320.27 227.861ZM333.739 224.357C332.883 224.593 332.137 224.595 331.501 224.363C330.877 224.128 330.391 223.686 330.044 223.038C329.697 222.377 329.523 221.543 329.523 220.535C329.523 219.527 329.697 218.603 330.044 217.764C330.391 216.924 330.877 216.214 331.501 215.633C332.137 215.037 332.883 214.621 333.739 214.385C334.445 214.19 335.07 214.15 335.613 214.264C336.169 214.362 336.62 214.61 336.967 215.006C337.314 215.402 337.539 215.94 337.643 216.619L336.116 217.149C336.012 216.541 335.746 216.129 335.318 215.911C334.89 215.681 334.364 215.653 333.739 215.825C332.895 216.058 332.236 216.558 331.761 217.325C331.287 218.08 331.05 219.01 331.05 220.114C331.05 221.218 331.287 222.022 331.761 222.527C332.236 223.02 332.895 223.15 333.739 222.917C334.364 222.745 334.89 222.419 335.318 221.941C335.746 221.463 336.012 220.849 336.116 220.101L337.643 219.787C337.539 220.524 337.314 221.204 336.967 221.828C336.62 222.44 336.169 222.966 335.613 223.408C335.07 223.846 334.445 224.162 333.739 224.357ZM339.45 222.564V209.784L340.908 209.382V214.728L340.734 214.74C340.85 214.18 341.046 213.693 341.324 213.281C341.602 212.868 341.943 212.528 342.348 212.26C342.753 211.98 343.198 211.773 343.684 211.639C344.343 211.457 344.898 211.46 345.349 211.647C345.812 211.82 346.159 212.15 346.39 212.638C346.633 213.111 346.755 213.701 346.755 214.409V220.547L345.297 220.95V215.244C345.297 214.32 345.135 213.68 344.811 213.326C344.499 212.968 344.019 212.879 343.371 213.057C342.631 213.262 342.035 213.66 341.584 214.253C341.133 214.846 340.908 215.586 340.908 216.474V222.162L339.45 222.564ZM349.193 222.574V210.334L350.546 209.96L350.581 212.003L350.373 211.952C350.604 211.18 350.986 210.541 351.518 210.034C352.062 209.512 352.686 209.153 353.392 208.959C354.306 208.706 355.052 208.734 355.63 209.042C356.22 209.348 356.654 209.84 356.931 210.519C357.221 211.195 357.365 211.971 357.365 212.847C357.365 213.723 357.221 214.579 356.931 215.415C356.654 216.248 356.22 216.98 355.63 217.61C355.052 218.238 354.306 218.678 353.392 218.931C352.918 219.061 352.472 219.1 352.056 219.047C351.651 218.991 351.304 218.853 351.015 218.633C350.737 218.41 350.546 218.108 350.442 217.729L350.65 217.42V222.172L349.193 222.574ZM353.253 217.529C354.051 217.308 354.682 216.822 355.144 216.071C355.607 215.319 355.838 214.385 355.838 213.269C355.838 212.153 355.607 211.347 355.144 210.851C354.682 210.354 354.051 210.216 353.253 210.437C352.721 210.584 352.258 210.844 351.865 211.216C351.483 211.586 351.182 212.065 350.963 212.653C350.755 213.239 350.65 213.922 350.65 214.702C350.65 215.482 350.755 216.107 350.963 216.577C351.171 217.048 351.472 217.361 351.865 217.516C352.258 217.672 352.721 217.676 353.253 217.529ZM362.061 216.537C361.112 216.799 360.355 216.78 359.788 216.48C359.233 216.178 358.955 215.618 358.955 214.802C358.955 213.986 359.186 213.28 359.649 212.685C360.112 212.089 360.846 211.556 361.853 211.086L365.114 209.556C365.114 208.752 364.929 208.203 364.559 207.909C364.201 207.612 363.657 207.564 362.928 207.765C362.292 207.941 361.789 208.23 361.419 208.632C361.049 209.022 360.794 209.513 360.655 210.103L359.111 210.403C359.285 209.455 359.701 208.614 360.36 207.88C361.031 207.131 361.887 206.613 362.928 206.325C364.108 205.999 365.01 206.098 365.635 206.622C366.26 207.133 366.572 207.995 366.572 209.207V213.149C366.572 213.365 366.607 213.512 366.676 213.588C366.757 213.65 366.884 213.657 367.058 213.609L367.422 213.508V214.84C367.376 214.865 367.301 214.892 367.197 214.921C367.092 214.961 366.983 214.998 366.867 215.03C366.451 215.145 366.109 215.173 365.843 215.114C365.589 215.041 365.404 214.876 365.288 214.62C365.172 214.352 365.114 213.978 365.114 213.498L365.288 213.486C365.207 213.916 365.01 214.342 364.698 214.765C364.386 215.175 363.998 215.54 363.536 215.86C363.073 216.167 362.581 216.393 362.061 216.537ZM362.2 215.166C362.813 214.997 363.333 214.733 363.761 214.375C364.201 214.002 364.536 213.573 364.767 213.089C364.999 212.594 365.114 212.082 365.114 211.554V210.87L362.13 212.27C361.506 212.562 361.072 212.868 360.829 213.187C360.598 213.491 360.482 213.841 360.482 214.237C360.482 214.681 360.632 214.987 360.933 215.156C361.245 215.31 361.667 215.313 362.2 215.166ZM372.296 213.71C371.498 213.931 370.804 213.918 370.214 213.673C369.636 213.425 369.191 212.972 368.878 212.314C368.566 211.657 368.41 210.818 368.41 209.798C368.41 208.778 368.566 207.853 368.878 207.022C369.191 206.192 369.636 205.493 370.214 204.925C370.804 204.354 371.498 203.959 372.296 203.738C372.909 203.569 373.47 203.552 373.979 203.688C374.488 203.811 374.87 204.084 375.124 204.506V199.934L376.582 199.531V212.311L375.263 212.675L375.211 211.25C374.957 211.836 374.569 212.351 374.049 212.795C373.528 213.226 372.944 213.532 372.296 213.71ZM372.591 212.189C373.135 212.039 373.592 211.769 373.962 211.379C374.344 210.985 374.633 210.497 374.83 209.915C375.026 209.321 375.124 208.664 375.124 207.944C375.124 207.2 375.026 206.591 374.83 206.117C374.633 205.643 374.344 205.321 373.962 205.151C373.592 204.965 373.135 204.947 372.591 205.097C371.782 205.321 371.134 205.817 370.648 206.588C370.174 207.343 369.937 208.272 369.937 209.376C369.937 210.468 370.174 211.267 370.648 211.772C371.134 212.273 371.782 212.413 372.591 212.189Z"
      fill="#18181B"
    />
    <rect
      width="556.213"
      height="8.95459"
      rx="4.47729"
      transform="matrix(0.963927 -0.266168 0 1 289.803 260.754)"
      fill="#F4F4F5"
    />
    <rect
      width="489.456"
      height="8.95459"
      rx="4.47729"
      transform="matrix(0.963927 -0.266168 0 1 291.013 288.431)"
      fill="#F4F4F5"
    />
    <rect
      width="436.563"
      height="8.95459"
      rx="4.47729"
      transform="matrix(0.963927 -0.266168 0 1 290.377 320.668)"
      fill="#F4F4F5"
    />
    <rect
      width="335.015"
      height="8.95459"
      rx="4.47729"
      transform="matrix(0.963927 -0.266168 0 1 290.377 356.467)"
      fill="#F4F4F5"
    />
    <g clip-path="url(#clip2_416_397)">
      <g opacity="0.7">
        <rect
          width="8"
          height="8"
          rx="2"
          transform="matrix(0.963927 -0.266168 0 1 387.464 197.646)"
          fill="#F87171"
        />
        <rect
          x="0.481963"
          y="0.366916"
          width="7"
          height="7"
          rx="1.5"
          transform="matrix(0.963927 -0.266168 0 1 387.481 197.774)"
          stroke="black"
          stroke-opacity="0.05"
        />
      </g>
      <path
        d="M404.047 202.066V192.126L410.282 190.405V191.791L405.505 193.11V196.008L410.12 194.733V196.077L405.505 197.352V200.278L410.39 198.929V200.315L404.047 202.066ZM412.122 199.836V192.388L413.431 192.027L413.485 193.986L413.364 193.978C413.463 193.278 413.661 192.734 413.958 192.344C414.264 191.951 414.673 191.684 415.186 191.543L415.874 191.353V192.683L415.186 192.873C414.826 192.972 414.524 193.116 414.282 193.304C414.039 193.493 413.854 193.73 413.728 194.017C413.611 194.301 413.553 194.644 413.553 195.046V199.442L412.122 199.836ZM416.946 198.505V191.057L418.255 190.695L418.309 192.654L418.187 192.646C418.286 191.946 418.484 191.402 418.781 191.012C419.087 190.619 419.496 190.352 420.009 190.211L420.697 190.021V191.351L420.009 191.541C419.649 191.64 419.348 191.784 419.105 191.972C418.862 192.161 418.678 192.398 418.552 192.685C418.435 192.969 418.376 193.312 418.376 193.714V198.11L416.946 198.505ZM424.672 196.539C423.988 196.728 423.39 196.735 422.877 196.559C422.364 196.383 421.968 196.04 421.689 195.529C421.411 195.018 421.271 194.37 421.271 193.586C421.271 192.793 421.411 192.068 421.689 191.413C421.968 190.757 422.364 190.2 422.877 189.741C423.39 189.273 423.988 188.944 424.672 188.755C425.356 188.566 425.954 188.565 426.467 188.75C426.979 188.925 427.375 189.264 427.654 189.766C427.933 190.267 428.073 190.915 428.073 191.708C428.073 192.492 427.933 193.217 427.654 193.882C427.375 194.547 426.979 195.109 426.467 195.568C425.954 196.027 425.356 196.35 424.672 196.539ZM424.672 195.251C425.284 195.082 425.756 194.723 426.089 194.174C426.422 193.615 426.588 192.93 426.588 192.118C426.588 191.306 426.422 190.717 426.089 190.352C425.756 189.977 425.284 189.874 424.672 190.043C424.069 190.21 423.597 190.573 423.255 191.134C422.922 191.684 422.756 192.364 422.756 193.176C422.756 193.988 422.922 194.582 423.255 194.956C423.597 195.319 424.069 195.418 424.672 195.251ZM429.518 195.033V187.585L430.827 187.224L430.881 189.183L430.76 189.174C430.859 188.475 431.057 187.93 431.354 187.54C431.659 187.148 432.069 186.881 432.582 186.739L433.27 186.549V187.879L432.582 188.069C432.222 188.168 431.92 188.312 431.677 188.501C431.434 188.689 431.25 188.927 431.124 189.214C431.007 189.498 430.949 189.841 430.949 190.242V194.638L429.518 195.033Z"
        fill="#71717A"
      />
    </g>
    <g filter="url(#filter3_dd_416_397)">
      <rect
        width="556"
        height="40"
        rx="20"
        transform="matrix(0.963927 -0.266168 0 1 257.463 265.995)"
        fill="white"
        shape-rendering="crispEdges"
      />
      <rect
        x="0.240982"
        y="0.183458"
        width="555.5"
        height="39.5"
        rx="19.75"
        transform="matrix(0.963927 -0.266168 0 1 257.472 266.06)"
        stroke="#E4E4E7"
        stroke-width="0.5"
        shape-rendering="crispEdges"
      />
      <g clip-path="url(#clip3_416_397)">
        <mask
          id="mask0_416_397"
          style="mask-type: luminance"
          maskUnits="userSpaceOnUse"
          x="273"
          y="266"
          width="20"
          height="26"
        >
          <path
            d="M292.695 266.318L273.417 271.539L273.319 291.566L292.597 286.344L292.695 266.318Z"
            fill="white"
          />
        </mask>
        <g mask="url(#mask0_416_397)">
          <path
            d="M292.695 266.318L273.417 271.539L273.319 291.566L292.597 286.344L292.695 266.318Z"
            fill="url(#paint0_linear_416_397)"
          />
          <path
            fill-rule="evenodd"
            clip-rule="evenodd"
            d="M284.779 277.732C285.083 277.65 285.328 277.839 285.326 278.155L285.318 279.869C285.316 280.185 285.069 280.507 284.765 280.589L281.612 281.443C281.344 281.528 281.125 281.796 281.088 282.077L281.081 283.52C281.08 283.835 280.832 284.158 280.529 284.24L278.878 284.687C278.575 284.769 278.33 284.58 278.331 284.265L278.339 282.55C278.341 282.235 278.589 281.912 278.892 281.83L280.226 281.469C280.516 281.375 280.749 281.063 280.75 280.758L280.757 279.392C280.759 279.077 281.006 278.754 281.31 278.672L284.779 277.732Z"
            fill="url(#paint1_linear_416_397)"
          />
          <path
            fill-rule="evenodd"
            clip-rule="evenodd"
            d="M286.308 273.421C286.612 273.339 286.857 273.528 286.856 273.843L286.849 275.172C286.853 275.482 287.095 275.666 287.396 275.585L288.647 275.246C288.95 275.164 289.195 275.353 289.194 275.669L289.186 277.383C289.184 277.699 288.936 278.021 288.633 278.103L286.982 278.55C286.679 278.633 286.434 278.443 286.435 278.128L286.442 276.792C286.436 276.5 286.216 276.321 285.937 276.375L280.107 277.954C279.826 278.045 279.6 278.339 279.584 278.635L279.578 279.985C279.576 280.301 279.329 280.624 279.025 280.706L277.375 281.153C277.071 281.235 276.826 281.046 276.827 280.73L276.836 279.016C276.837 278.701 277.085 278.378 277.389 278.296L278.747 277.928C279.015 277.834 279.229 277.558 279.255 277.275L279.262 275.9C279.264 275.585 279.511 275.262 279.815 275.18L286.308 273.421Z"
            fill="url(#paint2_linear_416_397)"
          />
        </g>
      </g>
      <path
        d="M304 279.145V269.129L300.591 270.07V268.726L308.735 266.478V267.822L305.326 268.763V278.779L304 279.145ZM309.683 277.576V266.216L310.978 265.858V270.61L310.824 270.621C310.927 270.123 311.102 269.691 311.349 269.324C311.595 268.957 311.899 268.655 312.258 268.417C312.618 268.168 313.014 267.984 313.446 267.865C314.032 267.703 314.526 267.705 314.927 267.872C315.338 268.025 315.646 268.319 315.852 268.752C316.068 269.173 316.176 269.698 316.176 270.327V275.783L314.88 276.141V271.069C314.88 270.247 314.736 269.679 314.448 269.364C314.171 269.046 313.744 268.966 313.168 269.125C312.51 269.307 311.981 269.661 311.58 270.188C311.179 270.715 310.978 271.373 310.978 272.162V277.218L309.683 277.576ZM321.656 274.462C320.885 274.675 320.217 274.678 319.651 274.471C319.096 274.262 318.664 273.869 318.356 273.293C318.057 272.703 317.908 271.961 317.908 271.065C317.908 270.169 318.057 269.349 318.356 268.605C318.664 267.859 319.091 267.229 319.636 266.716C320.191 266.189 320.844 265.822 321.594 265.615C322.304 265.419 322.931 265.422 323.476 265.623C324.021 265.814 324.443 266.199 324.741 266.778C325.049 267.354 325.203 268.117 325.203 269.066V269.466L319.266 271.106C319.317 271.998 319.548 272.617 319.96 272.962C320.381 273.304 320.947 273.378 321.656 273.182C322.191 273.034 322.628 272.785 322.967 272.436C323.317 272.073 323.558 271.659 323.692 271.196L325.08 270.924C324.864 271.741 324.453 272.479 323.846 273.137C323.25 273.782 322.52 274.223 321.656 274.462ZM319.266 269.922L323.784 268.674C323.723 267.87 323.491 267.331 323.09 267.058C322.7 266.782 322.201 266.727 321.594 266.895C320.967 267.068 320.448 267.414 320.037 267.933C319.636 268.438 319.379 269.101 319.266 269.922ZM330.965 274.099V263.219L332.168 262.887L332.198 264.703L332.013 264.658C332.219 263.972 332.558 263.403 333.031 262.953C333.514 262.489 334.07 262.17 334.697 261.997C335.509 261.773 336.172 261.797 336.686 262.071C337.211 262.343 337.596 262.78 337.843 263.384C338.1 263.985 338.229 264.675 338.229 265.454C338.229 266.232 338.1 266.993 337.843 267.736C337.596 268.476 337.211 269.127 336.686 269.687C336.172 270.245 335.509 270.637 334.697 270.861C334.275 270.977 333.879 271.012 333.509 270.965C333.149 270.915 332.841 270.792 332.584 270.596C332.337 270.398 332.168 270.13 332.075 269.793L332.26 269.518V273.742L330.965 274.099ZM334.573 269.615C335.283 269.419 335.843 268.987 336.255 268.319C336.666 267.65 336.871 266.82 336.871 265.828C336.871 264.836 336.666 264.12 336.255 263.679C335.843 263.238 335.283 263.115 334.573 263.311C334.101 263.441 333.689 263.672 333.34 264.004C333 264.332 332.733 264.758 332.538 265.281C332.353 265.801 332.26 266.408 332.26 267.102C332.26 267.795 332.353 268.351 332.538 268.769C332.723 269.187 332.99 269.465 333.34 269.604C333.689 269.742 334.101 269.745 334.573 269.615ZM343.179 268.519C342.428 268.726 341.77 268.726 341.205 268.52C340.639 268.313 340.202 267.922 339.894 267.346C339.585 266.759 339.431 266.018 339.431 265.122C339.431 264.215 339.585 263.388 339.894 262.642C340.202 261.895 340.639 261.263 341.205 260.744C341.77 260.225 342.428 259.862 343.179 259.655C343.929 259.447 344.582 259.449 345.138 259.658C345.703 259.864 346.14 260.256 346.448 260.832C346.757 261.408 346.911 262.149 346.911 263.056C346.911 263.952 346.757 264.779 346.448 265.536C346.14 266.282 345.703 266.915 345.138 267.434C344.582 267.95 343.929 268.311 343.179 268.519ZM343.179 267.239C343.929 267.031 344.51 266.594 344.922 265.925C345.343 265.244 345.554 264.412 345.554 263.431C345.554 262.45 345.343 261.74 344.922 261.301C344.51 260.85 343.929 260.727 343.179 260.935C342.428 261.142 341.842 261.586 341.421 262.268C340.999 262.939 340.788 263.765 340.788 264.747C340.788 265.728 340.999 266.443 341.421 266.892C341.842 267.33 342.428 267.446 343.179 267.239ZM348.677 266.809V258.329L349.818 258.013L349.88 260.14L349.756 260.126C349.859 259.373 350.08 258.784 350.419 258.359C350.769 257.921 351.232 257.623 351.808 257.464L352.61 257.243V258.523L351.823 258.74C351.412 258.853 351.067 259.028 350.79 259.265C350.522 259.488 350.317 259.774 350.173 260.123C350.039 260.459 349.972 260.862 349.972 261.331V266.451L348.677 266.809ZM356.744 264.581C356.004 264.785 355.454 264.761 355.094 264.509C354.745 264.253 354.57 263.752 354.57 263.005V254.717L355.865 254.36V262.616C355.865 263 355.948 263.244 356.112 263.347C356.277 263.451 356.528 263.456 356.868 263.363L358.04 263.039V264.223L356.744 264.581ZM353.367 258.218V257.034L358.04 255.743V256.927L353.367 258.218ZM363.648 262.675V254.195L364.835 253.867L364.881 256.014L364.727 255.913C364.83 255.383 365.01 254.922 365.267 254.532C365.524 254.13 365.833 253.799 366.192 253.54C366.563 253.278 366.958 253.088 367.38 252.972C368.007 252.799 368.521 252.801 368.922 252.978C369.334 253.153 369.637 253.458 369.832 253.895C370.038 254.318 370.141 254.828 370.141 255.426V260.882L368.845 261.239V256.167C368.845 255.645 368.783 255.225 368.66 254.907C368.547 254.575 368.362 254.354 368.105 254.244C367.848 254.123 367.514 254.119 367.102 254.233C366.475 254.406 365.956 254.757 365.545 255.287C365.144 255.803 364.943 256.456 364.943 257.245V262.317L363.648 262.675ZM375.067 259.714C374.255 259.938 373.602 259.835 373.108 259.406C372.625 258.964 372.383 258.241 372.383 257.239V251.783L373.679 251.425V256.513C373.679 257.334 373.818 257.904 374.095 258.222C374.383 258.526 374.82 258.598 375.406 258.436C376.054 258.257 376.563 257.903 376.933 257.374C377.303 256.835 377.488 256.186 377.488 255.429V250.373L378.784 250.015V258.495L377.55 258.836V256.74L377.75 256.796C377.586 257.535 377.272 258.161 376.81 258.672C376.347 259.173 375.766 259.52 375.067 259.714ZM381.254 257.813V249.333L382.442 249.005L382.488 251.136L382.303 251.123C382.396 250.628 382.555 250.184 382.781 249.791C383.018 249.385 383.306 249.044 383.645 248.769C383.984 248.483 384.36 248.284 384.771 248.17C385.48 247.974 386.056 248.018 386.498 248.301C386.951 248.581 387.233 249.069 387.346 249.763L387.1 249.815C387.182 249.302 387.331 248.85 387.547 248.459C387.773 248.056 388.061 247.715 388.411 247.437C388.76 247.159 389.161 246.958 389.614 246.833C390.2 246.671 390.693 246.663 391.094 246.808C391.495 246.943 391.798 247.221 392.004 247.645C392.21 248.068 392.313 248.621 392.313 249.303V254.759L391.017 255.117V249.949C391.017 249.181 390.873 248.645 390.585 248.34C390.297 248.025 389.871 247.946 389.305 248.102C388.925 248.207 388.591 248.395 388.303 248.667C388.025 248.935 387.809 249.272 387.655 249.678C387.501 250.072 387.424 250.525 387.424 251.037V256.109L386.128 256.467V251.395C386.128 250.638 385.999 250.081 385.742 249.726C385.485 249.37 385.054 249.276 384.447 249.443C384.066 249.548 383.732 249.737 383.444 250.008C383.167 250.277 382.946 250.615 382.781 251.023C382.627 251.429 382.55 251.882 382.55 252.383V257.455L381.254 257.813ZM398.377 253.277C397.811 253.433 397.307 253.444 396.865 253.31C396.423 253.166 396.084 252.897 395.847 252.503L395.801 253.796L394.629 254.12V242.76L395.924 242.402V246.466C396.13 246.057 396.449 245.655 396.881 245.258C397.312 244.851 397.811 244.569 398.377 244.413C399.096 244.214 399.718 244.224 400.243 244.442C400.767 244.66 401.173 245.059 401.461 245.641C401.749 246.223 401.893 246.967 401.893 247.874C401.893 248.781 401.749 249.604 401.461 250.345C401.173 251.086 400.767 251.71 400.243 252.218C399.718 252.725 399.096 253.078 398.377 253.277ZM398.3 252.018C398.988 251.828 399.533 251.395 399.934 250.719C400.335 250.043 400.536 249.219 400.536 248.249C400.536 247.267 400.335 246.555 399.934 246.111C399.533 245.656 398.999 245.521 398.33 245.706C397.827 245.845 397.395 246.092 397.035 246.448C396.675 246.792 396.397 247.226 396.202 247.749C396.017 248.27 395.924 248.861 395.924 249.522C395.924 250.162 396.017 250.697 396.202 251.125C396.397 251.541 396.67 251.828 397.019 251.988C397.379 252.144 397.806 252.155 398.3 252.018ZM406.843 250.939C406.072 251.152 405.404 251.155 404.838 250.949C404.283 250.739 403.851 250.347 403.543 249.771C403.244 249.181 403.095 248.438 403.095 247.542C403.095 246.646 403.244 245.826 403.543 245.083C403.851 244.336 404.278 243.706 404.823 243.193C405.378 242.666 406.031 242.299 406.781 242.092C407.491 241.896 408.118 241.899 408.663 242.101C409.208 242.291 409.63 242.676 409.928 243.255C410.236 243.832 410.39 244.594 410.39 245.544V245.944L404.453 247.583C404.504 248.476 404.735 249.095 405.147 249.44C405.568 249.782 406.134 249.855 406.843 249.659C407.378 249.512 407.815 249.263 408.154 248.913C408.504 248.55 408.745 248.137 408.879 247.673L410.267 247.402C410.051 248.219 409.64 248.956 409.033 249.614C408.437 250.259 407.707 250.701 406.843 250.939ZM404.453 246.399L408.971 245.151C408.91 244.347 408.678 243.808 408.277 243.535C407.887 243.259 407.388 243.205 406.781 243.372C406.154 243.545 405.635 243.891 405.224 244.41C404.823 244.916 404.566 245.579 404.453 246.399ZM412.145 249.283V240.803L413.287 240.488L413.348 242.615L413.225 242.601C413.328 241.847 413.549 241.258 413.888 240.834C414.238 240.396 414.7 240.098 415.276 239.939L416.078 239.717V240.997L415.291 241.214C414.88 241.328 414.536 241.503 414.258 241.74C413.991 241.963 413.785 242.249 413.641 242.598C413.508 242.934 413.441 243.336 413.441 243.805V248.925L412.145 249.283ZM424.744 245.996C424.035 246.192 423.418 246.181 422.893 245.963C422.379 245.742 421.984 245.34 421.706 244.755C421.428 244.17 421.29 243.425 421.29 242.518C421.29 241.611 421.428 240.789 421.706 240.051C421.984 239.313 422.379 238.692 422.893 238.187C423.418 237.68 424.035 237.328 424.744 237.132C425.289 236.982 425.788 236.967 426.24 237.087C426.693 237.197 427.032 237.439 427.258 237.814V233.75L428.554 233.392V244.752L427.382 245.076L427.335 243.809C427.109 244.33 426.765 244.788 426.302 245.182C425.839 245.566 425.32 245.837 424.744 245.996ZM425.006 244.644C425.49 244.51 425.896 244.27 426.225 243.923C426.564 243.574 426.821 243.14 426.996 242.622C427.171 242.094 427.258 241.51 427.258 240.87C427.258 240.209 427.171 239.667 426.996 239.246C426.821 238.825 426.564 238.539 426.225 238.387C425.896 238.222 425.49 238.206 425.006 238.34C424.287 238.538 423.711 238.98 423.279 239.665C422.858 240.336 422.647 241.162 422.647 242.143C422.647 243.114 422.858 243.824 423.279 244.273C423.711 244.719 424.287 244.842 425.006 244.644ZM434.059 243.424C433.308 243.631 432.65 243.632 432.085 243.425C431.519 243.219 431.082 242.827 430.774 242.251C430.465 241.664 430.311 240.923 430.311 240.027C430.311 239.12 430.465 238.294 430.774 237.547C431.082 236.801 431.519 236.168 432.085 235.649C432.65 235.13 433.308 234.767 434.059 234.56C434.81 234.353 435.462 234.354 436.018 234.563C436.583 234.77 437.02 235.161 437.329 235.737C437.637 236.313 437.791 237.055 437.791 237.961C437.791 238.857 437.637 239.684 437.329 240.441C437.02 241.188 436.583 241.82 436.018 242.339C435.462 242.855 434.81 243.217 434.059 243.424ZM434.059 242.144C434.81 241.937 435.391 241.499 435.802 240.831C436.223 240.149 436.434 239.318 436.434 238.336C436.434 237.355 436.223 236.645 435.802 236.207C435.391 235.755 434.81 235.633 434.059 235.84C433.308 236.047 432.722 236.492 432.301 237.174C431.879 237.845 431.668 238.671 431.668 239.652C431.668 240.633 431.879 241.349 432.301 241.798C432.722 242.236 433.308 242.351 434.059 242.144ZM442.749 241.024C441.978 241.237 441.31 241.241 440.744 241.034C440.189 240.825 439.757 240.432 439.449 239.856C439.151 239.266 439.002 238.523 439.002 237.627C439.002 236.731 439.151 235.911 439.449 235.168C439.757 234.421 440.184 233.791 440.729 233.278C441.284 232.752 441.937 232.385 442.688 232.177C443.397 231.982 444.024 231.984 444.569 232.186C445.114 232.377 445.536 232.762 445.834 233.341C446.142 233.917 446.297 234.68 446.297 235.629V236.029L440.359 237.668C440.41 238.561 440.642 239.18 441.053 239.525C441.474 239.867 442.04 239.94 442.749 239.744C443.284 239.597 443.721 239.348 444.06 238.998C444.41 238.635 444.652 238.222 444.785 237.758L446.173 237.487C445.957 238.304 445.546 239.041 444.939 239.7C444.343 240.344 443.613 240.786 442.749 241.024ZM440.359 236.484L444.878 235.237C444.816 234.432 444.585 233.894 444.184 233.62C443.793 233.344 443.294 233.29 442.688 233.457C442.061 233.631 441.541 233.977 441.13 234.496C440.729 235.001 440.472 235.664 440.359 236.484ZM451.028 238.738C450.298 238.94 449.676 238.989 449.162 238.886C448.658 238.779 448.262 238.553 447.974 238.206C447.697 237.845 447.537 237.393 447.496 236.85L448.853 236.379C448.936 236.868 449.147 237.221 449.486 237.436C449.825 237.641 450.339 237.649 451.028 237.458C451.583 237.305 452.025 237.092 452.354 236.82C452.694 236.534 452.863 236.184 452.863 235.768C452.863 235.544 452.812 235.371 452.709 235.25C452.606 235.129 452.406 235.057 452.108 235.032C451.81 234.997 451.367 235.007 450.781 235.063C450 235.129 449.383 235.118 448.931 235.03C448.488 234.928 448.17 234.744 447.974 234.478C447.789 234.198 447.697 233.834 447.697 233.386C447.697 232.629 447.964 231.936 448.499 231.309C449.033 230.671 449.794 230.215 450.781 229.943C451.45 229.758 452.01 229.731 452.462 229.862C452.925 229.98 453.285 230.211 453.542 230.556C453.809 230.888 453.984 231.287 454.066 231.755L452.709 232.226C452.647 231.945 452.534 231.714 452.37 231.536C452.205 231.347 451.989 231.225 451.722 231.171C451.455 231.106 451.136 231.125 450.766 231.227C450.18 231.389 449.748 231.625 449.47 231.937C449.193 232.248 449.054 232.585 449.054 232.948C449.054 233.225 449.116 233.437 449.239 233.584C449.373 233.718 449.583 233.804 449.871 233.842C450.159 233.869 450.545 233.859 451.028 233.81C451.861 233.73 452.509 233.732 452.971 233.818C453.434 233.903 453.758 234.075 453.943 234.334C454.128 234.592 454.221 234.945 454.221 235.393C454.221 235.916 454.077 236.403 453.789 236.856C453.511 237.295 453.131 237.678 452.647 238.003C452.175 238.326 451.635 238.571 451.028 238.738ZM459.995 236.07V227.59L461.183 227.262L461.229 229.41L461.075 229.308C461.178 228.779 461.357 228.318 461.615 227.927C461.872 227.526 462.18 227.195 462.54 226.936C462.91 226.673 463.306 226.484 463.727 226.368C464.355 226.195 464.869 226.197 465.27 226.374C465.681 226.548 465.984 226.854 466.18 227.291C466.385 227.714 466.488 228.224 466.488 228.821V234.277L465.193 234.635V229.563C465.193 229.041 465.131 228.62 465.008 228.302C464.894 227.971 464.709 227.75 464.452 227.64C464.195 227.519 463.861 227.515 463.45 227.628C462.823 227.802 462.303 228.153 461.892 228.683C461.491 229.199 461.291 229.851 461.291 230.641V235.713L459.995 236.07ZM471.968 232.956C471.218 233.163 470.56 233.164 469.994 232.957C469.429 232.751 468.992 232.359 468.683 231.783C468.375 231.196 468.221 230.455 468.221 229.559C468.221 228.652 468.375 227.826 468.683 227.079C468.992 226.333 469.429 225.7 469.994 225.181C470.56 224.662 471.218 224.299 471.968 224.092C472.719 223.885 473.372 223.886 473.927 224.095C474.493 224.302 474.93 224.693 475.238 225.269C475.547 225.845 475.701 226.587 475.701 227.494C475.701 228.39 475.547 229.216 475.238 229.973C474.93 230.72 474.493 231.353 473.927 231.871C473.372 232.387 472.719 232.749 471.968 232.956ZM471.968 231.676C472.719 231.469 473.3 231.031 473.711 230.363C474.133 229.681 474.344 228.85 474.344 227.868C474.344 226.887 474.133 226.177 473.711 225.739C473.3 225.287 472.719 225.165 471.968 225.372C471.218 225.579 470.632 226.024 470.21 226.706C469.789 227.377 469.578 228.203 469.578 229.184C469.578 230.166 469.789 230.881 470.21 231.33C470.632 231.768 471.218 231.883 471.968 231.676ZM480.142 230.507C479.402 230.712 478.852 230.688 478.492 230.435C478.142 230.179 477.967 229.678 477.967 228.932V220.644L479.263 220.286V228.542C479.263 228.926 479.345 229.17 479.51 229.274C479.674 229.378 479.926 229.383 480.265 229.289L481.438 228.965V230.149L480.142 230.507ZM476.764 224.144V222.96L481.438 221.669V222.853L476.764 224.144ZM487.045 228.601V220.121L488.233 219.793L488.279 221.924L488.094 221.911C488.187 221.417 488.346 220.973 488.572 220.579C488.809 220.173 489.097 219.832 489.436 219.557C489.775 219.271 490.15 219.072 490.562 218.958C491.271 218.762 491.847 218.806 492.289 219.089C492.741 219.369 493.024 219.857 493.137 220.551L492.891 220.603C492.973 220.09 493.122 219.638 493.338 219.247C493.564 218.844 493.852 218.503 494.202 218.225C494.551 217.947 494.952 217.746 495.405 217.621C495.991 217.459 496.484 217.451 496.885 217.596C497.286 217.731 497.589 218.009 497.795 218.433C498.001 218.856 498.104 219.409 498.104 220.092V225.548L496.808 225.905V220.737C496.808 219.969 496.664 219.433 496.376 219.129C496.088 218.813 495.662 218.734 495.096 218.89C494.716 218.995 494.381 219.183 494.094 219.455C493.816 219.723 493.6 220.06 493.446 220.466C493.292 220.86 493.214 221.314 493.214 221.826V226.898L491.919 227.255V222.183C491.919 221.426 491.79 220.869 491.533 220.514C491.276 220.158 490.844 220.064 490.238 220.231C489.857 220.337 489.523 220.525 489.235 220.796C488.958 221.065 488.737 221.403 488.572 221.811C488.418 222.217 488.341 222.67 488.341 223.171V228.243L487.045 228.601ZM502.625 224.491C501.782 224.724 501.109 224.707 500.605 224.441C500.111 224.172 499.865 223.675 499.865 222.949C499.865 222.224 500.07 221.596 500.482 221.067C500.893 220.537 501.546 220.064 502.44 219.646L505.34 218.285C505.34 217.571 505.175 217.083 504.846 216.822C504.527 216.558 504.044 216.515 503.396 216.694C502.831 216.85 502.384 217.107 502.055 217.465C501.726 217.811 501.499 218.247 501.376 218.772L500.003 219.039C500.158 218.196 500.528 217.449 501.114 216.796C501.71 216.13 502.471 215.67 503.396 215.414C504.445 215.124 505.247 215.212 505.802 215.678C506.358 216.132 506.635 216.898 506.635 217.976V221.48C506.635 221.672 506.666 221.802 506.728 221.87C506.8 221.925 506.913 221.931 507.067 221.888L507.391 221.799V222.983C507.35 223.005 507.283 223.029 507.19 223.054C507.098 223.091 507 223.123 506.897 223.151C506.527 223.253 506.224 223.279 505.987 223.227C505.761 223.161 505.597 223.014 505.494 222.787C505.391 222.549 505.34 222.216 505.34 221.789L505.494 221.779C505.422 222.161 505.247 222.54 504.97 222.916C504.692 223.28 504.347 223.605 503.936 223.889C503.525 224.163 503.088 224.363 502.625 224.491ZM502.749 223.273C503.294 223.122 503.756 222.888 504.137 222.57C504.527 222.238 504.826 221.857 505.031 221.427C505.237 220.986 505.34 220.531 505.34 220.061V219.453L502.687 220.698C502.132 220.958 501.746 221.23 501.53 221.513C501.325 221.783 501.222 222.094 501.222 222.446C501.222 222.841 501.355 223.114 501.623 223.264C501.9 223.4 502.276 223.403 502.749 223.273ZM511.44 221.865C510.699 222.069 510.149 222.045 509.789 221.793C509.44 221.537 509.265 221.036 509.265 220.29V212.002L510.56 211.644V219.9C510.56 220.284 510.643 220.528 510.807 220.632C510.972 220.736 511.224 220.741 511.563 220.647L512.735 220.323V221.507L511.44 221.865ZM508.062 215.502V214.318L512.735 213.027V214.211L508.062 215.502ZM517.439 220.401C516.678 220.611 516.015 220.612 515.449 220.406C514.894 220.197 514.462 219.804 514.154 219.228C513.845 218.641 513.691 217.899 513.691 217.003C513.691 216.107 513.845 215.286 514.154 214.54C514.462 213.793 514.894 213.162 515.449 212.646C516.015 212.116 516.678 211.747 517.439 211.537C518.066 211.363 518.621 211.327 519.104 211.429C519.598 211.516 519.999 211.736 520.307 212.088C520.616 212.441 520.816 212.919 520.909 213.522L519.552 213.993C519.459 213.453 519.223 213.087 518.842 212.893C518.462 212.689 517.994 212.663 517.439 212.817C516.688 213.024 516.102 213.468 515.68 214.15C515.259 214.821 515.048 215.647 515.048 216.629C515.048 217.61 515.259 218.325 515.68 218.774C516.102 219.212 516.688 219.328 517.439 219.121C517.994 218.967 518.462 218.678 518.842 218.253C519.223 217.828 519.459 217.283 519.552 216.617L520.909 216.338C520.816 216.993 520.616 217.598 520.307 218.152C519.999 218.696 519.598 219.164 519.104 219.557C518.621 219.946 518.066 220.227 517.439 220.401ZM522.515 218.807V207.447L523.81 207.089V211.841L523.656 211.852C523.759 211.354 523.934 210.922 524.18 210.555C524.427 210.188 524.731 209.886 525.09 209.648C525.45 209.399 525.846 209.215 526.278 209.096C526.864 208.934 527.358 208.936 527.759 209.103C528.17 209.256 528.478 209.55 528.684 209.983C528.9 210.404 529.008 210.929 529.008 211.558V217.014L527.712 217.372V212.3C527.712 211.478 527.568 210.91 527.28 210.595C527.003 210.277 526.576 210.197 526 210.356C525.342 210.538 524.813 210.892 524.412 211.419C524.011 211.946 523.81 212.604 523.81 213.393V218.449L522.515 218.807ZM537.537 214.851C536.694 215.083 536.021 215.067 535.517 214.801C535.024 214.531 534.777 214.034 534.777 213.309C534.777 212.584 534.982 211.956 535.394 211.427C535.805 210.897 536.458 210.423 537.352 210.006L540.252 208.645C540.252 207.93 540.087 207.443 539.758 207.181C539.44 206.917 538.956 206.875 538.309 207.054C537.743 207.21 537.296 207.467 536.967 207.824C536.638 208.171 536.412 208.607 536.288 209.132L534.916 209.399C535.07 208.556 535.44 207.809 536.026 207.156C536.622 206.49 537.383 206.029 538.309 205.774C539.357 205.484 540.159 205.572 540.715 206.037C541.27 206.492 541.547 207.258 541.547 208.335V211.839C541.547 212.031 541.578 212.162 541.64 212.23C541.712 212.285 541.825 212.291 541.979 212.248L542.303 212.159V213.343C542.262 213.365 542.195 213.389 542.103 213.414C542.01 213.45 541.912 213.483 541.81 213.511C541.439 213.613 541.136 213.638 540.9 213.586C540.673 213.521 540.509 213.374 540.406 213.147C540.303 212.908 540.252 212.576 540.252 212.149L540.406 212.139C540.334 212.521 540.159 212.9 539.882 213.275C539.604 213.64 539.26 213.964 538.848 214.249C538.437 214.522 538 214.723 537.537 214.851ZM537.661 213.633C538.206 213.482 538.669 213.248 539.049 212.929C539.44 212.597 539.738 212.216 539.943 211.786C540.149 211.346 540.252 210.89 540.252 210.421V209.813L537.599 211.058C537.044 211.318 536.658 211.589 536.442 211.873C536.237 212.143 536.134 212.454 536.134 212.806C536.134 213.201 536.268 213.473 536.535 213.623C536.813 213.76 537.188 213.763 537.661 213.633ZM543.766 212.939V204.459L544.954 204.131L545 206.278L544.846 206.177C544.949 205.647 545.129 205.187 545.386 204.796C545.643 204.394 545.951 204.063 546.311 203.804C546.681 203.542 547.077 203.352 547.499 203.236C548.126 203.063 548.64 203.065 549.041 203.242C549.452 203.417 549.756 203.722 549.951 204.159C550.157 204.582 550.259 205.092 550.259 205.69V211.146L548.964 211.504V206.432C548.964 205.909 548.902 205.489 548.779 205.171C548.666 204.839 548.481 204.618 548.224 204.508C547.967 204.387 547.632 204.383 547.221 204.497C546.594 204.67 546.075 205.021 545.663 205.551C545.262 206.067 545.062 206.72 545.062 207.509V212.581L543.766 212.939ZM555.447 209.905C554.737 210.101 554.12 210.09 553.596 209.872C553.082 209.652 552.686 209.249 552.408 208.664C552.131 208.08 551.992 207.334 551.992 206.427C551.992 205.521 552.131 204.698 552.408 203.96C552.686 203.222 553.082 202.601 553.596 202.096C554.12 201.589 554.737 201.237 555.447 201.041C555.992 200.891 556.49 200.876 556.943 200.996C557.395 201.106 557.734 201.348 557.961 201.723V197.659L559.256 197.302V208.662L558.084 208.985L558.038 207.718C557.811 208.239 557.467 208.697 557.004 209.091C556.542 209.475 556.022 209.746 555.447 209.905ZM555.709 208.553C556.192 208.42 556.598 208.179 556.927 207.833C557.267 207.483 557.524 207.049 557.698 206.532C557.873 206.003 557.961 205.419 557.961 204.779C557.961 204.118 557.873 203.577 557.698 203.156C557.524 202.735 557.267 202.448 556.927 202.297C556.598 202.131 556.192 202.116 555.709 202.249C554.989 202.448 554.413 202.889 553.981 203.574C553.56 204.245 553.349 205.071 553.349 206.053C553.349 207.023 553.56 207.733 553.981 208.182C554.413 208.628 554.989 208.752 555.709 208.553ZM565.76 206.866V195.506L567.087 195.139V206.499L565.76 206.866ZM575.223 204.253L572.693 196.471L574.112 196.079L576.025 202.623L577.968 195.015L579.356 194.631L581.299 201.167L583.227 193.562L584.646 193.171L582.117 202.349L580.482 202.8L578.662 196.855L576.842 203.806L575.223 204.253ZM586.074 201.256V192.776L587.369 192.419V200.899L586.074 201.256ZM586.043 191.457V189.889L587.4 189.514V191.082L586.043 191.457ZM591.292 199.815C590.819 199.946 590.434 199.924 590.136 199.751C589.838 199.577 589.688 199.213 589.688 198.658V188.898L590.984 188.541V198.189C590.984 198.359 591.025 198.481 591.107 198.554C591.2 198.614 591.328 198.621 591.493 198.576L592.202 198.38V199.564L591.292 199.815ZM595.254 198.722C594.781 198.852 594.395 198.831 594.097 198.657C593.799 198.483 593.65 198.119 593.65 197.564V187.804L594.945 187.447V197.095C594.945 197.265 594.986 197.387 595.068 197.461C595.161 197.52 595.29 197.528 595.454 197.482L596.164 197.286V198.47L595.254 198.722ZM601.617 196.964V185.604L602.913 185.247V189.999L602.758 190.009C602.861 189.512 603.036 189.079 603.283 188.713C603.529 188.346 603.833 188.043 604.193 187.805C604.553 187.557 604.948 187.373 605.38 187.253C605.966 187.092 606.46 187.094 606.861 187.26C607.272 187.414 607.581 187.707 607.786 188.141C608.002 188.561 608.11 189.086 608.11 189.716V195.172L606.815 195.529V190.457C606.815 189.636 606.671 189.068 606.383 188.753C606.105 188.435 605.678 188.355 605.103 188.514C604.445 188.696 603.915 189.05 603.514 189.577C603.113 190.103 602.913 190.761 602.913 191.551V196.607L601.617 196.964ZM613.59 193.85C612.819 194.063 612.151 194.066 611.585 193.86C611.03 193.651 610.598 193.258 610.29 192.682C609.992 192.092 609.843 191.349 609.843 190.453C609.843 189.557 609.992 188.737 610.29 187.994C610.598 187.247 611.025 186.617 611.57 186.104C612.125 185.578 612.778 185.211 613.529 185.003C614.238 184.807 614.865 184.81 615.41 185.012C615.955 185.203 616.377 185.588 616.675 186.167C616.983 186.743 617.138 187.505 617.138 188.455V188.855L611.2 190.494C611.251 191.387 611.483 192.006 611.894 192.351C612.315 192.693 612.881 192.766 613.59 192.57C614.125 192.423 614.562 192.174 614.901 191.824C615.251 191.461 615.492 191.048 615.626 190.584L617.014 190.313C616.798 191.13 616.387 191.867 615.78 192.526C615.184 193.17 614.454 193.612 613.59 193.85ZM611.2 189.31L615.719 188.063C615.657 187.258 615.426 186.719 615.025 186.446C614.634 186.17 614.135 186.116 613.529 186.283C612.901 186.457 612.382 186.803 611.971 187.321C611.57 187.827 611.313 188.49 611.2 189.31ZM620.572 191.731C620.099 191.861 619.713 191.84 619.415 191.666C619.117 191.492 618.968 191.128 618.968 190.573V180.813L620.263 180.456V190.104C620.263 190.274 620.304 190.396 620.387 190.47C620.479 190.529 620.608 190.537 620.772 190.491L621.482 190.295V191.479L620.572 191.731ZM623.019 193.455V182.575L624.222 182.243L624.253 184.058L624.068 184.013C624.274 183.327 624.613 182.759 625.086 182.308C625.569 181.844 626.124 181.525 626.752 181.352C627.564 181.128 628.227 181.153 628.741 181.427C629.265 181.698 629.651 182.135 629.898 182.739C630.155 183.34 630.283 184.03 630.283 184.809C630.283 185.588 630.155 186.348 629.898 187.091C629.651 187.831 629.265 188.482 628.741 189.043C628.227 189.601 627.564 189.992 626.752 190.216C626.33 190.332 625.934 190.367 625.564 190.32C625.204 190.27 624.896 190.147 624.639 189.952C624.392 189.753 624.222 189.485 624.13 189.148L624.315 188.873V193.097L623.019 193.455ZM626.628 188.97C627.338 188.774 627.898 188.342 628.309 187.674C628.721 187.006 628.926 186.176 628.926 185.184C628.926 184.192 628.721 183.475 628.309 183.034C627.898 182.593 627.338 182.47 626.628 182.666C626.155 182.797 625.744 183.028 625.394 183.359C625.055 183.687 624.788 184.113 624.592 184.636C624.407 185.157 624.315 185.764 624.315 186.457C624.315 187.15 624.407 187.706 624.592 188.124C624.777 188.543 625.045 188.821 625.394 188.959C625.744 189.097 626.155 189.101 626.628 188.97ZM636.402 189.759V188.575L637.343 188.316C637.631 188.236 637.841 188.13 637.975 187.997C638.119 187.872 638.227 187.698 638.299 187.475L638.592 186.595L638.145 186.718L635.153 179.224L636.572 178.832L639.008 185.232L641.337 177.517L642.756 177.125L639.44 187.592C639.286 188.094 639.055 188.493 638.746 188.792C638.438 189.091 638.011 189.315 637.466 189.465L636.402 189.759ZM647.117 184.593C646.366 184.8 645.708 184.8 645.143 184.594C644.577 184.387 644.14 183.996 643.832 183.42C643.523 182.833 643.369 182.091 643.369 181.195C643.369 180.289 643.523 179.462 643.832 178.716C644.14 177.969 644.577 177.337 645.143 176.818C645.708 176.299 646.366 175.936 647.117 175.729C647.867 175.521 648.52 175.522 649.076 175.732C649.641 175.938 650.078 176.33 650.387 176.906C650.695 177.482 650.849 178.223 650.849 179.13C650.849 180.026 650.695 180.853 650.387 181.61C650.078 182.356 649.641 182.989 649.076 183.508C648.52 184.024 647.867 184.385 647.117 184.593ZM647.117 183.313C647.867 183.105 648.448 182.668 648.86 181.999C649.281 181.318 649.492 180.486 649.492 179.505C649.492 178.523 649.281 177.814 648.86 177.375C648.448 176.924 647.867 176.801 647.117 177.009C646.366 177.216 645.78 177.66 645.359 178.342C644.937 179.013 644.726 179.839 644.726 180.821C644.726 181.802 644.937 182.517 645.359 182.966C645.78 183.404 646.366 183.52 647.117 183.313ZM655.298 182.333C654.486 182.558 653.833 182.455 653.34 182.026C652.856 181.584 652.615 180.861 652.615 179.859V174.403L653.91 174.045V179.133C653.91 179.954 654.049 180.524 654.327 180.842C654.615 181.146 655.052 181.218 655.638 181.056C656.285 180.877 656.794 180.523 657.165 179.994C657.535 179.455 657.72 178.806 657.72 178.049V172.993L659.015 172.635V181.115L657.781 181.456V179.36L657.982 179.416C657.817 180.155 657.504 180.78 657.041 181.292C656.578 181.793 655.998 182.14 655.298 182.333ZM668.334 178.542C667.593 178.746 667.043 178.722 666.683 178.47C666.334 178.214 666.159 177.713 666.159 176.967V168.679L667.455 168.321V176.577C667.455 176.961 667.537 177.205 667.701 177.309C667.866 177.413 668.118 177.418 668.457 177.324L669.629 177V178.184L668.334 178.542ZM664.956 172.179V170.995L669.629 169.704V170.888L664.956 172.179ZM674.333 177.078C673.582 177.285 672.924 177.285 672.359 177.079C671.793 176.872 671.356 176.481 671.048 175.905C670.739 175.318 670.585 174.576 670.585 173.68C670.585 172.774 670.739 171.947 671.048 171.201C671.356 170.454 671.793 169.821 672.359 169.303C672.924 168.784 673.582 168.421 674.333 168.214C675.083 168.006 675.736 168.007 676.291 168.217C676.857 168.423 677.294 168.815 677.602 169.391C677.911 169.967 678.065 170.708 678.065 171.615C678.065 172.511 677.911 173.338 677.602 174.095C677.294 174.841 676.857 175.474 676.291 175.993C675.736 176.509 675.083 176.87 674.333 177.078ZM674.333 175.798C675.083 175.59 675.664 175.153 676.076 174.484C676.497 173.803 676.708 172.971 676.708 171.99C676.708 171.008 676.497 170.299 676.076 169.86C675.664 169.409 675.083 169.286 674.333 169.494C673.582 169.701 672.996 170.145 672.575 170.827C672.153 171.498 671.942 172.324 671.942 173.306C671.942 174.287 672.153 175.002 672.575 175.451C672.996 175.889 673.582 176.005 674.333 175.798ZM686.814 173.631C686.084 173.833 685.462 173.882 684.947 173.779C684.444 173.672 684.048 173.446 683.76 173.098C683.482 172.738 683.323 172.286 683.282 171.742L684.639 171.272C684.721 171.761 684.932 172.113 685.271 172.329C685.611 172.534 686.125 172.541 686.814 172.351C687.369 172.198 687.811 171.985 688.14 171.713C688.479 171.427 688.649 171.076 688.649 170.66C688.649 170.436 688.597 170.264 688.495 170.143C688.392 170.022 688.191 169.949 687.893 169.925C687.595 169.89 687.153 169.9 686.567 169.955C685.785 170.022 685.168 170.011 684.716 169.922C684.274 169.82 683.955 169.637 683.76 169.37C683.575 169.091 683.482 168.727 683.482 168.279C683.482 167.522 683.75 166.829 684.284 166.202C684.819 165.563 685.58 165.108 686.567 164.835C687.235 164.651 687.796 164.624 688.248 164.755C688.711 164.873 689.07 165.104 689.328 165.449C689.595 165.781 689.77 166.18 689.852 166.648L688.495 167.119C688.433 166.837 688.32 166.607 688.155 166.429C687.991 166.239 687.775 166.118 687.508 166.064C687.24 165.999 686.922 166.017 686.551 166.12C685.965 166.281 685.533 166.518 685.256 166.829C684.978 167.141 684.839 167.478 684.839 167.84C684.839 168.118 684.901 168.33 685.025 168.477C685.158 168.611 685.369 168.697 685.657 168.735C685.945 168.762 686.33 168.751 686.814 168.703C687.646 168.623 688.294 168.625 688.757 168.711C689.22 168.796 689.543 168.968 689.728 169.226C689.914 169.485 690.006 169.838 690.006 170.286C690.006 170.808 689.862 171.296 689.574 171.749C689.297 172.188 688.916 172.571 688.433 172.896C687.96 173.219 687.42 173.464 686.814 173.631ZM694.967 171.38C694.196 171.593 693.527 171.596 692.962 171.39C692.407 171.18 691.975 170.787 691.666 170.211C691.368 169.622 691.219 168.879 691.219 167.983C691.219 167.087 691.368 166.267 691.666 165.523C691.975 164.777 692.402 164.147 692.946 163.634C693.502 163.107 694.155 162.74 694.905 162.533C695.615 162.337 696.242 162.34 696.787 162.541C697.332 162.732 697.753 163.117 698.051 163.696C698.36 164.272 698.514 165.035 698.514 165.984V166.384L692.576 168.024C692.628 168.916 692.859 169.535 693.27 169.88C693.692 170.223 694.257 170.296 694.967 170.1C695.501 169.952 695.938 169.704 696.278 169.354C696.627 168.991 696.869 168.577 697.003 168.114L698.391 167.842C698.175 168.659 697.764 169.397 697.157 170.055C696.561 170.7 695.831 171.141 694.967 171.38ZM692.576 166.84L697.095 165.592C697.033 164.788 696.802 164.249 696.401 163.976C696.01 163.7 695.512 163.645 694.905 163.813C694.278 163.986 693.759 164.332 693.347 164.851C692.946 165.356 692.689 166.019 692.576 166.84ZM702.945 168.985C702.204 169.189 701.654 169.165 701.294 168.913C700.945 168.657 700.77 168.156 700.77 167.409V159.121L702.066 158.764V167.02C702.066 167.404 702.148 167.648 702.312 167.752C702.477 167.855 702.729 167.861 703.068 167.767L704.24 167.443V168.627L702.945 168.985ZM699.567 162.622V161.438L704.24 160.147V161.331L699.567 162.622ZM709.848 167.079V158.599L711.143 158.241V166.721L709.848 167.079ZM709.817 157.279V155.711L711.174 155.337V156.905L709.817 157.279ZM715.988 165.383C715.247 165.588 714.697 165.564 714.338 165.311C713.988 165.056 713.813 164.555 713.813 163.808V155.52L715.109 155.162V163.418C715.109 163.802 715.191 164.046 715.355 164.15C715.52 164.254 715.772 164.259 716.111 164.165L717.283 163.842V165.026L715.988 165.383ZM712.61 159.02V157.836L717.283 156.546V157.73L712.61 159.02ZM722.891 163.477V154.997L724.032 154.682L724.094 156.809L723.971 156.795C724.073 156.041 724.295 155.452 724.634 155.028C724.983 154.59 725.446 154.292 726.022 154.133L726.824 153.911V155.191L726.037 155.408C725.626 155.522 725.282 155.697 725.004 155.934C724.737 156.157 724.531 156.443 724.387 156.792C724.253 157.128 724.187 157.53 724.187 157.999V163.119L722.891 163.477ZM728.268 161.992V153.512L729.563 153.155V161.635L728.268 161.992ZM728.237 152.193V150.625L729.594 150.25V151.818L728.237 152.193ZM734.983 162.73C734.397 162.892 733.867 162.937 733.394 162.865C732.921 162.793 732.525 162.614 732.207 162.329C731.888 162.044 731.672 161.671 731.559 161.212L732.916 160.741C733.039 161.102 733.255 161.351 733.564 161.49C733.883 161.637 734.355 161.624 734.983 161.45C735.723 161.246 736.288 160.935 736.679 160.518C737.08 160.098 737.281 159.578 737.281 158.96V157.584C737.085 158.086 736.772 158.53 736.34 158.916C735.908 159.301 735.425 159.568 734.89 159.716C734.201 159.906 733.584 159.9 733.039 159.699C732.505 159.495 732.083 159.126 731.775 158.592C731.477 158.056 731.327 157.388 731.327 156.588C731.327 155.777 731.477 155.026 731.775 154.336C732.073 153.635 732.484 153.036 733.009 152.539C733.543 152.04 734.15 151.696 734.828 151.509C735.404 151.35 735.918 151.347 736.371 151.499C736.833 151.649 737.157 151.933 737.342 152.351V151.007L738.576 150.666V158.57C738.576 159.231 738.432 159.836 738.144 160.385C737.856 160.945 737.445 161.421 736.911 161.814C736.376 162.218 735.733 162.523 734.983 162.73ZM734.952 158.419C735.651 158.226 736.211 157.82 736.633 157.203C737.054 156.574 737.27 155.821 737.281 154.944C737.291 154.354 737.198 153.879 737.003 153.516C736.818 153.141 736.546 152.891 736.186 152.766C735.836 152.628 735.425 152.624 734.952 152.755C734.232 152.954 733.672 153.364 733.271 153.987C732.88 154.596 732.685 155.338 732.685 156.213C732.685 157.088 732.885 157.726 733.286 158.127C733.697 158.515 734.253 158.612 734.952 158.419ZM740.814 158.528V147.168L742.11 146.81V151.562L741.955 151.573C742.058 151.075 742.233 150.643 742.48 150.276C742.727 149.909 743.03 149.607 743.39 149.369C743.75 149.12 744.145 148.936 744.577 148.817C745.163 148.655 745.657 148.658 746.058 148.824C746.469 148.977 746.778 149.271 746.983 149.705C747.199 150.125 747.307 150.65 747.307 151.279V156.735L746.012 157.093V152.021C746.012 151.2 745.868 150.631 745.58 150.316C745.302 149.998 744.875 149.919 744.3 150.078C743.642 150.259 743.112 150.614 742.711 151.14C742.31 151.667 742.11 152.325 742.11 153.114V158.17L740.814 158.528ZM752.15 155.398C751.41 155.602 750.86 155.578 750.5 155.326C750.15 155.07 749.975 154.569 749.975 153.822V145.534L751.271 145.177V153.433C751.271 153.817 751.353 154.061 751.518 154.165C751.682 154.268 751.934 154.274 752.273 154.18L753.446 153.856V155.04L752.15 155.398ZM748.772 149.035V147.851L753.446 146.56V147.744L748.772 149.035ZM755.034 154.602V152.794L756.777 152.312V154.12L755.034 154.602ZM758.137 153.745V151.937L759.879 151.456V153.264L758.137 153.745ZM761.239 152.888V151.08L762.982 150.599V152.407L761.239 152.888Z"
        fill="#18181B"
      />
    </g>
  </g>
  <defs>
    <filter
      id="filter0_dd_416_397"
      x="0"
      y="-214"
      width="1143.04"
      height="762"
      filterUnits="userSpaceOnUse"
      color-interpolation-filters="sRGB"
    >
      <feFlood flood-opacity="0" result="BackgroundImageFix" />
      <feColorMatrix
        in="SourceAlpha"
        type="matrix"
        values="0 0 0 0 0 0 0 0 0 0 0 0 0 0 0 0 0 0 127 0"
        result="hardAlpha"
      />
      <feMorphology
        radius="2"
        operator="erode"
        in="SourceAlpha"
        result="effect1_dropShadow_416_397"
      />
      <feOffset dy="4" />
      <feGaussianBlur stdDeviation="3" />
      <feComposite in2="hardAlpha" operator="out" />
      <feColorMatrix
        type="matrix"
        values="0 0 0 0 0 0 0 0 0 0 0 0 0 0 0 0 0 0 0.02 0"
      />
      <feBlend
        mode="normal"
        in2="BackgroundImageFix"
        result="effect1_dropShadow_416_397"
      />
      <feColorMatrix
        in="SourceAlpha"
        type="matrix"
        values="0 0 0 0 0 0 0 0 0 0 0 0 0 0 0 0 0 0 127 0"
        result="hardAlpha"
      />
      <feMorphology
        radius="3"
        operator="erode"
        in="SourceAlpha"
        result="effect2_dropShadow_416_397"
      />
      <feOffset dy="10" />
      <feGaussianBlur stdDeviation="7.5" />
      <feComposite in2="hardAlpha" operator="out" />
      <feColorMatrix
        type="matrix"
        values="0 0 0 0 0 0 0 0 0 0 0 0 0 0 0 0 0 0 0.05 0"
      />
      <feBlend
        mode="normal"
        in2="effect1_dropShadow_416_397"
        result="effect2_dropShadow_416_397"
      />
      <feBlend
        mode="normal"
        in="SourceGraphic"
        in2="effect2_dropShadow_416_397"
        result="shape"
      />
    </filter>
    <filter
      id="filter1_dd_416_397"
      x="98.5752"
      y="-149.755"
      width="1143.04"
      height="762"
      filterUnits="userSpaceOnUse"
      color-interpolation-filters="sRGB"
    >
      <feFlood flood-opacity="0" result="BackgroundImageFix" />
      <feColorMatrix
        in="SourceAlpha"
        type="matrix"
        values="0 0 0 0 0 0 0 0 0 0 0 0 0 0 0 0 0 0 127 0"
        result="hardAlpha"
      />
      <feMorphology
        radius="2"
        operator="erode"
        in="SourceAlpha"
        result="effect1_dropShadow_416_397"
      />
      <feOffset dy="4" />
      <feGaussianBlur stdDeviation="3" />
      <feComposite in2="hardAlpha" operator="out" />
      <feColorMatrix
        type="matrix"
        values="0 0 0 0 0 0 0 0 0 0 0 0 0 0 0 0 0 0 0.02 0"
      />
      <feBlend
        mode="normal"
        in2="BackgroundImageFix"
        result="effect1_dropShadow_416_397"
      />
      <feColorMatrix
        in="SourceAlpha"
        type="matrix"
        values="0 0 0 0 0 0 0 0 0 0 0 0 0 0 0 0 0 0 127 0"
        result="hardAlpha"
      />
      <feMorphology
        radius="3"
        operator="erode"
        in="SourceAlpha"
        result="effect2_dropShadow_416_397"
      />
      <feOffset dy="10" />
      <feGaussianBlur stdDeviation="7.5" />
      <feComposite in2="hardAlpha" operator="out" />
      <feColorMatrix
        type="matrix"
        values="0 0 0 0 0 0 0 0 0 0 0 0 0 0 0 0 0 0 0.05 0"
      />
      <feBlend
        mode="normal"
        in2="effect1_dropShadow_416_397"
        result="effect2_dropShadow_416_397"
      />
      <feBlend
        mode="normal"
        in="SourceGraphic"
        in2="effect2_dropShadow_416_397"
        result="shape"
      />
    </filter>
    <filter
      id="filter2_dd_416_397"
      x="225.327"
      y="-95.5229"
      width="1143.04"
      height="762"
      filterUnits="userSpaceOnUse"
      color-interpolation-filters="sRGB"
    >
      <feFlood flood-opacity="0" result="BackgroundImageFix" />
      <feColorMatrix
        in="SourceAlpha"
        type="matrix"
        values="0 0 0 0 0 0 0 0 0 0 0 0 0 0 0 0 0 0 127 0"
        result="hardAlpha"
      />
      <feMorphology
        radius="2"
        operator="erode"
        in="SourceAlpha"
        result="effect1_dropShadow_416_397"
      />
      <feOffset dy="4" />
      <feGaussianBlur stdDeviation="3" />
      <feComposite in2="hardAlpha" operator="out" />
      <feColorMatrix
        type="matrix"
        values="0 0 0 0 0 0 0 0 0 0 0 0 0 0 0 0 0 0 0.02 0"
      />
      <feBlend
        mode="normal"
        in2="BackgroundImageFix"
        result="effect1_dropShadow_416_397"
      />
      <feColorMatrix
        in="SourceAlpha"
        type="matrix"
        values="0 0 0 0 0 0 0 0 0 0 0 0 0 0 0 0 0 0 127 0"
        result="hardAlpha"
      />
      <feMorphology
        radius="3"
        operator="erode"
        in="SourceAlpha"
        result="effect2_dropShadow_416_397"
      />
      <feOffset dy="10" />
      <feGaussianBlur stdDeviation="7.5" />
      <feComposite in2="hardAlpha" operator="out" />
      <feColorMatrix
        type="matrix"
        values="0 0 0 0 0.938265 0 0 0 0 0.346168 0 0 0 0 0.349301 0 0 0 0.5 0"
      />
      <feBlend
        mode="normal"
        in2="effect1_dropShadow_416_397"
        result="effect2_dropShadow_416_397"
      />
      <feBlend
        mode="normal"
        in="SourceGraphic"
        in2="effect2_dropShadow_416_397"
        result="shape"
      />
    </filter>
    <filter
      id="filter3_dd_416_397"
      x="245.463"
      y="116.006"
      width="559.943"
      height="211.99"
      filterUnits="userSpaceOnUse"
      color-interpolation-filters="sRGB"
    >
      <feFlood flood-opacity="0" result="BackgroundImageFix" />
      <feColorMatrix
        in="SourceAlpha"
        type="matrix"
        values="0 0 0 0 0 0 0 0 0 0 0 0 0 0 0 0 0 0 127 0"
        result="hardAlpha"
      />
      <feMorphology
        radius="2"
        operator="erode"
        in="SourceAlpha"
        result="effect1_dropShadow_416_397"
      />
      <feOffset dy="4" />
      <feGaussianBlur stdDeviation="3" />
      <feComposite in2="hardAlpha" operator="out" />
      <feColorMatrix
        type="matrix"
        values="0 0 0 0 0 0 0 0 0 0 0 0 0 0 0 0 0 0 0.02 0"
      />
      <feBlend
        mode="normal"
        in2="BackgroundImageFix"
        result="effect1_dropShadow_416_397"
      />
      <feColorMatrix
        in="SourceAlpha"
        type="matrix"
        values="0 0 0 0 0 0 0 0 0 0 0 0 0 0 0 0 0 0 127 0"
        result="hardAlpha"
      />
      <feMorphology
        radius="3"
        operator="erode"
        in="SourceAlpha"
        result="effect2_dropShadow_416_397"
      />
      <feOffset dy="10" />
      <feGaussianBlur stdDeviation="7.5" />
      <feComposite in2="hardAlpha" operator="out" />
      <feColorMatrix
        type="matrix"
        values="0 0 0 0 0 0 0 0 0 0 0 0 0 0 0 0 0 0 0.05 0"
      />
      <feBlend
        mode="normal"
        in2="effect1_dropShadow_416_397"
        result="effect2_dropShadow_416_397"
      />
      <feBlend
        mode="normal"
        in="SourceGraphic"
        in2="effect2_dropShadow_416_397"
        result="shape"
      />
    </filter>
    <linearGradient
      id="paint0_linear_416_397"
      x1="292.695"
      y1="266.318"
      x2="273.248"
      y2="291.512"
      gradientUnits="userSpaceOnUse"
    >
      <stop stop-color="#636363" />
      <stop offset="1" stop-color="#111114" />
    </linearGradient>
    <linearGradient
      id="paint1_linear_416_397"
      x1="283.063"
      y1="274.3"
      x2="285.406"
      y2="282.95"
      gradientUnits="userSpaceOnUse"
    >
      <stop stop-color="white" />
      <stop offset="1" stop-color="#A9A9A9" />
    </linearGradient>
    <linearGradient
      id="paint2_linear_416_397"
      x1="283.063"
      y1="274.3"
      x2="285.406"
      y2="282.95"
      gradientUnits="userSpaceOnUse"
    >
      <stop stop-color="white" />
      <stop offset="1" stop-color="#A9A9A9" />
    </linearGradient>
    <clipPath id="clip0_416_397">
      <rect
        width="71"
        height="20"
        fill="white"
        transform="matrix(0.963927 -0.266168 0 1 100.464 91.9604)"
      />
    </clipPath>
    <clipPath id="clip1_416_397">
      <rect
        width="71"
        height="20"
        fill="white"
        transform="matrix(0.963927 -0.266168 0 1 216.463 149.96)"
      />
    </clipPath>
    <clipPath id="clip2_416_397">
      <rect
        width="49"
        height="20"
        fill="white"
        transform="matrix(0.963927 -0.266168 0 1 387.464 191.646)"
      />
    </clipPath>
    <clipPath id="clip3_416_397">
      <path
        d="M273.378 279.55C273.399 275.126 276.869 270.604 281.128 269.451L284.984 268.406C289.243 267.253 292.678 269.904 292.656 274.328L292.637 278.334C292.615 282.758 289.145 287.279 284.886 288.433L281.03 289.477C276.772 290.631 273.337 287.98 273.358 283.555L273.378 279.55Z"
        fill="white"
      />
    </clipPath>
  </defs>
</svg>
