<svg
  width="173"
  height="177"
  viewBox="0 0 173 177"
  fill="none"
  xmlns="http://www.w3.org/2000/svg"
>
  <path
    d="M116.035 15.2654C114.681 12.8957 114.24 10.5692 114.906 8.09141C116.216 3.25114 121.379 0.0603107 126.657 0.816603C131.139 1.45765 134.65 4.49723 135.512 8.49477C135.953 10.5548 135.714 12.5427 134.715 14.4011C134.295 15.179 134.491 15.2798 135.273 15.2798C143.86 15.2582 152.439 15.2798 161.026 15.2438C161.968 15.2438 162.221 15.5031 162.214 16.4322C162.185 30.5353 162.185 44.6311 162.199 58.7342C162.207 66.506 162.286 74.2778 162.301 82.0496C162.301 84.1672 162.467 83.9223 160.396 83.9295C152.15 83.9367 143.903 83.9295 135.664 83.9295C134.621 83.9295 134.621 83.9295 135.019 84.8155C137.01 89.2164 135.403 94.0782 131.095 96.6928C125.585 100.042 118.048 98.011 115.405 92.4504C114.218 89.9438 114.218 87.4013 115.355 84.8731C115.644 84.232 115.76 83.9511 114.833 83.9583C106.529 83.9583 98.217 83.9223 89.9124 83.9007C88.6815 83.9007 88.6888 83.9007 88.6888 85.1684C88.6888 92.7529 88.6888 100.345 88.6888 107.929C88.6888 109.276 88.6381 109.305 87.4435 108.714C82.6649 106.345 77.184 108.729 75.2508 114.001C73.4987 118.805 75.5477 124.344 79.9208 126.505C82.4766 127.766 85.0469 127.679 87.5738 126.376C88.5512 125.871 88.6815 125.936 88.6888 127.009C88.696 129.127 88.6888 131.245 88.6888 133.348C89.0218 133.477 89.2028 133.254 89.3983 133.139C90.9477 132.21 92.6275 131.742 94.4376 131.878C95.2123 131.936 95.2268 131.706 94.9951 131.079C93.3153 126.592 91.6645 122.09 90.0065 117.595C89.8545 117.192 89.6879 116.796 89.5721 116.378C89.1232 114.743 90.1803 113.295 91.8817 113.259C93.7353 113.223 95.5888 113.216 97.4423 113.259C98.1808 113.281 98.4125 113.058 98.3763 112.323C98.3184 111.192 98.398 110.047 98.369 108.916C98.3545 108.261 98.6514 108.03 99.2596 108.059C99.4768 108.066 99.694 108.059 99.9112 108.059C108.498 108.059 117.078 108.059 125.665 108.059C127.482 108.059 127.504 108.088 126.65 109.629C126.201 110.443 125.933 111.322 125.745 112.229C125.6 112.964 125.766 113.288 126.606 113.266C128.952 113.216 131.298 113.245 133.644 113.252C135.845 113.252 136.989 114.052 137.756 116.126C138.335 117.682 138.922 119.23 139.472 120.793C139.689 121.406 139.943 121.521 140.551 121.211C145.076 118.885 146.633 113.54 144.041 109.161C143.527 108.297 143.614 108.088 144.627 108.073C147.683 108.044 150.738 108.052 153.801 108.052C159.665 108.052 165.537 108.066 171.402 108.037C172.336 108.037 172.625 108.325 172.625 109.255C172.596 118.561 172.69 127.874 172.589 137.18C172.452 149.929 172.575 162.678 172.509 175.419C172.509 176.673 172.509 176.701 171.242 176.701C163.799 176.701 156.356 176.701 148.913 176.701C132.514 176.701 116.115 176.701 99.723 176.701C98.8686 176.701 98.4414 176.286 98.4414 175.455C98.4125 167.9 98.3835 160.344 98.3473 152.788C98.3473 152.55 98.3473 152.306 98.3473 152.053C97.8477 152.025 97.5292 152.306 97.1671 152.435C94.5027 153.364 91.9541 153.127 89.4924 151.758C89.1811 151.585 88.8553 151.117 88.5078 151.809C88.3847 152.061 87.9286 151.931 87.6245 151.931C82.8966 151.931 78.1759 151.96 73.448 151.902C72.514 151.888 72.0579 152.183 71.79 153.04C71.5004 153.948 71.037 154.79 70.7401 155.698C70.4795 156.483 70.0089 156.699 69.2197 156.685C67.149 156.642 65.0855 156.678 63.0148 156.67C62.5803 156.67 62.2763 156.692 62.1821 157.254C61.3857 161.907 58.4896 164.622 54.0151 165.724C49.3741 166.87 44.3783 164.723 42.1483 160.733C40.722 158.183 40.6278 155.532 41.7066 152.831C41.8008 152.601 41.9021 152.385 41.989 152.154C42.0107 152.104 41.9818 152.039 41.9673 151.974C41.1708 151.708 40.7147 152.003 40.2731 152.73C37.1453 157.83 32.4391 160.481 26.5817 161.295C22.853 161.813 19.3052 161.446 16.1485 159.184C11.8405 156.101 9.50188 151.909 9.16883 146.659C8.82854 141.199 10.7182 136.402 13.8026 132.008C14.3094 131.288 14.5194 130.582 14.5194 129.718C14.4977 114.693 14.4036 99.6748 14.5411 84.6498C14.6208 76.453 14.5628 68.2491 14.6352 60.0523C14.6425 59.0223 14.6352 59.0223 13.6578 59.404C8.9299 61.2696 3.66622 58.9287 1.54482 54.0092C-0.25801 49.8315 0.654264 44.8688 3.79654 41.8004C5.75142 39.8989 8.09003 38.9481 10.8341 39.0994C11.4133 39.1282 11.8188 39.049 12.1735 38.552C12.5862 37.9686 13.1727 37.522 13.8678 37.3131C14.5484 37.1114 14.657 36.7009 14.657 36.0742C14.6425 29.5917 14.6425 23.1092 14.6425 16.6267C14.6425 15.359 14.6425 15.359 15.9095 15.359C27.5519 15.359 39.1943 15.359 50.8366 15.359C52.0385 15.359 52.0385 15.359 52.0385 14.1562C52.0385 11.5776 52.0385 8.99176 52.0385 6.41317C52.0385 4.36758 52.9363 3.46723 54.9563 3.46723C69.2559 3.46723 83.5554 3.46723 97.8477 3.46723C99.6071 3.46723 100.367 4.07946 100.679 5.82974C100.758 6.28352 100.983 6.34114 101.352 6.39876C102.901 6.64365 103.618 7.46477 103.633 9.02057C103.647 10.8645 103.633 12.7084 103.633 14.5523C103.633 14.9413 103.618 15.287 104.183 15.287C108.071 15.2726 111.952 15.287 116.014 15.287L116.035 15.2654ZM161.598 37.6588C161.598 30.7442 161.584 23.8367 161.62 16.922C161.62 16.0577 161.359 15.8488 160.527 15.8488C151.788 15.8776 143.049 15.8704 134.31 15.8632C134.013 15.8632 133.644 16.0001 133.455 15.6831C133.26 15.3518 133.6 15.1285 133.752 14.8764C135.946 11.2967 135.41 7.10463 132.384 4.1803C129.401 1.29919 124.745 0.514086 120.843 2.24996C115.543 4.60527 113.632 10.4611 116.672 15.0421C117.129 15.7336 117.034 15.8632 116.086 15.8632C112.256 15.8632 108.426 15.8848 104.596 15.8488C103.886 15.8488 103.618 16.0073 103.64 16.7636C103.691 18.4202 103.662 20.084 103.654 21.7407C103.654 23.8511 102.793 24.7154 100.686 24.7154C97.0441 24.7154 93.395 24.7442 89.7531 24.701C88.9132 24.6938 88.696 24.9603 88.725 25.7526C88.7829 27.0707 88.7395 28.3961 88.7395 29.7142C88.7395 33.1571 88.7395 36.5928 88.7395 40.0358C88.7395 41.0946 88.5657 41.1954 87.6172 40.6912C86.9294 40.3239 86.2126 40.0646 85.4596 39.8773C85.0831 39.7837 84.837 39.8269 84.6415 40.223C83.6423 42.2974 82.1725 44.0333 80.6159 45.7043C79.8629 46.5111 79.1171 47.3394 78.6755 48.3838C77.9153 50.1989 77.0754 51.978 76.0979 53.6922C75.8735 54.0884 75.8662 54.3909 76.0907 54.7943C78.3859 58.9503 83.4758 60.5133 87.6751 58.338C88.6309 57.841 88.7322 57.9059 88.7395 59.0151C88.7395 60.9814 88.7467 62.9478 88.7395 64.9142C88.7395 65.3823 88.8336 65.7137 89.3259 65.9226C93.3153 67.6656 97.3337 69.3007 101.533 70.4963C104.61 71.3751 107.282 71.0005 109.678 68.7821C111.488 67.111 113.393 65.5408 115.282 63.9634C119.489 60.4484 124.101 57.6682 129.437 56.1772C130.458 55.8891 131.863 56.1052 132.427 55.2552C132.992 54.4125 132.92 53.1376 133.115 52.05C133.347 50.7391 133.34 50.7391 132.036 50.5734C130.139 50.3357 128.431 49.7019 127.243 48.1101C126.925 47.6923 126.664 47.1881 126.968 46.6551C127.25 46.1581 127.765 46.2878 128.221 46.295C129.09 46.3166 129.966 46.3166 130.711 45.7692C131.059 45.5171 131.479 45.229 131.182 44.7176C130.929 44.271 130.509 44.3862 130.11 44.5447C129.336 44.8616 128.547 45.1209 127.721 45.2506C126.57 45.4306 125.918 44.9697 125.81 43.8244C125.759 43.2914 125.6 42.9601 125.115 42.6576C124.195 42.0813 124.079 40.8929 124.97 40.4751C125.933 40.0214 126.063 39.2867 126.259 38.4583C126.447 37.6804 126.729 36.9242 127.135 36.2327C127.352 35.8581 127.323 35.6565 126.91 35.4548C125.766 34.893 125.332 33.863 125.209 32.6745C125.013 30.8738 125.745 29.4117 127.055 28.252C129.423 26.1488 132.239 25.2628 135.367 25.7526C137.981 26.1632 139.943 27.5461 140.797 30.1679C140.942 30.6145 141.174 30.6937 141.608 30.6865C143.447 30.6289 144.895 31.4212 145.981 32.8618C147.248 34.5472 147.726 36.456 147.306 38.5232C146.683 41.5916 144.946 43.8892 142.209 45.4162C141.746 45.6755 141.528 45.906 141.586 46.4678C141.847 49.032 142.086 51.6034 142.274 54.1748C142.332 54.9023 142.665 55.068 143.324 55.104C149.319 55.4425 155.133 56.6166 160.679 58.9503C161.598 59.3392 161.613 59.3248 161.613 58.2948C161.613 51.4162 161.613 44.5303 161.613 37.6516L161.598 37.6588ZM33.6192 16.0577C27.8777 16.0577 22.1362 16.0793 16.3946 16.0433C15.562 16.0433 15.2941 16.2306 15.3013 17.1021C15.3375 23.0012 15.3231 28.8931 15.3231 34.7921C15.3231 36.8665 15.3231 36.8377 17.3793 36.6937C18.2192 36.636 18.3857 36.2903 18.1395 35.5628C17.8644 34.7489 17.5603 33.9422 17.3721 33.1067C16.6698 29.9375 17.1476 27.0852 19.9134 25.0108C21.9914 23.455 24.3951 22.7779 26.9727 23.0516C27.8994 23.1524 28.4931 22.8715 29.1447 22.3673C30.0643 21.6471 30.9621 20.8836 32.0988 20.4946C33.9161 19.8752 35.48 20.8115 35.7841 22.7059C36.0737 24.521 35.3859 25.9255 33.7423 26.7322C33.3007 26.9483 33.1559 27.078 33.5251 27.4885C34.2347 28.2664 34.756 29.1812 35.2049 30.1247C35.3714 30.4705 35.5452 30.6865 35.994 30.773C37.0005 30.9747 37.3263 31.8606 36.6529 32.6385C36.233 33.1211 36.1751 33.5821 36.2185 34.1511C36.2547 34.6409 36.2475 35.1379 36.2185 35.6205C35.9144 39.726 33.4527 42.2542 30.3032 42.5999C29.5285 42.6864 29.7891 43.1185 29.9629 43.5075C30.9114 45.5387 31.8671 47.5699 32.8228 49.5939C32.9749 49.9108 33.1486 50.1701 33.5396 50.2349C37.2828 50.8471 40.7654 52.3165 44.3421 53.4762C49.823 55.248 55.3473 55.6442 60.9078 53.9155C65.5706 52.4606 69.3645 49.8099 71.9203 45.5675C72.7384 44.2062 72.8615 42.7224 72.6443 41.2026C72.4706 39.9781 71.7465 39.1642 70.6026 38.6672C70.1682 38.48 69.6324 38.2135 69.7337 37.6084C69.8496 36.9386 70.4867 36.9674 70.9935 36.9097C72.4126 36.7441 73.3611 37.558 74.2879 38.4655C74.7657 38.9409 75.135 39.9349 75.8662 39.654C76.6554 39.3443 76.5251 38.2999 76.6265 37.522C76.6265 37.4932 76.6265 37.4572 76.6265 37.4283C76.7278 35.6997 76.6265 33.9998 76.1269 32.3216C75.9676 31.7814 75.7721 31.0755 76.4672 30.7802C77.1478 30.4921 77.5388 31.0899 77.8646 31.5653C78.1397 31.9686 78.3497 32.4224 78.5452 32.869C78.9072 33.6901 79.0809 34.5616 79.2257 35.4476C79.2619 35.6709 79.1823 36.0598 79.5081 36.0382C80.1525 36.0022 80.739 36.7009 81.4268 36.1607C81.6223 36.0094 81.9046 36.0814 82.1436 36.1607C82.8676 36.3839 82.8676 37.2339 83.3093 37.5796C83.7509 37.9181 84.6559 37.6949 84.8804 38.4511C85.0686 39.0706 85.4741 39.2218 86.0171 39.3227C86.3791 39.3947 86.7556 39.4883 87.067 39.6756C87.8923 40.151 87.9503 39.7476 87.943 39.049C87.9286 34.7201 87.943 30.3912 87.943 26.0552C87.943 24.8379 87.943 24.8379 86.7122 24.8379C77.2636 24.8379 67.8223 24.8379 58.3737 24.8379C58.0335 24.8379 57.6932 24.8379 57.3529 24.8091C56.0424 24.6722 55.1808 23.9303 54.9708 22.6266C54.8839 22.0864 54.674 21.9568 54.1671 21.8703C52.8132 21.6398 52.0168 20.6675 51.9806 19.2989C51.9589 18.5931 51.9154 17.88 51.9878 17.1813C52.0819 16.2882 51.7561 16.0361 50.8656 16.0433C45.124 16.0793 39.3825 16.0649 33.641 16.0649L33.6192 16.0577ZM38.8684 141.184C38.5209 141.645 38.2675 141.991 38.0068 142.33C36.2113 144.671 34.2347 146.918 31.4544 148.02C29.3185 148.863 27.4795 149.849 26.0532 151.701C25.2422 152.759 23.7435 152.651 22.7299 151.78C21.7524 150.93 21.6076 149.54 22.4041 148.452C22.643 148.128 22.8964 147.818 23.1788 147.537C24.0259 146.695 24.8006 145.845 24.3734 144.505C24.3227 144.346 24.3879 144.138 24.4168 143.958C24.8368 140.99 26.5383 138.916 29.0579 137.446C29.4488 137.216 30.0353 136.575 30.3756 137.194C30.6869 137.756 29.8326 137.864 29.4633 138.102C27.2912 139.47 25.6694 141.228 25.206 143.849C24.6341 147.055 26.6034 148.834 29.7167 147.905C31.2444 147.451 32.5911 146.63 33.8075 145.621C36.957 143 39.1363 139.693 40.6495 135.926C41.4532 133.917 42.952 132.642 45.0299 132.001C46.2173 131.634 47.4409 131.518 48.6645 131.353C49.3017 131.266 49.9605 130.942 50.5398 131.389C51.2131 131.9 51.9806 132.044 52.7698 132.195C54.9853 132.613 54.9998 132.628 55.8759 130.582C56.1293 129.991 56.4623 129.732 57.1212 129.754C58.5113 129.797 59.9014 129.732 61.2916 129.775C62.0735 129.797 62.2256 129.61 61.8056 128.918C60.3576 126.534 58.6561 124.366 56.5275 122.551C56.3537 122.407 56.2306 122.14 55.8976 122.234C55.8976 122.385 55.8759 122.536 55.8759 122.688C55.8686 125.742 54.1671 127.636 51.119 127.989C48.6718 128.277 46.3694 127.715 44.2407 126.592C40.5337 124.625 37.5724 121.946 36.414 117.732C36.2547 117.163 35.9506 117.293 35.5814 117.365C33.2065 117.84 30.9765 118.719 28.8334 119.843C21.8538 123.494 16.2353 128.572 12.4487 135.494C9.87838 140.19 8.92266 145.175 10.4793 150.44C12.2387 156.382 17.7558 160.74 23.2367 160.812C32.1567 160.927 40.6061 156.188 42.6044 144.138C42.6479 143.885 42.7854 143.525 42.3365 143.511C40.7509 143.461 39.7228 142.56 38.8612 141.213L38.8684 141.184ZM115.934 175.995C121.183 175.995 126.432 175.995 131.682 175.995C132.789 175.995 132.797 175.995 132.485 174.987C130.921 169.909 129.365 164.831 127.779 159.768C126.99 157.247 126.15 154.74 125.281 152.248C124.615 150.332 123.341 149.093 121.292 148.51C118.142 147.617 114.935 147.3 111.691 147.127C110.887 147.084 110.084 147.011 109.338 146.702C108.933 146.536 108.462 146.277 108.607 145.78C108.831 145.016 108.39 145.168 107.955 145.168C105.827 145.168 103.698 145.175 101.562 145.132C100.483 145.11 99.7447 144.498 99.4623 143.504C98.4776 140.046 97.0368 136.748 95.8494 133.362C95.6901 132.916 95.415 132.757 94.9589 132.714C92.8157 132.527 90.8464 132.995 89.1015 134.277C85.1773 137.158 83.9536 142.711 86.2343 147.206C88.5223 151.715 93.5543 153.48 97.8912 151.304C99.0496 150.721 99.1003 150.75 99.1003 152.017C99.1003 159.638 99.122 167.251 99.0786 174.872C99.0786 175.851 99.3827 176.031 100.28 176.024C105.501 175.981 110.714 176.003 115.934 176.003V175.995ZM64.1877 105.574C63.9415 106.165 63.746 107.547 63.5578 108.023C63.2175 108.916 62.7686 109.787 62.088 110.457C61.3929 111.134 61.3567 111.891 61.5233 112.741C61.6825 113.569 62.0446 114.311 62.4935 115.017C63.2103 116.14 64.1298 117.091 65.0131 118.078C65.976 119.158 67.0042 120.188 67.6703 121.492C69.3717 124.791 68.4088 128.954 63.384 128.853C63.174 128.853 62.7976 128.68 62.7758 129.033C62.7614 129.357 62.9496 129.703 63.3333 129.782C63.6012 129.84 63.8836 129.818 64.166 129.818C69.4803 129.818 74.7875 129.818 80.1018 129.818C81.3254 129.818 81.3471 129.84 80.8693 131C79.9063 133.326 78.9506 135.66 77.9732 137.979C77.5388 139.016 77.1695 139.78 78.2193 140.932C80.0656 142.964 78.3859 147.004 75.4463 147.609C74.0127 147.905 73.419 148.574 73.0787 149.792C73.0136 150.029 72.9122 150.253 72.7964 150.469C72.4344 151.131 72.6878 151.276 73.3684 151.268C77.9659 151.247 82.5707 151.261 87.1756 151.254C87.4579 151.254 87.8489 151.412 87.9937 151.023C88.1385 150.634 87.7982 150.418 87.5665 150.174C83.331 145.801 83.302 139.038 87.5231 134.709C87.8996 134.32 88.0589 133.938 88.0516 133.405C88.0299 131.562 88.0154 129.718 88.0516 127.874C88.0661 127.139 87.9503 126.966 87.19 127.29C84.6053 128.414 82.0132 128.313 79.5009 127.038C75.2291 124.877 73.0425 119.677 74.2951 114.75C75.8373 108.678 82.0494 105.365 87.4 107.879C88.3195 108.311 88.0227 107.519 88.0227 107.18C88.0372 99.7468 88.0227 92.3136 88.0516 84.8803C88.0516 84.052 87.791 83.8431 86.9946 83.8503C82.7952 83.8863 78.5958 83.8647 74.3965 83.8719C70.1971 83.8719 65.9978 83.8719 61.7984 83.8719C60.7486 83.8719 60.7486 83.8791 61.183 84.765C61.8491 86.112 62.1677 87.5381 62.1387 89.0435C62.1387 89.3748 62.088 89.699 62.45 89.9294C63.384 90.5201 63.8546 91.4636 64.2239 92.4504C64.5859 93.4012 64.8828 94.3736 65.281 95.3027C65.7226 96.3255 66.6783 96.5992 67.6485 96.059C68.6332 95.5116 68.9301 94.424 68.4522 93.2499C68.3364 92.969 67.902 92.6665 68.2929 92.364C68.6043 92.1263 68.9446 92.4216 69.2269 92.5801C71.7031 93.9054 72.3764 97.4275 70.5808 99.7828C69.2052 101.584 67.3445 102.484 65.0782 102.542C64.8466 102.542 64.5352 102.412 64.4411 102.736C64.3615 102.995 64.3253 103.319 64.5207 103.528C64.68 103.694 64.3542 105.012 64.1805 105.559L64.1877 105.574ZM171.474 175.952C171.88 175.664 171.822 175.354 171.822 175.066C171.822 153.328 171.822 131.59 171.836 109.845C171.836 109.046 171.568 108.88 170.83 108.887C162.496 108.909 154.163 108.909 145.829 108.887C145.033 108.887 144.895 109.002 145.235 109.78C146.828 113.403 146.249 116.724 143.679 119.713C142.868 120.657 141.883 121.406 140.775 121.96C140.211 122.241 140.124 122.551 140.355 123.127C141.021 124.813 141.644 126.52 142.252 128.219C142.441 128.738 142.658 128.868 143.201 128.623C144.982 127.816 146.886 127.42 148.819 127.175C152.454 126.714 155.56 127.55 157.696 130.769C158.557 132.066 159.173 133.463 159.6 134.947C163.329 147.861 167.058 160.783 170.786 173.698C171.003 174.454 171.25 175.196 171.481 175.945L171.474 175.952ZM15.2072 129.876C15.2796 129.862 15.3593 129.876 15.3882 129.84C17.1114 127.787 18.9794 125.871 21.0574 124.171C21.4773 123.826 21.2601 123.574 21.0574 123.242C19.0808 120.073 19.3342 116.63 21.7452 113.771C23.0629 112.208 24.7571 111.156 26.6107 110.342C29.2099 109.204 31.9612 108.685 34.756 108.333C38.2241 107.893 40.9174 106.323 42.6189 103.19C43.2198 102.088 43.8642 100.986 44.7403 100.071C45.2254 99.5596 45.4281 99.1346 44.9937 98.4863C44.7041 98.0542 44.5521 97.4996 44.6172 96.9882C44.7113 96.2391 44.3348 95.8213 43.8425 95.3531C40.9319 92.5584 40.1862 88.4169 41.9094 84.8587C42.3727 83.9007 42.3727 83.8935 41.2433 83.8935C32.9387 83.8935 24.6413 83.8935 16.3367 83.8935C15.5113 83.8935 15.0986 84.3137 15.0986 85.154C15.0986 99.7684 15.0986 114.383 15.0986 128.997C15.0986 129.285 15.0045 129.602 15.1855 129.876H15.2072ZM76.3876 21.2005C83.4903 21.2005 90.593 21.2005 97.6957 21.2005C99.513 21.2005 100.085 20.6387 100.092 18.838C100.092 14.6604 100.092 10.4827 100.092 6.30512C100.092 4.72051 99.4406 4.07226 97.8333 4.07226C83.5337 4.07226 69.2414 4.07226 54.9419 4.07226C53.3345 4.07226 52.6901 4.71331 52.6901 6.31233C52.6829 10.5188 52.6829 14.7324 52.6901 18.9388C52.6901 20.6026 53.3128 21.2077 54.9925 21.2077C62.1242 21.2077 69.2559 21.2077 76.3948 21.2077L76.3876 21.2005ZM69.1038 141.617C68.8721 141.321 68.6984 141.105 68.5391 140.882C68.3291 140.587 68.0395 140.277 68.2278 139.888C68.4088 139.506 68.7853 139.571 69.1255 139.643C69.379 139.693 69.5382 139.686 69.5165 139.348C69.4658 138.534 70.0016 138.591 70.5012 138.779C71.5583 139.168 72.4416 139.838 73.2091 140.659C74.0634 141.573 75.8952 141.3 76.3658 140.162C77.5894 137.245 78.7913 134.313 80.0367 131.403C80.319 130.74 80.3552 130.438 79.4574 130.445C72.1086 130.467 64.7669 130.459 57.418 130.445C56.8822 130.445 56.5926 130.604 56.3754 131.122C53.0883 139.103 49.7795 147.076 46.4635 155.05C46.1956 155.691 46.1884 155.957 47.021 155.95C54.3699 155.929 61.7115 155.929 69.0604 155.95C69.6469 155.95 69.9437 155.756 70.1537 155.215C70.8994 153.328 71.6959 151.463 72.4778 149.597C73.2308 147.789 73.238 147.797 71.3556 147.321C70.2768 147.048 69.1835 146.846 68.1771 146.356C67.8368 146.19 67.511 145.945 67.5906 145.513C67.6703 145.088 68.0468 144.973 68.4305 144.901C68.8215 144.822 69.2269 144.98 69.6469 144.786C69.4876 144.03 68.9445 143.518 68.5029 142.942C67.9164 142.171 68.025 141.898 69.0894 141.624L69.1038 141.617ZM58.6127 90.4336C59.3367 89.9943 59.9883 89.6053 60.7341 89.5549C61.335 89.5117 61.4219 89.2092 61.4147 88.7122C61.3857 87.1996 60.9658 85.8094 60.22 84.4985C60.0245 84.1528 59.5105 83.8359 59.8363 83.3749C60.1187 82.9715 60.6327 83.1372 61.0527 83.13C65.6502 83.1228 70.255 83.13 74.8526 83.1228C78.8999 83.1228 82.94 83.1084 86.9873 83.1372C87.7113 83.1372 87.972 82.9139 87.943 82.1936C87.8996 80.8755 87.9286 79.5502 87.9286 78.2321C87.9286 77.8864 87.9141 77.5695 87.6317 77.303C84.8297 74.71 82.3246 71.8144 79.6022 69.135C78.5814 68.1338 77.2926 67.6296 75.8662 67.4712C75.0843 67.3847 74.4182 67.5648 73.8824 68.2058C72.9195 69.3655 71.9348 70.5035 70.9429 71.6416C70.6605 71.9657 70.3781 72.297 70.0306 72.5491C69.4876 72.9381 68.8721 73.0461 68.3364 72.5419C67.8078 72.0449 67.9816 71.5047 68.3364 70.9645C68.9156 70.0786 69.4731 69.1782 70.0668 68.2347C69.6396 68.1842 69.4296 68.3931 69.1907 68.5084C67.4168 69.3727 65.6647 70.2802 63.8764 71.1086C63.1885 71.4327 62.3849 71.7496 61.6608 71.303C61.125 70.9717 60.7992 71.1158 60.3576 71.4039C56.4044 74.0185 52.0964 75.812 47.4192 76.6475C46.7965 76.7555 46.5938 77.0365 46.5938 77.6199C46.5938 78.9668 46.5721 80.3209 46.5576 81.6678C46.5214 85.118 47.2454 88.5033 47.3975 91.939C47.4192 92.4648 47.6075 92.7169 48.2084 92.5945C48.5197 92.5296 48.9469 92.5368 49.2003 92.6953C49.8881 93.1419 50.0474 92.7889 50.2574 92.2055C50.9597 90.2608 52.0602 88.6401 54.0658 87.8118C56.4985 86.8106 58.2289 87.7614 58.6199 90.4264L58.6127 90.4336ZM164.104 176.053C165.928 176.053 167.745 176.053 169.57 176.053C170.357 176.053 170.644 175.686 170.431 174.951C166.616 161.763 162.8 148.574 158.977 135.393C158.485 133.701 157.819 132.087 156.726 130.676C155.509 129.113 154.011 128.011 151.947 127.838C148.892 127.578 145.988 128.169 143.194 129.372C142.506 129.667 141.847 130.049 141.47 130.719C139.798 133.694 138.632 136.92 136.742 139.787C136.438 140.248 136.757 140.551 137.293 140.507C137.857 140.464 138.227 140.075 138.589 139.693C140.312 137.886 141.847 135.919 143.454 134.018C144.062 133.297 144.779 132.736 145.626 132.332C147.596 131.41 148.66 132.037 148.906 134.183C149.109 135.984 149.319 137.792 150.195 139.427C150.347 139.715 150.528 140.097 150.948 139.953C151.303 139.83 151.426 139.477 151.397 139.117C151.332 138.383 151.223 137.655 151.136 136.92C151.02 135.898 151.078 134.896 151.505 133.938C151.6 133.722 151.708 133.427 152.034 133.578C152.287 133.701 152.172 133.946 152.085 134.147C151.773 134.868 151.621 135.638 151.744 136.402C152.077 138.555 152.012 140.738 152.353 142.891C154.068 153.652 155.719 164.428 157.363 175.203C157.464 175.859 157.689 176.082 158.355 176.068C160.266 176.032 162.185 176.053 164.096 176.053H164.104ZM132.181 145.369C132.985 146.212 133.579 147.199 134.056 148.265C138.082 157.16 142.129 166.048 146.133 174.958C146.488 175.751 146.915 176.032 147.784 176.01C150.282 175.952 152.78 175.988 155.285 175.988C156.294 175.988 156.723 175.501 156.574 174.526C155.104 165.098 153.62 155.676 152.193 146.241C152.063 145.362 151.73 145.146 150.897 145.146C144.91 145.182 138.922 145.175 132.934 145.189C132.702 145.189 132.442 145.096 132.181 145.362V145.369ZM62.0228 70.4675C62.0446 70.5468 63.1089 70.7124 64.4628 70.0281C66.5263 68.9909 68.5825 67.9249 70.6388 66.8733C70.8994 66.7365 71.2035 66.506 71.4714 66.8301C71.6959 67.0966 71.4714 67.3559 71.3266 67.5864C70.6315 68.746 69.9147 69.8913 69.2342 71.0581C69.0676 71.3391 68.5825 71.656 69.0025 71.9801C69.35 72.2466 69.6903 71.8937 69.9437 71.62C70.1754 71.3751 70.3854 71.1014 70.6026 70.8493C71.5293 69.7761 72.4706 68.7172 73.3756 67.6296C74.0345 66.8373 74.8743 66.578 75.8518 66.6717C77.5388 66.8229 79.0158 67.4712 80.2177 68.6668C81.282 69.7328 82.3029 70.8493 83.3527 71.9297C87.009 75.6751 90.6726 79.4206 94.8575 82.597C95.1978 82.8563 95.5164 83.1156 96.0015 83.1156C100.722 83.1012 105.45 83.1012 110.171 83.1156C110.67 83.1156 110.895 82.9499 110.909 82.4313C110.989 78.5418 109.917 74.9765 107.868 71.6776C107.586 71.2238 107.289 71.0582 106.732 71.303C105.957 71.6488 105.124 71.6704 104.277 71.584C102.764 71.4255 101.294 71.0798 99.846 70.6476C94.0031 68.8829 88.5295 66.2539 83.0124 63.6897C79.385 62.0042 75.8011 60.1819 71.8769 59.2096C70.3057 58.8206 69.0387 57.8915 68.054 56.595C67.8802 56.3717 67.7789 56.0259 67.3589 56.0692C67.2358 56.7462 67.3951 57.3945 67.7789 57.9059C68.988 59.5049 70.436 60.8662 72.2389 61.8098C72.4199 61.9034 72.5719 61.9682 72.5574 62.1915C72.543 62.4148 72.3837 62.5012 72.1809 62.5229C71.551 62.5877 70.9718 62.4148 70.5953 61.9322C70.132 61.3416 69.7048 61.3704 69.0966 61.6945C66.2439 63.2215 63.3695 64.7053 60.5024 66.2179C60.2562 66.3475 59.9014 66.4196 59.9087 66.8229C60.3503 67.003 60.7051 66.7725 61.0671 66.6212C62.8048 65.8938 64.528 65.1447 66.2584 64.41C66.5408 64.2875 66.8666 64.1219 67.0693 64.4964C67.2358 64.8133 66.9535 65.0078 66.7363 65.1663C65.7443 65.8937 64.7452 66.6212 63.7315 67.3199C62.6383 68.0762 61.5305 68.7893 60.43 69.5384C60.2345 69.668 59.9521 69.8193 60.0825 70.1074C60.2345 70.4531 60.5603 70.3307 60.8065 70.2154C61.1685 70.0498 61.516 69.8481 61.8563 69.632C63.7243 68.4363 65.5923 67.2335 67.4603 66.0378C67.6992 65.8865 68.0033 65.5768 68.264 65.9298C68.5753 66.3475 68.1409 66.5204 67.8802 66.7005C67.1055 67.2119 66.3236 67.6945 65.5416 68.1914C65.5127 68.2131 65.5199 68.2203 65.4909 68.2491C64.1877 69.7905 61.9577 70.3451 61.9939 70.4675H62.0228ZM109.295 145.816C110.142 146.378 110.989 146.363 111.807 146.406C115.109 146.587 118.374 146.911 121.581 147.847C123.696 148.466 125.049 149.756 125.853 151.715C126.085 152.284 126.309 152.86 126.498 153.444C128.771 160.675 131.037 167.914 133.282 175.153C133.484 175.815 133.745 176.089 134.484 176.075C137.973 176.032 141.456 176.032 144.946 176.075C145.778 176.082 145.865 175.887 145.539 175.16C141.507 166.329 137.488 157.492 133.47 148.661C133.115 147.876 132.731 147.105 132.181 146.428C131.472 145.549 130.653 145.031 129.423 145.067C126.831 145.146 124.239 145.088 121.647 145.088C121.292 145.088 120.937 145.088 120.582 145.088C121.154 145.593 121.77 145.917 122.356 146.284C122.595 146.435 123.044 146.587 122.834 146.947C122.602 147.343 122.298 146.961 122.059 146.824C120.64 145.996 119.207 145.182 117.52 145.124C115.608 145.06 113.697 145.081 111.778 145.096C110.945 145.096 110.134 145.254 109.302 145.823L109.295 145.816ZM135.758 65.2959C139.153 65.1014 142.441 63.7257 145.192 61.1255C146.372 60.0091 147.263 58.6982 147.625 57.0775C147.748 56.5301 147.712 56.1916 147.045 56.1484C145.786 56.062 144.526 55.9395 143.266 55.8243C142.716 55.7738 142.556 56.0331 142.614 56.5373C142.68 57.0848 142.73 57.6394 142.766 58.1868C142.781 58.4101 142.701 58.6333 142.433 58.655C142.158 58.6838 142.064 58.4749 142.013 58.2516C141.97 58.0427 141.948 57.8266 141.927 57.6105C141.579 54.002 141.224 50.4006 140.898 46.792C140.862 46.367 140.812 46.0789 140.312 45.906C139.378 45.5891 139.038 44.7752 139.327 43.8316C139.544 43.1185 140.03 42.6216 140.645 42.2254C141.289 41.8076 141.782 41.2746 141.927 40.4967C142.057 39.7981 141.84 39.193 141.268 38.7897C140.696 38.3863 140.153 38.6672 139.646 39.0058C139.204 39.3011 138.886 39.726 138.596 40.1582C138.299 40.5976 137.988 41.0153 137.568 41.3323C136.923 41.8148 136.221 41.9805 135.504 41.5123C134.838 41.0802 134.795 40.4103 134.947 39.7044C135.121 38.9049 135.584 38.2495 135.953 37.5436C136.366 36.7657 136.482 35.9446 135.968 35.1811C135.439 34.396 134.636 34.1367 133.702 34.2087C133.137 34.2519 132.623 34.4536 132.138 34.7273C131.052 35.3395 129.915 35.8077 128.655 35.8798C128.213 35.9086 127.989 36.1246 127.808 36.4704C127.265 37.486 126.91 38.5592 126.736 39.69C126.65 40.2662 126.461 40.6624 125.824 40.7776C125.477 40.8353 125.194 41.0658 125.173 41.4619C125.151 41.822 125.383 42.0669 125.687 42.1534C126.389 42.3695 126.505 42.8448 126.512 43.4931C126.512 44.4295 126.874 44.696 127.822 44.4943C128.51 44.3502 129.184 44.0981 129.85 43.8748C130.827 43.5507 131.493 43.7236 131.855 44.4223C132.196 45.0921 131.913 45.798 131.066 46.3454C130.226 46.8856 129.285 46.9936 128.315 46.9864C128.09 46.9864 127.779 46.8352 127.656 47.1377C127.562 47.3826 127.765 47.6059 127.909 47.7932C128.365 48.3982 128.945 48.852 129.633 49.1473C132 50.1773 134.353 50.1989 136.699 49.0608C137.039 48.8952 137.423 48.5567 137.792 48.9528C138.176 49.3706 137.937 49.8171 137.713 50.2277C137.517 50.5878 137.206 50.8615 136.822 51.0056C135.888 51.3513 135.309 52.0284 134.896 52.8927C134.708 53.2889 134.491 53.6994 134.064 53.8435C133.528 54.0236 133.419 54.4269 133.332 54.8951C133.122 56.0403 132.898 57.1856 132.659 58.3308C132.587 58.6694 132.594 59.2024 132.08 59.0871C131.645 58.9935 131.834 58.5397 131.884 58.2156C131.949 57.8194 132.015 57.4305 132.116 57.0415C132.254 56.4869 132.159 56.206 131.501 56.4005C130.639 56.6454 129.777 56.8759 128.901 57.0631C128.337 57.1856 128.09 57.5241 127.946 58.0499C127.25 60.5277 128.409 63.1063 130.784 64.3307C132.217 65.0726 133.76 65.3103 135.743 65.2743L135.758 65.2959ZM62.8482 103.456C62.9062 103.449 62.9713 103.442 63.0292 103.427C63.3044 103.37 63.6809 103.492 63.7243 103.024C63.7605 102.599 63.5288 102.433 63.1668 102.311C62.2835 102.023 61.545 101.533 61.1251 100.69C60.8934 100.229 60.7413 100.193 60.3359 100.532C59.3729 101.346 58.2651 101.389 57.1139 100.979C56.1075 100.618 55.2677 99.9989 54.4712 99.3075C53.7472 98.6808 53.0449 98.7024 52.3281 99.3507C51.7561 99.8693 51.4738 100.546 51.3217 101.281C51.2131 101.821 51.1769 102.376 51.0466 102.916C50.7859 104.018 50.214 104.897 49.0772 105.279C48.6863 105.408 48.2591 105.473 47.955 105.127C47.6726 104.81 47.7957 104.443 47.955 104.09C48.1505 103.636 48.3315 103.183 48.5125 102.729C48.6718 102.333 48.6211 102.023 48.2084 101.8C47.9405 101.656 47.7016 101.447 47.4264 101.31C47.1006 101.144 46.8762 100.633 46.3911 100.942C45.9277 101.238 45.7974 101.706 45.7974 102.217C45.7974 103.226 46.2752 104.047 46.8689 104.803C47.1513 105.163 47.2961 105.487 47.0644 105.97C44.8996 110.45 42.7565 114.945 40.5989 119.425C40.4758 119.677 40.3672 120.087 39.9472 119.864C39.6142 119.684 39.8024 119.374 39.9183 119.13C40.2586 118.38 40.6206 117.639 41.0622 116.709C39.9834 116.781 39.0929 116.825 38.2096 116.911C37.0946 117.026 37.0149 117.142 37.3697 118.236C38.0358 120.282 39.3318 121.917 40.903 123.329C43.6253 125.77 46.7241 127.362 50.4891 127.283C52.8567 127.233 54.5798 125.9 54.9925 123.905C55.427 121.831 54.826 120.772 52.6394 119.612C52.0457 119.295 51.9009 119.475 51.8285 120.044C51.7344 120.837 51.5968 121.622 51.4665 122.414C51.4158 122.709 51.3941 123.113 50.9742 123.055C50.5615 122.997 50.6484 122.608 50.6918 122.306C50.9452 120.606 51.1479 118.899 51.4738 117.214C51.6403 116.371 51.4955 115.859 50.7135 115.406C49.6782 114.801 48.6863 114.095 48.1143 112.978C47.9188 112.604 47.8247 112.208 48.1288 111.862C48.469 111.48 48.8528 111.653 49.2148 111.862C49.5623 112.056 49.9171 112.251 50.2719 112.424C54.8912 114.685 60.4662 112.769 62.7179 108.174C63.0365 107.526 62.9858 107.259 62.2835 106.964M1.34933 50.2997C1.47966 53.3969 3.0146 56.4221 6.44649 58.3668C6.96055 58.655 7.33704 58.6838 7.82214 58.23C8.63305 57.4809 9.5236 56.811 10.4286 56.17C13.7012 53.8651 17.2635 52.122 21.1008 50.948C21.5063 50.8255 21.9479 50.7895 21.8321 50.1341C21.6004 48.8664 21.4266 47.5843 21.2456 46.3094C21.1804 45.8412 21.0501 45.6539 20.5361 45.8988C20.1016 46.1149 19.6165 46.2518 19.1387 46.367C15.6489 47.1953 12.608 45.9708 11.2395 43.1906C10.9065 42.5135 10.7255 41.8076 10.8341 41.0513C11.0296 39.7044 11.0368 39.7044 9.67565 39.7909C9.33535 39.8125 8.99506 39.8485 8.66925 39.9205C4.39749 40.8137 1.30589 44.8904 1.34209 50.2997H1.34933ZM34.1623 57.5529C33.4165 54.9887 33.2789 52.5398 32.287 50.3285C31.2227 47.9444 29.9557 45.6539 28.971 43.2338C28.4714 42.0093 28.5221 41.9517 29.7964 41.8365C32.4463 41.606 34.1912 40.2086 34.9804 37.6805C35.3931 36.3695 35.5162 35.0298 35.3424 33.6757C35.27 33.1211 35.2411 32.6529 35.8348 32.3432C36.0447 32.2351 36.2185 32.0047 36.0809 31.7237C35.9579 31.4716 35.7189 31.5221 35.5089 31.5725C34.9442 31.7165 34.8356 31.3132 34.6836 30.9386C34.1767 29.707 33.4817 28.5833 32.5839 27.5966C31.9612 26.9123 30.477 26.8619 30.0787 27.5029C29.2316 28.8642 28.1094 29.9447 26.7482 30.773C26.2486 31.0755 26.1762 31.3924 26.3428 31.911C26.5889 32.6673 26.7627 33.4524 26.9654 34.2231C27.1464 34.8786 27.1609 35.4908 26.321 35.6637C25.5825 35.8221 25.1409 35.4764 25.0178 34.7273C24.9816 34.5184 24.9164 34.3095 24.844 34.1079C24.6196 33.5028 24.149 33.1859 23.5408 33.0563C23.1208 32.9698 22.8095 33.1859 22.6357 33.5461C22.3534 34.1223 22.4475 34.6769 22.8312 35.1883C23.1353 35.5988 23.5625 35.8365 23.9824 36.103C24.2286 36.2543 24.511 36.5352 24.1707 36.7441C23.5625 37.1186 23.8521 37.6012 23.9028 38.0406C24.1345 40.1006 24.1272 42.1966 22.8457 43.8748C21.9841 45.0057 21.919 46.0285 22.1651 47.2602C22.3389 48.1317 22.4547 49.0176 22.5561 49.9036C22.6285 50.4942 22.853 50.912 23.4105 51.2073C24.3082 51.6827 25.1626 52.2373 26.0387 52.7559C28.6597 54.3117 31.2734 55.8603 34.155 57.5601L34.1623 57.5529ZM70.646 37.7813C70.9284 37.9758 71.037 38.0838 71.1746 38.1414C72.5285 38.7248 73.1656 39.8053 73.3901 41.2026C73.6435 42.8016 73.4408 44.3286 72.6661 45.7548C70.4071 49.8964 66.8304 52.5038 62.5079 54.1676C61.7188 54.4701 61.6753 54.6646 62.0084 55.4209C63.3261 58.3596 64.5207 61.3488 62.0952 64.5036C64.4701 63.2719 66.7001 62.1051 68.9301 60.9454C69.5382 60.6285 69.0676 60.4412 68.8359 60.2468C67.7934 59.3824 66.9173 58.4029 66.6421 57.0415C66.5118 56.3933 66.2656 55.5866 67.0186 55.212C67.8006 54.8159 68.2495 55.5361 68.6549 56.0547C69.379 56.9623 70.2406 57.6682 71.2976 58.1652C71.9927 58.4893 72.4271 58.4245 72.8905 57.7186C74.7295 54.9095 76.3586 51.9852 77.6763 48.9024C78.2193 47.6347 78.9434 46.5255 79.8629 45.5171C80.4276 44.8976 80.9779 44.2638 81.5643 43.6083C81.0648 43.3706 80.6955 43.2986 80.2394 43.313C79.5371 43.3346 78.7841 43.0825 78.2555 42.6216C77.7994 42.2326 78.0383 41.5772 78.1831 41.0441C78.7044 39.2002 78.6176 37.3275 78.3786 35.4692C78.2121 34.1367 77.8284 32.8474 76.9088 31.7814C76.9668 32.444 77.1333 33.0779 77.2419 33.7261C77.546 35.5556 77.6691 37.3995 77.1261 39.2002C76.6554 40.756 75.6056 40.9937 74.4689 39.8413C74.0127 39.3803 73.6073 38.8761 73.1294 38.4439C72.4923 37.8749 71.761 37.5364 70.6533 37.7957L70.646 37.7813ZM132.297 144.426C138.162 144.426 144.019 144.426 149.884 144.426C151.911 144.426 151.867 144.426 151.607 142.416C151.491 141.523 151.129 141.278 150.246 141.278C138.335 141.307 126.425 141.3 114.515 141.3C114.117 141.3 113.711 141.285 113.313 141.328C112.422 141.415 111.974 141.898 111.945 142.762C111.908 143.669 112.35 144.246 113.233 144.382C113.595 144.44 113.972 144.433 114.341 144.433C120.329 144.433 126.309 144.433 132.297 144.433V144.426ZM112.647 108.902C108.447 108.902 104.255 108.916 100.056 108.887C99.3465 108.887 99.0424 109.074 99.0931 109.824C99.151 110.681 99.1365 111.545 99.0931 112.402C99.0641 113.029 99.2668 113.266 99.9257 113.266C107.977 113.252 116.035 113.252 124.086 113.266C124.637 113.266 124.861 113.065 124.905 112.539C124.977 111.581 125.274 110.673 125.672 109.802C126.078 108.916 126.078 108.909 125.057 108.902C120.922 108.902 116.788 108.902 112.654 108.902H112.647ZM46.1811 147.566C46.2825 147.552 46.6445 147.508 47.0065 147.451C48.3966 147.22 49.3451 146.594 49.8809 145.139C51.0683 141.919 52.4729 138.779 53.7762 135.595C53.8848 135.329 54.2106 134.99 53.9282 134.767C53.6096 134.522 53.2332 134.666 52.8277 134.868C51.3507 135.617 50.0619 136.712 48.4473 137.201C48.0274 137.331 47.6871 137.59 47.3468 137.857C45.1458 139.614 43.6325 141.782 43.3284 144.642C43.2416 145.448 42.4234 146.392 43.0606 146.99C43.647 147.537 44.7403 147.458 45.6309 147.552C45.725 147.559 45.8191 147.552 46.1811 147.552V147.566ZM125.267 97.586C125.52 97.5716 125.954 97.5356 126.382 97.5212C127.062 97.4996 127.012 97.2403 126.642 96.8225C124.347 94.1935 122.689 91.2043 121.618 87.8983C121.466 87.4301 121.285 87.3652 120.828 87.5453C119.424 88.1071 117.961 88.4817 116.484 88.7842C115.13 89.0579 115.109 89.1011 115.442 90.4697C116.455 94.6257 120.459 97.5788 125.267 97.5932V97.586ZM46.0363 136.121C46.6735 136.683 47.2889 136.661 47.8826 136.553C48.679 136.409 49.403 136.063 50.0909 135.645C50.6846 135.285 50.6629 134.911 50.1633 134.5C49.403 133.874 48.6428 133.247 47.8753 132.635C47.6292 132.44 47.3178 132.339 47.0065 132.383C44.61 132.728 42.5465 133.607 41.446 135.955C40.8523 137.237 40.2875 138.527 39.6793 139.801C39.5056 140.169 39.4621 140.5 39.6504 140.846C40.1355 141.746 40.7871 142.416 41.8442 142.661C42.532 142.819 42.9302 142.697 43.1909 141.977C43.7556 140.421 44.7548 139.139 45.9856 138.022C46.1956 137.828 46.5287 137.72 46.5793 137.353C45.9494 137.036 45.153 136.784 45.2109 135.926C45.2616 135.12 46.1232 135.401 46.7097 135.17C46.3621 135.062 46.1304 134.99 45.8987 134.911C45.6381 134.817 45.3195 134.724 45.4643 134.356C45.5802 134.061 45.8553 134.104 46.1015 134.183C46.7241 134.371 47.3396 134.551 47.955 134.76C48.1794 134.839 48.4256 134.976 48.3966 135.278C48.3749 135.523 48.165 135.624 47.9622 135.71C47.4192 135.948 46.8327 135.998 46.0653 136.114L46.0363 136.121ZM75.3812 55.2192C74.7078 56.2564 74.1503 57.1712 73.5349 58.0499C73.1946 58.5397 73.2235 58.7342 73.8317 58.9215C75.6925 59.4905 77.4808 60.2468 79.2402 61.0823C81.8033 62.2996 84.3591 63.524 86.9221 64.7413C87.9141 65.2095 87.9286 65.2023 87.9286 64.0714C87.9286 62.7173 87.8923 61.3704 87.9358 60.0163C87.9575 59.224 87.7331 59.1736 87.038 59.4473C83.9681 60.6429 81.0503 60.2828 78.3352 58.4101C77.1478 57.5961 76.2427 56.5229 75.3884 55.2264L75.3812 55.2192ZM106.384 144.426C107.89 144.426 109.403 144.418 110.909 144.426C111.38 144.426 111.626 144.382 111.336 143.828C111.025 143.23 111.032 142.567 111.278 141.948C111.467 141.473 111.416 141.285 110.866 141.292C107.789 141.307 104.704 141.292 101.627 141.321C100.657 141.328 100.128 141.998 100.179 142.964C100.23 143.864 100.816 144.404 101.859 144.418C103.365 144.447 104.878 144.418 106.384 144.418V144.426ZM133.347 117.034C133.057 117.502 133.159 117.847 133.173 118.172C133.376 123.048 133.593 127.931 133.796 132.808C133.81 133.096 133.984 133.506 133.658 133.65C133.332 133.794 133.144 133.398 132.934 133.197C129.538 130.02 126.157 126.829 122.762 123.646C121.951 122.882 121.856 122.911 121.516 123.941C120.908 125.806 120.264 127.665 119.692 129.545C119.46 130.301 119.221 130.416 118.569 129.905C116.491 128.263 114.363 126.678 112.278 125.05C111.684 124.589 111.416 124.56 111.192 125.403C110.279 128.817 109.309 132.21 108.346 135.609C108.085 136.539 108.006 136.553 107.332 135.898C106.123 134.709 104.921 133.513 103.712 132.332C103.495 132.123 103.321 131.792 102.901 131.828C102.88 132.174 103.104 132.311 103.271 132.476C104.661 133.874 106.051 135.264 107.456 136.647C108.245 137.425 108.274 137.41 108.556 136.38C109.512 132.98 110.453 129.574 111.416 126.174C111.698 125.18 111.713 125.18 112.509 125.792C114.594 127.377 116.694 128.94 118.75 130.56C119.453 131.115 119.684 130.942 119.923 130.179C120.524 128.248 121.198 126.332 121.828 124.409C122.001 123.876 122.204 123.653 122.682 124.164C122.993 124.503 123.355 124.791 123.696 125.108C126.954 128.162 130.205 131.223 133.463 134.277C133.629 134.435 133.781 134.731 134.064 134.608C134.339 134.486 134.208 134.176 134.23 133.946C134.245 133.823 134.23 133.701 134.23 133.578C134.02 128.608 133.81 123.638 133.586 118.669C133.564 118.172 133.615 117.646 133.34 117.034H133.347ZM69.502 140.731C69.9365 141.473 70.3926 142.207 70.7619 142.978C71.0153 143.511 71.4207 143.828 72.0144 143.958C73.4552 144.274 74.8454 144.851 76.3658 144.649C76.5975 144.62 76.822 144.663 76.8509 144.937C76.8799 145.196 76.6772 145.333 76.46 145.376C76.1631 145.434 75.8518 145.47 75.5477 145.456C74.2082 145.405 72.9557 144.952 71.6741 144.635C70.9718 144.462 70.4722 144.051 70.1175 143.432C69.9582 143.151 69.8496 142.783 69.3572 142.755C69.6034 143.129 69.8858 143.41 69.9944 143.741C70.5953 145.643 72.1592 145.873 73.81 145.989C74.1141 146.01 74.4327 145.982 74.7368 146.018C75.2363 146.075 75.8735 145.665 76.1921 146.421C76.2427 146.543 76.402 146.45 76.5106 146.399C77.7777 145.794 78.6538 142.971 77.9514 141.717C77.879 141.581 77.8646 141.321 77.575 141.48C76.5179 142.056 75.3594 141.811 74.2444 141.833C73.5711 141.847 73.0136 141.638 72.5864 141.033C72.1882 140.464 71.5438 140.126 70.8922 139.823C71.2759 140.63 71.7031 141.393 72.1592 142.135C72.2461 142.279 72.4199 142.431 72.5792 142.474C73.9403 142.841 75.2653 143.388 76.7206 143.331C77.003 143.316 77.4084 143.115 77.4591 143.583C77.4953 143.994 77.0754 144.015 76.7858 144.058C76.4889 144.109 76.1631 144.109 75.8735 144.051C74.8743 143.849 73.8897 143.612 72.8977 143.388C72.1303 143.223 71.5438 142.819 71.2035 142.099C70.8705 141.393 70.313 140.954 69.5165 140.723L69.502 140.731ZM88.7539 78.3762C88.7539 79.9896 88.7539 81.4158 88.7539 82.8419C88.7539 83.0508 88.8408 83.1948 89.0798 83.1948C90.7595 83.1948 92.432 83.1948 94.1552 83.1948C94.0828 83.0076 94.0755 82.9283 94.0393 82.8995C92.3451 81.4446 90.6437 79.9968 88.7467 78.3834L88.7539 78.3762ZM149.963 140.471C149.246 139.319 148.892 138.282 148.667 137.194C148.609 136.92 148.53 136.697 148.189 136.841C147.48 137.144 146.749 137.122 146.01 136.971C145.612 136.892 145.503 137.021 145.648 137.41C145.981 138.267 146.3 139.132 146.611 139.996C146.712 140.291 146.879 140.464 147.205 140.464C148.059 140.464 148.921 140.464 149.97 140.464L149.963 140.471ZM148.008 136.092C146.749 135.379 145.387 134.968 145.069 133.42C144.403 133.787 144.041 134.327 143.614 134.803C143.454 134.976 143.382 135.127 143.606 135.343C144.345 136.07 146.901 136.575 148.008 136.099V136.092ZM80.1887 42.4271C81.4485 41.6348 82.6504 38.7969 82.3318 37.486C82.2522 37.1546 82.0929 36.8953 81.7309 36.9097C81.3327 36.9242 81.282 37.2483 81.2458 37.5652C81.101 38.8113 80.8548 40.0358 80.4276 41.217C80.2973 41.5772 80.0511 41.9229 80.1959 42.4271H80.1887ZM148.385 135.473C148.349 134.616 148.327 133.91 148.131 133.233C147.994 132.757 147.625 132.556 147.14 132.563C146.618 132.57 146.191 132.728 145.967 133.276C145.764 133.78 145.967 134.097 146.329 134.385C146.908 134.846 147.552 135.185 148.385 135.473ZM78.842 41.9589C79.2257 41.9589 79.3343 41.7068 79.4357 41.4979C79.9932 40.3527 80.2756 39.1282 80.4204 37.8749C80.4349 37.7525 80.4204 37.63 80.3914 37.5076C80.3118 37.1907 80.1597 36.8953 79.7905 36.9097C79.3633 36.9242 79.3778 37.2843 79.3633 37.594C79.3271 38.2711 79.3271 38.9481 79.2475 39.6108C79.1533 40.3887 78.9868 41.1594 78.842 41.9517V41.9589ZM81.5716 42.5351C82.8966 41.7932 83.8378 40.7632 84.1853 39.2795C84.2577 38.9697 84.2215 38.6456 83.8595 38.5088C83.5265 38.3791 83.3093 38.5592 83.2296 38.8545C82.8748 40.1654 82.1653 41.3179 81.5716 42.5423V42.5351ZM75.497 146.781C75.2581 146.795 75.0191 146.824 74.7802 146.824C73.3249 146.817 71.8551 146.731 70.5736 145.981C69.9365 145.607 69.3645 145.578 68.7056 145.751C70.9139 146.342 73.0353 147.458 75.4898 146.774L75.497 146.781ZM52.8784 133.132C53.0956 133.888 53.6314 133.938 54.2106 133.895C54.4206 133.881 54.5581 133.758 54.5798 133.549C54.6088 133.283 54.3916 133.276 54.2178 133.254C53.7979 133.197 53.3852 133.024 52.8784 133.132Z"
    fill="#605D5D"
  />
  <path
    d="M92.8663 11.664C93.2066 11.8297 93.4528 11.9449 93.699 12.0674C95.7045 13.0758 96.8485 15.1646 96.624 17.3758C96.5082 18.5067 95.6683 19.371 94.4737 19.3998C92.193 19.4502 89.9123 19.4574 87.6316 19.3998C86.3211 19.371 85.474 18.4418 85.4378 17.1309C85.3799 14.7468 86.437 13.0037 88.6018 11.9737C89.0797 11.7433 89.21 11.6424 88.7828 11.1814C87.4578 9.75529 87.494 7.80333 88.7973 6.57886C90.0643 5.3832 92.0699 5.41201 93.3152 6.62928C94.633 7.92578 94.575 9.85612 93.1777 11.3039C93.098 11.3903 93.0184 11.484 92.8591 11.664H92.8663ZM91.049 18.7155C91.5414 18.7155 92.0337 18.7227 92.526 18.7155C93.0473 18.7155 93.5759 18.73 94.0972 18.7155C95.3787 18.6723 95.929 18.0889 95.9145 16.8068C95.8855 14.0698 93.8003 12.161 90.8825 12.197C88.1022 12.233 86.0749 14.2858 86.1401 17.0085C86.1618 18.0529 86.7266 18.6651 87.8054 18.7083C88.8842 18.7516 89.963 18.7155 91.0418 18.7155H91.049ZM93.5179 8.90536C93.5179 7.4648 92.4536 6.39159 91.0128 6.39879C89.5937 6.39879 88.4932 7.51522 88.5004 8.91976C88.5077 10.2595 89.6227 11.3687 90.9839 11.3831C92.4391 11.3975 93.5179 10.3459 93.5179 8.90536Z"
    fill="#605D5D"
  />
  <path
    d="M69.8206 10.8284C73.2814 10.8284 76.735 10.8284 80.1959 10.8284C80.4131 10.8284 80.6303 10.8212 80.8475 10.8284C81.0864 10.8428 81.405 10.8068 81.3905 11.1597C81.3761 11.4406 81.0937 11.419 80.8837 11.4334C80.7027 11.4478 80.5145 11.4334 80.3262 11.4334C73.2887 11.4334 66.2511 11.4334 59.2136 11.4262C58.8371 11.4262 58.1637 11.6639 58.1565 11.1021C58.1565 10.6267 58.8154 10.8284 59.1774 10.8284C62.7251 10.814 66.2801 10.8212 69.8278 10.8212L69.8206 10.8284Z"
    fill="#605D5D"
  />
  <path
    d="M73.4479 15.1357C75.8517 15.1357 78.2555 15.1357 80.652 15.1357C80.9344 15.1357 81.3833 15.0204 81.376 15.4526C81.376 15.8776 80.9126 15.7551 80.6375 15.7551C75.8662 15.7623 71.0876 15.7623 66.3162 15.7551C66.0339 15.7551 65.5633 15.8776 65.5488 15.4814C65.5271 14.9772 66.0339 15.1357 66.3307 15.1357C68.7055 15.1213 71.0731 15.1285 73.4479 15.1285V15.1357Z"
    fill="#605D5D"
  />
  <path
    d="M140.218 39.229C140.761 39.3731 141.087 39.7692 141.101 40.3887C141.101 40.6335 141.022 40.8928 140.725 40.9433C140.392 40.9937 140.298 40.756 140.312 40.4895C140.334 40.1438 140.095 40.0213 139.849 39.8845C139.682 39.7836 139.566 39.6468 139.675 39.4379C139.776 39.2506 139.95 39.2218 140.211 39.2362L140.218 39.229Z"
    fill="#605D5D"
  />
  <path
    d="M31.9467 35.3468C32.2363 35.4188 32.5911 35.3036 32.9676 35.1091C33.8799 34.6409 34.5967 35.0371 34.7342 36.0455C34.8718 37.0395 34.1767 38.0622 33.1124 38.4368C31.9829 38.8329 30.7738 38.4944 30.2453 37.6229C29.9194 37.0827 29.8832 36.5208 30.2235 35.9734C30.5928 35.3828 31.1503 35.2171 31.9395 35.3396L31.9467 35.3468Z"
    fill="#605D5D"
  />
</svg>
