<svg
  width="309"
  height="139"
  viewBox="0 0 309 139"
  fill="none"
  xmlns="http://www.w3.org/2000/svg"
>
  <g clip-path="url(#clip0_338_102)">
    <path
      d="M163.358 40.3364C164.65 38.3642 165.963 36.5749 167.341 34.8213C169.676 31.8528 172.799 30.6379 176.385 30.0228C180.902 29.2502 185.444 28.8436 190.007 28.6453C191.93 28.564 193.913 28.5488 195.704 29.5145C196.187 29.7738 196.487 29.54 196.833 29.2706C200.15 26.668 204 25.1634 207.973 23.9028C208.863 23.6182 209.519 23.9384 210.15 24.5331C212.592 26.8307 214.713 29.4078 216.859 31.9697C217.241 32.4221 217.551 32.9405 218.187 33.0879C219.204 33.3218 219.947 33.9114 220.384 34.8467C220.705 35.538 221.091 35.4821 221.686 35.1567C227.18 32.1527 233.086 30.4651 239.291 29.7839C241.865 29.4993 243.829 30.8412 245.166 33.52C246.545 36.2852 247.348 39.1876 247.649 42.2324C247.75 43.2947 248.315 44.0318 248.971 44.7536C249.709 45.5719 250.492 46.3446 251.214 47.1731C252.349 48.4744 252.435 49.1402 251.387 50.5381C250.706 51.4479 250.604 52.246 250.889 53.3439C251.519 55.7635 251.794 58.2491 251.581 60.7601C251.423 62.6154 250.024 63.8455 247.806 63.9929C245.99 64.1149 244.154 64.1708 242.364 63.7642C241.565 63.5863 241.143 63.7388 241.056 64.5877C240.68 68.1153 240.298 71.6429 239.917 75.1706C239.851 75.7653 240.019 76.2533 240.527 76.604C245.634 80.1927 248.991 85.296 252.405 90.3435C253.137 91.4313 253.885 92.5089 254.592 93.6119C255.106 94.4151 255.431 94.4354 255.802 93.4899C257.522 89.1287 259.282 84.7776 261.021 80.4214C261.367 79.5573 261.621 78.6423 262.837 78.6017C263.315 78.5864 263.448 78.073 263.615 77.6816C264.719 75.074 265.828 72.4664 266.917 69.8537C267.11 69.3911 267.298 68.893 267.319 68.3999C267.43 66.0973 268.57 64.4402 270.411 63.1441C273.036 61.2887 275.625 59.3775 278.25 57.5273C278.753 57.1715 279.313 56.409 280.005 57.0952C280.737 57.8221 280.854 58.7625 280.208 59.6368C279.359 60.7855 278.448 61.8885 277.344 63.2915C279.501 63.1034 281.312 62.8086 282.98 61.8886C283.26 61.7361 283.321 61.426 283.377 61.1261C283.596 60.0282 284.094 59.159 285.234 58.7625C285.752 58.5795 285.956 58.0813 286.154 57.6086C286.444 56.9173 286.953 56.4293 287.614 56.0837C288.367 55.6923 288.977 55.7431 289.11 56.6937C289.267 57.8475 289.695 57.2782 290.107 56.897C290.788 56.2718 291.521 55.8092 292.507 56.0989C293.525 56.3988 293.784 57.0393 293.164 57.8933C292.172 59.2606 291.139 60.6025 290.132 61.9597C289.481 62.8391 288.774 63.688 288.713 64.8723C288.682 65.3959 288.28 65.7669 287.924 66.138C286.688 67.4138 285.295 68.5779 284.277 70.0113C282.812 72.075 280.803 72.8019 278.473 73.1323C275.02 73.6203 275.015 73.6457 274.15 77.0259C273.626 79.0744 273.163 81.133 272.598 83.1713C272.395 83.9033 272.67 84.3658 273.214 84.6556C275.589 85.9162 275.498 87.6952 274.765 89.9877C272.39 97.3886 270.248 104.861 267.919 112.277C267.512 113.578 267.893 114.447 268.748 115.19C270.472 116.684 272.288 118.072 274.058 119.52C274.735 120.074 275.518 120.1 276.337 120.1C286.419 120.1 296.5 120.1 306.577 120.1C306.745 120.1 306.918 120.079 307.086 120.1C307.442 120.14 307.981 120.013 307.976 120.537C307.971 120.949 307.467 120.893 307.142 120.903C306.379 120.923 305.616 120.913 304.853 120.913C282.914 120.913 260.97 120.918 239.032 120.923C238.442 120.923 237.867 120.898 237.313 121.228C233.905 123.231 230.212 123.256 226.468 122.646C225.181 122.438 223.879 122.123 222.663 121.655C221.407 121.172 220.211 121.177 218.95 121.477C213.843 122.682 208.705 123.729 203.558 124.72C198.578 125.681 193.563 126.398 188.517 126.921C185.632 127.221 183.069 126.596 180.77 124.847C180.027 124.283 179.183 123.826 178.542 123.17C176.65 121.223 174.386 120.847 171.751 120.883C162.01 121.005 152.264 121.035 142.528 120.877C138.622 120.811 134.873 121.31 131.185 122.474C129.766 122.921 128.311 123.175 126.846 123.414C126.49 123.47 125.987 123.409 125.875 123.846C125.783 124.212 126.236 124.375 126.47 124.598C127.08 125.178 127.782 125.671 128.281 126.372C128.825 127.14 128.957 127.948 128.332 128.71C127.696 129.483 126.857 129.737 125.951 129.234C125.198 128.812 124.466 128.832 123.637 128.914C120.839 129.188 118.448 128.151 116.281 126.459C115.02 125.473 113.723 124.532 112.405 123.627C111.785 123.206 111.195 122.728 110.996 122.047C110.701 121.02 110.03 120.938 109.16 120.938C99.3786 120.949 89.592 120.938 79.8104 120.938C72.3534 120.938 64.9015 120.938 57.4445 120.938C55.9592 120.938 55.8168 121.055 56.5595 122.291C58.3144 125.229 58.6602 128.482 58.94 131.765C59.0214 132.731 59.2147 133.692 59.2808 134.658C59.3825 136.091 58.6755 136.732 57.3682 136.193C56.2899 135.75 55.9999 136.122 55.6795 137.026C55.2675 138.19 54.3417 138.739 53.1057 138.699C51.3609 138.638 49.7536 138.597 48.0597 137.545C46.7677 136.742 45.5164 135.862 44.2549 135.008C42.1694 133.595 42.1084 131.389 42.0829 129.224C42.0524 126.987 42.1033 124.741 42.2355 122.504C42.3068 121.284 41.9253 120.893 40.6841 120.898C31.1569 120.938 21.6246 120.918 12.0922 120.918C11.4971 120.918 10.907 120.918 10.3119 120.888C10.0627 120.877 9.74221 120.811 9.76255 120.496C9.77781 120.196 10.0932 120.146 10.3475 120.13C10.6832 120.105 11.024 120.11 11.3648 120.11C15.429 120.11 19.4983 120.09 23.5626 120.11C24.5595 120.115 24.9207 119.973 24.5087 118.824C23.9542 117.279 24.2035 115.637 24.646 114.081C25.3683 111.55 26.4416 109.161 27.8353 106.919C28.0337 106.599 28.2219 106.264 28.3745 105.913C28.8221 104.871 28.4559 104.342 27.3063 104.342C21.2481 104.342 15.1951 104.347 9.1369 104.342C6.81231 104.342 4.48773 104.307 2.15806 104.297C0.993219 104.307 0.784668 103.585 0.784668 102.624C0.794841 97.1294 0.784668 91.6295 0.784668 86.1348C0.784668 85.7129 0.784668 85.291 0.784668 84.864C0.794841 83.0595 1.01865 82.8206 2.84475 82.8206C13.2621 82.8206 23.6846 82.8206 34.102 82.8206C37.1489 82.8206 40.2009 82.785 43.2478 82.8257C44.2397 82.8409 44.9569 82.3631 45.8064 81.9768C48.3751 80.7924 48.9906 78.3475 50.013 76.1364C50.2317 75.6636 50.1452 75.2265 49.9367 74.7944C49.4382 73.7677 48.9244 72.7511 48.431 71.7243C48.1259 71.0889 47.8308 71.1245 47.2713 71.521C45.6538 72.6646 44.0413 73.849 42.0524 74.3166C40.0432 74.7894 38.9801 74.337 37.861 72.6087C36.5131 70.5247 35.7552 68.1865 34.9973 65.8635C34.687 64.9079 34.219 64.2522 33.3238 63.7845C31.752 62.9712 31.5943 62.5239 31.9911 60.8465C32.0877 60.4348 32.1386 60.0078 32.2861 59.6164C33.1915 57.2121 33.0745 54.9451 32.0013 52.5306C30.7449 49.7095 30.638 46.619 31.0653 43.559C31.284 41.9782 32.22 40.8091 33.6697 40.1941C39.2853 37.7948 45.0891 36.1784 51.2643 36.4021C56.0305 36.5749 59.586 39.9602 60.2524 44.8349C60.7356 48.3422 60.5728 51.8444 60.1557 55.3365C59.642 59.6469 60.7101 63.6371 62.3786 67.5358C62.6532 68.1763 63.0602 68.2729 63.7011 68.0187C68.2129 66.1939 72.7349 64.3996 77.2518 62.5951C77.4807 62.5036 77.8012 62.4528 77.8012 62.1529C77.8012 61.8784 77.5265 61.7513 77.2976 61.6344C76.499 61.243 75.6902 60.8719 74.9069 60.4551C74.2507 60.1095 73.7166 60.3433 73.1215 60.6585C72.0431 61.2328 71.6464 61.0143 71.2751 59.8502C70.5222 57.512 70.0034 55.123 69.4846 52.7238C69.3015 51.88 69.4642 51.1379 69.922 50.4313C70.7511 49.1352 71.7939 48.022 72.9231 47.0053C73.5844 46.4106 73.559 45.943 73.0656 45.2873C71.6667 43.432 70.3035 41.5461 68.9301 39.6705C68.3248 38.8369 67.8365 37.9575 67.9077 36.8748C67.9484 36.2953 68.157 35.782 68.6911 35.5126C69.2099 35.2482 69.5863 35.6498 69.9322 35.9294C73.3758 38.7352 76.8093 41.5512 80.2479 44.3672C81.9824 45.7854 83.6966 47.2341 85.4616 48.6116C86.2399 49.2216 86.6367 49.9891 86.9368 50.9041C87.6642 53.1101 88.4678 55.2907 89.2359 57.4815C89.6123 58.5541 90.2431 59.042 91.4995 59.0217C96.3674 58.9404 101.24 58.981 106.113 59.0065C106.988 59.0065 107.634 58.793 108.184 58.0661C109.155 56.775 110.493 55.9414 112.065 55.5805C115.447 54.7977 118.865 54.2233 122.289 53.6489C124.079 53.349 125.855 52.9576 127.64 52.6171C128.301 52.49 128.525 52.0427 128.566 51.4327C128.662 50.0399 128.754 48.6523 128.871 47.2595C128.952 46.2734 128.53 45.9227 127.589 46.187C126.445 46.5123 125.27 46.7055 124.084 46.7614C118.494 47.0257 117.406 44.8146 116.709 40.5804C115.681 34.313 116.175 28.015 116.755 21.7375C117.304 15.7547 121.165 11.9119 127.345 10.8241C132.915 9.8431 138.296 10.3972 143.536 12.4965C147.015 13.8943 148.856 16.446 149.289 20.1668C149.634 23.1404 149.156 26.0784 149.166 29.0317C149.166 30.0686 149.441 30.4752 150.514 30.6887C155.962 31.7816 160.118 34.7247 162.87 39.5841C162.992 39.7976 163.139 39.9907 163.368 40.3415L163.358 40.3364ZM219.275 120.588C218.98 120.278 218.894 120.115 218.762 120.054C213.395 117.543 208.599 114.158 204.051 110.406C203.507 109.954 202.886 109.801 202.195 109.7C199.768 109.344 197.352 108.937 194.941 108.51C194.183 108.378 193.446 108.297 192.677 108.419C191.004 108.678 189.325 108.897 187.652 109.12C187.291 109.171 186.772 109.359 186.716 108.826C186.665 108.358 187.199 108.261 187.565 108.271C188.939 108.302 190.216 107.728 191.574 107.707C192.652 107.692 192.688 107.285 192.103 106.477C188.155 101.018 183.954 95.7671 178.989 91.1873C174.696 87.2276 170.083 83.7101 164.167 82.5309C162.066 82.114 159.818 81.7176 157.814 82.724C153.948 84.6657 151.435 89.9674 151.857 94.2524C152.178 97.5005 153.78 100.154 155.235 102.909C155.525 103.463 155.962 103.783 156.634 103.859C159.579 104.175 162.519 104.535 165.464 104.876C166.924 105.044 168.246 105.537 169.442 106.401C172.916 108.907 174.371 112.648 175.164 116.547C175.683 119.093 176.578 121.05 178.811 122.367C179.427 122.733 180.037 123.139 180.561 123.622C183.598 126.443 187.265 126.316 190.973 125.839C196.304 125.152 201.61 124.314 206.869 123.185C210.913 122.316 214.967 121.487 219.275 120.588ZM201.935 44.3672C202.271 46.4716 201.955 48.3371 200.302 49.4096C198.853 50.35 198.873 51.5039 199.015 52.8661C199.061 53.288 199.112 53.7048 199.173 54.1216C199.656 57.4866 199.575 60.8669 199.458 64.2471C199.407 65.7822 198.69 66.8649 197.133 67.3579C195.638 67.8307 194.153 68.339 192.566 68.344C191.68 68.3491 191.34 68.649 191.528 69.5741C191.777 70.8144 191.904 72.0801 192.108 73.3305C192.316 74.6267 194.631 76.6803 195.923 76.7768C198.202 76.9497 200.485 77.0615 202.749 77.3563C205.486 77.7121 208.105 78.4339 210.501 79.9385C212.617 81.2652 214.296 83.0341 216.045 84.7471C217.19 85.8653 217.281 85.8704 217.958 84.4777C219.764 80.7467 221.768 77.1276 223.802 73.5186C225.791 69.9859 227.816 66.4684 229.062 62.5748C229.464 61.3243 229.418 61.1871 228.187 61.0549C225.746 60.7855 223.579 59.8757 221.951 58.0102C219.006 54.6401 216.915 50.7617 216.132 46.3547C215.791 44.4384 215.481 42.9999 213.324 42.4916C212.658 42.334 212.546 42.3086 212.464 42.944C212.286 44.3723 212.149 45.8057 212.261 47.2443C212.632 51.9562 210.496 55.3721 206.737 57.939C206.147 58.3457 205.496 59.1945 204.748 58.5693C204.107 58.0356 204.702 57.2274 204.901 56.5666C206.269 52.0376 206.076 47.8695 201.935 44.3672ZM115.29 60.2874C115.051 59.8757 114.715 60.018 114.45 60.018C105.478 60.0027 96.5047 59.9977 87.5319 59.9977C86.7638 59.9977 86.0263 60.1756 85.3091 60.4602C80.2784 62.4426 75.2325 64.3945 70.2069 66.3871C64.6675 68.5829 59.1079 70.7382 53.8686 73.6101C51.2694 75.0333 49.9723 77.3817 49.5908 80.274C49.4992 80.9449 49.6518 81.5041 50.1554 81.9971C55.2268 86.9633 60.2981 91.9345 65.3492 96.9261C65.9697 97.5361 66.3461 97.5462 66.7632 96.7482C68.8691 92.7021 70.9902 88.6661 73.1164 84.6302C73.5081 83.883 73.3606 83.3645 72.5925 82.9832C71.799 82.5919 71.0004 82.1954 70.2476 81.7277C69.5202 81.2753 68.9403 81.3618 68.3096 81.9107C67.5771 82.5461 66.7836 83.1154 66.0104 83.7C65.7764 83.8728 65.4865 84.1066 65.222 83.827C64.8964 83.4814 65.222 83.2171 65.4458 82.968C65.5577 82.846 65.6849 82.7291 65.8171 82.6274C71.4938 78.2916 77.0891 73.8541 82.9539 69.7775C84.2612 68.8676 85.543 67.9018 87.2013 67.5917C89.592 67.1444 91.8301 67.8052 94.0529 68.4101C96.9015 69.1827 99.7754 68.8015 102.639 68.832C103.229 68.8371 103.86 68.3898 103.534 67.6375C103.005 66.4226 100.513 65.8737 99.4549 66.6463C99.1243 66.8903 98.7682 67.546 98.3308 66.9767C98.0053 66.5599 98.5851 66.2651 98.87 65.9804C98.987 65.8635 99.1345 65.7669 99.2667 65.6602C103.041 62.6663 107.126 60.5517 112.161 60.9634C113.219 61.0498 114.323 60.9075 115.29 60.2925V60.2874ZM107.451 65.5839C107.237 65.6297 107.126 65.6144 107.08 65.6653C106.556 66.2193 106.027 66.7632 105.533 67.3376C102.395 70.9771 99.5872 74.8148 98.1579 79.4861C97.283 82.353 98.1579 84.4421 100.894 85.5909C103.036 86.4906 105.254 87.1209 107.583 87.4716C110.315 87.8884 113.072 87.8223 115.798 88.168C116.246 88.2239 116.851 88.1578 116.963 88.7119C117.075 89.2608 116.5 89.4692 116.103 89.6726C114.226 90.6333 112.405 91.721 110.274 92.1023C109.033 92.3259 107.822 92.6868 106.23 93.0782C108.438 94.2575 110.208 95.4622 111.536 97.2107C112.868 98.9644 113.728 100.906 114.064 103.087C114.135 103.565 114.476 103.798 114.979 103.773C117.736 103.626 120.325 103 122.584 101.308C123.362 100.723 123.611 100.078 123.357 99.122C122.767 96.921 122.248 94.6946 121.709 92.4784C121.16 90.2114 120.508 87.9342 122.457 85.9518C123.408 84.9809 123.581 83.9541 122.747 82.8003C122.513 82.48 122.263 81.9412 122.813 81.7227C123.357 81.5041 123.459 82.0835 123.632 82.4546C124.461 84.2134 125.875 84.9809 127.737 84.6403C129.705 84.2845 131.216 83.1612 132.457 81.6515C132.854 81.1686 132.94 80.5891 132.823 79.9741C132.187 76.6396 130.468 75.5315 127.223 76.36C127.182 76.3702 127.141 76.3804 127.101 76.3956C126.195 76.7311 125.595 76.36 124.842 75.7806C122.818 74.2201 122.182 71.5972 119.868 70.1129C118.184 69.0353 116.938 67.1394 114.923 66.3108C114.674 66.2092 114.476 66.0211 114.603 65.7212C114.73 65.4264 115.015 65.4213 115.254 65.528C115.91 65.8178 116.612 66.0567 117.187 66.4684C118.092 67.119 118.911 67.9018 119.766 68.6236C119.71 67.912 119.466 67.302 119.242 66.687C118.993 66.016 118.733 65.345 118.52 64.6588C117.96 62.8764 116.755 61.997 114.903 62.0207C113.677 62.036 112.446 62.0614 111.22 62.0817C110.763 62.0919 110.391 62.2799 110.178 62.6815C110.071 62.8848 110.162 63.078 110.35 63.2305C110.732 63.5355 111.632 63.6575 111.195 64.3284C110.824 64.8926 110.213 64.2674 109.72 64.0946C109.638 64.0692 109.557 64.0489 109.476 64.0336C109.048 63.9574 108.565 63.8709 108.351 64.3488M123.876 127.831C121.76 126.753 122.833 125.778 123.464 124.797C123.672 124.476 123.901 124.171 124.084 123.841C124.532 123.028 125.193 122.692 126.134 122.601C127.345 122.479 128.566 122.235 129.731 121.874C134.085 120.532 138.49 119.973 143.073 120.054C153.104 120.227 163.139 120.1 173.175 120.09C174.839 120.09 174.925 119.968 174.691 118.341C174.361 116.069 173.643 113.888 172.702 111.825C170.444 106.874 167.158 105.135 161.786 105.877C159.726 106.162 157.778 106.909 155.769 107.397C149.772 108.846 143.775 110.34 137.905 112.201C134.029 113.431 130.346 113.385 126.475 112.45C123.438 111.713 120.3 111.489 117.156 111.56C115.803 111.591 114.649 112.023 113.926 113.227C112.604 115.439 111.856 117.843 111.597 120.4C111.546 120.913 111.566 121.416 111.917 121.848C112.126 122.108 112.288 122.494 112.665 122.458C113.097 122.413 113.062 121.97 113.143 121.66C113.784 119.286 114.649 116.999 115.691 114.778C115.869 114.402 116.058 113.832 116.551 114.071C117.075 114.33 116.658 114.818 116.49 115.169C115.524 117.192 114.872 119.337 114.135 121.447C113.738 122.585 113.784 123.607 114.822 124.405C115.376 124.832 115.763 124.944 115.925 124.049C116.114 123.012 116.322 121.97 116.658 120.974C117.151 119.495 117.752 118.046 118.336 116.603C118.464 116.282 118.621 115.759 119.115 115.977C119.593 116.191 119.267 116.643 119.181 116.984C119.13 117.187 119.013 117.37 118.942 117.568C118.331 119.236 117.706 120.893 117.121 122.57C116.78 123.546 116.739 124.573 116.978 125.569C117.136 126.235 117.675 126.748 118.326 126.733C118.886 126.723 118.784 126.006 118.871 125.589C119.278 123.678 119.929 121.848 120.712 120.069C120.915 119.607 121.048 118.626 121.795 118.992C122.37 119.271 121.785 119.993 121.566 120.445C120.773 122.092 120.285 123.841 119.822 125.595C119.481 126.881 119.888 127.658 120.941 127.872C121.755 128.039 122.589 128.019 123.866 127.826L123.876 127.831ZM173.847 60.8516H173.867C174.015 64.4403 174.188 68.0289 174.284 71.6175C174.31 72.5325 174.874 72.8476 175.515 73.1882C179.351 75.2468 183.191 77.2902 187.006 79.3895C187.708 79.7758 188.079 79.6437 188.44 79.0236C189.203 77.707 190.017 76.421 190.739 75.0842C191.609 73.4779 191.243 72.7409 189.514 72.2021C185.928 71.0889 183.059 68.9235 180.668 66.077C180.409 65.7669 180.042 65.3755 180.419 64.9638C180.765 64.5826 181.105 64.9638 181.426 65.1417C186.375 67.9425 191.533 68.1661 196.859 66.4226C197.754 66.1278 198.217 65.6043 198.39 64.6385C199.188 60.2671 198.298 55.9719 197.901 51.6513C197.866 51.2904 197.718 50.9956 197.306 50.9396C196.874 50.8786 196.609 51.0565 196.411 51.4632C195.872 52.5713 194.783 53.1609 193.934 53.9742C193.695 54.203 193.334 54.4317 193.059 54.0403C192.85 53.7404 193.1 53.4913 193.339 53.2931C193.822 52.8814 194.285 52.4493 194.783 52.0579C195.343 51.6157 195.49 51.1938 194.997 50.5737C194.127 49.4859 193.318 48.3473 192.469 47.2392C192.245 46.9494 192.042 46.5326 191.589 46.6292C191.096 46.7309 191.207 47.2239 191.116 47.5696C190.531 49.8315 189.107 51.3158 186.823 51.7428C184.6 52.1545 182.784 51.2497 181.319 49.557C180.831 48.9928 180.846 47.8339 180.068 47.8288C179.356 47.8237 178.633 48.4642 177.921 48.8353C176.219 49.7197 174.696 49.513 173.353 48.2151C172.814 47.6966 172.306 47.0562 171.426 47.1477C167.936 47.5137 166.252 50.2839 167.605 53.4253C167.641 53.5015 167.677 53.5777 167.717 53.654C169.421 57.0901 170.952 57.6391 174.478 56.0786C174.696 55.982 174.956 55.7533 175.149 56.043C175.347 56.348 175.149 56.6581 174.9 56.8055C173.735 57.4917 173.781 58.5846 173.847 59.7028C173.867 60.0841 173.847 60.4653 173.847 60.8465V60.8516ZM93.8139 120.151C96.7743 120.151 99.7398 120.156 102.7 120.146C103.163 120.146 103.896 120.293 103.646 119.434C103.361 118.433 103.087 117.502 101.617 117.467C98.402 117.39 95.4365 116.415 93.0458 114.168C87.6794 109.131 87.6184 101.155 92.8525 95.8485C93.8647 94.8217 93.8393 94.7353 92.6287 94.0643C88.2644 91.6499 83.9051 89.2303 79.551 86.8006C77.6995 85.7688 77.6689 85.7484 76.7381 87.6393C73.7777 93.617 70.863 99.6099 67.8721 105.572C67.4041 106.508 67.5873 106.975 68.3859 107.545C72.8265 110.706 77.2315 113.919 81.6569 117.106C81.957 117.324 82.3181 117.69 82.6589 117.528C83.0709 117.329 82.781 116.852 82.7607 116.496C82.7352 116.12 82.6538 115.744 82.6284 115.362C82.6131 115.108 82.6437 114.803 82.959 114.773C83.2947 114.737 83.3456 115.042 83.3812 115.291C83.5593 116.547 83.7729 117.797 83.8746 119.058C83.9458 119.932 84.3528 120.186 85.1819 120.176C88.0609 120.14 90.9399 120.161 93.8139 120.166V120.151ZM190.806 86.9125C190.546 87.3852 190.826 87.7054 190.958 88.046C191.864 90.3232 192.769 92.5953 193.69 94.8674C194.804 97.6072 195.938 100.337 197.042 103.077C197.489 104.185 198.42 103.956 199.204 103.783C200.17 103.575 199.748 102.787 199.575 102.233C199.193 101.023 198.71 99.8539 198.324 98.6442C197.861 97.1904 198.069 96.8803 199.611 96.6668C202.25 96.3009 204.896 96.001 207.53 95.6045C208.471 95.4622 208.95 95.7773 209.224 96.6567C209.641 97.9834 210.125 99.2948 210.593 100.606C211.264 102.492 211.722 102.7 213.665 102.218C214.463 102.019 214.611 101.724 214.209 101.003C213.161 99.122 212.159 97.2107 211.152 95.3097C210.521 94.1152 209.901 92.9156 209.285 91.7109C209.158 91.4618 208.919 91.1365 209.301 90.9535C209.631 90.7908 209.83 91.0958 209.987 91.3601C210.14 91.6143 210.298 91.8634 210.435 92.1226C211.696 94.5116 212.958 96.9007 214.204 99.2948C215.187 101.182 216.727 102.018 218.823 101.801C218.863 101.801 218.909 101.791 218.95 101.785C223.752 101.394 228.284 102.263 232.506 104.627C232.76 104.769 232.979 105.14 233.386 104.866C233.325 104.739 233.294 104.612 233.218 104.52C226.62 96.7431 219.606 89.3625 212.261 82.292C210.801 80.8839 209 79.8978 207.047 79.232C203.715 78.0934 200.236 78.0578 196.787 77.7528C195.47 77.6359 194.961 78.1798 194.712 79.3539C194.229 81.6667 193.44 83.9033 192.988 86.2262C192.866 86.8413 192.881 87.7257 192.194 88.0002C191.35 88.3357 191.518 87.0649 190.795 86.9175L190.806 86.9125ZM117.467 25.1889C117.314 28.01 117.141 33.9876 117.258 36.6766C117.35 38.8267 117.538 40.9768 118.275 43.0304C118.632 44.0165 119.064 44.9315 120.132 45.2974C121.46 45.7498 122.818 46.0396 124.237 45.8566C128.352 45.333 132.198 43.9504 135.916 42.1764C136.277 42.0036 136.679 41.5919 137.035 42.0697C137.35 42.4916 136.969 42.8728 136.709 43.1931C135.244 44.9925 133.428 46.3446 131.343 47.3561C131.023 47.5086 130.483 47.5289 130.514 48.0067C130.544 48.4947 131.063 48.6319 131.45 48.7387C134.751 49.6892 137.986 49.3791 141.109 48.0321C142.691 47.351 143.002 46.7868 142.762 45.0382C142.34 41.9426 141.796 38.8623 141.374 35.7667C141.252 34.8924 141.043 34.3739 140.031 34.3485C139.375 34.3333 138.698 34.1096 138.139 33.6928C137.783 33.4285 137.132 33.215 137.467 32.6762C137.778 32.1781 138.195 32.7016 138.541 32.8897C140.362 33.8809 142.366 33.4285 143.607 31.7613C144.482 30.5871 144.94 29.2604 145.219 27.8219C145.453 26.6121 145.051 25.7836 144.146 25.0618C141.613 23.0438 140.255 23.0794 138.174 25.4786C137.249 26.541 136.297 26.9578 134.954 26.5511C134.186 26.3173 133.347 26.2563 132.635 25.9208C130.27 24.7975 128.001 23.3895 125.188 24.2129C124.919 24.2942 124.547 24.1773 124.537 23.791C124.527 23.3996 124.903 23.359 125.178 23.3132C125.778 23.2115 126.384 23.1505 127.355 23.0286C124.679 21.1377 122.558 19.1654 120.544 17.0661C119.71 16.1969 119.288 16.2681 118.825 17.3711C118.169 18.9367 117.731 20.5684 117.69 22.2813C117.68 22.7592 117.67 23.1658 118.214 23.4403C118.865 23.7707 118.687 24.1519 118.097 24.3756C117.706 24.523 117.37 24.706 117.462 25.1736M43.4716 83.8728C42.9884 83.8474 42.6984 83.822 42.4085 83.8169C29.3257 83.8169 16.2429 83.8169 3.16012 83.7915C2.07158 83.7915 1.78165 84.2083 1.78673 85.2147C1.81725 90.6688 1.79691 96.123 1.80199 101.577C1.80199 103.31 1.85286 103.361 3.57722 103.361C11.2835 103.361 18.9897 103.351 26.6959 103.371C27.6624 103.371 28.5271 103.366 29.0459 102.329C29.3003 101.826 29.87 101.587 30.4448 101.582C31.1772 101.577 31.6096 101.176 31.9758 100.621C32.6727 99.5642 33.3543 98.4917 34.0919 97.4598C34.7633 96.5194 34.3615 96.3161 33.4306 96.3212C30.638 96.3314 27.8404 96.3263 25.0479 96.3212C24.5392 96.3212 24.0305 96.306 23.527 96.2755C23.3082 96.2653 23.0895 96.1636 23.0488 95.9298C22.9979 95.6299 23.2116 95.452 23.4761 95.4012C23.766 95.3453 24.061 95.3249 24.3561 95.3198C26.935 95.2639 29.5139 95.4113 32.0928 95.4266C34.2852 95.4368 36.1214 95.269 37.0625 92.9765C37.1998 92.6411 37.7186 92.4022 37.5406 92.0158C37.332 91.5584 36.7929 91.7261 36.3859 91.7261C32.4896 91.716 28.5932 91.7312 24.702 91.7109C24.1577 91.7109 23.1861 91.9701 23.1811 91.2941C23.1811 90.4706 24.1679 90.7654 24.7325 90.7654C28.9239 90.7349 33.1152 90.7451 37.3066 90.7451C37.8967 90.7451 38.4867 90.7807 38.9038 90.2012C40.3738 88.1426 41.8591 86.0992 43.4665 83.8779L43.4716 83.8728ZM35.2262 51.4022C35.0888 51.4022 34.7073 51.3768 34.3309 51.4022C32.5862 51.5394 32.4692 51.6106 33.2119 53.1711C34.0919 55.0112 34.1631 56.7953 33.4713 58.671C33.2526 59.2606 33.1559 59.896 32.9626 60.5009C32.576 61.7157 32.7744 62.6612 34.0664 63.1746C35.0075 63.5507 35.4551 64.2776 35.7857 65.218C36.5334 67.3681 37.1235 69.5792 38.2883 71.5718C39.4735 73.5999 40.5214 74.0269 42.7035 73.1475C45.6232 71.9733 48.0038 70.0214 50.13 67.7442C50.7912 67.0377 51.3508 66.2346 51.9561 65.4721C52.1646 65.2078 52.3783 64.8672 52.7699 65.0197C53.1565 65.1722 53.1107 65.5687 53.0548 65.9042C53.0192 66.1075 52.9174 66.3006 52.8411 66.4938C52.0324 68.4406 51.2541 70.4078 50.3894 72.3292C50.0435 73.0967 50.2521 73.6711 50.7658 74.154C51.366 74.7182 51.6153 73.9506 51.9968 73.7219C52.3986 73.4881 52.775 73.2136 53.1667 72.9645C55.649 71.4091 58.3652 70.3315 61.0357 69.1675C61.7478 68.8574 61.8496 68.527 61.5545 67.8154C60.8933 66.2193 60.232 64.6029 59.7844 62.9407C59.5351 62.0156 59.1079 61.6598 58.2482 61.609C57.3886 61.5582 56.5696 61.3548 55.8423 60.8872C54.5604 60.0587 53.3803 58.9861 51.6356 59.4741C51.2948 59.5707 50.7505 59.4029 50.7658 58.9505C50.7862 58.3304 51.3711 58.4931 51.7526 58.5286C52.7496 58.61 53.594 58.3253 54.2705 57.5883C55.3794 56.3785 55.5523 52.7695 54.5859 51.4429C54.3214 51.082 53.95 50.9041 53.538 50.7719C50.8116 49.9078 49.5145 50.594 48.6956 53.3439C48.3242 54.5944 47.8664 54.7672 46.7779 54.0759C45.0586 52.983 45.0128 51.3056 45.257 49.5723C45.3943 48.5963 45.4808 47.6458 45.1858 46.6902C44.6822 45.0687 44.1125 44.9213 42.9629 46.1056C41.1623 47.966 38.9954 48.022 37.4185 46.3191C36.8895 45.7498 36.9455 44.5807 36.2181 44.5147C35.5212 44.4537 34.7786 45.1297 34.0257 45.394C31.5486 46.2632 31.5435 46.2429 32.0114 48.9013C32.0725 49.2317 32.1844 49.5621 32.1996 49.8976C32.2505 50.7973 32.5252 51.0515 33.4713 50.6753C35.216 49.984 36.9709 50.35 38.6749 50.9549C38.9954 51.0667 39.387 51.2955 39.2853 51.6614C39.1378 52.1952 38.6393 51.9766 38.3239 51.8495C37.4033 51.4886 36.4622 51.2853 35.2262 51.392V51.4022ZM105.208 92.5801C105.076 92.3869 105.035 92.2446 104.938 92.1988C102.609 91.0501 102.604 91.0145 104.664 89.4692C104.73 89.4184 104.806 89.3777 104.872 89.3218C105.162 89.0778 105.503 88.8389 105.437 88.3967C105.366 87.9291 104.928 87.8274 104.577 87.7715C103.306 87.5682 102.166 86.9938 100.976 86.5668C97.6645 85.3723 96.4742 83.1205 97.2474 79.7098C97.9697 76.5074 99.6788 73.8032 101.495 71.1448C101.724 70.8093 102.181 70.484 101.952 70.0469C101.769 69.6961 101.256 69.7215 100.9 69.7673C97.283 70.2095 93.8597 69.2641 90.3957 68.4559C88.6815 68.0543 86.9469 68.2119 85.3854 69.2234C81.4127 71.8056 77.613 74.6267 73.8743 77.5291C73.5742 77.7629 73.2487 78.0069 73.2538 78.4339C73.2792 79.8368 73.5284 81.2245 73.9761 82.5309C74.2558 83.3492 75.2884 83.5271 76.0158 83.9338C81.8094 87.1666 87.6184 90.3689 93.407 93.6221C94.2971 94.1202 95.0143 94.1762 95.9808 93.7034C98.3817 92.5394 100.92 91.9904 103.606 92.6055C104.084 92.7173 104.592 92.8596 105.213 92.5801H105.208ZM221.956 102.512C217.231 102.578 213.873 102.96 210.521 103.422C208.532 103.697 208.405 103.783 208.126 105.771C207.886 107.484 207.658 109.202 207.332 110.899C207.19 111.636 207.378 112.099 207.963 112.516C213.95 116.77 220.038 120.791 227.531 121.919C231.305 122.489 234.861 122.062 238.009 119.698C239.815 118.341 240.293 116.872 239.688 114.707C238.64 110.935 236.26 108.129 233.121 105.979C229.377 103.412 225.145 102.39 221.951 102.512H221.956ZM42.9833 127.094C42.9833 128.238 42.9629 129.254 42.9884 130.271C43.0189 131.298 43.2986 132.274 43.7564 133.189C43.904 133.483 44.0566 133.91 44.4431 133.839C44.8755 133.758 44.7432 133.29 44.7483 132.98C44.7789 131.796 44.7585 130.612 44.7992 129.427C44.8145 128.949 44.7076 128.207 45.3791 128.222C45.9895 128.238 45.7809 128.949 45.7911 129.376C45.8318 131.064 45.8521 132.757 45.847 134.444C45.847 135.186 46.2489 135.654 46.8288 135.949C47.3832 136.233 47.9631 136.289 47.8563 135.344C47.6528 133.565 47.897 131.796 48.0394 130.032C48.0699 129.661 47.8664 129.026 48.4921 129.061C48.9601 129.087 48.8431 129.661 48.8431 130.022C48.8431 131.715 48.8024 133.402 48.8024 135.095C48.8024 135.557 48.8329 136.03 48.9397 136.477C49.1788 137.433 49.9011 137.692 50.7912 137.626C51.8035 137.555 51.5339 136.757 51.5441 136.183C51.5695 134.663 51.5441 133.138 51.539 131.618C51.539 131.323 51.5339 131.023 51.5491 130.728C51.5644 130.434 51.5695 130.068 51.9408 130.027C52.3783 129.986 52.4851 130.357 52.5258 130.708C52.5614 131.044 52.5614 131.384 52.5614 131.72C52.5716 133.412 52.5919 135.105 52.5817 136.793C52.5766 137.835 53.1311 137.911 53.9043 137.606C54.8402 137.24 55.003 136.36 55.1403 135.532C55.4608 133.616 55.6947 131.684 55.7354 129.732C55.7456 129.351 55.6693 128.716 56.2543 128.766C56.7782 128.812 56.6612 129.417 56.6714 129.824C56.6765 130.073 56.6205 130.327 56.6052 130.581C56.5391 131.633 56.4781 132.691 56.412 133.743C56.3611 134.602 56.7324 135.207 57.6073 135.191C58.6043 135.176 58.2075 134.327 58.1821 133.834C58.0804 131.892 57.6277 129.981 57.6531 128.029C57.6633 127.201 57.4445 126.428 57.1037 125.701C56.0305 123.404 54.9368 121.116 53.8076 118.849C53.3345 117.899 52.6835 117.091 51.6763 116.582C44.6517 113.024 37.4643 109.817 30.2972 106.574C29.6716 106.289 29.2138 106.279 28.8221 106.97C27.2351 109.781 25.8007 112.643 25.2361 115.855C25.0733 116.781 25.1038 117.701 25.409 118.61C25.7447 119.607 26.3195 120.1 27.4589 120.085C31.8232 120.034 36.1825 120.049 40.5468 120.085C41.6251 120.095 42.5153 120.024 42.495 118.621C42.495 118.331 42.6425 117.995 43.0291 118.046C43.4004 118.097 43.4207 118.443 43.436 118.738C43.4512 119.032 43.4411 119.327 43.4309 119.627C43.3241 122.158 42.8307 124.669 42.9884 127.084L42.9833 127.094ZM246.285 63.2864C246.718 63.2254 247.267 63.1746 247.801 63.0627C250.289 62.5239 250.558 62.1478 250.624 59.5554C250.68 57.3392 250.334 55.1687 249.887 53.0186C249.658 51.9359 249.775 51.0261 250.502 50.1924C251.28 49.3029 251.169 48.5252 250.37 47.6357C248.523 45.5618 246.077 43.8081 246.407 40.494C246.468 39.8637 245.909 39.7417 245.304 39.8789C243.808 40.2296 242.603 41.048 241.499 42.0697C241.214 42.334 240.924 42.944 240.507 42.5424C240.054 42.1002 240.624 41.7037 240.929 41.4038C242.16 40.1991 243.564 39.274 245.283 38.9385C245.822 38.8318 246.179 38.7047 245.995 38.0541C245.436 36.0869 244.546 34.2723 243.472 32.544C243.371 32.3763 243.177 32.1577 243.02 32.1527C242.725 32.1425 242.633 32.4475 242.577 32.6915C242.348 33.6776 242.175 34.6789 241.926 35.66C240.695 40.494 238.544 44.8349 235.018 48.4439C234.301 49.1809 233.706 49.2876 233.025 48.4642C232.811 48.205 232.582 47.9508 232.323 47.7322C231.727 47.2341 231.204 46.3852 230.283 46.7563C229.006 47.2697 227.541 47.6611 226.997 49.1352C226.3 51.0261 228.472 54.5588 230.461 54.8993C231.204 55.0264 231.89 54.9248 232.536 54.5232C232.75 54.391 232.963 54.2487 233.187 54.1369C233.386 54.0352 233.604 53.9996 233.767 54.1928C233.981 54.447 233.849 54.6757 233.65 54.8536C233.142 55.3111 232.557 55.6567 231.895 55.8295C231.407 55.9566 231.005 56.1599 231.005 56.7394C231.005 59.3572 230.39 61.8428 229.403 64.2522C229.133 64.9079 229.296 65.3959 230.023 65.6449C232.821 66.6056 235.614 67.5867 238.416 68.5372C238.803 68.6694 239.256 68.7558 239.566 68.3085C240.059 67.5917 239.856 66.0465 239.174 65.4213C238.02 64.364 236.839 63.3321 235.715 62.2495C235.293 61.8428 234.378 61.4616 234.779 60.8008C235.227 60.0688 235.934 60.8109 236.443 61.0549C239.52 62.5239 242.826 62.9509 246.28 63.2915L246.285 63.2864ZM80.9295 46.3801C80.9651 46.3141 81.0007 46.248 81.0363 46.1819C80.787 45.9633 80.5378 45.7397 80.2835 45.5262C77.2061 43.005 74.1439 40.4736 71.0462 37.9829C70.4612 37.5153 69.7593 36.3818 69.1539 36.9206C68.396 37.5915 69.3015 38.5421 69.7898 39.2435C71.1632 41.2208 72.5416 43.2032 74.0269 45.0941C74.7899 46.065 74.6271 46.6902 73.7624 47.4272C72.9638 48.1135 72.2415 48.8912 71.5192 49.6638C70.6698 50.5737 70.1814 51.6411 70.4816 52.9068C70.9648 54.9553 71.4887 56.9986 72.0228 59.037C72.1093 59.3674 72.1856 59.9011 72.7247 59.7028C73.152 59.5453 73.0808 59.1081 72.9943 58.7066C72.6078 56.9377 72.2263 55.1637 71.8651 53.3897C71.7786 52.9678 71.4836 52.2917 72.0737 52.1901C72.6637 52.0884 72.7654 52.795 72.857 53.2931C72.8875 53.4608 72.8723 53.6337 72.9079 53.7963C73.2232 55.2857 73.5437 56.7699 73.8692 58.2542C73.9455 58.5947 74.0574 58.9455 74.5051 58.8997C74.9629 58.854 75.1409 58.5083 75.1714 58.1017C75.1918 57.8119 75.1714 57.507 75.1205 57.2172C74.856 55.5906 74.5712 53.9742 74.3118 52.3476C74.2507 51.9512 74.088 51.4022 74.6831 51.3158C75.1968 51.2395 75.2019 51.7682 75.263 52.1291C75.497 53.5015 75.6902 54.8841 75.9548 56.2514C76.0463 56.7292 75.8785 57.5629 76.6821 57.4663C77.3383 57.39 77.4807 56.6784 77.5214 56.0634C77.5367 55.855 77.5214 55.6415 77.5367 55.428C77.6028 54.1928 77.3587 52.9881 77.1501 51.7783C77.0687 51.3107 76.8398 50.6042 77.5265 50.5076C78.1725 50.4161 78.0454 51.143 78.1115 51.5649C78.2386 52.3985 78.3048 53.2423 78.4116 54.081C78.671 56.0786 78.6252 57.9136 76.3515 58.8387C75.9344 59.0065 75.4614 59.5656 76.0768 59.9011C77.5774 60.7245 78.9101 61.914 80.9854 61.1617C83.3049 60.3179 85.4922 58.9709 88.0813 58.92C88.8442 58.9048 88.5747 58.3355 88.417 57.8831C87.598 55.5805 86.7943 53.2677 85.9601 50.9651C85.7923 50.5025 85.716 49.9637 85.2073 49.6892C82.7505 48.3676 80.2987 47.0308 77.8266 45.7397C77.0331 45.3229 76.7279 45.7397 76.7991 46.5326C76.8398 46.9799 77.1247 47.3103 77.3841 47.6357C78.2386 48.698 79.3068 49.5367 80.375 50.3653C80.9447 50.8075 81.3822 51.2751 81.138 52.0732C80.7362 53.3744 80.4768 54.6909 80.6141 56.0684C80.6395 56.3124 80.6141 56.6225 80.2936 56.6784C79.9732 56.7343 79.8765 56.4497 79.8104 56.2057C79.6273 55.55 79.4086 54.8333 79.6985 54.2131C80.7565 51.9715 79.6171 50.6092 77.9029 49.4351C77.2976 49.0233 76.8602 48.454 76.4227 47.8796C75.8988 47.1934 75.7716 46.4411 75.9497 45.6075C76.204 44.4079 76.6262 44.1385 77.7147 44.6621C78.8083 45.1856 79.8613 45.7956 80.9295 46.3649V46.3801ZM148.485 105.867C148.485 105.913 148.459 105.613 148.485 105.323C148.602 104.22 148.134 103.717 147.01 103.605C142.259 103.122 137.518 102.563 132.772 102.08C130.758 101.877 130.717 101.953 130.356 103.971C129.954 106.223 129.639 108.51 127.248 109.69C127.141 109.746 127.05 109.847 126.968 109.944C126.389 110.655 126.648 111.423 127.345 111.57C129.542 112.043 131.694 112.953 134.049 112.277C138.19 111.093 142.35 109.984 146.511 108.887C148.622 108.327 148.627 108.363 148.48 105.872L148.485 105.867ZM281.586 63.51C280.106 63.9472 278.702 64.1556 277.293 64.3081C276.902 64.3538 276.413 64.5572 276.144 64.0692C275.849 63.5456 276.271 63.2051 276.551 62.8493C277.436 61.7208 278.331 60.5975 279.211 59.4588C279.476 59.1183 279.73 58.6506 279.435 58.2999C279.048 57.8424 278.667 58.3304 278.357 58.5541C275.772 60.3941 273.199 62.2444 270.635 64.0997C269.379 65.0096 268.57 66.2091 268.356 67.7646C268.153 69.2387 267.781 70.6619 267.029 71.9581C266.642 72.6189 266.917 72.9239 267.486 73.2441C268.926 74.0523 270.33 74.9113 271.759 75.7399C273.27 76.6142 273.361 76.5989 273.692 74.8961C273.936 73.6253 274.562 72.8629 275.869 72.6443C277.248 72.4156 278.611 72.136 279.979 71.8564C280.595 71.7344 281.297 71.709 281.683 71.1245C282.924 69.2437 283.814 67.2766 283.077 64.9435C283.006 64.7096 283.011 64.3792 282.69 64.3843C282.395 64.3843 282.278 64.6944 282.248 64.9282C282.166 65.5534 282.136 66.1837 282.09 66.814C281.988 68.1763 280.381 69.8334 279.47 69.4267C278.158 68.8473 276.815 68.5982 275.401 68.6338C275.071 68.6439 274.648 68.6338 274.664 68.1611C274.674 67.7087 275.091 67.7036 275.422 67.668C276.627 67.5511 277.782 67.8307 278.906 68.217C279.999 68.5931 281.149 67.9577 281.19 66.7835C281.225 65.7313 281.408 64.7147 281.607 63.4999L281.586 63.51ZM161.868 80.95C162.198 81.4583 162.616 81.4532 162.961 81.499C167.875 82.1293 171.96 84.5438 175.795 87.4665C179.712 90.4503 183.048 94.0389 186.304 97.7038C186.518 97.9427 186.68 98.3849 187.052 98.2833C187.459 98.1714 187.311 97.714 187.316 97.3988C187.377 94.3185 187.423 91.2331 187.469 88.1527C187.469 87.8782 187.586 87.5428 187.158 87.3953C187.077 87.4665 186.945 87.5275 186.904 87.6241C186.294 89.0829 186.278 89.1083 185.063 88.2086C181.055 85.2452 176.995 82.3428 173.084 79.2523C171.532 78.0273 170.22 77.7325 168.394 78.5762C166.313 79.5369 164.075 80.1621 161.863 80.95H161.868ZM164.126 48.5608C163.328 51.0667 161.883 53.1152 160.21 55.0315C159.706 55.6059 160.454 55.7025 160.764 55.855C162.651 56.8004 164.203 58.1474 165.515 59.7791C167.565 62.3308 168.17 65.3704 168.506 68.5118C168.781 71.1143 169.106 73.7067 169.421 76.3041C169.498 76.9446 169.828 77.524 170.454 76.8836C171.721 75.5874 173.191 74.1336 173.221 72.3342C173.292 67.8662 173.211 63.383 172.84 58.92C172.799 58.4016 172.641 58.0254 172.031 58C168.796 57.8831 167.438 55.6059 166.512 53.0135C165.952 51.4429 165.174 50.0247 164.126 48.5557V48.5608ZM139.059 97.1294C139.059 98.3544 139.059 99.5794 139.059 100.804C139.059 101.364 139.192 101.791 139.868 101.867C144.192 102.36 148.51 102.904 152.834 103.361C154.314 103.519 154.421 103.3 153.709 101.953C152.524 99.7065 151.247 97.4801 151.033 94.903C150.942 93.7644 150.53 93.3832 149.451 93.2917C146.333 93.0223 143.19 93.1138 140.092 92.575C139.405 92.4581 139.049 92.7072 139.059 93.4493C139.08 94.6743 139.064 95.8993 139.059 97.1243V97.1294ZM92.2625 104.195C92.2319 106.838 92.8474 108.643 93.9817 110.203C95.5281 112.333 97.5983 113.731 100.294 114.031C100.955 114.107 101.556 113.883 101.123 113.156C100.142 111.509 100.701 109.964 101.261 108.424C101.561 107.606 101.378 107.118 100.742 106.579C99.8415 105.821 98.9615 105.039 98.87 103.697C98.7479 101.887 98.5139 100.088 98.3359 98.2833C98.1884 96.7838 97.4712 96.4076 96.2555 97.3073C93.7325 99.1779 92.3794 101.704 92.2625 104.19V104.195ZM187.494 81.3821C187.652 80.6654 187.148 80.4112 186.645 80.1469C183.145 78.2662 179.646 76.3905 176.156 74.4996C174.101 73.3864 174.106 73.3763 172.763 75.3129C172.621 75.5213 172.478 75.7348 172.321 75.933C171.675 76.7514 171.726 77.3716 172.646 78.0273C174.884 79.6132 177.062 81.2957 179.259 82.9375C181.156 84.3557 183.048 85.7688 184.946 87.1869C185.454 87.5682 185.978 87.7867 186.187 86.9379C186.65 85.0978 187.057 83.2374 187.489 81.3872L187.494 81.3821ZM185.256 41.6529C187.794 41.8105 189.6 42.8118 190.714 44.901C190.877 45.2059 191.075 45.5211 191.487 45.4144C191.92 45.2974 191.914 44.8857 191.848 44.5756C191.594 43.3354 192.199 42.6034 193.212 42.0494C193.776 41.7393 194.305 41.3733 194.905 40.9972C194.31 40.6464 193.797 40.8396 193.303 40.8244C193.089 40.8193 192.855 40.7837 192.784 40.5448C192.703 40.25 192.911 40.0466 193.145 39.9551C193.415 39.8484 193.715 39.7772 194.005 39.7671C194.768 39.7417 194.865 39.4265 194.519 38.8064C194.107 38.0693 193.72 37.3221 193.344 36.5647C192.886 35.6447 192.326 35.5075 191.436 36.092C189.91 37.0883 188.257 37.8609 186.543 38.4709C183.628 39.5078 180.683 40.433 177.56 40.5346C176.324 40.5753 175.851 41.1446 175.917 42.3696C175.983 43.6353 175.902 44.906 175.892 46.1717C175.866 48.8861 175.881 48.9115 178.257 47.6306C179.015 47.2239 180.103 47.0765 180.383 46.1565C181.019 44.0673 182.321 42.6695 184.33 41.846C182.937 41.9731 181.731 42.4814 180.683 43.376C180.459 43.5641 180.18 43.803 179.91 43.5031C179.656 43.2185 179.885 42.9237 180.098 42.7356C181.97 41.0938 184.264 40.5854 186.655 40.3567C186.914 40.3313 187.164 40.4736 187.199 40.7786C187.235 41.1039 186.991 41.1954 186.731 41.2666C186.329 41.3733 185.882 41.2107 185.266 41.658L185.256 41.6529ZM66.4784 105.994C66.9057 105.943 66.9565 105.552 67.0989 105.267C67.8162 103.88 68.5079 102.482 69.2048 101.084C71.6515 96.1738 74.1032 91.2636 76.5397 86.3482C76.6974 86.028 76.967 85.7027 76.6923 85.291C75.9598 84.1727 74.3118 84.1676 73.6963 85.3367C70.568 91.3195 67.455 97.3124 64.3522 103.31C63.9198 104.144 65.4611 106.06 66.4733 105.994H66.4784ZM107.034 111.743C107.019 111.55 107.024 111.464 107.009 111.382C106.352 108.078 105.696 104.769 105.035 101.465C104.959 101.074 104.72 100.779 104.364 100.586C102.878 99.7777 101.393 98.9746 99.9127 98.1562C99.338 97.841 99.1141 98.0545 99.1752 98.6442C99.3074 99.9454 99.4448 101.242 99.6177 102.538C99.7703 103.707 99.8364 104.947 100.976 105.669C102.481 106.625 102.604 107.875 101.876 109.354C101.764 109.578 101.729 109.842 101.617 110.066C100.925 111.489 101.688 112.704 102.446 113.69C103.072 114.508 104.099 113.756 104.903 113.492C105.457 113.309 105.961 112.973 106.474 112.684C106.876 112.46 107.075 112.104 107.039 111.738L107.034 111.743ZM118.443 110.711C119.079 110.711 119.715 110.722 120.346 110.711C120.839 110.701 121.292 110.569 121.424 110.015C121.979 107.717 122.528 105.42 123.057 103.122C123.118 102.853 123.271 102.492 122.975 102.299C122.675 102.101 122.416 102.406 122.187 102.558C120.107 103.925 117.828 104.581 115.34 104.469C114.476 104.429 114.145 104.83 114.074 105.659C113.911 107.611 113.519 109.507 112.441 111.194C112.197 111.575 112.187 111.875 112.568 112.18C112.955 112.49 113.341 112.597 113.677 112.18C114.939 110.605 116.699 110.696 118.438 110.722L118.443 110.711ZM203.308 103.387C204.911 103.209 207.052 102.985 209.184 102.736C210.028 102.639 210.531 102.34 210.013 101.343C209.687 100.713 209.535 99.9963 209.285 99.3253C208.955 98.4154 208.838 97.2768 208.207 96.6719C207.5 95.9959 206.371 96.7329 205.425 96.7838C203.7 96.8702 201.991 97.165 200.272 97.3785C199.239 97.5056 198.705 97.8817 199.27 99.0356C199.677 99.8641 199.946 100.759 200.246 101.638C200.872 103.473 200.867 103.473 203.298 103.387H203.308ZM125.453 101.15C124.852 101.003 124.308 101.191 124.11 102.05C123.499 104.668 122.869 107.28 122.243 109.893C122.172 110.188 122.08 110.554 122.345 110.722C123.281 111.306 124.384 111.174 125.412 111.225C126.109 111.26 125.712 110.498 125.839 110.106C125.997 109.618 126.343 109.329 126.74 109.095C128.352 108.155 129.176 106.767 129.318 104.901C129.38 104.114 129.644 103.336 129.848 102.563C129.99 102.019 129.939 101.679 129.263 101.613C128.047 101.496 126.836 101.318 125.448 101.145L125.453 101.15ZM185.658 50.8786C188.257 50.9041 190.093 49.2571 190.129 46.8834C190.16 44.6011 188.298 42.7661 185.917 42.7305C183.506 42.6949 181.416 44.474 181.385 46.5885C181.35 49.1707 183.028 50.8583 185.658 50.8786ZM249.805 120.09C249.637 119.373 249.22 119.129 248.874 118.834C247.074 117.299 245.263 115.779 243.457 114.254C243.045 113.909 242.653 113.365 242.043 113.726C241.463 114.066 240.843 114.544 240.919 115.291C241.082 116.862 240.69 118.204 239.627 119.368C239.271 119.754 239.347 120.085 239.942 120.085C243.188 120.09 246.438 120.085 249.8 120.085L249.805 120.09ZM200.745 104.439C199.148 104.657 196.599 104.993 194.056 105.354C193.654 105.41 193.064 105.257 192.906 105.669C192.713 106.172 193.237 106.564 193.491 106.975C193.725 107.362 194.142 107.519 194.56 107.59C196.63 107.956 198.695 108.444 200.786 108.627C203.807 108.887 203.013 109.161 203.527 106.462C203.929 104.363 203.832 104.342 200.75 104.434L200.745 104.439ZM191.843 86.6126C192.098 86.0941 192.26 85.8857 192.306 85.6468C192.759 83.4966 193.171 81.3262 193.985 79.2879C194.671 77.5647 193.868 76.6294 192.688 75.6636C192.062 75.1553 191.691 75.2113 191.299 75.8975C190.566 77.1835 189.819 78.4542 189.03 79.7047C188.72 80.1926 188.674 80.6654 188.924 81.1381C189.839 82.8918 190.785 84.6251 191.848 86.6024L191.843 86.6126ZM213.4 39.9043C213.324 41.4597 213.68 41.9274 214.616 42.1104C215.588 42.2984 215.979 41.8054 216.239 40.9565C216.727 39.3401 217.668 37.9829 218.996 36.9561C219.855 36.2852 219.926 35.6295 219.301 34.8213C218.685 34.0334 217.907 33.825 217.088 34.4299C215.079 35.9192 213.884 37.9423 213.4 39.9043ZM110.798 105.669C111.047 104.602 110.574 104.098 109.603 103.773C108.774 103.493 108.021 102.995 107.222 102.619C106.927 102.482 106.663 102.08 106.332 102.263C105.915 102.492 106.139 102.965 106.2 103.3C106.663 105.74 107.171 108.17 107.655 110.605C107.833 111.514 108.245 111.255 108.641 110.793C109.908 109.308 110.595 107.575 110.793 105.674L110.798 105.669ZM201.187 46.004C201.208 44.4943 200.012 42.7864 198.746 42.2222C197.917 41.8511 197.647 42.0799 197.54 42.9694C197.296 45.0585 198.171 46.9444 198.491 48.9318C198.593 49.552 198.99 49.369 199.336 49.1352C200.511 48.3422 200.969 47.1477 201.187 46.004ZM206.325 103.925C205.145 103.712 204.631 104.327 204.539 105.522C204.463 106.528 204.26 107.524 204.163 108.526C204.082 109.339 205.348 110.849 206.091 110.894C206.508 110.92 206.559 110.61 206.605 110.32C206.884 108.531 207.169 106.747 207.434 104.957C207.551 104.18 207.317 103.697 206.325 103.925ZM105.793 99.0457C105.508 100.235 106.088 101.028 107.126 101.582C107.868 101.979 108.606 102.39 109.359 102.772C109.618 102.904 109.944 103.072 110.203 102.889C110.549 102.645 110.356 102.253 110.259 101.958C109.689 100.225 108.631 98.8221 107.217 97.6885C106.932 97.4598 106.642 97.0938 106.225 97.2667C105.747 97.4649 105.834 97.963 105.798 98.3697C105.778 98.5781 105.798 98.7916 105.798 99.0457H105.793ZM98.3257 96.2805C100.386 97.4649 102.095 98.451 103.809 99.432C104.094 99.5947 104.394 99.8387 104.745 99.615C105.315 99.2541 105.086 96.4178 104.425 96.1789C102.512 95.4927 100.589 95.5486 98.3308 96.2856L98.3257 96.2805ZM106.663 120.161C107.212 119.881 108.468 120.755 108.484 119.271C108.494 118.219 108.341 116.989 107.711 116.282C107.176 115.683 106.22 116.689 105.411 116.836C105.121 116.892 104.842 116.999 104.557 117.07C104.114 117.182 103.957 117.436 104.018 117.909C104.231 119.546 104.908 120.166 106.668 120.166L106.663 120.161ZM288.133 56.9529C287.009 57.4053 286.816 58.2287 286.76 59.0675C286.627 60.999 286.541 62.9306 286.454 64.8621C286.439 65.1722 286.261 65.6297 286.663 65.7568C287.111 65.8991 287.284 65.4111 287.492 65.1214C287.629 64.9231 287.701 64.6588 287.736 64.4148C288.057 61.9953 288.153 59.5605 288.138 56.9529H288.133ZM284.532 68.0492C284.954 68.0543 285.167 67.7798 285.223 67.5257C285.763 65.1315 285.691 62.6917 285.625 60.262C285.615 59.8452 285.274 59.835 284.984 60.0536C284.674 60.2874 284.501 60.628 284.415 61.0092C283.875 63.3728 283.937 65.7161 284.532 68.0543V68.0492ZM159.736 105.323C159.716 105.237 159.701 105.15 159.681 105.064C158.516 104.927 157.346 104.779 156.181 104.657C155.382 104.571 154.568 104.393 153.785 104.469C152.478 104.596 153.078 105.689 153.027 106.375C152.971 107.179 153.556 106.904 153.999 106.792C155.911 106.299 157.824 105.811 159.731 105.323H159.736ZM152.005 105.791C152.005 105.583 151.995 105.369 152.005 105.161C152.051 104.154 151.379 104.022 150.596 103.961C149.797 103.895 149.4 104.225 149.37 105.018C149.339 105.776 149.273 106.533 149.268 107.285C149.268 107.702 149.426 107.992 149.96 107.956C151.644 107.834 152.035 107.433 152 105.796L152.005 105.791ZM111.368 116.709C111.113 115.906 110.447 115.266 109.562 114.946C109.084 114.773 108.565 115.174 108.662 115.718C108.901 117.045 109.257 118.346 109.587 119.652C109.669 119.973 109.928 120.125 110.269 120.095C110.559 120.064 110.737 119.896 110.793 119.622C110.981 118.712 111.154 117.802 111.373 116.709H111.368ZM289.176 61.6903C290.234 60.2925 291.154 59.0878 292.06 57.878C292.202 57.6849 292.441 57.4663 292.253 57.202C292.045 56.9072 291.734 57.0088 291.444 57.1105C289.567 57.7713 288.708 59.347 289.176 61.6852V61.6903ZM103.707 66.4074C104.119 66.3362 104.231 65.9906 104.364 65.6958C104.709 64.8977 105.645 63.7032 105.193 63.3728C104.542 62.895 103.565 63.815 102.817 64.3132C102.461 64.547 101.744 64.7351 101.963 65.2434C102.247 65.9143 103.036 66.1329 103.707 66.4074ZM72.6942 81.011C72.5416 80.3807 72.7858 79.42 71.9821 79.2421C71.4887 79.1303 70.6698 79.7504 70.6901 80.3655C70.7155 81.1991 71.5701 81.5346 72.2873 81.7176C72.8468 81.865 72.6281 81.316 72.6942 81.011ZM118.911 60.1705C117.848 59.9468 117.111 59.8299 116.388 60.8313C117.39 60.8109 118.062 60.755 118.911 60.1705ZM197.764 39.6197C197.545 40.8701 197.688 41.0277 199.01 40.9768C198.669 40.438 198.324 39.9602 197.764 39.6197Z"
      fill="#AAAAAA"
    />
    <path
      d="M274.486 43.7472C270.467 43.7472 266.444 43.7522 262.425 43.7472C260.813 43.7472 260.624 43.5286 260.635 41.8969C260.655 39.2385 260.599 36.58 260.711 33.9216C260.955 28.3912 265.854 23.7606 271.398 23.7453C276.179 23.7301 280.961 23.7758 285.742 23.7352C290.071 23.6996 295.152 26.9222 295.732 32.8338C296.139 36.9511 293.911 41.5055 288.764 43.249C287.706 43.6048 286.643 43.7573 285.529 43.7522C281.846 43.7268 278.163 43.7421 274.486 43.7421V43.7472ZM274.45 42.9491C277.878 42.9491 281.307 42.9695 284.735 42.939C286.475 42.9237 288.163 42.6645 289.776 41.8868C293.372 40.1534 295.529 36.0921 294.786 32.2442C293.957 27.9541 290.6 24.8178 286.414 24.7314C281.169 24.6196 275.915 24.6094 270.671 24.7416C266.093 24.8534 262.196 28.7115 261.693 33.2456C261.423 35.6956 261.586 38.1405 261.54 40.5906C261.499 42.8017 261.621 42.9288 263.905 42.939C267.42 42.9593 270.93 42.944 274.445 42.9491H274.45Z"
      fill="#AAAAAA"
    />
    <path
      d="M287.95 113.807C285.157 113.807 282.36 113.777 279.567 113.822C278.418 113.837 277.995 113.39 278.001 112.247C278.036 106.711 278.011 101.171 278.021 95.63C278.021 94.1966 278.26 93.9577 279.75 93.9526C284.745 93.9373 289.746 93.9983 294.741 93.9221C298.174 93.8712 298.067 93.8306 298.062 97.2413C298.057 102.101 298.062 106.965 298.052 111.825C298.052 113.599 297.843 113.797 296.078 113.807C293.367 113.822 290.661 113.807 287.95 113.807ZM288.021 94.8269C285.396 94.8319 282.772 94.8574 280.147 94.8167C279.282 94.8065 278.972 95.0505 278.977 95.9705C279.023 101.125 279.023 106.274 278.987 111.428C278.977 112.551 279.303 112.994 280.498 112.984C285.534 112.933 290.575 112.938 295.61 112.989C296.729 112.999 297.096 112.592 297.086 111.515C297.055 106.401 297.055 101.287 297.086 96.1739C297.091 95.1064 296.653 94.7913 295.636 94.8116C293.098 94.8624 290.554 94.8269 288.016 94.8269H288.021Z"
      fill="#AAAAAA"
    />
    <path
      d="M103.946 14.4383C103.946 16.0445 103.946 17.6508 103.946 19.2519C103.946 19.9737 103.682 20.5684 102.888 20.5532C99.0531 20.4871 95.1721 21.1377 91.3978 20.1516C86.9165 18.9774 84.0018 14.8602 84.1392 10.2092C84.2663 5.82757 87.4913 2.1576 91.8505 0.978326C97.2169 -0.470346 103.723 3.91125 103.921 10.2549C103.967 11.6477 103.926 13.0404 103.926 14.4383C103.931 14.4383 103.941 14.4383 103.946 14.4383ZM103.041 14.3112C103.021 12.1204 103.173 9.8991 102.527 7.76929C101.317 3.75368 96.871 1.10032 92.6338 1.79162C88.1729 2.51341 84.8259 6.34095 85.0192 10.8649C85.1972 15.1346 87.9287 18.764 92.6949 19.4502C95.8028 19.8975 98.9514 19.5569 102.08 19.6179C102.787 19.6332 103.056 19.3028 103.046 18.6165C103.026 17.1831 103.041 15.7446 103.041 14.3112Z"
      fill="#AAAAAA"
    />
    <path
      d="M301.048 91.3804C300.641 91.3703 300.483 91.1975 300.595 90.8925C300.682 90.6637 300.829 90.4401 301.002 90.2673C303.123 88.1578 305.249 86.0534 307.381 83.9592C307.64 83.705 307.971 83.2781 308.327 83.5932C308.754 83.9693 308.245 84.2692 308.006 84.5081C305.87 86.6634 303.718 88.8033 301.572 90.9433C301.399 91.1161 301.195 91.2585 301.048 91.3804Z"
      fill="#AAAAAA"
    />
    <path
      d="M297.396 86.4042C297.396 85.5604 297.385 84.7116 297.401 83.8678C297.401 83.6085 297.492 83.329 297.787 83.2883C298.169 83.2375 298.327 83.5425 298.327 83.8474C298.347 85.6214 298.347 87.3954 298.342 89.1745C298.342 89.4337 298.25 89.7133 297.955 89.7489C297.579 89.7946 297.416 89.5049 297.406 89.1897C297.38 88.2595 297.396 87.3293 297.396 86.3991V86.4042Z"
      fill="#AAAAAA"
    />
    <path
      d="M305.285 94.4811C304.405 94.4811 303.52 94.4963 302.64 94.4709C302.366 94.4658 301.974 94.4709 301.984 94.0643C301.994 93.7034 302.36 93.6068 302.64 93.6068C304.527 93.5915 306.415 93.6068 308.297 93.617C308.51 93.617 308.744 93.7186 308.78 93.9474C308.831 94.2727 308.546 94.4048 308.307 94.4099C307.3 94.4353 306.292 94.4201 305.285 94.4201C305.285 94.4404 305.285 94.4607 305.285 94.4811Z"
      fill="#AAAAAA"
    />
    <path
      d="M105.147 71.7955C105.142 69.9757 105.35 69.6148 106.958 69.4013C108.24 69.2285 109.079 68.6999 109.445 67.4494C109.501 67.2563 109.659 67.0886 109.771 66.9056C110.01 66.5193 110.264 65.8839 110.747 66.1533C111.337 66.4837 110.722 66.9513 110.549 67.3325C110.32 67.8307 109.984 68.2831 109.786 68.7914C109.404 69.7775 108.753 70.2197 107.665 70.235C106.215 70.2604 105.996 70.5857 106.118 72.0293C106.134 72.197 106.174 72.3648 106.174 72.5325C106.174 72.8629 106.271 73.3255 105.844 73.3763C105.376 73.4322 105.269 72.9595 105.203 72.5833C105.147 72.2529 105.147 71.9124 105.137 71.7955H105.147Z"
      fill="#AAAAAA"
    />
    <path
      d="M129.985 78.3119C129.039 78.7542 129.486 79.8165 129.074 80.5332C128.891 80.8535 128.474 80.7315 128.408 80.3757C128.144 78.9118 127.498 79.6081 126.872 80.0707C126.602 80.274 126.277 80.5536 125.997 80.1876C125.768 79.8877 126.104 79.6539 126.292 79.4404C127.096 78.561 128.189 78.2052 129.273 77.8443C129.558 77.7477 129.868 77.8291 129.99 78.3119H129.985Z"
      fill="#AAAAAA"
    />
    <path
      d="M171.309 49.1555C171.431 49.2368 171.629 49.3182 171.766 49.4656C172.529 50.2738 173.074 51.2142 173.394 52.2765C173.481 52.5561 173.567 52.8967 173.181 53.0237C172.891 53.1203 172.677 52.8966 172.601 52.6577C172.275 51.7021 171.934 51.1125 170.953 52.1647C170.663 52.4798 170.251 52.1037 170.403 51.7072C170.678 50.9753 171.471 50.3856 170.897 49.4503C170.82 49.3283 171.039 49.1758 171.304 49.1555H171.309Z"
      fill="#AAAAAA"
    />
    <path
      d="M193.039 57.0393C193.028 57.4307 192.82 57.6137 192.55 57.5781C191.431 57.4256 190.317 57.2477 189.208 57.0545C188.995 57.0189 188.842 56.8258 188.862 56.5869C188.883 56.348 189.071 56.2057 189.29 56.2057C190.475 56.1853 191.619 56.4598 192.759 56.7394C192.886 56.7699 192.967 56.9681 193.039 57.0444V57.0393Z"
      fill="#AAAAAA"
    />
    <path
      d="M121.261 27.8575C121.612 28.8843 121.134 29.7891 120.137 30.4855C119.201 31.1412 119.166 31.8579 119.974 32.6458C120.183 32.8491 120.381 33.0727 120.564 33.3066C120.702 33.4845 120.737 33.703 120.585 33.886C120.376 34.1402 120.142 34.0233 119.913 33.8911C118.306 32.9558 118.067 31.1513 119.471 29.9162C120.29 29.1944 120.595 28.4471 120.351 27.3645C120.188 26.6477 119.735 25.3821 120.6 25.2804C121.526 25.1686 121.012 26.48 121.221 27.1459C121.266 27.3035 121.246 27.4814 121.266 27.8524L121.261 27.8575Z"
      fill="#AAAAAA"
    />
    <path
      d="M141.186 26.3579C140.891 27.0797 141.542 27.3593 141.776 27.8167C141.893 28.0455 142.025 28.3047 141.766 28.4979C141.567 28.6453 141.343 28.5131 141.196 28.3657C140.407 27.5677 140.092 27.9286 139.924 28.8333C139.853 29.1993 139.685 29.7026 139.232 29.5856C138.663 29.4382 138.881 28.9045 138.993 28.5182C139.258 27.6185 139.649 26.7798 140.275 26.0682C140.474 25.8394 140.682 25.5802 141.008 25.6717C141.445 25.7937 141.247 26.1241 141.181 26.3579H141.186Z"
      fill="#AAAAAA"
    />
    <path
      d="M5.60167 93.4137C5.65763 90.2063 8.47053 87.5428 11.7361 87.6139C14.9 87.68 17.5603 90.435 17.5501 93.6374C17.54 96.7685 14.6711 99.5896 11.5835 99.5032C8.14498 99.4066 5.54064 96.7533 5.59659 93.4137H5.60167ZM6.58339 93.5205C6.59357 96.4686 8.65873 98.5578 11.5835 98.5679C14.2845 98.5781 16.721 96.2348 16.7007 93.6425C16.6803 90.9027 14.2947 88.4679 11.6344 88.473C8.74012 88.473 6.57322 90.6434 6.58339 93.5255V93.5205Z"
      fill="#AAAAAA"
    />
    <path
      d="M50.5217 54.4012C50.5268 53.776 50.4505 53.1304 50.7251 52.5459C50.8014 52.3782 51.0049 52.2053 51.1778 52.1647C51.4118 52.1138 51.5746 52.3324 51.5644 52.551C51.5186 53.2931 52.012 53.5574 52.5767 53.8116C52.8106 53.9132 53.009 54.1267 52.9022 54.4165C52.7852 54.7316 52.4953 54.6706 52.2613 54.5842C51.4983 54.2945 51.2491 54.5435 51.3813 55.3263C51.4525 55.7381 51.7933 56.4141 51.1219 56.4599C50.4352 56.5107 50.598 55.7482 50.5369 55.2806C50.5013 54.9908 50.5318 54.696 50.5318 54.4012H50.5217Z"
      fill="#AAAAAA"
    />
    <path
      d="M232.557 51.7021C232.587 51.9816 232.572 52.1951 232.328 52.2764C231.977 52.3883 231.748 52.2002 231.646 51.8952C231.366 51.0463 231.102 50.2432 230.151 51.392C230.039 51.5242 229.83 51.514 229.698 51.3717C229.479 51.1429 229.606 50.8989 229.723 50.6804C230.003 50.1568 230.583 49.6892 229.962 49.0233C229.845 48.9013 229.881 48.698 230.034 48.576C230.227 48.4286 230.44 48.454 230.613 48.5912C231.621 49.4249 232.145 50.5635 232.557 51.697V51.7021Z"
      fill="#AAAAAA"
    />
    <path
      d="M278.28 31.0445C281.068 31.0445 283.855 31.0394 286.643 31.0495C286.999 31.0495 287.573 30.9326 287.589 31.4104C287.604 31.9187 287.029 31.7815 286.678 31.7815C281.103 31.7917 275.528 31.7967 269.958 31.7866C269.577 31.7866 268.951 31.9442 268.967 31.3596C268.977 30.892 269.577 31.0394 269.928 31.0394C272.715 31.0241 275.503 31.0292 278.29 31.0292L278.28 31.0445Z"
      fill="#AAAAAA"
    />
    <path
      d="M268.875 36.1277C269.002 35.7769 269.272 35.782 269.521 35.782C273.361 35.7719 277.202 35.7668 281.047 35.7617C281.368 35.7617 281.836 35.6346 281.841 36.1175C281.841 36.4886 281.403 36.4377 281.124 36.4377C277.237 36.4428 273.351 36.4377 269.465 36.4377C269.262 36.4377 269.038 36.4327 268.875 36.1328V36.1277Z"
      fill="#AAAAAA"
    />
    <path
      d="M293.952 99.3609C293.851 99.5236 293.729 99.7371 293.586 99.9404C291.704 102.645 289.832 105.354 287.93 108.048C287.141 109.166 286.801 109.187 285.854 108.256C284.71 107.133 283.565 105.999 282.436 104.861C282.212 104.632 281.821 104.337 282.09 104.012C282.426 103.615 282.787 103.961 283.057 104.225C283.993 105.14 284.949 106.04 285.829 107.011C286.577 107.839 287.096 107.743 287.696 106.848C289.257 104.536 290.86 102.258 292.462 99.9709C292.701 99.6303 292.96 99.2796 293.281 99.0204C293.535 98.812 293.845 98.8526 293.952 99.3559V99.3609Z"
      fill="#AAAAAA"
    />
    <path
      d="M97.0084 10.6615C96.9321 11.0936 96.6676 11.3528 96.2403 11.3325C95.8486 11.3121 95.6604 10.9868 95.6604 10.631C95.6604 10.2599 95.874 9.97021 96.2657 9.97021C96.693 9.97021 96.9575 10.2193 97.0084 10.6615Z"
      fill="#AAAAAA"
    />
    <path
      d="M92.349 10.6563C92.2981 11.0121 92.1862 11.3324 91.7539 11.3171C91.3774 11.3019 91.1028 11.0884 91.0773 10.7072C91.0468 10.2599 91.3113 9.99045 91.7539 9.98028C92.171 9.9752 92.288 10.3107 92.3541 10.6563H92.349Z"
      fill="#AAAAAA"
    />
    <path
      d="M94.0275 11.2867C93.5697 11.2206 93.351 10.9817 93.3866 10.5954C93.4222 10.1887 93.7121 10.0108 94.0987 10.0566C94.4293 10.0922 94.6379 10.3209 94.6226 10.6615C94.6073 11.0579 94.3581 11.2511 94.0275 11.2918V11.2867Z"
      fill="#AAAAAA"
    />
    <path
      d="M14.3559 93.5356C13.4301 94.0541 12.5603 93.9677 11.7057 93.8609C11.2835 93.805 11.0445 93.4695 11.0292 93.0578C10.9987 92.092 10.9936 91.1263 11.0038 90.1656C11.0038 89.8657 11.0903 89.5403 11.4921 89.5708C11.7973 89.5912 11.8634 89.8707 11.8939 90.1249C11.9092 90.252 11.9092 90.374 11.9194 90.501C11.9855 91.2889 11.6803 92.1581 12.1025 92.8545C12.5552 93.6017 13.5624 92.9104 14.3559 93.5407V93.5356Z"
      fill="#AAAAAA"
    />
  </g>
  <defs>
    <clipPath id="clip0_338_102">
      <rect
        width="308"
        height="138"
        fill="white"
        transform="translate(0.784668 0.703613)"
      />
    </clipPath>
  </defs>
</svg>
