<svg
  width="188"
  height="217"
  viewBox="0 0 188 217"
  fill="none"
  xmlns="http://www.w3.org/2000/svg"
>
  <rect
    x="0.433013"
    width="49.1454"
    height="49.1454"
    transform="matrix(0.866025 -0.5 0.866025 0.5 3.53165 146.347)"
    stroke="#605D5D"
    stroke-width="0.5"
    stroke-dasharray="1 1"
  />
  <rect
    x="0.433013"
    width="49.1454"
    height="49.1454"
    transform="matrix(0.866025 -0.5 0.866025 0.5 51.0998 173.811)"
    stroke="#605D5D"
    stroke-width="0.5"
    stroke-dasharray="1 1"
  />
  <rect
    x="0.433013"
    width="49.1454"
    height="49.1454"
    transform="matrix(0.866025 -0.5 0.866025 0.5 51.0998 118.884)"
    stroke="#605D5D"
    stroke-width="0.5"
    stroke-dasharray="1 1"
  />
  <rect
    x="0.433013"
    width="49.1454"
    height="49.1454"
    transform="matrix(0.866025 -0.5 0.866025 0.5 98.6679 146.347)"
    stroke="#605D5D"
    stroke-width="0.5"
    stroke-dasharray="1 1"
  />
  <g filter="url(#filter0_d_326_678)">
    <rect
      width="24.5659"
      height="24.5659"
      transform="matrix(0.866025 -0.5 0.866025 0.5 3 82.4893)"
      fill="white"
    />
    <rect
      width="24.5659"
      height="24.5659"
      transform="matrix(0.866025 -0.5 0.866025 0.5 26.5381 96.0791)"
      fill="white"
    />
    <rect
      width="24.5659"
      height="24.5659"
      transform="matrix(0.866025 -0.5 0.866025 0.5 26.5381 68.8994)"
      fill="white"
    />
    <rect
      width="24.5659"
      height="24.5659"
      transform="matrix(0.866025 -0.5 0.866025 0.5 50.0762 82.4893)"
      fill="white"
    />
    <rect
      width="24.5659"
      height="24.5659"
      transform="matrix(0.866025 -0.5 0.866025 0.5 49.7405 55.5037)"
      fill="white"
    />
    <rect
      width="24.5659"
      height="24.5659"
      transform="matrix(0.866025 -0.5 0.866025 0.5 73.2786 69.0933)"
      fill="white"
    />
    <rect
      width="24.5659"
      height="24.5659"
      transform="matrix(0.866025 -0.5 0.866025 0.5 73.2786 41.9138)"
      fill="white"
    />
    <rect
      width="24.5659"
      height="24.5659"
      transform="matrix(0.866025 -0.5 0.866025 0.5 96.8167 55.5037)"
      fill="white"
    />
    <rect
      width="24.5659"
      height="24.5659"
      transform="matrix(0.866025 -0.5 0.866025 0.5 49.7405 109.475)"
      fill="white"
    />
    <rect
      width="24.5659"
      height="24.5659"
      transform="matrix(0.866025 -0.5 0.866025 0.5 73.2786 123.065)"
      fill="white"
    />
    <rect
      width="24.5659"
      height="24.5659"
      transform="matrix(0.866025 -0.5 0.866025 0.5 73.2786 95.8853)"
      fill="white"
    />
    <rect
      width="24.5659"
      height="24.5659"
      transform="matrix(0.866025 -0.5 0.866025 0.5 96.8167 109.475)"
      fill="white"
    />
    <rect
      width="24.5659"
      height="24.5659"
      transform="matrix(0.866025 -0.5 0.866025 0.5 96.481 82.4893)"
      fill="white"
    />
    <rect
      width="24.5659"
      height="24.5659"
      transform="matrix(0.866025 -0.5 0.866025 0.5 120.019 96.0791)"
      fill="white"
    />
    <rect
      width="24.5659"
      height="24.5659"
      transform="matrix(0.866025 -0.5 0.866025 0.5 120.019 68.8994)"
      fill="white"
    />
    <rect
      width="24.5659"
      height="24.5659"
      transform="matrix(0.866025 -0.5 0.866025 0.5 143.557 82.4893)"
      fill="white"
    />
  </g>
  <path
    d="M185.062 55.9678V161.29L93.8486 213.952L2.63672 161.29V55.9678L93.8486 3.30566L185.062 55.9678Z"
    stroke="#DBDBDB"
    stroke-width="0.5"
  />
  <path
    d="M5.41699 54.7166V57.5261L2.9834 58.9314L0.549805 57.5261V54.7166L2.9834 53.3113L5.41699 54.7166Z"
    fill="#FAFAFA"
    stroke="#605D5D"
    stroke-width="0.3"
  />
  <path
    d="M186.807 54.7166V57.5261L184.373 58.9314L181.939 57.5261V54.7166L184.373 53.3113L186.807 54.7166Z"
    fill="#FAFAFA"
    stroke="#605D5D"
    stroke-width="0.3"
  />
  <path
    d="M96.1118 106.031V108.84L93.6782 110.246L91.2446 108.84V106.031L93.6782 104.625L96.1118 106.031Z"
    fill="#FAFAFA"
    stroke="#605D5D"
    stroke-width="0.3"
  />
  <path
    d="M96.1118 2.20898V5.01855L93.6782 6.42383L91.2446 5.01855V2.20898L93.6782 0.803711L96.1118 2.20898Z"
    fill="#FAFAFA"
    stroke="#605D5D"
    stroke-width="0.3"
  />
  <path
    d="M5.41699 159.732V162.541L2.9834 163.947L0.549805 162.541V159.732L2.9834 158.326L5.41699 159.732Z"
    fill="#FAFAFA"
    stroke="#605D5D"
    stroke-width="0.3"
  />
  <path
    d="M186.807 159.732V162.541L184.373 163.947L181.939 162.541V159.732L184.373 158.326L186.807 159.732Z"
    fill="#FAFAFA"
    stroke="#605D5D"
    stroke-width="0.3"
  />
  <path
    d="M96.1118 212.239V215.049L93.6782 216.454L91.2446 215.049V212.239L93.6782 210.834L96.1118 212.239Z"
    fill="#FAFAFA"
    stroke="#605D5D"
    stroke-width="0.3"
  />
  <path d="M2.9834 158.75V59.1052" stroke="#605D5D" stroke-width="0.5" />
  <path d="M184.373 158.75V59.1052" stroke="#605D5D" stroke-width="0.5" />
  <path
    d="M48.1268 115.409C47.9577 115.068 47.9577 114.7 48.1268 114.587L50.8822 112.737C51.0513 112.623 51.3254 112.807 51.4945 113.148L54.2499 118.699C54.419 119.039 54.419 119.407 54.2499 119.521C54.0808 119.634 53.8067 119.45 53.6376 119.11L51.6214 115.048L51.6214 172.962L50.7553 172.381L50.7553 114.466L48.7391 115.82C48.57 115.934 48.2959 115.75 48.1268 115.409Z"
    fill="#005BFF"
  />
  <path
    d="M136.127 119.521C135.958 119.407 135.958 119.039 136.127 118.699L138.882 113.148C139.051 112.807 139.325 112.623 139.495 112.737L142.25 114.587C142.419 114.701 142.419 115.069 142.25 115.409C142.081 115.75 141.807 115.934 141.638 115.82L139.621 114.467L139.621 172.381L138.755 172.962L138.755 115.048L136.739 119.11C136.57 119.451 136.296 119.635 136.127 119.521Z"
    fill="#005BFF"
  />
  <defs>
    <filter
      id="filter0_d_326_678"
      x="3"
      y="29.6309"
      width="183.106"
      height="109.717"
      filterUnits="userSpaceOnUse"
      color-interpolation-filters="sRGB"
    >
      <feFlood flood-opacity="0" result="BackgroundImageFix" />
      <feColorMatrix
        in="SourceAlpha"
        type="matrix"
        values="0 0 0 0 0 0 0 0 0 0 0 0 0 0 0 0 0 0 127 0"
        result="hardAlpha"
      />
      <feOffset dy="4" />
      <feComposite in2="hardAlpha" operator="out" />
      <feColorMatrix
        type="matrix"
        values="0 0 0 0 0.8125 0 0 0 0 0.8125 0 0 0 0 0.8125 0 0 0 0.25 0"
      />
      <feBlend
        mode="normal"
        in2="BackgroundImageFix"
        result="effect1_dropShadow_326_678"
      />
      <feBlend
        mode="normal"
        in="SourceGraphic"
        in2="effect1_dropShadow_326_678"
        result="shape"
      />
    </filter>
  </defs>
</svg>
