<svg
  width="188"
  height="217"
  viewBox="0 0 188 217"
  fill="none"
  xmlns="http://www.w3.org/2000/svg"
>
  <g filter="url(#filter0_d_41_265)">
    <rect
      width="12.488"
      height="58.872"
      transform="matrix(0.866025 -0.5 0 1 14 108.259)"
      fill="#FAFAFA"
    />
    <rect
      width="12.488"
      height="65.116"
      transform="matrix(0.866025 -0.5 0 1 30.2224 92.6489)"
      fill="#FAFAFA"
    />
    <rect
      width="12.488"
      height="36.572"
      transform="matrix(0.866025 -0.5 0 1 46.4448 111.827)"
      fill="#FAFAFA"
    />
    <rect
      width="12.488"
      height="82.9559"
      transform="matrix(0.866025 -0.5 0 1 62.667 56.0769)"
      fill="#FAFAFA"
    />
    <rect
      width="12.488"
      height="58.872"
      transform="matrix(0.866025 -0.5 0 1 78.8894 70.7949)"
      fill="#FAFAFA"
    />
    <rect
      width="12.488"
      height="102.58"
      transform="matrix(0.866025 -0.5 0 1 95.1118 17.7209)"
      fill="#FAFAFA"
    />
  </g>
  <rect
    x="0.216506"
    y="0.125"
    width="103.423"
    height="105.962"
    transform="matrix(0.866025 -0.5 0 1 46.029 80.7005)"
    fill="#F4F4F5"
    stroke="#605D5D"
    stroke-width="0.5"
    stroke-dasharray="1 1"
  />
  <rect
    x="0.216506"
    y="0.125"
    width="103.423"
    height="105.962"
    transform="matrix(0.866025 -0.5 0 1 82.029 100.701)"
    stroke="#605D5D"
    stroke-width="0.5"
    stroke-dasharray="1 1"
  />
  <path
    d="M63.6416 103.329L93.4247 107.125M93.4247 107.125L122.434 60.4522M93.4247 107.125L95.7455 120.971M93.4247 107.125L125.142 127.67M93.4247 107.125L61.3208 136.38M93.4247 107.125L120.114 75.6377M93.4247 107.125L82.9813 99.3091M93.4247 107.125L78.3397 140.846"
    stroke="#605D5D"
    stroke-width="0.5"
  />
  <circle
    cx="2.23316"
    cy="2.23316"
    r="1.98316"
    transform="matrix(0.866025 -0.5 0 1 120.887 58.6655)"
    fill="#F4F4F5"
    stroke="#605D5D"
    stroke-width="0.5"
  />
  <circle
    cx="2.23316"
    cy="2.23316"
    r="1.98316"
    transform="matrix(0.866025 -0.5 0 1 61.3208 101.989)"
    fill="#F4F4F5"
    stroke="#605D5D"
    stroke-width="0.5"
  />
  <circle
    cx="2.23316"
    cy="2.23316"
    r="1.98316"
    transform="matrix(0.866025 -0.5 0 1 93.8115 119.854)"
    fill="#F4F4F5"
    stroke="#605D5D"
    stroke-width="0.5"
  />
  <circle
    cx="2.23316"
    cy="2.23316"
    r="1.98316"
    transform="matrix(0.866025 -0.5 0 1 76.0188 139.953)"
    fill="#F4F4F5"
    stroke="#605D5D"
    stroke-width="0.5"
  />
  <circle
    cx="2.23316"
    cy="2.23316"
    r="1.98316"
    transform="matrix(0.866025 -0.5 0 1 82.2075 98.8625)"
    fill="#F4F4F5"
    stroke="#605D5D"
    stroke-width="0.5"
  />
  <circle
    cx="2.23316"
    cy="2.23316"
    r="1.98316"
    transform="matrix(0.866025 -0.5 0 1 117.792 74.7444)"
    fill="#F4F4F5"
    stroke="#605D5D"
    stroke-width="0.5"
  />
  <circle
    cx="2.23316"
    cy="2.23316"
    r="1.98316"
    transform="matrix(0.866025 -0.5 0 1 123.208 127)"
    fill="#F4F4F5"
    stroke="#605D5D"
    stroke-width="0.5"
  />
  <circle
    cx="2.23316"
    cy="2.23316"
    r="1.98316"
    transform="matrix(0.866025 -0.5 0 1 59 135.486)"
    fill="#F4F4F5"
    stroke="#605D5D"
    stroke-width="0.5"
  />
  <g clip-path="url(#clip0_41_265)">
    <path
      d="M100.089 174.676C101.028 174.134 101.929 174.044 102.593 174.428C103.257 174.811 103.63 175.636 103.63 176.72C103.63 177.805 103.257 179.061 102.593 180.211C101.929 181.361 101.028 182.312 100.089 182.854C99.1493 183.397 98.2485 183.486 97.5844 183.103C96.9202 182.719 96.5471 181.894 96.5471 180.81C96.5471 179.725 96.9202 178.47 97.5844 177.319C98.2485 176.169 99.1493 175.218 100.089 174.676ZM100.089 168.542C105.357 165.5 109.938 166.232 112.314 169.841C112.544 170.19 112.659 170.365 112.746 170.803C112.802 171.092 112.802 171.758 112.746 172.112C112.659 172.65 112.544 172.957 112.314 173.572C109.938 179.925 105.357 185.947 100.089 188.988C94.8204 192.03 90.2388 191.298 87.8629 187.689C87.6328 187.34 87.5178 187.165 87.4315 186.727C87.3747 186.438 87.3747 185.773 87.4315 185.418C87.5178 184.881 87.6328 184.573 87.8629 183.958C90.2388 177.606 94.8204 171.583 100.089 168.542ZM90.8376 181.926C90.5228 182.589 90.3653 182.92 90.2229 183.624C90.1346 184.06 90.1346 184.964 90.2229 185.298C90.3653 185.838 90.5228 185.987 90.8376 186.287C91.6892 187.097 92.7436 187.605 93.953 187.778C95.7935 188.041 97.9193 187.516 100.089 186.264C102.258 185.012 104.384 183.082 106.224 180.693C107.434 179.124 108.488 177.398 109.34 175.605C109.654 174.942 109.812 174.61 109.954 173.906C110.043 173.47 110.043 172.566 109.954 172.232C109.812 171.693 109.654 171.543 109.34 171.243C108.488 170.433 107.434 169.925 106.224 169.752C104.384 169.489 102.258 170.014 100.089 171.266C97.9193 172.519 95.7935 174.449 93.953 176.837C92.7436 178.406 91.6892 180.132 90.8376 181.926Z"
      fill="#005BFF"
    />
  </g>
  <path d="M2.9834 158.75V59.1052" stroke="#605D5D" stroke-width="0.5" />
  <path d="M184.373 158.75V59.1052" stroke="#605D5D" stroke-width="0.5" />
  <path
    d="M185.062 55.9678V161.29L93.8486 213.952L2.63672 161.29V55.9678L93.8486 3.30566L185.062 55.9678Z"
    stroke="#DBDBDB"
    stroke-width="0.5"
  />
  <path
    d="M96.1118 106.031V108.84L93.6782 110.246L91.2446 108.84V106.031L93.6782 104.625L96.1118 106.031Z"
    fill="#FAFAFA"
    stroke="#605D5D"
    stroke-width="0.3"
  />
  <path
    d="M96.1118 212.239V215.049L93.6782 216.454L91.2446 215.049V212.239L93.6782 210.834L96.1118 212.239Z"
    fill="#FAFAFA"
    stroke="#605D5D"
    stroke-width="0.3"
  />
  <path
    d="M5.41699 159.732V162.541L2.9834 163.947L0.549805 162.541V159.732L2.9834 158.326L5.41699 159.732Z"
    fill="#FAFAFA"
    stroke="#605D5D"
    stroke-width="0.3"
  />
  <path
    d="M186.807 159.732V162.541L184.373 163.947L181.939 162.541V159.732L184.373 158.326L186.807 159.732Z"
    fill="#FAFAFA"
    stroke="#605D5D"
    stroke-width="0.3"
  />
  <path
    d="M5.41699 54.7166V57.5261L2.9834 58.9314L0.549805 57.5261V54.7166L2.9834 53.3113L5.41699 54.7166Z"
    fill="#FAFAFA"
    stroke="#605D5D"
    stroke-width="0.3"
  />
  <path
    d="M186.807 54.7166V57.5261L184.373 58.9314L181.939 57.5261V54.7166L184.373 53.3113L186.807 54.7166Z"
    fill="#FAFAFA"
    stroke="#605D5D"
    stroke-width="0.3"
  />
  <path
    d="M96.1118 2.20898V5.01855L93.6782 6.42383L91.2446 5.01855V2.20898L93.6782 0.803711L96.1118 2.20898Z"
    fill="#FAFAFA"
    stroke="#605D5D"
    stroke-width="0.3"
  />
  <defs>
    <filter
      id="filter0_d_41_265"
      x="12"
      y="11.4771"
      width="93.9268"
      height="155.654"
      filterUnits="userSpaceOnUse"
      color-interpolation-filters="sRGB"
    >
      <feFlood flood-opacity="0" result="BackgroundImageFix" />
      <feColorMatrix
        in="SourceAlpha"
        type="matrix"
        values="0 0 0 0 0 0 0 0 0 0 0 0 0 0 0 0 0 0 127 0"
        result="hardAlpha"
      />
      <feOffset dx="-2" />
      <feComposite in2="hardAlpha" operator="out" />
      <feColorMatrix
        type="matrix"
        values="0 0 0 0 0.509615 0 0 0 0 0.509615 0 0 0 0 0.509615 0 0 0 0.25 0"
      />
      <feBlend
        mode="normal"
        in2="BackgroundImageFix"
        result="effect1_dropShadow_41_265"
      />
      <feBlend
        mode="normal"
        in="SourceGraphic"
        in2="effect1_dropShadow_41_265"
        result="shape"
      />
    </filter>
    <clipPath id="clip0_41_265">
      <rect
        width="34.8453"
        height="34.8453"
        fill="white"
        transform="matrix(0.866025 -0.5 0 1 85 170.054)"
      />
    </clipPath>
  </defs>
</svg>
