<svg xmlns="http://www.w3.org/2000/svg" fill="none" viewBox="0 0 186 218">
  <path
    stroke="#605d5d"
    stroke-width=".5"
    d="M2.95 159.59V59.02M182.6 159.59V59.02"
  />
  <path
    fill="#fafafa"
    stroke="#605d5d"
    stroke-width=".3"
    d="M95.18 106.38v2.84l-2.4 1.41-2.42-1.41v-2.84l2.41-1.42z"
  />
  <path
    fill="#727272"
    d="M25.9 174h.1v.18l.1.15-.1.05v.12h-.2l-.14.08-.04-.08h-.12v-.19l-.1-.16.1-.05v-.1h.16l.18-.1zm1.9-.69-.85.51-.26-.43.85-.5zm-1.8-.3h-.5v-1h.5zm3.5-.71-.85.5-.25-.42.85-.51zm1.72-1.02-.86.51-.25-.43.85-.5zm-5.22-.26h-.5v-1h.5zm6.93-.75-.86.5-.25-.43.85-.5zm1.7-1.02-.85.51-.26-.43.86-.5zm-8.63-.22h-.5v-.99h.5zm10.34-.8-.85.51-.26-.43.86-.5zm1.71-1-.85.5-.26-.43.85-.51zM26 167.04h-.5v-1h.5zm13.76-.85-.85.51-.26-.43.85-.5zm1.28-.76-.43.26-.25-.43.42-.26zM26 165.06h-.5v-1h.5zm0-1.99h-.5v-1h.5zm0-1.99h-.5v-.99h.5zm0-1.98h-.5v-1h.5zm0-2h-.5v-.49h.5zm73.27-26.18-.43.25-.26-.43.43-.25zm1.71-1-.86.5-.25-.43.86-.5zm1.71-1.01-.85.5-.25-.43.85-.5zm1.72-1-.86.5-.25-.43.86-.5zm1.71-1.01-.85.5-.26-.43.86-.5zm1.72-1-.86.5-.25-.44.86-.5zm1.71-1.01-.86.5-.25-.43.86-.5zm1.72-1-.86.5-.25-.44.85-.5zm1.71-1.01-.86.5-.25-.43.86-.5zm1.14-1h.24v.5h-.5v-.02l-.02.01-.25-.43.43-.25zm.24-1.99v1h-.5v-1zm0-1.99v1h-.5v-1zm0-1.99v1h-.5v-1zm0-1.98v1l-.5-.01v-1zm0-2v1h-.5v-1zm0-1.98v1h-.5v-1zm0-1.98v.99h-.5v-1zm0-2v1h-.5v-1zm0-1.48v.5h-.5v-.5zM25.9 84.78h-.5v-.5h.5zm0-1.49h-.5v-1h.5zm0-1.99h-.5v-1h.5zm0-1.99h-.5v-.99h.5zm0-1.98h-.5v-1h.5zm0-1.99h-.5v-1h.5zm0-1.99h-.5v-1h.5zm0-1.99h-.5v-.99h.5zm0-1.98h-.5v-1h.5zm0-1.99h-.5v-.5h.5zm-.5-.73-.43.25-.26-.43.43-.25zm1.7-1-.85.5-.25-.43.86-.5zm1.72-1-.85.5-.26-.44.86-.5zm1.72-1.01-.86.5-.25-.43.85-.5zm1.71-1-.86.5-.25-.44.86-.5zm1.72-1.01-.86.5-.25-.43.85-.5zm1.71-1-.86.5-.25-.44.86-.5zm1.71-1.02-.85.5-.25-.42.85-.5zm1.72-1-.86.5-.25-.43.86-.5zm1.29-.75-.43.25-.26-.43.43-.26zm73.97-25v.5h-.5v-.5zm0-1.98v1h-.5v-1zm0-1.99v1h-.5v-1zm0-1.99v1h-.5v-1zm0-1.98v1l-.5-.01v-1zm-15.1-1.01-.42.25-.26-.43.43-.25zm15.1-.98v1h-.5v-1zm-13.38-.03-.86.5-.25-.42.86-.5zm1.71-1-.85.5-.25-.43.85-.5zm11.67-.96v1h-.5v-1zm-9.95-.05-.86.5-.25-.43.86-.5zm1.71-1-.85.5-.26-.43.86-.5zm8.24-.94v1h-.5v-1zm-6.52-.07-.86.5-.25-.43.86-.5zm1.71-1-.86.5-.25-.43.86-.5zm4.81-.91v1l-.5-.01v-1zm-3.1-.1-.85.5-.25-.43.86-.5zm1.72-1-.86.5-.25-.43.86-.5zm1.38-.4v.5h-.5v-.5zm-.1-.36-.42.25-.25-.43.43-.25z"
  />
  <path
    fill="#d7d7d7"
    d="M35.16 84.44q-1.2.7-2.09.43t-1.37-1.41q-.48-1.16-.48-3.12 0-1.98.48-3.68.5-1.72 1.37-3 .88-1.3 2.09-2t2.09-.41q.9.26 1.37 1.4.48 1.16.48 3.14 0 1.97-.48 3.67t-1.37 3q-.88 1.28-2.09 1.98m0-.55q1.6-.92 2.5-2.98.93-2.08.93-4.82 0-1.83-.42-2.9t-1.19-1.32q-.76-.27-1.82.34t-1.83 1.77q-.77 1.14-1.18 2.7t-.42 3.37q0 2.74.92 3.75.93 1 2.51.09m9.51-4.94q-1.2.7-2.09.43t-1.37-1.41q-.48-1.16-.48-3.12 0-1.98.48-3.69.5-1.71 1.37-3 .88-1.3 2.1-2 1.2-.69 2.08-.4.9.25 1.37 1.4.48 1.16.48 3.14 0 1.97-.48 3.67t-1.37 3q-.88 1.28-2.09 1.98m0-.55q1.6-.92 2.5-2.98.93-2.09.93-4.82 0-1.83-.41-2.9-.42-1.07-1.2-1.32-.76-.27-1.82.34t-1.83 1.77q-.76 1.14-1.18 2.7t-.42 3.37q0 2.74.93 3.75.92 1 2.5.09m9.51-4.94q-1.2.7-2.08.43t-1.38-1.41q-.47-1.16-.47-3.12 0-1.98.47-3.69.5-1.71 1.38-3 .88-1.3 2.08-2t2.1-.4q.89.25 1.37 1.4t.47 3.14q0 1.96-.47 3.67t-1.38 3q-.88 1.28-2.09 1.98m0-.55q1.6-.93 2.51-2.98.93-2.09.93-4.83 0-1.82-.42-2.9T56 60.89q-.76-.26-1.82.35-1.05.6-1.83 1.76-.76 1.15-1.18 2.7t-.42 3.37q0 2.74.93 3.76.92 1 2.5.09m7.73-4.19v-9.71l-2.23 1.28v-.45l.72-.41q.6-.34.94-.71.36-.38.5-.92.16-.53.16-1.36l.38-.22v12.23zm4.63-2.67v-9.72l-2.22 1.29v-.45l.71-.41q.6-.35.94-.72.36-.38.51-.91t.15-1.36l.39-.23v12.23zm6.87-3.7q-1.2.7-2.08.44-.89-.27-1.38-1.42-.47-1.15-.47-3.11 0-1.98.47-3.69.5-1.71 1.38-3 .88-1.3 2.08-2t2.1-.4q.89.25 1.36 1.4.48 1.16.48 3.14 0 1.96-.48 3.67t-1.37 3q-.88 1.28-2.09 1.98m0-.56q1.6-.92 2.5-2.98.93-2.08.93-4.82 0-1.82-.41-2.9t-1.2-1.32q-.76-.27-1.82.35-1.06.6-1.83 1.76-.76 1.15-1.18 2.7t-.42 3.37q0 2.74.93 3.76.92 1 2.5.08m9.52-4.94q-1.21.7-2.1.43t-1.36-1.4q-.48-1.16-.48-3.13 0-1.98.48-3.68.49-1.72 1.37-3 .88-1.3 2.09-2t2.08-.41q.9.26 1.38 1.41.47 1.16.47 3.14 0 1.96-.47 3.67t-1.38 3q-.88 1.28-2.08 1.97m0-.55q1.6-.92 2.5-2.98.93-2.08.93-4.82 0-1.83-.42-2.9t-1.2-1.32q-.75-.27-1.81.34t-1.84 1.77-1.18 2.7-.41 3.37q0 2.74.92 3.76.92 1 2.5.08m9.52-4.94q-1.21.7-2.09.43t-1.37-1.41q-.48-1.15-.48-3.12t.48-3.68q.49-1.72 1.37-3 .88-1.3 2.09-2t2.09-.41q.9.26 1.37 1.41t.48 3.13q0 1.97-.48 3.67t-1.37 3q-.88 1.28-2.1 1.98m0-.55q1.6-.92 2.51-2.98.93-2.08.93-4.82 0-1.83-.42-2.9t-1.2-1.32q-.75-.27-1.81.34t-1.84 1.77q-.76 1.14-1.18 2.7-.41 1.54-.41 3.37 0 2.74.92 3.75.93 1 2.5.09m7.73-4.18v-9.72l-2.22 1.29v-.45l.71-.42q.6-.34.94-.71.36-.38.51-.91.15-.54.15-1.36l.39-.23v12.23zm6.87-3.7q-1.2.7-2.08.43-.9-.26-1.38-1.4a8 8 0 0 1-.47-3.13q0-1.98.47-3.68.5-1.71 1.38-3 .88-1.3 2.08-2t2.1-.4q.89.24 1.37 1.4.47 1.16.47 3.14 0 1.96-.47 3.67a10 10 0 0 1-1.38 3 6.4 6.4 0 0 1-2.09 1.97m0-.55a6 6 0 0 0 2.51-2.98q.93-2.09.93-4.82 0-1.83-.42-2.9t-1.2-1.32q-.75-.27-1.82.35-1.05.61-1.83 1.76-.76 1.14-1.18 2.7a13 13 0 0 0-.42 3.37q0 2.74.93 3.76.93 1 2.5.08m-71.87 66.05q-1.2.7-2.09.43-.87-.27-1.37-1.41a8 8 0 0 1-.48-3.12q0-1.98.48-3.68.5-1.72 1.37-3 .88-1.3 2.09-2t2.09-.41q.9.26 1.37 1.4.48 1.16.48 3.14 0 1.97-.48 3.67t-1.37 3a6.5 6.5 0 0 1-2.09 1.98m0-.55q1.6-.92 2.5-2.98.93-2.09.93-4.82 0-1.83-.42-2.9t-1.19-1.32q-.76-.27-1.82.34t-1.83 1.77q-.77 1.14-1.18 2.7-.42 1.54-.42 3.37 0 2.74.92 3.75.93 1 2.51.09m9.51-4.94q-1.2.69-2.09.43-.87-.27-1.37-1.41a8 8 0 0 1-.48-3.12q0-1.98.48-3.69.5-1.71 1.37-3 .88-1.3 2.1-2 1.2-.69 2.08-.4.9.25 1.37 1.4.48 1.16.48 3.14 0 1.97-.48 3.67a10 10 0 0 1-1.37 3 6.5 6.5 0 0 1-2.09 1.98m0-.55a6 6 0 0 0 2.5-2.98q.93-2.09.93-4.83 0-1.82-.41-2.89-.42-1.07-1.2-1.32-.76-.27-1.82.34t-1.83 1.76q-.76 1.15-1.18 2.7t-.42 3.38q0 2.73.93 3.75.92 1 2.5.09m7.72-4.19V88.5l-2.22 1.28v-.44l.72-.42q.6-.34.94-.71.36-.38.5-.92t.15-1.36l.4-.22v12.23zm6.88-3.69q-1.2.7-2.09.43t-1.37-1.41-.48-3.12.48-3.68q.49-1.72 1.37-3 .88-1.3 2.09-2t2.09-.41q.9.26 1.37 1.41t.48 3.14q0 1.96-.48 3.66t-1.37 3q-.88 1.28-2.1 1.98m0-.55q1.6-.92 2.51-2.98.93-2.08.93-4.82 0-1.83-.42-2.9t-1.2-1.32q-.75-.27-1.81.34t-1.84 1.77q-.76 1.14-1.17 2.7-.42 1.54-.42 3.37 0 2.74.92 3.75.93 1 2.5.09M67 89.79v-9.72l-2.22 1.29v-.45l.71-.41q.6-.35.94-.72.36-.38.51-.91t.15-1.36l.39-.23v12.23zm4.63-2.68V77.4l-2.22 1.28v-.45l.72-.4q.6-.35.94-.72.35-.38.5-.92t.15-1.36l.4-.22v12.23zm6.88-3.69q-1.21.7-2.1.43-.87-.27-1.36-1.41-.48-1.16-.48-3.12 0-1.98.48-3.69.49-1.7 1.37-3t2.09-1.99 2.09-.41q.9.25 1.37 1.4.48 1.16.48 3.14 0 1.97-.48 3.67t-1.37 3q-.88 1.28-2.1 1.98m0-.55q1.6-.92 2.51-2.98.93-2.09.93-4.82 0-1.83-.42-2.9t-1.2-1.32q-.75-.27-1.81.34t-1.84 1.77q-.76 1.14-1.18 2.7-.41 1.54-.41 3.37 0 2.74.92 3.75.93 1 2.5.09m9.52-4.94q-1.2.7-2.09.43t-1.37-1.41q-.48-1.16-.48-3.12 0-1.98.48-3.69.5-1.71 1.37-3 .88-1.3 2.09-2 1.2-.69 2.09-.4.9.25 1.37 1.4.48 1.16.48 3.14 0 1.97-.48 3.67t-1.37 3q-.88 1.28-2.09 1.98m0-.55q1.6-.92 2.5-2.98.93-2.09.93-4.83 0-1.82-.42-2.89t-1.19-1.33q-.76-.26-1.82.35t-1.83 1.76q-.77 1.15-1.18 2.7-.42 1.55-.42 3.38 0 2.73.92 3.75.93 1 2.51.09m9.51-4.94q-1.2.7-2.09.43t-1.37-1.42-.48-3.11.48-3.69q.5-1.71 1.37-3 .88-1.3 2.1-2t2.08-.4q.9.25 1.37 1.4.48 1.16.48 3.14 0 1.96-.48 3.67a10 10 0 0 1-1.37 3q-.88 1.28-2.09 1.98m0-.55q1.6-.93 2.5-2.98.94-2.1.93-4.83 0-1.82-.41-2.9-.42-1.06-1.2-1.32-.76-.26-1.82.35-1.06.6-1.83 1.76-.76 1.15-1.18 2.7t-.42 3.37q0 2.74.93 3.76.92 1 2.5.09m9.51-4.95q-1.2.7-2.08.43-.9-.26-1.38-1.4a8 8 0 0 1-.47-3.13q0-1.98.47-3.68.5-1.71 1.38-3 .88-1.3 2.08-2t2.1-.4q.89.24 1.37 1.4.47 1.16.47 3.14 0 1.96-.47 3.67a10 10 0 0 1-1.38 3 6.4 6.4 0 0 1-2.09 1.97m0-.55a6 6 0 0 0 2.51-2.98q.93-2.09.93-4.82 0-1.83-.42-2.9t-1.2-1.32q-.75-.27-1.82.35-1.05.61-1.83 1.76-.76 1.14-1.18 2.7a13 13 0 0 0-.42 3.37q0 2.74.93 3.76.93 1 2.5.08m-71.87 66.05q-1.2.7-2.09.43-.87-.27-1.37-1.41a8 8 0 0 1-.48-3.12q0-1.98.48-3.68.5-1.72 1.37-3 .88-1.3 2.09-2 1.2-.7 2.09-.41.9.26 1.37 1.4.48 1.16.48 3.14 0 1.97-.48 3.67t-1.37 3a6.5 6.5 0 0 1-2.09 1.98m0-.55q1.6-.92 2.5-2.98.93-2.09.93-4.82 0-1.83-.42-2.9-.41-1.07-1.19-1.32-.75-.27-1.82.34-1.06.6-1.83 1.77-.76 1.14-1.18 2.7-.42 1.54-.42 3.37 0 2.74.92 3.75.93 1 2.51.09m9.51-4.94q-1.2.69-2.09.43-.87-.27-1.37-1.41a8 8 0 0 1-.48-3.12q0-1.98.48-3.69.5-1.71 1.37-3 .88-1.3 2.1-2 1.2-.7 2.08-.4.9.26 1.37 1.4.48 1.16.48 3.14 0 1.97-.48 3.67t-1.37 3a6.5 6.5 0 0 1-2.09 1.98m0-.55a6 6 0 0 0 2.5-2.98q.94-2.1.93-4.82 0-1.83-.41-2.9-.42-1.07-1.2-1.33-.75-.26-1.82.35-1.06.61-1.83 1.76-.75 1.16-1.18 2.7a13 13 0 0 0-.42 3.38q0 2.73.93 3.75.92 1 2.5.09m9.51-4.94q-1.2.69-2.08.43c-.88-.26-1.05-.65-1.38-1.41a8 8 0 0 1-.47-3.12q0-1.98.47-3.69.5-1.71 1.38-3 .88-1.3 2.08-2t2.1-.4q.89.26 1.37 1.4.47 1.16.47 3.14 0 1.96-.47 3.67t-1.38 3a6.5 6.5 0 0 1-2.09 1.98m0-.55a6 6 0 0 0 2.51-2.98q.93-2.1.93-4.83 0-1.82-.42-2.9-.42-1.06-1.2-1.32-.76-.26-1.82.35-1.05.61-1.83 1.76-.76 1.15-1.18 2.7a13 13 0 0 0-.42 3.38q0 2.73.93 3.75.93 1 2.5.09m7.73-4.19v-9.71l-2.23 1.28v-.45l.72-.41q.6-.35.94-.71.36-.38.5-.92.16-.52.16-1.36l.38-.22v12.23zm6.87-3.69q-1.2.7-2.09.43c-.89-.27-1.04-.65-1.37-1.41a8 8 0 0 1-.48-3.12q0-1.98.48-3.69.5-1.7 1.37-3t2.1-2q1.2-.69 2.08-.4.9.26 1.37 1.4.48 1.16.48 3.14 0 1.97-.48 3.67t-1.37 3a6.5 6.5 0 0 1-2.09 1.98m0-.55a6 6 0 0 0 2.5-2.98q.93-2.1.93-4.82 0-1.83-.42-2.9-.41-1.07-1.19-1.32-.75-.27-1.82.34-1.06.6-1.83 1.77-.76 1.14-1.18 2.7a13 13 0 0 0-.42 3.37q0 2.74.93 3.75.92 1 2.5.09m7.72-4.18v-9.72l-2.22 1.28v-.44L75 99q.6-.34.94-.71.35-.38.5-.91T76.6 96l.4-.22v12.23zm4.64-2.68v-9.71l-2.23 1.28v-.45l.72-.41q.6-.35.94-.72.36-.38.5-.9t.16-1.37l.38-.22v12.23zm4.63-2.67v-9.72l-2.22 1.29v-.45l.71-.42q.6-.34.94-.71.36-.38.5-.91t.16-1.36l.39-.23v12.23zm4.63-2.68v-9.71l-2.22 1.28v-.45l.71-.41q.6-.34.94-.72.36-.37.51-.9t.15-1.37l.39-.22V100zm6.87-3.7q-1.2.7-2.08.44-.88-.27-1.38-1.41-.47-1.16-.47-3.12 0-1.98.47-3.69.5-1.71 1.38-3 .88-1.3 2.08-2t2.1-.4q.89.25 1.37 1.4.47 1.16.47 3.14 0 1.97-.47 3.67-.48 1.7-1.38 3-.88 1.28-2.09 1.98m0-.55q1.6-.92 2.51-2.98.93-2.09.93-4.82 0-1.83-.42-2.9t-1.2-1.32q-.76-.27-1.82.34-1.05.61-1.83 1.77-.76 1.14-1.18 2.7-.42 1.54-.42 3.37 0 2.74.93 3.75.92 1 2.5.09m7.73-4.18v-9.72l-2.23 1.28v-.44l.72-.42a4 4 0 0 0 .94-.71q.35-.38.5-.92c.16-.54.16-.8.16-1.36l.38-.22v12.23zm-69.84 65.6q-1.2.69-2.09.42-.87-.27-1.37-1.41a8 8 0 0 1-.48-3.12q0-1.98.48-3.68.5-1.72 1.37-3 .88-1.3 2.09-2 1.2-.7 2.09-.41.9.26 1.37 1.4.48 1.16.48 3.14 0 1.97-.48 3.67t-1.37 3a6.5 6.5 0 0 1-2.09 1.98m0-.55q1.6-.92 2.5-2.98.93-2.09.93-4.82 0-1.83-.42-2.9-.41-1.06-1.19-1.32-.75-.27-1.82.34-1.06.6-1.83 1.77-.76 1.14-1.18 2.7-.42 1.54-.42 3.37 0 2.74.92 3.75.93 1 2.51.09m7.72-4.18v-9.72l-2.22 1.29v-.45l.72-.42a4 4 0 0 0 .94-.71q.35-.38.5-.91.15-.54.15-1.36l.39-.23v12.23zm6.88-3.7q-1.2.7-2.1.43-.87-.26-1.36-1.4a8 8 0 0 1-.48-3.13q0-1.97.48-3.68.49-1.71 1.37-3 .88-1.3 2.09-2 1.2-.7 2.08-.41.9.25 1.38 1.41t.47 3.14q0 1.96-.47 3.67t-1.38 3a6.5 6.5 0 0 1-2.08 1.97m0-.55q1.6-.92 2.5-2.98.93-2.09.93-4.82 0-1.83-.42-2.9t-1.2-1.32q-.75-.26-1.81.34-1.05.62-1.84 1.77-.76 1.14-1.18 2.7a13 13 0 0 0-.41 3.37q0 2.74.92 3.76.93 1 2.5.08m7.73-4.18v-9.72l-2.22 1.29v-.45l.71-.41a4 4 0 0 0 .94-.72q.36-.38.5-.91.15-.54.16-1.36l.39-.23V144zm6.87-3.7q-1.2.7-2.09.44-.87-.27-1.37-1.42a8 8 0 0 1-.48-3.11q0-1.98.48-3.69.5-1.71 1.37-3 .88-1.3 2.1-2 1.2-.7 2.08-.4.9.25 1.37 1.4.48 1.16.48 3.14 0 1.96-.48 3.67-.47 1.7-1.37 3-.88 1.28-2.09 1.98m0-.56a6 6 0 0 0 2.5-2.98q.94-2.08.93-4.82 0-1.82-.41-2.9-.42-1.06-1.2-1.32-.75-.26-1.82.35-1.05.61-1.83 1.76-.76 1.15-1.18 2.7a13 13 0 0 0-.42 3.37q0 2.74.93 3.76.92 1 2.5.08m7.73-4.18v-9.71l-2.23 1.28v-.45l.72-.41a4 4 0 0 0 .94-.71q.35-.39.5-.92.15-.52.15-1.36l.4-.22v12.23zm4.63-2.67v-9.72l-2.23 1.29v-.45l.72-.41a4 4 0 0 0 .94-.72q.36-.38.5-.91.16-.54.16-1.36l.38-.23v12.23zm6.87-3.7q-1.2.7-2.09.43c-.89-.27-1.04-.64-1.37-1.4a8 8 0 0 1-.48-3.13q0-1.97.48-3.68.5-1.71 1.37-3 .88-1.3 2.1-2 1.2-.7 2.08-.4.9.24 1.37 1.4t.48 3.14-.48 3.67-1.37 3a6.4 6.4 0 0 1-2.09 1.97m0-.55a6 6 0 0 0 2.5-2.98q.93-2.09.93-4.82 0-1.83-.42-2.9-.41-1.06-1.19-1.32-.76-.27-1.82.35-1.06.61-1.83 1.76-.76 1.15-1.18 2.7a13 13 0 0 0-.42 3.37q0 2.74.93 3.76.92 1 2.5.08m7.72-4.18v-9.71l-2.22 1.28v-.45l.72-.41q.59-.34.94-.72t.5-.9.15-1.37l.4-.22v12.23zm6.88-3.7q-1.2.7-2.1.44c-.9-.26-1.03-.65-1.36-1.41a8 8 0 0 1-.48-3.12q0-1.98.48-3.69.49-1.71 1.37-3 .88-1.3 2.09-2 1.2-.7 2.09-.4.9.26 1.37 1.4.48 1.16.48 3.14 0 1.96-.48 3.67a8 8 0 0 1-1.37 3 6.5 6.5 0 0 1-2.1 1.98m0-.55a6 6 0 0 0 2.51-2.98q.93-2.1.93-4.83 0-1.82-.42-2.89t-1.2-1.33q-.75-.26-1.81.35t-1.84 1.76-1.18 2.7a13 13 0 0 0-.41 3.38q0 2.73.92 3.75.93 1 2.5.09m9.52-4.94q-1.2.69-2.09.43-.87-.27-1.37-1.42a8 8 0 0 1-.48-3.11q0-1.98.48-3.69a10 10 0 0 1 1.37-3 6.4 6.4 0 0 1 2.09-2q1.2-.7 2.09-.4.9.25 1.37 1.4.48 1.16.48 3.14 0 1.96-.48 3.67a10 10 0 0 1-1.37 3 6.5 6.5 0 0 1-2.09 1.98m0-.55a6 6 0 0 0 2.5-2.98q.93-2.1.93-4.83 0-1.82-.42-2.9c-.42-1.07-.67-1.15-1.19-1.32q-.75-.27-1.82.35-1.06.61-1.83 1.76-.76 1.15-1.18 2.7a13 13 0 0 0-.42 3.37q0 2.74.92 3.76.93 1 2.51.09"
  />
  <path
    fill="#f4f4f5"
    stroke="#605d5d"
    stroke-dasharray="1 1"
    stroke-width=".5"
    d="M.22.12h102.91v106.95H.22z"
    transform="matrix(.86 -.5 0 1 63.05 89.32)"
  />
  <path
    fill="#fafafa"
    d="m107.63 70.8 19.36 5.06 14.6-5.79-5.22 53.81-23.55 29.92-5.14 8.8-.1-.06-.1.17-5.14-2.87-23.55-2.71-5.22-47.78 14.6-11.07 19.36-27.43.04-.07h.01l.02-.02z"
  />
  <path
    stroke="#005bff"
    d="m107.63 70.8 19.36 5.06 14.6-5.79-5.22 53.81-23.55 29.92-5.14 8.8-.1-.06-.1.17-5.14-2.87-23.55-2.71-5.22-47.78 14.6-11.07 19.36-27.43.04-.07h.01l.02-.02z"
  />
  <path
    stroke="#005bff"
    stroke-width="2"
    d="M108.17 71.34 88.56 99.13l-13.9 10.54 5.05 46.24 23.24 2.68 5.22 2.92"
  />
  <path
    stroke="#005bff"
    stroke-width="2"
    d="m106.99 72.03 19.61 5.13 13.91-5.51-5.05 52.08-23.25 29.52-5.22 8.94"
  />
  <mask
    id="a"
    width="16.45"
    height="49.5"
    x="100.56"
    y="92.69"
    fill="#000"
    maskUnits="userSpaceOnUse"
  >
    <path fill="#fff" d="M100.56 92.7H117v49.5h-16.45z" />
    <path
      d="M114.52 101.2v8.16l-3.58 4.46-.4 16.8-2.14 3.4-2.13-.94-.4-16.33-3.58-.32v-8.16l6.12-7.6z"
    />
  </mask>
  <path
    fill="#005bff"
    d="m114.52 101.2 1.73-1v-1.15l-.86-.07zm0 8.16.87 1.24.86-1.08v-1.16zm-3.58 4.46-.86-1.23-.84 1.04-.03 1.13zm-.4 16.8 1.14.84.56-.9.03-.88zm-2.14 3.4-1.14 2.17 1.14.5 1.15-1.83zm-2.13-.94-1.73 1.06.03.86.56.24zm-.4-16.33 1.73-1.06-.03-1.1-.84-.07zm-3.58-.32-1.73 1v1.15l.86.08zm0-8.16-.87-1.23-.86 1.08v1.15zm6.12-7.6.86-2.24-.86-.08-.87 1.08zm6.11.54-1.73 1v8.15l1.73-1 1.73-1v-8.15zm0 8.15-.86-1.23-3.58 4.46.86 1.23.87 1.23 3.58-4.45zm-3.58 4.46-1.73.94-.4 16.8 1.73-.93 1.73-.95.4-16.8zm-.4 16.8-1.15-.83-2.13 3.4 1.15.84 1.14.83 2.13-3.4zm-2.13 3.4 1.14-2.15-2.13-.95-1.14 2.16-1.15 2.16 2.13.95zm-2.13-.94 1.73-1.05-.41-16.34-1.73 1.06-1.73 1.05.4 16.34zm-.41-16.33.86-2.23-3.58-.32-.86 2.23-.87 2.23 3.58.32zm-3.58-.32 1.73-1v-8.16l-1.73 1-1.73 1v8.16zm0-8.16.86 1.23 6.12-7.6-.86-1.24-.87-1.23-6.12 7.61zm6.12-7.6-.87 2.23 6.12.54.86-2.23.87-2.23-6.12-.55z"
    mask="url(#a)"
  />
  <path
    stroke="#dbdbdb"
    stroke-width=".5"
    d="M183.27 55.85v106.3L92.94 215.3 2.61 162.15V55.85L92.94 2.7z"
  />
  <path
    fill="#fafafa"
    stroke="#605d5d"
    stroke-width=".3"
    d="M95.18 213.57v2.84l-2.4 1.41-2.42-1.41v-2.84l2.41-1.42zm89.82-53v2.84l-2.4 1.42-2.42-1.42v-2.84l2.41-1.41zm0-105.98v2.83l-2.4 1.42-2.42-1.42v-2.84l2.41-1.41zm-179.64 0v2.83l-2.4 1.42-2.41-1.42v-2.84l2.4-1.41zm89.82-53v2.84l-2.4 1.42-2.42-1.42V1.6L92.77.17zM5.36 160.57v2.84l-2.4 1.42-2.41-1.42v-2.84l2.4-1.41z"
  />
</svg>
