<svg
  xmlns="http://www.w3.org/2000/svg"
  width="24"
  height="24"
  viewBox="0 0 24 24"
  fill="none"
  stroke="currentColor"
  data-type="icon"
  data-variants-stroke-width="true"
  data-default-stroke-width="1"
  data-variants-scaling="scaling,non-scaling"
  data-default-scaling="non-scaling"
>
  <path
    fill="color-mix(in oklab, currentColor 5%, transparent)"
    d="M8.394 4.591 12 2.5l3.606 2.091v4.286L12 10.96 8.394 8.877zm-6.102 10.54 3.606-2.09 3.606 2.09v4.287L5.898 21.5l-3.606-2.082zm12.204 0 3.606-2.09 3.606 2.09v4.287L18.102 21.5l-3.606-2.082z"
  />
  <path
    d="m7.115 13.872 2.427-1.456L12 13.872m0 0 2.396-1.456 2.427 1.456m-4.823 0V10.96"
  />
  <path
    stroke="color-mix(in oklab, currentColor 50%, transparent)"
    d="m3.647 16.046 2.257 1.303m0 0 2.258-1.303M5.904 17.35v2.31m9.934-3.614 2.258 1.303m0 0 2.257-1.303m-2.257 1.303v2.31M9.517 5.21l2.257 1.303m0 0 2.258-1.304m-2.258 1.304V8.82"
  />
</svg>
