<svg
  xmlns="http://www.w3.org/2000/svg"
  width="24"
  height="24"
  viewBox="0 0 24 24"
  fill="none"
  stroke="currentColor"
  data-type="icon"
  data-default-stroke-width="1"
  data-default-vector-effect="non-scaling-stroke"
>
  <path
    d="m11.947 9.11-1.908 1.1v2.103m0 4.426 1.908 1.1 1.907-1.1v-2.126l1.982-1.144v-4.36l-3.89-2.245-3.889 2.245v4.36l1.982 1.144zm0 2.234 1.908 1.101 1.907-1.101v2.278l-1.907 1.1-1.908-1.1zm-4.043-1.758L4.29 18.919m0-6.967H1.548m4.893-5.189L4.588 4.91m7.338-.593V1.648m6.004 5.115 1.853-1.853m0 7.042h2.669m-4.522 5.263 1.853 1.853"
  />
</svg>
