<svg
  xmlns="http://www.w3.org/2000/svg"
  width="24"
  height="24"
  viewBox="0 0 24 24"
  fill="none"
  stroke="currentColor"
  data-type="icon"
  data-default-stroke-width="1"
  data-default-vector-effect="non-scaling-stroke"
>
  <path
    d="M7.294 4.78 12 2l4.706 2.78m-9.412 0v5.776m0-5.777L12 7.56m4.706-2.78L12 7.56m4.706-2.78v5.777m0 0L12 13.336m4.706-2.78 4.706 2.78m0 0v5.885L16.706 22m4.706-8.665-4.706 2.78m0 5.885L12 19.22M16.706 22v-5.886M12 19.221 7.294 22M12 19.22v-5.885M7.294 22l-4.706-2.78v-5.885M7.294 22v-5.886m-4.706-2.779 4.706-2.78m-4.706 2.78 4.706 2.78m0-5.56L12 13.336m0-5.776v5.776m0 0-4.706 2.78M12 13.334l4.706 2.78"
  />
</svg>
