<svg
  xmlns="http://www.w3.org/2000/svg"
  width="24"
  height="24"
  viewBox="0 0 24 24"
  fill="none"
  stroke="currentColor"
  data-type="icon"
  data-default-stroke-width="1"
  data-default-vector-effect="non-scaling-stroke"
>
  <path
    d="M3.579 9.526V6.873l1.946-1.14m4.438-2.5L12.07 2l2.107 1.234m4.3 2.5 1.945 1.14v2.652m0 4.935v2.467l-1.946 1.152m-4.3 2.673L12.07 22l-2.106-1.247M5.525 18.08l-1.946-1.152v-2.467m8.36 4.996-6.276-3.68V8.169m6.277 11.289 6.376-3.825v-7.28M11.94 19.459v-7.573m6.376-3.531L11.94 4.529 5.663 8.17m12.653.185-6.376 3.531M5.663 8.169l6.277 3.716"
  />
</svg>
