<svg
  xmlns="http://www.w3.org/2000/svg"
  width="24"
  height="24"
  viewBox="0 0 24 24"
  fill="none"
  stroke="currentColor"
  data-type="icon"
  data-default-stroke-width="1"
  data-default-vector-effect="non-scaling-stroke"
>
  <path
    d="M2 15.519v3.777h4.012M2 15.52v-3.78h1.852V8.185H2V4.704h20v3.481h-1.63v3.556H22v3.778m-20 0h4.012m15.988 0v3.777h-4.029M22 15.52h-4.029m0 0v3.777m0-3.777h-3.986m3.986 3.777h-3.986m0-3.777v3.777m0-3.777h-3.962m3.962 3.777h-3.962m0-3.777v3.777m0-3.777H6.012m4.011 3.777H6.012m0-3.777v3.777M8.05 8.611v2.85m3.982-2.85v2.85m3.993-2.85v2.85"
  />
</svg>
